<svg width="525" height="559" viewBox="0 0 525 559" fill="none" xmlns="http://www.w3.org/2000/svg">
<path d="M464.568 544.883L236.272 545C227.445 545.004 218.977 541.506 212.731 535.274C206.485 529.043 202.972 520.589 202.965 511.771L202.701 38.039C202.697 33.0616 203.675 28.1323 205.579 23.5325C207.482 18.9327 210.275 14.7526 213.796 11.231C217.317 7.70943 221.498 4.91534 226.101 3.00836C230.703 1.10138 235.636 0.118864 240.619 0.116945L464.7 0C473.627 0 482.188 3.54252 488.501 9.84825C494.813 16.154 498.359 24.7064 498.359 33.6241L498.637 510.879C498.629 519.9 495.037 528.549 488.648 534.925C482.26 541.301 473.599 544.883 464.568 544.883Z" fill="#DCE5F6"/>
<path d="M207.603 499.9L207.34 45.2026C207.359 34.4934 211.63 24.2292 219.216 16.662C226.802 9.09493 237.083 4.84299 247.804 4.83913L453.182 4.72218C458.499 4.71834 463.765 5.76094 468.679 7.79044C473.592 9.81993 478.057 12.7966 481.819 16.5503C485.581 20.304 488.565 24.7613 490.602 29.6675C492.639 34.5737 493.688 39.8327 493.69 45.1441L493.954 499.842C493.958 505.153 492.914 510.413 490.882 515.322C488.851 520.23 485.871 524.691 482.113 528.448C478.356 532.206 473.894 535.188 468.983 537.222C464.071 539.257 458.807 540.306 453.49 540.307L248.111 540.424C242.786 540.426 237.513 539.379 232.594 537.342C227.674 535.306 223.205 532.32 219.443 528.556C215.68 524.792 212.698 520.323 210.666 515.406C208.634 510.489 207.594 505.22 207.603 499.9Z" fill="#D8E3F5"/>
<path d="M329.273 23.1567C328.4 23.1567 327.562 22.8102 326.945 22.1933C326.327 21.5764 325.98 20.7398 325.98 19.8674C325.98 18.995 326.327 18.1584 326.945 17.5415C327.562 16.9247 328.4 16.5781 329.273 16.5781H371.552C372.002 16.5481 372.453 16.6107 372.878 16.7621C373.302 16.9134 373.691 17.1503 374.021 17.458C374.35 17.7657 374.612 18.1377 374.792 18.5509C374.971 18.9641 375.064 19.4097 375.064 19.8601C375.064 20.3105 374.971 20.7562 374.792 21.1694C374.612 21.5826 374.35 21.9545 374.021 22.2622C373.691 22.5699 373.302 22.8068 372.878 22.9582C372.453 23.1095 372.002 23.1721 371.552 23.1421L329.273 23.1567Z" fill="#DCE5F6"/>
<path d="M306.604 23.1714C305.952 23.1743 305.314 22.9838 304.771 22.6241C304.228 22.2645 303.803 21.7518 303.552 21.151C303.3 20.5502 303.233 19.8884 303.358 19.2493C303.484 18.6103 303.796 18.0229 304.256 17.5614C304.716 17.0999 305.303 16.7852 305.942 16.6571C306.581 16.5289 307.244 16.5932 307.846 16.8418C308.449 17.0903 308.964 17.5119 309.326 18.0531C309.689 18.5943 309.882 19.2309 309.882 19.8821C309.882 20.7519 309.537 21.5863 308.923 22.2028C308.309 22.8192 307.475 23.1675 306.604 23.1714Z" fill="#DCE5F6"/>
<path d="M318.708 23.1567C318.056 23.1596 317.418 22.9692 316.874 22.6095C316.331 22.2498 315.907 21.7371 315.655 21.1363C315.404 20.5355 315.336 19.8737 315.462 19.2347C315.587 18.5957 315.9 18.0082 316.36 17.5467C316.82 17.0853 317.406 16.7705 318.045 16.6424C318.684 16.5143 319.347 16.5786 319.95 16.8271C320.552 17.0756 321.067 17.4972 321.43 18.0384C321.792 18.5797 321.986 19.2162 321.986 19.8674C321.986 20.7373 321.641 21.5717 321.027 22.1881C320.412 22.8046 319.579 23.1528 318.708 23.1567Z" fill="#DCE5F6"/>
<path d="M394.412 23.1123C393.76 23.1123 393.123 22.919 392.581 22.5569C392.039 22.1948 391.617 21.6803 391.368 21.0784C391.12 20.4765 391.055 19.8144 391.183 19.1759C391.312 18.5374 391.627 17.9514 392.089 17.4919C392.551 17.0325 393.139 16.7204 393.778 16.5951C394.418 16.4699 395.081 16.5371 395.682 16.7883C396.284 17.0395 396.797 17.4634 397.157 18.0062C397.517 18.5491 397.707 19.1864 397.705 19.8376C397.705 20.2689 397.619 20.6959 397.454 21.0942C397.288 21.4924 397.045 21.8541 396.739 22.1584C396.433 22.4626 396.07 22.7035 395.671 22.8672C395.271 23.0309 394.844 23.1142 394.412 23.1123Z" fill="#DCE5F6"/>
<path d="M382.308 23.1275C381.657 23.1275 381.02 22.9345 380.479 22.5731C379.938 22.2117 379.515 21.698 379.266 21.0969C379.017 20.4959 378.952 19.8345 379.079 19.1964C379.206 18.5584 379.52 17.9723 379.98 17.5122C380.441 17.0522 381.027 16.7389 381.666 16.612C382.305 16.4851 382.967 16.5503 383.568 16.7992C384.17 17.0482 384.684 17.4698 385.046 18.0107C385.408 18.5516 385.601 19.1876 385.601 19.8381C385.603 20.2706 385.519 20.6992 385.354 21.0992C385.19 21.4991 384.947 21.8625 384.641 22.1684C384.335 22.4742 383.971 22.7164 383.571 22.881C383.17 23.0456 382.741 23.1294 382.308 23.1275Z" fill="#DCE5F6"/>
<path d="M455.378 11.4322H415.573C413.696 11.4314 411.869 12.0376 410.365 13.1602C408.861 14.2827 407.762 15.8613 407.231 17.6599L403.982 28.7997C403.395 30.8145 402.169 32.5841 400.487 33.8419C398.806 35.0997 396.761 35.7774 394.66 35.7731H306.474C304.374 35.7744 302.331 35.0975 300.648 33.8434C298.965 32.5892 297.733 30.8251 297.137 28.8144L293.873 17.6746C293.344 15.8762 292.245 14.2982 290.74 13.1777C289.236 12.0572 287.408 11.455 285.532 11.4614H245.697C237.312 11.4459 229.264 14.7574 223.323 20.668C217.382 26.5785 214.033 34.6041 214.014 42.9803L214.277 500.938C214.291 505.085 215.121 509.188 216.722 513.014C218.323 516.84 220.663 520.314 223.608 523.237C226.553 526.159 230.045 528.474 233.885 530.048C237.726 531.623 241.839 532.426 245.99 532.413L455.627 532.311C464.012 532.326 472.06 529.015 478.001 523.104C483.942 517.193 487.291 509.168 487.31 500.792L487.047 42.8487C487.004 34.4917 483.647 26.4922 477.711 20.6034C471.775 14.7146 463.744 11.4166 455.378 11.4322Z" fill="white"/>
<path d="M498.389 127.099C498.904 127.103 499.396 127.309 499.761 127.673C500.125 128.037 500.331 128.529 500.335 129.043V192.388C500.335 192.901 500.132 193.394 499.77 193.758C499.408 194.122 498.917 194.329 498.403 194.333L498.389 127.099Z" fill="#DCE5F6"/>
<path d="M202.745 168.691C202.213 168.691 201.703 168.902 201.327 169.277C200.951 169.653 200.74 170.162 200.74 170.693V209.244C200.744 209.777 200.959 210.286 201.337 210.661C201.715 211.036 202.227 211.247 202.76 211.247L202.745 168.691Z" fill="#DCE5F6"/>
<path d="M202.716 113.021C202.451 113.021 202.189 113.073 201.945 113.174C201.701 113.276 201.479 113.425 201.293 113.612C201.107 113.8 200.959 114.022 200.859 114.267C200.759 114.512 200.709 114.774 200.711 115.038V153.574C200.715 154.108 200.929 154.619 201.307 154.996C201.685 155.374 202.196 155.588 202.731 155.591L202.716 113.021Z" fill="#DCE5F6"/>
<path d="M202.702 71.3416C202.241 71.3416 201.798 71.5248 201.471 71.8511C201.144 72.1773 200.961 72.6198 200.961 73.0812V89.4108C200.961 89.6386 201.006 89.8641 201.094 90.0744C201.181 90.2846 201.31 90.4755 201.472 90.6358C201.634 90.7962 201.826 90.923 202.037 91.0088C202.248 91.0946 202.474 91.1378 202.702 91.1359V71.3416Z" fill="#DCE5F6"/>
<path d="M422.772 27.645H420.738V30.4958H422.772V27.645Z" fill="white"/>
<path d="M426.079 26.3726H424.045V30.4805H426.079V26.3726Z" fill="white"/>
<path d="M429.388 25.4229H427.354V30.4811H429.388V25.4229Z" fill="white"/>
<path d="M432.694 23.5806H430.66V30.4808H432.694V23.5806Z" fill="white"/>
<path d="M462.695 30.6124H452.45C452.355 30.6144 452.26 30.5973 452.172 30.5622C452.083 30.527 452.002 30.4746 451.934 30.4079C451.866 30.3411 451.812 30.2615 451.775 30.1736C451.738 30.0858 451.719 29.9914 451.719 29.8961V24.8232C451.719 24.6319 451.794 24.4482 451.928 24.3115C452.062 24.1748 452.244 24.0961 452.436 24.0923H462.68C462.729 24.0957 462.776 24.1168 462.811 24.1517C462.846 24.1867 462.867 24.2331 462.87 24.2823V25.9489H463.968C463.992 25.9488 464.016 25.9538 464.038 25.9635C464.061 25.9732 464.081 25.9875 464.097 26.0054C464.114 26.0232 464.127 26.0443 464.134 26.0673C464.142 26.0903 464.145 26.1147 464.143 26.139V28.5658C464.143 28.6162 464.123 28.6645 464.088 28.7001C464.052 28.7358 464.004 28.7558 463.953 28.7558H462.855V30.4224C462.857 30.4454 462.855 30.4687 462.848 30.4907C462.841 30.5128 462.83 30.5332 462.815 30.5509C462.8 30.5685 462.781 30.5831 462.761 30.5936C462.74 30.6042 462.718 30.6106 462.695 30.6124ZM462.504 24.4578H452.45C452.357 24.4578 452.268 24.4947 452.202 24.5605C452.136 24.6263 452.099 24.7156 452.099 24.8086V29.8815C452.099 29.9745 452.136 30.0638 452.202 30.1296C452.268 30.1954 452.357 30.2323 452.45 30.2323H462.46V28.5658C462.46 28.5192 462.479 28.4746 462.512 28.4417C462.545 28.4088 462.589 28.3903 462.636 28.3903H463.734V26.3144H462.695C462.648 26.3144 462.603 26.2959 462.57 26.263C462.537 26.2301 462.519 26.1855 462.519 26.139L462.504 24.4578Z" fill="white"/>
<path d="M452.949 29.4136V25.3056L461.657 25.291V27.1477V27.557V29.4136H452.949Z" fill="white"/>
<path d="M442.411 30.2324C442.411 30.0849 442.367 29.9408 442.285 29.8182C442.203 29.6956 442.086 29.6 441.95 29.5436C441.814 29.4871 441.664 29.4724 441.519 29.5011C441.374 29.5299 441.241 29.6009 441.137 29.7052C441.032 29.8095 440.961 29.9423 440.932 30.0869C440.904 30.2316 440.918 30.3815 440.975 30.5177C441.031 30.654 441.127 30.7704 441.25 30.8523C441.372 30.9343 441.517 30.978 441.664 30.978C441.862 30.978 442.052 30.8994 442.192 30.7596C442.332 30.6198 442.411 30.4301 442.411 30.2324Z" fill="white"/>
<path d="M439.119 28.4486L440.07 29.3842C440.495 28.9646 441.068 28.7292 441.666 28.7292C442.263 28.7292 442.836 28.9646 443.261 29.3842L444.212 28.4339C443.535 27.7623 442.62 27.3841 441.666 27.3813C441.192 27.3823 440.722 27.4771 440.285 27.6602C439.848 27.8434 439.452 28.1114 439.119 28.4486Z" fill="white"/>
<path d="M441.664 25.3057C440.15 25.3071 438.699 25.9062 437.625 26.9723L438.576 27.9225C439.398 27.1101 440.508 26.6544 441.664 26.6544C442.82 26.6544 443.93 27.1101 444.752 27.9225L445.703 26.9723C445.174 26.4418 444.544 26.0213 443.851 25.7353C443.157 25.4492 442.414 25.3032 441.664 25.3057Z" fill="white"/>
<path d="M436.074 25.4078L437.025 26.3581C437.631 25.7442 438.354 25.2573 439.15 24.9259C439.947 24.5945 440.802 24.4254 441.665 24.4283C443.403 24.4298 445.071 25.1183 446.304 26.3434L447.255 25.3932C446.521 24.6594 445.649 24.0773 444.69 23.6802C443.731 23.283 442.703 23.0786 441.665 23.0786C440.626 23.0786 439.598 23.283 438.639 23.6802C437.68 24.0773 436.808 24.6594 436.074 25.3932V25.4078Z" fill="white"/>
<path d="M357.139 218.093C363.447 218.093 368.561 212.973 368.561 206.657C368.561 200.341 363.447 195.221 357.139 195.221C350.831 195.221 345.717 200.341 345.717 206.657C345.717 212.973 350.831 218.093 357.139 218.093Z" fill="#D8E3F5"/>
<path d="M385.568 261.35C386.799 260.664 388.205 260.359 389.609 260.474C391.013 260.589 392.351 261.119 393.454 261.995C394.557 262.872 395.376 264.057 395.806 265.4C396.236 266.742 396.259 268.183 395.872 269.539C395.484 270.894 394.703 272.105 393.628 273.016C392.554 273.927 391.233 274.499 389.833 274.658C388.434 274.818 387.019 274.558 385.767 273.912C384.515 273.265 383.483 272.262 382.801 271.028C381.888 269.376 381.667 267.43 382.186 265.616C382.705 263.801 383.921 262.267 385.568 261.35Z" fill="#D8E3F5"/>
<path d="M414.873 210.233C415.741 209.282 416.872 208.609 418.122 208.3C419.372 207.991 420.686 208.06 421.897 208.499C423.108 208.937 424.162 209.725 424.926 210.762C425.69 211.8 426.13 213.041 426.19 214.329C426.25 215.617 425.928 216.894 425.263 217.998C424.599 219.103 423.623 219.985 422.458 220.535C421.293 221.084 419.991 221.275 418.718 221.084C417.444 220.894 416.256 220.329 415.303 219.462C414.025 218.295 413.262 216.667 413.182 214.937C413.101 213.207 413.709 211.515 414.873 210.233Z" fill="#D8E3F5"/>
<path d="M321.099 322.997C321.099 325.103 320.476 327.162 319.307 328.913C318.139 330.664 316.478 332.029 314.535 332.835C312.591 333.641 310.453 333.852 308.39 333.441C306.327 333.03 304.432 332.016 302.945 330.527C301.458 329.037 300.445 327.14 300.034 325.075C299.624 323.009 299.835 320.868 300.64 318.922C301.445 316.977 302.808 315.314 304.556 314.144C306.305 312.974 308.361 312.349 310.465 312.349C311.862 312.347 313.246 312.621 314.537 313.155C315.828 313.69 317.002 314.474 317.99 315.463C318.978 316.452 319.761 317.627 320.294 318.92C320.828 320.213 321.102 321.598 321.099 322.997Z" fill="#D8E3F5"/>
<path d="M320.645 406.119C320.648 407.632 320.203 409.113 319.366 410.372C318.529 411.632 317.337 412.615 315.942 413.196C314.547 413.777 313.011 413.931 311.528 413.638C310.046 413.345 308.684 412.618 307.614 411.549C306.544 410.48 305.815 409.118 305.519 407.634C305.223 406.15 305.373 404.612 305.951 403.214C306.528 401.816 307.507 400.621 308.763 399.78C310.02 398.939 311.497 398.49 313.008 398.49C315.031 398.49 316.97 399.293 318.402 400.723C319.834 402.154 320.64 404.094 320.645 406.119Z" fill="#D8E3F5"/>
<path d="M310.061 493.702C310.065 494.779 309.748 495.833 309.151 496.73C308.555 497.627 307.706 498.325 306.712 498.738C305.717 499.15 304.623 499.257 303.568 499.045C302.513 498.833 301.545 498.312 300.786 497.548C300.028 496.784 299.513 495.811 299.308 494.753C299.103 493.696 299.217 492.601 299.635 491.608C300.053 490.615 300.756 489.769 301.655 489.178C302.555 488.586 303.609 488.275 304.685 488.285C306.113 488.299 307.478 488.875 308.484 489.888C309.49 490.902 310.057 492.272 310.061 493.702Z" fill="#D8E3F5"/>
<path d="M342.083 333.629C347.947 333.629 352.701 328.869 352.701 322.998C352.701 317.126 347.947 312.366 342.083 312.366C336.219 312.366 331.465 317.126 331.465 322.998C331.465 328.869 336.219 333.629 342.083 333.629Z" fill="#D8E3F5"/>
<path d="M387.736 398.49C387.733 399.998 387.283 401.472 386.444 402.724C385.605 403.977 384.413 404.952 383.021 405.527C381.628 406.102 380.096 406.25 378.619 405.954C377.142 405.658 375.786 404.93 374.722 403.862C373.658 402.794 372.934 401.435 372.641 399.955C372.349 398.476 372.5 396.943 373.078 395.549C373.655 394.156 374.632 392.966 375.884 392.128C377.137 391.29 378.61 390.843 380.116 390.843C381.118 390.843 382.111 391.041 383.036 391.426C383.962 391.81 384.803 392.374 385.51 393.084C386.218 393.794 386.779 394.637 387.161 395.565C387.543 396.492 387.739 397.486 387.736 398.49Z" fill="#D8E3F5"/>
<path d="M357.843 483.221C357.604 484.265 357.061 485.215 356.284 485.95C355.506 486.685 354.528 487.173 353.473 487.352C352.418 487.531 351.334 487.393 350.358 486.955C349.382 486.517 348.557 485.799 347.988 484.892C347.42 483.985 347.132 482.93 347.162 481.859C347.193 480.788 347.539 479.751 348.158 478.877C348.777 478.004 349.641 477.334 350.641 476.952C351.64 476.57 352.73 476.493 353.773 476.731C354.466 476.89 355.121 477.183 355.7 477.595C356.28 478.007 356.773 478.529 357.151 479.132C357.529 479.734 357.784 480.406 357.903 481.107C358.022 481.809 358.001 482.527 357.843 483.221Z" fill="#D8E3F5"/>
<path d="M339.855 259.729C339.852 263.207 338.819 266.607 336.886 269.497C334.954 272.388 332.209 274.64 328.998 275.968C325.788 277.297 322.256 277.643 318.849 276.963C315.443 276.282 312.314 274.605 309.858 272.145C307.403 269.684 305.732 266.55 305.055 263.138C304.379 259.726 304.727 256.19 306.058 252.977C307.388 249.764 309.64 247.017 312.528 245.085C315.417 243.153 318.813 242.122 322.287 242.122C324.596 242.122 326.881 242.578 329.014 243.463C331.147 244.348 333.084 245.645 334.716 247.28C336.347 248.915 337.641 250.856 338.523 252.992C339.405 255.129 339.857 257.418 339.855 259.729Z" fill="#D8E3F5"/>
<path d="M322.453 196.142C328.761 196.142 333.875 191.022 333.875 184.706C333.875 178.39 328.761 173.27 322.453 173.27C316.145 173.27 311.031 178.39 311.031 184.706C311.031 191.022 316.145 196.142 322.453 196.142Z" fill="#D8E3F5"/>
<path d="M284.053 218.093C290.361 218.093 295.475 212.973 295.475 206.657C295.475 200.341 290.361 195.221 284.053 195.221C277.745 195.221 272.631 200.341 272.631 206.657C272.631 212.973 277.745 218.093 284.053 218.093Z" fill="#D8E3F5"/>
<path d="M283.441 279.775C282.893 281.073 281.973 282.18 280.797 282.955C279.621 283.729 278.242 284.138 276.834 284.128C275.427 284.118 274.054 283.69 272.889 282.899C271.724 282.108 270.819 280.988 270.29 279.682C269.76 278.376 269.629 276.942 269.913 275.562C270.198 274.182 270.884 272.916 271.887 271.927C272.889 270.937 274.162 270.267 275.545 270.002C276.927 269.737 278.358 269.888 279.654 270.437C280.517 270.799 281.299 271.328 281.957 271.994C282.614 272.661 283.134 273.45 283.486 274.318C283.838 275.185 284.015 276.114 284.007 277.051C283.999 277.987 283.807 278.913 283.441 279.775Z" fill="#D8E3F5"/>
<path d="M292.665 333.092C293.194 334.273 293.362 335.584 293.146 336.86C292.931 338.136 292.343 339.319 291.455 340.26C290.568 341.201 289.422 341.857 288.162 342.146C286.902 342.434 285.585 342.342 284.378 341.881C283.17 341.419 282.127 340.61 281.379 339.554C280.631 338.499 280.213 337.245 280.177 335.952C280.141 334.658 280.489 333.383 281.178 332.288C281.866 331.192 282.863 330.326 284.043 329.799C284.825 329.447 285.669 329.253 286.526 329.228C287.382 329.203 288.236 329.348 289.037 329.654C289.838 329.96 290.57 330.421 291.193 331.011C291.815 331.601 292.316 332.308 292.665 333.092Z" fill="#D8E3F5"/>
<path d="M379.425 268.18C379.425 268.18 357.543 228.928 354.944 217.73C354.944 217.73 362.438 212.731 369.389 211.811C369.389 211.811 389.648 254.289 393.026 261.544L379.425 268.18Z" fill="#ECF1FA"/>
<path d="M398.893 267.727C399.517 267.056 423.522 221.1 423.522 221.1L409.91 214.306L383.744 260.022L398.893 267.727Z" fill="#ECF1FA"/>
<path d="M425.829 215.558C425.829 215.558 452.858 209.164 446.417 195.927C439.975 182.689 423.047 200.758 419.857 207.245L425.978 216.278" fill="#ECF1FA"/>
<path d="M372.563 531.75H282.662C282.662 524.19 285.662 516.939 291.001 511.593C296.34 506.247 303.582 503.244 311.133 503.244H344.109C351.66 503.244 358.902 506.247 364.241 511.593C369.58 516.939 372.58 524.19 372.58 531.75H372.563Z" fill="#D8E3F5"/>
<path d="M323.879 272.977C324.147 272.977 324.382 324.708 324.382 388.512C324.382 452.317 324.147 504.065 323.879 504.065C323.611 504.065 323.377 452.351 323.377 388.512C323.377 324.674 323.595 272.977 323.879 272.977Z" fill="#D8E3F5"/>
<path d="M303.564 265.715C303.564 265.715 292.963 282.803 295.927 316.575H351.194C351.194 316.575 354.544 276.33 341.531 264.726L303.564 265.715Z" fill="#ECF1FA"/>
<path d="M298.154 331.901H323.477L321.098 403.403H303.748L298.154 331.901Z" fill="#ECF1FA"/>
<path d="M303.396 408.316L298.154 490.382L310.815 492.779L322.137 410.714L303.396 408.316Z" fill="#ECF1FA"/>
<path d="M292.627 503.244C292.627 503.244 292.794 493.182 302.977 492.78C313.16 492.378 314.315 503.244 314.315 503.244H292.627Z" fill="#ECF1FA"/>
<path d="M335.082 334.668L358.093 324.121L385.66 390.122L369.9 397.349L335.082 334.668Z" fill="#ECF1FA"/>
<path d="M370.336 398.49L346.973 477.336L358.796 482.484L388.088 405.013L370.336 398.49Z" fill="#ECF1FA"/>
<path d="M341.412 489.46C342.065 490.566 372.563 501.986 372.563 501.986C372.563 501.986 379.798 495.53 356.987 485.133L352.114 482.886C351.202 482.464 350.212 482.237 349.207 482.22C348.202 482.202 347.205 482.394 346.278 482.784C345.352 483.174 344.517 483.752 343.826 484.483C343.135 485.214 342.604 486.081 342.266 487.028L341.412 489.46Z" fill="#ECF1FA"/>
<path d="M294.185 191.045C293.347 191.246 294.888 236.321 304.752 252.972C304.752 252.972 340.207 251.815 341.061 252.972C341.915 254.129 353.404 213.8 352.366 192.118C352.366 192.118 327.462 183.198 294.185 191.045Z" fill="#ECF1FA"/>
<path d="M317.58 121.153C317.58 121.153 294.937 121.639 299.157 150.464C303.378 179.29 308 179.306 308.134 180.044C308.268 180.782 336.605 178.066 336.605 178.066C336.605 178.066 352.046 119.912 317.58 121.153Z" fill="#ECF1FA"/>
<path d="M270.722 271.68C270.722 271.68 271.367 226.732 274.725 215.732C274.725 215.732 283.699 215.167 290.195 217.847C290.195 217.847 286.527 264.758 285.813 272.735L270.722 271.68Z" fill="#ECF1FA"/>
<path d="M269.037 283.019C268.951 283.912 278.412 334.915 278.412 334.915L293.33 331.832L285.696 279.69L269.037 283.019Z" fill="#ECF1FA"/>
<path d="M282.502 342.592C282.502 342.592 273.946 369.047 288.584 370.382C303.222 371.717 296.629 347.865 292.784 341.862L281.88 342.424" fill="#ECF1FA"/>
<path d="M79.7183 500.333L74.9568 525.964C74.9568 525.964 99.3276 539.395 98.918 544.265L48.8965 536.781L54.7844 496.437L79.7183 500.333Z" fill="#3C4858"/>
<path d="M48.9961 536.78L49.7641 532.73L97.3792 541.445C97.3792 541.445 99.4272 542.727 98.9664 544.265L48.9961 536.78Z" fill="#1F2D3D"/>
<path d="M63.4345 506.483L62.9737 532.576C62.9737 532.576 89.3412 541.804 89.6484 546.571L39.1149 547.494L38.1934 506.842L63.4345 506.483Z" fill="#3C4858"/>
<path d="M27.8008 304.096L28.4664 329.881L36.095 409.955C36.095 409.955 33.6375 448.966 32.1015 471.009C30.7703 490.131 34.6103 523.298 34.6103 523.298L66.7633 522.478L75.3647 411.339L80.7406 342.082L91.5948 305.89L27.8008 304.096Z" fill="#1F2D3D"/>
<path d="M107.262 309.94L109.31 414.671C109.412 420.002 108.542 425.334 106.75 430.357L79.1024 507.355L77.72 512.43L58.418 508.278L67.7874 304.096L107.262 309.94Z" fill="#1F2D3D"/>
<path d="M81.9705 314.81C81.9705 315.118 81.8681 315.477 81.7145 315.733C81.5609 315.989 81.3049 316.246 80.9977 316.348C80.6905 316.502 80.3834 316.502 80.025 316.451C79.7178 316.4 79.4106 316.246 79.1546 316.041C78.8986 315.836 78.745 315.528 78.6938 315.22C78.6426 314.913 78.6426 314.554 78.745 314.246C78.8474 313.939 79.0522 313.683 79.3594 313.478C79.6154 313.272 79.9226 313.17 80.281 313.17C80.4858 313.17 80.6906 313.221 80.8953 313.272C81.1001 313.375 81.3049 313.477 81.4585 313.631C81.6121 313.785 81.7657 313.939 81.8169 314.144C81.9193 314.349 81.9705 314.554 81.9705 314.81Z" fill="#4F5B6C"/>
<path d="M52.2222 310.709C52.2222 320.5 44.2864 328.446 34.5074 328.446H32.4082" stroke="#4F5B6C" stroke-width="0.512634" stroke-miterlimit="10"/>
<path d="M99.1719 308.556V313.272C99.1719 318.193 103.165 327.164 108.081 327.164" stroke="#4F5B6C" stroke-width="0.512634" stroke-miterlimit="10"/>
<path d="M80.2809 328.446L76.7482 417.388L66.7643 522.375L34.6113 523.247" stroke="#4F5B6C" stroke-width="0.512634" stroke-miterlimit="10"/>
<path d="M135.831 174.194L133.832 164L127.895 165.531L126.666 156.97L125.079 143.18L119.959 150.715C119.345 151.638 118.986 152.715 118.884 153.842L118.116 180.038L118.014 191.265L130.711 199.262L130.455 185.933L133.425 182.755C136.292 179.628 135.831 174.194 135.831 174.194Z" fill="#F8B498"/>
<g filter="url(#filter0_d)">
<rect width="249.692" height="69.9985" rx="10" transform="matrix(0.991424 -0.130687 0.130365 0.991466 118.363 104.393)" fill="#F8FAFD"/>
<rect x="129.838" y="114.984" width="20" height="4" rx="2" transform="rotate(-7.5 129.838 114.984)" fill="#E8EEF9"/>
<rect x="131.666" y="128.865" width="20" height="4" rx="2" transform="rotate(-7.5 131.666 128.865)" fill="#E8EEF9"/>
<rect x="135.32" y="156.625" width="20" height="4" rx="2" transform="rotate(-7.5 135.32 156.625)" fill="#E8EEF9"/>
<rect x="155.354" y="109.608" width="2" height="50" rx="1" transform="rotate(-7.5 155.354 109.608)" fill="#E8EEF9"/>
<rect x="188.332" y="107.283" width="70.3459" height="4" rx="2" transform="rotate(-7.5 188.332 107.283)" fill="#E8EEF9"/>
<rect x="263.035" y="97.4487" width="20" height="4" rx="2" transform="rotate(-7.5 263.035 97.4487)" fill="#F5B0B2"/>
<rect x="287.82" y="94.1855" width="70.3459" height="4" rx="2" transform="rotate(-7.5 287.82 94.1855)" fill="#E8EEF9"/>
<rect x="165.375" y="124.427" width="20" height="4" rx="2" transform="rotate(-7.5 165.375 124.427)" fill="#F5B0B2"/>
<rect x="190.16" y="121.163" width="70.3459" height="4" rx="2" transform="rotate(-7.5 190.16 121.163)" fill="#E8EEF9"/>
<rect x="264.863" y="111.329" width="20" height="4" rx="2" transform="rotate(-7.5 264.863 111.329)" fill="#E8EEF9"/>
<rect x="289.648" y="108.066" width="70.3459" height="4" rx="2" transform="rotate(-7.5 289.648 108.066)" fill="#E8EEF9"/>
<rect x="167.201" y="138.307" width="20" height="4" rx="2" transform="rotate(-7.5 167.201 138.307)" fill="#E8EEF9"/>
<rect x="216.773" y="131.781" width="120.692" height="4" rx="2" transform="rotate(-7.5 216.773 131.781)" fill="#E8EEF9"/>
<rect x="341.391" y="115.375" width="20" height="4" rx="2" transform="rotate(-7.5 341.391 115.375)" fill="#F5B0B2"/>
<rect x="169.029" y="152.187" width="20" height="4" rx="2" transform="rotate(-7.5 169.029 152.187)" fill="#E8EEF9"/>
<rect x="193.814" y="148.924" width="120.692" height="4" rx="2" transform="rotate(-7.5 193.814 148.924)" fill="#E8EEF9"/>
<rect x="343.219" y="129.255" width="20" height="4" rx="2" transform="rotate(-7.5 343.219 129.255)" fill="#E8EEF9"/>
</g>
<path d="M120.318 165.684C121.957 162.762 123.902 159.994 126.053 157.431C126.718 156.559 127.537 155.842 128.51 155.278C128.971 155.021 129.534 154.919 130.097 154.919C130.661 154.97 131.173 155.175 131.633 155.483C132.043 155.944 132.35 156.508 132.401 157.123C132.504 157.738 132.401 158.354 132.094 158.917C131.531 160.045 130.763 161.019 129.893 161.891C129.022 162.762 128.408 163.89 128.152 165.12C128.152 166.299 128.357 167.478 128.766 168.555C129.227 170.4 129.176 172.348 128.664 174.194C128.152 176.039 127.179 177.731 125.848 179.064" fill="#F8B498"/>
<path d="M39.1152 547.495L39.1664 543.394L87.5496 544.06C87.5496 544.06 89.8023 544.983 89.5975 546.572L39.1152 547.495Z" fill="#1F2D3D"/>
<path d="M86.2188 177.783C86.2188 177.783 95.281 184.806 98.8649 192.803C101.988 199.313 105.572 205.567 109.463 211.668L115.965 188.138L133.578 196.545C133.578 196.545 128.151 233.403 126.871 237.71C125.079 243.707 120.778 249.039 114.071 248.424C107.364 247.809 103.37 244.784 98.9673 238.427L93.0282 227.662L86.2188 177.783Z" fill="#A8DBF7"/>
<path d="M57.7017 170.196C44.7483 168.35 31.539 170.452 19.9168 176.399C16.384 178.193 13.4145 180.192 11.9809 182.243C5.58104 191.163 23.2959 219.767 24.6271 226.842C25.2927 230.225 29.491 255.857 27.4942 276.055C26.2143 289.486 25.7023 302.968 26.0095 316.45L107.262 309.888C107.262 295.689 103.627 284.769 101.17 266.725L95.077 207.977L86.2708 177.732L73.6758 172.451L57.7017 170.196Z" fill="#A8DBF7"/>
<path d="M31.4879 322.038L32.1023 329.163C32.1023 329.163 37.5294 331.983 39.475 334.033C41.4205 336.084 47.1548 346.593 47.1548 346.593C46.6428 347.054 45.9773 347.362 45.3117 347.413C44.5949 347.464 43.9293 347.259 43.3661 346.849C41.8813 345.055 40.5502 343.209 39.3214 341.21C38.8094 341.108 38.2974 341.159 37.8366 341.313C37.3758 341.466 36.915 341.723 36.5566 342.082C36.1982 342.44 35.9422 342.902 35.7886 343.363C35.635 343.876 35.635 344.388 35.7374 344.85C36.4542 348.028 37.3246 351.719 37.3246 352.18C37.3246 352.642 40.499 355.718 42.9053 357.922C43.2125 358.23 43.4173 358.588 43.5197 359.05C43.6221 359.511 43.5197 359.921 43.3661 360.28C43.1613 360.69 42.9053 360.998 42.4957 361.203C42.1373 361.408 41.6765 361.51 41.2669 361.459C41.0621 361.408 40.9085 361.357 40.7549 361.203C40.7549 361.203 41.0109 364.586 36.403 361.869C36.403 361.869 32.2559 362.895 30.3103 360.536C30.3103 360.536 25.2416 359.819 23.4497 358.383C21.6577 356.897 17.613 341.62 17.613 341.62L15.2578 325.318L31.4879 322.038Z" fill="#F8B498"/>
<path d="M31.0772 346.645C30.9748 347.567 30.9748 348.49 31.1284 349.413C31.282 351.668 31.9476 353.873 33.1252 355.821C34.4564 357.666 36.2483 359.102 38.2963 360.024C39.0643 360.486 39.9347 360.845 40.8562 361.05C40.1395 360.486 39.3715 359.973 38.5523 359.614C36.6579 358.589 35.0196 357.154 33.7396 355.462C32.6132 353.565 31.9476 351.515 31.6404 349.361C31.5892 348.387 31.3844 347.516 31.0772 346.645Z" fill="#FF9574"/>
<path d="M27.5959 348.49C27.3399 349.31 27.3399 350.181 27.4935 351.053C27.5959 351.976 27.8007 352.898 28.0055 353.77C28.2615 354.898 28.7735 355.974 29.4391 356.897C30.207 357.717 31.0262 358.486 31.999 359.101L34.2006 360.639C34.8662 361.152 35.5829 361.613 36.2997 361.921C36.3509 361.818 35.6853 361.203 34.5078 360.229C33.9446 359.716 33.2278 359.153 32.4086 358.537C31.5382 357.922 30.719 357.205 29.9511 356.384C29.3367 355.513 28.8759 354.59 28.5687 353.565C28.3127 352.693 28.0567 351.822 27.9031 350.95C27.6983 349.464 27.6983 348.49 27.5959 348.49Z" fill="#FF9574"/>
<path d="M23.7571 350.951C23.4499 351.002 24.1667 353.77 25.2419 357C25.3955 357.461 25.6515 357.82 26.0099 358.128C26.2658 358.435 26.573 358.691 26.8802 358.897C27.3922 359.307 27.9554 359.665 28.5186 359.973C29.5426 360.486 30.2594 360.639 30.2594 360.537C30.2594 360.434 29.6962 360.178 28.7746 359.512C28.2626 359.153 27.7506 358.743 27.2898 358.333C26.9826 358.076 26.7266 357.82 26.4706 357.564C26.2146 357.307 26.0099 357 25.8563 356.692C25.3443 355.052 24.7811 353.616 24.3715 352.54C24.2691 352.078 24.0643 351.515 23.7571 350.951Z" fill="#FF9574"/>
<path d="M11.9806 182.242C11.9806 182.242 2.20156 194.443 2.15036 204.337C2.04796 214.282 0 278.464 0 278.464L13.7214 331.931L35.5834 326.395L27.8011 270.057L28.5691 221.1L11.9806 182.242Z" fill="#A8DBF7"/>
<path d="M28.5177 218.333L27.4937 272.467L35.6855 326.447L13.6699 331.983" stroke="#48AEE3" stroke-width="0.512634" stroke-miterlimit="10"/>
<path d="M93.6953 198.75L100.044 259.497" stroke="#48AEE3" stroke-width="0.512634" stroke-miterlimit="10"/>
<path d="M34.6621 105.706C34.6621 105.706 34.9693 90.3273 53.8618 88.6356C65.9447 87.5591 66.0471 93.5569 78.2325 92.788C89.3427 92.1215 99.9409 99.606 97.2274 112.781C94.9746 123.802 78.0789 130.005 78.0789 130.005L34.6621 105.706Z" fill="#A67C52"/>
<path d="M86.5398 145.716C90.8225 144.659 93.4383 140.326 92.3823 136.037C91.3263 131.749 86.9983 129.13 82.7156 130.188C78.4328 131.245 75.817 135.578 76.873 139.866C77.9291 144.155 82.257 146.774 86.5398 145.716Z" fill="#FF9574"/>
<path d="M72.4988 155.432L72.1916 168.812C72.038 176.706 65.587 183.012 57.7023 182.96C49.0497 182.858 42.445 175.219 43.6226 166.658L48.4865 136.567L72.4988 155.432Z" fill="#F8B498"/>
<path d="M81.9191 104.835C83.5062 106.475 86.2198 109.551 86.8342 115.088C87.6534 122.674 89.5477 141.181 86.1686 149.331C81.8679 159.687 72.7544 165.736 59.1355 161.942C59.1355 161.942 46.6429 160.507 41.011 135.695C32.3584 98.0168 65.8938 88.0205 81.9191 104.835Z" fill="#F8B498"/>
<path d="M80.6916 131.748C80.8964 132.722 81.8692 133.388 82.8419 133.183C83.8147 132.978 84.4803 132.004 84.2755 131.03C84.0707 130.056 83.0979 129.39 82.1252 129.595C81.1012 129.8 80.4868 130.774 80.6916 131.748Z" fill="#0E5977"/>
<path d="M64.4611 131.235C64.6659 132.209 65.6387 132.876 66.6115 132.671C67.5843 132.465 68.2498 131.491 68.045 130.517C67.8402 129.543 66.8675 128.877 65.8947 129.082C64.8707 129.287 64.2563 130.261 64.4611 131.235Z" fill="#0E5977"/>
<path d="M76.2367 130.466L78.3871 139.335C78.6431 140.309 77.9775 141.283 77.0047 141.334L76.1855 141.385" stroke="#FF9574" stroke-width="1.06156" stroke-miterlimit="10" stroke-linecap="round" stroke-linejoin="round"/>
<path d="M86.988 146.871L82.5849 147.588L81.4585 145.384C80.9977 144.461 80.0761 143.949 79.0521 143.949L68.9659 144.256C67.9931 144.307 67.174 144.82 66.7132 145.692L64.5116 147.896C64.5116 147.896 52.6846 150.613 50.4319 134.004L47.0527 133.132C47.0527 133.132 50.4831 140.565 45.6191 148.921C45.6191 148.921 50.6367 165.787 70.5531 162.916C70.6043 162.865 82.9945 161.583 86.988 146.871Z" fill="#A67C52"/>
<path d="M77.6179 147.947C77.6179 147.947 74.3412 149.69 71.0645 147.998" stroke="white" stroke-width="1.05726" stroke-miterlimit="10" stroke-linecap="round" stroke-linejoin="round"/>
<path d="M80.8457 122.367C80.8457 122.367 83.9176 121.854 88.0136 124.417" stroke="#A67C52" stroke-width="3.0758" stroke-miterlimit="10" stroke-linecap="round"/>
<path d="M70.6039 122.367C70.6039 122.367 62.9241 120.829 58.8281 124.417" stroke="#A67C52" stroke-width="3.0758" stroke-miterlimit="10" stroke-linecap="round"/>
<path d="M39.987 136.26L50.4828 134.004L48.6909 120.573C48.4861 119.138 49.3564 117.702 50.7388 117.395C53.094 116.779 56.2683 115.19 56.2683 110.782C56.3195 103.759 52.4796 99.7087 52.4796 99.7087C52.4796 99.7087 31.0784 96.2741 28.16 112.012C26.1121 122.982 32.3071 143.846 47.2061 152.202L39.987 136.26Z" fill="#A67C52"/>
<path d="M50.7888 102.374C50.7888 102.374 57.1887 108.166 67.8893 107.397C78.6411 106.577 80.6379 103.758 84.6314 108.115C84.6314 108.115 83.5562 93.1975 64.1006 92.6336C44.6449 92.0697 46.1809 104.68 46.1809 104.68L50.7888 102.374Z" fill="#A67C52"/>
<path d="M52.2396 136.151H81.3374C83.8048 136.151 86.1711 135.142 87.9158 133.345C89.6605 131.548 90.6406 129.112 90.6406 126.571C90.6381 124.031 89.6568 121.597 87.9124 119.803C86.168 118.008 83.8031 117 81.3374 117H52.2396C49.7748 117 47.4109 118.008 45.6681 119.803C43.9252 121.598 42.946 124.032 42.946 126.571C42.946 129.11 43.9249 131.545 45.6675 133.342C47.4101 135.138 49.7739 136.149 52.2396 136.151Z" fill="#374351"/>
<path d="M64.5184 136.151H93.5776C96.0432 136.149 98.4071 135.138 100.15 133.342C101.892 131.545 102.871 129.11 102.871 126.571C102.871 124.033 101.892 121.598 100.149 119.803C98.4062 118.009 96.0424 117 93.5776 117H64.4797C62.014 117 59.6492 118.008 57.9048 119.803C56.1604 121.597 55.1791 124.032 55.1765 126.571C55.1765 127.832 55.4184 129.081 55.8884 130.246C56.3583 131.411 57.047 132.469 57.915 133.359C58.783 134.25 59.8131 134.954 60.9463 135.434C62.0795 135.913 63.2934 136.157 64.5184 136.151Z" fill="#646E79"/>
<path d="M64.8257 135.246H93.3052C95.5113 135.246 97.6269 134.344 99.1868 132.737C100.747 131.131 101.623 128.952 101.623 126.68C101.623 124.408 100.747 122.23 99.1868 120.623C97.6269 119.017 95.5113 118.115 93.3052 118.115H64.8257C62.6197 118.115 60.504 119.017 58.9441 120.623C57.3842 122.23 56.5079 124.408 56.5079 126.68C56.5079 128.952 57.3842 131.131 58.9441 132.737C60.504 134.344 62.6197 135.246 64.8257 135.246Z" fill="#202E3D"/>
<path d="M80.3713 118.115L93.8672 135.226H90.0513L76.3428 118.115H80.3713Z" fill="#FCFDFE"/>
<path d="M84.8926 119.5L90.8851 127.5" stroke="#FCFDFE" stroke-linecap="round"/>
<path d="M74.9062 120.5L77.2367 123.5M85.3931 134L78.7903 125.5" stroke="#FCFDFE" stroke-linecap="round"/>
<path d="M29.3383 130.38C28.1674 131.552 28.1686 133.452 29.3409 134.623C30.5133 135.793 32.4128 135.792 33.5836 134.62L29.3383 130.38ZM32.9004 126.813L29.3383 130.38L33.5836 134.62L37.1457 131.053L32.9004 126.813ZM42.0986 129H47.4409V123H42.0986V129ZM37.1457 131.053C38.4587 129.739 40.2406 129 42.0986 129V123C38.648 123 35.3389 124.372 32.9004 126.813L37.1457 131.053Z" fill="#374351"/>
<path d="M30.3633 139.028C31.4385 143.847 36.2 146.923 41.0127 145.846C45.8254 144.77 48.8974 140.002 47.8222 135.183C46.747 130.365 41.9855 127.289 37.1728 128.365C32.3601 129.442 29.3393 134.209 30.3633 139.028Z" fill="#F8B498"/>
<path d="M35.3281 134.209C35.3281 134.209 42.0352 132.825 43.1616 140.207" stroke="#FF9574" stroke-width="1.06156" stroke-miterlimit="10" stroke-linecap="round" stroke-linejoin="round"/>
<path d="M439.853 357.9C443.349 368.7 446.245 385.8 445.846 400.2C445.746 404.1 444.947 407.7 444.148 411C443.049 415.5 439.054 418.6 434.36 418.6H382.825C378.63 418.6 374.935 416.1 373.437 412.2C371.839 408 370.141 403.9 369.642 400C365.247 368.8 376.833 346.2 384.024 339.2C387.419 335.9 392.014 334.1 396.708 334.1H406.795C410.39 334.1 414.086 334.7 417.482 335.8C428.068 339.1 436.458 347.3 439.853 357.9Z" fill="#A67C52"/>
<path d="M503.774 517.9L420.878 512.8C420.378 511.6 419.979 510.9 419.979 510.9L397.507 511.3L390.216 510.9C390.216 510.9 390.116 511.1 389.917 511.5L314.411 513C299.33 513 283.55 522.2 283.55 534C283.351 545.2 288.744 557.3 302.227 557L404.998 556.7L507.769 557C521.252 557.3 524.847 549.1 524.847 539.5C526.445 521.5 515.259 518 503.774 517.9Z" fill="#3C4858"/>
<path d="M448.443 421.1L478.505 470.6C482.201 476.7 482.4 484.2 479.104 490.5C475.209 497.8 467.219 502.4 458.53 502.1L412.288 500.9L411.09 485L451.739 477.6L424.373 432.7L448.443 421.1Z" fill="#FFBF9D"/>
<path d="M354.66 505.5L391.714 515.3L392.513 504.2L358.456 484.4L383.424 438L362.45 427.2L336.183 473C329.792 484.8 335.784 499.5 348.568 503.6L354.66 505.5Z" fill="#FFBF9D"/>
<path d="M441.452 456.6L466.82 443.2C466.82 443.2 462.625 434.3 455.934 425.1C448.044 414.2 435.859 406.6 422.076 403.7L392.913 404C388.718 404.4 385.323 405.2 382.526 406.4V406.3C366.746 409.8 349.168 444.4 349.168 444.4L372.239 456.6L372.738 460.2C373.437 465 375.535 469.5 378.731 473.1L372.039 517.3L446.945 518.9L437.457 487.2L441.452 456.6Z" fill="#EF7E82"/>
<path d="M368.244 528.1L363.949 478.7H455.135L449.142 528.7L368.244 528.1Z" fill="#CCCCCC"/>
<path d="M415.386 505C415.386 508.2 412.789 510.8 409.594 510.8C406.398 510.8 403.801 508.2 403.801 505C403.801 501.8 406.398 499.2 409.594 499.2C412.789 499.2 415.386 501.8 415.386 505Z" fill="#FAFAFA"/>
<path d="M407.994 537.7L423.475 539.9V556.7L409.193 556.3L407.994 537.7Z" fill="#FFBF9D"/>
<path d="M423.475 539.9H430.466C431.864 539.9 433.162 540.3 434.361 540.9L438.056 543C439.255 543.7 443.15 545.6 444.448 546.1C448.643 547.5 455.834 549.3 457.332 550.5C461.627 553.8 460.328 557.7 457.931 558.1C455.834 558.5 423.574 556.8 423.574 556.8V539.9H423.475Z" fill="#1F2D3D"/>
<path d="M398.205 389.7L398.704 406.9C398.804 413.1 403.898 418 409.99 418.1C416.782 418.2 422.075 412.3 421.476 405.6L417.98 372.8L398.205 389.7Z" fill="#F8B498"/>
<path d="M384.223 345.8C382.325 347.4 381.127 349.6 380.628 352C379.229 359.1 376.433 374 378.93 381.5C382.226 391.3 390.215 397.6 403.099 395.1C403.099 395.1 418.08 394.4 421.776 372.4C427.069 341.3 400.303 332.2 384.223 345.8Z" fill="#F8B498"/>
<path d="M401.601 341.5C401.601 341.5 387.319 339.6 380.627 352C380.627 352 381.326 333.9 402.999 336.5L401.601 341.5Z" fill="#A67C52"/>
<path d="M401.602 341.5C401.602 341.5 409.392 341.9 410.99 349.8C412.188 355.7 406.495 362.1 415.684 371.8L425.072 363.7C425.072 363.7 431.364 336.3 403.1 336.4L401.602 341.5Z" fill="#A67C52"/>
<path d="M422.376 381.4C427.395 381.4 431.464 377.37 431.464 372.4C431.464 367.429 427.395 363.4 422.376 363.4C417.356 363.4 413.287 367.429 413.287 372.4C413.287 377.37 417.356 381.4 422.376 381.4Z" fill="#F8B498"/>
<path d="M426.47 369.7C426.47 369.7 419.878 367.8 418.08 375.1" stroke="#FF9574" stroke-width="1.0154" stroke-miterlimit="10" stroke-linecap="round" stroke-linejoin="round"/>
<path d="M382.226 366.9C382.026 367.8 381.127 368.3 380.229 368.1C379.33 367.9 378.83 367 379.03 366.1C379.23 365.2 380.129 364.7 381.028 364.9C381.926 365.1 382.526 366 382.226 366.9Z" fill="#101010"/>
<path d="M396.907 367.2C396.707 368.1 395.709 368.7 394.81 368.4C393.911 368.2 393.312 367.2 393.611 366.3C393.811 365.4 394.81 364.8 395.709 365.1C396.607 365.4 397.207 366.3 396.907 367.2Z" fill="#101010"/>
<path d="M387.418 363.3L384.222 372.3C383.822 373.3 384.422 374.4 385.52 374.7L386.419 374.9" stroke="#FF9574" stroke-width="1.0354" stroke-miterlimit="10" stroke-linecap="round" stroke-linejoin="round"/>
<path d="M384.521 379L394.209 377.9C394.209 377.9 394.809 381.9 390.015 382.4C385.32 383 384.521 379 384.521 379Z" fill="white"/>
<path d="M377.932 358.1C377.932 358.1 394.211 352 394.411 339.2C394.411 339.2 377.932 339.4 377.932 358.1Z" fill="#A67C52"/>
<path d="M413.586 358.1C413.586 358.1 394.61 352 394.41 339.2C394.41 339.2 413.686 338.8 413.586 358.1Z" fill="#A67C52"/>
<path d="M309.717 521.2C309.717 521.2 320.703 518.5 332.189 526.9" stroke="#1F2D3D" stroke-miterlimit="10"/>
<path d="M318.705 525.6L407.893 535.1L409.191 556.3" stroke="#1F2D3D" stroke-miterlimit="10"/>
<path d="M483.498 521.5C483.498 521.5 475.707 522.1 471.912 529.4" stroke="#1F2D3D" stroke-miterlimit="10"/>
<path d="M497.28 523.1L423.473 539.9" stroke="#1F2D3D" stroke-miterlimit="10"/>
<path d="M377.732 442.1C377.732 442.1 366.646 463.1 379.429 473.4" stroke="#EA5C62" stroke-miterlimit="10" stroke-linecap="round"/>
<defs>
<filter id="filter0_d" x="114.957" y="70.0583" width="263.488" height="108.845" filterUnits="userSpaceOnUse" color-interpolation-filters="sRGB">
<feFlood flood-opacity="0" result="BackgroundImageFix"/>
<feColorMatrix in="SourceAlpha" type="matrix" values="0 0 0 0 0 0 0 0 0 0 0 0 0 0 0 0 0 0 127 0"/>
<feOffset dy="1.70312"/>
<feGaussianBlur stdDeviation="1.70312"/>
<feColorMatrix type="matrix" values="0 0 0 0 0.121569 0 0 0 0 0.176471 0 0 0 0 0.239216 0 0 0 0.05 0"/>
<feBlend mode="normal" in2="BackgroundImageFix" result="effect1_dropShadow"/>
<feBlend mode="normal" in="SourceGraphic" in2="effect1_dropShadow" result="shape"/>
</filter>
</defs>
</svg>
