<svg width="48" height="48" viewBox="0 0 48 48" fill="none" xmlns="http://www.w3.org/2000/svg">
<path d="M11.4247 23.113L23.3346 5.24808C23.7304 4.65434 24.6029 4.65434 24.9987 5.24808L36.8786 23.0679C37.143 23.4645 37.091 23.9894 36.7706 24.3424C34.6084 26.7247 31.1993 31.6361 30.7905 36.7406C30.7464 37.2911 30.3023 37.7396 29.75 37.7396H17.7604C17.2081 37.7396 16.7636 37.2913 16.725 36.7403C16.3669 31.6318 13.3794 26.7167 11.4878 24.3366C11.2067 23.9829 11.1741 23.4889 11.4247 23.113Z" fill="#E8EEF9" stroke="#E8EEF9" stroke-width="1.64583"/>
<path d="M34.07 43.5H14.32C14.0457 41.0312 15.6367 36.0938 24.195 36.0938C32.7533 36.0938 34.3443 41.0312 34.07 43.5Z" fill="#D8E3F5" stroke="#D8E3F5" stroke-width="1.64583"/>
<path d="M27.4583 23.9274C27.4583 25.7453 25.9846 27.2191 24.1667 27.2191C22.3487 27.2191 20.875 25.7453 20.875 23.9274C20.875 22.1095 22.3487 20.6357 24.1667 20.6357C25.9846 20.6357 27.4583 22.1095 27.4583 23.9274Z" stroke="#6EBFE9" stroke-width="2.5"/>
<path d="M24 20L24 5" stroke="#6EBFE9" stroke-width="2.5" stroke-linecap="round"/>
</svg>
