<svg width="133" height="53" viewBox="0 0 133 53" fill="none" xmlns="http://www.w3.org/2000/svg">
<g clip-path="url(#clip0)">
<path d="M27.6219 0H132.722L112.222 15.4V28.3C112.222 34.7 109.722 40.7 105.422 45.2C101.122 49.7 95.3219 52.1 89.3219 52.1H23.3219C17.3219 52.1 11.5219 49.7 7.22188 45.2C2.92188 40.7 0.421875 34.6 0.421875 28.3C0.421875 24.6 1.22187 20.9 2.52187 17.4C3.92188 14 5.92188 10.8 8.42188 8.2C10.9219 5.6 13.9219 3.5 17.2219 2.1C20.5219 0.7 24.1219 0 27.6219 0Z" fill="#7BC9A5"/>
<path d="M96.122 16.9C96.122 16.9 94.622 20.4 92.322 26.1C90.022 31.8 87.522 30.4 86.522 24.4C85.422 18.4 84.322 15.2 82.522 16.2C80.722 17.2 79.422 30.5 76.322 31.1C73.222 31.7 72.122 16.5 69.022 17C65.922 17.5 66.822 31.4 62.622 31.2C58.422 31 59.622 16.4 55.322 17.1C51.022 17.8 54.122 32.2 48.822 31.5C43.522 30.8 45.822 16.7 41.622 17.8C37.422 19 39.622 31.9 34.922 32.3C30.222 32.7 33.222 17.3 27.622 18C22.022 18.7 27.422 33 21.722 32.8C16.022 32.6 17.822 17.8 14.022 18.3" stroke="#232E3C" stroke-width="0.75" stroke-miterlimit="10" stroke-linecap="round"/>
</g>
<defs>
<clipPath id="clip0">
<rect width="132.3" height="52.1" fill="white" transform="translate(0.421875)"/>
</clipPath>
</defs>
</svg>
