<svg width="48" height="49" viewBox="0 0 48 49" fill="none" xmlns="http://www.w3.org/2000/svg">
<circle cx="24" cy="24.2256" r="18" fill="#D8E3F5" stroke="#D8E3F5" stroke-width="4.00521"/>
<path d="M10 22.2256H6.10986L6 23.2256V24.2256C6 33.4414 12.9257 41.0395 21.8563 42.0993L22 42.1158V36.2256C22 34.0165 20.2091 32.2256 18 32.2256C15.7909 32.2256 14 30.4348 14 28.2256V26.2256C14 24.0165 12.2091 22.2256 10 22.2256Z" fill="#54B98B" stroke="#54B98B" stroke-width="4.00521" stroke-linecap="round" stroke-linejoin="round"/>
<path d="M21.998 16.2256H20.998C18.2366 16.2256 15.998 13.987 15.998 11.2256C15.998 9.27936 17.0159 7.45177 18.8889 6.92274C20.2615 6.53503 22.0057 6.22558 23.998 6.22558C33.598 6.22558 38.998 13.2256 40.127 16.2256L37.998 16.2256C35.7889 16.2256 33.998 18.0164 33.998 20.2256C33.998 22.4347 32.2072 24.2256 29.998 24.2256C27.7889 24.2256 25.998 22.4347 25.998 20.2256C25.998 18.0164 24.2072 16.2256 21.998 16.2256Z" fill="#54B98B" stroke="#54B98B" stroke-width="4.00521" stroke-linecap="round" stroke-linejoin="round"/>
<path d="M30 36.2257V41.2015C33 40.2257 37 38.2257 40.129 32.2257H34C31.7909 32.2257 30 34.0166 30 36.2257Z" fill="#54B98B" stroke="#54B98B" stroke-width="4.00521" stroke-linecap="round" stroke-linejoin="round"/>
</svg>
