<svg width="533" height="449" viewBox="0 0 533 449" fill="none" xmlns="http://www.w3.org/2000/svg">
<g filter="url(#filter0_dd)">
<rect x="68" y="4" width="398.242" height="119.473" rx="13.2747" fill="#F8FAFD"/>
<circle cx="87.9123" cy="23.912" r="6.63737" fill="#F5B0B2"/>
<circle cx="106.187" cy="23.912" r="6.63737" fill="#FEE182"/>
<circle cx="124.462" cy="23.912" r="6.63737" fill="#A2D9C0"/>
<rect x="81.2749" y="46.4792" width="26.5495" height="5.30989" rx="2.65495" fill="#E8EEF9"/>
<rect x="81.2749" y="65.064" width="26.5495" height="5.30989" rx="2.65495" fill="#E8EEF9"/>
<rect x="81.2749" y="102.233" width="26.5495" height="5.30989" rx="2.65495" fill="#E8EEF9"/>
<rect x="115.789" y="43.8242" width="2.65495" height="66.3736" rx="1.32747" fill="#E8EEF9"/>
<rect x="157.958" y="46.4792" width="129.23" height="5.30989" rx="2.65495" fill="#E8EEF9"/>
<rect x="292.188" y="46.4792" width="26.5495" height="5.30989" rx="2.65495" fill="#E8EEF9"/>
<rect x="323.738" y="46.4792" width="129.23" height="5.30989" rx="2.65495" fill="#D8E3F5"/>
<rect x="126.409" y="65.064" width="26.5495" height="5.30989" rx="2.65495" fill="#E8EEF9"/>
<rect x="157.958" y="65.064" width="129.23" height="5.30989" rx="2.65495" fill="#D8E3F5"/>
<rect x="292.188" y="65.064" width="26.5495" height="5.30989" rx="2.65495" fill="#E8EEF9"/>
<rect x="323.738" y="65.064" width="129.23" height="5.30989" rx="2.65495" fill="#E8EEF9"/>
<rect x="126.409" y="83.6484" width="26.5495" height="5.30989" rx="2.65495" fill="#E8EEF9"/>
<rect x="189.508" y="83.6484" width="231.91" height="5.30989" rx="2.65495" fill="#E8EEF9"/>
<rect x="426.418" y="83.6484" width="26.5495" height="5.30989" rx="2.65495" fill="#E8EEF9"/>
<rect x="126.409" y="102.233" width="26.5495" height="5.30989" rx="2.65495" fill="#E8EEF9"/>
<rect x="157.958" y="102.233" width="231.91" height="5.30989" rx="2.65495" fill="#D8E3F5"/>
<rect x="426.418" y="102.233" width="26.5495" height="5.30989" rx="2.65495" fill="#E8EEF9"/>
</g>
<rect x="68.1211" y="150.022" width="398" height="110" rx="13.2667" stroke="#D8E3F5" stroke-width="1.32667" stroke-dasharray="13.27 13.27"/>
<g filter="url(#filter1_dd)">
<rect x="68" y="286.572" width="398.242" height="92.9231" rx="13.2747" fill="#F8FAFD"/>
<rect x="81.2749" y="302.501" width="26.5495" height="5.30989" rx="2.65495" fill="#E8EEF9"/>
<rect x="81.2749" y="339.671" width="26.5495" height="5.30989" rx="2.65495" fill="#E8EEF9"/>
<rect x="81.2749" y="358.255" width="26.5495" height="5.30989" rx="2.65495" fill="#E8EEF9"/>
<rect x="115.789" y="299.846" width="2.65495" height="66.3736" rx="1.32747" fill="#E8EEF9"/>
<rect x="157.958" y="302.501" width="129.23" height="5.30989" rx="2.65495" fill="#D8E3F5"/>
<rect x="292.188" y="302.501" width="26.5495" height="5.30989" rx="2.65495" fill="#E8EEF9"/>
<rect x="323.738" y="302.501" width="129.23" height="5.30989" rx="2.65495" fill="#E8EEF9"/>
<rect x="126.409" y="321.086" width="26.5495" height="5.30989" rx="2.65495" fill="#E8EEF9"/>
<rect x="157.958" y="321.086" width="129.23" height="5.30989" rx="2.65495" fill="#E8EEF9"/>
<rect x="292.188" y="321.086" width="26.5495" height="5.30989" rx="2.65495" fill="#E8EEF9"/>
<rect x="323.738" y="321.086" width="129.23" height="5.30989" rx="2.65495" fill="#E8EEF9"/>
<rect x="126.409" y="339.671" width="26.5495" height="5.30989" rx="2.65495" fill="#D8E3F5"/>
<rect x="189.508" y="339.671" width="231.91" height="5.30989" rx="2.65495" fill="#E8EEF9"/>
<rect x="426.418" y="339.671" width="26.5495" height="5.30989" rx="2.65495" fill="#E8EEF9"/>
<rect x="126.409" y="358.255" width="26.5495" height="5.30989" rx="2.65495" fill="#E8EEF9"/>
<rect x="157.958" y="358.255" width="231.91" height="5.30989" rx="2.65495" fill="#E8EEF9"/>
<rect x="426.418" y="358.255" width="26.5495" height="5.30989" rx="2.65495" fill="#D8E3F5"/>
</g>
<g filter="url(#filter2_d)">
<rect x="4" y="68" width="285" height="214.5" rx="10" fill="#FCFDFE"/>
<path d="M133.25 78H20.625C16.9661 78 14 80.9661 14 84.625V203.875C14 207.534 16.9661 210.5 20.625 210.5H133.25C136.909 210.5 139.875 207.534 139.875 203.875V84.625C139.875 80.9661 136.909 78 133.25 78Z" fill="#A2D9C0"/>
<path d="M272.375 78H159.75C156.091 78 153.125 80.9661 153.125 84.625V203.875C153.125 207.534 156.091 210.5 159.75 210.5H272.375C276.034 210.5 279 207.534 279 203.875V84.625C279 80.9661 276.034 78 272.375 78Z" fill="#F5B0B2"/>
<rect width="265" height="8" rx="4" transform="matrix(-1 0 0 1 279 224.5)" fill="#E8EEF9"/>
<circle r="8" transform="matrix(-1 0 0 1 138 228.5)" fill="#D8E3F5"/>
<rect x="14" y="250.5" width="265" height="8" rx="4" fill="#E8EEF9"/>
<circle cx="155" cy="254.5" r="8" fill="#D8E3F5"/>
</g>
<g filter="url(#filter3_d)">
<g clip-path="url(#clip0)">
<path d="M269.012 341.712H325.845L325.962 284.059H269.012V341.712ZM311.154 301.794H315.368V323.509H311.154V301.794ZM307.935 331.41H293.243V326.494H307.935V331.41ZM293.068 290.146H307.935V298.458H293.068V290.146ZM293.068 301.794H307.935V323.509H293.068V301.794ZM279.255 290.146H289.615V298.458H279.255V290.146ZM279.255 301.794H289.615V323.509H279.255V301.794ZM279.255 326.494H289.615V331.41H279.255V326.494Z" fill="#F0F4FB"/>
<path d="M307.933 326.495H293.242V331.411H307.933V326.495Z" fill="#E0E9F7"/>
<path d="M289.615 326.495H279.255V331.411H289.615V326.495Z" fill="#E0E9F7"/>
<path d="M289.615 301.794H279.255V323.509H289.615V301.794Z" fill="#E0E9F7"/>
<path d="M307.934 301.794H293.067V323.509H307.934V301.794Z" fill="#E0E9F7"/>
<path d="M315.366 301.794H311.152V323.509H315.366V301.794Z" fill="#E0E9F7"/>
<path d="M509.864 444.727L510.859 437.762L522.799 439.576V435.245L511.035 434.601L511.503 427.577L522.741 428.221V420.612L506.235 420.671C506.235 430.035 504.947 439.635 502.782 449.116C507.406 450.17 515.132 452.043 522.741 453.916V446.658L509.864 444.727Z" fill="#F0F4FB"/>
<path d="M509.866 444.726L522.801 446.658V439.576L510.861 437.761L509.866 444.726Z" fill="#E0E9F7"/>
<path d="M511.036 434.66L522.8 435.304V428.221L511.504 427.578L511.036 434.66Z" fill="#E0E9F7"/>
<path d="M512.206 340.191H522.8V314.203C520.459 323.568 516.889 332.231 512.206 340.191Z" fill="#F0F4FB"/>
<path d="M522.508 381.396C519.991 381.396 517.826 379.23 517.826 376.596C517.826 373.962 519.874 371.914 522.449 371.914C522.567 371.914 522.684 371.914 522.859 371.972V368.753C520.05 368.46 517.826 368.285 516.479 368.168V379.288H510.392V358.276H515.192V356.988C517.357 356.813 519.991 356.696 522.801 356.637V353.535H433.249C431.668 358.451 428.917 362.841 425.23 366.236C424.762 372.206 424.82 379.757 426.518 385.61H522.801V381.396C522.684 381.396 522.567 381.396 522.508 381.396ZM501.378 358.217H507.466V369.104H501.378V358.217ZM492.833 358.217H498.92V369.104H492.833V358.217ZM443.55 358.627H463.333V369.104H443.55V358.627ZM441.267 379.64H434.829V358.627H441.267V379.64ZM472.991 379.347H443.55V372.792H472.991V379.347ZM490.023 379.347H475.332V372.792H490.023V379.347ZM490.023 369.104H465.675V358.627H490.023V369.104ZM507.524 379.347H492.833V372.792H507.524V379.347Z" fill="#F0F4FB"/>
<path d="M517.767 376.596C517.767 379.23 519.933 381.396 522.45 381.396C522.567 381.396 522.625 381.396 522.742 381.396V371.972C522.625 371.972 522.508 371.914 522.332 371.914C519.874 371.914 517.767 373.962 517.767 376.596Z" fill="#A2D9C0"/>
<path d="M441.266 358.628H434.827V379.64H441.266V358.628Z" fill="#E0E9F7"/>
<path d="M472.99 372.793H443.549V379.348H472.99V372.793Z" fill="#E0E9F7"/>
<path d="M490.023 372.793H475.332V379.348H490.023V372.793Z" fill="#E0E9F7"/>
<path d="M507.524 372.793H492.833V379.348H507.524V372.793Z" fill="#E0E9F7"/>
<path d="M463.332 358.628H443.549V369.105H463.332V358.628Z" fill="#E0E9F7"/>
<path d="M490.024 358.628H465.675V369.105H490.024V358.628Z" fill="#E0E9F7"/>
<path d="M498.92 358.217H492.833V369.104H498.92V358.217Z" fill="#E0E9F7"/>
<path d="M507.465 358.217H501.377V369.104H507.465V358.217Z" fill="#E0E9F7"/>
<path d="M515.133 358.217H510.334V379.229H516.421V368.108C515.602 368.05 515.133 367.991 515.133 367.991V358.217Z" fill="#E0E9F7"/>
<path d="M511.035 411.54L510.625 405.101L522.741 404.223V400.009L509.923 401.941L508.928 395.502L522.741 393.395V389.591H499.271C503.602 397.61 505.65 406.331 506.119 415.93L522.741 415.871V410.662L511.035 411.54Z" fill="#F0F4FB"/>
<path d="M515.131 358.219H516.419V368.111C517.706 368.228 519.93 368.403 522.798 368.696V356.639C519.93 356.697 517.355 356.756 515.189 356.99V358.219H515.131Z" fill="#A2D9C0"/>
<path d="M515.131 358.217V367.991C515.131 367.991 515.599 368.05 516.419 368.108V358.217H515.131Z" fill="#A2D9C0"/>
<path d="M405.154 361.086C413.641 360.969 420.606 354.121 420.782 345.751C420.899 337.323 413.933 330.475 405.447 330.592C396.843 330.592 389.877 337.557 389.819 345.927C389.819 354.297 396.667 361.145 405.154 361.086Z" fill="#F0F4FB"/>
<path d="M393.858 319.587C395.438 318.885 397.487 318.3 399.126 317.948V284.059H388.824C392.395 296.175 393.507 309.696 393.858 319.587Z" fill="#F0F4FB"/>
<path d="M332.165 341.712H376.706C377.877 335.332 381.096 329.069 385.72 324.855C385.603 316.544 384.901 298.458 380.16 284.059H332.282L332.165 341.712ZM368.219 331.41H353.528V326.494H368.219V331.41ZM371.439 301.794H375.653V323.509H371.439V301.794ZM353.353 290.146H368.219V298.458H353.353V290.146ZM353.353 301.794H368.219V323.509H353.353V301.794ZM339.539 290.146H349.899V298.458H339.539V290.146ZM339.539 301.794H349.899V323.509H339.539V301.794ZM339.539 326.494H349.899V331.41H339.539V326.494Z" fill="#F0F4FB"/>
<path d="M368.221 326.495H353.53V331.411H368.221V326.495Z" fill="#E0E9F7"/>
<path d="M349.899 326.495H339.54V331.411H349.899V326.495Z" fill="#E0E9F7"/>
<path d="M349.899 301.794H339.54V323.509H349.899V301.794Z" fill="#E0E9F7"/>
<path d="M368.221 301.794H353.354V323.509H368.221V301.794Z" fill="#E0E9F7"/>
<path d="M375.653 301.794H371.439V323.509H375.653V301.794Z" fill="#E0E9F7"/>
<path d="M399.125 373.788C388.824 371.563 380.161 364.423 377.293 354.531H332.107L331.99 409.199H399.125V373.788ZM339.541 359.682H357.744C366.757 359.682 373.957 366.998 373.957 376.012V377.768H339.541V359.682ZM339.541 381.806H360.202V392.108H339.541V381.806ZM370.328 402.643H339.482V396.088H370.328V402.643ZM387.77 402.643H373.02V396.088H387.77V402.643ZM387.887 392.049H363.129V381.806H387.887V392.049Z" fill="#F0F4FB"/>
<path d="M387.768 396.087H373.019V402.642H387.768V396.087Z" fill="#E0E9F7"/>
<path d="M370.385 396.087H339.54V402.642H370.385V396.087Z" fill="#E0E9F7"/>
<path d="M387.888 381.806H363.13V392.108H387.888V381.806Z" fill="#E0E9F7"/>
<path d="M360.201 381.806H339.54V392.108H360.201V381.806Z" fill="#E0E9F7"/>
<path d="M373.956 376.012C373.956 366.998 366.698 359.682 357.743 359.682H339.54V377.768H373.956V376.012Z" fill="#E0E9F7"/>
<path d="M325.845 354.531H269.012V409.199H325.786L325.845 354.531ZM273.694 381.806H298.453V392.108H273.694V381.806ZM288.561 402.643H273.811V396.088H288.561V402.643ZM321.923 402.643H291.078V396.088H321.923V402.643ZM322.041 392.049H301.379V381.806H322.041V392.049ZM322.041 377.768H287.566V376.012C287.566 366.998 294.824 359.682 303.779 359.682H322.041V377.768Z" fill="#F0F4FB"/>
<path d="M288.56 396.087H273.81V402.642H288.56V396.087Z" fill="#E0E9F7"/>
<path d="M321.922 396.087H291.077V402.642H321.922V396.087Z" fill="#E0E9F7"/>
<path d="M298.452 381.806H273.694V392.108H298.452V381.806Z" fill="#E0E9F7"/>
<path d="M322.04 381.806H301.378V392.108H322.04V381.806Z" fill="#E0E9F7"/>
<path d="M287.566 376.012V377.768H322.04V359.682H303.837C294.824 359.682 287.566 367.057 287.566 376.012Z" fill="#E0E9F7"/>
<path d="M325.729 414.174H268.955V467.086H325.612L325.729 414.174ZM273.696 420.144H288.562V428.455H279.256V436.006H273.696V420.144ZM273.696 437.469H279.256V445.078H288.562V453.272H273.696V437.469ZM305.946 461.467H273.871V456.55H305.946V461.467ZM306.18 453.506H291.313V431.792H306.18V453.506ZM306.18 428.455H291.313V420.144H306.18V428.455ZM319.993 461.467H309.575V456.55H319.935V461.467H319.993ZM319.993 453.506H309.575V431.792H319.935V453.506H319.993ZM319.993 428.455H309.575V420.144H319.935V428.455H319.993Z" fill="#F0F4FB"/>
<path d="M319.935 431.792H309.575V453.506H319.935V431.792Z" fill="#E0E9F7"/>
<path d="M306.178 431.792H291.311V453.506H306.178V431.792Z" fill="#E0E9F7"/>
<path d="M319.935 420.144H309.575V428.456H319.935V420.144Z" fill="#E0E9F7"/>
<path d="M306.178 420.144H291.311V428.456H306.178V420.144Z" fill="#E0E9F7"/>
<path d="M279.254 428.456H288.561V420.144H273.694V436.006H279.254V428.456Z" fill="#E0E9F7"/>
<path d="M288.561 445.077H279.254V437.469H273.694V453.33H288.561V445.077Z" fill="#E0E9F7"/>
<path d="M399.126 414.174H331.991L331.815 467.086H399.126V414.174ZM356.34 420.144H371.207V428.455H356.34V420.144ZM352.945 461.467H342.585V456.55H352.945V461.467ZM352.945 453.506H342.585V431.792H352.945V453.506ZM352.945 428.455H342.585V420.144H352.945V428.455ZM356.34 431.792H371.207V453.506H356.34V431.792ZM388.649 461.467H356.574V456.55H388.649V461.467ZM388.824 453.331H373.958V445.137H383.264V437.528H388.824V453.331ZM388.824 436.006H383.264V428.455H373.958V420.144H388.824V436.006Z" fill="#F0F4FB"/>
<path d="M352.942 431.792H342.583V453.506H352.942V431.792Z" fill="#E0E9F7"/>
<path d="M371.205 431.792H356.338V453.506H371.205V431.792Z" fill="#E0E9F7"/>
<path d="M352.942 420.144H342.583V428.456H352.942V420.144Z" fill="#E0E9F7"/>
<path d="M371.205 420.144H356.338V428.456H371.205V420.144Z" fill="#E0E9F7"/>
<path d="M373.955 428.456H383.261V436.006H388.822V420.144H373.955V428.456Z" fill="#E0E9F7"/>
<path d="M383.261 445.077H373.955V453.33H388.822V437.469H383.261V445.077Z" fill="#E0E9F7"/>
<path d="M428.391 420.729L412.471 426.523V500.974H427.22C428.859 488.449 435.824 432.259 428.391 420.729ZM423.065 491.492C423.065 493.833 421.133 495.706 418.851 495.706C416.509 495.706 414.636 493.95 414.636 491.609C414.753 489.268 416.568 487.395 418.968 487.395C421.192 487.395 423.065 489.268 423.065 491.434V491.492ZM424.06 480.547C424.06 480.722 424.06 480.84 424.06 480.957C423.826 483.181 421.894 484.937 419.553 484.937C417.095 484.937 415.163 483.064 415.163 480.605C415.28 478.147 417.329 476.216 419.787 476.216C422.245 476.216 424.177 478.147 424.118 480.43V480.547H424.06ZM425.347 467.729C425.347 470.48 423.123 472.645 420.372 472.645C417.738 472.645 415.456 470.597 415.456 467.846V467.729C415.573 464.978 417.797 462.812 420.548 462.812C423.006 462.812 425.172 464.685 425.347 467.143C425.347 467.319 425.347 467.436 425.347 467.612V467.729ZM426.225 454.091C426.225 456.842 424.001 459.008 421.25 459.008C418.616 459.008 416.334 456.959 416.334 454.208C416.451 451.399 418.675 449.233 421.426 449.233C424.06 449.233 426.225 451.282 426.225 454.032V454.091ZM426.928 439.517C426.811 442.619 424.411 445.019 421.367 445.019C418.441 445.019 415.983 442.795 415.983 439.751C415.983 439.634 415.983 439.634 415.983 439.634C415.983 436.59 418.499 434.132 421.543 434.132C424.469 434.132 426.928 436.473 426.928 439.4V439.517Z" fill="#F0F4FB"/>
<path d="M416.509 439.516V439.633C416.509 442.267 418.674 444.433 421.425 444.433C424.235 444.433 426.518 442.209 426.518 439.516C426.518 436.824 424.352 434.717 421.601 434.6C418.791 434.658 416.509 436.883 416.509 439.516Z" fill="#A2D9C0"/>
<path d="M421.542 434.132C418.499 434.132 415.982 436.59 415.982 439.634H416.158H415.982C415.982 439.634 415.982 439.634 415.982 439.751C415.982 442.795 418.44 445.019 421.367 445.019C424.41 445.019 426.869 442.678 426.927 439.517V439.4C426.927 436.473 424.469 434.132 421.542 434.132ZM426.81 439.4C426.81 442.209 424.469 444.609 421.542 444.609C418.733 444.609 416.333 442.385 416.333 439.517C416.333 436.707 418.674 434.308 421.601 434.308C424.527 434.249 426.927 436.59 426.81 439.4Z" fill="#F0F4FB"/>
<path d="M416.333 439.517C416.333 442.327 418.674 444.609 421.542 444.609C424.469 444.609 426.81 442.268 426.81 439.4C426.927 436.591 424.586 434.191 421.601 434.308C418.674 434.367 416.333 436.708 416.333 439.517ZM426.517 439.517C426.517 439.517 426.517 439.459 426.517 439.517C426.517 439.459 426.517 439.517 426.517 439.517C426.517 442.151 424.293 444.434 421.425 444.434C418.674 444.434 416.509 442.268 416.509 439.634V439.517C416.509 436.883 418.733 434.601 421.601 434.601C424.352 434.718 426.517 436.883 426.517 439.517Z" fill="#F0F4FB"/>
<path d="M447.764 414.407L432.312 419.499C439.745 432.434 433.073 487.278 431.258 500.974H455.607C457.129 480.547 458.768 438.053 447.764 414.407ZM451.568 449.525L440.682 450.403L440.389 446.072L451.276 445.194L451.568 449.525ZM451.568 456.256L440.799 457.134L440.506 452.803L451.276 451.925L451.568 456.256ZM450.983 441.858L440.331 443.497L439.628 439.283L450.398 437.644L450.983 441.858ZM449.813 434.424L439.628 436.356L439.16 433.722L449.344 431.791L449.813 434.424ZM448.349 426.113L449.052 429.449L438.692 431.615L437.989 428.279L448.349 426.113ZM445.774 418.855L446.945 423.538L437.931 425.879L436.76 421.197L445.774 418.855ZM450.983 486.107C450.515 493.54 443.257 499.101 434.946 498.457L440.74 460.705L451.393 460.588C452.037 466.909 451.568 477.503 450.983 486.107Z" fill="#F0F4FB"/>
<path d="M446.945 423.596L445.774 418.855L436.761 421.255L437.931 425.937L446.945 423.596Z" fill="#E0E9F7"/>
<path d="M438.634 431.616L448.993 429.45L448.35 426.114L437.931 428.28L438.634 431.616Z" fill="#E0E9F7"/>
<path d="M439.628 436.415L449.812 434.425L449.285 431.792L439.101 433.782L439.628 436.415Z" fill="#E0E9F7"/>
<path d="M440.332 443.556L450.984 441.859L450.399 437.645L439.629 439.342L440.332 443.556Z" fill="#E0E9F7"/>
<path d="M412.411 317.714C414.635 318.3 416.8 319.06 418.849 320.055C419.259 310.222 420.605 296.468 424.409 284.059H412.352V317.714H412.411Z" fill="#F0F4FB"/>
<path d="M426.928 326.143C430.674 330.181 433.191 334.747 434.069 340.307V340.19H503.72C515.017 322.923 518.88 303.023 518.821 284.059H433.132C427.865 299.511 427.045 318.826 426.928 326.143ZM501.379 291.024H507.466V301.911H501.379V291.024ZM492.834 291.024H498.921V301.911H492.834V291.024ZM492.834 305.598H507.525V312.154H492.834V305.598ZM465.676 291.375H490.024V301.852H465.676V291.375ZM490.024 305.598V312.154H475.333V305.598H490.024ZM443.551 291.375H463.334V301.852H443.551V291.375ZM443.551 305.598H472.992V312.154H443.551V305.598ZM434.83 291.375H441.268V312.388H434.83V291.375ZM434.83 314.788H507.525V332.874H451.043C442.146 332.874 434.83 325.616 434.83 316.661V314.788Z" fill="#F0F4FB"/>
<path d="M451.04 332.874H507.522V314.788H434.827V316.661C434.827 325.616 442.143 332.874 451.04 332.874Z" fill="#E0E9F7"/>
<path d="M441.266 291.376H434.827V312.388H441.266V291.376Z" fill="#E0E9F7"/>
<path d="M472.99 305.599H443.549V312.155H472.99V305.599Z" fill="#E0E9F7"/>
<path d="M490.023 305.599H475.332V312.155H490.023V305.599Z" fill="#E0E9F7"/>
<path d="M507.524 305.599H492.833V312.155H507.524V305.599Z" fill="#E0E9F7"/>
<path d="M416.625 372.031C414.986 372.792 414.167 373.378 412.294 373.787V422.426L445.481 410.954C442.262 406.272 438.457 403.521 434.594 403.228C429.795 402.819 425.815 400.712 422.771 396.966C417.679 390.527 416.508 380.46 416.625 372.031Z" fill="#F0F4FB"/>
<path d="M435.531 395.209C465.148 399.014 464.972 466.148 462.221 500.974H476.327C487.565 476.391 509.573 423.011 491.896 389.356L427.981 389.649C428.391 390.527 428.859 391.229 429.327 391.873C431.025 393.921 432.956 394.916 435.531 395.209ZM469.83 497.052C463.86 496.76 473.752 485.229 467.489 439.107C465.909 427.635 486.863 421.314 488.502 436.883C490.492 455.379 476.678 497.345 469.83 497.052ZM467.606 417.392V413.295H472.289V417.392H467.606ZM489.906 417.392H475.508V413.295H489.906V417.392ZM475.04 394.038H489.789V409.9H484.229V402.291H475.04V394.038ZM456.72 394.038H471.118V402.35H456.72V394.038ZM456.72 405.686H478.844V409.9H456.72V405.686Z" fill="#F0F4FB"/>
<path d="M467.489 439.108C473.752 485.171 463.86 496.76 469.831 497.053C476.679 497.346 490.492 455.379 488.502 436.884C486.863 421.314 465.968 427.694 467.489 439.108Z" fill="#A6D8F2"/>
<path d="M484.228 409.899H489.789V394.038H475.039V402.232H484.228V409.899Z" fill="#E0E9F7"/>
<path d="M471.118 394.038H456.719V402.349H471.118V394.038Z" fill="#E0E9F7"/>
<path d="M489.907 413.295H475.508V417.392H489.907V413.295Z" fill="#E0E9F7"/>
<path d="M472.288 413.295H467.606V417.392H472.288V413.295Z" fill="#E0E9F7"/>
<path d="M478.844 405.686H456.719V409.9H478.844V405.686Z" fill="#E0E9F7"/>
<path d="M268.602 284.059H263.51V709.577H268.602V284.059Z" fill="white"/>
<path d="M269.01 638.638H315.015L318.761 663.397C316.303 666.733 314.547 670.538 314.079 675.162C312.03 691.96 298.744 702.788 286.277 709.636H522.799V705.773L472.931 705.656V638.521H522.799V625.294H485.223L479.428 609.373C485.574 605.393 504.538 605.569 522.799 606.798V602.701C504.421 601.472 485.106 601.354 478.082 605.393L472.99 589.941C486.101 583.854 505.064 581.63 522.799 581.161V574.372C490.724 575.191 456.601 581.278 453.909 602.174C453.616 604.691 452.621 606.681 450.572 608.32C449.87 608.788 449.226 609.315 448.348 609.666L448.056 545.75C469.185 534.571 498.099 539.136 522.799 546.804V538.727C519.404 537.673 516.01 536.737 512.498 535.859C513.844 529.83 517.005 516.836 519.522 506.827H514.605C512.264 516.426 509.279 528.542 507.815 534.922C498.333 532.757 488.734 531.469 479.37 531.469L479.252 506.827H487.154H514.605C515.015 505.189 515.424 503.608 515.776 502.145L517.532 502.613L514.546 501.033H484.696C486.335 497.287 488.208 493.014 490.198 488.332L514.605 501.033H522.799V500.038L491.954 483.942C495.583 474.87 499.094 464.451 501.845 453.682C506.352 454.677 514.664 456.667 522.799 458.657V453.857C515.19 451.984 507.464 450.111 502.84 449.058C505.006 439.576 506.294 429.977 506.294 420.612L522.799 420.553V415.871L506.177 415.929C505.708 406.33 503.66 397.609 499.328 389.591H522.799V385.552H426.516C424.877 379.699 424.76 372.148 425.229 366.178C428.975 362.784 431.667 358.335 433.247 353.477H522.799V340.191H512.205C516.888 332.23 520.4 323.509 522.799 314.203V284.06H518.819C518.819 303.082 515.015 322.924 503.718 340.191H434.067V340.308C433.189 334.747 430.613 330.123 426.926 326.143C427.043 318.827 427.863 299.512 433.13 284.06H424.468C420.605 296.468 419.317 310.281 418.907 320.056C416.859 319.061 414.693 318.3 412.469 317.715V284.06H399.183V317.89C397.544 318.3 395.437 318.885 393.915 319.529C393.622 309.638 392.51 296.117 388.94 284.001H380.277C384.96 298.458 385.72 316.486 385.838 324.797C381.214 329.011 377.994 335.274 376.824 341.654H332.282L332.34 284.06H325.961L325.844 341.712H269.01V284.06H268.601V709.578H269.01V638.638ZM314.664 625.235H269.01V543.116C281.946 548.092 309.806 560.442 313.318 586.254C314.02 590.877 315.659 594.741 318.235 598.077L314.664 625.235ZM400.412 705.539L306.997 705.363C315.776 696.935 320.868 687.277 322.156 676.098C324.79 654.208 369.039 652.101 383.613 652.042C387.828 656.666 394.09 659.885 400.47 661.056V705.539H400.412ZM376.414 625.235H318.761L321.805 602.174C335.618 614.992 362.484 618.094 378.755 618.797C377.76 620.845 376.999 622.952 376.414 625.235ZM378.17 643.789C361.957 644.257 335.735 647.008 322.215 659.358L319.113 638.521H376.531C376.999 640.277 377.468 642.267 378.17 643.789ZM389.232 632.2C389.115 623.713 395.963 616.748 404.392 616.865C412.82 616.982 419.668 624.006 419.727 632.493C419.727 640.98 412.996 647.945 404.567 647.828C396.197 647.711 389.232 640.804 389.232 632.2ZM444.427 506.652V506.769V611.188C438.574 612.827 431.023 612.944 425.053 612.475C421.6 608.729 417.21 606.037 412.352 604.457L412.469 506.71H444.427V506.652ZM412.41 500.974V426.523L428.331 420.729C435.764 432.259 428.799 488.449 427.16 500.974H412.41ZM467.898 705.656L413.23 705.539V660.353C423.122 657.544 430.262 648.823 432.486 638.521H467.898V705.656ZM455.548 614.758C459.352 611.831 461.518 607.793 461.927 602.993C462.22 599.189 464.971 595.384 469.653 592.048L481.125 625.235H432.486C432.077 623.362 431.491 622.601 430.731 620.904C439.042 620.904 449.109 619.733 455.548 614.758ZM431.199 500.974C433.072 487.278 439.686 432.376 432.252 419.5L447.704 414.408C458.767 438.112 457.069 480.547 455.548 500.974H431.199ZM448.407 538.317V506.71H474.629L474.746 531.469C465.147 531.996 456.425 534.044 448.407 538.317ZM491.837 389.356C509.571 423.012 487.505 476.45 476.267 500.974H462.161C464.912 466.149 465.088 399.014 435.472 395.209C432.955 394.917 430.965 393.922 429.326 391.873C428.858 391.171 428.331 390.527 427.98 389.649L491.837 389.356ZM434.652 403.228C438.457 403.521 442.261 406.272 445.539 410.954L412.352 422.426V373.787C414.225 373.378 414.986 372.792 416.683 372.031C416.566 380.46 417.737 390.527 422.829 396.965C425.814 400.711 429.853 402.818 434.652 403.228ZM405.445 330.533C413.932 330.416 420.897 337.264 420.78 345.693C420.605 354.121 413.64 360.969 405.153 361.028C396.666 361.145 389.818 354.297 389.818 345.868C389.935 337.498 396.841 330.533 405.445 330.533ZM332.106 354.531H377.292C380.102 364.422 388.823 371.563 399.124 373.787V409.198H331.989L332.106 354.531ZM331.989 414.173H399.124V467.085H331.814L331.989 414.173ZM331.872 471.124H399.065V471.241V503.316V525.499C380.277 514.319 357.684 509.754 331.755 511.803L331.872 471.124ZM269.01 354.531H325.844L325.727 409.198H268.952V354.531H269.01ZM269.01 414.173H325.785L325.668 467.085H269.01V414.173ZM268.893 471.241H269.01H325.551V512.505C323.678 512.681 321.805 512.973 319.873 513.266C297.164 516.661 278.375 523.918 268.893 528.133V471.241ZM269.01 535.039C282.121 529.186 350.719 502.379 399.065 533.986V603.637C393.505 604.515 388.881 607.09 384.901 610.778C372.375 610.602 324.614 608.261 321.512 585.317C318.586 563.778 299.329 546.979 268.952 535.098C269.069 535.098 268.893 535.098 269.01 535.039Z" fill="white"/>
<path d="M511.036 411.539L522.801 410.661V404.223L510.626 405.101L511.036 411.539Z" fill="#E0E9F7"/>
<path d="M509.984 401.942L522.802 400.011V393.397L508.989 395.504L509.984 401.942Z" fill="#E0E9F7"/>
<path d="M528.654 428.572H528.712V420.612H528.654V428.572Z" fill="white"/>
<path d="M528.654 440.512H528.712V435.596H528.654V440.512Z" fill="white"/>
<path d="M522.8 439.575L528.653 440.512V435.595L522.8 435.302V439.575Z" fill="white"/>
<path d="M522.8 428.221L528.653 428.572V420.612H522.8V428.221Z" fill="white"/>
<path d="M528.654 447.479L528.712 447.537V440.513H528.654V447.479Z" fill="white"/>
<path d="M522.8 446.658L528.653 447.478V440.513L522.8 439.576V446.658Z" fill="white"/>
<path d="M528.654 435.597H528.712V428.573H528.654V435.597Z" fill="white"/>
<path d="M522.8 435.302L528.653 435.595V428.571L522.8 428.22V435.302Z" fill="white"/>
<path d="M528.654 385.611L528.712 369.34C528.712 369.34 528.712 369.34 528.654 369.34V385.611Z" fill="white"/>
<path d="M522.8 371.973C525.141 372.265 527.131 374.314 527.131 376.714C527.131 379.231 525.258 381.221 522.8 381.396V385.61H528.653V369.339C526.487 369.105 524.556 368.871 522.8 368.695V371.973Z" fill="white"/>
<path d="M527.073 376.713C527.073 374.313 525.141 372.264 522.742 371.972V381.395C525.2 381.22 527.073 379.229 527.073 376.713Z" fill="white"/>
<path d="M528.654 356.637L528.712 353.535H528.654V356.637Z" fill="white"/>
<path d="M522.8 356.637C524.673 356.637 526.663 356.637 528.653 356.695V353.593H522.8V356.637Z" fill="white"/>
<path d="M528.654 392.517H528.712V389.649H528.654V392.517Z" fill="white"/>
<path d="M522.8 393.395L528.653 392.517V389.649H522.8V393.395Z" fill="white"/>
<path d="M528.654 415.87H528.712V410.251H528.654V415.87Z" fill="white"/>
<path d="M522.8 415.929L528.653 415.87V410.251L522.8 410.661V415.929Z" fill="white"/>
<path d="M528.712 284.059H528.654V340.19H528.712V284.059Z" fill="white"/>
<path d="M522.8 340.19H528.653V284.059H526.253C526.312 294.77 525.141 304.837 522.8 314.202V340.19Z" fill="white"/>
<path d="M528.654 403.756H528.712V399.132H528.654V403.756Z" fill="white"/>
<path d="M522.8 404.224L528.653 403.756V399.132L522.8 400.01V404.224Z" fill="white"/>
<path d="M528.654 369.34L528.712 356.639C528.712 356.639 528.712 356.639 528.654 356.639V369.34Z" fill="white"/>
<path d="M522.8 356.639V368.754C524.556 368.93 526.546 369.164 528.653 369.398V356.639C526.604 356.58 524.673 356.58 522.8 356.639Z" fill="white"/>
<path d="M528.712 385.61H528.654V389.649H528.712V385.61Z" fill="white"/>
<path d="M528.653 385.61H522.8V389.649H528.653V385.61Z" fill="white"/>
<path d="M528.712 340.191H528.654V353.478H528.712V340.191Z" fill="white"/>
<path d="M528.653 340.191H522.8V353.478H528.653V340.191Z" fill="white"/>
<path d="M522.8 314.202C525.141 304.837 526.312 294.77 526.253 284.059H522.8V314.202Z" fill="white"/>
<path d="M528.654 420.612H528.712V415.871H528.654V420.612Z" fill="white"/>
<path d="M522.8 420.612H528.653V415.871L522.8 415.929V420.612Z" fill="white"/>
<path d="M528.654 410.252H528.712V403.755H528.654V410.252Z" fill="white"/>
<path d="M522.8 410.662L528.653 410.252V403.755L522.8 404.224V410.662Z" fill="white"/>
<path d="M528.654 399.132H528.712V392.518H528.654V399.132Z" fill="white"/>
<path d="M522.8 400.01L528.653 399.132V392.518L522.8 393.396V400.01Z" fill="white"/>
</g>
</g>
<path d="M512.75 310C512.75 318.698 505.698 325.75 497 325.75C488.302 325.75 481.25 318.698 481.25 310C481.25 301.302 488.302 294.25 497 294.25C505.698 294.25 512.75 301.302 512.75 310Z" fill="#EF7E82" stroke="#EF7E82" stroke-width="3.5" stroke-linecap="round" stroke-linejoin="round"/>
<path d="M493.5 313.5L497 310M497 310L500.5 306.5M497 310L493.5 306.5M497 310L500.5 313.5" stroke="white" stroke-width="3.5" stroke-linecap="round" stroke-linejoin="round"/>
<path d="M58.75 68C58.75 76.6985 51.6985 83.75 43 83.75C34.3015 83.75 27.25 76.6985 27.25 68C27.25 59.3015 34.3015 52.25 43 52.25C51.6985 52.25 58.75 59.3015 58.75 68Z" fill="#67C198" stroke="#67C198" stroke-width="3.5" stroke-linecap="round" stroke-linejoin="round"/>
<path d="M37.75 68L41.25 71.5L48.25 64.5" stroke="white" stroke-width="3.5" stroke-linecap="round" stroke-linejoin="round"/>
<defs>
<filter id="filter0_dd" x="62.8906" y="0.59375" width="408.461" height="129.691" filterUnits="userSpaceOnUse" color-interpolation-filters="sRGB">
<feFlood flood-opacity="0" result="BackgroundImageFix"/>
<feColorMatrix in="SourceAlpha" type="matrix" values="0 0 0 0 0 0 0 0 0 0 0 0 0 0 0 0 0 0 127 0"/>
<feOffset dy="1.70312"/>
<feGaussianBlur stdDeviation="1.70312"/>
<feColorMatrix type="matrix" values="0 0 0 0 0.121569 0 0 0 0 0.176471 0 0 0 0 0.239216 0 0 0 0.06 0"/>
<feBlend mode="normal" in2="BackgroundImageFix" result="effect1_dropShadow"/>
<feColorMatrix in="SourceAlpha" type="matrix" values="0 0 0 0 0 0 0 0 0 0 0 0 0 0 0 0 0 0 127 0"/>
<feOffset dy="1.70312"/>
<feGaussianBlur stdDeviation="2.55469"/>
<feColorMatrix type="matrix" values="0 0 0 0 0.121569 0 0 0 0 0.176471 0 0 0 0 0.239216 0 0 0 0.1 0"/>
<feBlend mode="normal" in2="effect1_dropShadow" result="effect2_dropShadow"/>
<feBlend mode="normal" in="SourceGraphic" in2="effect2_dropShadow" result="shape"/>
</filter>
<filter id="filter1_dd" x="62.8906" y="283.165" width="408.461" height="103.142" filterUnits="userSpaceOnUse" color-interpolation-filters="sRGB">
<feFlood flood-opacity="0" result="BackgroundImageFix"/>
<feColorMatrix in="SourceAlpha" type="matrix" values="0 0 0 0 0 0 0 0 0 0 0 0 0 0 0 0 0 0 127 0"/>
<feOffset dy="1.70312"/>
<feGaussianBlur stdDeviation="1.70312"/>
<feColorMatrix type="matrix" values="0 0 0 0 0.121569 0 0 0 0 0.176471 0 0 0 0 0.239216 0 0 0 0.06 0"/>
<feBlend mode="normal" in2="BackgroundImageFix" result="effect1_dropShadow"/>
<feColorMatrix in="SourceAlpha" type="matrix" values="0 0 0 0 0 0 0 0 0 0 0 0 0 0 0 0 0 0 127 0"/>
<feOffset dy="1.70312"/>
<feGaussianBlur stdDeviation="2.55469"/>
<feColorMatrix type="matrix" values="0 0 0 0 0.121569 0 0 0 0 0.176471 0 0 0 0 0.239216 0 0 0 0.1 0"/>
<feBlend mode="normal" in2="effect1_dropShadow" result="effect2_dropShadow"/>
<feBlend mode="normal" in="SourceGraphic" in2="effect2_dropShadow" result="shape"/>
</filter>
<filter id="filter2_d" x="0.59375" y="66.2969" width="291.812" height="221.312" filterUnits="userSpaceOnUse" color-interpolation-filters="sRGB">
<feFlood flood-opacity="0" result="BackgroundImageFix"/>
<feColorMatrix in="SourceAlpha" type="matrix" values="0 0 0 0 0 0 0 0 0 0 0 0 0 0 0 0 0 0 127 0"/>
<feOffset dy="1.70312"/>
<feGaussianBlur stdDeviation="1.70312"/>
<feColorMatrix type="matrix" values="0 0 0 0 0.121569 0 0 0 0 0.176471 0 0 0 0 0.239216 0 0 0 0.05 0"/>
<feBlend mode="normal" in2="BackgroundImageFix" result="effect1_dropShadow"/>
<feBlend mode="normal" in="SourceGraphic" in2="effect1_dropShadow" result="shape"/>
</filter>
<filter id="filter3_d" x="260.104" y="308.547" width="272.307" height="139.56" filterUnits="userSpaceOnUse" color-interpolation-filters="sRGB">
<feFlood flood-opacity="0" result="BackgroundImageFix"/>
<feColorMatrix in="SourceAlpha" type="matrix" values="0 0 0 0 0 0 0 0 0 0 0 0 0 0 0 0 0 0 127 0"/>
<feOffset dy="1.70312"/>
<feGaussianBlur stdDeviation="1.70312"/>
<feColorMatrix type="matrix" values="0 0 0 0 0.121569 0 0 0 0 0.176471 0 0 0 0 0.239216 0 0 0 0.05 0"/>
<feBlend mode="normal" in2="BackgroundImageFix" result="effect1_dropShadow"/>
<feBlend mode="normal" in="SourceGraphic" in2="effect1_dropShadow" result="shape"/>
</filter>
<clipPath id="clip0">
<path d="M263.51 315.25C263.51 312.489 265.748 310.25 268.51 310.25H524.004C526.766 310.25 529.004 312.489 529.004 315.25V437.997C529.004 440.759 526.766 442.997 524.004 442.997H268.51C265.748 442.997 263.51 440.759 263.51 437.997V315.25Z" fill="white"/>
</clipPath>
</defs>
</svg>
