<svg width="541" height="491" viewBox="0 0 541 491" fill="none" xmlns="http://www.w3.org/2000/svg">
<circle cx="245.644" cy="245.394" r="245.394" fill="#ECF1FA"/>
<rect x="320.25" y="61.7332" width="220" height="286" rx="10" fill="#FCFDFE"/>
<circle cx="335.25" cy="76.7332" r="5" fill="#F5B0B2"/>
<circle cx="350.25" cy="76.7332" r="5" fill="#FEE182"/>
<circle cx="365.25" cy="76.7332" r="5" fill="#F7BFC7"/>
<path d="M525.25 91.7332H335.25C332.489 91.7332 330.25 93.9717 330.25 96.7332V186.733C330.25 189.494 332.489 191.733 335.25 191.733H525.25C528.011 191.733 530.25 189.494 530.25 186.733V96.7332C530.25 93.9717 528.011 91.7332 525.25 91.7332Z" fill="#F9D1D2"/>
<rect x="330.25" y="203.733" width="200" height="4" rx="2" fill="#E8EEF9"/>
<circle cx="467.25" cy="205.733" r="4" fill="#D8E3F5"/>
<rect width="200" height="4" rx="2" transform="matrix(-1 0 0 1 530.25 221.733)" fill="#E8EEF9"/>
<circle r="4" transform="matrix(-1 0 0 1 393.25 223.733)" fill="#D8E3F5"/>
<path d="M420.25 237.733H335.25C332.489 237.733 330.25 239.971 330.25 242.733V332.733C330.25 335.494 332.489 337.733 335.25 337.733H420.25C423.011 337.733 425.25 335.494 425.25 332.733V242.733C425.25 239.971 423.011 237.733 420.25 237.733Z" fill="#FEE182"/>
<path d="M525.25 237.733H440.25C437.489 237.733 435.25 239.971 435.25 242.733V332.733C435.25 335.494 437.489 337.733 440.25 337.733H525.25C528.011 337.733 530.25 335.494 530.25 332.733V242.733C530.25 239.971 528.011 237.733 525.25 237.733Z" fill="#F7BFC7"/>
<g clip-path="url(#clip0)">
<path d="M458.001 123.413C458.024 123.495 458.036 123.579 458.037 123.664V136.822C458.037 136.991 457.989 137.156 457.899 137.303C457.809 137.449 457.679 137.57 457.523 137.654L445.763 144.012V156.615C445.763 156.958 445.569 157.274 445.252 157.447L420.703 170.717C420.647 170.747 420.585 170.766 420.524 170.787C420.501 170.794 420.479 170.807 420.455 170.813C420.283 170.856 420.103 170.856 419.931 170.813C419.903 170.806 419.878 170.792 419.851 170.782C419.795 170.763 419.736 170.746 419.682 170.717L395.138 157.447C394.982 157.363 394.853 157.242 394.763 157.095C394.673 156.949 394.625 156.783 394.625 156.615V117.142C394.625 117.055 394.638 116.971 394.661 116.89C394.668 116.862 394.686 116.837 394.697 116.809C394.716 116.759 394.734 116.707 394.762 116.661C394.781 116.629 394.809 116.604 394.832 116.575C394.861 116.537 394.888 116.498 394.923 116.464C394.952 116.436 394.99 116.416 395.023 116.392C395.06 116.363 395.094 116.332 395.136 116.309H395.137L407.41 109.674C407.565 109.59 407.741 109.546 407.921 109.546C408.1 109.546 408.276 109.59 408.431 109.674L420.704 116.309H420.707C420.747 116.333 420.782 116.363 420.819 116.391C420.852 116.415 420.889 116.436 420.919 116.463C420.954 116.498 420.98 116.537 421.011 116.575C421.032 116.604 421.062 116.629 421.08 116.661C421.109 116.709 421.125 116.759 421.146 116.809C421.156 116.837 421.174 116.862 421.182 116.891C421.205 116.973 421.217 117.057 421.217 117.142V141.796L431.444 136.266V123.663C431.444 123.579 431.457 123.494 431.48 123.413C431.489 123.385 431.506 123.359 431.516 123.332C431.536 123.281 431.554 123.23 431.582 123.183C431.601 123.152 431.629 123.127 431.651 123.098C431.682 123.06 431.707 123.02 431.743 122.986C431.772 122.959 431.809 122.938 431.843 122.915C431.881 122.886 431.914 122.855 431.955 122.832H431.956L444.23 116.197C444.386 116.112 444.562 116.068 444.741 116.068C444.92 116.068 445.097 116.112 445.252 116.197L457.525 122.832C457.568 122.856 457.601 122.886 457.639 122.913C457.671 122.937 457.708 122.959 457.738 122.985C457.774 123.02 457.799 123.06 457.83 123.098C457.853 123.127 457.881 123.152 457.899 123.183C457.928 123.23 457.945 123.281 457.965 123.332C457.977 123.359 457.993 123.385 458.001 123.413ZM455.991 136.266V125.325L451.696 127.647L445.763 130.854V141.796L455.992 136.266H455.991ZM443.718 156.059V145.111L437.882 148.241L421.216 157.172V168.224L443.718 156.059ZM396.671 118.802V156.059L419.17 168.223V157.173L407.416 150.927L407.412 150.924L407.407 150.922C407.368 150.9 407.334 150.869 407.297 150.843C407.265 150.819 407.228 150.8 407.2 150.773L407.198 150.77C407.165 150.74 407.142 150.703 407.113 150.669C407.088 150.637 407.057 150.609 407.037 150.575L407.036 150.572C407.013 150.536 406.999 150.493 406.982 150.452C406.965 150.416 406.944 150.382 406.933 150.344V150.343C406.921 150.297 406.918 150.249 406.913 150.202C406.908 150.166 406.898 150.13 406.898 150.095V124.332L400.966 121.123L396.671 118.804V118.802ZM407.922 111.614L397.696 117.142L407.919 122.669L418.144 117.14L407.919 111.614H407.922ZM413.24 146.108L419.172 142.902V118.802L414.877 121.124L408.944 124.332V148.431L413.24 146.108ZM444.741 118.137L434.517 123.664L444.741 129.191L454.964 123.663L444.741 118.137ZM443.718 130.854L437.785 127.647L433.49 125.325V136.266L439.422 139.473L443.718 141.796V130.854ZM420.192 155.511L435.189 147.472L442.685 143.455L432.468 137.931L420.705 144.29L409.984 150.086L420.192 155.511Z" fill="#FF2D20"/>
</g>
<mask id="mask0" mask-type="alpha" maskUnits="userSpaceOnUse" x="0" y="0" width="492" height="491">
<circle cx="245.644" cy="245.394" r="245.394" fill="#ECF1FA"/>
</mask>
<g mask="url(#mask0)">
<path d="M337.839 241.013C339.739 235.311 342.23 229.806 345.179 224.629C347.866 220.5 351.733 217.223 356.32 215.323C362.284 213.094 368.904 213.946 375.195 214.864L390.4 217.092C392.497 217.42 395.118 218.337 395.053 220.434C394.922 221.024 394.66 221.614 394.266 222.073C393.873 222.532 393.283 222.859 392.694 222.99C391.448 223.253 390.203 223.253 389.023 222.99C385.681 222.532 382.273 222.466 378.865 222.663C376.44 222.794 373.426 223.711 373.032 226.071C372.639 228.43 374.933 230.003 377.096 230.068C379.258 229.937 381.356 229.151 383.125 227.84L389.089 224.301C390.138 223.449 391.448 223.056 392.825 223.187C395.053 223.711 395.577 226.857 394.397 228.758C393.021 230.527 391.252 232.035 389.22 233.083C381.552 238.261 378.013 246.715 374.474 257.856" fill="#FFC3AA"/>
<path d="M337.97 238.654L303.891 326.408L268.501 244.487C257.425 204.837 208.469 202.215 208.469 202.215L160.037 196.055C137.56 192.395 118.373 198.403 100.529 208.197C86.4383 215.93 80.5622 233.027 73.9863 250.057C73.9863 250.057 25.2266 376.151 33.5498 389.324C41.873 402.497 93.9751 453.944 93.9751 453.944L92.2056 485.729L160.037 497L257.25 506.5C253.842 475.698 247.988 431.792 246.48 422.944L240.32 332.634L241.106 314.087L241.827 312.187C249.102 324.442 258.342 340.04 269.68 360.094C292.487 400.334 315.425 390.045 328.926 373.923C334.693 366.517 339.019 358.128 341.706 349.15L375.195 254.973L337.97 238.654ZM100.529 389.258C100.529 389.783 92.2056 374.381 92.2056 374.381L104.396 334.142C104.396 334.142 100.529 388.8 100.529 389.258Z" fill="#EF7E82"/>
<path d="M216.137 145.788C217.71 153.194 224.919 157.912 232.325 156.339C239.73 154.767 244.449 147.557 242.876 140.152C241.303 132.746 234.094 128.027 226.688 129.6C219.348 131.108 214.63 138.382 216.137 145.788Z" fill="#FFC3AA"/>
<path d="M208.599 174.362L208.009 196.841C207.681 209.49 197.13 219.452 184.481 219.059C171.308 218.6 161.281 207.131 162.592 194.023L167.835 141.725L208.599 174.362Z" fill="#FFC3AA"/>
<path d="M223.608 88.2463C226.295 91.0644 233.242 102.009 233.635 105.876C235.142 118.787 237.961 150.507 231.997 164.335C224.46 181.965 208.862 192.188 185.596 185.504C185.596 185.504 164.297 182.882 154.99 140.48C140.834 75.8598 196.475 59.2789 223.608 88.2463Z" fill="#FFC3AA"/>
<path d="M222.886 137.596C223.214 139.3 224.852 140.414 226.556 140.086C228.26 139.759 229.374 138.12 229.047 136.416C228.719 134.712 227.081 133.598 225.377 133.926C223.673 134.254 222.559 135.892 222.886 137.596Z" fill="#101010"/>
<path d="M195.165 136.547C195.492 138.251 197.131 139.365 198.835 139.038C200.539 138.71 201.653 137.072 201.325 135.368C200.997 133.664 199.359 132.55 197.655 132.877C195.951 133.205 194.837 134.843 195.165 136.547Z" fill="#101010"/>
<path d="M213.121 130.911L217.25 145.526C218.036 148.213 216.332 151.031 213.58 151.555" stroke="#FF9574" stroke-width="1.60422" stroke-miterlimit="10" stroke-linecap="round" stroke-linejoin="round"/>
<path d="M216.988 156.863L196.344 156.143C196.344 156.143 196.016 163.679 205.978 164.073C216.005 164.466 216.988 156.863 216.988 156.863Z" fill="white"/>
<path d="M220.396 119.705C220.396 119.705 225.705 118.853 232.717 123.244" stroke="#1F2D3D" stroke-width="5.29436" stroke-miterlimit="10" stroke-linecap="round"/>
<path d="M202.767 119.704C202.767 119.704 189.528 117.082 182.45 123.243" stroke="#1F2D3D" stroke-width="5.29436" stroke-miterlimit="10" stroke-linecap="round"/>
<path d="M233.111 103.779C233.111 103.779 229.572 98.47 225.967 100.305C219.741 103.516 209.321 107.186 183.958 99.1909C183.958 99.1909 171.768 94.6033 170.982 103.779C170.195 112.954 172.948 141.725 172.948 141.725L164.035 142.904L150.468 125.865L147.061 93.4236C146.143 84.7072 151.779 76.7116 160.299 74.6144C174.586 71.0754 196.082 67.733 222.363 73.5658C229.506 75.1387 234.422 82.4134 233.308 89.6225L233.111 103.779Z" fill="#1F2D3D"/>
<path d="M138.671 144.018C140.441 152.276 148.502 157.585 156.76 155.815C165.017 154.046 170.326 145.985 168.556 137.727C166.787 129.469 158.726 124.161 150.468 125.93C142.21 127.634 136.902 135.761 138.671 144.018Z" fill="#FFC3AA"/>
<path d="M147.126 135.826C147.126 135.826 158.595 133.598 160.496 146.116" stroke="#FF9574" stroke-width="1.60422" stroke-miterlimit="10" stroke-linecap="round" stroke-linejoin="round"/>
<path d="M160.036 196.055C160.036 196.055 156.235 216.633 179.108 223.122C206.633 230.855 210.697 202.477 210.697 202.477" fill="#FFC3AA"/>
<path d="M93.3848 455.976C93.3848 455.976 107.934 352.689 104.919 289.904" stroke="#ED6D72" stroke-width="1.60422" stroke-miterlimit="10" stroke-linecap="round" stroke-linejoin="round"/>
</g>
<defs>
<clipPath id="clip0">
<rect width="63.5246" height="63.5246" fill="white" transform="translate(394.625 108.108)"/>
</clipPath>
</defs>
</svg>
