<svg width="190" height="76" viewBox="0 0 190 76" fill="none" xmlns="http://www.w3.org/2000/svg">
<g clip-path="url(#clip0)">
<path d="M147.683 59.4174V31.9174H140.999V59.4174H15.8128V15.9779H20.6755V10.1013H9.85571V65.2936H147.693V59.4174H147.683Z" fill="white"/>
<path d="M141.14 24.6426H147.824V30.2427H141.14V24.6426Z" fill="white"/>
<path d="M49.5707 24.6426H56.2549V30.2427H49.5707V24.6426Z" fill="white"/>
<path d="M147.683 59.4174V31.9174H140.999V59.4174H15.8128V15.9779H20.6755V10.1013H9.85571V65.2936H147.693V59.4174H147.683Z" fill="white"/>
<path d="M23.6377 10.1016V10.1045H23.5787V49.8181H26.6043V49.8185H46.7298V42.8963H31.1715V15.9781H174.704V59.4176H150.593V65.2926H180.661V10.1016H23.6377Z" fill="white"/>
<path d="M56.08 31.9187V50.0379H49.4808V31.9187H56.08Z" fill="white"/>
<path d="M73.7531 35.8307H86.8495C86.8495 37.1767 86.7929 38.4007 86.6799 39.5004C86.5668 40.6001 86.344 41.6218 86.0068 42.5647C85.536 43.8889 84.896 45.0609 84.088 46.0826C83.28 47.1039 82.3322 47.956 81.2436 48.6414C80.1546 49.3256 78.9591 49.848 77.6585 50.2058C76.3561 50.5652 74.9865 50.7456 73.5509 50.7456C71.5755 50.7456 69.7743 50.4192 68.1472 49.768C66.5201 49.1185 65.1221 48.2036 63.9563 47.0255C62.7889 45.8474 61.8807 44.432 61.2295 42.783C60.5784 41.1341 60.2536 39.311 60.2536 37.3121C60.2536 35.3384 60.5722 33.5243 61.2122 31.8754C61.8522 30.2264 62.7609 28.8176 63.939 27.6502C65.1171 26.4845 66.5371 25.5746 68.1972 24.9234C69.8589 24.2723 71.7101 23.9475 73.7531 23.9475C76.3999 23.9475 78.7235 24.5203 80.7212 25.6641C82.7184 26.8097 84.3017 28.5824 85.4687 30.9828L79.2067 33.5763C78.6232 32.1845 77.8652 31.185 76.9334 30.5797C76.0029 29.9739 74.9424 29.6714 73.7531 29.6714C72.7648 29.6714 71.8673 29.8567 71.0593 30.2268C70.2513 30.597 69.561 31.1244 68.9899 31.8085C68.4171 32.4944 67.9686 33.318 67.6421 34.2828C67.3174 35.2476 67.1544 36.3254 67.1544 37.5151C67.1544 38.593 67.2939 39.5907 67.5749 40.5118C67.8559 41.4312 68.2764 42.2284 68.838 42.9015C69.398 43.5745 70.0949 44.0969 70.9248 44.4675C71.7546 44.8376 72.7215 45.0229 73.8212 45.0229C74.4707 45.0229 75.1 44.9507 75.7054 44.8034C76.3111 44.6589 76.8554 44.4221 77.3387 44.0973C77.8202 43.7726 78.2188 43.3504 78.5341 42.8342C78.8477 42.318 79.0615 41.6903 79.1729 40.95H73.7535V35.8307H73.7531Z" fill="white"/>
<path d="M97.6223 34.4511H107.149V24.656H113.747V50.0391H107.149V39.5693H97.6223V50.0391H91.0231V24.656H97.6223V34.4511Z" fill="white"/>
<path d="M128.696 30.2433V50.0391H122.096V30.2433H116.677V24.656H134.115V30.2433H128.696Z" fill="white"/>
<path d="M164.124 30.2433V50.0391H157.525V30.2433H152.105V24.656H169.543V30.2433H164.124Z" fill="white"/>
</g>
<defs>
<clipPath id="clip0">
<rect width="170.805" height="55.1922" fill="white" transform="translate(9.85571 10.1013)"/>
</clipPath>
</defs>
</svg>
