<svg width="528" height="549" viewBox="0 0 528 549" fill="none" xmlns="http://www.w3.org/2000/svg">
<path d="M465.02 544.883L236.766 545C227.94 545.004 219.474 541.506 213.23 535.274C206.985 529.043 203.472 520.589 203.465 511.771L203.201 38.039C203.197 33.0616 204.175 28.1323 206.078 23.5325C207.982 18.9327 210.773 14.7526 214.294 11.231C217.814 7.70943 221.995 4.91534 226.596 3.00836C231.198 1.10138 236.13 0.118864 241.112 0.116945L465.152 0C474.077 0 482.637 3.54252 488.948 9.84825C495.259 16.154 498.804 24.7064 498.804 33.6241L499.082 510.879C499.075 519.9 495.482 528.549 489.095 534.925C482.708 541.301 474.049 544.883 465.02 544.883Z" fill="#DCE5F6"/>
<path d="M208.101 499.9L207.838 45.2026C207.857 34.4934 212.128 24.2292 219.712 16.662C227.297 9.09493 237.576 4.84299 248.294 4.83913L453.635 4.72218C458.951 4.71834 464.216 5.76094 469.128 7.79044C474.041 9.81993 478.505 12.7966 482.266 16.5503C486.027 20.304 489.011 24.7613 491.048 29.6675C493.084 34.5737 494.133 39.8327 494.135 45.1441L494.399 499.842C494.402 505.153 493.359 510.413 491.328 515.322C489.297 520.23 486.317 524.691 482.56 528.448C478.804 532.206 474.342 535.188 469.432 537.222C464.522 539.257 459.258 540.306 453.942 540.307L248.602 540.424C243.278 540.426 238.005 539.379 233.087 537.342C228.169 535.306 223.7 532.32 219.939 528.556C216.177 524.792 213.195 520.323 211.163 515.406C209.132 510.489 208.092 505.22 208.101 499.9Z" fill="#D8E3F5"/>
<path d="M329.749 23.1567C328.876 23.1567 328.039 22.8102 327.421 22.1933C326.804 21.5764 326.457 20.7398 326.457 19.8674C326.457 18.995 326.804 18.1584 327.421 17.5415C328.039 16.9247 328.876 16.5781 329.749 16.5781H372.02C372.47 16.5481 372.921 16.6107 373.346 16.7621C373.77 16.9134 374.159 17.1503 374.488 17.458C374.818 17.7657 375.08 18.1377 375.259 18.5509C375.439 18.9641 375.531 19.4097 375.531 19.8601C375.531 20.3105 375.439 20.7562 375.259 21.1694C375.08 21.5826 374.818 21.9545 374.488 22.2622C374.159 22.5699 373.77 22.8068 373.346 22.9582C372.921 23.1095 372.47 23.1721 372.02 23.1421L329.749 23.1567Z" fill="#DCE5F6"/>
<path d="M307.086 23.1714C306.434 23.1743 305.796 22.9838 305.253 22.6241C304.71 22.2645 304.286 21.7518 304.034 21.151C303.783 20.5502 303.715 19.8884 303.841 19.2493C303.966 18.6103 304.279 18.0229 304.738 17.5614C305.198 17.0999 305.785 16.7852 306.424 16.6571C307.063 16.5289 307.725 16.5932 308.328 16.8418C308.93 17.0903 309.445 17.5119 309.808 18.0531C310.17 18.5943 310.364 19.2309 310.364 19.8821C310.364 20.7519 310.019 21.5863 309.404 22.2028C308.79 22.8192 307.957 23.1675 307.086 23.1714Z" fill="#DCE5F6"/>
<path d="M319.186 23.1567C318.534 23.1596 317.896 22.9692 317.353 22.6095C316.809 22.2498 316.385 21.7371 316.134 21.1363C315.882 20.5355 315.815 19.8737 315.94 19.2347C316.066 18.5957 316.378 18.0082 316.838 17.5467C317.298 17.0853 317.884 16.7705 318.523 16.6424C319.162 16.5143 319.825 16.5786 320.427 16.8271C321.03 17.0756 321.545 17.4972 321.907 18.0384C322.27 18.5797 322.463 19.2162 322.463 19.8674C322.463 20.7373 322.118 21.5717 321.504 22.1881C320.89 22.8046 320.056 23.1528 319.186 23.1567Z" fill="#DCE5F6"/>
<path d="M394.876 23.1123C394.224 23.1123 393.587 22.919 393.046 22.5569C392.504 22.1948 392.082 21.6803 391.833 21.0784C391.584 20.4765 391.52 19.8144 391.648 19.1759C391.777 18.5374 392.092 17.9514 392.553 17.4919C393.015 17.0325 393.603 16.7204 394.243 16.5951C394.882 16.4699 395.545 16.5371 396.146 16.7883C396.747 17.0395 397.261 17.4634 397.621 18.0062C397.98 18.5491 398.171 19.1864 398.168 19.8376C398.168 20.2689 398.083 20.6959 397.917 21.0942C397.752 21.4924 397.509 21.8541 397.203 22.1584C396.897 22.4626 396.534 22.7035 396.135 22.8672C395.735 23.0309 395.308 23.1142 394.876 23.1123Z" fill="#DCE5F6"/>
<path d="M382.775 23.1275C382.123 23.1275 381.487 22.9345 380.946 22.5731C380.404 22.2117 379.982 21.698 379.733 21.0969C379.484 20.4959 379.419 19.8345 379.546 19.1964C379.673 18.5584 379.986 17.9723 380.447 17.5122C380.907 17.0522 381.494 16.7389 382.132 16.612C382.771 16.4851 383.433 16.5503 384.034 16.7992C384.636 17.0482 385.15 17.4698 385.512 18.0107C385.874 18.5516 386.067 19.1876 386.067 19.8381C386.069 20.2706 385.985 20.6992 385.82 21.0992C385.655 21.4991 385.413 21.8625 385.107 22.1684C384.801 22.4742 384.437 22.7164 384.037 22.881C383.636 23.0456 383.207 23.1294 382.775 23.1275Z" fill="#DCE5F6"/>
<path d="M455.831 11.4322H416.033C414.157 11.4314 412.33 12.0376 410.827 13.1602C409.323 14.2827 408.224 15.8613 407.693 17.6599L404.445 28.7997C403.858 30.8145 402.632 32.5841 400.951 33.8419C399.27 35.0997 397.225 35.7774 395.125 35.7731H306.954C304.855 35.7744 302.812 35.0975 301.13 33.8434C299.447 32.5892 298.216 30.8251 297.619 28.8144L294.357 17.6746C293.827 15.8762 292.728 14.2982 291.224 13.1777C289.72 12.0572 287.893 11.455 286.017 11.4614H246.189C237.806 11.4459 229.76 14.7574 223.819 20.668C217.879 26.5785 214.531 34.6041 214.512 42.9803L214.775 500.938C214.789 505.085 215.619 509.188 217.22 513.014C218.821 516.84 221.16 520.314 224.104 523.237C227.048 526.159 230.54 528.474 234.38 530.048C238.219 531.623 242.332 532.426 246.482 532.413L456.08 532.311C464.464 532.326 472.51 529.015 478.45 523.104C484.39 517.193 487.738 509.168 487.758 500.792L487.494 42.8487C487.452 34.4917 484.095 26.4922 478.16 20.6034C472.225 14.7146 464.196 11.4166 455.831 11.4322Z" fill="white"/>
<path d="M498.834 127.099C499.349 127.103 499.842 127.309 500.206 127.673C500.57 128.037 500.776 128.529 500.78 129.043V192.388C500.78 192.901 500.577 193.394 500.215 193.758C499.853 194.122 499.362 194.329 498.849 194.333L498.834 127.099Z" fill="#DCE5F6"/>
<path d="M203.245 168.691C202.713 168.691 202.203 168.902 201.827 169.277C201.451 169.653 201.24 170.162 201.24 170.693V209.244C201.244 209.777 201.459 210.286 201.837 210.661C202.215 211.036 202.726 211.247 203.259 211.247L203.245 168.691Z" fill="#DCE5F6"/>
<path d="M203.216 113.021C202.951 113.021 202.689 113.073 202.445 113.174C202.201 113.276 201.979 113.425 201.793 113.612C201.607 113.8 201.459 114.022 201.359 114.267C201.259 114.512 201.209 114.774 201.211 115.038V153.574C201.215 154.108 201.429 154.619 201.807 154.996C202.184 155.374 202.696 155.588 203.23 155.591L203.216 113.021Z" fill="#DCE5F6"/>
<path d="M203.202 71.3416C202.74 71.3416 202.297 71.5248 201.971 71.8511C201.644 72.1773 201.461 72.6198 201.461 73.0812V89.4108C201.461 89.6386 201.506 89.8641 201.594 90.0744C201.681 90.2846 201.81 90.4755 201.972 90.6358C202.134 90.7962 202.326 90.923 202.537 91.0088C202.748 91.0946 202.974 91.1378 203.202 91.1359V71.3416Z" fill="#DCE5F6"/>
<path d="M423.231 27.645H421.197V30.4958H423.231V27.645Z" fill="white"/>
<path d="M426.538 26.3726H424.504V30.4805H426.538V26.3726Z" fill="white"/>
<path d="M429.844 25.4229H427.811V30.4811H429.844V25.4229Z" fill="white"/>
<path d="M433.151 23.5806H431.117V30.4808H433.151V23.5806Z" fill="white"/>
<path d="M463.148 30.6124H452.905C452.81 30.6144 452.715 30.5973 452.627 30.5622C452.538 30.527 452.457 30.4746 452.389 30.4079C452.321 30.3411 452.267 30.2615 452.23 30.1736C452.193 30.0858 452.174 29.9914 452.174 29.8961V24.8232C452.174 24.6319 452.249 24.4482 452.383 24.3115C452.517 24.1748 452.699 24.0961 452.891 24.0923H463.133C463.182 24.0957 463.229 24.1168 463.264 24.1517C463.299 24.1867 463.32 24.2331 463.323 24.2823V25.9489H464.421C464.445 25.9488 464.469 25.9538 464.491 25.9635C464.514 25.9732 464.534 25.9875 464.55 26.0054C464.567 26.0232 464.579 26.0443 464.587 26.0673C464.595 26.0903 464.598 26.1147 464.596 26.139V28.5658C464.596 28.6162 464.576 28.6645 464.54 28.7001C464.505 28.7358 464.456 28.7558 464.406 28.7558H463.308V30.4224C463.31 30.4454 463.308 30.4687 463.301 30.4907C463.294 30.5128 463.283 30.5332 463.268 30.5509C463.253 30.5685 463.234 30.5831 463.214 30.5936C463.193 30.6042 463.171 30.6106 463.148 30.6124ZM462.957 24.4578H452.905C452.812 24.4578 452.723 24.4947 452.657 24.5605C452.591 24.6263 452.554 24.7156 452.554 24.8086V29.8815C452.554 29.9745 452.591 30.0638 452.657 30.1296C452.723 30.1954 452.812 30.2323 452.905 30.2323H462.913V28.5658C462.913 28.5192 462.932 28.4746 462.965 28.4417C462.998 28.4088 463.042 28.3903 463.089 28.3903H464.186V26.3144H463.148C463.101 26.3144 463.056 26.2959 463.023 26.263C462.991 26.2301 462.972 26.1855 462.972 26.139L462.957 24.4578Z" fill="white"/>
<path d="M453.402 29.4136V25.3056L462.108 25.291V27.1477V27.557V29.4136H453.402Z" fill="white"/>
<path d="M442.867 30.2324C442.867 30.0849 442.824 29.9408 442.742 29.8182C442.66 29.6956 442.543 29.6 442.407 29.5436C442.27 29.4871 442.12 29.4724 441.976 29.5011C441.831 29.5299 441.698 29.6009 441.594 29.7052C441.489 29.8095 441.418 29.9423 441.389 30.0869C441.361 30.2316 441.375 30.3815 441.432 30.5177C441.488 30.654 441.584 30.7704 441.707 30.8523C441.829 30.9343 441.974 30.978 442.121 30.978C442.319 30.978 442.509 30.8994 442.649 30.7596C442.789 30.6198 442.867 30.4301 442.867 30.2324Z" fill="white"/>
<path d="M439.574 28.4486L440.525 29.3842C440.95 28.9646 441.523 28.7292 442.12 28.7292C442.717 28.7292 443.29 28.9646 443.715 29.3842L444.666 28.4339C443.989 27.7623 443.074 27.3841 442.12 27.3813C441.646 27.3823 441.177 27.4771 440.74 27.6602C440.303 27.8434 439.907 28.1114 439.574 28.4486Z" fill="white"/>
<path d="M442.12 25.3057C440.607 25.3071 439.155 25.9062 438.082 26.9723L439.033 27.9225C439.855 27.1101 440.964 26.6544 442.12 26.6544C443.276 26.6544 444.386 27.1101 445.208 27.9225L446.159 26.9723C445.629 26.4418 445 26.0213 444.306 25.7353C443.613 25.4492 442.87 25.3032 442.12 25.3057Z" fill="white"/>
<path d="M436.531 25.4078L437.482 26.3581C438.088 25.7442 438.81 25.2573 439.607 24.9259C440.403 24.5945 441.258 24.4254 442.121 24.4283C443.859 24.4298 445.526 25.1183 446.759 26.3434L447.71 25.3932C446.976 24.6594 446.105 24.0773 445.146 23.6802C444.187 23.283 443.159 23.0786 442.121 23.0786C441.082 23.0786 440.054 23.283 439.095 23.6802C438.136 24.0773 437.265 24.6594 436.531 25.3932V25.4078Z" fill="white"/>
<rect x="226.174" y="76" width="249.64" height="70" rx="10" fill="#F8FAFD"/>
<rect x="236.174" y="88" width="20" height="4" rx="2" fill="#E8EEF9"/>
<rect x="236.174" y="102" width="20" height="4" rx="2" fill="#E8EEF9"/>
<rect x="236.174" y="130" width="20" height="4" rx="2" fill="#E8EEF9"/>
<rect x="262.174" y="86" width="2" height="50" rx="1" fill="#E8EEF9"/>
<rect x="295.174" y="88" width="70.32" height="4" rx="2" fill="#F5B0B2"/>
<rect x="370.494" y="88" width="20" height="4" rx="2" fill="#E8EEF9"/>
<rect x="395.494" y="88" width="70.32" height="4" rx="2" fill="#E8EEF9"/>
<rect x="270.174" y="102" width="20" height="4" rx="2" fill="#E8EEF9"/>
<rect x="295.174" y="102" width="70.32" height="4" rx="2" fill="#E8EEF9"/>
<rect x="370.494" y="102" width="20" height="4" rx="2" fill="#E8EEF9"/>
<rect x="395.494" y="102" width="70.32" height="4" rx="2" fill="#E8EEF9"/>
<rect x="270.174" y="116" width="20" height="4" rx="2" fill="#F5B0B2"/>
<rect x="320.174" y="116" width="120.64" height="4" rx="2" fill="#E8EEF9"/>
<rect x="445.814" y="116" width="20" height="4" rx="2" fill="#E8EEF9"/>
<rect x="270.174" y="130" width="20" height="4" rx="2" fill="#E8EEF9"/>
<rect x="295.174" y="130" width="120.64" height="4" rx="2" fill="#E8EEF9"/>
<rect x="445.814" y="130" width="20" height="4" rx="2" fill="#F5B0B2"/>
<rect x="226.174" y="166" width="249.64" height="60" rx="10" stroke="#D8E3F5" stroke-dasharray="10 10"/>
<rect x="226.174" y="246" width="249.64" height="70" rx="10" fill="#F8FAFD"/>
<rect x="236.174" y="258" width="20" height="4" rx="2" fill="#E8EEF9"/>
<rect x="236.174" y="272" width="20" height="4" rx="2" fill="#E8EEF9"/>
<rect x="236.174" y="300" width="20" height="4" rx="2" fill="#E8EEF9"/>
<rect x="262.174" y="256" width="2" height="50" rx="1" fill="#E8EEF9"/>
<rect x="295.174" y="258" width="70.32" height="4" rx="2" fill="#F5B0B2"/>
<rect x="370.494" y="258" width="20" height="4" rx="2" fill="#E8EEF9"/>
<rect x="395.494" y="258" width="70.32" height="4" rx="2" fill="#E8EEF9"/>
<rect x="270.174" y="272" width="20" height="4" rx="2" fill="#E8EEF9"/>
<rect x="295.174" y="272" width="70.32" height="4" rx="2" fill="#E8EEF9"/>
<rect x="370.494" y="272" width="20" height="4" rx="2" fill="#E8EEF9"/>
<rect x="395.494" y="272" width="70.32" height="4" rx="2" fill="#E8EEF9"/>
<rect x="270.174" y="286" width="20" height="4" rx="2" fill="#F5B0B2"/>
<rect x="320.174" y="286" width="120.64" height="4" rx="2" fill="#E8EEF9"/>
<rect x="445.814" y="286" width="20" height="4" rx="2" fill="#E8EEF9"/>
<rect x="270.174" y="300" width="20" height="4" rx="2" fill="#E8EEF9"/>
<rect x="295.174" y="300" width="120.64" height="4" rx="2" fill="#E8EEF9"/>
<rect x="445.814" y="300" width="20" height="4" rx="2" fill="#F5B0B2"/>
<rect x="226.174" y="336" width="249.64" height="60" rx="10" stroke="#D8E3F5" stroke-dasharray="10 10"/>
<path d="M80.2028 500.333L75.4422 525.964C75.4422 525.964 99.8085 539.395 99.3989 544.265L49.3867 536.781L55.2735 496.437L80.2028 500.333Z" fill="#3C4858"/>
<path d="M49.4883 536.78L50.2561 532.73L97.8624 541.445C97.8624 541.445 99.91 542.727 99.4493 544.265L49.4883 536.78Z" fill="#1F2D3D"/>
<path d="M63.924 506.483L63.4633 532.576C63.4633 532.576 89.8259 541.804 90.133 546.571L39.6089 547.494L38.6875 506.842L63.924 506.483Z" fill="#3C4858"/>
<path d="M28.2949 304.096L28.9604 329.881L36.5876 409.955C36.5876 409.955 34.1305 448.966 32.5948 471.009C31.2639 490.131 35.1031 523.298 35.1031 523.298L67.2502 522.478L75.85 411.339L81.2249 342.082L92.0771 305.89L28.2949 304.096Z" fill="#1F2D3D"/>
<path d="M107.741 309.94L109.789 414.671C109.891 420.002 109.021 425.334 107.229 430.357L79.5868 507.355L78.2047 512.43L58.9062 508.278L68.2739 304.096L107.741 309.94Z" fill="#1F2D3D"/>
<path d="M82.4543 314.81C82.4543 315.118 82.3519 315.477 82.1983 315.733C82.0448 315.989 81.7888 316.246 81.4817 316.348C81.1745 316.502 80.8674 316.502 80.5091 316.451C80.2019 316.4 79.8948 316.246 79.6389 316.041C79.3829 315.836 79.2293 315.528 79.1782 315.22C79.127 314.913 79.127 314.554 79.2293 314.246C79.3317 313.939 79.5365 313.683 79.8436 313.478C80.0996 313.272 80.4067 313.17 80.765 313.17C80.9698 313.17 81.1745 313.221 81.3793 313.272C81.5841 313.375 81.7888 313.477 81.9424 313.631C82.096 313.785 82.2495 313.939 82.3007 314.144C82.4031 314.349 82.4543 314.554 82.4543 314.81Z" fill="#4F5B6C"/>
<path d="M52.7127 310.709C52.7127 320.5 44.7783 328.446 35.0011 328.446H32.9023" stroke="#4F5B6C" stroke-width="0.512634" stroke-miterlimit="10"/>
<path d="M99.6543 308.556V313.272C99.6543 318.193 103.647 327.164 108.561 327.164" stroke="#4F5B6C" stroke-width="0.512634" stroke-miterlimit="10"/>
<path d="M80.7646 328.446L77.2325 417.388L67.2506 522.375L35.1035 523.247" stroke="#4F5B6C" stroke-width="0.512634" stroke-miterlimit="10"/>
<path d="M136.306 174.194L134.307 164L128.372 165.531L127.143 156.97L125.556 143.18L120.437 150.715C119.823 151.638 119.465 152.715 119.362 153.842L118.595 180.038L118.492 191.265L131.187 199.262L130.931 185.933L133.9 182.755C136.767 179.628 136.306 174.194 136.306 174.194Z" fill="#F8B498"/>
<g filter="url(#filter0_d)">
<rect width="249.646" height="69.9983" rx="10" transform="matrix(0.99142 -0.130711 0.130341 0.991469 118.842 104.393)" fill="#F8FAFD"/>
<rect x="130.316" y="114.984" width="20" height="4" rx="2" transform="rotate(-7.5 130.316 114.984)" fill="#E8EEF9"/>
<rect x="132.145" y="128.864" width="20" height="4" rx="2" transform="rotate(-7.5 132.145 128.864)" fill="#E8EEF9"/>
<rect x="135.799" y="156.625" width="20" height="4" rx="2" transform="rotate(-7.5 135.799 156.625)" fill="#E8EEF9"/>
<rect x="155.832" y="109.607" width="2" height="50" rx="1" transform="rotate(-7.5 155.832 109.607)" fill="#E8EEF9"/>
<rect x="188.811" y="107.283" width="70.3231" height="4" rx="2" transform="rotate(-7.5 188.811 107.283)" fill="#E8EEF9"/>
<rect x="263.49" y="97.4514" width="20" height="4" rx="2" transform="rotate(-7.5 263.49 97.4514)" fill="#F5B0B2"/>
<rect x="288.275" y="94.1882" width="70.3231" height="4" rx="2" transform="rotate(-7.5 288.275 94.1882)" fill="#E8EEF9"/>
<rect x="165.854" y="124.426" width="20" height="4" rx="2" transform="rotate(-7.5 165.854 124.426)" fill="#F5B0B2"/>
<rect x="190.639" y="121.163" width="70.3231" height="4" rx="2" transform="rotate(-7.5 190.639 121.163)" fill="#E8EEF9"/>
<rect x="265.318" y="111.332" width="20" height="4" rx="2" transform="rotate(-7.5 265.318 111.332)" fill="#E8EEF9"/>
<rect x="290.104" y="108.068" width="70.3231" height="4" rx="2" transform="rotate(-7.5 290.104 108.068)" fill="#E8EEF9"/>
<rect x="167.68" y="138.307" width="20" height="4" rx="2" transform="rotate(-7.5 167.68 138.307)" fill="#E8EEF9"/>
<rect x="217.252" y="131.78" width="120.646" height="4" rx="2" transform="rotate(-7.5 217.252 131.78)" fill="#E8EEF9"/>
<rect x="341.822" y="115.38" width="20" height="4" rx="2" transform="rotate(-7.5 341.822 115.38)" fill="#F5B0B2"/>
<rect x="169.508" y="152.187" width="20" height="4" rx="2" transform="rotate(-7.5 169.508 152.187)" fill="#E8EEF9"/>
<rect x="194.293" y="148.924" width="120.646" height="4" rx="2" transform="rotate(-7.5 194.293 148.924)" fill="#E8EEF9"/>
<rect x="343.65" y="129.26" width="20" height="4" rx="2" transform="rotate(-7.5 343.65 129.26)" fill="#E8EEF9"/>
</g>
<path d="M120.795 165.684C122.433 162.762 124.378 159.994 126.528 157.431C127.194 156.559 128.013 155.842 128.985 155.278C129.446 155.021 130.009 154.919 130.572 154.919C131.135 154.97 131.647 155.175 132.108 155.483C132.517 155.944 132.824 156.508 132.876 157.123C132.978 157.738 132.876 158.354 132.569 158.917C132.005 160.045 131.238 161.019 130.367 161.891C129.497 162.762 128.883 163.89 128.627 165.12C128.627 166.299 128.832 167.478 129.241 168.555C129.702 170.4 129.651 172.348 129.139 174.194C128.627 176.039 127.654 177.731 126.323 179.064" fill="#F8B498"/>
<path d="M39.6094 547.495L39.6606 543.394L88.0347 544.06C88.0347 544.06 90.2871 544.983 90.0823 546.572L39.6094 547.495Z" fill="#1F2D3D"/>
<path d="M86.7031 177.783C86.7031 177.783 95.7637 184.806 99.347 192.803C102.47 199.313 106.053 205.567 109.943 211.668L116.444 188.138L134.053 196.545C134.053 196.545 128.627 233.403 127.348 237.71C125.556 243.707 121.256 249.039 114.55 248.424C107.844 247.809 103.852 244.784 99.4493 238.427L93.5113 227.662L86.7031 177.783Z" fill="#A8DBF7"/>
<path d="M58.191 170.196C45.24 168.35 32.0331 170.452 20.4131 176.399C16.881 178.193 13.912 180.192 12.4787 182.243C6.08002 191.163 23.7916 219.767 25.1225 226.842C25.788 230.225 29.9856 255.857 27.9892 276.055C26.7094 289.486 26.1975 302.968 26.5047 316.45L107.743 309.888C107.743 295.689 104.108 284.769 101.651 266.725L95.5594 207.977L86.7548 177.732L74.1622 172.451L58.191 170.196Z" fill="#A8DBF7"/>
<path d="M31.981 322.038L32.5953 329.163C32.5953 329.163 38.0214 331.983 39.9666 334.033C41.9118 336.084 47.645 346.593 47.645 346.593C47.1331 347.054 46.4677 347.362 45.8022 347.413C45.0855 347.464 44.4201 347.259 43.857 346.849C42.3725 345.055 41.0416 343.209 39.813 341.21C39.3011 341.108 38.7892 341.159 38.3285 341.313C37.8678 341.466 37.4071 341.723 37.0488 342.082C36.6904 342.44 36.4345 342.902 36.2809 343.363C36.1274 343.876 36.1274 344.388 36.2297 344.85C36.9464 348.028 37.8166 351.719 37.8166 352.18C37.8166 352.642 40.9904 355.718 43.3963 357.922C43.7034 358.23 43.9082 358.588 44.0106 359.05C44.1129 359.511 44.0106 359.921 43.857 360.28C43.6522 360.69 43.3963 360.998 42.9868 361.203C42.6284 361.408 42.1677 361.51 41.7582 361.459C41.5535 361.408 41.3999 361.357 41.2463 361.203C41.2463 361.203 41.5023 364.586 36.8952 361.869C36.8952 361.869 32.7488 362.895 30.8036 360.536C30.8036 360.536 25.7359 359.819 23.9442 358.383C22.1526 356.897 18.1086 341.62 18.1086 341.62L15.7539 325.318L31.981 322.038Z" fill="#F8B498"/>
<path d="M31.5714 346.645C31.469 347.567 31.469 348.49 31.6225 349.413C31.7761 351.668 32.4416 353.873 33.6189 355.821C34.9499 357.666 36.7415 359.102 38.7891 360.024C39.5569 360.486 40.4272 360.845 41.3486 361.05C40.6319 360.486 39.8641 359.973 39.045 359.614C37.151 358.589 35.513 357.154 34.2332 355.462C33.107 353.565 32.4416 351.515 32.1344 349.361C32.0832 348.387 31.8785 347.516 31.5714 346.645Z" fill="#FF9574"/>
<path d="M28.0919 348.49C27.836 349.31 27.836 350.181 27.9896 351.053C28.0919 351.976 28.2967 352.898 28.5015 353.77C28.7574 354.898 29.2693 355.974 29.9348 356.897C30.7026 357.717 31.5217 358.486 32.4943 359.101L34.6954 360.639C35.3609 361.152 36.0775 361.613 36.7942 361.921C36.8454 361.818 36.1799 361.203 35.0025 360.229C34.4395 359.716 33.7228 359.153 32.9038 358.537C32.0335 357.922 31.2145 357.205 30.4467 356.384C29.8324 355.513 29.3717 354.59 29.0646 353.565C28.8086 352.693 28.5527 351.822 28.3991 350.95C28.1943 349.464 28.1943 348.49 28.0919 348.49Z" fill="#FF9574"/>
<path d="M24.2532 350.951C23.946 351.002 24.6627 353.77 25.7377 357C25.8912 357.461 26.1472 357.82 26.5055 358.128C26.7615 358.435 27.0686 358.691 27.3757 358.897C27.8876 359.307 28.4507 359.665 29.0138 359.973C30.0376 360.486 30.7543 360.639 30.7543 360.537C30.7543 360.434 30.1912 360.178 29.2698 359.512C28.7579 359.153 28.246 358.743 27.7853 358.333C27.4781 358.076 27.2222 357.82 26.9662 357.564C26.7103 357.307 26.5055 357 26.3519 356.692C25.8401 355.052 25.277 353.616 24.8674 352.54C24.7651 352.078 24.5603 351.515 24.2532 350.951Z" fill="#FF9574"/>
<path d="M12.4784 182.242C12.4784 182.242 2.70115 194.443 2.64996 204.337C2.54758 214.282 0.5 278.464 0.5 278.464L14.2188 331.931L36.0768 326.395L28.2959 270.057L29.0638 221.1L12.4784 182.242Z" fill="#A8DBF7"/>
<path d="M29.011 218.333L27.9872 272.467L36.1775 326.447L14.166 331.983" stroke="#48AEE3" stroke-width="0.512634" stroke-miterlimit="10"/>
<path d="M94.1777 198.75L100.525 259.497" stroke="#48AEE3" stroke-width="0.512634" stroke-miterlimit="10"/>
<path d="M35.1543 105.706C35.1543 105.706 35.4614 90.3273 54.3504 88.6356C66.4311 87.5591 66.5335 93.5569 78.7166 92.788C89.8248 92.1215 100.421 99.606 97.708 112.781C95.4556 123.802 78.5631 130.005 78.5631 130.005L35.1543 105.706Z" fill="#A67C52"/>
<path d="M87.022 145.716C91.304 144.659 93.9193 140.326 92.8634 136.037C91.8076 131.749 87.4805 129.13 83.1985 130.188C78.9165 131.245 76.3012 135.578 77.3571 139.866C78.4129 144.155 82.74 146.774 87.022 145.716Z" fill="#FF9574"/>
<path d="M72.9837 155.432L72.6766 168.812C72.523 176.706 66.0731 183.012 58.1899 182.96C49.5389 182.858 42.9354 175.219 44.1128 166.658L48.9758 136.567L72.9837 155.432Z" fill="#F8B498"/>
<path d="M82.4034 104.835C83.9903 106.475 86.7033 109.551 87.3176 115.088C88.1367 122.674 90.0307 141.181 86.6522 149.331C82.3522 159.687 73.2405 165.736 59.6241 161.942C59.6241 161.942 47.1338 160.507 41.5029 135.695C32.8519 98.0168 66.3811 88.0205 82.4034 104.835Z" fill="#F8B498"/>
<path d="M81.174 131.748C81.3788 132.722 82.3514 133.388 83.324 133.183C84.2966 132.978 84.962 132.004 84.7573 131.03C84.5525 130.056 83.5799 129.39 82.6073 129.595C81.5835 129.8 80.9692 130.774 81.174 131.748Z" fill="#0E5977"/>
<path d="M64.9474 131.235C65.1522 132.209 66.1248 132.876 67.0974 132.671C68.07 132.465 68.7355 131.491 68.5307 130.517C68.3259 129.543 67.3533 128.877 66.3807 129.082C65.3569 129.287 64.7427 130.261 64.9474 131.235Z" fill="#0E5977"/>
<path d="M76.7211 130.466L78.8711 139.335C79.127 140.309 78.4616 141.283 77.489 141.334L76.6699 141.385" stroke="#FF9574" stroke-width="1.06156" stroke-miterlimit="10" stroke-linecap="round" stroke-linejoin="round"/>
<path d="M87.4706 146.871L83.0683 147.588L81.9421 145.384C81.4814 144.461 80.56 143.949 79.5362 143.949L69.4518 144.256C68.4792 144.307 67.6602 144.82 67.1995 145.692L64.9983 147.896C64.9983 147.896 53.1735 150.613 50.9212 134.004L47.5427 133.132C47.5427 133.132 50.9724 140.565 46.1094 148.921C46.1094 148.921 51.126 165.787 71.0387 162.916C71.0899 162.865 83.4778 161.583 87.4706 146.871Z" fill="#A67C52"/>
<path d="M78.103 147.947C78.103 147.947 74.8269 149.69 71.5508 147.998" stroke="white" stroke-width="1.05726" stroke-miterlimit="10" stroke-linecap="round" stroke-linejoin="round"/>
<path d="M81.3281 122.367C81.3281 122.367 84.3995 121.854 88.4947 124.417" stroke="#A67C52" stroke-width="3.0758" stroke-miterlimit="10" stroke-linecap="round"/>
<path d="M71.09 122.367C71.09 122.367 63.4116 120.829 59.3164 124.417" stroke="#A67C52" stroke-width="3.0758" stroke-miterlimit="10" stroke-linecap="round"/>
<path d="M40.4789 136.26L50.9728 134.004L49.1811 120.573C48.9764 119.138 49.8466 117.702 51.2287 117.395C53.5834 116.779 56.7572 115.19 56.7572 110.782C56.8084 103.759 52.9691 99.7087 52.9691 99.7087C52.9691 99.7087 31.5719 96.2741 28.6541 112.012C26.6065 122.982 32.8005 143.846 47.6966 152.202L40.4789 136.26Z" fill="#A67C52"/>
<path d="M30.8555 139.028C31.9305 143.847 36.6911 146.923 41.5029 145.846C46.3147 144.77 49.3861 140.002 48.3111 135.183C47.2361 130.365 42.4755 127.289 37.6637 128.365C32.8519 129.442 29.8317 134.209 30.8555 139.028Z" fill="#F8B498"/>
<path d="M35.8203 134.209C35.8203 134.209 42.5261 132.825 43.6523 140.207" stroke="#FF9574" stroke-width="1.06156" stroke-miterlimit="10" stroke-linecap="round" stroke-linejoin="round"/>
<path d="M51.2782 102.374C51.2782 102.374 57.6769 108.166 68.3755 107.397C79.1253 106.577 81.1217 103.758 85.1145 108.115C85.1145 108.115 84.0395 93.1975 64.5875 92.6336C45.1354 92.0697 46.6711 104.68 46.6711 104.68L51.2782 102.374Z" fill="#A67C52"/>
<path d="M474.672 274.9C478.167 285.7 481.063 302.8 480.664 317.2C480.564 321.1 479.765 324.7 478.966 328C477.868 332.5 473.873 335.6 469.18 335.6H417.654C413.461 335.6 409.766 333.1 408.268 329.2C406.67 325 404.973 320.9 404.474 317C400.08 285.8 411.663 263.2 418.853 256.2C422.248 252.9 426.841 251.1 431.534 251.1L441.72 251C445.315 251 449.009 251.6 452.404 252.7C462.989 256.1 471.277 264.3 474.672 274.9Z" fill="#A67C52"/>
<path d="M336.873 370.4L383.506 380.3C388.798 382 395.688 379.5 400.581 377L443.919 353.2L432.535 323.5C431.337 323.9 430.238 324.3 429.14 324.9L391.494 355.3L341.067 351.2L336.873 370.4Z" fill="#EF7E82"/>
<g filter="url(#filter1_d)">
<rect width="249.642" height="69.9994" rx="10" transform="matrix(0.996908 0.0785715 -0.0783468 0.996926 276.025 327.431)" fill="#F8FAFD"/>
<rect x="285.055" y="340.206" width="20" height="4" rx="2" transform="rotate(4.5 285.055 340.206)" fill="#E8EEF9"/>
<rect x="283.957" y="354.163" width="20" height="4" rx="2" transform="rotate(4.5 283.957 354.163)" fill="#E8EEF9"/>
<rect x="281.76" y="382.077" width="20" height="4" rx="2" transform="rotate(4.5 281.76 382.077)" fill="#E8EEF9"/>
<rect x="311.131" y="340.252" width="2" height="50" rx="1" transform="rotate(4.5 311.131 340.252)" fill="#E8EEF9"/>
<rect x="343.873" y="344.835" width="70.3212" height="4" rx="2" transform="rotate(4.5 343.873 344.835)" fill="#E8EEF9"/>
<rect x="418.961" y="350.745" width="20" height="4" rx="2" transform="rotate(4.5 418.961 350.745)" fill="#F5B0B2"/>
<rect x="443.885" y="352.706" width="70.3212" height="4" rx="2" transform="rotate(4.5 443.885 352.706)" fill="#E8EEF9"/>
<rect x="317.852" y="356.83" width="20" height="4" rx="2" transform="rotate(4.5 317.852 356.83)" fill="#F5B0B2"/>
<rect x="342.775" y="358.792" width="70.3212" height="4" rx="2" transform="rotate(4.5 342.775 358.792)" fill="#E8EEF9"/>
<rect x="417.863" y="364.701" width="20" height="4" rx="2" transform="rotate(4.5 417.863 364.701)" fill="#E8EEF9"/>
<rect x="442.787" y="366.663" width="70.3212" height="4" rx="2" transform="rotate(4.5 442.787 366.663)" fill="#E8EEF9"/>
<rect x="316.752" y="370.787" width="20" height="4" rx="2" transform="rotate(4.5 316.752 370.787)" fill="#E8EEF9"/>
<rect x="366.598" y="374.71" width="120.642" height="4" rx="2" transform="rotate(4.5 366.598 374.71)" fill="#E8EEF9"/>
<rect x="491.854" y="384.568" width="20" height="4" rx="2" transform="rotate(4.5 491.854 384.568)" fill="#F5B0B2"/>
<rect x="315.654" y="384.744" width="20" height="4" rx="2" transform="rotate(4.5 315.654 384.744)" fill="#E8EEF9"/>
<rect x="340.578" y="386.706" width="120.642" height="4" rx="2" transform="rotate(4.5 340.578 386.706)" fill="#E8EEF9"/>
<rect x="490.756" y="398.525" width="20" height="4" rx="2" transform="rotate(4.5 490.756 398.525)" fill="#E8EEF9"/>
</g>
<path d="M410.166 374.4C410.166 374.4 404.873 367 403.475 364.5C402.177 361.9 395.787 355.5 395.787 355.5C395.787 355.5 394.588 355.9 394.688 358.1C395.587 360.1 396.486 362 397.584 363.9C397.584 363.9 398.183 367.1 396.785 367.2C395.387 367.3 378.412 364.7 378.412 364.7C374.717 364.1 374.717 366.3 374.717 366.3C374.717 366.3 372.221 365.8 371.821 367.5C371.522 368.6 373.718 370 373.718 370C373.718 370 371.122 369 370.223 370.8C369.225 372.5 373.918 374.5 373.918 374.5C374.018 377.2 382.905 381.1 385.302 382.3C387.698 383.4 409.367 388.9 409.367 388.9L414.659 376.9L410.166 374.4Z" fill="#FFBEA9"/>
<path d="M392.391 371.2C391.492 371.2 390.594 371.2 389.695 371C387.598 370.7 385.401 370.2 383.404 369.6C381.307 369 379.31 368.3 377.313 367.4C376.414 367.1 375.615 366.7 374.816 366.2C375.715 366.4 376.514 366.7 377.313 367.1C378.811 367.7 381.007 368.4 383.404 369.1C385.9 369.8 387.997 370.3 389.695 370.6C390.594 370.8 391.492 371 392.391 371.2Z" fill="#E4977C"/>
<path d="M390.695 375.6C389.797 375.5 388.998 375.3 388.199 375.1C386.701 374.7 384.504 374.1 382.207 373.4C380.21 372.8 378.313 372.1 376.416 371.2C375.617 370.9 374.818 370.5 374.119 370C374.918 370.2 375.817 370.5 376.616 370.8C378.113 371.4 380.111 372 382.407 372.8L388.299 374.6C389.098 374.9 389.896 375.2 390.695 375.6Z" fill="#E4977C"/>
<path d="M388.297 379.8C387.499 379.8 386.8 379.7 386.001 379.5C384.203 379.1 382.406 378.6 380.708 377.9C379.011 377.2 377.313 376.5 375.716 375.6C375.017 375.3 374.417 374.9 373.818 374.4C373.918 374.3 376.914 375.9 380.908 377.5C382.606 378.2 384.303 378.7 386.001 379.2C386.9 379.3 387.598 379.5 388.297 379.8Z" fill="#E4977C"/>
<path d="M432.434 323.4C432.434 324.6 427.541 361.1 427.541 369.1C427.541 377.1 436.528 388.8 436.528 388.8L459.295 424.6H519.209L496.042 385.9L489.452 355.2C485.957 343.5 486.256 337.5 477.569 328.9L473.375 326.1C465.386 320.7 455.501 318.7 446.014 320.7L432.434 323.4Z" fill="#EF7E82"/>
<path d="M450.108 348.9L459.295 387.6L412.762 374.5L404.873 388.5L465.386 416.1C468.981 417.7 473.075 418.1 476.869 417C480.664 415.9 484.059 413.6 486.356 410.4C487.754 408.4 488.752 406.1 489.152 403.7C489.551 401.3 489.551 398.8 488.952 396.4L475.371 343.4C474.972 341.7 474.173 340.1 473.075 338.7C471.976 337.3 470.578 336.1 469.08 335.3C467.483 334.4 465.785 333.9 463.988 333.8C462.19 333.6 460.393 333.9 458.695 334.4C455.8 335.4 453.303 337.4 451.706 340.1C450.108 342.7 449.609 345.8 450.108 348.9Z" fill="#EF7E82"/>
<path d="M513.119 508.6L489.953 498.5L483.861 518.6L501.835 524.9L501.636 542.2C493.048 544.7 491.85 549 491.85 549L509.824 548.6L525.501 516.7L513.119 508.6Z" fill="#1F2D3D"/>
<g opacity="0.6">
<path opacity="0.6" d="M525.501 516.7L509.824 548.5L491.85 548.9L493.847 546.2L508.426 545.1L522.805 515L525.501 516.7Z" fill="#3C4858"/>
</g>
<path d="M391.794 511.3L391.993 534.9C391.993 534.9 368.128 543.1 367.828 547.4L413.462 548.6L414.561 511.8L391.794 511.3Z" fill="#1F2D3D"/>
<g opacity="0.6">
<path opacity="0.6" d="M413.462 548.6V544.9L369.725 545.2C369.725 545.2 367.628 546 367.828 547.5L413.462 548.6Z" fill="#3C4858"/>
</g>
<path d="M497.84 499.3L445.316 479.7L500.536 471.9L503.332 444.9L399.981 453.9L385.402 474.9L389.197 501.3L489.852 526.9L497.84 499.3Z" fill="#3C4858"/>
<path d="M386.401 518.2L381.408 421.8C381.508 417.2 382.806 412.7 385.203 408.7C387.599 404.7 390.895 401.4 394.889 399.1C398.184 397.2 401.879 396 405.673 395.6C409.468 395.2 413.362 395.6 416.957 396.8L484.06 419.2L516.913 424.4C516.913 424.4 527.198 444.1 523.503 456.2C519.909 468 507.027 475.8 495.644 472.4C481.564 468.2 416.857 440.4 416.857 440.4V519L386.401 518.2Z" fill="#3C4858"/>
<path d="M433.033 306.7L433.532 323.9C433.632 330.1 438.725 335 444.816 335.1C451.606 335.2 456.899 329.3 456.3 322.6L452.805 289.8L433.033 306.7Z" fill="#F8B498"/>
<path d="M419.054 262.8C417.157 264.4 415.958 266.6 415.459 269C414.061 276.1 411.265 291 413.762 298.5C417.057 308.3 425.045 314.6 437.927 312.1C437.927 312.1 452.905 311.4 456.6 289.4C461.892 258.3 435.131 249.2 419.054 262.8Z" fill="#F8B498"/>
<path d="M436.429 258.5C436.429 258.5 422.149 256.6 415.459 269C415.459 269 416.158 250.9 437.827 253.5L436.429 258.5Z" fill="#A67C52"/>
<path d="M436.43 258.5C436.43 258.5 444.218 258.9 445.816 266.8C447.014 272.7 441.323 279.1 450.509 288.8L459.896 280.7C459.896 280.7 466.187 253.3 437.928 253.4L436.43 258.5Z" fill="#A67C52"/>
<path d="M457.3 298.4C462.318 298.4 466.387 294.37 466.387 289.4C466.387 284.429 462.318 280.4 457.3 280.4C452.281 280.4 448.213 284.429 448.213 289.4C448.213 294.37 452.281 298.4 457.3 298.4Z" fill="#F8B498"/>
<path d="M461.394 286.7C461.394 286.7 454.803 284.8 453.006 292.1" stroke="#FF9574" stroke-width="1.0154" stroke-miterlimit="10" stroke-linecap="round" stroke-linejoin="round"/>
<path d="M417.157 283.9C416.957 284.8 416.059 285.3 415.16 285.1C414.261 284.9 413.762 284 413.962 283.1C414.161 282.2 415.06 281.7 415.959 281.9C416.858 282.1 417.357 283 417.157 283.9Z" fill="#101010"/>
<path d="M431.836 284.201C431.636 285.101 430.638 285.701 429.739 285.401C428.84 285.101 428.241 284.2 428.541 283.3C428.741 282.4 429.739 281.8 430.638 282.1C431.537 282.4 432.036 283.301 431.836 284.201Z" fill="#101010"/>
<path d="M422.249 280.3L419.054 289.3C418.654 290.3 419.254 291.4 420.352 291.7L421.251 291.9" stroke="#FF9574" stroke-width="1.0354" stroke-miterlimit="10" stroke-linecap="round" stroke-linejoin="round"/>
<path d="M419.453 296L429.139 294.9C429.139 294.9 429.738 298.9 424.945 299.4C420.152 300 419.453 296 419.453 296Z" fill="white"/>
<path d="M412.863 275.1C412.863 275.1 429.14 269 429.34 256.2C429.34 256.2 412.863 256.4 412.863 275.1Z" fill="#A67C52"/>
<path d="M448.512 275.1C448.512 275.1 429.54 269 429.34 256.2C429.34 256.2 448.512 255.8 448.512 275.1Z" fill="#A67C52"/>
<path d="M416.557 275.1C416.557 275.1 414.461 274.8 411.465 276.1" stroke="#A67C52" stroke-width="3" stroke-miterlimit="10" stroke-linecap="round"/>
<path d="M426.543 275.1C426.543 275.1 434.032 273.6 438.026 277.1" stroke="#A67C52" stroke-width="3" stroke-miterlimit="10" stroke-linecap="round"/>
<path d="M430.637 333.6L430.337 347.9C430.337 348.8 430.237 349.7 430.038 350.6L427.941 363.6C427.242 368.2 427.641 373 429.339 377.3L430.237 379.7" stroke="#EB5D62" stroke-miterlimit="10" stroke-linecap="round"/>
<path d="M412.762 374.4L459.694 388L450.707 352.1" stroke="#EB5D62" stroke-miterlimit="10" stroke-linecap="round"/>
<path d="M475.572 346.5L488.354 397C490.151 404.2 486.856 411.7 480.365 415.2L476.97 417.1" stroke="#EB5D62" stroke-miterlimit="10" stroke-linecap="round"/>
<path d="M410.965 427.5L416.956 441" stroke="#1F2D3D" stroke-miterlimit="10"/>
<path d="M495.542 472.5L417.055 440.7L416.855 519" stroke="#1F2D3D" stroke-miterlimit="10"/>
<defs>
<filter id="filter0_d" x="115.436" y="70.0583" width="263.441" height="108.845" filterUnits="userSpaceOnUse" color-interpolation-filters="sRGB">
<feFlood flood-opacity="0" result="BackgroundImageFix"/>
<feColorMatrix in="SourceAlpha" type="matrix" values="0 0 0 0 0 0 0 0 0 0 0 0 0 0 0 0 0 0 127 0"/>
<feOffset dy="1.70312"/>
<feGaussianBlur stdDeviation="1.70312"/>
<feColorMatrix type="matrix" values="0 0 0 0 0.121569 0 0 0 0 0.176471 0 0 0 0 0.239216 0 0 0 0.05 0"/>
<feBlend mode="normal" in2="BackgroundImageFix" result="effect1_dropShadow"/>
<feBlend mode="normal" in="SourceGraphic" in2="effect1_dropShadow" result="shape"/>
</filter>
<filter id="filter1_d" x="267.135" y="325.728" width="261.167" height="96.2115" filterUnits="userSpaceOnUse" color-interpolation-filters="sRGB">
<feFlood flood-opacity="0" result="BackgroundImageFix"/>
<feColorMatrix in="SourceAlpha" type="matrix" values="0 0 0 0 0 0 0 0 0 0 0 0 0 0 0 0 0 0 127 0"/>
<feOffset dy="1.70312"/>
<feGaussianBlur stdDeviation="1.70312"/>
<feColorMatrix type="matrix" values="0 0 0 0 0.121569 0 0 0 0 0.176471 0 0 0 0 0.239216 0 0 0 0.05 0"/>
<feBlend mode="normal" in2="BackgroundImageFix" result="effect1_dropShadow"/>
<feBlend mode="normal" in="SourceGraphic" in2="effect1_dropShadow" result="shape"/>
</filter>
</defs>
</svg>
