<svg width="70" height="73" viewBox="0 0 70 73" fill="none" xmlns="http://www.w3.org/2000/svg">
<g clip-path="url(#clip0)">
<path d="M37.7219 36.6C37.7219 38.0679 36.6165 39.2 35.3219 39.2C34.0273 39.2 32.9219 38.0679 32.9219 36.6C32.9219 35.1321 34.0273 34 35.3219 34C36.6165 34 37.7219 35.1321 37.7219 36.6Z" fill="#49AFE4" stroke="#49AFE4"/>
<path d="M49.4218 36.6C49.4218 38.0679 48.3164 39.2 47.0218 39.2C45.7272 39.2 44.6218 38.0679 44.6218 36.6C44.6218 35.1321 45.7272 34 47.0218 34C48.3164 34 49.4218 35.1321 49.4218 36.6Z" fill="#49AFE4" stroke="#49AFE4"/>
<path d="M25.7219 36.6C25.7219 38.0679 24.6165 39.2 23.3219 39.2C22.0273 39.2 20.9219 38.0679 20.9219 36.6C20.9219 35.1321 22.0273 34 23.3219 34C24.6165 34 25.7219 35.1321 25.7219 36.6Z" fill="#49AFE4" stroke="#49AFE4"/>
<path d="M62.3218 57.8C66.6218 51.8 69.2218 44.3001 69.2218 36.2001C69.2218 16.4001 53.9218 0.300049 35.0218 0.300049C16.1218 0.400049 0.821777 16.5 0.821777 36.3C0.821777 56.1 16.1218 72.2 35.0218 72.2C41.9218 72.2 48.4218 70 53.8218 66.3L66.4218 72L62.3218 57.8Z" stroke="#49AFE4" stroke-width="0.75" stroke-miterlimit="10" stroke-linecap="round" stroke-linejoin="round"/>
</g>
<defs>
<clipPath id="clip0">
<rect width="69.2" height="72.6" fill="white" transform="translate(0.421875)"/>
</clipPath>
</defs>
</svg>
