<svg width="48" height="49" viewBox="0 0 48 49" fill="none" xmlns="http://www.w3.org/2000/svg">
<path d="M14 20.2256C14 22.4347 12.2091 24.2256 10 24.2256C7.79086 24.2256 6 22.4347 6 20.2256C6 18.0164 7.79086 16.2256 10 16.2256C12.2091 16.2256 14 18.0164 14 20.2256Z" fill="#D8E3F5"/>
<path d="M10 30.2256C7.47378 30.2256 5.3122 32.0842 4.4275 34.7154C4.15171 35.5357 4 36.431 4 37.3684V40.2256H16V37.3684C16 36.431 15.8483 35.5357 15.5725 34.7154C14.6878 32.0842 12.5262 30.2256 10 30.2256Z" fill="#D8E3F5"/>
<path d="M14 20.2256C14 22.4347 12.2091 24.2256 10 24.2256C7.79086 24.2256 6 22.4347 6 20.2256C6 18.0164 7.79086 16.2256 10 16.2256C12.2091 16.2256 14 18.0164 14 20.2256Z" stroke="#D8E3F5" stroke-width="2.5" stroke-linecap="round" stroke-linejoin="round"/>
<path d="M10 30.2256C7.47378 30.2256 5.3122 32.0842 4.4275 34.7154C4.15171 35.5357 4 36.431 4 37.3684V40.2256H16V37.3684C16 36.431 15.8483 35.5357 15.5725 34.7154C14.6878 32.0842 12.5262 30.2256 10 30.2256Z" stroke="#D8E3F5" stroke-width="2.5" stroke-linecap="round" stroke-linejoin="round"/>
<path d="M42 20.2256C42 22.4347 40.2091 24.2256 38 24.2256C35.7909 24.2256 34 22.4347 34 20.2256C34 18.0164 35.7909 16.2256 38 16.2256C40.2091 16.2256 42 18.0164 42 20.2256Z" fill="#D8E3F5"/>
<path d="M38 30.2256C35.4738 30.2256 33.3122 32.0842 32.4275 34.7154C32.1517 35.5357 32 36.431 32 37.3684V40.2256H44V37.3684C44 36.431 43.8483 35.5357 43.5725 34.7154C42.6878 32.0842 40.5262 30.2256 38 30.2256Z" fill="#D8E3F5"/>
<path d="M42 20.2256C42 22.4347 40.2091 24.2256 38 24.2256C35.7909 24.2256 34 22.4347 34 20.2256C34 18.0164 35.7909 16.2256 38 16.2256C40.2091 16.2256 42 18.0164 42 20.2256Z" stroke="#D8E3F5" stroke-width="2.5" stroke-linecap="round" stroke-linejoin="round"/>
<path d="M38 30.2256C35.4738 30.2256 33.3122 32.0842 32.4275 34.7154C32.1517 35.5357 32 36.431 32 37.3684V40.2256H44V37.3684C44 36.431 43.8483 35.5357 43.5725 34.7154C42.6878 32.0842 40.5262 30.2256 38 30.2256Z" stroke="#D8E3F5" stroke-width="2.5" stroke-linecap="round" stroke-linejoin="round"/>
<path d="M30 14.2256C30 17.5393 27.3137 20.2256 24 20.2256C20.6863 20.2256 18 17.5393 18 14.2256C18 10.9119 20.6863 8.22559 24 8.22559C27.3137 8.22559 30 10.9119 30 14.2256Z" fill="#49AFE4"/>
<path d="M24 26.2256C19.7896 26.2256 16.187 28.8276 14.7125 32.5114C14.2528 33.6597 14 34.9131 14 36.2256V40.2256H34V36.2256C34 34.9131 33.7472 33.6597 33.2875 32.5114C31.813 28.8276 28.2104 26.2256 24 26.2256Z" fill="#49AFE4"/>
<path d="M30 14.2256C30 17.5393 27.3137 20.2256 24 20.2256C20.6863 20.2256 18 17.5393 18 14.2256C18 10.9119 20.6863 8.22559 24 8.22559C27.3137 8.22559 30 10.9119 30 14.2256Z" stroke="#49AFE4" stroke-width="2.5" stroke-linecap="round" stroke-linejoin="round"/>
<path d="M24 26.2256C19.7896 26.2256 16.187 28.8276 14.7125 32.5114C14.2528 33.6597 14 34.9131 14 36.2256V40.2256H34V36.2256C34 34.9131 33.7472 33.6597 33.2875 32.5114C31.813 28.8276 28.2104 26.2256 24 26.2256Z" stroke="#49AFE4" stroke-width="2.5" stroke-linecap="round" stroke-linejoin="round"/>
</svg>
