<svg width="474" height="466" viewBox="0 0 474 466" fill="none" xmlns="http://www.w3.org/2000/svg">
<circle cx="233.396" cy="232.69" r="232.69" fill="#DEF0FA"/>
<rect x="8.12891" y="79.7075" width="247.825" height="202.67" rx="8.40444" fill="#F8FAFD"/>
<path d="M76.24 148.631L74.0538 142.551H65.6833L63.542 148.631H59.7686L67.9594 126.649H71.8526L80.0434 148.631H76.24ZM73.1104 139.467L71.059 133.507C70.9093 133.108 70.6996 132.479 70.4301 131.62C70.1705 130.762 69.9908 130.133 69.891 129.734C69.6215 130.961 69.2272 132.304 68.7081 133.762L66.7315 139.467H73.1104ZM92.6145 148.631L91.9107 146.325H91.7909C90.9923 147.333 90.1887 148.022 89.3801 148.391C88.5715 148.751 87.5333 148.93 86.2655 148.93C84.6383 148.93 83.3655 148.491 82.4471 147.613C81.5386 146.734 81.0844 145.491 81.0844 143.884C81.0844 142.177 81.7183 140.889 82.9861 140.021C84.2539 139.152 86.1856 138.678 88.7811 138.598L91.6412 138.508V137.625C91.6412 136.567 91.3916 135.778 90.8924 135.259C90.4033 134.73 89.6396 134.465 88.6014 134.465C87.7529 134.465 86.9393 134.59 86.1606 134.84C85.382 135.089 84.6333 135.384 83.9145 135.723L82.7765 133.208C83.6749 132.738 84.6582 132.384 85.7264 132.144C86.7945 131.895 87.8028 131.77 88.7512 131.77C90.8575 131.77 92.4448 132.229 93.5129 133.148C94.591 134.066 95.1301 135.509 95.1301 137.475V148.631H92.6145ZM87.3735 146.235C88.6513 146.235 89.6746 145.881 90.4432 145.172C91.2219 144.453 91.6112 143.45 91.6112 142.162V140.725L89.4849 140.814C87.8278 140.874 86.6198 141.154 85.8612 141.653C85.1125 142.142 84.7381 142.896 84.7381 143.914C84.7381 144.653 84.9577 145.227 85.397 145.636C85.8362 146.035 86.4951 146.235 87.3735 146.235Z" fill="#646E79"/>
<path d="M119.364 149.366L117.551 144.325H110.61L108.834 149.366H105.705L112.497 131.138H115.726L122.518 149.366H119.364ZM116.769 141.767L115.068 136.825C114.944 136.494 114.77 135.972 114.546 135.26C114.331 134.548 114.182 134.027 114.099 133.696C113.876 134.714 113.549 135.827 113.118 137.036L111.479 141.767H116.769ZM132.943 149.366L132.36 147.454H132.26C131.598 148.29 130.932 148.861 130.261 149.168C129.59 149.466 128.729 149.615 127.678 149.615C126.329 149.615 125.273 149.251 124.512 148.522C123.758 147.794 123.382 146.763 123.382 145.43C123.382 144.015 123.907 142.947 124.959 142.226C126.01 141.506 127.612 141.113 129.764 141.047L132.136 140.972V140.24C132.136 139.362 131.929 138.708 131.515 138.278C131.109 137.839 130.476 137.619 129.615 137.619C128.912 137.619 128.237 137.723 127.591 137.93C126.945 138.137 126.325 138.381 125.729 138.663L124.785 136.576C125.53 136.187 126.345 135.893 127.231 135.695C128.117 135.488 128.953 135.384 129.739 135.384C131.486 135.384 132.802 135.765 133.688 136.527C134.582 137.288 135.029 138.485 135.029 140.115V149.366H132.943ZM128.597 147.38C129.657 147.38 130.505 147.086 131.143 146.498C131.788 145.902 132.111 145.07 132.111 144.002V142.81L130.348 142.885C128.974 142.934 127.972 143.166 127.343 143.58C126.722 143.986 126.412 144.611 126.412 145.455C126.412 146.068 126.594 146.544 126.958 146.883C127.322 147.214 127.869 147.38 128.597 147.38Z" fill="#646E79"/>
<path d="M156.959 150.857L155.359 146.409H149.234L147.667 150.857H144.906L150.9 134.773H153.748L159.742 150.857H156.959ZM154.669 144.151L153.168 139.791C153.058 139.499 152.905 139.038 152.707 138.41C152.517 137.782 152.386 137.322 152.313 137.03C152.116 137.928 151.827 138.911 151.447 139.977L150.001 144.151H154.669ZM168.715 150.857L168.2 149.17H168.113C167.528 149.907 166.94 150.411 166.349 150.682C165.757 150.945 164.998 151.076 164.07 151.076C162.879 151.076 161.948 150.755 161.276 150.112C160.611 149.469 160.279 148.56 160.279 147.384C160.279 146.135 160.743 145.192 161.67 144.557C162.598 143.921 164.011 143.574 165.911 143.516L168.003 143.45V142.804C168.003 142.03 167.821 141.452 167.455 141.073C167.098 140.686 166.539 140.492 165.779 140.492C165.158 140.492 164.563 140.583 163.993 140.766C163.423 140.948 162.876 141.164 162.35 141.412L161.517 139.572C162.174 139.228 162.894 138.969 163.675 138.794C164.457 138.611 165.195 138.52 165.889 138.52C167.43 138.52 168.591 138.856 169.373 139.528C170.162 140.2 170.556 141.255 170.556 142.694V150.857H168.715ZM164.881 149.104C165.816 149.104 166.564 148.845 167.127 148.326C167.696 147.8 167.981 147.066 167.981 146.124V145.072L166.426 145.138C165.213 145.181 164.329 145.386 163.774 145.751C163.226 146.109 162.952 146.661 162.952 147.406C162.952 147.946 163.113 148.366 163.434 148.666C163.756 148.958 164.238 149.104 164.881 149.104Z" fill="#646E79"/>
<path d="M190.782 151.347L189.449 147.64H184.345L183.039 151.347H180.738L185.733 137.944H188.107L193.101 151.347H190.782ZM188.874 145.76L187.623 142.126C187.531 141.882 187.404 141.499 187.239 140.975C187.081 140.452 186.971 140.068 186.911 139.825C186.746 140.573 186.506 141.392 186.189 142.281L184.984 145.76H188.874ZM200.579 151.347L200.15 149.941H200.077C199.59 150.556 199.1 150.976 198.607 151.201C198.114 151.42 197.481 151.53 196.708 151.53C195.716 151.53 194.94 151.262 194.38 150.727C193.826 150.191 193.549 149.433 193.549 148.453C193.549 147.412 193.935 146.627 194.708 146.097C195.481 145.568 196.659 145.279 198.242 145.23L199.986 145.175V144.636C199.986 143.991 199.834 143.51 199.529 143.194C199.231 142.871 198.765 142.71 198.132 142.71C197.615 142.71 197.119 142.786 196.644 142.938C196.169 143.09 195.713 143.27 195.274 143.477L194.581 141.943C195.128 141.657 195.728 141.441 196.379 141.295C197.031 141.143 197.645 141.066 198.224 141.066C199.508 141.066 200.476 141.346 201.127 141.906C201.785 142.466 202.113 143.346 202.113 144.545V151.347H200.579ZM197.384 149.887C198.163 149.887 198.787 149.67 199.255 149.238C199.73 148.8 199.968 148.188 199.968 147.403V146.526L198.671 146.581C197.661 146.618 196.924 146.788 196.461 147.093C196.005 147.391 195.777 147.85 195.777 148.471C195.777 148.922 195.911 149.272 196.178 149.521C196.446 149.765 196.848 149.887 197.384 149.887Z" fill="#646E79"/>
<path d="M76.24 193.274L74.0538 187.195H65.6833L63.542 193.274H59.7686L67.9594 171.292H71.8526L80.0434 193.274H76.24ZM73.1104 184.11L71.059 178.151C70.9093 177.751 70.6996 177.122 70.4301 176.264C70.1705 175.405 69.9908 174.776 69.891 174.377C69.6215 175.605 69.2272 176.948 68.7081 178.405L66.7315 184.11H73.1104ZM92.6145 193.274L91.9107 190.968H91.7909C90.9923 191.977 90.1887 192.665 89.3801 193.035C88.5715 193.394 87.5333 193.574 86.2655 193.574C84.6383 193.574 83.3655 193.135 82.4471 192.256C81.5386 191.378 81.0844 190.135 81.0844 188.528C81.0844 186.821 81.7183 185.533 82.9861 184.664C84.2539 183.796 86.1856 183.322 88.7811 183.242L91.6412 183.152V182.268C91.6412 181.21 91.3916 180.422 90.8924 179.903C90.4033 179.373 89.6396 179.109 88.6014 179.109C87.7529 179.109 86.9393 179.234 86.1606 179.483C85.382 179.733 84.6333 180.027 83.9145 180.367L82.7765 177.851C83.6749 177.382 84.6582 177.028 85.7264 176.788C86.7945 176.538 87.8028 176.414 88.7512 176.414C90.8575 176.414 92.4448 176.873 93.5129 177.791C94.591 178.71 95.1301 180.152 95.1301 182.119V193.274H92.6145ZM87.3735 190.879C88.6513 190.879 89.6746 190.524 90.4432 189.815C91.2219 189.097 91.6112 188.093 91.6112 186.806V185.368L89.4849 185.458C87.8278 185.518 86.6198 185.797 85.8612 186.296C85.1125 186.786 84.7381 187.539 84.7381 188.558C84.7381 189.296 84.9577 189.87 85.397 190.28C85.8362 190.679 86.4951 190.879 87.3735 190.879Z" fill="#A9AEB4"/>
<path d="M119.364 194.01L117.551 188.968H110.61L108.834 194.01H105.705L112.497 175.781H115.726L122.518 194.01H119.364ZM116.769 186.41L115.068 181.468C114.944 181.137 114.77 180.616 114.546 179.904C114.331 179.192 114.182 178.67 114.099 178.339C113.876 179.357 113.549 180.471 113.118 181.679L111.479 186.41H116.769ZM132.943 194.01L132.36 192.098H132.26C131.598 192.934 130.932 193.505 130.261 193.811C129.59 194.109 128.729 194.258 127.678 194.258C126.329 194.258 125.273 193.894 124.512 193.166C123.758 192.437 123.382 191.406 123.382 190.074C123.382 188.658 123.907 187.59 124.959 186.87C126.01 186.15 127.612 185.756 129.764 185.69L132.136 185.616V184.883C132.136 184.006 131.929 183.352 131.515 182.921C131.109 182.482 130.476 182.263 129.615 182.263C128.912 182.263 128.237 182.367 127.591 182.573C126.945 182.78 126.325 183.025 125.729 183.306L124.785 181.22C125.53 180.831 126.345 180.537 127.231 180.338C128.117 180.131 128.953 180.028 129.739 180.028C131.486 180.028 132.802 180.409 133.688 181.17C134.582 181.932 135.029 183.128 135.029 184.759V194.01H132.943ZM128.597 192.023C129.657 192.023 130.505 191.729 131.143 191.142C131.788 190.546 132.111 189.714 132.111 188.646V187.454L130.348 187.528C128.974 187.578 127.972 187.81 127.343 188.223C126.722 188.629 126.412 189.254 126.412 190.098C126.412 190.711 126.594 191.187 126.958 191.527C127.322 191.858 127.869 192.023 128.597 192.023Z" fill="#A9AEB4"/>
<path d="M156.959 195.5L155.359 191.052H149.234L147.667 195.5H144.906L150.9 179.416H153.748L159.742 195.5H156.959ZM154.669 188.795L153.168 184.434C153.058 184.142 152.905 183.682 152.707 183.054C152.517 182.426 152.386 181.965 152.313 181.673C152.116 182.572 151.827 183.554 151.447 184.621L150.001 188.795H154.669ZM168.715 195.5L168.2 193.813H168.113C167.528 194.551 166.94 195.055 166.349 195.325C165.757 195.588 164.998 195.72 164.07 195.72C162.879 195.72 161.948 195.398 161.276 194.755C160.611 194.113 160.279 193.203 160.279 192.027C160.279 190.778 160.743 189.836 161.67 189.2C162.598 188.565 164.011 188.218 165.911 188.16L168.003 188.094V187.447C168.003 186.673 167.821 186.096 167.455 185.716C167.098 185.329 166.539 185.136 165.779 185.136C165.158 185.136 164.563 185.227 163.993 185.409C163.423 185.592 162.876 185.808 162.35 186.056L161.517 184.215C162.174 183.872 162.894 183.613 163.675 183.437C164.457 183.255 165.195 183.163 165.889 183.163C167.43 183.163 168.591 183.499 169.373 184.171C170.162 184.843 170.556 185.899 170.556 187.338V195.5H168.715ZM164.881 193.747C165.816 193.747 166.564 193.488 167.127 192.97C167.696 192.444 167.981 191.709 167.981 190.767V189.715L166.426 189.781C165.213 189.825 164.329 190.029 163.774 190.395C163.226 190.753 162.952 191.304 162.952 192.049C162.952 192.59 163.113 193.01 163.434 193.309C163.756 193.601 164.238 193.747 164.881 193.747Z" fill="#A9AEB4"/>
<path d="M190.782 195.991L189.449 192.284H184.345L183.039 195.991H180.738L185.733 182.587H188.107L193.101 195.991H190.782ZM188.874 190.403L187.623 186.769C187.531 186.526 187.404 186.142 187.239 185.619C187.081 185.095 186.971 184.712 186.911 184.468C186.746 185.217 186.506 186.036 186.189 186.924L184.984 190.403H188.874ZM200.579 195.991L200.15 194.585H200.077C199.59 195.2 199.1 195.62 198.607 195.845C198.114 196.064 197.481 196.174 196.708 196.174C195.716 196.174 194.94 195.906 194.38 195.37C193.826 194.834 193.549 194.077 193.549 193.097C193.549 192.056 193.935 191.27 194.708 190.741C195.481 190.211 196.659 189.922 198.242 189.874L199.986 189.819V189.28C199.986 188.635 199.834 188.154 199.529 187.837C199.231 187.515 198.765 187.353 198.132 187.353C197.615 187.353 197.119 187.43 196.644 187.582C196.169 187.734 195.713 187.913 195.274 188.12L194.581 186.587C195.128 186.3 195.728 186.084 196.379 185.938C197.031 185.786 197.645 185.71 198.224 185.71C199.508 185.71 200.476 185.99 201.127 186.55C201.785 187.11 202.113 187.99 202.113 189.189V195.991H200.579ZM197.384 194.53C198.163 194.53 198.787 194.314 199.255 193.882C199.73 193.444 199.968 192.832 199.968 192.047V191.17L198.671 191.225C197.661 191.261 196.924 191.432 196.461 191.736C196.005 192.034 195.777 192.494 195.777 193.115C195.777 193.565 195.911 193.915 196.178 194.165C196.446 194.408 196.848 194.53 197.384 194.53Z" fill="#A9AEB4"/>
<path d="M76.24 237.918L74.0538 231.838H65.6833L63.542 237.918H59.7686L67.9594 215.936H71.8526L80.0434 237.918H76.24ZM73.1104 228.754L71.059 222.794C70.9093 222.395 70.6996 221.766 70.4301 220.907C70.1705 220.049 69.9908 219.42 69.891 219.021C69.6215 220.249 69.2272 221.591 68.7081 223.049L66.7315 228.754H73.1104ZM92.6145 237.918L91.9107 235.612H91.7909C90.9923 236.62 90.1887 237.309 89.3801 237.678C88.5715 238.038 87.5333 238.217 86.2655 238.217C84.6383 238.217 83.3655 237.778 82.4471 236.9C81.5386 236.021 81.0844 234.778 81.0844 233.171C81.0844 231.464 81.7183 230.176 82.9861 229.308C84.2539 228.439 86.1856 227.965 88.7811 227.885L91.6412 227.796V226.912C91.6412 225.854 91.3916 225.065 90.8924 224.546C90.4033 224.017 89.6396 223.753 88.6014 223.753C87.7529 223.753 86.9393 223.877 86.1606 224.127C85.382 224.376 84.6333 224.671 83.9145 225.01L82.7765 222.495C83.6749 222.025 84.6582 221.671 85.7264 221.432C86.7945 221.182 87.8028 221.057 88.7512 221.057C90.8575 221.057 92.4448 221.516 93.5129 222.435C94.591 223.353 95.1301 224.796 95.1301 226.762V237.918H92.6145ZM87.3735 235.522C88.6513 235.522 89.6746 235.168 90.4432 234.459C91.2219 233.74 91.6112 232.737 91.6112 231.449V230.012L89.4849 230.102C87.8278 230.161 86.6198 230.441 85.8612 230.94C85.1125 231.429 84.7381 232.183 84.7381 233.201C84.7381 233.94 84.9577 234.514 85.397 234.923C85.8362 235.322 86.4951 235.522 87.3735 235.522Z" fill="#D6D9DC"/>
<path d="M119.364 238.654L117.551 233.612H110.61L108.834 238.654H105.705L112.497 220.425H115.726L122.518 238.654H119.364ZM116.769 231.054L115.068 226.112C114.944 225.781 114.77 225.259 114.546 224.547C114.331 223.835 114.182 223.314 114.099 222.983C113.876 224.001 113.549 225.114 113.118 226.323L111.479 231.054H116.769ZM132.943 238.654L132.36 236.741H132.26C131.598 237.577 130.932 238.149 130.261 238.455C129.59 238.753 128.729 238.902 127.678 238.902C126.329 238.902 125.273 238.538 124.512 237.809C123.758 237.081 123.382 236.05 123.382 234.717C123.382 233.302 123.907 232.234 124.959 231.513C126.01 230.793 127.612 230.4 129.764 230.334L132.136 230.259V229.527C132.136 228.649 131.929 227.995 131.515 227.565C131.109 227.126 130.476 226.907 129.615 226.907C128.912 226.907 128.237 227.01 127.591 227.217C126.945 227.424 126.325 227.668 125.729 227.95L124.785 225.864C125.53 225.474 126.345 225.181 127.231 224.982C128.117 224.775 128.953 224.671 129.739 224.671C131.486 224.671 132.802 225.052 133.688 225.814C134.582 226.575 135.029 227.772 135.029 229.403V238.654H132.943ZM128.597 236.667C129.657 236.667 130.505 236.373 131.143 235.785C131.788 235.189 132.111 234.357 132.111 233.289V232.097L130.348 232.172C128.974 232.221 127.972 232.453 127.343 232.867C126.722 233.273 126.412 233.898 126.412 234.742C126.412 235.355 126.594 235.831 126.958 236.17C127.322 236.501 127.869 236.667 128.597 236.667Z" fill="#D6D9DC"/>
<path d="M156.959 240.144L155.359 235.696H149.234L147.667 240.144H144.906L150.9 224.06H153.748L159.742 240.144H156.959ZM154.669 233.439L153.168 229.078C153.058 228.786 152.905 228.325 152.707 227.697C152.517 227.069 152.386 226.609 152.313 226.317C152.116 227.215 151.827 228.198 151.447 229.264L150.001 233.439H154.669ZM168.715 240.144L168.2 238.457H168.113C167.528 239.194 166.94 239.698 166.349 239.969C165.757 240.232 164.998 240.363 164.07 240.363C162.879 240.363 161.948 240.042 161.276 239.399C160.611 238.756 160.279 237.847 160.279 236.671C160.279 235.422 160.743 234.479 161.67 233.844C162.598 233.208 164.011 232.862 165.911 232.803L168.003 232.737V232.091C168.003 231.317 167.821 230.74 167.455 230.36C167.098 229.973 166.539 229.779 165.779 229.779C165.158 229.779 164.563 229.87 163.993 230.053C163.423 230.236 162.876 230.451 162.35 230.699L161.517 228.859C162.174 228.515 162.894 228.256 163.675 228.081C164.457 227.898 165.195 227.807 165.889 227.807C167.43 227.807 168.591 228.143 169.373 228.815C170.162 229.487 170.556 230.542 170.556 231.981V240.144H168.715ZM164.881 238.391C165.816 238.391 166.564 238.132 167.127 237.613C167.696 237.087 167.981 236.353 167.981 235.411V234.359L166.426 234.425C165.213 234.469 164.329 234.673 163.774 235.038C163.226 235.396 162.952 235.948 162.952 236.693C162.952 237.233 163.113 237.653 163.434 237.953C163.756 238.245 164.238 238.391 164.881 238.391Z" fill="#D6D9DC"/>
<path d="M190.782 240.635L189.449 236.928H184.345L183.039 240.635H180.738L185.733 227.231H188.107L193.101 240.635H190.782ZM188.874 235.047L187.623 231.413C187.531 231.169 187.404 230.786 187.239 230.262C187.081 229.739 186.971 229.355 186.911 229.112C186.746 229.86 186.506 230.679 186.189 231.568L184.984 235.047H188.874ZM200.579 240.635L200.15 239.228H200.077C199.59 239.843 199.1 240.263 198.607 240.488C198.114 240.708 197.481 240.817 196.708 240.817C195.716 240.817 194.94 240.549 194.38 240.014C193.826 239.478 193.549 238.72 193.549 237.74C193.549 236.699 193.935 235.914 194.708 235.384C195.481 234.855 196.659 234.566 198.242 234.517L199.986 234.462V233.924C199.986 233.278 199.834 232.797 199.529 232.481C199.231 232.158 198.765 231.997 198.132 231.997C197.615 231.997 197.119 232.073 196.644 232.225C196.169 232.377 195.713 232.557 195.274 232.764L194.581 231.23C195.128 230.944 195.728 230.728 196.379 230.582C197.031 230.43 197.645 230.354 198.224 230.354C199.508 230.354 200.476 230.634 201.127 231.194C201.785 231.754 202.113 232.633 202.113 233.832V240.635H200.579ZM197.384 239.174C198.163 239.174 198.787 238.958 199.255 238.525C199.73 238.087 199.968 237.475 199.968 236.69V235.814L198.671 235.868C197.661 235.905 196.924 236.075 196.461 236.38C196.005 236.678 195.777 237.138 195.777 237.758C195.777 238.209 195.911 238.559 196.178 238.808C196.446 239.052 196.848 239.174 197.384 239.174Z" fill="#D6D9DC"/>
<rect x="132.041" y="193.622" width="341.105" height="271.757" rx="19.1139" fill="#F4F7FC"/>
<circle cx="203.35" cy="264.931" r="20.3387" fill="#F6B4BD"/>
<circle cx="203.35" cy="329.5" r="20.3387" fill="#FAD5DA"/>
<circle cx="203.35" cy="394.07" r="20.3387" fill="#FCEBEE"/>
<circle cx="269.512" cy="264.931" r="20.3387" fill="#7BC9A5"/>
<circle cx="269.512" cy="329.5" r="20.3387" fill="#A2D9C0"/>
<circle cx="269.512" cy="394.07" r="20.3387" fill="#DCF1E8"/>
<circle cx="335.675" cy="264.931" r="20.3387" fill="#6EBFE9"/>
<circle cx="335.675" cy="329.5" r="20.3387" fill="#B9E0F5"/>
<circle cx="335.675" cy="394.07" r="20.3387" fill="#DEF0FA"/>
<circle cx="401.838" cy="264.931" r="20.3387" fill="#646E79"/>
<circle cx="401.838" cy="329.5" r="20.3387" fill="#A9AEB4"/>
<circle cx="401.838" cy="394.07" r="20.3387" fill="#D6D9DC"/>
<g clip-path="url(#clip0)">
<path d="M212.425 165.496C212.425 165.595 210.849 165.097 208.294 164.749C206.801 164.55 205.291 164.483 203.782 164.5C201.924 164.55 200.099 164.766 198.274 165.147C196.465 165.562 194.707 166.109 192.998 166.823C191.604 167.42 190.26 168.117 188.983 168.93C186.793 170.29 185.582 171.385 185.532 171.302C185.466 171.219 185.781 170.987 186.329 170.489C186.611 170.24 186.942 169.942 187.374 169.643C187.822 169.344 188.253 168.946 188.817 168.581C190.095 167.719 191.438 166.972 192.849 166.358C194.574 165.612 196.382 165.048 198.207 164.633C200.049 164.251 201.924 164.036 203.815 164.002C205.358 163.986 206.884 164.118 208.394 164.367C208.974 164.45 209.555 164.583 210.119 164.732C210.551 164.832 210.982 164.948 211.397 165.097C211.762 165.197 212.11 165.33 212.425 165.496Z" fill="#FAFAFA"/>
<path d="M345.998 137.011L316.616 127.24C296.243 119.973 284.878 121.848 265.418 131.254C264.157 131.868 261.984 132.814 259.91 133.726L225.568 148.89L201.014 159.608C184.457 166.824 175.796 183.299 175 201.316L255.912 201.382L362.489 201.332L381.003 168.649C376.491 145.887 353.546 140.578 345.998 137.011Z" fill="#F18F92"/>
<path d="M367.616 147.713L434.641 209.247C437.428 211.802 439.635 214.937 441.111 218.421C442.588 221.905 443.301 225.655 443.218 229.437C443.135 233.22 442.223 236.936 440.58 240.337C438.938 243.738 436.582 246.758 433.679 249.18L398.706 278.313L374.053 264.36L402.92 227.015L362.473 201.35L367.616 147.713Z" fill="#F18F92"/>
<path d="M279.653 200.918C279.637 200.819 279.637 200.719 279.653 200.62C279.653 200.404 279.653 200.122 279.57 199.773C279.57 198.977 279.454 197.882 279.371 196.489C279.222 193.585 278.99 189.471 278.724 184.411L278.89 184.593C267.144 181.972 255.564 178.704 244.183 174.821C237.281 172.532 230.894 169.811 224.888 168.053C222.051 167.19 219.131 166.609 216.195 166.294C213.623 166.028 211.035 166.095 208.48 166.493C204.764 167.024 201.247 168.484 198.244 170.707C197.448 171.337 196.701 172.018 196.004 172.764L195.474 173.361C195.341 173.494 195.274 173.561 195.274 173.544C196.071 172.399 197.016 171.387 198.111 170.541C201.114 168.202 204.665 166.675 208.414 166.095C211.002 165.663 213.623 165.564 216.228 165.813C219.214 166.111 222.151 166.692 225.021 167.538C231.093 169.28 237.48 171.984 244.366 174.274C257.605 178.787 269.898 182.055 278.99 184.162H279.139V184.377C279.338 189.454 279.504 193.569 279.62 196.472C279.62 197.866 279.687 198.977 279.72 199.757V200.603C279.687 200.736 279.67 200.835 279.653 200.918Z" fill="#263238"/>
<path d="M265.435 181.043C265.286 181.043 265.336 175.916 265.568 169.595C265.8 163.274 266.099 158.148 266.248 158.148C266.398 158.148 266.348 163.291 266.116 169.595C265.9 175.933 265.585 181.059 265.435 181.043Z" fill="#263238"/>
<path d="M421.351 230.798C421.284 230.864 420.505 230.051 419.028 229.023C418.165 228.442 417.236 227.928 416.291 227.496C415.113 226.982 413.902 226.6 412.641 226.318C411.38 226.07 410.102 225.937 408.825 225.937C407.763 225.953 406.701 226.053 405.656 226.252C403.898 226.6 402.852 227.048 402.819 226.949C402.786 226.849 403.051 226.783 403.516 226.567C404.18 226.269 404.86 226.036 405.573 225.87C406.602 225.622 407.664 225.472 408.742 225.423C410.069 225.389 411.38 225.505 412.69 225.771C413.985 226.053 415.229 226.468 416.44 227.032C417.419 227.496 418.348 228.044 419.194 228.691C419.775 229.122 420.322 229.62 420.803 230.151C421.201 230.566 421.384 230.798 421.351 230.798Z" fill="#263238"/>
<path d="M394.325 275.838C394.325 275.838 378.514 300.093 374.865 300.441C373.952 300.541 373.04 301.271 370.767 301.702C370.286 301.785 368.411 301.254 367.88 301.321C359.452 302.366 347.059 303.593 346.794 301.055C346.362 297.173 350.394 296.941 353.911 296.343C356.134 295.929 358.341 295.414 360.514 294.767C361.227 294.568 361.858 294.154 362.322 293.589C362.803 293.025 363.102 292.345 363.185 291.599C363.683 287.916 364.595 281.113 364.894 279.488C365.308 277.264 375.744 268.571 375.744 268.571L394.325 275.838Z" fill="#FFB092"/>
<path d="M349.648 293.409L384.222 284.815C384.902 284.649 385.616 284.732 386.229 285.097C386.843 285.445 387.291 286.026 387.474 286.706C387.573 287.055 387.606 287.403 387.557 287.768C387.507 288.116 387.407 288.465 387.225 288.78C387.042 289.095 386.81 289.361 386.528 289.576C386.246 289.792 385.914 289.941 385.566 290.041L351.174 298.9C350.693 299.033 350.195 298.967 349.764 298.718C349.332 298.485 349.017 298.087 348.868 297.606L348.32 295.881C348.237 295.632 348.204 295.366 348.237 295.118C348.254 294.852 348.337 294.603 348.47 294.371C348.602 294.139 348.768 293.94 348.967 293.774C349.15 293.591 349.399 293.475 349.648 293.409Z" fill="#263238"/>
<path d="M369.723 288.412C369.723 288.412 360.797 291.581 353.912 294.518C353.016 294.916 352.037 295.115 351.058 295.082C350.577 295.082 350.096 294.949 349.665 294.717C349.233 294.468 348.902 294.119 348.653 293.688C348.055 292.46 349.615 291.896 350.677 291.05C351.739 290.187 353.348 289.01 354.708 287.948C356.201 286.853 357.263 285.277 357.711 283.485C359.636 275.671 367.881 266.745 375.695 268.636L377.636 266.43L394.293 275.853" fill="#FFB092"/>
<path d="M344.571 293.59L338.881 299.064L339.014 299.512L344.356 297.887C344.339 297.754 344.372 297.604 344.455 297.488C344.538 297.372 344.654 297.273 344.787 297.239C344.936 297.19 345.119 297.206 345.268 297.289C345.418 297.372 345.517 297.505 345.567 297.654C345.617 297.82 345.6 297.986 345.517 298.135C345.434 298.285 345.301 298.384 345.152 298.434C345.019 298.467 344.87 298.467 344.737 298.417C344.605 298.368 344.505 298.268 344.439 298.135L339.097 299.761L339.229 300.209L347.193 301.619C347.01 300.906 347.093 300.143 347.408 299.479C347.724 298.816 348.271 298.285 348.951 297.969L348.205 295.464C345.7 296.178 344.571 293.59 344.571 293.59Z" fill="#F18F92"/>
<path d="M279.123 186.053C279.123 186.053 316.302 185.92 321.213 201.332L279.82 201.465L279.123 186.053Z" fill="#FFB092"/>
<path d="M357.907 102.887C358.006 108.047 362.253 112.145 367.413 112.045C372.572 111.946 376.67 107.698 376.571 102.539C376.471 97.3792 372.224 93.2814 367.064 93.3809C361.921 93.4805 357.824 97.7276 357.907 102.887Z" fill="#FF8E6B"/>
<path d="M349.199 121.086L345.93 136.084C344.089 144.512 335.744 149.837 327.332 147.929C318.573 145.955 313.314 136.979 315.868 128.369L326.055 94.0269L349.199 121.086Z" fill="#FFB092"/>
<path d="M370.266 65.292C371.693 67.5317 374.944 75.7274 374.745 78.3653C374.082 87.208 371.925 108.792 366.185 117.32C358.885 128.186 347.139 133.014 332.407 125.565C332.407 125.565 318.471 121.086 317.641 91.5049C316.397 46.4453 355.783 42.447 370.266 65.292Z" fill="#FFB092"/>
<path d="M363.465 98.2705C363.481 99.4484 364.444 100.394 365.622 100.394C366.8 100.378 367.745 99.4153 367.745 98.2373C367.729 97.0594 366.766 96.1138 365.588 96.1138C364.411 96.1304 363.465 97.0926 363.465 98.2705Z" fill="#101010"/>
<path d="M345.033 94.0064C345.05 95.1843 346.012 96.1299 347.19 96.1299C348.368 96.1134 349.314 95.1511 349.314 93.9732C349.297 92.7953 348.335 91.8496 347.157 91.8496C345.979 91.8662 345.033 92.8284 345.033 94.0064Z" fill="#101010"/>
<path d="M357.774 92.5315L358.653 102.867C358.819 104.775 357.326 106.418 355.418 106.451" stroke="#FF8E6B" stroke-width="1.24573" stroke-miterlimit="10" stroke-linecap="round" stroke-linejoin="round"/>
<path d="M357.045 110.416L343.325 107.313C343.325 107.313 342.147 112.324 348.783 113.834C355.419 115.36 357.045 110.416 357.045 110.416Z" fill="white"/>
<path d="M364.063 85.9602C364.063 85.9602 367.713 86.0432 371.878 89.9087" stroke="#1B2D3F" stroke-width="3.60932" stroke-miterlimit="10" stroke-linecap="round"/>
<path d="M352.248 83.705C352.248 83.705 343.721 80.2376 338.213 83.4728" stroke="#1B2D3F" stroke-width="3.60932" stroke-miterlimit="10" stroke-linecap="round"/>
<path d="M374.629 76.9561C374.629 76.9561 372.953 72.9412 370.282 73.7209C365.72 75.0648 358.238 76.1763 342.278 67.5991C342.278 67.5991 334.712 62.9869 333.02 69.0258C331.328 75.0648 329.47 94.6747 329.47 94.6747L323.348 94.3428L316.463 81.2032L318.321 59.055C318.819 53.1156 323.63 48.4869 329.569 48.1551C339.59 47.6076 354.438 48.1219 371.261 55.3719C375.84 57.3462 378.212 62.821 376.52 67.5327L374.629 76.9561Z" fill="#1B2D3F"/>
<path d="M306.228 91.82C306.328 97.5769 311.089 102.156 316.846 102.04C322.603 101.94 327.182 97.1787 327.066 91.4218C326.966 85.6649 322.205 81.086 316.448 81.2021C310.708 81.3017 306.129 86.0631 306.228 91.82Z" fill="#FFB092"/>
<path d="M312.962 87.4065C312.962 87.4065 320.909 87.3733 320.577 96.0169" stroke="#FF8E6B" stroke-width="1.24573" stroke-miterlimit="10" stroke-linecap="round" stroke-linejoin="round"/>
</g>
<defs>
<clipPath id="clip0">
<rect width="268.218" height="254.547" fill="white" transform="translate(175 48.0005)"/>
</clipPath>
</defs>
</svg>
