<svg width="525" height="521" viewBox="0 0 525 521" fill="none" xmlns="http://www.w3.org/2000/svg">
<rect x="191.337" width="299.783" height="420" rx="10" fill="#FCFDFE"/>
<circle cx="206.337" cy="15" r="5" fill="#F5B0B2"/>
<circle cx="221.337" cy="15" r="5" fill="#FEE182"/>
<circle cx="236.337" cy="15" r="5" fill="#A2D9C0"/>
<path d="M476.12 30H206.337C203.575 30 201.337 32.2386 201.337 35V225C201.337 227.761 203.575 230 206.337 230H476.12C478.881 230 481.12 227.761 481.12 225V35C481.12 32.2386 478.881 30 476.12 30Z" fill="#ECF1FA"/>
<path d="M476.12 240H206.337C203.575 240 201.337 242.239 201.337 245V335C201.337 337.761 203.575 340 206.337 340H476.12C478.881 340 481.12 337.761 481.12 335V245C481.12 242.239 478.881 240 476.12 240Z" fill="#F8FAFD"/>
<rect x="201.337" y="350" width="75" height="8" rx="4" fill="#E8EEF9"/>
<rect x="201.337" y="368" width="134.891" height="4" rx="2" fill="#E8EEF9"/>
<rect x="201.337" y="382" width="134.891" height="4" rx="2" fill="#E8EEF9"/>
<rect x="201.337" y="396" width="80" height="4" rx="2" fill="#E8EEF9"/>
<rect x="346.229" y="350" width="75" height="8" rx="4" fill="#E8EEF9"/>
<rect x="346.229" y="368" width="134.891" height="4" rx="2" fill="#E8EEF9"/>
<rect x="346.229" y="382" width="134.891" height="4" rx="2" fill="#E8EEF9"/>
<path d="M120.93 477.838L123.125 505.736C123.125 505.736 150.646 514.575 150.799 519.736L96.9324 520.451L95.3496 477.787L120.93 477.838Z" fill="#3C4858"/>
<path d="M96.9326 520.451L97.0347 516.108L148.042 516.415C148.042 516.415 150.953 518.152 150.901 519.838L96.9326 520.451Z" fill="#1F2D3D"/>
<path d="M123.993 493.473C123.993 493.575 122.972 493.728 121.287 493.37C120.47 493.217 119.5 492.911 118.479 492.4C117.968 492.144 117.457 491.889 116.947 491.531C116.692 491.378 116.436 491.173 116.13 490.867C115.824 490.56 115.721 489.896 116.028 489.436C116.334 489.027 116.794 488.874 117.202 488.874C117.611 488.874 117.917 488.976 118.223 489.027C118.836 489.181 119.398 489.385 119.908 489.64C120.929 490.151 121.746 490.765 122.359 491.327C123.584 492.502 123.993 493.524 123.891 493.575C123.789 493.677 123.176 492.808 121.951 491.838C121.338 491.327 120.521 490.816 119.602 490.407C119.142 490.203 118.632 489.998 118.07 489.896C117.508 489.743 116.998 489.692 116.845 489.947C116.794 490.049 116.794 490.1 116.896 490.254C116.998 490.407 117.253 490.56 117.457 490.713C117.917 491.02 118.376 491.327 118.836 491.582C119.755 492.093 120.674 492.4 121.44 492.655C122.972 493.217 123.993 493.319 123.993 493.473Z" fill="#1A1A1A"/>
<path d="M54.4222 493.524L53.1458 497.918C51.614 503.334 51.4608 509.057 52.7373 514.575L53.5542 518.203L15.5156 517.948L20.162 510.692C22.4596 507.115 24.0935 503.079 24.8593 498.889L27.2591 486.217L54.4222 493.524Z" fill="#3C4858"/>
<path d="M15.4648 517.999L54.1672 518.255L53.146 519.226C52.227 520.043 51.1037 520.554 49.8783 520.554C46.6106 520.656 37.6753 520.81 18.222 519.685C17.0477 519.583 16.0265 518.97 15.4648 517.999Z" fill="#1F2D3D"/>
<path d="M121.287 275.652C121.644 275.652 131.907 501.392 131.907 501.392L88.7116 500.268L78.6531 314.792L59.3235 502.21L17.2002 491.889L37.0914 273.864L76.5597 266.2L121.287 275.652Z" fill="#1F2D3D"/>
<path d="M159.428 171.418L219.779 165.695L229.327 163.396C229.327 163.396 251.18 159.513 253.223 158.848C255.571 158.082 256.541 159.053 256.746 159.972C257.103 161.352 255.724 162.834 253.682 163.549C252.967 163.805 241.837 167.177 241.837 167.177C241.837 167.177 242.909 167.381 245.513 168.403C248.117 169.374 250.517 172.9 251.589 176.885C252.712 180.871 252.661 182.097 251.129 182.608C250.517 182.812 249.904 182.608 249.393 182.301C248.525 181.79 247.964 180.922 247.657 179.951C245.819 173.564 241.888 172.9 241.888 172.9L240.662 173.206C240.662 173.206 244.594 176.221 244.389 179.644C244.338 180.206 244.236 180.666 244.032 181.126C244.543 182.812 244.134 184.754 242.96 186.082C241.734 187.462 239.743 188.126 237.956 187.717C237.088 187.513 236.169 187.002 236.067 186.133C236.016 185.674 236.22 185.214 236.373 184.805C236.475 184.601 236.578 184.345 236.629 184.09L233.003 184.447C233.003 184.447 224.834 184.805 221.311 185.367L164.381 200.082C156.467 202.126 148.45 197.323 146.561 189.352C144.57 180.717 150.595 172.235 159.428 171.418Z" fill="#FFBF9D"/>
<path d="M221.106 167.279C221.158 168.557 222.383 169.476 223.608 169.783C224.834 170.09 226.11 169.987 227.387 170.192C231.114 170.856 233.871 174.382 237.649 174.841C238.16 174.893 238.824 174.841 239.028 174.33C239.181 173.871 238.824 173.411 238.466 173.053C235.454 170.192 232.441 167.279 229.429 164.418" fill="#FFBF9D"/>
<path d="M229.377 164.418C229.429 164.367 229.786 164.674 230.45 165.236C231.113 165.798 232.033 166.666 233.207 167.688C234.381 168.812 235.76 170.039 237.24 171.418C237.598 171.776 238.006 172.134 238.415 172.491C238.772 172.849 239.385 173.207 239.436 174.075C239.436 174.484 239.13 174.944 238.772 175.046C238.415 175.199 238.108 175.199 237.751 175.148C237.138 175.046 236.526 174.944 235.964 174.739C233.615 173.871 231.879 172.389 230.092 171.469C229.224 171.009 228.305 170.652 227.437 170.498C226.569 170.345 225.701 170.345 224.935 170.243C223.353 170.141 222.076 169.425 221.566 168.608C221.055 167.842 221.157 167.279 221.208 167.279C221.259 167.279 221.259 167.79 221.77 168.455C222.28 169.119 223.404 169.681 224.935 169.732C225.701 169.783 226.569 169.783 227.488 169.936C228.407 170.09 229.377 170.447 230.348 170.907C232.237 171.827 234.024 173.309 236.168 174.126C236.679 174.331 237.24 174.433 237.802 174.535C238.313 174.586 238.772 174.433 238.721 174.126C238.721 173.82 238.313 173.411 237.904 173.053C237.496 172.696 237.138 172.287 236.781 171.929C235.351 170.498 234.024 169.221 232.901 168.097C231.777 166.973 230.909 166.104 230.297 165.44C229.633 164.827 229.326 164.418 229.377 164.418Z" fill="#FF9A6C"/>
<path d="M240.56 173.053C240.56 173.156 241.479 172.696 242.908 173.104C243.623 173.309 244.338 173.82 244.9 174.586C245.461 175.353 245.921 176.375 246.278 177.448C246.636 178.521 246.993 179.594 247.504 180.513C248.014 181.382 248.678 182.097 249.393 182.506C250.108 182.915 250.822 182.813 251.231 182.608C251.639 182.404 251.792 182.199 251.792 182.199C251.792 182.148 251.588 182.302 251.18 182.455C250.822 182.557 250.159 182.608 249.546 182.199C248.933 181.842 248.32 181.126 247.861 180.309C247.401 179.44 247.044 178.418 246.687 177.345C246.329 176.221 245.87 175.199 245.206 174.382C244.593 173.564 243.725 173.002 242.959 172.849C242.193 172.645 241.53 172.747 241.121 172.849C240.764 172.9 240.56 173.053 240.56 173.053Z" fill="#FF9A6C"/>
<path d="M254.448 163.243C254.448 163.192 253.58 163.447 252.252 163.907C250.72 164.418 248.933 164.98 246.942 165.644C244.951 166.257 243.113 166.819 241.632 167.279C240.253 167.688 239.437 167.944 239.437 167.995C239.437 168.046 240.305 167.892 241.734 167.586C243.113 167.279 245.053 166.717 247.095 166.053C249.189 165.389 251.027 164.725 252.354 164.214C253.682 163.703 254.499 163.294 254.448 163.243Z" fill="#FF9A6C"/>
<path d="M238.824 176.374C238.824 176.374 238.977 176.579 239.284 176.936C239.539 177.294 239.998 177.856 239.896 178.622C239.845 178.98 239.59 179.287 239.13 179.491C238.722 179.695 238.211 179.746 237.65 179.849C237.088 179.951 236.424 180.104 236.016 180.666C235.607 181.228 235.454 181.944 235.658 182.608C235.863 183.323 236.373 183.834 236.935 184.09C237.497 184.396 238.109 184.498 238.722 184.447C239.845 184.243 240.764 183.885 241.53 183.528C242.296 183.17 242.858 182.761 243.164 182.403C243.47 182.046 243.573 181.79 243.573 181.79C243.521 181.79 243.419 181.995 243.062 182.301C242.705 182.608 242.143 182.965 241.377 183.272C240.611 183.579 239.692 183.936 238.62 184.09C237.65 184.192 236.322 183.63 236.016 182.557C235.863 181.995 235.965 181.381 236.271 181.024C236.577 180.615 237.139 180.462 237.65 180.36C238.16 180.257 238.722 180.206 239.181 179.951C239.641 179.746 240.049 179.287 240.101 178.776C240.203 177.805 239.59 177.243 239.284 176.936C239.079 176.476 238.875 176.323 238.824 176.374Z" fill="#FF9A6C"/>
<path d="M237.241 183.783C237.241 183.783 236.986 183.783 236.628 184.039C236.271 184.294 235.862 184.856 235.914 185.674C235.914 186.492 236.475 187.411 237.445 187.871C238.364 188.331 239.59 188.382 240.713 188.024C241.836 187.667 242.755 186.951 243.368 186.134C243.981 185.316 244.236 184.397 244.338 183.681C244.44 182.915 244.338 182.302 244.236 181.893C244.134 181.484 244.032 181.28 243.981 181.28C243.879 181.28 244.287 182.2 244.032 183.63C243.93 184.346 243.623 185.163 243.062 185.878C242.5 186.594 241.632 187.258 240.611 187.565C239.59 187.871 238.518 187.871 237.701 187.462C236.884 187.054 236.373 186.287 236.322 185.623C236.271 184.959 236.577 184.397 236.833 184.141C237.037 183.886 237.292 183.835 237.241 183.783Z" fill="#FF9A6C"/>
<path d="M227.439 178.47C227.49 178.47 227.439 178.061 227.081 177.397C226.724 176.784 226.06 175.966 224.988 175.506V175.915C225.447 175.711 225.907 175.506 226.366 175.2C229.021 173.667 230.4 171.521 230.298 171.47C230.196 171.368 228.715 173.309 226.162 174.791C225.703 175.046 225.243 175.302 224.835 175.506L224.375 175.711L224.835 175.915C225.805 176.324 226.519 176.988 226.877 177.55C227.285 178.112 227.387 178.47 227.439 178.47Z" fill="#FF9A6C"/>
<path d="M246.432 172.798C246.33 172.696 245.666 173.411 245.564 174.484C245.461 175.608 245.921 176.374 246.023 176.323C246.126 176.272 245.87 175.506 246.023 174.535C246.126 173.564 246.534 172.849 246.432 172.798Z" fill="#FF9A6C"/>
<path d="M80.1347 137.337L86.1596 138.666L119.348 148.272L163.207 168.761L192.872 166.513L200.582 192.469L158.356 200.951L119.705 191.345L121.186 278.105L34.7947 279.229L32.446 209.075L24.583 154.659L38.1646 143.622C45.1596 137.95 54.0948 135.191 63.0811 135.906L80.1347 137.337Z" fill="#FEDB6B"/>
<path d="M32.2408 148.374C32.2408 148.374 18.1487 158.337 17.4338 163.702C16.8722 167.841 5.84356 208.718 0.94194 226.141C-0.589817 231.557 -0.232407 237.382 1.86099 242.594L21.9597 280L38.9474 269L27.3903 231.251L36.8361 203.455L32.2408 148.374Z" fill="#FEDB6B"/>
<path d="M37.5491 269.802L40.754 276.195C40.754 276.195 46.842 276.807 49.4088 277.993C51.9756 279.178 61.1912 286.821 61.1912 286.821C60.8857 287.439 60.3805 287.971 59.7806 288.265C59.1331 288.578 58.4385 288.633 57.7633 288.461C55.7197 287.343 53.7999 286.121 51.9185 284.718C51.4046 284.812 50.9475 285.049 50.5759 285.362C50.2043 285.675 49.8706 286.084 49.67 286.55C49.4695 287.016 49.402 287.539 49.4297 288.025C49.4763 288.558 49.6658 289.034 49.9315 289.425C51.7727 292.113 53.9461 295.22 54.1166 295.648C54.2871 296.077 58.3753 297.761 61.4274 298.919C61.8267 299.091 62.1497 299.349 62.4154 299.739C62.6812 300.13 62.7375 300.549 62.7274 300.939C62.6885 301.396 62.5642 301.776 62.2592 302.118C62.0017 302.441 61.6112 302.707 61.2114 302.811C61.0021 302.839 60.8403 302.848 60.6407 302.762C60.6407 302.762 62.1292 305.811 56.8407 304.991C56.8407 304.991 53.3638 307.477 50.6833 306.006C50.6833 306.006 45.7054 307.214 43.5088 306.543C41.2932 305.825 31.8864 293.128 31.8864 293.128L23.6716 278.853L37.5491 269.802Z" fill="#F8B498"/>
<path d="M46.2558 292.814C46.5014 293.71 46.8423 294.567 47.3259 295.368C48.3018 297.407 49.7348 299.209 51.5491 300.583C53.4683 301.805 55.6644 302.475 57.9092 302.575C58.7936 302.719 59.7353 302.731 60.6678 302.58C59.7931 302.321 58.8898 302.129 57.9957 302.099C55.8559 301.847 53.8025 301.12 51.9877 300.022C50.24 298.676 48.8638 297.017 47.7829 295.131C47.3756 294.244 46.8633 293.51 46.2558 292.814Z" fill="#FF9574"/>
<path d="M43.7014 295.817C43.7664 296.674 44.0883 297.483 44.553 298.236C44.989 299.056 45.5202 299.837 46.0325 300.571C46.6871 301.525 47.5607 302.335 48.5203 302.946C49.5372 303.424 50.5828 303.836 51.7144 304.047L54.3292 304.661C55.1373 304.891 55.9741 305.055 56.7541 305.075C56.7638 304.961 55.9178 304.636 54.4633 304.167C53.7504 303.899 52.8757 303.64 51.8869 303.372C50.8505 303.122 49.8239 302.759 48.8069 302.281C47.9139 301.698 47.1446 301.011 46.4804 300.172C45.9205 299.457 45.3606 298.742 44.8959 297.99C44.1564 296.684 43.7966 295.779 43.7014 295.817Z" fill="#FF9574"/>
<path d="M41.0411 299.525C40.7745 299.686 42.4633 301.993 44.6558 304.596C44.969 304.968 45.3395 305.206 45.7863 305.36C46.1379 305.551 46.5182 305.675 46.8795 305.752C47.507 305.944 48.1631 306.069 48.8003 306.146C49.9416 306.243 50.6648 306.121 50.6269 306.026C50.5891 305.93 49.9708 305.901 48.8679 305.623C48.2594 305.479 47.6319 305.287 47.052 305.076C46.6718 304.952 46.3391 304.809 46.0064 304.665C45.6738 304.522 45.3698 304.312 45.1134 304.083C44.0315 302.748 42.9777 301.623 42.1993 300.774C41.9337 300.383 41.535 299.935 41.0411 299.525Z" fill="#FF9574"/>
<path d="M83.964 108.519C85.2405 113.015 89.8868 115.621 94.38 114.344C98.8731 113.066 101.477 108.416 100.201 103.92C98.9242 99.4236 94.2779 96.8177 89.7847 98.0951C85.2916 99.3725 82.6876 104.022 83.964 108.519Z" fill="#FF9574"/>
<path d="M80.5434 126.454L81.1561 140.301C81.5135 148.118 75.4376 154.658 67.6256 154.965C59.5073 155.272 52.8697 148.629 53.0739 140.505L54.044 108.11L80.5434 126.454Z" fill="#F8B498"/>
<path d="M86.058 72.8031C87.794 74.4382 92.5424 80.8251 93.002 83.1755C94.4827 91.0442 97.5462 110.409 94.5337 119.198C90.6533 130.388 81.5138 137.286 66.9111 134.22C66.9111 134.22 53.6869 133.505 46.1302 107.855C34.6931 68.7666 68.1365 56.1971 86.058 72.8031Z" fill="#F8B498"/>
<path d="M87.7429 103.205C87.9982 104.227 89.0704 104.84 90.0916 104.585C91.1128 104.329 91.7255 103.256 91.4702 102.234C91.2149 101.212 90.1427 100.599 89.1215 100.855C88.0493 101.11 87.4366 102.183 87.7429 103.205Z" fill="#101010"/>
<path d="M70.6389 103.716C70.8942 104.738 71.9664 105.351 72.9876 105.096C74.0088 104.841 74.6215 103.768 74.3662 102.746C74.1109 101.724 73.0387 101.111 72.0175 101.366C70.9963 101.621 70.3836 102.694 70.6389 103.716Z" fill="#101010"/>
<path d="M81.4629 99.4751L84.6285 108.315C85.1902 109.95 84.2711 111.738 82.6372 112.198" stroke="#FF9574" stroke-width="1.12625" stroke-miterlimit="10" stroke-linecap="round" stroke-linejoin="round"/>
<path d="M84.9343 115.315L72.2207 115.775C72.2207 115.775 72.3228 120.424 78.5009 120.22C84.6279 120.016 84.9343 115.315 84.9343 115.315Z" fill="white"/>
<path d="M85.4453 92.3219C85.4453 92.3219 88.662 91.5555 93.2062 93.957" stroke="#1F2D3D" stroke-width="3.26306" stroke-miterlimit="10" stroke-linecap="round"/>
<path d="M74.5698 93.0375C74.5698 93.0375 66.3493 91.9645 62.2646 96.1032" stroke="#1F2D3D" stroke-width="3.26306" stroke-miterlimit="10" stroke-linecap="round"/>
<path d="M92.5935 82.0004C92.5935 82.0004 90.1937 78.8835 88.0493 80.1609C84.373 82.4091 78.0928 85.1172 62.1626 81.285C62.1626 81.285 54.5038 78.9857 54.4017 84.6573C54.2996 90.3289 57.2099 107.906 57.2099 107.906L51.7977 109.03L42.7603 99.1174L39.2373 79.3434C38.3182 74.0295 41.4328 68.8688 46.5897 67.2338C55.2186 64.4235 68.2896 61.46 84.6794 63.9125C89.1215 64.5768 92.4913 68.8177 92.0829 73.3141L92.5935 82.0004Z" fill="#1F2D3D"/>
<path d="M36.2751 110.767C37.7047 115.774 42.9127 118.687 47.9164 117.256C52.9202 115.825 55.8305 110.614 54.4009 105.606C52.9712 100.599 47.7632 97.6865 42.7595 99.1171C37.7558 100.548 34.8454 105.76 36.2751 110.767Z" fill="#F8B498"/>
<path d="M41.127 105.351C41.127 105.351 48.0709 103.46 49.7558 111.125" stroke="#FF9574" stroke-width="1.12625" stroke-miterlimit="10" stroke-linecap="round" stroke-linejoin="round"/>
<path d="M228.219 471.117L147.151 468.148C145.012 468.079 142.874 467.596 140.873 466.698C138.872 465.801 137.147 464.558 135.629 462.97C134.18 461.382 133.008 459.518 132.249 457.516C131.49 455.513 131.145 453.304 131.214 451.164L144.253 143.575C144.46 139.225 146.461 135.083 149.704 132.183C152.947 129.214 157.224 127.695 161.571 127.902L242.638 130.871C244.777 130.94 246.916 131.423 248.917 132.321C250.917 133.218 252.642 134.461 254.16 136.049C255.678 137.637 256.782 139.501 257.541 141.504C258.3 143.506 258.645 145.646 258.576 147.856L245.536 455.444C245.329 459.794 243.328 463.937 240.085 466.905C236.912 469.736 232.634 471.255 228.219 471.117Z" fill="#E6EEF9"/>
<path d="M251.538 206.059L146.392 202.262L148.668 149.443L253.814 153.241L251.538 206.059Z" fill="#374351"/>
<path d="M248.365 280.833L143.219 277.036L145.496 224.218L250.642 228.015L248.365 280.833Z" fill="#4E5865"/>
<path d="M245.192 355.608L140.046 351.81L142.254 298.992L247.4 302.79L245.192 355.608Z" fill="#4E5865"/>
<path d="M242.018 430.451L136.872 426.584L139.08 373.766L244.226 377.564L242.018 430.451Z" fill="#646E79"/>
<path d="M226.702 472.014L148.049 472.774C139.632 472.843 132.733 465.731 132.664 456.825L129.697 138.88C129.628 129.973 136.389 122.723 144.806 122.585L223.39 121.757C231.807 121.688 238.707 128.799 238.776 137.706L241.742 455.651C241.88 464.627 235.119 471.876 226.702 472.014Z" fill="#EEF3FA"/>
<path d="M235.048 198.671L134.732 199.707L134.18 145.37L234.565 144.334L235.048 198.671Z" fill="#374351"/>
<path d="M235.74 275.586L135.423 276.622L134.94 222.285L235.257 221.249L235.74 275.586Z" fill="#4E5865"/>
<path d="M236.429 352.569L136.044 353.605L135.561 299.268L235.877 298.232L236.429 352.569Z" fill="#4E5865"/>
<path d="M237.188 429.553L136.802 430.589L136.319 376.251L236.705 375.216L237.188 429.553Z" fill="#646E79"/>
<path d="M229.185 456.411C228.633 458.897 227.391 461.106 225.528 462.833C223.735 464.559 221.389 465.732 218.905 466.147C216.421 466.561 213.868 466.285 211.523 465.249C209.177 464.213 207.245 462.556 205.934 460.416C204.554 458.276 203.864 455.79 203.933 453.305C204.002 450.75 204.761 448.333 206.21 446.262C207.659 444.191 209.66 442.603 212.006 441.705C214.351 440.808 216.904 440.6 219.388 441.153C221.044 441.498 222.562 442.189 223.942 443.155C225.321 444.122 226.494 445.365 227.391 446.745C228.288 448.126 228.909 449.714 229.185 451.371C229.599 453.097 229.53 454.754 229.185 456.411Z" fill="#D7E2F4"/>
<path d="M468.281 187.867L478.336 212.654L455.924 197.948L468.281 187.867Z" fill="#FFBE9D"/>
<path d="M523.403 239.418C521.747 242.525 518.918 244.804 515.537 245.839C512.157 246.875 508.569 246.599 505.464 244.942L340.44 158.902L353.135 135.635L518.021 221.605C519.539 222.434 520.919 223.469 522.023 224.85C523.127 226.162 523.955 227.75 524.438 229.407C524.921 231.064 525.128 232.79 524.921 234.516C524.783 236.242 524.231 237.899 523.403 239.418Z" fill="#4E5865"/>
<path d="M276.275 110.02L310.841 155.52L325.744 151.584L333.264 155.865L346.235 131.976L338.439 127.902L332.643 113.265L276.275 110.02Z" fill="#D7E2F4"/>
<path d="M317.742 123.276C318.708 123.759 319.536 124.45 320.226 125.278C320.916 126.107 321.399 127.073 321.744 128.109C322.089 129.145 322.158 130.249 322.02 131.285C321.882 132.39 321.606 133.425 321.054 134.392C320.019 136.325 318.225 137.775 316.086 138.397C313.947 139.018 311.671 138.811 309.739 137.844C308.773 137.361 307.945 136.67 307.255 135.842C306.565 135.013 306.082 134.047 305.737 133.011C305.392 131.975 305.323 130.871 305.461 129.835C305.599 128.73 305.875 127.695 306.427 126.728C307.462 124.795 309.256 123.345 311.395 122.724C313.533 122.033 315.81 122.24 317.742 123.276Z" fill="#404757"/>
<path d="M276.275 110.02L313.946 128.938" stroke="#404757" stroke-width="0.690435" stroke-miterlimit="10"/>
<path d="M355.413 134.323L340.51 161.733L330.989 156.762L345.892 129.352L355.413 134.323Z" fill="#4E5865"/>
<path d="M458.402 150.721C458.124 148.625 458.31 146.442 458.865 144.433C461.732 134.128 458.495 125.395 452.667 118.845C447.486 112.907 446.191 104.173 446.191 104.173C442.399 92.2091 429.448 84 417.608 84C402.344 84 396.702 91.7724 392.816 103.649C392.816 103.649 391.059 113.081 386.249 118.845C380.698 125.482 377.276 134.128 380.051 144.433C380.698 146.442 380.883 148.625 380.606 150.721C380.421 152.293 379.958 153.865 379.033 155H459.975C459.05 153.865 458.587 152.293 458.402 150.721Z" fill="#1F2D3D"/>
<path d="M411.964 135.766L412.398 150.706C412.485 156.091 416.911 160.347 422.206 160.434C428.108 160.434 432.794 155.396 432.187 149.49L429.149 121L411.964 135.766Z" fill="#FFC3AA"/>
<path d="M399.813 97.6362C398.164 99.026 397.122 100.937 396.688 103.021C395.473 109.188 393.043 122.13 395.213 128.644C398.077 137.243 405.021 142.628 416.304 140.457C416.304 140.457 429.323 139.849 432.534 120.74C437.048 93.6408 413.787 85.8237 399.813 97.6362Z" fill="#FFC3AA"/>
<path d="M398.683 116.397C398.683 116.397 396.6 114.486 394.69 116.397" stroke="#1D0300" stroke-width="0.859278" stroke-miterlimit="10" stroke-linecap="round" stroke-linejoin="round"/>
<path d="M414.828 116.484C414.828 116.484 412.571 114.052 409.62 116.484" stroke="#1D0300" stroke-width="1.09918" stroke-miterlimit="10" stroke-linecap="round" stroke-linejoin="round"/>
<path d="M403.718 112.314L400.854 120.74C400.42 122.042 401.114 123.345 402.416 123.693" stroke="#FF9574" stroke-width="0.881948" stroke-miterlimit="10" stroke-linecap="round" stroke-linejoin="round"/>
<path d="M401.028 127.167L409.361 126.212C409.361 126.212 409.881 129.599 405.715 130.12C401.636 130.555 401.028 127.167 401.028 127.167Z" fill="white"/>
<path d="M398.945 108.841C398.945 108.841 396.341 108.406 392.869 110.578" stroke="#1F2D3D" stroke-width="2.60571" stroke-miterlimit="10" stroke-linecap="round"/>
<path d="M407.624 108.841C407.624 108.841 414.134 107.538 417.605 110.578" stroke="#1F2D3D" stroke-width="2.60571" stroke-miterlimit="10" stroke-linecap="round"/>
<path d="M420.816 116.831L429.235 116.31" stroke="white" stroke-width="0.878299" stroke-miterlimit="10" stroke-linecap="round"/>
<path d="M415.001 93.7279C415.001 93.7279 402.59 92.0776 396.774 102.848C396.774 102.848 397.382 87.1267 416.216 89.385L415.001 93.7279Z" fill="#1F2D3D"/>
<path d="M415.001 93.7278C415.001 93.7278 421.771 94.0752 423.16 100.937C424.201 106.062 419.254 111.62 427.239 120.046L435.398 113.01C435.398 113.01 440.866 89.2112 416.303 89.2981L415.001 93.7278Z" fill="#1F2D3D"/>
<path d="M394.432 108.146C394.432 108.146 408.579 102.848 408.753 91.73C408.753 91.73 394.432 91.9037 394.432 108.146Z" fill="#1F2D3D"/>
<path d="M425.416 108.146C425.416 108.146 408.926 102.848 408.752 91.7302C408.752 91.7302 425.503 91.4696 425.416 108.146Z" fill="#1F2D3D"/>
<path d="M433.055 128.557C437.417 128.557 440.953 125.057 440.953 120.74C440.953 116.423 437.417 112.923 433.055 112.923C428.692 112.923 425.156 116.423 425.156 120.74C425.156 125.057 428.692 128.557 433.055 128.557Z" fill="#FFC3AA"/>
<path d="M436.613 118.395C436.613 118.395 430.885 116.745 429.322 123.085" stroke="#FF9574" stroke-width="0.881948" stroke-miterlimit="10" stroke-linecap="round" stroke-linejoin="round"/>
<path opacity="0.23" d="M391.913 109.015L399.638 119.959C399.638 119.959 397.295 124.649 393.649 124.128L385.838 113.445C385.838 113.445 387.921 108.754 391.913 109.015Z" fill="white"/>
<path opacity="0.23" d="M411.443 109.015L419.515 119.959C419.515 119.959 417.085 124.649 413.179 124.128L405.021 113.445C405.021 113.445 407.19 108.754 411.443 109.015Z" fill="white"/>
<path d="M400.246 116.658C400.246 121.001 396.861 124.562 392.695 124.562C388.529 124.562 385.144 121.001 385.144 116.658C385.144 112.315 388.529 108.754 392.695 108.754C396.861 108.754 400.246 112.315 400.246 116.658Z" stroke="white" stroke-width="0.553106" stroke-miterlimit="10"/>
<path d="M420.121 116.658C420.121 121.001 416.562 124.562 412.222 124.562C407.883 124.562 404.324 121.001 404.324 116.658C404.324 112.315 407.883 108.754 412.222 108.754C416.562 108.754 420.121 112.315 420.121 116.658Z" stroke="white" stroke-width="0.566222" stroke-miterlimit="10"/>
<path d="M400.246 116.658C400.246 116.658 402.503 115.79 404.325 116.658" stroke="white" stroke-width="0.566222" stroke-miterlimit="10"/>
<path d="M425.334 470.565L426.667 496.664C426.667 496.664 403.83 506.951 403.648 511.784L448.171 510.748L447.625 470.013L425.334 470.565Z" fill="#404757"/>
<path d="M448.171 512.06V506.605L405.345 509.16C405.345 509.16 403.407 510.196 403.649 511.784L448.171 512.06Z" fill="#1F2D3D"/>
<path d="M455.864 239.477C455.864 239.477 465.979 259.361 467.433 277.174C468.705 293.33 459.74 311.765 459.74 311.765L444.294 378.047L448.837 491.416L424.123 492.866L409.888 362.926L414.188 241.962L455.864 239.477Z" fill="#1F2D3D"/>
<path d="M426.181 490.45C426.303 490.657 427.272 490.312 428.483 490.381C429.695 490.45 430.664 490.864 430.785 490.657C430.906 490.45 429.937 489.552 428.483 489.483C427.09 489.414 426.121 490.243 426.181 490.45Z" fill="#1F2D3D"/>
<path d="M414.066 454.547L426.605 476.503C426.605 476.503 411.28 498.321 413.218 502.601L451.38 476.503L433.147 441.429L414.066 454.547Z" fill="#404757"/>
<path d="M451.381 476.502L449.442 473.05L413.643 499.425C413.643 499.425 412.371 501.427 413.279 502.67L451.381 476.502Z" fill="#1F2D3D"/>
<path d="M402.134 247.485C402.134 247.485 372.028 370.728 378.51 384.537C384.991 398.345 418.125 475.191 418.125 475.191L445.99 457.723L414.188 372.937L438.357 312.248C438.357 312.248 449.927 300.718 454.409 284.631C458.892 268.544 451.138 241.962 451.138 241.962H402.74L402.134 247.485Z" fill="#1F2D3D"/>
<path d="M402.921 184.725C400.317 191.629 399.226 199.224 399.772 206.75C400.196 211.583 402.74 223.872 402.74 223.872L402.376 247.416C402.376 247.416 457.196 242.721 457.135 242.583C457.075 242.445 457.741 212.894 457.257 192.181C456.772 171.399 449.685 152.62 449.685 152.62C449.685 152.62 441.204 146.544 435.753 147.096C430.301 147.648 406.681 150 406.681 150L402.921 184.725Z" fill="#78C097"/>
<path d="M406.677 150.065C406.677 150.065 397.591 151.584 389.05 166.773C380.266 182.446 376.269 189.005 376.269 189.005L401.286 207.647C401.286 207.647 415.097 183.965 416.793 178.925C418.428 173.747 420.367 149.581 406.677 150.065Z" fill="#78C097"/>
<path d="M441.81 148.546C441.81 148.546 451.259 151.998 454.47 157.729C456.59 161.457 469.674 187.694 469.674 187.694L454.651 199.638L443.324 163.252L441.81 148.546Z" fill="#78C097"/>
<path d="M378.994 190.939L376.995 194.046L376.268 178.373L362.397 173.057C362.397 173.057 359.126 212.411 359.611 218.556C360.156 225.254 360.277 225.53 361.731 228.568C363.608 232.434 370.272 235.196 374.027 234.022C377.783 232.848 381.841 227.049 384.87 223.527C390.382 217.175 398.863 205.093 398.863 205.093L378.994 190.939Z" fill="#FFBE9D"/>
<path d="M378.994 190.938C378.57 191.836 378.025 192.734 377.479 193.562C376.45 195.15 375.178 197.36 373.845 199.914C372.512 202.4 371.301 204.747 370.513 206.473C370.089 207.44 369.665 208.337 369.12 209.166C369.362 208.13 369.726 207.164 370.15 206.266C372.088 201.709 374.451 197.36 377.176 193.355C377.661 192.457 378.267 191.629 378.994 190.938Z" fill="#EB996E"/>
<path d="M362.276 175.058L356.885 171.606C354.704 169.673 352.705 167.74 352.221 164.633C352.221 164.633 367.97 172.642 369.242 173.401C370.514 174.161 376.45 176.854 376.269 179.684L362.276 175.058Z" fill="#FFBE9D"/>
<path d="M455.864 267.577L457.741 283.733C459.316 297.68 450.594 310.453 438.297 312.041L414.007 373.007L445.929 457.723L418.186 475.122" stroke="#404757" stroke-width="0.690435" stroke-miterlimit="10"/>
<path d="M401.225 207.578L416.368 179.753C421.88 169.673 419.579 160.559 411.098 153.586" stroke="#3FB07D" stroke-width="0.690435" stroke-miterlimit="10"/>
<path d="M455.258 167.395L457.257 199.984V243.136" stroke="#3FB07D" stroke-width="0.690435" stroke-miterlimit="10"/>
</svg>
