<svg width="606" height="535" viewBox="0 0 606 535" fill="none" xmlns="http://www.w3.org/2000/svg">
<circle cx="301.249" cy="290.472" r="228.845" fill="#F0F4FB"/>
<mask id="mask0" mask-type="alpha" maskUnits="userSpaceOnUse" x="72" y="61" width="459" height="459">
<circle cx="301.249" cy="290.472" r="228.845" fill="#DEF0FA"/>
</mask>
<g mask="url(#mask0)">
<rect x="100.313" y="302.079" width="162.507" height="61.1336" rx="9.28612" fill="#CBE8F7"/>
<rect x="272.881" y="302.079" width="161.733" height="61.1336" rx="9.28612" fill="#FEDB6B"/>
<rect x="444.674" y="302.079" width="161.733" height="61.1336" rx="9.28612" fill="#CBE8F7"/>
<path d="M352.54 291.292C352.993 291.746 353.728 291.746 354.181 291.292L361.568 283.905C362.022 283.452 362.022 282.717 361.568 282.264C361.115 281.81 360.38 281.81 359.927 282.264L353.36 288.83L346.794 282.264C346.341 281.81 345.606 281.81 345.153 282.264C344.699 282.717 344.699 283.452 345.153 283.905L352.54 291.292ZM161.447 261.453L337.883 261.453L337.883 259.131L161.447 259.131L161.447 261.453ZM352.2 275.769L352.2 290.472L354.521 290.472L354.521 275.769L352.2 275.769ZM337.883 261.453C345.79 261.453 352.2 267.862 352.2 275.769L354.521 275.769C354.521 266.58 347.072 259.131 337.883 259.131L337.883 261.453Z" fill="#A9AEB4"/>
<path d="M524.332 291.292C524.786 291.746 525.52 291.746 525.974 291.292L533.361 283.905C533.814 283.452 533.814 282.717 533.361 282.264C532.908 281.81 532.173 281.81 531.719 282.264L525.153 288.83L518.587 282.264C518.133 281.81 517.398 281.81 516.945 282.264C516.492 282.717 516.492 283.452 516.945 283.905L524.332 291.292ZM320.858 261.453L509.676 261.453L509.676 259.131L320.858 259.131L320.858 261.453ZM523.992 275.769L523.992 290.472L526.314 290.472L526.314 275.769L523.992 275.769ZM509.676 261.453C517.583 261.453 523.992 267.862 523.992 275.769L526.314 275.769C526.314 266.58 518.865 259.131 509.676 259.131L509.676 261.453Z" fill="#A9AEB4"/>
<path d="M180.746 291.293C181.2 291.746 181.934 291.746 182.388 291.293L189.775 283.906C190.228 283.452 190.228 282.717 189.775 282.264C189.322 281.811 188.587 281.811 188.133 282.264L181.567 288.83L175.001 282.264C174.547 281.811 173.812 281.811 173.359 282.264C172.906 282.717 172.906 283.452 173.359 283.906L180.746 291.293ZM99.1527 230.112L99.1527 244.815L101.474 244.815L101.474 230.112L99.1527 230.112ZM115.79 261.453L166.09 261.453L166.09 259.131L115.79 259.131L115.79 261.453ZM180.406 275.769L180.406 290.472L182.728 290.472L182.728 275.769L180.406 275.769ZM166.09 261.453C173.997 261.453 180.406 267.862 180.406 275.769L182.728 275.769C182.728 266.58 175.279 259.131 166.09 259.131L166.09 261.453ZM99.1527 244.815C99.1527 254.004 106.602 261.453 115.79 261.453L115.79 259.131C107.884 259.131 101.474 252.722 101.474 244.815L99.1527 244.815Z" fill="#A9AEB4"/>
<path d="M63.1689 158.918L182.341 158.918C187.469 158.918 191.627 163.076 191.627 168.205L191.627 210.766C191.627 215.895 187.469 220.052 182.341 220.052L63.1689 220.052L63.1689 158.918Z" fill="#919BC8"/>
</g>
<rect x="271.957" y="374.821" width="161.733" height="61.1336" rx="9.28612" fill="#FEE698"/>
<rect x="271.957" y="447.562" width="161.733" height="61.1336" rx="9.28612" fill="#FEE698"/>
<rect x="443.718" y="302.08" width="161.733" height="61.1336" rx="9.28612" fill="#8ED1B2"/>
<rect x="443.718" y="374.994" width="161.733" height="61.1336" rx="9.28612" fill="#C9E9DA"/>
<path fill-rule="evenodd" clip-rule="evenodd" d="M18.3556 66.5243L24.9896 24.644L66.8699 18.0099L86.1346 55.7959L56.1512 85.7794L18.3556 66.5243Z" fill="#919BC8"/>
</svg>
