<svg width="525" height="574" viewBox="0 0 525 574" fill="none" xmlns="http://www.w3.org/2000/svg">
<path d="M249.924 200.755C249.924 232.236 224.412 257.755 192.941 257.755C161.471 257.755 135.959 232.236 135.959 200.755C135.959 169.275 161.471 143.755 192.941 143.755C224.412 143.755 249.924 169.275 249.924 200.755Z" stroke="#7B838D" stroke-width="2"/>
<path d="M213.481 216.932C213.425 219.595 211.271 221.736 208.607 221.774L174.755 222.262C172.146 222.3 170.027 220.166 170.082 217.558C170.134 215.006 170.725 212.47 171.823 210.097C172.92 207.723 174.502 205.557 176.478 203.723C178.454 201.89 180.785 200.423 183.339 199.409C185.892 198.394 190.252 197.837 192.994 197.796C198.534 197.716 203.805 199.686 207.647 203.275C211.489 206.863 213.587 211.775 213.481 216.932Z" fill="white" stroke="#7B838D" stroke-width="2"/>
<path d="M202.733 191.293C202.239 193.42 201.125 195.354 199.533 196.848C197.94 198.342 195.941 199.33 193.786 199.687C191.632 200.044 189.421 199.754 187.432 198.854C185.442 197.953 183.765 196.483 182.611 194.628C181.458 192.774 180.88 190.619 180.951 188.436C181.022 186.253 181.739 184.14 183.011 182.365C184.283 180.589 186.053 179.231 188.096 178.462C190.14 177.693 192.366 177.548 194.492 178.045C197.34 178.71 199.808 180.479 201.353 182.963C202.898 185.447 203.395 188.443 202.733 191.293Z" fill="white" stroke="#7B838D" stroke-width="2"/>
<path d="M257.572 68.7742H225.135C224.075 68.7962 223.03 69.0272 222.06 69.4539C221.089 69.8806 220.212 70.4947 219.48 71.2609C218.747 72.0272 218.172 72.9305 217.789 73.9192C217.406 74.9079 217.222 75.9625 217.247 77.0226V82.8981C217.292 85.0377 216.487 87.1079 215.008 88.6544C213.529 90.2008 211.497 91.0971 209.359 91.1465H146.103C143.964 91.0971 141.932 90.2008 140.453 88.6544C138.974 87.1079 138.169 85.0377 138.214 82.8981V77.0037C138.26 74.8673 137.457 72.7999 135.983 71.254C134.508 69.7081 132.481 68.8097 130.345 68.7554H90.5276C87.1736 68.7529 83.852 69.4116 80.7526 70.6938C77.6532 71.976 74.8367 73.8566 72.4642 76.228C70.0917 78.5995 68.2096 81.4154 66.9255 84.5148C65.6414 87.6142 64.9805 90.9364 64.9805 94.2914V504.035C64.9805 510.809 67.6695 517.307 72.4564 522.098C77.2434 526.89 83.7365 529.585 90.5088 529.59L257.572 529.684C264.345 529.684 270.84 526.994 275.63 522.206C280.421 517.418 283.115 510.922 283.12 504.148V94.4044C283.129 91.0421 282.476 87.711 281.197 84.6018C279.917 81.4927 278.037 78.6666 275.664 76.2857C273.29 73.9047 270.471 72.0156 267.366 70.7266C264.262 69.4377 260.934 68.7742 257.572 68.7742Z" fill="white"/>
<path d="M230.93 227.609C230.93 259.089 205.418 284.609 173.947 284.609C142.477 284.609 116.965 259.089 116.965 227.609C116.965 196.128 142.477 170.609 173.947 170.609C205.418 170.609 230.93 196.128 230.93 227.609Z" stroke="#7B838D" stroke-width="2"/>
<path d="M194.487 243.785C194.431 246.449 192.277 248.589 189.613 248.628L155.761 249.116C153.152 249.153 151.033 247.02 151.087 244.411C151.139 241.859 151.731 239.324 152.828 236.95C153.926 234.576 155.508 232.411 157.484 230.577C159.46 228.743 161.791 227.277 164.345 226.262C166.898 225.247 171.257 224.691 174 224.65C179.54 224.569 184.811 226.54 188.653 230.128C192.495 233.717 194.593 238.629 194.487 243.785Z" fill="white" stroke="#7B838D" stroke-width="2"/>
<path d="M183.739 218.146C183.245 220.274 182.131 222.207 180.539 223.701C178.946 225.196 176.946 226.184 174.792 226.541C172.638 226.898 170.427 226.608 168.437 225.707C166.448 224.807 164.771 223.336 163.617 221.482C162.464 219.627 161.886 217.472 161.957 215.289C162.028 213.106 162.745 210.993 164.017 209.218C165.289 207.443 167.059 206.085 169.102 205.316C171.146 204.547 173.372 204.401 175.498 204.898C178.346 205.563 180.814 207.332 182.359 209.817C183.904 212.301 184.4 215.297 183.739 218.146Z" fill="white" stroke="#7B838D" stroke-width="2"/>
<path d="M87.9736 113.755L89.973 111.755M89.973 111.755L96.9709 104.755L103.969 111.755M89.973 111.755V121.755C89.973 122.308 90.4206 122.755 90.9727 122.755H93.9718M103.969 111.755L105.968 113.755M103.969 111.755V121.755C103.969 122.308 103.521 122.755 102.969 122.755H99.97M93.9718 122.755C94.5239 122.755 94.9715 122.308 94.9715 121.755V117.755C94.9715 117.203 95.4191 116.755 95.9712 116.755H97.9706C98.5227 116.755 98.9703 117.203 98.9703 117.755V121.755C98.9703 122.308 99.4179 122.755 99.97 122.755M93.9718 122.755H99.97" stroke="#7B838D" stroke-width="2" stroke-linecap="round" stroke-linejoin="round"/>
<path d="M242.927 107.755H258.922M242.927 113.755H258.922M242.927 119.755H258.922" stroke="#7B838D" stroke-width="2" stroke-linecap="round" stroke-linejoin="round"/>
<rect x="84.9746" y="396.853" width="178.946" height="30" rx="10" stroke="#7B838D" stroke-width="2"/>
<rect x="84.9746" y="446.853" width="178.946" height="30" rx="10" stroke="#7B838D" stroke-width="2"/>
<path d="M126.962 415.025C127.399 408.909 133.911 406.731 137.704 411.284C140.153 414.224 143.432 417.254 147.013 414.667C148.674 413.468 150.067 412.005 151.628 410.727C154.071 408.728 155.235 411.63 157.039 412.558C160.75 414.467 166.298 411.814 169.969 411.125C171.615 410.816 172.976 412.142 174.226 413.035C176.05 414.338 177.736 414.471 179.955 414.269C184.387 413.866 187.635 412.461 192.129 413.433C196.028 414.277 199.771 412.876 203.587 412.876C209.156 412.876 215.167 413.799 220.774 414.309" stroke="#7B838D" stroke-width="2" stroke-linecap="round" stroke-linejoin="round"/>
<path d="M207.543 462.609C202.146 457.456 194.596 458.206 188.227 461.261C182.869 463.831 177.094 464.407 171.256 464.407C167.896 464.407 164.756 464.155 161.548 463.059C159.192 462.254 156.935 460.98 154.535 460.363C150.4 459.299 146.024 460.448 141.957 461.261" stroke="black" stroke-linecap="round" stroke-linejoin="round"/>
<path d="M120.33 334.639C118.405 337.287 117.477 340.164 118.221 343.514C118.367 344.168 120.56 345.426 121.205 345.941C124.833 348.844 128.029 348.713 131.947 346.101C135.426 343.781 140.15 338.377 144.519 338.221C146.798 338.139 151.677 337.809 153.59 339.375C155.521 340.956 157.722 344.284 160.473 344.628C163.922 345.059 167.597 343.705 170.299 341.803C172.842 340.013 174.566 336.471 177.978 336.112C179.47 335.757 183.342 336.479 186.89 342.201C192.647 348.92 196.497 343.897 203.042 341.882C213.345 338.711 221.859 342.548 231.329 346.101" stroke="#7B838D" stroke-width="2" stroke-linecap="round" stroke-linejoin="round"/>
<path d="M145.956 358.995C154.575 357.036 164.967 351.724 173.169 357.403C182.787 364.064 191.195 360.21 201.814 358.279" stroke="#7B838D" stroke-width="2" stroke-linecap="round" stroke-linejoin="round"/>
<path d="M192.497 3.33046L156.675 0L153.345 35.8332L189.168 39.1637L192.497 3.33046Z" fill="#FBE0E4"/>
<path d="M56.432 22.5933L21.9424 19.4893L18.8374 53.9892L53.3271 57.0932L56.432 22.5933Z" fill="#CBE8F7"/>
<path d="M116.531 18.3461L82.1895 15.1533L78.9976 49.5053L113.339 52.698L116.531 18.3461Z" fill="#C9E9DA"/>
<path d="M119.964 119.755C119.411 119.755 118.964 119.308 118.964 118.755C118.964 118.203 119.411 117.755 119.964 117.755L119.964 119.755ZM177.239 51.0483C177.63 50.6577 178.263 50.6577 178.653 51.0483L185.017 57.4122C185.408 57.8027 185.408 58.4359 185.017 58.8264C184.627 59.217 183.994 59.217 183.603 58.8264L177.946 53.1696L172.289 58.8264C171.899 59.217 171.266 59.217 170.875 58.8264C170.485 58.4359 170.485 57.8027 170.875 57.4122L177.239 51.0483ZM119.964 117.755L137.946 117.755L137.946 119.755L119.964 119.755L119.964 117.755ZM176.946 78.7554L176.946 51.7554L178.946 51.7554L178.946 78.7554L176.946 78.7554ZM137.946 117.755C159.485 117.755 176.946 100.294 176.946 78.7554L178.946 78.7554C178.946 101.399 160.59 119.755 137.946 119.755L137.946 117.755Z" fill="#D8E3F5"/>
<path d="M29.9902 62.7554C29.9902 62.2031 30.4379 61.7554 30.9902 61.7554C31.5425 61.7554 31.9902 62.2031 31.9902 62.7554H29.9902ZM31.9902 62.7554V89.7656H29.9902V62.7554H31.9902ZM31.9902 89.7656C31.9902 107.985 46.7602 122.755 64.98 122.755V124.755C45.6557 124.755 29.9902 109.09 29.9902 89.7656H31.9902Z" fill="#D8E3F5"/>
<path d="M61.4814 37.7554C60.9292 37.7554 60.4814 38.2031 60.4814 38.7554C60.4814 39.3077 60.9292 39.7554 61.4814 39.7554L61.4814 37.7554ZM75.6845 39.4625C76.075 39.072 76.075 38.4388 75.6845 38.0483L69.3205 31.6843C68.93 31.2938 68.2968 31.2938 67.9063 31.6843C67.5158 32.0748 67.5158 32.708 67.9063 33.0985L73.5632 38.7554L67.9063 44.4122C67.5158 44.8027 67.5158 45.4359 67.9063 45.8264C68.2968 46.217 68.93 46.217 69.3205 45.8264L75.6845 39.4625ZM61.4814 39.7554H74.9774V37.7554H61.4814L61.4814 39.7554Z" fill="#D8E3F5"/>
<ellipse cx="97.4708" cy="114.255" rx="22.4932" ry="22.5" stroke="#D8E3F5" stroke-width="2"/>
<path d="M456.053 569.638L227.539 569.755C218.703 569.759 210.227 566.261 203.975 560.03C197.723 553.798 194.207 545.344 194.199 536.526L193.936 62.7944C193.932 57.817 194.91 52.8876 196.816 48.2878C198.721 43.688 201.516 39.508 205.041 35.9864C208.565 32.4648 212.75 29.6707 217.357 27.7637C221.964 25.8568 226.902 24.8742 231.889 24.8723L456.184 24.7554C465.12 24.7554 473.689 28.2979 480.008 34.6036C486.326 40.9094 489.876 49.4618 489.876 58.3794L490.154 535.634C490.146 544.655 486.55 553.304 480.156 559.681C473.761 566.057 465.092 569.638 456.053 569.638Z" fill="#DCE5F6"/>
<path d="M198.842 524.656L198.578 69.958C198.598 59.2487 202.873 48.9845 210.466 41.4174C218.059 33.8503 228.35 29.5984 239.081 29.5945L444.655 29.4775C449.977 29.4737 455.248 30.5163 460.166 32.5458C465.084 34.5753 469.554 37.5519 473.319 41.3056C477.084 45.0594 480.072 49.5166 482.111 54.4228C484.15 59.3291 485.2 64.5881 485.202 69.8995L485.466 524.597C485.469 529.908 484.425 535.169 482.391 540.077C480.358 544.985 477.375 549.446 473.614 553.204C469.853 556.962 465.386 559.943 460.47 561.978C455.554 564.013 450.285 565.061 444.963 565.063L239.388 565.18C234.058 565.182 228.78 564.134 223.856 562.098C218.932 560.061 214.459 557.075 210.693 553.311C206.926 549.547 203.941 545.078 201.907 540.161C199.874 535.244 198.832 529.975 198.842 524.656Z" fill="#D8E3F5"/>
<path d="M320.627 47.9121C319.753 47.9121 318.914 47.5655 318.296 46.9487C317.678 46.3318 317.331 45.4952 317.331 44.6228C317.331 43.7504 317.678 42.9138 318.296 42.2969C318.914 41.68 319.753 41.3335 320.627 41.3335H362.946C363.396 41.3035 363.848 41.3661 364.273 41.5174C364.698 41.6688 365.087 41.9056 365.417 42.2133C365.747 42.5211 366.009 42.893 366.189 43.3062C366.369 43.7194 366.461 44.1651 366.461 44.6155C366.461 45.0659 366.369 45.5115 366.189 45.9247C366.009 46.3379 365.747 46.7099 365.417 47.0176C365.087 47.3253 364.698 47.5622 364.273 47.7135C363.848 47.8649 363.396 47.9275 362.946 47.8975L320.627 47.9121Z" fill="#DCE5F6"/>
<path d="M297.937 47.9267C297.285 47.9296 296.646 47.7392 296.102 47.3795C295.558 47.0198 295.134 46.5071 294.882 45.9063C294.63 45.3056 294.563 44.6437 294.689 44.0047C294.814 43.3657 295.127 42.7782 295.587 42.3167C296.047 41.8553 296.635 41.5405 297.274 41.4124C297.914 41.2843 298.578 41.3486 299.181 41.5971C299.784 41.8457 300.299 42.2672 300.662 42.8085C301.025 43.3497 301.219 43.9862 301.219 44.6374C301.219 45.5073 300.873 46.3417 300.259 46.9582C299.644 47.5746 298.809 47.9229 297.937 47.9267Z" fill="#DCE5F6"/>
<path d="M310.051 47.9121C309.398 47.915 308.76 47.7245 308.216 47.3649C307.672 47.0052 307.247 46.4925 306.995 45.8917C306.744 45.2909 306.676 44.6291 306.802 43.9901C306.927 43.351 307.24 42.7636 307.7 42.3021C308.161 41.8406 308.748 41.5259 309.388 41.3978C310.027 41.2697 310.691 41.334 311.294 41.5825C311.897 41.831 312.413 42.2526 312.776 42.7938C313.138 43.3351 313.332 43.9716 313.332 44.6228C313.332 45.4926 312.987 46.3271 312.372 46.9435C311.757 47.56 310.922 47.9082 310.051 47.9121Z" fill="#DCE5F6"/>
<path d="M385.828 47.8677C385.176 47.8677 384.538 47.6744 383.995 47.3123C383.453 46.9502 383.031 46.4356 382.782 45.8337C382.533 45.2318 382.468 44.5697 382.597 43.9313C382.725 43.2928 383.04 42.7067 383.503 42.2473C383.965 41.7879 384.554 41.4758 385.194 41.3505C385.834 41.2252 386.498 41.2925 387.1 41.5437C387.702 41.7949 388.215 42.2187 388.576 42.7616C388.936 43.3044 389.127 43.9418 389.124 44.593C389.124 45.0243 389.039 45.4513 388.873 45.8495C388.707 46.2478 388.464 46.6095 388.158 46.9137C387.851 47.218 387.488 47.4589 387.088 47.6226C386.688 47.7863 386.26 47.8696 385.828 47.8677Z" fill="#DCE5F6"/>
<path d="M373.713 47.8828C373.061 47.8828 372.424 47.6899 371.882 47.3285C371.34 46.967 370.917 46.4533 370.668 45.8523C370.418 45.2512 370.353 44.5899 370.48 43.9518C370.607 43.3137 370.921 42.7276 371.382 42.2676C371.843 41.8076 372.431 41.4943 373.07 41.3674C373.709 41.2405 374.372 41.3056 374.974 41.5546C375.576 41.8036 376.091 42.2251 376.453 42.7661C376.815 43.307 377.009 43.943 377.009 44.5935C377.011 45.026 376.927 45.4546 376.762 45.8546C376.597 46.2545 376.354 46.6179 376.048 46.9237C375.741 47.2295 375.377 47.4718 374.976 47.6364C374.576 47.801 374.146 47.8848 373.713 47.8828Z" fill="#DCE5F6"/>
<path d="M446.853 36.1876H407.009C405.13 36.1868 403.302 36.793 401.797 37.9155C400.291 39.0381 399.191 40.6167 398.66 42.4153L395.408 53.5551C394.82 55.5699 393.592 57.3395 391.909 58.5973C390.226 59.855 388.179 60.5328 386.077 60.5284H297.806C295.704 60.5298 293.659 59.8529 291.975 58.5987C290.29 57.3446 289.058 55.5805 288.46 53.5697L285.194 42.4299C284.664 40.6316 283.563 39.0535 282.058 37.9331C280.552 36.8126 278.722 36.2103 276.844 36.2168H236.971C228.579 36.2013 220.523 39.5128 214.576 45.4233C208.629 51.3339 205.277 59.3595 205.258 67.7357L205.521 525.693C205.535 529.84 206.367 533.944 207.969 537.77C209.572 541.596 211.914 545.069 214.861 547.992C217.809 550.915 221.304 553.229 225.148 554.804C228.992 556.378 233.109 557.182 237.264 557.168L447.102 557.066C455.495 557.081 463.55 553.77 469.497 547.859C475.444 541.949 478.796 533.923 478.815 525.547L478.552 67.6041C478.509 59.247 475.149 51.2476 469.207 45.3588C463.265 39.4699 455.226 36.172 446.853 36.1876Z" fill="white"/>
<path d="M489.904 151.854C490.42 151.858 490.913 152.064 491.278 152.428C491.643 152.792 491.849 153.284 491.853 153.799V217.144C491.853 217.657 491.65 218.149 491.287 218.513C490.925 218.878 490.433 219.084 489.919 219.088L489.904 151.854Z" fill="#DCE5F6"/>
<path d="M193.979 193.446C193.447 193.446 192.936 193.657 192.56 194.033C192.183 194.408 191.972 194.918 191.972 195.449V234C191.976 234.532 192.19 235.041 192.569 235.417C192.948 235.792 193.46 236.002 193.994 236.002L193.979 193.446Z" fill="#DCE5F6"/>
<path d="M193.95 137.776C193.685 137.776 193.423 137.828 193.178 137.93C192.934 138.031 192.712 138.18 192.525 138.368C192.339 138.555 192.191 138.778 192.091 139.022C191.991 139.267 191.941 139.529 191.942 139.793V178.329C191.946 178.863 192.161 179.374 192.539 179.752C192.917 180.129 193.429 180.343 193.965 180.347L193.95 137.776Z" fill="#DCE5F6"/>
<path d="M193.936 96.0969C193.474 96.0969 193.03 96.2802 192.703 96.6065C192.376 96.9327 192.192 97.3752 192.192 97.8366V114.166C192.192 114.394 192.238 114.62 192.325 114.83C192.413 115.04 192.542 115.231 192.704 115.391C192.866 115.552 193.058 115.678 193.27 115.764C193.481 115.85 193.708 115.893 193.936 115.891V96.0969Z" fill="#DCE5F6"/>
<path d="M414.217 52.4004H412.181V55.2511H414.217V52.4004Z" fill="white"/>
<path d="M417.527 51.1279H415.49V55.2359H417.527V51.1279Z" fill="white"/>
<path d="M420.837 50.1782H418.801V55.2364H420.837V50.1782Z" fill="white"/>
<path d="M424.148 48.3359H422.111V55.2362H424.148V48.3359Z" fill="white"/>
<path d="M454.177 55.3678H443.923C443.827 55.3697 443.732 55.3527 443.644 55.3175C443.555 55.2824 443.474 55.2299 443.406 55.1632C443.338 55.0965 443.283 55.0169 443.246 54.929C443.209 54.8411 443.19 54.7468 443.19 54.6515V49.5786C443.19 49.3873 443.266 49.2035 443.4 49.0669C443.534 48.9302 443.716 48.8515 443.908 48.8477H454.162C454.211 48.8511 454.258 48.8722 454.293 48.9071C454.328 48.942 454.349 48.9884 454.352 49.0377V50.7043H455.451C455.475 50.7042 455.5 50.7092 455.522 50.7189C455.544 50.7286 455.564 50.7429 455.581 50.7607C455.597 50.7786 455.61 50.7997 455.618 50.8227C455.626 50.8457 455.629 50.8701 455.627 50.8943V53.3211C455.627 53.3715 455.607 53.4199 455.571 53.4555C455.535 53.4911 455.487 53.5112 455.436 53.5112H454.338V55.1778C454.34 55.2008 454.337 55.224 454.33 55.2461C454.323 55.2681 454.312 55.2886 454.297 55.3062C454.282 55.3239 454.264 55.3384 454.243 55.349C454.222 55.3596 454.2 55.366 454.177 55.3678ZM453.986 49.2131H443.923C443.83 49.2131 443.74 49.2501 443.674 49.3159C443.608 49.3817 443.571 49.4709 443.571 49.564V54.6368C443.571 54.7299 443.608 54.8191 443.674 54.8849C443.74 54.9507 443.83 54.9877 443.923 54.9877H453.942V53.3211C453.942 53.2746 453.961 53.23 453.994 53.1971C454.027 53.1642 454.071 53.1457 454.118 53.1457H455.217V51.0698H454.177C454.13 51.0698 454.085 51.0513 454.052 51.0184C454.019 50.9855 454.001 50.9409 454.001 50.8943L453.986 49.2131Z" fill="white"/>
<path d="M444.422 54.169V50.061L453.138 50.0464V51.903V52.3124V54.169H444.422Z" fill="white"/>
<path d="M433.874 54.9878C433.874 54.8403 433.83 54.6962 433.748 54.5736C433.665 54.4509 433.549 54.3554 433.412 54.2989C433.276 54.2425 433.125 54.2277 432.98 54.2565C432.835 54.2853 432.702 54.3563 432.598 54.4606C432.493 54.5648 432.422 54.6977 432.393 54.8423C432.364 54.9869 432.379 55.1369 432.436 55.2731C432.492 55.4093 432.588 55.5258 432.711 55.6077C432.834 55.6896 432.978 55.7333 433.126 55.7333C433.324 55.7333 433.514 55.6548 433.655 55.515C433.795 55.3751 433.874 55.1855 433.874 54.9878Z" fill="white"/>
<path d="M430.578 53.2039L431.53 54.1395C431.955 53.7199 432.529 53.4846 433.127 53.4846C433.725 53.4846 434.299 53.7199 434.724 54.1395L435.676 53.1893C434.998 52.5177 434.082 52.1395 433.127 52.1367C432.652 52.1376 432.183 52.2324 431.745 52.4156C431.308 52.5988 430.911 52.8667 430.578 53.2039Z" fill="white"/>
<path d="M433.127 50.0611C431.612 50.0625 430.159 50.6615 429.084 51.7276L430.036 52.6779C430.859 51.8655 431.97 51.4098 433.127 51.4098C434.284 51.4098 435.395 51.8655 436.218 52.6779L437.17 51.7276C436.64 51.1971 436.009 50.7767 435.315 50.4906C434.622 50.2046 433.878 50.0586 433.127 50.0611Z" fill="white"/>
<path d="M427.531 50.1632L428.483 51.1134C429.09 50.4995 429.813 50.0126 430.61 49.6813C431.408 49.3499 432.263 49.1807 433.127 49.1837C434.867 49.1852 436.537 49.8737 437.77 51.0988L438.723 50.1486C437.988 49.4148 437.116 48.8327 436.156 48.4355C435.195 48.0384 434.166 47.834 433.127 47.834C432.088 47.834 431.058 48.0384 430.098 48.4355C429.138 48.8327 428.266 49.4148 427.531 50.1486V50.1632Z" fill="white"/>
<rect x="224.933" y="343.755" width="233.929" height="30" rx="10" fill="#F8FAFD"/>
<rect x="224.933" y="388.755" width="233.929" height="30" rx="10" fill="#F8FAFD"/>
<rect x="224.933" y="433.755" width="233.929" height="30" rx="10" fill="#F8FAFD"/>
<path d="M272.09 471.831L239.004 468.755L235.929 501.851L269.014 504.927L272.09 471.831Z" fill="#FEECAF"/>
<path d="M259.159 357.766H225.931V391.004H259.159V357.766Z" fill="#FBE0E4"/>
<path d="M302.12 310.76H268.892V343.999H302.12V310.76Z" fill="#FEECAF"/>
<path d="M303.026 354.008L269.798 356.335L272.124 389.573L305.352 387.247L303.026 354.008Z" fill="#C9E9DA"/>
<path d="M440.039 404.831L406.953 401.755L403.878 434.851L436.964 437.927L440.039 404.831Z" fill="#CBE8F7"/>
<path d="M276.848 487.127C276.295 487.127 275.848 487.575 275.848 488.127C275.848 488.68 276.295 489.127 276.848 489.127V487.127ZM312.544 454.048C312.154 453.658 311.521 453.658 311.13 454.048L304.766 460.412C304.376 460.803 304.376 461.436 304.766 461.826C305.157 462.217 305.79 462.217 306.18 461.826L311.837 456.17L317.494 461.826C317.884 462.217 318.518 462.217 318.908 461.826C319.299 461.436 319.299 460.803 318.908 460.412L312.544 454.048ZM276.848 489.127H291.837V487.127H276.848V489.127ZM312.837 468.127V454.755H310.837V468.127H312.837ZM291.837 489.127C303.435 489.127 312.837 479.725 312.837 468.127H310.837C310.837 478.621 302.331 487.127 291.837 487.127V489.127Z" fill="#D8E3F5"/>
<path d="M426.011 215.669C433.108 196.669 423.511 175.469 404.517 168.369C385.523 161.269 364.329 170.869 357.231 189.869C350.133 208.869 359.731 230.069 378.725 237.169C397.719 244.369 418.913 234.669 426.011 215.669Z" fill="#7B838D"/>
<path d="M401.219 217.069C400.819 218.769 399.12 219.769 397.52 219.369L379.026 215.069C377.326 214.669 376.327 212.969 376.727 211.369C377.126 209.769 377.826 208.269 378.726 206.869C379.726 205.569 380.925 204.369 382.325 203.469C383.724 202.569 385.324 201.969 386.923 201.769C388.523 201.469 390.222 201.569 391.822 201.969C395.121 202.769 397.92 204.769 399.62 207.569C401.319 210.369 402.019 213.869 401.219 217.069Z" fill="white"/>
<path d="M400.519 197.269C400.219 198.669 399.419 199.969 398.32 200.969C397.22 201.969 395.92 202.669 394.421 202.869C393.021 203.069 391.522 202.869 390.122 202.269C388.822 201.669 387.623 200.669 386.923 199.469C386.223 198.269 385.723 196.769 385.823 195.269C385.823 193.769 386.323 192.369 387.223 191.169C388.123 189.969 389.222 189.069 390.622 188.569C392.021 188.069 393.521 187.969 394.921 188.269C396.82 188.669 398.519 189.869 399.519 191.569C400.619 193.369 400.919 195.369 400.519 197.269Z" fill="white"/>
<path d="M472.797 204.269L471.697 188.369C471.697 188.369 467.698 191.569 463.999 192.369C460.301 193.169 456.802 190.769 456.702 190.669L452.403 187.869L451.403 204.269C451.003 210.469 456.002 215.669 462.2 215.669C468.398 215.669 473.197 210.469 472.797 204.269Z" fill="#FFC3AA"/>
<path d="M502.388 189.969C502.088 187.769 502.188 185.569 502.588 183.369C504.987 172.569 501.488 163.469 495.59 156.869C490.292 150.869 488.692 141.769 488.692 141.769C484.494 129.569 471.497 121.369 459.901 121.769C448.304 122.269 435.908 130.869 432.609 143.369C432.609 143.369 431.21 153.269 426.711 159.369C421.513 166.569 418.413 175.669 421.613 186.269C422.212 188.369 422.512 190.569 422.312 192.769C422.212 194.369 421.812 196.069 420.913 197.269L504.088 194.369C503.088 193.269 502.588 191.569 502.388 189.969Z" fill="#1F2D3D"/>
<path d="M377.725 236.569C377.725 236.569 375.925 229.369 374.526 228.169C373.126 226.969 369.827 223.369 369.128 220.669C368.628 218.869 367.228 219.169 367.228 219.169L368.428 226.269L356.631 216.069C356.331 216.669 356.131 217.369 356.131 218.069C356.131 218.769 356.331 219.469 356.631 220.069C357.731 222.369 357.331 222.069 357.331 222.069C357.331 222.069 355.532 222.769 356.131 224.369C356.631 225.569 357.131 226.769 357.731 227.869C357.231 228.269 356.831 228.769 356.631 229.369C356.331 229.969 356.231 230.569 356.231 231.169C355.632 232.269 355.432 233.469 355.432 234.669C355.432 236.769 358.431 241.269 358.431 241.269L375.326 253.169L384.423 241.569L377.725 236.569Z" fill="#FFC3AA"/>
<path d="M364.529 222.869C365.529 224.069 366.629 225.169 367.928 226.169C369.028 227.269 370.328 228.269 371.627 229.169C369.428 226.769 367.129 224.669 364.529 222.869Z" fill="#DB7368"/>
<path d="M357.232 221.369C358.032 222.869 358.932 224.269 360.032 225.669C360.931 227.069 362.031 228.369 363.231 229.669C361.431 226.669 359.432 223.869 357.232 221.369Z" fill="#DB7368"/>
<path d="M357.232 227.169C357.532 228.069 357.932 228.869 358.432 229.669C358.832 230.469 359.432 231.269 360.032 231.969C359.732 231.069 359.332 230.269 358.832 229.469C358.432 228.569 357.832 227.769 357.232 227.169Z" fill="#DB7368"/>
<path d="M356.232 230.969C356.132 231.069 356.432 231.769 356.832 232.569C357.232 233.369 357.532 234.069 357.732 233.969C357.832 233.869 357.732 233.169 357.332 232.269C356.832 231.469 356.332 230.869 356.232 230.969Z" fill="#DB7368"/>
<path d="M509.986 489.569L513.585 555.969L489.492 561.769L484.693 496.869L509.986 489.569Z" fill="#FFC3AA"/>
<path d="M514.285 555.469L518.383 573.469H490.692L489.492 561.769L514.285 555.469Z" fill="#3C4858"/>
<path d="M418.613 521.869L412.815 565.869L391.521 564.369L396.02 524.069L418.613 521.869Z" fill="#FFC3AA"/>
<path d="M391.322 559.669C391.322 559.669 367.429 567.769 367.029 572.169L412.815 573.469L413.215 561.469L411.516 561.769C404.618 563.169 397.62 562.469 391.322 559.669Z" fill="#3C4858"/>
<path d="M412.716 573.47V569.77L368.829 569.87C368.829 569.87 366.73 570.67 366.929 572.17L412.716 573.47Z" fill="#1F2D3D"/>
<path d="M492.191 299.069C492.191 299.069 509.086 327.269 509.086 344.169L513.285 549.769L486.593 556.169L466.199 355.269C466.199 355.269 416.914 556.669 415.314 556.669C413.715 556.669 389.422 552.369 389.422 552.369L426.211 300.069L492.191 299.069Z" fill="#1F2D3D"/>
<path d="M381.524 238.569L368.928 250.769L401.218 279.669L410.715 257.369L381.524 238.569Z" fill="#8ED1B2"/>
<path d="M507.387 275.369L482.794 265.569L488.292 245.169L508.386 251.969L507.387 275.369Z" fill="#8ED1B2"/>
<path d="M403.118 280.869C396.919 277.869 395.42 270.469 398.419 264.369L423.911 209.869C424.511 208.569 425.411 207.369 426.511 206.369C429.41 203.869 432.709 201.869 436.308 200.669C439.906 199.469 443.705 198.969 447.504 199.169L474.096 198.469C474.096 198.469 494.99 198.469 502.788 214.969C503.387 216.169 515.484 240.269 523.481 256.169C524.381 257.869 524.881 259.769 524.981 261.769C525.081 263.669 524.781 265.669 524.081 267.469C523.381 269.269 522.282 270.869 520.882 272.269C519.482 273.669 517.883 274.669 515.984 275.369C512.685 276.569 509.086 276.469 505.887 275.169C502.688 273.869 500.088 271.269 498.689 268.069L489.991 248.669L484.493 276.469L492.391 299.369L426.511 300.269L431.609 269.669L433.208 247.869L419.813 275.069C419.113 276.569 418.113 277.869 416.813 278.969C415.614 280.069 414.114 280.869 412.615 281.469C411.015 281.969 409.416 282.269 407.716 282.069C406.117 281.969 404.517 281.569 403.118 280.869Z" fill="#8ED1B2"/>
<path d="M518.383 573.469H490.691L490.392 570.869L517.883 570.169L518.383 573.169" fill="#1F2D3D"/>
<path d="M497.29 219.869L484.693 276.469" stroke="#67C198" stroke-miterlimit="10" stroke-linecap="round"/>
<path d="M442.005 231.969L419.412 276.169" stroke="#67C198" stroke-miterlimit="10" stroke-linecap="round"/>
<path d="M490.292 251.069L501.988 270.869" stroke="#67C198" stroke-miterlimit="10" stroke-linecap="round"/>
<path d="M498.79 270.069C498.79 270.069 495.69 265.569 496.09 260.969" stroke="#67C198" stroke-miterlimit="10" stroke-linecap="round"/>
<path d="M52.112 563.142L52.2139 546.735L21.4972 546.327L21.1406 567.881L71.6729 569.257C67.3431 566.76 52.112 563.142 52.112 563.142Z" fill="#3C4858"/>
<path d="M71.6721 569.257L21.1398 567.881L21.0889 570.327L22.9736 570.48C31.4297 571.041 66.1197 572.824 71.774 571.142C73.3531 570.735 72.9966 570.072 71.6721 569.257Z" fill="#1F2D3D"/>
<path d="M120.778 563.143L120.88 546.735L90.1632 546.378L89.8066 567.831L140.288 569.257C135.805 566.71 120.778 563.143 120.778 563.143Z" fill="#3C4858"/>
<path d="M140.237 569.257L89.756 567.831L89.7051 570.378L91.5899 570.531C100.046 571.092 134.736 572.875 140.39 571.194C141.969 570.735 141.664 570.022 140.237 569.257Z" fill="#1F2D3D"/>
<path d="M124.701 322.175L129.744 556.926L81.8602 557.945L78.6001 369.411L58.377 559.983H12.8877L32.2958 322.787L124.701 322.175Z" fill="#1F2D3D"/>
<path d="M121.339 262.15L122.408 206.762C112.577 197.08 107.33 194.227 93.6273 192.596C92.2009 192.443 90.9274 192.29 89.9086 192.188L56.8487 191.985C51.9585 192.188 47.9342 193.666 43.8081 194.481C30.7675 196.978 21.3946 206.507 18.7457 215.271C16.6062 222.456 2.85247 276.01 2.85247 276.01L0.0507812 292.163L30.8184 281.003V292.621L30.8694 330.277H124.395C124.65 320.086 121.339 262.15 121.339 262.15Z" fill="#FEDB6B"/>
<path d="M14.1103 276.774L60.2109 270.201L68.9725 285.895L26.1321 305.207C23.738 306.277 21.14 306.838 18.5421 306.838C11.0539 306.838 4.27895 302.303 1.42632 295.373L0 292.01L14.1103 276.774Z" fill="#FEDB6B"/>
<path d="M108.299 195.959C108.299 195.959 121.339 200.392 126.79 212.927C130.356 221.08 135.602 260.469 135.602 260.469L142.225 273.207C143.804 276.265 144.619 279.679 144.619 283.093V285.029C144.619 289.972 142.938 294.761 139.779 298.634C136.112 303.118 130.763 305.972 125.007 306.481C118.385 307.093 110.438 307.347 108.706 305.36C105.701 301.895 101.167 292.672 101.167 292.672L120.422 282.43L112.17 267.093L108.299 195.959Z" fill="#FEDB6B"/>
<path d="M37.4912 235.399V272.239" stroke="#FDC511" stroke-width="0.509552" stroke-miterlimit="10"/>
<path d="M13.7031 274.888L60.5678 270.863L68.9728 285.946L30.1058 303.525" stroke="#FDC511" stroke-width="0.509552" stroke-miterlimit="10"/>
<path d="M112.679 237.233V258.277" stroke="#FDC511" stroke-width="0.509552" stroke-miterlimit="10"/>
<path d="M133.667 266.889L116.856 284.519" stroke="#FDC511" stroke-width="0.509552" stroke-miterlimit="10"/>
<path d="M105.598 297.869C105.598 297.869 108.552 309.029 124.445 306.787" stroke="#FDC511" stroke-width="0.509552" stroke-miterlimit="10"/>
<path d="M101.728 262.66L100.709 261.895C95.5131 258.023 88.9418 256.494 82.5744 257.717C77.3785 258.736 72.5392 260.978 68.464 264.341L60.5684 270.864L68.9734 285.895L74.6787 277.895C74.6787 277.895 80.0274 285.131 80.9443 284.367C81.9121 283.602 83.0328 281.309 83.0328 281.309L79.2123 275.959L88.3306 277.844L101.677 271.73L95.9715 264.494L101.677 266.38V262.66H101.728Z" fill="#FFBF9D"/>
<path d="M86.5979 261.284L59.5488 299.296L108.145 292.01L129.591 254.507L86.5979 261.284Z" fill="#1A2E35"/>
<path d="M118.741 270.66C116.856 270.66 115.175 271.781 114.513 273.564C113.799 275.399 112.781 277.539 111.609 278.201C109.47 279.373 105.853 280.29 103.917 279.322C101.981 278.405 94.2895 271.475 92.965 272.24C91.6406 273.004 90.469 274.736 91.7934 276.265C93.1179 277.794 100.249 282.431 98.925 283.959C97.6006 285.488 82.5733 278.711 80.281 279.322C77.9887 279.934 76.6134 281.36 77.9887 282.278C79.3132 283.195 89.5521 287.067 90.1124 288.392C90.1124 288.392 74.7286 284.367 74.1682 285.335C73.6079 286.303 72.6401 287.832 74.1682 288.392C75.6964 288.953 88.9917 292.418 90.1124 293.029C91.284 293.59 95.2573 294.762 96.0214 294.762C96.429 294.762 99.4344 295.781 102.236 296.749C105.343 297.819 108.756 297.717 111.813 296.494L113.392 295.883C115.837 294.915 117.365 292.469 117.161 289.87L116.856 284.622L118.537 280.29L118.741 270.66Z" fill="#FFBF9D"/>
<path d="M89.5004 161.157C90.7739 165.641 95.4094 168.239 99.8921 166.965C104.375 165.692 106.973 161.055 105.699 156.571C104.426 152.087 99.7902 149.488 95.3075 150.762C90.8248 152.036 88.2269 156.673 89.5004 161.157Z" fill="#FF9574"/>
<path d="M86.0879 179.042L86.6992 192.851C87.0558 200.647 80.994 207.169 73.2002 207.475C65.1007 207.781 58.4786 201.156 58.6823 193.055L59.6502 160.749L86.0879 179.042Z" fill="#F8B498"/>
<path d="M91.5896 125.539C93.3216 127.169 98.059 133.539 98.5175 135.883C99.9947 143.73 103.051 163.042 100.046 171.806C96.1742 182.965 87.056 189.844 72.4872 186.787C72.4872 186.787 59.2938 186.074 51.7547 160.494C40.3442 121.513 73.7098 108.978 91.5896 125.539Z" fill="#F8B498"/>
<path d="M93.2691 155.857C93.5238 156.876 94.5935 157.488 95.6123 157.233C96.6311 156.978 97.2424 155.908 96.9877 154.889C96.733 153.87 95.6633 153.259 94.6445 153.513C93.5747 153.768 92.9635 154.838 93.2691 155.857Z" fill="#101010"/>
<path d="M76.2042 156.367C76.4589 157.386 77.5286 157.997 78.5474 157.742C79.5662 157.488 80.1775 156.417 79.9228 155.398C79.6681 154.379 78.5984 153.768 77.5796 154.023C76.5608 154.277 75.9495 155.347 76.2042 156.367Z" fill="#101010"/>
<path d="M87.0039 152.137L90.1622 160.952C90.7225 162.583 89.8056 164.366 88.1755 164.825" stroke="#FF9574" stroke-width="1.12315" stroke-miterlimit="10" stroke-linecap="round" stroke-linejoin="round"/>
<path d="M90.4682 167.934L77.7842 168.392C77.7842 168.392 77.8861 173.029 84.0498 172.825C90.1626 172.621 90.4682 167.934 90.4682 167.934Z" fill="white"/>
<path d="M90.9775 145.004C90.9775 145.004 94.1867 144.239 98.7204 146.634" stroke="#1F2D3D" stroke-width="3.2541" stroke-miterlimit="10" stroke-linecap="round"/>
<path d="M80.1271 145.717C80.1271 145.717 71.9258 144.647 67.8506 148.774" stroke="#1F2D3D" stroke-width="3.2541" stroke-miterlimit="10" stroke-linecap="round"/>
<path d="M98.1107 134.711C98.1107 134.711 95.7165 131.603 93.5771 132.876C89.9094 135.119 83.6438 137.819 67.7506 133.998C67.7506 133.998 60.1096 131.705 60.0077 137.361C59.9058 143.017 62.8094 160.545 62.8094 160.545L57.4098 161.666L48.3934 151.781L44.8786 132.061C43.9617 126.762 47.069 121.615 52.163 119.985C60.8228 117.182 73.8634 114.227 90.215 116.673C94.6468 117.335 98.0088 121.564 97.6013 126.048L98.1107 134.711Z" fill="#1F2D3D"/>
<path d="M41.9227 163.399C43.349 168.392 48.5448 171.297 53.537 169.87C58.5291 168.443 61.4326 163.246 60.0063 158.252C58.58 153.259 53.3841 150.354 48.392 151.781C43.3999 153.208 40.4964 158.405 41.9227 163.399Z" fill="#F8B498"/>
<path d="M46.7617 157.998C46.7617 157.998 53.6895 156.112 55.3705 163.755" stroke="#FF9574" stroke-width="1.12315" stroke-miterlimit="10" stroke-linecap="round" stroke-linejoin="round"/>
</svg>
