<svg width="695" height="679" viewBox="0 0 695 679" fill="none" xmlns="http://www.w3.org/2000/svg">
<path fill-rule="evenodd" clip-rule="evenodd" d="M604.821 229.775L499.007 549.987L161.77 548.316L59.0461 227.007L332.867 30.1386L604.821 229.775Z" fill="#F0F4FB"/>
<g clip-path="url(#clip0)">
<path d="M502.513 440.872L236.147 407.071L282.526 42.2225L555.516 76.9219C556.976 77.1465 558.211 77.8203 559.11 78.9432C560.008 80.0662 560.345 81.526 560.233 82.9859L516.1 430.429C515.876 432.001 515.427 433.573 514.641 434.92C513.855 436.268 512.844 437.503 511.496 438.514C510.261 439.525 508.801 440.198 507.229 440.647C505.657 440.984 504.085 441.097 502.513 440.872Z" fill="#4E5865"/>
<path d="M550.351 86.3548L292.744 53.5645L248.612 400.446L506.219 433.236L550.351 86.3548Z" fill="#ECF1FA"/>
<path d="M539.346 80.6276L281.852 47.8373L237.72 394.719L495.326 427.509L539.346 80.6276Z" fill="#F4F7FC"/>
<path d="M304.311 69.2857C304.199 70.2963 303.75 71.307 303.076 72.0931C302.402 72.8791 301.504 73.4406 300.493 73.6652C299.483 73.8898 298.36 73.8898 297.461 73.5529C296.451 73.216 295.552 72.6546 294.991 71.7562C294.317 70.9701 293.98 69.9595 293.868 68.8365C293.756 67.8258 293.98 66.7029 294.542 65.8045C295.103 64.9062 295.889 64.1201 296.788 63.6709C297.686 63.2217 298.809 62.9971 299.82 63.1094C300.493 63.2217 301.167 63.4463 301.729 63.7832C302.29 64.1201 302.852 64.5693 303.301 65.1307C303.75 65.6922 304.087 66.2537 304.199 66.9275C304.311 67.8258 304.311 68.4996 304.311 69.2857Z" fill="#4E5865"/>
<path d="M299.37 107.691C299.258 108.702 298.809 109.712 298.135 110.498C297.461 111.284 296.563 111.846 295.552 112.183C294.541 112.407 293.418 112.407 292.52 112.07C291.509 111.734 290.611 111.172 290.049 110.274C289.376 109.488 289.039 108.477 288.927 107.354C288.814 106.343 289.039 105.22 289.6 104.322C290.162 103.424 290.948 102.638 291.846 102.188C292.745 101.739 293.868 101.515 294.878 101.627C296.226 101.852 297.573 102.525 298.359 103.648C299.145 104.996 299.482 106.343 299.37 107.691Z" fill="#4E5865"/>
<path d="M294.429 146.208C294.316 147.219 293.867 148.23 293.193 149.016C292.52 149.802 291.621 150.363 290.611 150.588C289.6 150.812 288.589 150.812 287.579 150.475C286.568 150.139 285.782 149.577 285.108 148.679C284.434 147.893 284.097 146.882 283.985 145.871C283.873 144.861 284.097 143.738 284.659 142.839C285.22 141.941 286.006 141.155 286.905 140.706C287.803 140.257 288.926 140.032 289.937 140.144C290.611 140.257 291.284 140.481 291.846 140.818C292.407 141.155 292.969 141.604 293.418 142.166C293.867 142.727 294.204 143.288 294.316 143.962C294.541 144.861 294.541 145.534 294.429 146.208Z" fill="#4E5865"/>
<path d="M289.6 184.726C289.488 185.736 289.039 186.747 288.365 187.533C287.691 188.319 286.793 188.881 285.782 189.218C284.772 189.442 283.649 189.442 282.75 189.105C281.74 188.768 280.841 188.207 280.28 187.309C279.606 186.522 279.269 185.512 279.157 184.389C279.045 183.378 279.269 182.255 279.831 181.357C280.392 180.459 281.178 179.672 282.077 179.223C282.975 178.774 284.098 178.549 285.109 178.662C286.456 178.886 287.804 179.56 288.59 180.683C289.376 181.918 289.713 183.378 289.6 184.726Z" fill="#4E5865"/>
<path d="M284.659 223.243C284.547 224.254 284.098 225.264 283.424 226.05C282.75 226.836 281.852 227.398 280.841 227.735C279.83 227.959 278.707 227.959 277.809 227.622C276.798 227.285 275.9 226.724 275.339 225.826C274.665 225.04 274.328 224.029 274.216 222.906C274.103 221.895 274.328 220.772 274.889 219.874C275.451 218.976 276.237 218.19 277.135 217.74C278.034 217.291 279.157 217.067 280.167 217.179C280.841 217.291 281.515 217.516 282.076 217.853C282.638 218.19 283.199 218.639 283.648 219.2C284.098 219.762 284.434 220.323 284.547 220.997C284.659 221.783 284.771 222.569 284.659 223.243Z" fill="#4E5865"/>
<path d="M279.719 261.76C279.606 262.771 279.157 263.782 278.483 264.568C277.81 265.354 276.911 265.915 275.901 266.14C274.89 266.365 273.879 266.365 272.869 266.028C271.858 265.691 270.96 265.129 270.398 264.231C269.724 263.445 269.387 262.434 269.275 261.424C269.163 260.413 269.387 259.29 269.949 258.392C270.51 257.493 271.296 256.707 272.195 256.258C273.093 255.809 274.216 255.584 275.227 255.696C275.901 255.809 276.574 256.033 277.136 256.37C277.697 256.707 278.259 257.156 278.708 257.718C279.157 258.279 279.494 258.841 279.606 259.515C279.831 260.301 279.831 260.974 279.719 261.76Z" fill="#4E5865"/>
<path d="M274.89 300.166C274.778 301.176 274.329 302.187 273.655 302.973C272.981 303.759 272.083 304.321 271.072 304.657C270.061 304.882 268.938 304.882 268.04 304.545C267.029 304.208 266.131 303.647 265.57 302.748C264.896 301.962 264.559 300.952 264.447 299.829C264.334 298.818 264.671 297.695 265.12 296.797C265.682 295.898 266.468 295.112 267.366 294.663C268.265 294.214 269.388 293.989 270.398 294.102C271.746 294.326 272.981 295 273.879 296.123C274.665 297.47 275.115 298.818 274.89 300.166Z" fill="#4E5865"/>
<path d="M269.949 338.683C269.836 339.694 269.387 340.704 268.713 341.49C268.04 342.276 267.141 342.838 266.131 343.063C265.12 343.287 263.997 343.287 263.099 342.95C262.088 342.613 261.19 342.052 260.628 341.154C259.954 340.367 259.617 339.357 259.505 338.234C259.393 337.223 259.73 336.1 260.179 335.202C260.628 334.303 261.526 333.517 262.425 333.068C263.323 332.619 264.446 332.394 265.457 332.507C266.131 332.619 266.804 332.844 267.366 333.181C267.927 333.517 268.489 333.967 268.938 334.528C269.387 335.09 269.724 335.651 269.836 336.325C270.061 337.335 270.061 338.009 269.949 338.683Z" fill="#4E5865"/>
<path d="M265.12 377.2C265.008 378.211 264.559 379.222 263.885 380.008C263.211 380.794 262.313 381.355 261.302 381.692C260.291 381.917 259.168 381.917 258.27 381.58C257.259 381.243 256.361 380.682 255.799 379.783C255.126 378.997 254.789 377.986 254.677 376.863C254.564 375.853 254.789 374.73 255.35 373.831C255.912 372.933 256.698 372.147 257.596 371.698C258.495 371.249 259.618 371.024 260.628 371.136C261.976 371.361 263.323 372.035 264.109 373.158C264.895 374.393 265.232 375.741 265.12 377.2Z" fill="#4E5865"/>
<path d="M253.666 276.92C253.666 277.033 253.441 277.033 253.104 276.92C252.543 276.808 252.094 276.696 251.532 276.471C250.746 276.134 249.96 275.685 249.174 275.236C248.163 274.562 247.377 273.776 246.591 272.878C245.693 271.755 245.019 270.519 244.57 269.06C244.008 267.487 243.784 265.915 243.784 264.231C243.671 262.322 244.121 260.525 244.907 258.841C245.805 257.044 247.265 255.584 248.837 254.461C250.521 253.338 252.318 252.664 254.339 252.327C256.136 251.991 257.933 251.991 259.73 252.327C262.762 252.889 265.569 254.012 268.04 255.696C269.724 256.819 271.296 258.055 272.756 259.402C273.767 260.413 274.216 260.974 274.103 261.087C273.991 261.199 273.317 260.75 272.194 259.964C270.622 258.841 268.938 257.83 267.253 256.819C264.783 255.472 262.088 254.461 259.393 254.124C257.821 253.9 256.136 253.9 254.564 254.237C252.88 254.573 251.307 255.247 249.848 256.146C248.5 257.044 247.265 258.279 246.479 259.627C245.693 261.087 245.356 262.659 245.356 264.343C245.356 265.803 245.468 267.263 245.917 268.723C246.254 269.958 246.816 271.081 247.489 272.204C248.051 273.102 248.837 273.888 249.623 274.562C250.297 275.123 250.971 275.573 251.644 275.91C252.206 276.246 252.767 276.471 252.992 276.696C253.553 276.808 253.666 276.92 253.666 276.92Z" fill="#374351"/>
<path d="M243.896 353.955C243.896 354.068 243.672 354.068 243.335 353.955C242.773 353.843 242.324 353.731 241.763 353.506C240.976 353.169 240.19 352.72 239.404 352.271C238.394 351.597 237.495 350.811 236.822 349.913C235.923 348.79 235.249 347.555 234.8 346.095C234.239 344.523 234.014 342.95 234.014 341.266C233.902 339.357 234.351 337.56 235.137 335.876C236.035 334.079 237.495 332.619 239.067 331.496C240.752 330.373 242.549 329.7 244.57 329.363C246.367 329.026 248.163 329.026 249.96 329.363C252.992 329.924 255.799 331.047 258.27 332.619C259.954 333.742 261.527 334.977 262.986 336.325C263.997 337.336 264.446 337.897 264.334 338.009C264.222 338.122 263.548 337.673 262.425 336.886C260.853 335.763 259.168 334.753 257.484 333.742C255.013 332.395 252.318 331.384 249.623 331.047C248.051 330.823 246.367 330.822 244.795 331.159C243.11 331.496 241.538 332.17 240.078 333.068C238.618 333.967 237.495 335.314 236.709 336.774C236.035 338.234 235.699 339.806 235.699 341.378C235.699 342.838 235.811 344.298 236.26 345.758C236.597 346.993 237.158 348.116 237.832 349.239C238.394 350.137 239.18 350.923 239.966 351.597C240.64 352.159 241.313 352.608 241.987 352.945C242.549 353.282 243.11 353.506 243.335 353.618C243.672 353.731 243.896 353.955 243.896 353.955Z" fill="#374351"/>
<path opacity="0.2" d="M253.666 276.92C253.666 277.033 253.441 277.033 253.104 276.92C252.543 276.808 252.094 276.696 251.532 276.471C250.746 276.134 249.96 275.685 249.174 275.236C248.163 274.562 247.265 273.776 246.591 272.878C245.693 271.755 245.019 270.519 244.57 269.06C244.008 267.487 243.784 265.915 243.784 264.231C243.671 262.322 244.121 260.525 244.907 258.841C245.805 257.044 247.265 255.584 248.837 254.461C250.521 253.338 252.318 252.664 254.339 252.327C256.136 251.991 257.933 251.991 259.73 252.327C262.762 252.889 265.569 254.012 268.04 255.696C269.724 256.819 271.296 258.055 272.756 259.402C273.767 260.413 274.216 260.974 274.103 261.087C273.991 261.199 273.317 260.75 272.194 259.964C270.622 258.841 268.938 257.83 267.253 256.819C264.783 255.472 262.088 254.461 259.28 254.124C257.708 253.9 256.024 253.9 254.452 254.237C252.767 254.573 251.195 255.247 249.735 256.146C248.388 257.044 247.153 258.279 246.366 259.627C245.58 261.087 245.244 262.659 245.244 264.343C245.244 265.803 245.356 267.263 245.805 268.723C246.142 269.958 246.703 271.081 247.377 272.204C247.939 273.102 248.725 273.888 249.511 274.562C250.185 275.123 250.858 275.573 251.532 275.91C252.094 276.246 252.655 276.471 252.88 276.696C253.553 276.808 253.666 276.92 253.666 276.92Z" fill="#374351"/>
<path opacity="0.2" d="M243.896 353.955C243.896 354.068 243.672 354.068 243.335 353.955C242.773 353.843 242.324 353.731 241.763 353.506C240.976 353.169 240.19 352.72 239.404 352.271C238.394 351.597 237.495 350.811 236.822 349.913C235.923 348.79 235.249 347.555 234.8 346.095C234.239 344.523 234.014 342.95 234.014 341.266C233.902 339.357 234.351 337.56 235.137 335.876C236.035 334.079 237.495 332.619 239.067 331.496C240.752 330.373 242.549 329.7 244.57 329.363C246.367 329.026 248.163 329.026 249.96 329.363C252.992 329.924 255.799 331.047 258.27 332.619C259.954 333.742 261.527 334.977 262.986 336.325C263.997 337.336 264.446 337.897 264.334 338.009C264.222 338.122 263.548 337.673 262.425 336.886C260.853 335.763 259.168 334.753 257.484 333.742C255.013 332.395 252.318 331.384 249.511 331.047C247.939 330.823 246.254 330.822 244.682 331.159C242.998 331.496 241.426 332.17 239.966 333.068C238.506 333.967 237.383 335.314 236.597 336.774C235.923 338.234 235.586 339.806 235.586 341.378C235.586 342.838 235.699 344.298 236.148 345.758C236.485 346.993 237.046 348.116 237.72 349.239C238.281 350.137 239.067 350.923 239.854 351.597C240.527 352.159 241.201 352.608 241.875 352.945C242.436 353.282 242.998 353.506 243.222 353.618C243.672 353.731 243.896 353.955 243.896 353.955Z" fill="#374351"/>
<path d="M329.577 117.461C329.689 117.348 329.689 117.124 329.802 117.011C329.914 116.787 330.026 116.675 330.139 116.45C330.363 116.225 330.476 116.001 330.7 115.888C332.16 114.653 333.957 113.979 335.866 114.092C337.213 114.092 338.561 114.316 339.796 114.765C341.256 115.327 342.716 116.001 344.063 116.899C345.523 117.797 347.095 118.808 348.78 119.706C350.576 120.605 352.598 121.279 354.619 121.503C358.886 121.952 363.603 120.942 368.544 120.156C373.934 119.482 379.436 119.482 384.827 120.268C390.554 120.942 396.393 121.84 402.569 122.626L421.66 125.097L488.588 134.08L508.913 136.888L514.416 137.674L515.876 137.898" stroke="#374351" stroke-width="1.12296" stroke-miterlimit="10" stroke-linecap="round"/>
<path d="M177.978 345.196C177.978 345.196 328.679 196.18 345.748 172.598L335.417 163.165L165.514 332.058L177.978 345.196Z" fill="#C0C3C8"/>
<path d="M132.049 376.639C138.787 376.751 157.204 374.168 182.919 347.554L205.715 327.004L188.31 310.16C188.31 310.16 223.009 278.043 221.325 276.246C219.64 274.45 201.224 291.743 186.625 304.32C173.374 315.774 129.13 356.201 128.119 372.259C128.119 372.821 128.119 373.382 128.344 373.831C128.568 374.393 128.793 374.842 129.13 375.179C129.467 375.628 129.916 375.965 130.477 376.189C131.039 376.526 131.488 376.639 132.049 376.639Z" fill="#374351"/>
<path d="M208.186 306.005L326.883 186.635L321.829 182.031L203.357 300.952L208.186 306.005Z" fill="#374351"/>
<path d="M345.636 172.822C345.636 172.822 356.865 155.08 353.721 154.181C350.577 153.283 335.417 163.165 335.417 163.165L338.337 166.197L321.155 182.817L326.995 186.747L342.716 170.127L345.636 172.822Z" fill="#4E5865"/>
<path d="M229.971 253.563C231.431 253.675 232.891 253.45 234.35 253.001C235.81 252.552 237.045 251.766 238.168 250.755C239.291 249.745 240.19 248.509 240.864 247.162C241.537 245.814 241.874 244.354 241.874 242.895C242.099 236.831 242.323 230.767 242.323 230.767C242.323 230.767 251.419 229.868 252.093 220.885C252.767 211.901 252.43 191.014 252.43 191.014C247.377 188.431 241.874 187.308 236.259 187.757C230.645 188.094 225.254 190.003 220.65 193.148L219.303 194.046L219.864 242.67C219.864 245.477 220.987 248.06 222.896 250.082C224.693 252.103 227.163 253.338 229.971 253.563Z" fill="#FFBE9D"/>
<path d="M229.522 179.223C224.02 179.111 219.079 182.704 216.496 187.084C213.913 191.463 213.352 196.629 213.127 201.57C212.79 211.34 213.015 221.222 213.801 230.991C213.801 231.777 214.026 232.451 214.475 233.013C215.149 233.574 216.047 233.911 216.833 233.911C233.565 236.269 250.522 236.269 267.141 234.023C268.264 232.002 266.692 229.644 264.895 228.184C263.099 226.612 260.965 225.264 260.291 223.131C259.281 219.762 262.65 216.168 261.302 212.799C260.291 210.329 257.035 209.094 255.912 206.623C254.003 202.581 258.944 197.64 256.698 193.709C255.575 191.688 252.88 190.79 251.195 188.993C249.736 187.421 249.062 185.399 247.714 183.715C245.356 181.132 242.099 179.56 238.731 179.335C235.811 178.886 232.667 178.774 229.522 179.223Z" fill="#374351"/>
<path d="M216.608 189.554C214.25 190.677 213.239 193.485 212.903 196.067C212.566 198.65 212.678 201.345 211.555 203.704C210.432 206.062 208.074 208.195 207.4 210.89C206.614 214.372 208.86 218.527 206.839 221.446C205.491 223.355 202.908 223.805 201.224 225.377C198.978 227.623 199.09 231.328 199.539 234.473L229.747 234.248" fill="#374351"/>
<path d="M257.596 471.753L273.093 543.173L293.53 542.724L284.434 465.465L257.596 471.753Z" fill="#FFBE9D"/>
<path d="M184.829 272.877C184.829 272.877 184.492 273.439 183.93 274.225C180.674 279.391 171.466 298.144 179.214 310.609L198.753 293.428L202.01 285.679" fill="#FFBE9D"/>
<path d="M196.058 414.146L189.545 535.986L209.646 540.815L224.693 416.728L196.058 414.146Z" fill="#FFBE9D"/>
<path d="M284.772 260.974L256.473 267.824L254.789 289.722L258.719 302.187C258.719 302.636 265.12 323.635 265.12 323.635L267.141 330.598L202.459 331.271C202.235 323.748 207.288 316.224 207.288 316.224C210.994 309.935 209.983 300.502 208.299 293.428C207.737 291.182 207.063 287.364 206.726 285.118V284.669L203.021 291.182L180.449 274.899C187.748 260.862 198.417 246.601 199.764 245.478C204.48 241.547 210.32 239.414 216.384 239.301L244.345 239.526C244.345 239.526 266.355 236.719 279.157 234.585L284.772 260.974Z" fill="#93D0EF"/>
<path d="M202.571 328.576L183.705 532.393L214.362 532.618L235.923 357.1L267.478 542.5L298.134 536.885L267.478 329.924L202.571 328.576Z" fill="#374351"/>
<path d="M296.338 544.746L296.226 542.5L273.093 543.173L273.317 550.697H274.777C281.178 550.809 307.118 551.034 311.386 549.799C315.99 548.339 296.338 544.746 296.338 544.746Z" fill="#374351"/>
<path d="M188.871 534.976L185.39 550.023H208.523L209.533 540.254L188.871 534.976Z" fill="#374351"/>
<path d="M333.507 187.084L325.085 190.116C324.973 186.747 322.615 183.266 322.615 184.95C322.615 186.635 321.829 195.394 321.829 195.394L304.198 225.938C301.728 230.879 297.348 233.686 294.204 234.136L279.718 237.168L283.873 256.258L303.974 251.317C306.556 250.643 308.915 249.408 310.936 247.723C312.957 246.039 314.529 243.793 315.54 241.435L332.272 201.345C333.395 198.762 334.293 196.067 335.08 193.372C335.304 192.249 335.192 191.126 334.967 190.003C334.63 188.993 334.181 187.982 333.507 187.084Z" fill="#FFBE9D"/>
<path d="M330.476 133.069L511.047 155.865" stroke="#374351" stroke-width="1.12296" stroke-miterlimit="10" stroke-linecap="round"/>
<path d="M328.566 148.342L356.753 151.935" stroke="#374351" stroke-width="1.12296" stroke-miterlimit="10" stroke-linecap="round"/>
<path d="M330.026 220.885L434.237 235.596L492.518 240.088" stroke="#374351" stroke-width="1.12296" stroke-miterlimit="10" stroke-linecap="round"/>
<path d="M489.599 259.29L323.514 238.066" stroke="#374351" stroke-width="1.12296" stroke-miterlimit="10" stroke-linecap="round"/>
<path d="M319.695 255.023L484.321 275.91" stroke="#374351" stroke-width="1.12296" stroke-miterlimit="10" stroke-linecap="round"/>
<path d="M485.556 294.214L317.449 272.765" stroke="#374351" stroke-width="1.12296" stroke-miterlimit="10" stroke-linecap="round"/>
<path d="M315.428 288.374L390.217 298.032" stroke="#374351" stroke-width="1.12296" stroke-miterlimit="10" stroke-linecap="round"/>
</g>
<circle cx="93.8413" cy="96.5143" r="28.1721" transform="rotate(-45 93.8413 96.5143)" fill="#81C7EC"/>
<defs>
<clipPath id="clip0">
<rect width="432.114" height="508.587" fill="white" transform="translate(128.119 42.2224)"/>
</clipPath>
</defs>
</svg>
