<svg width="688" height="673" viewBox="0 0 688 673" fill="none" xmlns="http://www.w3.org/2000/svg">
<path fill-rule="evenodd" clip-rule="evenodd" d="M598.892 227.688L494.039 544.991L159.864 543.336L58.0735 224.945L329.407 29.8644L598.892 227.688Z" fill="#ECF1FA"/>
<rect x="116" y="119.088" width="220" height="224" rx="10" fill="#FCFDFE"/>
<circle cx="131" cy="134.088" r="5" fill="#F5B0B2"/>
<circle cx="146" cy="134.088" r="5" fill="#FEE182"/>
<circle cx="161" cy="134.088" r="5" fill="#A2D9C0"/>
<path d="M321 149.088H131C128.239 149.088 126 151.326 126 154.088V244.088C126 246.849 128.239 249.088 131 249.088H321C323.761 249.088 326 246.849 326 244.088V154.088C326 151.326 323.761 149.088 321 149.088Z" fill="#A2D9C0"/>
<mask id="mask0" mask-type="alpha" maskUnits="userSpaceOnUse" x="126" y="149" width="200" height="101">
<path d="M321 149.088H131C128.239 149.088 126 151.326 126 154.088V244.088C126 246.849 128.239 249.088 131 249.088H321C323.761 249.088 326 246.849 326 244.088V154.088C326 151.326 323.761 149.088 321 149.088Z" fill="#F0F9FD"/>
</mask>
<g mask="url(#mask0)">
<path d="M122 249.088V245.205C122 243.851 122.548 242.556 123.52 241.614L188.491 178.642C190.503 176.691 193.726 176.776 195.634 178.829L232.328 218.331C234.091 220.229 237.012 220.466 239.058 218.877L263.193 200.134C264.933 198.783 267.352 198.73 269.149 200.003L327.889 241.593C329.213 242.531 330 244.052 330 245.674V249.088H122Z" fill="#A2D9C0"/>
<path d="M246 185.088C251.523 185.088 256 180.61 256 175.088C256 169.565 251.523 165.088 246 165.088C240.477 165.088 236 169.565 236 175.088C236 180.61 240.477 185.088 246 185.088Z" fill="#A2D9C0"/>
</g>
<rect x="126" y="259.088" width="200" height="8" rx="4" fill="#E8EEF9"/>
<rect x="126" y="277.088" width="200" height="4" rx="2" fill="#E8EEF9"/>
<rect x="126" y="291.088" width="200" height="4" rx="2" fill="#E8EEF9"/>
<rect x="126" y="305.088" width="200" height="4" rx="2" fill="#E8EEF9"/>
<rect x="126" y="319.088" width="80" height="4" rx="2" fill="#E8EEF9"/>
<rect x="116" y="119.088" width="220" height="224" rx="10" fill="#FCFDFE"/>
<circle cx="131" cy="134.088" r="5" fill="#F5B0B2"/>
<circle cx="146" cy="134.088" r="5" fill="#FEE182"/>
<circle cx="161" cy="134.088" r="5" fill="#A2D9C0"/>
<path d="M321 149.088H131C128.239 149.088 126 151.326 126 154.088V244.088C126 246.849 128.239 249.088 131 249.088H321C323.761 249.088 326 246.849 326 244.088V154.088C326 151.326 323.761 149.088 321 149.088Z" fill="#A2D9C0"/>
<rect x="126" y="259.088" width="200" height="8" rx="4" fill="#E8EEF9"/>
<rect x="126" y="277.088" width="200" height="4" rx="2" fill="#E8EEF9"/>
<rect x="126" y="291.088" width="200" height="4" rx="2" fill="#E8EEF9"/>
<rect x="126" y="305.088" width="200" height="4" rx="2" fill="#E8EEF9"/>
<rect x="126" y="319.088" width="80" height="4" rx="2" fill="#E8EEF9"/>
<g clip-path="url(#clip0)">
<path d="M253.521 174.411H268.151L231.576 232.916L195 174.411H222.98L231.576 187.977L239.988 174.411H253.521Z" fill="#41B883"/>
<path d="M195 174.411L231.576 232.916L268.151 174.411H253.521L231.576 209.514L209.447 174.411H195Z" fill="#41B883"/>
<path d="M209.771 174.411L231.667 209.908L253.381 174.411H239.99L231.667 188.064L223.162 174.411H209.771Z" fill="#35495E"/>
</g>
<path d="M407.917 191.216C396.608 179.107 381.186 181.963 368.507 184.933C365.537 182.077 353.086 179.793 344.404 182.077C325.899 186.989 300.197 213.948 326.584 301.563H428.364C433.618 269.807 433.047 218.06 407.917 191.216Z" fill="#8C6239"/>
<path d="M527.289 475.994L392.611 467.769C391.811 465.827 391.24 464.685 391.24 464.685L354.686 465.37L342.806 464.685C342.806 464.685 342.577 465.028 342.349 465.713L219.779 468.112C195.334 468.112 169.632 483.076 169.632 502.039C169.289 520.201 178.085 539.849 200.017 539.392L367.023 538.821L534.029 539.392C555.961 539.849 561.673 526.598 561.787 510.949C564.186 481.82 545.909 476.222 527.289 475.994Z" fill="#1A1A1A"/>
<path d="M215.21 539.392C215.21 539.392 215.438 539.392 216.01 539.392C216.581 539.392 217.38 539.392 218.408 539.392C220.579 539.392 223.549 539.392 227.547 539.278C235.543 539.278 246.966 539.163 261.131 539.163C289.574 539.163 329.098 539.049 373.306 539.049L372.849 539.506C372.62 535.851 372.392 531.967 372.163 527.969C371.706 519.858 371.135 511.976 370.678 504.437L371.135 504.894C330.126 500.325 293.915 496.327 267.87 493.357C254.962 491.872 244.453 490.729 237.257 489.816C233.715 489.359 230.974 489.016 229.032 488.788C228.118 488.673 227.433 488.559 226.862 488.559C226.405 488.445 226.176 488.445 226.176 488.445C226.176 488.445 226.405 488.445 226.862 488.445C227.433 488.445 228.118 488.559 229.032 488.673C230.974 488.902 233.715 489.13 237.257 489.473C244.453 490.272 254.962 491.301 267.87 492.671C293.915 495.527 330.126 499.411 371.25 503.866H371.592V504.209C372.049 511.748 372.62 519.744 373.077 527.74C373.306 531.738 373.534 535.622 373.763 539.278V539.735H373.306C329.098 539.62 289.689 539.62 261.131 539.62C246.966 539.506 235.429 539.506 227.547 539.506C223.663 539.506 220.579 539.392 218.408 539.392C217.38 539.392 216.581 539.392 216.01 539.392C215.553 539.392 215.21 539.392 215.21 539.392Z" fill="#1A2E35"/>
<path d="M249.707 491.529C249.593 491.644 247.88 490.273 245.024 488.559C242.054 486.732 237.827 484.676 232.801 483.191C227.775 481.706 222.977 481.249 219.55 481.249C216.124 481.249 213.953 481.477 213.953 481.249C213.953 481.134 214.524 481.02 215.438 480.906C216.352 480.677 217.837 480.563 219.55 480.563C223.092 480.449 227.889 480.792 233.03 482.277C238.17 483.762 242.511 486.046 245.367 487.988C246.852 489.016 247.88 489.816 248.679 490.501C249.365 491.072 249.707 491.415 249.707 491.529Z" fill="#1A2E35"/>
<path d="M516.78 484.333C516.894 484.561 490.279 490.958 457.38 498.726C424.481 506.38 397.866 512.434 397.866 512.205C397.751 511.977 424.367 505.58 457.266 497.812C490.05 490.045 516.78 484.105 516.78 484.333Z" fill="#1A2E35"/>
<path d="M494.391 481.705C494.505 482.048 489.25 483.076 483.996 486.732C478.627 490.273 475.771 494.728 475.543 494.613C475.428 494.499 475.999 493.357 477.37 491.643C478.627 489.93 480.797 487.76 483.539 485.932C486.28 484.104 489.022 482.962 491.078 482.276C493.02 481.705 494.276 481.591 494.391 481.705Z" fill="#1A2E35"/>
<path d="M437.389 318.812L486.28 399.23C492.334 409.168 492.677 421.277 487.308 431.558C481.025 443.438 468.003 450.749 453.953 450.406L378.903 448.35L376.961 422.534L443.101 410.539L398.551 337.66L437.389 318.812Z" fill="#FFBF9D"/>
<path d="M285.119 455.889L345.319 471.881L346.576 453.833L291.174 421.505L331.726 346.227L297.685 328.75L254.962 403C244.682 422.191 254.277 446.065 275.067 452.691L285.119 455.889Z" fill="#FFBF9D"/>
<path d="M426.08 376.499L467.318 354.795C467.318 354.795 460.464 340.287 449.726 325.323C436.932 307.731 417.17 295.395 394.781 290.597L347.375 291.168C340.635 291.853 335.038 293.224 330.469 295.052V294.823C304.767 300.535 276.209 356.622 276.209 356.622L313.677 376.384L314.476 382.324C315.619 390.092 318.931 397.403 324.3 403.343L313.334 475.08L434.99 477.593L419.455 426.189L426.08 376.499Z" fill="#9FD0B1"/>
<path d="M325.328 403.685C325.328 403.685 324.643 403.228 323.501 402.315C322.358 401.401 320.873 399.802 319.388 397.745C316.304 393.519 313.562 386.322 314.362 378.212C314.933 374.214 316.076 370.558 317.104 367.246C318.246 363.933 319.274 361.077 320.302 358.678C321.216 356.279 322.13 354.338 322.701 352.967C323.272 351.596 323.729 350.911 323.729 350.911C323.843 350.911 323.501 351.71 323.044 353.081C322.473 354.68 321.787 356.508 320.873 358.907C319.959 361.306 318.931 364.276 317.903 367.474C316.875 370.787 315.733 374.328 315.276 378.212C314.933 382.096 315.39 385.865 316.304 389.064C317.218 392.377 318.589 395.118 319.959 397.288C322.815 401.629 325.443 403.571 325.328 403.685Z" fill="#1A2E35"/>
<path d="M307.051 492.443L300.197 412.367H448.355L438.531 493.471L307.051 492.443Z" fill="#CCCCCC"/>
<path d="M383.701 455.09C383.701 460.344 379.474 464.571 374.219 464.571C368.965 464.571 364.738 460.344 364.738 455.09C364.738 449.835 368.965 445.608 374.219 445.608C379.474 445.608 383.701 449.835 383.701 455.09Z" fill="#FAFAFA"/>
<path d="M371.706 508.093L396.837 511.634V538.935L373.762 538.364L371.706 508.093Z" fill="#FFBF9D"/>
<path d="M396.837 511.634H408.146C410.316 511.634 412.487 512.205 414.429 513.347L420.368 516.774C422.31 517.916 428.593 521.001 430.764 521.8C437.617 523.971 449.155 526.941 451.668 528.883C458.636 534.252 456.466 540.648 452.696 541.22C449.383 541.791 396.837 539.049 396.837 539.049V511.634Z" fill="#C4E1CD"/>
<path d="M356.628 272.548L357.428 300.535C357.656 310.587 365.881 318.583 375.819 318.698C386.899 318.812 395.581 309.331 394.438 298.364L388.727 245.133L356.628 272.548Z" fill="#FFC3AA"/>
<path d="M333.896 201.268C330.812 203.895 328.87 207.436 328.07 211.435C325.786 222.972 321.216 247.075 325.329 259.412C330.698 275.404 343.72 285.57 364.738 281.572C364.738 281.572 389.07 280.43 395.124 244.676C403.691 193.843 360.055 179.107 333.896 201.268Z" fill="#FFC3AA"/>
<path d="M362.224 194.3C362.224 194.3 339.036 191.102 328.184 211.32C328.184 211.32 329.326 181.963 364.623 186.075L362.224 194.3Z" fill="#8C6239"/>
<path d="M362.225 194.3C362.225 194.3 375.018 194.985 377.532 207.779C379.473 217.375 370.221 227.884 385.185 243.533L400.492 230.397C400.492 230.397 410.773 185.847 364.738 186.075L362.225 194.3Z" fill="#8C6239"/>
<path d="M332.525 237.137C332.182 238.622 330.583 239.535 329.098 239.078C327.613 238.736 326.699 237.137 327.156 235.652C327.499 234.167 329.098 233.253 330.583 233.71C332.068 234.167 332.868 235.652 332.525 237.137Z" fill="#101010"/>
<path d="M356.056 237.593C355.714 239.078 354.114 239.992 352.629 239.535C351.144 239.193 350.231 237.593 350.688 236.108C351.03 234.623 352.629 233.71 354.115 234.166C355.485 234.623 356.399 236.108 356.056 237.593Z" fill="#101010"/>
<path d="M341.32 228.683L335.951 244.333C335.152 246.732 336.522 249.245 338.921 249.93" stroke="#FF9574" stroke-width="1.65007" stroke-miterlimit="10" stroke-linecap="round" stroke-linejoin="round"/>
<path d="M336.066 256.556L351.716 254.728C351.716 254.728 352.744 261.125 344.976 262.039C337.209 262.838 336.066 256.556 336.066 256.556Z" fill="white"/>
<path d="M332.296 222.287C332.296 222.287 327.384 221.487 320.873 225.485" stroke="#8C6239" stroke-width="4.87492" stroke-miterlimit="10" stroke-linecap="round"/>
<path d="M348.518 222.287C348.518 222.287 360.74 219.888 367.251 225.485" stroke="#8C6239" stroke-width="4.87492" stroke-miterlimit="10" stroke-linecap="round"/>
<path d="M335.723 236.451C335.723 242.048 331.611 246.503 326.585 246.503C321.559 246.503 317.446 242.048 317.446 236.451C317.446 230.854 321.559 226.399 326.585 226.399C331.611 226.399 335.723 230.854 335.723 236.451Z" stroke="white" stroke-width="1.56257" stroke-miterlimit="10"/>
<path d="M366.109 237.365C366.109 242.962 361.654 247.417 356.056 247.417C350.459 247.417 346.004 242.962 346.004 237.365C346.004 231.768 350.459 227.313 356.056 227.313C361.539 227.199 366.109 231.768 366.109 237.365Z" stroke="white" stroke-width="1.64321" stroke-miterlimit="10"/>
<path d="M335.724 236.451C335.724 236.451 340.864 232.91 345.89 237.365" stroke="white" stroke-width="1.64321" stroke-miterlimit="10"/>
<path d="M366.108 237.365L389.069 236.223" stroke="white" stroke-width="1.64321" stroke-miterlimit="10"/>
<path d="M396.152 259.183C404.29 259.183 410.888 252.586 410.888 244.447C410.888 236.309 404.29 229.712 396.152 229.712C388.013 229.712 381.416 236.309 381.416 244.447C381.416 252.586 388.013 259.183 396.152 259.183Z" fill="#FFC3AA"/>
<path d="M402.777 240.107C402.777 240.107 391.925 237.022 389.069 248.902" stroke="#FF9574" stroke-width="1.65007" stroke-miterlimit="10" stroke-linecap="round" stroke-linejoin="round"/>
<defs>
<clipPath id="clip0">
<rect width="73.1514" height="73.1514" fill="white" transform="translate(195 167.088)"/>
</clipPath>
</defs>
</svg>
