<svg width="50" height="50" viewBox="0 0 50 50" fill="none" xmlns="http://www.w3.org/2000/svg">
<path d="M8.85417 0.625H41.1458C46.0417 0.625 50 4.58333 50 9.47917V40.5208C50 45.4167 46.0417 49.375 41.1458 49.375H8.85417C3.95833 49.375 0 45.4167 0 40.5208V9.47917C0 4.58333 3.95833 0.625 8.85417 0.625Z" fill="#330000"/>
<path d="M24.2289 29.8751H16.4789L14.8955 34.7709C14.8539 34.9584 14.6872 35.0834 14.4997 35.0626H10.583C10.3539 35.0626 10.2914 34.9376 10.3539 34.6876L17.0622 15.3751C17.1247 15.1667 17.1872 14.9376 17.2705 14.6876C17.3539 14.2501 17.3955 13.7917 17.3955 13.3334C17.3747 13.2292 17.458 13.1251 17.5622 13.1042C17.583 13.1042 17.6039 13.1042 17.6247 13.1042H22.958C23.1247 13.1042 23.208 13.1667 23.2289 13.2709L30.833 34.7292C30.8955 34.9584 30.833 35.0626 30.6247 35.0626H26.2705C26.1247 35.0834 25.9789 34.9792 25.9372 34.8334L24.2289 29.8751ZM17.6872 25.6459H22.9789C22.8539 25.2084 22.6872 24.6876 22.4997 24.1459C22.3122 23.5834 22.1247 22.9792 21.9372 22.3542C21.7289 21.7084 21.5414 21.0834 21.333 20.4376C21.1247 19.7917 20.9372 19.1876 20.7705 18.5834C20.6039 18.0001 20.458 17.4584 20.3122 16.9584H20.2705C20.083 17.8542 19.8539 18.7501 19.5622 19.6459C19.2497 20.6459 18.9372 21.6876 18.6039 22.7292C18.3122 23.7917 17.9997 24.7709 17.6872 25.6459Z" fill="#FF9A00"/>
<path d="M35.3743 16.6667C34.6868 16.6875 34.0201 16.4167 33.5201 15.9375C33.0409 15.4167 32.7909 14.7292 32.8118 14.0208C32.7909 13.3125 33.0618 12.6458 33.5618 12.1667C34.0618 11.6875 34.7284 11.4375 35.4159 11.4375C36.2284 11.4375 36.8534 11.6875 37.3118 12.1667C37.7701 12.6667 38.0201 13.3333 37.9993 14.0208C38.0201 14.7292 37.7701 15.4167 37.2701 15.9375C36.7909 16.4375 36.0826 16.7083 35.3743 16.6667ZM33.0409 34.75V18.7083C33.0409 18.5 33.1243 18.4167 33.3118 18.4167H37.4368C37.6243 18.4167 37.7076 18.5208 37.7076 18.7083V34.75C37.7076 34.9792 37.6243 35.0833 37.4368 35.0833H33.3534C33.1451 35.0833 33.0409 34.9583 33.0409 34.75Z" fill="#FF9A00"/>
</svg>
