<svg width="51" height="50" viewBox="0 0 51 50" fill="none" xmlns="http://www.w3.org/2000/svg">
<g clip-path="url(#clip0)">
<path d="M9.29948 0.98999H41.5911C46.4874 0.98999 50.4453 4.94832 50.4453 9.84416V40.8858C50.4453 45.7817 46.4874 49.74 41.5911 49.74H9.29948C4.40365 49.74 0.445312 45.7817 0.445312 40.8858V9.84416C0.445312 4.94832 4.40365 0.98999 9.29948 0.98999Z" fill="#00005B"/>
<path d="M13.9875 26.0105H19.2787C19.1537 25.573 18.987 25.0526 18.7995 24.5109C18.6125 23.948 18.4245 23.3442 18.2375 22.7192C18.0287 22.073 17.8412 21.448 17.6329 20.8026C17.425 20.1567 17.2375 19.5526 17.0704 18.9484C16.9037 18.3651 16.7579 17.823 16.612 17.323H16.5704C16.3829 18.2192 16.1537 19.1146 15.862 20.0109C15.5495 21.0109 15.2375 22.0526 14.9037 23.0942C14.6329 24.1567 14.3 25.1359 13.9875 26.0105ZM20.5287 30.1567H12.7787L11.1954 35.073C11.1537 35.2609 10.9875 35.3859 10.8 35.3651H6.88285C6.65368 35.3651 6.59118 35.2401 6.65368 34.9901L13.362 15.7609C13.4245 15.5526 13.487 15.3651 13.5704 15.1151C13.6537 14.6776 13.6954 14.2192 13.6954 13.7609C13.675 13.6567 13.7579 13.5526 13.8625 13.5317H19.2583C19.4037 13.5317 19.5079 13.5942 19.5287 13.698L27.1329 35.0526C27.1954 35.2813 27.1329 35.3859 26.9245 35.3859H22.5704C22.4245 35.4063 22.2787 35.3026 22.2375 35.1567" fill="#9999FF"/>
<path d="M32.8831 25.1981H37.279C37.8206 25.1981 38.2165 25.1981 38.4665 25.1777C38.6331 25.1569 38.8002 25.1152 38.9456 25.0111V24.8027C38.9456 24.5319 38.9035 24.2819 38.8206 24.0319C38.4456 22.8652 37.3415 22.0731 36.1127 22.1152C34.9665 22.0527 33.8831 22.6569 33.3415 23.6986C33.0915 24.1777 32.9452 24.6777 32.8831 25.1981ZM39.4877 28.2402H32.8831C32.9665 28.8861 33.1748 29.5319 33.529 30.0944C33.904 30.6569 34.4248 31.0944 35.0502 31.3444C35.8831 31.6986 36.7998 31.8861 37.7165 31.8652C38.4456 31.8444 39.1748 31.7819 39.8831 31.6361C40.529 31.5527 41.154 31.3861 41.7373 31.1569C41.8415 31.0736 41.904 31.1148 41.904 31.3236V34.5111C41.904 34.5944 41.8831 34.6777 41.8623 34.7611C41.8206 34.8236 41.779 34.8652 41.7165 34.9069C41.0498 35.1986 40.3623 35.4069 39.6331 35.5319C38.654 35.7194 37.6748 35.8027 36.6748 35.7819C35.0915 35.7819 33.7581 35.5319 32.6748 35.0527C31.6535 34.6152 30.7581 33.9277 30.0498 33.0731C29.3831 32.2611 28.904 31.3444 28.6127 30.3444C28.3206 29.3652 28.1748 28.3444 28.1748 27.3023C28.1748 26.1777 28.3415 25.0731 28.6956 23.9898C29.029 22.9486 29.5498 21.9902 30.2581 21.1361C30.9456 20.3027 31.7998 19.6361 32.779 19.1569C33.7581 18.6777 34.9252 18.5106 36.2581 18.5106C37.3623 18.4902 38.4665 18.6981 39.4877 19.1569C40.3415 19.5319 41.0915 20.0944 41.6748 20.8231C42.2165 21.5319 42.654 22.3231 42.9248 23.1986C43.1956 24.0319 43.3206 24.8861 43.3206 25.7402C43.3206 26.2402 43.2998 26.6777 43.279 27.0736C43.2377 27.4694 43.2165 27.7611 43.1956 27.9486C43.1748 28.0944 43.0498 28.2194 42.904 28.2194C42.779 28.2194 42.5498 28.2402 42.2165 28.2611C41.8831 28.3027 41.4873 28.3236 41.0081 28.3236C40.529 28.3236 40.029 28.2402 39.4877 28.2402Z" fill="#9999FF"/>
</g>
<defs>
<clipPath id="clip0">
<rect width="50" height="50" fill="white" transform="translate(0.445312)"/>
</clipPath>
</defs>
</svg>
