<svg width="50" height="50" viewBox="0 0 50 50" fill="none" xmlns="http://www.w3.org/2000/svg">
<path d="M22.3165 4.48884L3.68406 12.2147C2.6479 12.6444 2.65864 14.1192 3.70129 14.5333L22.4117 21.9685C24.0558 22.6218 25.8866 22.6218 27.5304 21.9685L46.2411 14.5333C47.2835 14.1192 47.2945 12.6444 46.2581 12.2147L27.6259 4.48884C25.9259 3.78399 24.0163 3.78399 22.3165 4.48884Z" fill="#FFBF00"/>
<path d="M26.6309 26.0288V44.6028C26.6309 45.4863 27.5198 46.0912 28.3393 45.7657L49.1885 37.6562C49.6645 37.4671 49.9766 37.0063 49.9766 36.4934V17.9194C49.9766 17.0359 49.0876 16.431 48.2681 16.7565L27.419 24.8659C26.9433 25.055 26.6309 25.5159 26.6309 26.0288Z" fill="#26B5F8"/>
<path d="M21.7621 26.987L15.5746 29.9808L14.9463 30.2851L1.88475 36.5565C1.05678 36.9568 0 36.3522 0 35.4305V17.9972C0 17.6638 0.170621 17.3759 0.399435 17.1591C0.494915 17.0631 0.603107 16.9841 0.715537 16.9216C1.02768 16.7339 1.47288 16.6838 1.85141 16.8338L21.6582 24.6978C22.665 25.0981 22.7441 26.5117 21.7621 26.987Z" fill="#ED3049"/>
<path d="M21.7621 26.987L15.5746 29.9808L0.399414 17.1591C0.494894 17.0631 0.603086 16.9841 0.715516 16.9216C1.02766 16.7339 1.47286 16.6838 1.85139 16.8338L21.6582 24.6978C22.6649 25.0981 22.744 26.5117 21.7621 26.987Z" fill="black" fill-opacity="0.25"/>
</svg>
