<svg width="51" height="50" viewBox="0 0 51 50" fill="none" xmlns="http://www.w3.org/2000/svg">
<path d="M7.55054 16.3018C5.83435 16.3018 4.46875 17.6674 4.46875 19.3835V32.2204C4.46875 33.9366 5.83435 35.3022 7.55054 35.3022C9.26673 35.3022 10.6323 33.9366 10.6323 32.2204V19.3835C10.6323 17.6674 9.26673 16.3018 7.55054 16.3018ZM43.4937 16.3018C41.7775 16.3018 40.4119 17.6674 40.4119 19.3835V32.2204C40.4119 33.9366 41.7775 35.3022 43.4937 35.3022C45.2099 35.3022 46.5755 33.9366 46.5755 32.2204V19.3835C46.5755 17.6674 45.2099 16.3018 43.4937 16.3018Z" fill="#A4C639"/>
<path d="M20.3865 30.9509C18.6703 30.9509 17.3047 32.3165 17.3047 34.0327V46.8696C17.3047 48.5858 18.6703 49.9513 20.3865 49.9513C22.1027 49.9513 23.4683 48.5858 23.4683 46.8696V34.0327C23.4683 32.3165 22.1027 30.9509 20.3865 30.9509ZM30.656 30.9509C28.9398 30.9509 27.5742 32.3165 27.5742 34.0327V46.8696C27.5742 48.5858 28.9398 49.9513 30.656 49.9513C32.3722 49.9513 33.7378 48.5858 33.7378 46.8696V34.0327C33.7378 32.3165 32.3722 30.9509 30.656 30.9509Z" fill="#A4C639"/>
<path d="M16.9896 0.128317C16.9167 0.129062 16.8488 0.147858 16.7819 0.18495C16.5621 0.306763 16.4899 0.559288 16.612 0.7796L18.7829 4.70145C14.6061 6.87475 11.785 11.0049 11.7793 15.7449H39.2653C39.2596 11.0049 36.4384 6.87475 32.2616 4.70145L34.4326 0.7796C34.5547 0.559288 34.4824 0.306763 34.2627 0.18495C34.1958 0.147858 34.1279 0.129012 34.055 0.128317C33.8991 0.126812 33.7512 0.204736 33.668 0.35485L31.4688 4.31917C29.6697 3.52116 27.6517 3.07324 25.5223 3.07324C23.3928 3.07324 21.3749 3.52116 19.5758 4.31917L17.3765 0.35485C17.2933 0.204736 17.1455 0.126821 16.9896 0.128317ZM11.7793 16.8304V36.7511C11.7793 38.5918 13.2611 40.0736 15.1018 40.0736H35.9428C37.7835 40.0736 39.2653 38.5918 39.2653 36.7511V16.8304H11.7793Z" fill="#A4C639"/>
<path d="M19.1781 8.42029C18.5506 8.42029 18.0312 8.93966 18.0312 9.56711C18.0312 10.1946 18.5506 10.7139 19.1781 10.7139C19.8055 10.7139 20.3249 10.1946 20.3249 9.56711C20.3249 8.93966 19.8055 8.42029 19.1781 8.42029ZM31.8639 8.42029C31.2365 8.42029 30.7171 8.93966 30.7171 9.56711C30.7171 10.1946 31.2365 10.7139 31.8639 10.7139C32.4914 10.7139 33.0107 10.1946 33.0107 9.56711C33.0107 8.93966 32.4914 8.42029 31.8639 8.42029Z" fill="white"/>
</svg>
