<svg width="48" height="49" viewBox="0 0 48 49" fill="none" xmlns="http://www.w3.org/2000/svg">
<g clip-path="url(#clip0)">
<path d="M26.0602 4.02305C29.2701 -0.171476 33.7325 -0.191925 33.7325 -0.191925C33.7325 -0.191925 34.3963 3.75164 31.2075 7.55055C27.8026 11.6069 23.9325 10.9432 23.9325 10.9432C23.9325 10.9432 23.2058 7.75298 26.0602 4.02305ZM24.3408 13.7056C25.9921 13.7056 29.0568 11.4551 33.046 11.4551C39.9127 11.4551 42.614 16.2995 42.614 16.2995C42.614 16.2995 37.3307 18.9777 37.3307 25.4762C37.3307 32.8071 43.9123 35.3335 43.9123 35.3335C43.9123 35.3335 39.3115 48.1724 33.0971 48.1724C30.2429 48.1724 28.0239 46.2654 25.0165 46.2654C21.9518 46.2654 18.9105 48.2436 16.9297 48.2436C11.255 48.2437 4.08594 36.0647 4.08594 26.2747C4.08594 16.6428 10.1541 11.5901 15.8458 11.5901C19.5459 11.5901 22.4172 13.7056 24.3408 13.7056Z" fill="#999999"/>
</g>
<defs>
<clipPath id="clip0">
<rect width="48" height="48" fill="white" transform="translate(0 0.0253906)"/>
</clipPath>
</defs>
</svg>
