<svg width="580" height="478" viewBox="0 0 580 478" fill="none" xmlns="http://www.w3.org/2000/svg">
<ellipse cx="283.858" cy="238.807" rx="238.762" ry="238.807" fill="#F0F4FB"/>
<rect y="161" width="152.555" height="155.329" rx="6.93433" fill="#FCFDFE"/>
<circle cx="10.4008" cy="171.401" r="3.46716" fill="#F5B0B2"/>
<circle cx="20.8031" cy="171.401" r="3.46716" fill="#FEE182"/>
<circle cx="31.2035" cy="171.401" r="3.46716" fill="#A2D9C0"/>
<path d="M142.153 181.803H10.4008C8.4859 181.803 6.93359 183.355 6.93359 185.27V247.679C6.93359 249.594 8.48589 251.146 10.4008 251.146H142.153C144.068 251.146 145.62 249.594 145.62 247.679V185.27C145.62 183.355 144.068 181.803 142.153 181.803Z" fill="#EDEEEF"/>
<rect x="6.93359" y="258.081" width="138.687" height="5.54746" rx="2.77373" fill="#E8EEF9"/>
<rect x="6.93359" y="270.562" width="138.687" height="2.77373" rx="1.38687" fill="#E8EEF9"/>
<rect x="6.93359" y="280.27" width="138.687" height="2.77373" rx="1.38687" fill="#E8EEF9"/>
<rect x="6.93359" y="289.978" width="138.687" height="2.77373" rx="1.38687" fill="#E8EEF9"/>
<rect x="6.93359" y="299.687" width="55.4746" height="2.77373" rx="1.38687" fill="#E8EEF9"/>
<path d="M67.285 243.742L54.25 188.75L105.806 204.109" fill="white"/>
<path d="M73.6523 220.106L76.909 233.861" stroke="black" stroke-width="0.601191" stroke-miterlimit="10"/>
<path d="M86.5155 223.971L73.6523 220.106" stroke="black" stroke-width="0.601191" stroke-miterlimit="10"/>
<path d="M76.9102 233.861L86.5167 223.971" stroke="black" stroke-width="0.601191" stroke-miterlimit="10"/>
<path d="M76.9081 233.861L64.0449 229.996" stroke="black" stroke-width="0.601191" stroke-miterlimit="10"/>
<path d="M64.0449 229.996L67.3015 243.76L76.9081 233.861" stroke="black" stroke-width="0.601191" stroke-miterlimit="10"/>
<path d="M64.0449 229.996L73.6515 220.106" stroke="black" stroke-width="0.601191" stroke-miterlimit="10"/>
<path d="M73.6523 220.106L83.2675 210.207" stroke="black" stroke-width="0.601191" stroke-miterlimit="10"/>
<path d="M83.2676 210.207L92.8741 200.317" stroke="black" stroke-width="0.601191" stroke-miterlimit="10"/>
<path d="M80.0098 196.452L83.2664 210.207" stroke="black" stroke-width="0.601191" stroke-miterlimit="10"/>
<path d="M83.2682 210.207L70.3965 206.352" stroke="black" stroke-width="0.601191" stroke-miterlimit="10"/>
<path d="M70.3965 206.352L73.6531 220.106" stroke="black" stroke-width="0.601191" stroke-miterlimit="10"/>
<path d="M73.6522 220.106L60.7891 216.241" stroke="black" stroke-width="0.601191" stroke-miterlimit="10"/>
<path d="M60.7891 216.241L64.0457 229.996" stroke="black" stroke-width="0.601191" stroke-miterlimit="10"/>
<path d="M57.5332 202.487L60.7898 216.241" stroke="black" stroke-width="0.601191" stroke-miterlimit="10"/>
<path d="M70.3964 206.351L57.5332 202.487" stroke="black" stroke-width="0.601191" stroke-miterlimit="10"/>
<path d="M60.7891 216.242L70.3956 206.352" stroke="black" stroke-width="0.601191" stroke-miterlimit="10"/>
<path d="M70.3965 206.342L80.0116 196.452" stroke="black" stroke-width="0.601191" stroke-miterlimit="10"/>
<path d="M80.0104 196.452L67.1387 192.587" stroke="black" stroke-width="0.601191" stroke-miterlimit="10"/>
<path d="M67.1387 192.587L70.3953 206.342" stroke="black" stroke-width="0.601191" stroke-miterlimit="10"/>
<path d="M57.532 202.487L54.2754 188.723L67.1386 192.588" stroke="black" stroke-width="0.601191" stroke-miterlimit="10"/>
<path d="M57.5332 202.487L67.1398 192.587" stroke="black" stroke-width="0.601191" stroke-miterlimit="10"/>
<path d="M96.1296 214.072L105.736 204.182L92.873 200.317" stroke="black" stroke-width="0.601191" stroke-miterlimit="10"/>
<path d="M92.873 200.317L96.1296 214.072" stroke="black" stroke-width="0.601191" stroke-miterlimit="10"/>
<path d="M96.1307 214.072L83.2676 210.207" stroke="black" stroke-width="0.601191" stroke-miterlimit="10"/>
<path d="M83.2676 210.207L86.5156 223.971" stroke="black" stroke-width="0.601191" stroke-miterlimit="10"/>
<path d="M86.5156 223.971L96.1308 214.072" stroke="black" stroke-width="0.601191" stroke-miterlimit="10"/>
<path d="M92.8729 200.317L80.0098 196.452" stroke="black" stroke-width="0.601191" stroke-miterlimit="10"/>
<path d="M319.321 299.275H269.045V393.034H319.321V299.275Z" fill="#EBEBEB"/>
<path d="M266.938 299.275H205.146V393.034H266.938V299.275Z" fill="#EBEBEB"/>
<path d="M197.634 299.275H138.932V393.034H197.634V299.275Z" fill="#EBEBEB"/>
<mask id="mask0" mask-type="alpha" maskUnits="userSpaceOnUse" x="45" y="0" width="478" height="478">
<ellipse cx="283.856" cy="238.807" rx="238.762" ry="238.807" fill="#4556A3"/>
</mask>
<g mask="url(#mask0)">
<path d="M206.2 218.439L185.485 225.954C185.485 225.954 151.921 237.683 148.34 239.86C144.759 242.037 171.161 386.433 171.161 386.433C171.161 386.433 157.398 431.591 155.291 446.2C153.185 460.808 153.676 475.907 153.676 475.907L333.224 475.556L321.287 392.473L324.658 334.602L304.435 230.87L275.645 223.777L247.488 218.369H206.2V218.439Z" fill="#4E5865"/>
</g>
<path d="M148.34 239.859C148.34 239.859 133.875 247.022 127.766 255.029C121.657 262.965 111.686 302.646 109.369 315.358C107.051 327.999 100.1 342.818 101.574 348.928L103.47 355.53C103.47 355.53 102.066 381.796 105.788 388.82C109.509 395.843 114.214 394.438 114.214 394.438C114.214 394.438 114.354 412.347 124.746 414.594C144.056 418.879 166.245 415.648 172.776 405.324C179.306 395 178.955 390.646 178.955 390.646L170.037 352.65L165.052 342.397L160.207 313.251L148.34 239.859Z" fill="#4E5865"/>
<path d="M304.576 230.94C304.576 230.94 313.494 233.398 326.976 249.973C340.528 266.547 373.179 307.492 373.179 307.492C373.179 307.492 391.928 299.135 398.037 300.048C401.618 294.008 406.954 289.091 413.274 285.931C422.613 281.226 432.514 284.878 432.514 284.878L445.293 313.602C447.4 319.01 450.56 330.668 447.54 335.585C443.538 342.186 435.112 352.932 422.894 347.735C422.894 347.735 383.15 383.763 369.177 388.118C351.693 393.525 323.956 384.536 316.583 344.644C309.281 304.753 304.576 230.94 304.576 230.94Z" fill="#4E5865"/>
<g opacity="0.3">
<path opacity="0.3" d="M201.847 439.808H201.988C201.285 439.176 200.583 438.615 199.881 437.982L201.847 439.808Z" fill="black"/>
</g>
<path d="M423.525 292.884L462.074 259.103L473.59 282.35L432.091 328.351C432.091 328.351 419.241 307.492 423.525 292.884Z" fill="#FFBE9D"/>
<path d="M509.824 255.451C509.824 255.451 506.032 252.361 498.027 254.96C490.022 257.558 485.037 254.538 481.736 253.625C478.155 252.642 474.364 252.712 470.782 253.836C467.201 254.889 464.042 256.926 461.514 259.735L473.521 282.49L512.492 284.176L544.652 282.982C545.003 282.139 545.073 281.156 544.792 280.243C544.512 279.33 543.88 278.557 543.107 278.136L549.918 276.24C549.918 276.24 549.918 270.13 542.616 270.621L544.301 267.11C544.301 267.11 539.947 262.123 535.804 267.812C535.804 267.812 531.732 264.441 525.763 269.849L519.373 271.534L503.855 266.056C503.715 265.846 516.494 262.053 509.824 255.451Z" fill="#FFBE9D"/>
<path d="M158.873 349.912C159.715 349.912 234.427 315.358 234.427 315.358L246.505 337.832C246.505 337.832 185.485 392.964 172.284 395.211C159.154 397.458 144.057 395.422 144.057 381.375C144.057 367.329 158.873 349.912 158.873 349.912Z" fill="#FFBE9D"/>
<path d="M282.668 310.933C282.668 310.933 278.876 307.843 270.871 310.442C262.936 313.04 257.881 310.02 254.58 309.107C250.929 308.194 247.137 308.335 243.626 309.458C240.045 310.582 236.885 312.619 234.428 315.428L246.435 337.902L285.336 339.588L317.496 338.394C317.847 337.551 317.917 336.568 317.636 335.655C317.355 334.742 316.723 333.969 315.951 333.477L322.762 331.581C322.762 331.581 322.762 325.471 315.459 325.963L317.145 322.451C317.145 322.451 312.861 317.465 308.648 323.153C308.648 323.153 304.576 319.782 298.607 325.19L292.147 326.876L276.629 321.398C276.488 321.398 289.338 317.535 282.668 310.933Z" fill="#FFBE9D"/>
<path d="M190.401 86.8256C203.953 72.4282 222.21 75.7993 237.377 79.3108C240.888 75.8695 255.774 73.1305 266.096 75.8695C288.074 81.6987 318.83 113.794 287.372 218.369H166.035C159.715 180.444 160.347 118.781 190.401 86.8256Z" fill="#1B2D3F"/>
<path d="M251.491 183.815L250.508 217.174C250.227 229.114 240.467 238.735 228.529 238.806C215.399 238.946 205.006 227.639 206.27 214.506L213.081 150.946L251.491 183.815Z" fill="#FFB092"/>
<path d="M278.594 98.7652C282.245 101.855 284.562 106.139 285.475 110.845C288.214 124.681 293.691 153.405 288.775 168.083C282.386 187.186 266.867 199.196 241.799 194.42C241.799 194.42 212.729 193.086 205.567 150.455C195.455 89.9862 247.347 72.3582 278.594 98.7652Z" fill="#FFB092"/>
<path d="M244.889 90.4777C244.889 90.4777 272.625 86.6852 285.545 110.775C285.545 110.775 284.211 75.7994 242.08 80.6453L244.889 90.4777Z" fill="#1B2D3F"/>
<path d="M244.891 90.4772C244.891 90.4772 229.723 91.32 226.634 106.56C224.317 118.078 235.411 130.509 217.576 149.12L199.389 133.459C199.389 133.459 187.171 80.2936 242.082 80.6448L244.891 90.4772Z" fill="#1B2D3F"/>
<path d="M280.21 141.606C280.701 143.362 282.457 144.415 284.283 143.994C286.108 143.573 287.091 141.747 286.67 139.991C286.178 138.235 284.423 137.182 282.597 137.603C280.842 138.024 279.789 139.85 280.21 141.606Z" fill="#101010"/>
<path d="M252.263 142.168C252.755 143.923 254.51 144.977 256.336 144.556C258.091 144.064 259.145 142.308 258.723 140.552C258.232 138.797 256.476 137.743 254.651 138.164C252.825 138.586 251.772 140.412 252.263 142.168Z" fill="#101010"/>
<path d="M269.816 131.493L276.136 150.175C277.119 152.984 275.434 156.004 272.625 156.776" stroke="#FF8E6B" stroke-width="1.96739" stroke-miterlimit="10" stroke-linecap="round" stroke-linejoin="round"/>
<path d="M275.996 164.712L257.388 162.535C257.388 162.535 256.194 170.12 265.463 171.174C274.591 172.297 275.996 164.712 275.996 164.712Z" fill="white"/>
<path d="M280.49 123.838C280.49 123.838 286.318 122.855 294.042 127.701" stroke="#1B2D3F" stroke-width="5.8127" stroke-miterlimit="10" stroke-linecap="round"/>
<path d="M261.111 123.838C261.111 123.838 246.576 120.958 238.852 127.7" stroke="#1B2D3F" stroke-width="5.8127" stroke-miterlimit="10" stroke-linecap="round"/>
<path d="M276.418 140.694C276.418 147.295 281.263 152.703 287.302 152.703C293.27 152.703 298.186 147.366 298.186 140.694C298.186 134.092 293.341 128.684 287.302 128.684C281.333 128.684 276.418 134.092 276.418 140.694Z" stroke="white" stroke-width="1.8631" stroke-miterlimit="10"/>
<path d="M240.256 141.747C240.256 148.349 245.663 153.756 252.263 153.756C258.864 153.756 264.27 148.419 264.27 141.747C264.27 135.075 258.864 129.737 252.263 129.737C245.663 129.808 240.256 135.145 240.256 141.747Z" stroke="white" stroke-width="1.95938" stroke-miterlimit="10"/>
<path d="M276.417 140.693C276.417 140.693 270.379 136.48 264.27 141.747" stroke="white" stroke-width="1.95938" stroke-miterlimit="10"/>
<path d="M240.256 141.747L212.871 140.413" stroke="white" stroke-width="1.95938" stroke-miterlimit="10"/>
<path d="M204.443 167.803C214.138 167.803 221.998 159.942 221.998 150.245C221.998 140.548 214.138 132.687 204.443 132.687C194.748 132.687 186.889 140.548 186.889 150.245C186.889 159.942 194.748 167.803 204.443 167.803Z" fill="#FFB092"/>
<path d="M196.578 145.118C196.578 145.118 209.428 141.395 212.869 155.582" stroke="#FF8E6B" stroke-width="1.96739" stroke-miterlimit="10" stroke-linecap="round" stroke-linejoin="round"/>
<path d="M156.977 293.376L162.734 341.274C162.734 341.274 170.107 339.729 169.546 345.207" stroke="#202E3D" stroke-width="0.702313" stroke-miterlimit="10" stroke-linecap="round" stroke-linejoin="round"/>
<path d="M253.457 320.345C253.457 320.345 269.677 322.452 276.489 321.398" stroke="#FF8E6B" stroke-width="0.702313" stroke-miterlimit="10" stroke-linecap="round" stroke-linejoin="round"/>
<path d="M292.006 326.875C292.006 326.875 301.134 327.788 308.226 326.875" stroke="#FF8E6B" stroke-width="0.702313" stroke-miterlimit="10" stroke-linecap="round" stroke-linejoin="round"/>
<path d="M535.732 267.6C535.732 267.6 529.483 274.272 522.602 275.396" stroke="#FF8E6B" stroke-width="0.702313" stroke-miterlimit="10" stroke-linecap="round" stroke-linejoin="round"/>
<path d="M542.545 270.409C542.545 270.409 538.121 277.292 527.869 277.994" stroke="#FF8E6B" stroke-width="0.702313" stroke-miterlimit="10" stroke-linecap="round" stroke-linejoin="round"/>
<path d="M448.621 207.532L448.27 139.126L506.34 107.663V174.734L448.621 207.532Z" fill="#A6D8F2"/>
<path d="M521.858 102.887L520.945 170.519L579.999 202.685V135.755L521.858 102.887Z" fill="#A6D8F2"/>
<path d="M448.27 207.461L506.902 241.102L564.902 208.234L506.34 173.961L448.27 207.461Z" fill="#81C7EC"/>
<path d="M506.902 241.101L506.551 172.696L564.621 141.232V208.303L506.902 241.101Z" fill="#B9E0F5"/>
<path d="M448.27 104.151L507.534 139.126L566.096 104.994L506.972 69.3862L448.27 104.151Z" fill="#F0F9FD"/>
<path d="M431.839 113.351L430.926 180.984L489.979 213.15V146.219L431.839 113.351Z" fill="#CBE8F7"/>
</svg>
