<svg width="340" height="283" viewBox="0 0 340 283" fill="none" xmlns="http://www.w3.org/2000/svg">
<path d="M157.345 84.5985C157.935 84.5985 158.413 84.1204 158.413 83.5307C158.413 82.941 157.935 82.4629 157.345 82.4629C156.755 82.4629 156.277 82.941 156.277 83.5307C156.277 84.1204 156.755 84.5985 157.345 84.5985Z" fill="#E4EBF8"/>
<path d="M161.072 88.5973C161.661 88.5973 162.14 88.1192 162.14 87.5295C162.14 86.9397 161.661 86.4617 161.072 86.4617C160.482 86.4617 160.004 86.9397 160.004 87.5295C160.004 88.1192 160.482 88.5973 161.072 88.5973Z" fill="#E4EBF8"/>
<path d="M155.345 90.2313C155.935 90.2313 156.413 89.7532 156.413 89.1635C156.413 88.5738 155.935 88.0957 155.345 88.0957C154.755 88.0957 154.277 88.5738 154.277 89.1635C154.277 89.7532 154.755 90.2313 155.345 90.2313Z" fill="#E4EBF8"/>
<path d="M159.548 93.8226C160.138 93.8226 160.616 93.3446 160.616 92.7548C160.616 92.1651 160.138 91.687 159.548 91.687C158.959 91.687 158.48 92.1651 158.48 92.7548C158.48 93.3446 158.959 93.8226 159.548 93.8226Z" fill="#E4EBF8"/>
<path d="M164.343 96.7302C164.343 97.3209 163.866 97.798 163.275 97.798C162.684 97.798 162.207 97.3209 162.207 96.7302C162.207 96.1395 162.684 95.6624 163.275 95.6624C163.866 95.6624 164.343 96.1395 164.343 96.7302Z" fill="#E4EBF8"/>
<path d="M157.55 99.4554C158.14 99.4554 158.618 98.9774 158.618 98.3876C158.618 97.7979 158.14 97.3198 157.55 97.3198C156.96 97.3198 156.482 97.7979 156.482 98.3876C156.482 98.9774 156.96 99.4554 157.55 99.4554Z" fill="#E4EBF8"/>
<path d="M165.57 78.0983C166.159 78.0983 166.638 77.6202 166.638 77.0305C166.638 76.4407 166.159 75.9626 165.57 75.9626C164.98 75.9626 164.502 76.4407 164.502 77.0305C164.502 77.6202 164.98 78.0983 165.57 78.0983Z" fill="#E4EBF8"/>
<path d="M169.296 82.0775C169.886 82.0775 170.364 81.5994 170.364 81.0097C170.364 80.42 169.886 79.9419 169.296 79.9419C168.707 79.9419 168.229 80.42 168.229 81.0097C168.229 81.5994 168.707 82.0775 169.296 82.0775Z" fill="#E4EBF8"/>
<path d="M163.57 83.7115C164.159 83.7115 164.638 83.2335 164.638 82.6437C164.638 82.054 164.159 81.5759 163.57 81.5759C162.98 81.5759 162.502 82.054 162.502 82.6437C162.502 83.2335 162.98 83.7115 163.57 83.7115Z" fill="#E4EBF8"/>
<path d="M167.773 87.2992C168.363 87.2992 168.841 86.8211 168.841 86.2314C168.841 85.6416 168.363 85.1636 167.773 85.1636C167.183 85.1636 166.705 85.6416 166.705 86.2314C166.705 86.8211 167.183 87.2992 167.773 87.2992Z" fill="#E4EBF8"/>
<path d="M171.499 91.298C172.089 91.298 172.567 90.8199 172.567 90.2302C172.567 89.6404 172.089 89.1624 171.499 89.1624C170.91 89.1624 170.432 89.6404 170.432 90.2302C170.432 90.8199 170.91 91.298 171.499 91.298Z" fill="#E4EBF8"/>
<path d="M165.775 92.9354C166.365 92.9354 166.843 92.4573 166.843 91.8676C166.843 91.2779 166.365 90.7998 165.775 90.7998C165.185 90.7998 164.707 91.2779 164.707 91.8676C164.707 92.4573 165.185 92.9354 165.775 92.9354Z" fill="#E4EBF8"/>
<path d="M170.046 96.0246C170.046 96.6153 169.569 97.0924 168.978 97.0924C168.387 97.0924 167.91 96.6153 167.91 96.0246C167.91 95.4339 168.387 94.9568 168.978 94.9568C169.591 94.9568 170.046 95.4339 170.046 96.0246Z" fill="#E4EBF8"/>
<path d="M172.726 101.068C173.316 101.068 173.794 100.59 173.794 99.9999C173.794 99.4102 173.316 98.9321 172.726 98.9321C172.136 98.9321 171.658 99.4102 171.658 99.9999C171.658 100.59 172.136 101.068 172.726 101.068Z" fill="#E4EBF8"/>
<path d="M168.046 101.657C168.046 102.248 167.569 102.725 166.978 102.725C166.387 102.725 165.91 102.248 165.91 101.657C165.91 101.067 166.387 100.59 166.978 100.59C167.569 100.59 168.046 101.067 168.046 101.657Z" fill="#E4EBF8"/>
<path d="M172.249 105.227C172.249 105.818 171.772 106.295 171.181 106.295C170.59 106.295 170.113 105.818 170.113 105.227C170.113 104.636 170.59 104.159 171.181 104.159C171.772 104.182 172.249 104.636 172.249 105.227Z" fill="#E4EBF8"/>
<path d="M175.921 109.614C176.146 109.069 175.888 108.444 175.343 108.219C174.798 107.993 174.173 108.252 173.948 108.797C173.722 109.342 173.981 109.966 174.526 110.192C175.07 110.418 175.695 110.159 175.921 109.614Z" fill="#E4EBF8"/>
<path d="M169.181 111.93C169.771 111.93 170.249 111.451 170.249 110.862C170.249 110.272 169.771 109.794 169.181 109.794C168.591 109.794 168.113 110.272 168.113 110.862C168.113 111.451 168.591 111.93 169.181 111.93Z" fill="#E4EBF8"/>
<path d="M177.224 90.5724C177.814 90.5724 178.292 90.0943 178.292 89.5046C178.292 88.9148 177.814 88.4368 177.224 88.4368C176.634 88.4368 176.156 88.9148 176.156 89.5046C176.156 90.0943 176.634 90.5724 177.224 90.5724Z" fill="#E4EBF8"/>
<path d="M180.951 94.5714C181.54 94.5714 182.018 94.0933 182.018 93.5036C182.018 92.9139 181.54 92.4358 180.951 92.4358C180.361 92.4358 179.883 92.9139 179.883 93.5036C179.883 94.0933 180.361 94.5714 180.951 94.5714Z" fill="#E4EBF8"/>
<path d="M175.226 96.2054C175.816 96.2054 176.294 95.7274 176.294 95.1376C176.294 94.5479 175.816 94.0698 175.226 94.0698C174.636 94.0698 174.158 94.5479 174.158 95.1376C174.158 95.7274 174.636 96.2054 175.226 96.2054Z" fill="#E4EBF8"/>
<path d="M179.406 99.7965C179.995 99.7965 180.474 99.3184 180.474 98.7287C180.474 98.139 179.995 97.6609 179.406 97.6609C178.816 97.6609 178.338 98.139 178.338 98.7287C178.338 99.3184 178.816 99.7965 179.406 99.7965Z" fill="#E4EBF8"/>
<path d="M183.132 103.772C183.722 103.772 184.2 103.294 184.2 102.704C184.2 102.115 183.722 101.636 183.132 101.636C182.543 101.636 182.064 102.115 182.064 102.704C182.064 103.294 182.543 103.772 183.132 103.772Z" fill="#E4EBF8"/>
<path d="M177.408 105.429C177.997 105.429 178.475 104.951 178.475 104.362C178.475 103.772 177.997 103.294 177.408 103.294C176.818 103.294 176.34 103.772 176.34 104.362C176.34 104.951 176.818 105.429 177.408 105.429Z" fill="#E4EBF8"/>
<path d="M173.749 70.331C173.749 70.9217 173.272 71.3988 172.681 71.3988C172.09 71.3988 171.613 70.9217 171.613 70.331C171.613 69.7403 172.09 69.2632 172.681 69.2632C173.272 69.2632 173.749 69.7403 173.749 70.331Z" fill="#E4EBF8"/>
<path d="M177.466 74.5631C177.602 73.9892 177.246 73.4141 176.673 73.2786C176.099 73.1431 175.523 73.4984 175.388 74.0724C175.252 74.6463 175.608 75.2214 176.182 75.357C176.756 75.4925 177.331 75.1371 177.466 74.5631Z" fill="#E4EBF8"/>
<path d="M170.705 77.0318C171.294 77.0318 171.772 76.5538 171.772 75.964C171.772 75.3743 171.294 74.8962 170.705 74.8962C170.115 74.8962 169.637 75.3743 169.637 75.964C169.637 76.5538 170.115 77.0318 170.705 77.0318Z" fill="#E4EBF8"/>
<path d="M175.952 79.5319C175.952 80.1226 175.475 80.5997 174.884 80.5997C174.294 80.5997 173.816 80.1226 173.816 79.5319C173.816 78.9412 174.294 78.4641 174.884 78.4641C175.475 78.4868 175.952 78.9412 175.952 79.5319Z" fill="#E4EBF8"/>
<path d="M178.611 84.5985C179.201 84.5985 179.679 84.1204 179.679 83.5307C179.679 82.941 179.201 82.4629 178.611 82.4629C178.021 82.4629 177.543 82.941 177.543 83.5307C177.543 84.1204 178.021 84.5985 178.611 84.5985Z" fill="#E4EBF8"/>
<path d="M173.952 85.1647C173.952 85.7554 173.475 86.2325 172.884 86.2325C172.294 86.2325 171.816 85.7554 171.816 85.1647C171.816 84.574 172.294 84.0969 172.884 84.0969C173.475 84.1196 173.952 84.5967 173.952 85.1647Z" fill="#E4EBF8"/>
<path d="M180.927 64.8773C181.517 64.8773 181.995 64.3992 181.995 63.8095C181.995 63.2198 181.517 62.7417 180.927 62.7417C180.337 62.7417 179.859 63.2198 179.859 63.8095C179.859 64.3992 180.337 64.8773 180.927 64.8773Z" fill="#E4EBF8"/>
<path d="M184.63 68.8744C185.22 68.8744 185.698 68.3963 185.698 67.8066C185.698 67.2168 185.22 66.7388 184.63 66.7388C184.041 66.7388 183.562 67.2168 183.562 67.8066C183.562 68.3963 184.041 68.8744 184.63 68.8744Z" fill="#E4EBF8"/>
<path d="M179.974 69.4423C179.974 70.033 179.496 70.5101 178.906 70.5101C178.315 70.5101 177.838 70.033 177.838 69.4423C177.838 68.8516 178.315 68.3745 178.906 68.3745C179.496 68.3745 179.974 68.8516 179.974 69.4423Z" fill="#E4EBF8"/>
<path d="M183.109 74.0995C183.699 74.0995 184.177 73.6214 184.177 73.0317C184.177 72.4419 183.699 71.9639 183.109 71.9639C182.519 71.9639 182.041 72.4419 182.041 73.0317C182.041 73.6214 182.519 74.0995 183.109 74.0995Z" fill="#E4EBF8"/>
<path d="M186.835 78.0983C187.425 78.0983 187.903 77.6202 187.903 77.0305C187.903 76.4407 187.425 75.9626 186.835 75.9626C186.246 75.9626 185.768 76.4407 185.768 77.0305C185.768 77.6202 186.246 78.0983 186.835 78.0983Z" fill="#E4EBF8"/>
<path d="M181.109 79.736C181.699 79.736 182.177 79.2579 182.177 78.6681C182.177 78.0784 181.699 77.6003 181.109 77.6003C180.519 77.6003 180.041 78.0784 180.041 78.6681C180.041 79.2579 180.519 79.736 181.109 79.736Z" fill="#E4EBF8"/>
<path d="M184.335 83.8695C184.925 83.8695 185.403 83.3914 185.403 82.8017C185.403 82.212 184.925 81.7339 184.335 81.7339C183.746 81.7339 183.268 82.212 183.268 82.8017C183.268 83.3914 183.746 83.8695 184.335 83.8695Z" fill="#E4EBF8"/>
<path d="M188.062 87.8683C188.652 87.8683 189.13 87.3902 189.13 86.8005C189.13 86.2107 188.652 85.7327 188.062 85.7327C187.472 85.7327 186.994 86.2107 186.994 86.8005C186.994 87.3902 187.472 87.8683 188.062 87.8683Z" fill="#E4EBF8"/>
<path d="M182.337 89.506C182.927 89.506 183.405 89.0279 183.405 88.4382C183.405 87.8484 182.927 87.3704 182.337 87.3704C181.748 87.3704 181.27 87.8484 181.27 88.4382C181.27 89.0279 181.748 89.506 182.337 89.506Z" fill="#E4EBF8"/>
<path d="M187.585 92.0258C187.585 92.6165 187.108 93.0936 186.517 93.0936C185.926 93.0936 185.449 92.6165 185.449 92.0258C185.449 91.4351 185.926 90.958 186.517 90.958C187.13 90.958 187.585 91.4351 187.585 92.0258Z" fill="#E4EBF8"/>
<path d="M191.311 96.0246C191.311 96.6153 190.834 97.0924 190.244 97.0924C189.653 97.0924 189.176 96.6153 189.176 96.0246C189.176 95.4339 189.653 94.9568 190.244 94.9568C190.857 94.9568 191.311 95.4339 191.311 96.0246Z" fill="#E4EBF8"/>
<path d="M184.54 98.7298C185.13 98.7298 185.608 98.2518 185.608 97.662C185.608 97.0723 185.13 96.5942 184.54 96.5942C183.951 96.5942 183.473 97.0723 183.473 97.662C183.473 98.2518 183.951 98.7298 184.54 98.7298Z" fill="#E4EBF8"/>
<path d="M192.56 77.3729C193.15 77.3729 193.628 76.8948 193.628 76.3051C193.628 75.7154 193.15 75.2373 192.56 75.2373C191.97 75.2373 191.492 75.7154 191.492 76.3051C191.492 76.8948 191.97 77.3729 192.56 77.3729Z" fill="#E4EBF8"/>
<path d="M196.287 81.3485C196.876 81.3485 197.354 80.8704 197.354 80.2807C197.354 79.691 196.876 79.2129 196.287 79.2129C195.697 79.2129 195.219 79.691 195.219 80.2807C195.219 80.8704 195.697 81.3485 196.287 81.3485Z" fill="#E4EBF8"/>
<path d="M190.56 83.0057C191.15 83.0057 191.628 82.5277 191.628 81.9379C191.628 81.3482 191.15 80.8701 190.56 80.8701C189.97 80.8701 189.492 81.3482 189.492 81.9379C189.492 82.5277 189.97 83.0057 190.56 83.0057Z" fill="#E4EBF8"/>
<path d="M194.763 86.597C195.353 86.597 195.831 86.119 195.831 85.5292C195.831 84.9395 195.353 84.4614 194.763 84.4614C194.173 84.4614 193.695 84.9395 193.695 85.5292C193.695 86.119 194.173 86.597 194.763 86.597Z" fill="#E4EBF8"/>
<path d="M199.534 89.5046C199.534 90.0953 199.057 90.5724 198.466 90.5724C197.876 90.5724 197.398 90.0953 197.398 89.5046C197.398 88.9139 197.876 88.4368 198.466 88.4368C199.057 88.4368 199.534 88.9139 199.534 89.5046Z" fill="#E4EBF8"/>
<path d="M192.765 92.2298C193.355 92.2298 193.833 91.7518 193.833 91.162C193.833 90.5723 193.355 90.0942 192.765 90.0942C192.175 90.0942 191.697 90.5723 191.697 91.162C191.697 91.7518 192.175 92.2298 192.765 92.2298Z" fill="#E4EBF8"/>
<path d="M265.671 73.9418C264.217 75.9411 263.126 74.896 259.219 77.1906C257.083 78.4402 256.061 81.3255 256.561 83.7565C257.06 86.1874 259.219 88.3231 261.672 88.3003C263.263 88.2776 264.717 87.4143 266.216 86.8917C267.716 86.3692 269.601 86.2102 270.715 87.3688C272.26 88.9819 271.192 91.8218 270.397 93.6394C270.056 94.3891 269.897 95.207 269.919 96.0249C270.101 99.6827 273.85 99.7054 275.872 98.1378C277.417 96.9336 278.326 95.1161 279.462 93.5258C280.597 91.9354 282.279 90.4359 284.233 90.5268C286.345 90.6177 287.89 92.4352 289.458 93.8438C291.026 95.2524 293.479 96.3884 295.115 95.0934C296.342 94.1165 296.433 92.2535 296.092 90.7086C295.751 89.1637 295.138 87.6188 295.365 86.0511C295.66 84.0746 297.137 82.7114 298.932 81.689C300.84 80.5758 300.613 77.6904 298.523 76.9634L298.478 76.9407C296.887 76.3954 295.183 76.3046 293.638 75.6684C292.093 75.0323 290.662 73.6237 290.798 71.9652C290.957 69.9886 293.229 68.5573 292.366 66.3535C291.843 65.1267 290.662 64.3088 289.322 64.2861C286.323 64.1952 284.346 66.3535 282.165 67.9893C280.393 69.307 278.03 70.3521 276.031 69.4434C273.759 68.421 273.055 65.4448 271.033 64.0135C269.192 62.7185 266.353 63.1047 264.921 64.8541C263.49 66.6035 263.672 69.4434 265.307 71.011C265.33 70.9655 266.966 72.147 265.671 73.9418Z" fill="#E4EBF8"/>
<path d="M240.474 204.646C241.064 204.646 241.542 204.168 241.542 203.578C241.542 202.989 241.064 202.51 240.474 202.51C239.884 202.51 239.406 202.989 239.406 203.578C239.406 204.168 239.884 204.646 240.474 204.646Z" fill="#E4EBF8"/>
<path d="M244.201 208.645C244.79 208.645 245.268 208.167 245.268 207.577C245.268 206.987 244.79 206.509 244.201 206.509C243.611 206.509 243.133 206.987 243.133 207.577C243.133 208.167 243.611 208.645 244.201 208.645Z" fill="#E4EBF8"/>
<path d="M238.453 210.279C239.042 210.279 239.52 209.801 239.52 209.211C239.52 208.621 239.042 208.143 238.453 208.143C237.863 208.143 237.385 208.621 237.385 209.211C237.385 209.801 237.863 210.279 238.453 210.279Z" fill="#E4EBF8"/>
<path d="M242.656 213.872C243.245 213.872 243.724 213.394 243.724 212.804C243.724 212.214 243.245 211.736 242.656 211.736C242.066 211.736 241.588 212.214 241.588 212.804C241.588 213.394 242.066 213.872 242.656 213.872Z" fill="#E4EBF8"/>
<path d="M247.45 216.78C247.45 217.37 246.973 217.848 246.382 217.848C245.792 217.848 245.314 217.37 245.314 216.78C245.314 216.189 245.792 215.712 246.382 215.712C246.973 215.735 247.45 216.212 247.45 216.78Z" fill="#E4EBF8"/>
<path d="M240.656 219.505C241.245 219.505 241.723 219.027 241.723 218.437C241.723 217.847 241.245 217.369 240.656 217.369C240.066 217.369 239.588 217.847 239.588 218.437C239.588 219.027 240.066 219.505 240.656 219.505Z" fill="#E4EBF8"/>
<path d="M248.677 198.148C249.267 198.148 249.745 197.67 249.745 197.08C249.745 196.49 249.267 196.012 248.677 196.012C248.087 196.012 247.609 196.49 247.609 197.08C247.609 197.67 248.087 198.148 248.677 198.148Z" fill="#E4EBF8"/>
<path d="M252.402 202.123C252.992 202.123 253.47 201.645 253.47 201.055C253.47 200.466 252.992 199.988 252.402 199.988C251.812 199.988 251.334 200.466 251.334 201.055C251.334 201.645 251.812 202.123 252.402 202.123Z" fill="#E4EBF8"/>
<path d="M246.677 203.782C247.267 203.782 247.745 203.304 247.745 202.715C247.745 202.125 247.267 201.647 246.677 201.647C246.087 201.647 245.609 202.125 245.609 202.715C245.609 203.304 246.087 203.782 246.677 203.782Z" fill="#E4EBF8"/>
<path d="M250.88 207.349C251.47 207.349 251.948 206.87 251.948 206.281C251.948 205.691 251.47 205.213 250.88 205.213C250.291 205.213 249.812 205.691 249.812 206.281C249.812 206.87 250.291 207.349 250.88 207.349Z" fill="#E4EBF8"/>
<path d="M254.607 211.347C255.197 211.347 255.675 210.869 255.675 210.28C255.675 209.69 255.197 209.212 254.607 209.212C254.017 209.212 253.539 209.69 253.539 210.28C253.539 210.869 254.017 211.347 254.607 211.347Z" fill="#E4EBF8"/>
<path d="M248.88 213.006C249.47 213.006 249.948 212.528 249.948 211.939C249.948 211.349 249.47 210.871 248.88 210.871C248.291 210.871 247.812 211.349 247.812 211.939C247.812 212.528 248.291 213.006 248.88 213.006Z" fill="#E4EBF8"/>
<path d="M253.175 216.074C253.175 216.665 252.698 217.142 252.107 217.142C251.516 217.142 251.039 216.665 251.039 216.074C251.039 215.483 251.516 215.006 252.107 215.006C252.698 215.006 253.175 215.483 253.175 216.074Z" fill="#E4EBF8"/>
<path d="M255.833 221.117C256.423 221.117 256.901 220.639 256.901 220.049C256.901 219.46 256.423 218.982 255.833 218.982C255.244 218.982 254.766 219.46 254.766 220.049C254.766 220.639 255.244 221.117 255.833 221.117Z" fill="#E4EBF8"/>
<path d="M251.177 221.707C251.177 222.298 250.7 222.775 250.109 222.775C249.518 222.775 249.041 222.298 249.041 221.707C249.041 221.116 249.518 220.639 250.109 220.639C250.7 220.639 251.177 221.116 251.177 221.707Z" fill="#E4EBF8"/>
<path d="M255.356 225.275C255.356 225.865 254.879 226.343 254.288 226.343C253.698 226.343 253.221 225.865 253.221 225.275C253.221 224.684 253.698 224.207 254.288 224.207C254.879 224.23 255.356 224.707 255.356 225.275Z" fill="#E4EBF8"/>
<path d="M258.037 230.341C258.626 230.341 259.104 229.863 259.104 229.274C259.104 228.684 258.626 228.206 258.037 228.206C257.447 228.206 256.969 228.684 256.969 229.274C256.969 229.863 257.447 230.341 258.037 230.341Z" fill="#E4EBF8"/>
<path d="M252.312 231.999C252.902 231.999 253.38 231.521 253.38 230.931C253.38 230.341 252.902 229.863 252.312 229.863C251.722 229.863 251.244 230.341 251.244 230.931C251.244 231.521 251.722 231.999 252.312 231.999Z" fill="#E4EBF8"/>
<path d="M260.331 210.622C260.921 210.622 261.399 210.144 261.399 209.554C261.399 208.964 260.921 208.486 260.331 208.486C259.742 208.486 259.264 208.964 259.264 209.554C259.264 210.144 259.742 210.622 260.331 210.622Z" fill="#E4EBF8"/>
<path d="M264.058 214.621C264.648 214.621 265.126 214.143 265.126 213.553C265.126 212.963 264.648 212.485 264.058 212.485C263.468 212.485 262.99 212.963 262.99 213.553C262.99 214.143 263.468 214.621 264.058 214.621Z" fill="#E4EBF8"/>
<path d="M258.331 216.255C258.921 216.255 259.399 215.777 259.399 215.187C259.399 214.597 258.921 214.119 258.331 214.119C257.742 214.119 257.264 214.597 257.264 215.187C257.264 215.777 257.742 216.255 258.331 216.255Z" fill="#E4EBF8"/>
<path d="M262.535 219.846C263.124 219.846 263.602 219.368 263.602 218.778C263.602 218.189 263.124 217.71 262.535 217.71C261.945 217.71 261.467 218.189 261.467 218.778C261.467 219.368 261.945 219.846 262.535 219.846Z" fill="#E4EBF8"/>
<path d="M266.261 223.822C266.851 223.822 267.329 223.343 267.329 222.754C267.329 222.164 266.851 221.686 266.261 221.686C265.671 221.686 265.193 222.164 265.193 222.754C265.193 223.343 265.671 223.822 266.261 223.822Z" fill="#E4EBF8"/>
<path d="M260.513 225.479C261.103 225.479 261.581 225.001 261.581 224.411C261.581 223.821 261.103 223.343 260.513 223.343C259.923 223.343 259.445 223.821 259.445 224.411C259.445 225.001 259.923 225.479 260.513 225.479Z" fill="#E4EBF8"/>
<path d="M256.878 190.379C256.878 190.969 256.401 191.447 255.81 191.447C255.219 191.447 254.742 190.969 254.742 190.379C254.742 189.788 255.219 189.311 255.81 189.311C256.401 189.311 256.878 189.788 256.878 190.379Z" fill="#E4EBF8"/>
<path d="M259.537 195.444C260.126 195.444 260.604 194.966 260.604 194.376C260.604 193.786 260.126 193.308 259.537 193.308C258.947 193.308 258.469 193.786 258.469 194.376C258.469 194.966 258.947 195.444 259.537 195.444Z" fill="#E4EBF8"/>
<path d="M253.812 197.079C254.402 197.079 254.88 196.601 254.88 196.012C254.88 195.422 254.402 194.944 253.812 194.944C253.222 194.944 252.744 195.422 252.744 196.012C252.744 196.601 253.222 197.079 253.812 197.079Z" fill="#E4EBF8"/>
<path d="M259.059 199.601C259.059 200.192 258.582 200.669 257.992 200.669C257.401 200.669 256.924 200.192 256.924 199.601C256.924 199.01 257.401 198.533 257.992 198.533C258.582 198.533 259.059 199.01 259.059 199.601Z" fill="#E4EBF8"/>
<path d="M261.74 204.646C262.329 204.646 262.807 204.168 262.807 203.578C262.807 202.989 262.329 202.51 261.74 202.51C261.15 202.51 260.672 202.989 260.672 203.578C260.672 204.168 261.15 204.646 261.74 204.646Z" fill="#E4EBF8"/>
<path d="M257.059 205.236C257.059 205.826 256.582 206.303 255.992 206.303C255.401 206.303 254.924 205.826 254.924 205.236C254.924 204.645 255.401 204.168 255.992 204.168C256.582 204.168 257.059 204.645 257.059 205.236Z" fill="#E4EBF8"/>
<path d="M264.035 184.948C264.624 184.948 265.102 184.47 265.102 183.88C265.102 183.291 264.624 182.813 264.035 182.813C263.445 182.813 262.967 183.291 262.967 183.88C262.967 184.47 263.445 184.948 264.035 184.948Z" fill="#E4EBF8"/>
<path d="M267.761 188.924C268.351 188.924 268.829 188.446 268.829 187.856C268.829 187.266 268.351 186.788 267.761 186.788C267.171 186.788 266.693 187.266 266.693 187.856C266.693 188.446 267.171 188.924 267.761 188.924Z" fill="#E4EBF8"/>
<path d="M263.081 189.515C263.081 190.106 262.604 190.583 262.013 190.583C261.422 190.583 260.945 190.106 260.945 189.515C260.945 188.924 261.422 188.447 262.013 188.447C262.604 188.447 263.081 188.924 263.081 189.515Z" fill="#E4EBF8"/>
<path d="M266.238 194.149C266.827 194.149 267.306 193.671 267.306 193.081C267.306 192.491 266.827 192.013 266.238 192.013C265.648 192.013 265.17 192.491 265.17 193.081C265.17 193.671 265.648 194.149 266.238 194.149Z" fill="#E4EBF8"/>
<path d="M269.943 198.148C270.533 198.148 271.011 197.67 271.011 197.08C271.011 196.49 270.533 196.012 269.943 196.012C269.353 196.012 268.875 196.49 268.875 197.08C268.875 197.67 269.353 198.148 269.943 198.148Z" fill="#E4EBF8"/>
<path d="M264.216 199.784C264.806 199.784 265.284 199.305 265.284 198.716C265.284 198.126 264.806 197.648 264.216 197.648C263.626 197.648 263.148 198.126 263.148 198.716C263.148 199.305 263.626 199.784 264.216 199.784Z" fill="#E4EBF8"/>
<path d="M267.443 203.942C268.033 203.942 268.511 203.464 268.511 202.874C268.511 202.285 268.033 201.807 267.443 201.807C266.853 201.807 266.375 202.285 266.375 202.874C266.375 203.464 266.853 203.942 267.443 203.942Z" fill="#E4EBF8"/>
<path d="M271.167 207.918C271.757 207.918 272.235 207.44 272.235 206.85C272.235 206.26 271.757 205.782 271.167 205.782C270.578 205.782 270.1 206.26 270.1 206.85C270.1 207.44 270.578 207.918 271.167 207.918Z" fill="#E4EBF8"/>
<path d="M265.445 209.575C266.034 209.575 266.513 209.097 266.513 208.507C266.513 207.918 266.034 207.439 265.445 207.439C264.855 207.439 264.377 207.918 264.377 208.507C264.377 209.097 264.855 209.575 265.445 209.575Z" fill="#E4EBF8"/>
<path d="M270.716 212.075C270.716 212.666 270.239 213.143 269.648 213.143C269.057 213.143 268.58 212.666 268.58 212.075C268.58 211.484 269.057 211.007 269.648 211.007C270.239 211.03 270.716 211.507 270.716 212.075Z" fill="#E4EBF8"/>
<path d="M274.44 216.074C274.44 216.665 273.963 217.142 273.372 217.142C272.782 217.142 272.305 216.665 272.305 216.074C272.305 215.483 272.782 215.006 273.372 215.006C273.963 215.006 274.44 215.483 274.44 216.074Z" fill="#E4EBF8"/>
<path d="M267.648 218.779C268.238 218.779 268.716 218.301 268.716 217.712C268.716 217.122 268.238 216.644 267.648 216.644C267.058 216.644 266.58 217.122 266.58 217.712C266.58 218.301 267.058 218.779 267.648 218.779Z" fill="#E4EBF8"/>
<path d="M275.667 197.422C276.257 197.422 276.735 196.944 276.735 196.355C276.735 195.765 276.257 195.287 275.667 195.287C275.078 195.287 274.6 195.765 274.6 196.355C274.6 196.944 275.078 197.422 275.667 197.422Z" fill="#E4EBF8"/>
<path d="M279.394 201.421C279.984 201.421 280.462 200.943 280.462 200.353C280.462 199.764 279.984 199.286 279.394 199.286C278.804 199.286 278.326 199.764 278.326 200.353C278.326 200.943 278.804 201.421 279.394 201.421Z" fill="#E4EBF8"/>
<path d="M273.667 203.055C274.257 203.055 274.735 202.577 274.735 201.987C274.735 201.398 274.257 200.92 273.667 200.92C273.078 200.92 272.6 201.398 272.6 201.987C272.6 202.577 273.078 203.055 273.667 203.055Z" fill="#E4EBF8"/>
<path d="M277.871 206.646C278.46 206.646 278.938 206.168 278.938 205.579C278.938 204.989 278.46 204.511 277.871 204.511C277.281 204.511 276.803 204.989 276.803 205.579C276.803 206.168 277.281 206.646 277.871 206.646Z" fill="#E4EBF8"/>
<path d="M282.641 209.554C282.641 210.145 282.164 210.622 281.574 210.622C280.983 210.622 280.506 210.145 280.506 209.554C280.506 208.963 280.983 208.486 281.574 208.486C282.187 208.509 282.641 208.986 282.641 209.554Z" fill="#E4EBF8"/>
<path d="M275.872 212.279C276.462 212.279 276.94 211.801 276.94 211.211C276.94 210.622 276.462 210.144 275.872 210.144C275.283 210.144 274.805 210.622 274.805 211.211C274.805 211.801 275.283 212.279 275.872 212.279Z" fill="#E4EBF8"/>
<path d="M38.4091 168.204C38.0683 170.658 36.6143 170.249 34.2515 174.111C32.9565 176.224 33.4336 179.245 35.0012 181.154C36.5688 183.062 39.4996 183.926 41.658 182.744C43.0438 181.972 43.9299 180.54 44.9977 179.359C46.0655 178.178 47.6558 177.155 49.178 177.655C51.3136 178.337 51.6999 181.358 51.8589 183.335C51.9043 184.153 52.1543 184.948 52.5632 185.652C54.4489 188.787 57.7659 187.061 58.811 184.698C59.6062 182.903 59.538 180.881 59.7879 178.927C60.0378 176.973 60.8103 174.883 62.5824 174.02C64.4681 173.111 66.6946 173.975 68.7393 174.474C70.784 174.974 73.4876 174.838 74.3282 172.884C74.9644 171.43 74.1465 169.749 73.1241 168.567C72.1017 167.386 70.8295 166.295 70.2842 164.819C69.6026 162.956 70.2842 161.025 71.352 159.275C72.5107 157.389 70.9431 154.959 68.762 155.322H68.7166C67.0808 155.595 65.5132 156.322 63.8547 156.481C62.1962 156.64 60.265 156.072 59.6062 154.55C58.811 152.732 60.1514 150.415 58.3339 148.87C57.2888 148.029 55.8575 147.87 54.6761 148.484C51.9952 149.801 51.2682 152.641 50.1095 155.118C49.178 157.117 47.5877 159.139 45.3839 159.298C42.9075 159.457 40.8855 157.185 38.4091 156.89C36.1599 156.617 33.8653 158.298 33.4336 160.502C33.0019 162.706 34.5014 165.137 36.6824 165.727C36.6824 165.75 38.7045 166 38.4091 168.204Z" fill="#E4EBF8"/>
<path d="M124.016 202.532C124.016 204.304 122.585 205.735 120.813 205.735C119.041 205.735 117.609 204.304 117.609 202.532C117.609 200.76 119.041 199.329 120.813 199.329C122.562 199.329 124.016 200.76 124.016 202.532Z" fill="#F5F5F5"/>
<path d="M130.424 76.9851C130.424 76.9851 131.265 78.0756 130.969 78.8026C130.674 79.5296 127.039 84.8005 128.629 88.2765C130.22 91.7526 133.241 95.4558 133.241 95.4558L142.215 95.115C142.215 95.115 146.35 87.9812 146.169 85.6638C145.873 81.8243 142.897 77.9393 142.897 77.9393L143.556 76.4625C143.533 76.4625 135.127 74.3951 130.424 76.9851Z" fill="#E4EBF8"/>
<path d="M188.265 209.44C189.81 207.508 190.855 208.599 194.877 206.486C197.058 205.327 198.217 202.487 197.83 200.056C197.444 197.626 195.399 195.376 192.923 195.285C191.333 195.24 189.833 196.012 188.311 196.49C186.789 196.967 184.903 197.012 183.835 195.808C182.358 194.127 183.563 191.332 184.426 189.56C184.789 188.833 184.994 188.015 185.017 187.197C185.017 183.54 181.268 183.335 179.155 184.812C177.542 185.948 176.565 187.72 175.361 189.265C174.157 190.81 172.407 192.218 170.454 192.037C168.363 191.855 166.887 189.969 165.387 188.47C163.888 186.97 161.502 185.743 159.776 186.97C158.503 187.902 158.344 189.742 158.594 191.31C158.844 192.877 159.412 194.445 159.094 195.99C158.708 197.944 157.163 199.239 155.345 200.193C153.391 201.215 153.482 204.101 155.55 204.918L155.595 204.941C157.14 205.555 158.844 205.736 160.366 206.418C161.888 207.099 163.252 208.599 163.024 210.257C162.774 212.211 160.434 213.552 161.207 215.778C161.661 217.028 162.82 217.914 164.16 217.982C167.137 218.209 169.227 216.164 171.476 214.62C173.293 213.393 175.702 212.461 177.678 213.461C179.905 214.597 180.45 217.596 182.427 219.118C184.221 220.504 187.061 220.254 188.561 218.55C190.06 216.846 190.015 214.006 188.447 212.393C188.493 212.416 186.88 211.166 188.265 209.44Z" fill="#E4EBF8"/>
<path d="M99.4118 72.9645L92.6869 74.6912L92.3688 76.7586C92.2552 77.3039 92.2552 77.8492 92.3688 78.3944C92.4597 78.8943 92.8232 79.2805 93.323 79.4168C93.6184 79.5077 94.2545 79.4622 95.2769 79.2805L95.4132 79.803L89.0973 81.4161L88.9609 80.8935C89.5744 80.6436 90.0969 80.1893 90.4377 79.6213C90.7558 79.0533 91.0511 77.9628 91.3237 76.3497L94.2318 59.4466L94.5044 59.3784L105.342 73.2144C106.364 74.5322 107.159 75.3273 107.659 75.6C108.113 75.8272 108.636 75.8726 109.136 75.759L109.272 76.2815L100.071 78.6443L99.9343 78.1218L100.321 78.0309C101.07 77.8492 101.547 77.5993 101.797 77.3266C101.956 77.1222 102.025 76.8495 101.934 76.5996C101.888 76.4179 101.82 76.2588 101.706 76.0998C101.661 76.0089 101.434 75.7136 101.025 75.1683L99.4118 72.9645ZM98.6621 72.0558L94.1637 66.2396L92.9141 73.5325L98.6621 72.0558Z" fill="#E4EBF8"/>
<path d="M225.322 85.5505C224.799 85.8913 224.572 86.5501 224.549 87.1635C224.526 87.777 224.685 88.3904 224.731 89.0265C224.776 89.6627 224.754 90.2079 224.913 90.7986C225.231 91.8437 226.139 92.5707 227.003 93.2296C227.389 92.7752 227.73 92.2527 228.002 91.7301C228.275 91.1849 228.366 90.5714 228.275 89.9807C228.184 89.5036 227.912 89.0947 227.73 88.6403C227.525 88.0723 227.457 87.4589 227.207 86.9136C226.866 86.1412 226.23 85.5505 225.435 85.2551" fill="#54B98B"/>
<path d="M226.707 92.8663C226.616 92.8663 226.707 91.1169 226.367 89.004C226.026 86.8911 225.367 85.2553 225.458 85.2326C225.48 85.2099 225.685 85.6188 225.935 86.2777C226.571 88.0271 226.866 89.8673 226.821 91.7303C226.798 92.4346 226.73 92.8663 226.707 92.8663Z" fill="#54B98B"/>
<path d="M225.729 85.5973C226.048 86.1426 226.684 86.3925 227.32 86.438C227.956 86.4834 228.569 86.3698 229.183 86.3471C229.796 86.3244 230.364 86.3925 230.955 86.2562C232.023 86.0063 232.772 85.1202 233.477 84.2796C233.022 83.8707 232.545 83.5072 232.023 83.2118C231.5 82.9165 230.887 82.7802 230.273 82.8483C229.796 82.9392 229.365 83.1664 228.91 83.3254C228.342 83.5072 227.706 83.5526 227.138 83.7571C226.343 84.0524 225.729 84.6659 225.389 85.461" fill="#54B98B"/>
<path d="M233.114 84.5746C233.114 84.6655 231.365 84.4837 229.229 84.7336C227.093 84.9835 225.435 85.5515 225.412 85.4607C225.412 85.4379 225.798 85.2335 226.48 85.029C228.252 84.4837 230.115 84.2793 231.978 84.3928C232.705 84.461 233.137 84.5292 233.114 84.5746Z" fill="#54B98B"/>
<path d="M225.139 85.1212C225.366 84.5305 225.162 83.8716 224.821 83.3491C224.48 82.8266 224.003 82.4176 223.594 81.9405C223.185 81.4634 222.89 80.9863 222.413 80.6228C221.549 79.9639 220.391 79.8958 219.3 79.8503C219.255 80.4638 219.277 81.0545 219.368 81.6452C219.459 82.2586 219.732 82.8038 220.163 83.2355C220.527 83.5536 220.981 83.7581 221.39 84.0307C221.89 84.3715 222.299 84.8259 222.822 85.1439C223.549 85.5756 224.412 85.6892 225.23 85.462" fill="#54B98B"/>
<path d="M219.778 79.9393C219.846 79.8938 220.777 81.3706 222.3 82.8928C223.822 84.4149 225.276 85.3692 225.23 85.4373C225.208 85.46 224.821 85.2556 224.231 84.8693C223.458 84.3468 222.754 83.7561 222.095 83.0972C221.436 82.4384 220.846 81.7341 220.323 80.9616C219.937 80.3709 219.732 79.962 219.778 79.9393Z" fill="#54B98B"/>
<path d="M224.866 85.4602C224.321 85.1422 223.639 85.2557 223.071 85.5057C222.503 85.7556 222.026 86.1872 221.504 86.5053C220.981 86.8234 220.436 87.0506 220.004 87.4595C219.209 88.2093 218.982 89.3452 218.777 90.4357C219.368 90.5721 219.959 90.6402 220.572 90.6402C221.186 90.6402 221.776 90.4585 222.253 90.0949C222.64 89.7769 222.89 89.3679 223.208 89.0044C223.617 88.55 224.139 88.2093 224.525 87.7549C225.071 87.096 225.32 86.2554 225.207 85.4148" fill="#54B98B"/>
<path d="M218.936 90.0042C218.891 89.9134 220.504 89.2091 222.231 87.9595C223.957 86.7099 225.116 85.3922 225.184 85.4377C225.207 85.4604 224.957 85.8239 224.48 86.3464C223.844 87.028 223.14 87.6414 222.39 88.1867C221.64 88.732 220.845 89.2091 220.004 89.618C219.368 89.8906 218.959 90.027 218.936 90.0042Z" fill="#54B98B"/>
<path d="M225.798 84.8922C226.412 84.824 226.911 84.3469 227.207 83.8017C227.502 83.2564 227.661 82.643 227.888 82.075C228.116 81.507 228.411 81.0072 228.524 80.4165C228.729 79.3487 228.252 78.2809 227.775 77.304C227.23 77.5311 226.684 77.8265 226.207 78.19C225.707 78.5535 225.344 79.0533 225.162 79.644C225.026 80.1211 225.071 80.5982 225.026 81.0981C224.958 81.6888 224.73 82.2795 224.708 82.8929C224.662 83.7335 224.958 84.5514 225.548 85.1875" fill="#54B98B"/>
<path d="M227.912 77.7361C227.98 77.7816 227.094 79.3037 226.458 81.3485C225.822 83.3932 225.64 85.1426 225.549 85.1199C225.504 85.1199 225.504 84.6882 225.595 83.9612C225.708 83.0297 225.913 82.1436 226.208 81.2576C226.481 80.3715 226.844 79.5082 227.299 78.713C227.64 78.0769 227.889 77.7134 227.912 77.7361Z" fill="#54B98B"/>
<path d="M226.208 85.8237C225.958 86.1644 225.503 86.2326 225.163 85.9827C224.822 85.7328 224.754 85.2784 225.004 84.9376C225.254 84.5968 225.708 84.5287 226.049 84.7786C226.367 85.0285 226.458 85.4829 226.208 85.8237Z" fill="#F4F7FC"/>
<path d="M128.196 198.989C127.923 200.125 128.468 201.307 129.241 202.193C130.013 203.079 130.99 203.715 131.854 204.51C132.671 205.26 133.421 206.123 134.375 206.668C136.147 207.691 138.329 207.509 140.351 207.304C140.237 206.168 140.123 205.032 139.783 203.965C139.442 202.897 138.828 201.852 137.897 201.216C137.147 200.693 136.238 200.466 135.42 200.057C134.398 199.557 133.512 198.807 132.467 198.353C131.013 197.74 129.354 197.74 127.9 198.376" fill="#ED6D72"/>
<path d="M139.489 207.236C139.375 207.349 137.239 204.828 134.059 202.397C130.878 199.966 127.902 198.534 127.97 198.398C127.993 198.33 128.765 198.603 129.969 199.216C133.082 200.806 135.876 202.942 138.194 205.532C139.08 206.509 139.534 207.19 139.489 207.236Z" fill="#ED6D72"/>
<path d="M128.833 198.512C129.946 198.831 131.173 198.353 132.082 197.626C132.991 196.899 133.695 195.945 134.513 195.127C135.285 194.332 136.194 193.651 136.808 192.719C137.921 191.015 137.853 188.811 137.739 186.767C136.603 186.812 135.467 186.88 134.377 187.176C133.286 187.471 132.218 188.039 131.537 188.925C130.992 189.652 130.696 190.538 130.265 191.333C129.719 192.333 128.924 193.173 128.402 194.196C127.72 195.627 127.629 197.263 128.197 198.74" fill="#ED6D72"/>
<path d="M137.625 187.628C137.716 187.764 135.103 189.741 132.513 192.831C129.923 195.921 128.356 198.806 128.219 198.715C128.174 198.692 128.469 197.92 129.128 196.761C130.855 193.74 133.127 191.059 135.83 188.855C136.898 188.014 137.602 187.583 137.625 187.628Z" fill="#ED6D72"/>
<path d="M127.401 198.626C126.969 197.535 125.833 196.876 124.697 196.627C123.561 196.377 122.38 196.399 121.221 196.263C120.108 196.149 119.018 195.854 117.904 195.968C115.86 196.149 114.201 197.558 112.656 198.921C113.406 199.785 114.156 200.648 115.064 201.307C115.973 201.966 117.064 202.465 118.2 202.443C119.109 202.42 119.972 202.102 120.881 201.943C121.994 201.761 123.153 201.852 124.266 201.625C125.811 201.284 127.151 200.33 127.969 198.967" fill="#ED6D72"/>
<path d="M113.406 198.444C113.452 198.285 116.632 199.103 120.654 199.239C124.675 199.376 127.901 198.808 127.947 198.967C127.947 199.035 127.174 199.262 125.856 199.466C122.403 199.989 118.882 199.853 115.496 199.103C114.179 198.785 113.406 198.512 113.406 198.444Z" fill="#ED6D72"/>
<path d="M127.469 199.465C126.333 199.737 125.515 200.76 125.084 201.85C124.652 202.941 124.516 204.099 124.198 205.235C123.902 206.303 123.471 207.348 123.402 208.461C123.289 210.506 124.425 212.369 125.538 214.096C126.492 213.482 127.469 212.892 128.264 212.097C129.059 211.301 129.718 210.302 129.855 209.166C129.968 208.257 129.787 207.348 129.787 206.439C129.787 205.303 130.059 204.168 129.968 203.032C129.877 201.464 129.128 199.987 127.901 198.988" fill="#ED6D72"/>
<path d="M125.176 213.256C125.016 213.188 126.311 210.167 127.038 206.213C127.766 202.26 127.697 198.966 127.856 198.966C127.925 198.966 128.038 199.784 128.038 201.124C128.038 204.6 127.379 208.076 126.107 211.325C125.653 212.552 125.244 213.279 125.176 213.256Z" fill="#ED6D72"/>
<path d="M128.016 197.467C128.765 196.581 128.834 195.264 128.561 194.15C128.288 193.037 127.698 191.992 127.289 190.901C126.902 189.856 126.63 188.766 126.039 187.834C124.949 186.108 122.904 185.267 120.995 184.54C120.587 185.585 120.155 186.653 119.973 187.766C119.791 188.879 119.859 190.084 120.405 191.083C120.836 191.878 121.518 192.515 122.063 193.242C122.745 194.15 123.199 195.241 123.904 196.104C124.926 197.331 126.38 198.058 127.97 198.172" fill="#ED6D72"/>
<path d="M121.744 184.971C121.903 184.926 122.63 188.129 124.379 191.764C126.128 195.4 128.105 198.012 127.969 198.103C127.923 198.149 127.355 197.535 126.56 196.467C124.515 193.65 123.016 190.469 122.107 187.084C121.789 185.812 121.675 184.971 121.744 184.971Z" fill="#ED6D72"/>
<path d="M129.763 198.24C129.854 199.013 129.309 199.717 128.537 199.808C127.764 199.899 127.06 199.353 126.969 198.581C126.878 197.808 127.423 197.104 128.196 197.013C128.968 196.922 129.672 197.468 129.763 198.24Z" fill="#FAFAFA"/>
<path d="M229.411 206.941L96.5259 188.697C89.801 187.766 85.0981 181.563 86.0069 174.838L96.7531 96.6387C97.6846 89.9138 103.887 85.2109 110.612 86.1197L243.497 104.363C250.222 105.295 254.925 111.497 254.016 118.222L243.27 196.444C242.338 203.147 236.136 207.849 229.411 206.941Z" fill="#B5BDCB"/>
<path d="M113.994 95.3177L101.732 182.033L233.054 200.602L245.316 113.887L113.994 95.3177Z" fill="#E6EEF9"/>
<path d="M234.045 199.783L233.84 199.76L102.205 181.675L102.228 181.471L114.178 94.479L114.383 94.5017L245.995 112.586L245.972 112.791L234.045 199.783ZM102.705 181.289L233.704 199.283L245.564 112.927L114.564 94.9334L102.705 181.289Z" fill="#E6EEF9"/>
<path d="M254.13 113.906C254.13 113.974 219.12 109.203 175.953 103.273C132.786 97.3435 97.7988 92.4816 97.7988 92.4361C97.7988 92.3907 132.809 97.139 175.976 103.069C219.142 108.998 254.13 113.838 254.13 113.906Z" fill="#A9AEB4"/>
<path d="M242.202 200.67C242.202 200.738 207.192 195.967 164.025 190.037C120.859 184.108 85.8711 179.246 85.8711 179.2C85.8711 179.155 120.881 183.903 164.048 189.833C207.215 195.762 242.202 200.624 242.202 200.67Z" fill="#A9AEB4"/>
<path d="M105.636 136.078C105.658 135.601 105.658 135.124 105.613 134.67C105.454 133.397 104.863 132.193 103.955 131.285C102.591 129.921 100.638 129.353 98.7518 129.762C98.2293 129.876 97.7067 130.058 97.2296 130.33C96.7298 130.603 96.2754 130.944 95.8892 131.353C94.1625 133.125 93.799 135.806 94.9804 137.964C95.253 138.464 95.5938 138.941 96.0028 139.327C96.389 139.713 96.8207 140.031 97.3205 140.281C98.2065 140.758 99.2289 140.986 100.229 140.94C101.115 140.895 101.978 140.668 102.75 140.236C103.864 139.6 104.75 138.623 105.25 137.419C105.386 137.01 105.522 136.555 105.636 136.078C105.636 136.215 105.613 136.328 105.59 136.465C105.568 136.624 105.545 136.76 105.499 136.896C105.454 137.101 105.386 137.282 105.318 137.487C104.477 139.6 102.5 141.031 100.229 141.167C99.1835 141.213 98.1384 140.986 97.2069 140.509C96.1845 139.963 95.3439 139.145 94.7759 138.123C93.5491 135.874 93.9353 133.079 95.7301 131.262C96.548 130.421 97.5704 129.853 98.7064 129.626C99.7287 129.399 100.797 129.467 101.796 129.808C103.955 130.535 105.477 132.443 105.727 134.715C105.749 134.92 105.749 135.124 105.749 135.329C105.749 135.488 105.749 135.624 105.727 135.783C105.704 135.851 105.681 135.965 105.636 136.078Z" fill="#9299A0"/>
<path d="M101.842 135.555C101.819 135.555 101.842 135.373 101.796 135.078C101.728 134.669 101.546 134.283 101.228 133.987C100.501 133.283 99.3426 133.306 98.6383 134.033C97.934 134.76 97.9567 135.918 98.6837 136.623C99.2517 137.191 100.138 137.304 100.842 136.918C101.206 136.714 101.501 136.395 101.683 136.009C101.796 135.737 101.819 135.555 101.842 135.555C101.864 135.555 101.842 135.6 101.842 135.691C101.819 135.805 101.796 135.918 101.751 136.032C101.592 136.464 101.296 136.804 100.91 137.032C100.319 137.372 99.5925 137.395 98.9791 137.077C97.9794 136.555 97.5932 135.35 98.1157 134.351C98.3883 133.805 98.9109 133.419 99.5016 133.306C100.183 133.169 100.865 133.374 101.342 133.874C101.66 134.192 101.842 134.623 101.887 135.078C101.887 135.191 101.887 135.328 101.864 135.441C101.864 135.532 101.864 135.555 101.842 135.555Z" fill="#9299A0"/>
<path d="M105.183 132.899C105.206 132.945 104.456 133.354 103.479 133.785C102.502 134.217 101.707 134.535 101.684 134.467C101.661 134.399 102.411 134.012 103.388 133.581C104.365 133.149 105.16 132.854 105.183 132.899Z" fill="#9299A0"/>
<path d="M102.183 123.426C102.433 123.426 102.66 123.403 102.91 123.358C103.569 123.222 104.114 122.79 104.41 122.199C104.614 121.836 104.637 121.381 104.705 120.881C104.728 120.632 104.773 120.382 104.796 120.109C104.819 119.268 104.342 118.473 103.592 118.11C103.319 117.973 103.024 117.905 102.728 117.883L101.774 117.746C101.161 117.655 100.547 117.837 100.093 118.246C99.6613 118.61 99.3887 119.155 99.3433 119.723C99.2978 119.995 99.2751 120.268 99.2297 120.541C99.1842 120.791 99.1615 121.04 99.1842 121.29C99.2297 121.745 99.4114 122.154 99.7068 122.495C99.9567 122.767 100.275 122.994 100.616 123.108C100.888 123.199 101.161 123.244 101.456 123.29C101.683 123.312 101.933 123.358 102.183 123.426C101.933 123.426 101.683 123.403 101.433 123.358C101.138 123.335 100.843 123.29 100.57 123.222C99.7068 122.949 99.0934 122.199 98.9798 121.313C98.957 121.04 98.957 120.768 99.0025 120.518C99.0479 120.245 99.0706 119.973 99.1161 119.7C99.1615 119.087 99.4569 118.496 99.9113 118.087C100.411 117.655 101.093 117.451 101.774 117.542L102.728 117.678C103.047 117.701 103.365 117.792 103.66 117.928C104.501 118.337 105 119.2 104.978 120.132C104.955 120.404 104.909 120.654 104.864 120.904C104.796 121.381 104.75 121.881 104.523 122.267C104.205 122.881 103.592 123.335 102.91 123.449C102.66 123.494 102.41 123.494 102.183 123.426Z" fill="#9299A0"/>
<path d="M103.365 114.836C103.615 114.836 103.865 114.813 104.092 114.768C104.751 114.631 105.296 114.2 105.591 113.609C105.796 113.245 105.819 112.791 105.887 112.291C105.909 112.041 105.955 111.791 105.978 111.519C106 110.678 105.523 109.883 104.773 109.519C104.501 109.383 104.205 109.315 103.91 109.292L102.956 109.156C102.342 109.065 101.729 109.247 101.275 109.656C100.843 110.019 100.57 110.564 100.525 111.132C100.479 111.405 100.457 111.678 100.411 111.95C100.366 112.2 100.343 112.45 100.366 112.7C100.457 113.541 101.025 114.245 101.82 114.518C102.093 114.586 102.365 114.654 102.661 114.699C102.865 114.699 103.115 114.745 103.365 114.836C103.115 114.836 102.865 114.813 102.615 114.768C102.32 114.745 102.024 114.699 101.752 114.631C100.888 114.359 100.252 113.609 100.161 112.723C100.139 112.45 100.139 112.178 100.184 111.928C100.23 111.655 100.252 111.382 100.298 111.11C100.343 110.496 100.639 109.906 101.093 109.497C101.593 109.065 102.274 108.861 102.956 108.951L103.91 109.088C104.228 109.11 104.546 109.201 104.842 109.338C105.41 109.61 105.841 110.11 106.023 110.701C106.114 110.973 106.159 111.269 106.137 111.541C106.114 111.814 106.068 112.064 106.023 112.314C105.955 112.791 105.909 113.291 105.682 113.677C105.364 114.29 104.751 114.745 104.069 114.858C103.865 114.881 103.592 114.881 103.365 114.836Z" fill="#9299A0"/>
<path d="M97.0933 160.411C97.3432 160.411 97.5704 160.389 97.8204 160.343C98.4792 160.207 99.0245 159.775 99.3198 159.185C99.5243 158.821 99.547 158.367 99.6152 157.867C99.6379 157.617 99.6833 157.344 99.706 157.094C99.706 156.822 99.6833 156.572 99.5925 156.322C99.4107 155.777 99.0018 155.345 98.5019 155.095C98.2293 154.959 97.934 154.891 97.6386 154.868L96.6844 154.732C96.071 154.641 95.4576 154.822 95.0032 155.231C94.5715 155.595 94.2989 156.14 94.2534 156.708C94.208 156.981 94.1853 157.253 94.1398 157.526C94.0944 157.776 94.0717 158.026 94.0944 158.276C94.1398 158.73 94.3216 159.139 94.6169 159.48C94.8669 159.753 95.1849 159.98 95.5257 160.093C95.7983 160.161 96.071 160.23 96.3663 160.275C96.6162 160.298 96.8434 160.343 97.0933 160.411C96.5481 160.389 96.0028 160.321 95.4803 160.207C94.6169 159.934 94.0035 159.185 93.8899 158.276C93.8672 158.003 93.8672 157.753 93.9126 157.481C93.9581 157.208 93.9808 156.935 94.0262 156.663C94.0717 156.049 94.367 155.459 94.8214 155.05C95.3212 154.618 96.0028 154.414 96.6844 154.504L97.6386 154.641C97.9567 154.663 98.2747 154.754 98.5701 154.891C99.4107 155.3 99.9333 156.163 99.8878 157.094C99.8651 157.367 99.8197 157.617 99.7742 157.867C99.7061 158.344 99.6606 158.844 99.4334 159.23C99.1154 159.843 98.5019 160.298 97.8204 160.411C97.5932 160.48 97.3432 160.457 97.0933 160.411Z" fill="#9299A0"/>
<path d="M98.275 151.801C98.5249 151.801 98.7521 151.779 99.002 151.733C99.6609 151.597 100.206 151.165 100.501 150.575C100.706 150.211 100.729 149.757 100.797 149.257C100.82 149.007 100.865 148.757 100.888 148.484C100.91 147.644 100.433 146.849 99.6836 146.485C99.4109 146.349 99.1156 146.281 98.8202 146.258L97.866 146.122C97.2526 146.031 96.6392 146.212 96.1848 146.621C95.7531 146.985 95.4805 147.53 95.4351 148.098C95.3896 148.371 95.3669 148.643 95.3215 148.916C95.276 149.166 95.2533 149.416 95.276 149.666C95.3215 150.12 95.5032 150.529 95.7986 150.87C96.0485 151.143 96.3666 151.347 96.7074 151.483C96.98 151.574 97.2526 151.62 97.548 151.665C97.7979 151.688 98.0251 151.733 98.275 151.801C98.0251 151.801 97.7752 151.779 97.5252 151.733C97.2299 151.711 96.9345 151.665 96.6619 151.597C96.2757 151.483 95.9349 151.256 95.6623 150.961C95.3442 150.597 95.117 150.143 95.0716 149.666C95.0488 149.393 95.0488 149.121 95.0943 148.871C95.1397 148.598 95.1624 148.325 95.2079 148.053C95.2533 147.439 95.5487 146.849 96.003 146.44C96.5029 146.008 97.1845 145.804 97.866 145.894L98.8202 146.031C99.1383 146.053 99.4564 146.144 99.7517 146.281C100.592 146.69 101.115 147.553 101.069 148.484C101.047 148.757 101.001 149.007 100.979 149.257C100.91 149.734 100.865 150.234 100.638 150.62C100.32 151.233 99.7063 151.688 99.0247 151.801C98.7748 151.87 98.5249 151.87 98.275 151.801Z" fill="#9299A0"/>
<path d="M202.375 135.329H176.906V160.798H202.375V135.329Z" fill="#FAD5DA"/>
<path d="M170.841 118.926L175.158 126.424L179.497 133.921H170.841H162.162L166.501 126.424L170.841 118.926Z" fill="#A2D9C0"/>
<path d="M215.576 121.835H206.783L202.398 129.446L206.783 137.057H215.576L219.96 129.446L215.576 121.835Z" fill="#A6D8F2"/>
<path d="M212.916 165.001L205.396 169.317L197.898 173.657V165.001V156.322L205.396 160.661L212.916 165.001Z" fill="#7E8ABF"/>
<path d="M137.852 116.562L127.242 120.878L125.697 132.238L134.74 139.258L145.327 134.919L146.894 123.582L137.852 116.562Z" fill="#F18E92"/>
<path d="M151.733 147.802L141.123 152.118L139.578 163.478L148.62 170.498L159.23 166.182L160.775 154.822L151.733 147.802Z" fill="#54B98B"/>
<path d="M164.047 146.78C168.318 146.78 171.771 150.233 171.771 154.505C171.771 158.776 168.318 162.229 164.047 162.229C159.776 162.229 156.322 158.776 156.322 154.505C156.322 150.233 159.776 146.78 164.047 146.78Z" fill="#FEE182"/>
<path d="M179.496 171.432H174.544L172.09 175.703L174.544 179.974H179.496L181.973 175.703L179.496 171.432Z" fill="#5BB7E6"/>
<path d="M188.214 111.568L181.711 116.565L186.694 123.05L193.197 118.053L188.214 111.568Z" fill="#ED6D72"/>
<path d="M266.034 156.8C265.693 159.254 264.239 158.845 261.876 162.707C260.581 164.82 261.059 167.841 262.626 169.75C264.194 171.658 267.125 172.522 269.283 171.34C270.692 170.568 271.555 169.136 272.623 167.955C273.69 166.774 275.281 165.751 276.803 166.251C278.939 166.933 279.325 169.954 279.484 171.931C279.529 172.749 279.779 173.544 280.188 174.248C282.074 177.384 285.391 175.657 286.436 173.294C287.231 171.499 287.163 169.477 287.413 167.523C287.663 165.57 288.435 163.479 290.207 162.616C292.093 161.707 294.32 162.571 296.364 163.07C298.409 163.57 301.113 163.434 301.953 161.48C302.589 160.026 301.771 158.368 300.749 157.163C299.727 155.959 298.454 154.892 297.909 153.415C297.228 151.552 297.909 149.621 298.977 147.871C300.136 145.986 298.568 143.555 296.387 143.918H296.342C294.706 144.191 293.138 144.918 291.48 145.077C289.821 145.236 287.89 144.668 287.231 143.146C286.436 141.328 287.776 139.011 285.959 137.466C284.914 136.625 283.482 136.466 282.301 137.08C279.62 138.397 278.893 141.237 277.734 143.714C276.803 145.713 275.213 147.735 273.009 147.894C270.533 148.053 268.51 145.781 266.034 145.486C263.785 145.213 261.49 146.894 261.059 149.098C260.627 151.302 262.126 153.733 264.307 154.324C264.33 154.346 266.352 154.596 266.034 156.8Z" fill="#E4EBF8"/>
<path d="M272.486 163.184C271.805 163.366 271.123 162.98 270.919 162.321L250.426 93.6633L254.288 92.5955L273.372 161.617C273.554 162.275 273.168 162.98 272.486 163.184Z" fill="#375A64"/>
<path d="M250.403 93.6626C250.267 93.1855 248.768 82.5757 248.768 82.5757L249.972 82.2349L254.266 92.5948L250.403 93.6626Z" fill="#E1E1E1"/>
<path d="M249.994 82.2352L249.222 73.4883L246.2 74.2153L247.586 79.2135L245.677 74.3516L245.109 74.5106L248.79 82.576L249.54 82.3715" fill="#FF9A6C"/>
<path d="M46.748 110.657L83.0534 81.7577C86.7794 80.031 89.8237 79.2586 93.8678 78.7133C94.5039 78.6224 94.9128 79.2586 94.7084 79.8493C93.527 83.348 92.3229 85.8472 89.8237 88.7098L48.8155 121.585L46.748 110.657Z" fill="#202E3E"/>
<path d="M93.5728 140.169C93.5728 140.169 95.3904 143.531 96.7308 145.258L98.9573 149.938V154.618C98.9573 154.618 97.8895 154.618 97.7305 153.982C97.7305 153.982 96.7762 153.914 96.5945 152.369C96.5945 152.369 95.7539 152.164 95.5948 150.938C95.504 150.188 95.4358 149.461 95.4358 148.711L94.5952 147.143L93.6864 147.075C93.6864 147.075 94.6406 148.915 94.7088 149.393C94.7769 149.87 94.8678 150.96 94.1862 150.96C93.5047 150.96 92.9367 149.779 92.8458 149.347C92.7549 148.915 92.0961 147.416 91.6644 147.007C91.2327 146.598 90.4149 145.553 90.3467 144.985C90.2785 144.417 90.3467 141.441 90.3467 141.441L93.5728 140.169Z" fill="#FFBF9D"/>
<path d="M93.9359 147.278C93.9132 147.301 93.6633 147.165 93.2544 146.915C92.7318 146.574 92.2547 146.165 91.8685 145.665C91.4823 145.165 91.2551 144.529 91.2324 143.893C91.2096 143.643 91.2551 143.371 91.3459 143.121C91.3914 143.121 91.346 143.416 91.3914 143.87C91.4595 144.461 91.6867 145.029 92.0275 145.506C92.4138 145.983 92.8454 146.392 93.3225 146.756C93.7315 147.074 93.9587 147.256 93.9359 147.278Z" fill="#FF9A6C"/>
<path d="M95.7074 147.28C95.7074 147.348 95.0713 147.325 94.3215 147.234C93.5718 147.143 92.9584 147.03 92.9811 146.962C93.0038 146.893 93.6172 146.916 94.3669 147.007C95.1167 147.098 95.7074 147.211 95.7074 147.28Z" fill="#FF9A6C"/>
<path d="M96.2086 148.029C96.2314 148.007 96.4813 148.257 96.7993 148.734C97.2083 149.347 97.4809 150.051 97.5945 150.778C97.7081 151.505 97.7308 152.232 97.7081 152.982C97.7308 153.278 97.7081 153.596 97.6854 153.891C97.6627 153.891 97.5945 153.55 97.5491 152.982C97.5263 152.255 97.4582 151.551 97.3673 150.824C97.072 149.143 96.1405 148.052 96.2086 148.029Z" fill="#FF9A6C"/>
<path d="M96.5705 151.937C96.5478 151.96 96.4342 151.778 96.3661 151.46C96.2979 151.142 96.2979 150.71 96.1843 150.301C96.0707 149.892 95.7299 149.597 95.5936 149.302C95.4573 149.006 95.4573 148.802 95.48 148.802C95.5027 148.802 95.5482 148.984 95.7299 149.211C95.8208 149.324 95.9344 149.461 96.0707 149.62C96.2297 149.802 96.3433 150.006 96.4115 150.233C96.5024 150.642 96.5478 151.051 96.5478 151.46C96.5705 151.733 96.616 151.914 96.5705 151.937Z" fill="#FF9A6C"/>
<path d="M68.9682 176.747V186.289C68.9682 186.289 68.5365 187.425 66.6735 191.288C64.8106 195.15 62.834 206.805 62.834 206.805L66.6735 214.507L78.8283 193.537C80.2824 191.038 80.964 188.175 80.8049 185.29L80.2142 174.339L68.9682 176.747Z" fill="#FFBF9D"/>
<path d="M62.1515 163.684L48.2246 166.047C48.2246 166.047 49.6332 169.864 49.7241 170.227C50.0876 171.59 50.8828 175.112 50.4284 178.406C49.8377 182.609 49.2924 187.721 49.565 190.129C49.8377 192.537 52.2232 215.688 52.2232 215.688H60.8338L62.7422 171.499L62.1515 163.684Z" fill="#FFBF9D"/>
<path d="M60.7201 223.367C60.7656 222.276 60.1067 219.595 59.6069 218.391C59.1071 217.187 59.3116 216.324 59.3116 216.324L56.4489 215.006C55.4947 214.552 54.4269 214.438 53.4045 214.643C52.2686 214.892 52.0641 215.415 52.0414 216.119C51.8824 219.095 52.1096 221.663 51.9505 222.776C51.7233 224.253 53.4273 231.046 53.5409 231.069C53.6545 231.091 61.7652 232.704 61.7652 232.704C61.7652 232.704 63.0829 231.909 63.1738 230.819C63.2647 229.728 60.6747 224.435 60.7201 223.367Z" fill="#374351"/>
<path d="M63.1286 230.842C62.4471 229.297 61.0839 228.116 60.5159 226.525C59.8344 224.526 60.5614 222.163 59.539 220.346C58.7666 218.96 57.0172 218.006 55.4723 218.415C54.0637 218.596 52.6778 219.823 52.2234 221.005C51.769 222.186 51.8826 223.481 51.9735 224.73C52.1325 226.639 52.2688 228.525 52.4279 230.41C52.5869 232.432 52.7914 234.568 54.041 236.181C55.6086 238.203 58.7211 238.816 60.9249 237.521C63.1287 236.226 64.151 233.182 63.1286 230.842Z" fill="#202E3E"/>
<path d="M63.8558 224.593C63.8558 224.593 66.7639 222.048 67.7408 215.21C68.7177 208.371 67.1955 205.418 67.1955 205.418C67.1955 205.418 66.1504 201.396 63.7195 201.896C62.1291 202.283 61.1749 203.328 60.2207 204.395L63.8558 224.593Z" fill="#374351"/>
<path d="M64.8776 203.669C64.7412 203.533 64.5822 203.442 64.4232 203.351C62.9464 202.715 61.0834 203.351 60.0838 204.623C59.016 205.964 58.7206 207.804 58.8797 209.508C58.9933 210.78 59.3113 212.052 59.0614 213.302C58.7661 214.62 57.8573 215.687 57.153 216.846C56.0625 218.595 55.4491 220.618 55.3355 222.685C55.2446 224.457 55.5854 226.388 57.5392 227.229C58.5389 227.638 59.6521 227.66 60.6518 227.297C62.742 226.57 64.0597 224.684 65.0139 222.753C67.8083 216.96 67.9219 210.235 65.3547 204.351C65.2411 204.078 65.082 203.851 64.8776 203.669Z" fill="#202E3E"/>
<path d="M61.5833 226.842C61.5833 226.842 61.5378 226.887 61.4469 226.933C61.3106 227.024 61.1743 227.092 61.038 227.137C60.5382 227.387 59.9929 227.546 59.4249 227.592C58.5843 227.682 57.7437 227.478 57.0167 227.046C56.585 226.796 56.2215 226.456 55.9034 226.047C55.5854 225.615 55.3809 225.115 55.2446 224.615C54.9947 223.616 54.9265 222.593 55.0856 221.594C55.2219 220.776 55.4718 219.981 55.8126 219.231C56.0398 218.731 56.2897 218.231 56.5623 217.754C56.6532 217.572 56.7668 217.413 56.9031 217.254C56.8349 217.436 56.7441 217.641 56.6532 217.8C56.4714 218.14 56.2215 218.663 55.9716 219.299C55.6535 220.049 55.4491 220.844 55.3127 221.639C55.1764 222.616 55.2219 223.616 55.4718 224.57C55.6081 225.047 55.8126 225.524 56.1079 225.933C56.3805 226.319 56.7441 226.637 57.1303 226.887C57.8119 227.296 58.607 227.501 59.4249 227.455C59.9702 227.41 60.5154 227.296 61.0153 227.092C61.197 226.978 61.3788 226.91 61.5833 226.842Z" fill="#375A64"/>
<path d="M35.6602 130.899C35.7965 130.762 35.9101 130.649 36.0464 130.535L35.6602 130.899Z" fill="#FFBF9D"/>
<path d="M36.0469 130.535L37.5918 131.467C40.3408 130.853 43.0898 129.967 45.4072 128.377C47.7246 126.787 49.5648 124.31 49.9283 121.516C44.7483 123.56 40.0227 126.628 36.0469 130.535Z" fill="#FFBF9D"/>
<path d="M39.7959 119.472C40.6592 117.472 44.476 109.384 44.476 109.384C44.476 109.384 39.6141 105.272 36.3425 106.203C36.3425 106.203 31.208 118.063 30.8899 119.153C30.8899 119.153 27.5956 126.265 30.8899 128.082C30.8899 128.082 34.0252 128.377 35.661 126.106C37.2967 123.834 39.7959 119.472 39.7959 119.472Z" fill="#FFBF9D"/>
<path d="M17.3727 137.033L46.7259 110.656L47.8846 122.674L23.8704 144.28C21.9392 146.03 18.963 145.939 17.1455 144.076C15.2598 142.145 15.2825 139.078 17.2136 137.192C17.2818 137.146 17.3272 137.078 17.3727 137.033Z" fill="#202E3E"/>
<path d="M95.7536 78.1445C95.6173 78.0309 95.4128 78.1217 95.2765 78.1899L94.3223 78.7579L94.5495 79.5985L95.5945 78.7124C95.6854 78.6443 95.7763 78.5534 95.8217 78.4625C95.8672 78.3489 95.8445 78.2353 95.7536 78.1445Z" fill="#1A2E35"/>
<path d="M94.7544 79.6208C94.6862 79.5981 94.6862 79.3482 94.4817 79.0982C94.2773 78.8483 94.0273 78.7802 94.0273 78.7347C94.0273 78.712 94.0955 78.6666 94.2318 78.6893C94.3909 78.7347 94.5499 78.8256 94.6635 78.9619C94.7771 79.0982 94.8225 79.2573 94.8225 79.4163C94.8452 79.5526 94.7771 79.6208 94.7544 79.6208Z" fill="#375A64"/>
<path d="M76.5566 106.226C76.693 106.635 79.4647 118.494 79.4647 118.494C79.4647 118.494 84.0313 130.695 88.3025 138.965L90.3699 142.259L94.0959 141.668C94.0959 141.668 88.9841 119.608 88.0299 117.677C87.0757 115.745 85.349 106.226 85.349 106.226H76.5566Z" fill="#FFBF9D"/>
<path d="M56.3123 63.2182L56.2441 88.3003L67.0131 88.8001L67.3311 82.6886C67.3311 82.6886 71.148 83.4384 72.1476 79.8942C72.7838 77.6223 72.6247 60.1057 72.6247 60.1057L56.3123 63.2182Z" fill="#FFBF9D"/>
<path d="M74.0108 61.899C72.3069 62.3761 71.9434 65.1479 71.9434 65.1479L69.2852 71.0321C67.9221 69.9643 66.1045 70.0325 65.7638 72.418C65.5138 74.1447 67.6494 74.4855 67.6494 74.4855C66.3999 76.5984 65.5593 78.325 63.7417 80.3243C61.7879 82.5054 60.6746 82.7326 58.5618 82.7553H56.2217C56.2217 82.7553 55.0857 79.0293 52.9501 69.7144C50.5873 59.3772 62.8103 60.6949 65.0822 58.0595C68.7854 53.7655 79.3499 60.3768 74.0108 61.899Z" fill="#202E3E"/>
<path d="M53.1786 70.6701C51.202 69.3296 51.0203 65.6037 52.179 63.3772C53.3831 61.1053 55.7232 59.6739 58.2904 59.5831C58.6312 59.6058 58.972 59.5603 59.2901 59.4695C59.7445 59.2877 60.0625 58.8561 60.3579 58.4471C62.13 56.1525 63.8794 53.8805 67.1737 53.8805C67.9007 53.8578 68.6277 54.0169 69.2411 54.4031C69.7182 54.653 70.3771 55.539 70.4907 56.0616C71.1041 55.7435 71.7402 55.4936 72.4218 55.3573C73.1034 55.221 73.8077 55.4027 74.3529 55.8344C74.8755 56.2888 75.0572 57.1294 74.6483 57.6974C75.7615 57.6292 76.8066 58.5607 76.9884 59.6512C77.1701 60.7417 75.5798 61.5369 75.4208 61.6051C75.4208 61.6051 76.2841 63.4226 74.2166 64.5131C73.376 64.9448 72.3082 64.4223 72.1719 64.3541" fill="#202E3E"/>
<path d="M47.0196 143.147C47.0196 143.147 46.6334 153.484 47.0196 156.62C47.4059 159.755 46.8379 178.771 46.8379 178.771C46.8379 178.771 61.4237 183.019 65.3541 177.976C65.3541 177.976 63.7637 154.893 63.6047 154.257C63.4457 153.621 62.1507 137.899 62.1507 137.899L47.0196 143.147Z" fill="#202E3E"/>
<path d="M80.2811 137.896C81.1444 140.577 82.9619 150.642 82.9619 150.642V177.337C82.9619 177.337 70.33 181.903 65.2864 179.631L62.1738 152.845V138.964L72.5792 134.92L80.2811 137.896Z" fill="#202E3E"/>
<path d="M72.262 156.458C72.0575 156.481 71.8757 156.481 71.6713 156.458C71.285 156.435 70.7398 156.39 70.0809 156.344L64.8101 155.867L59.5619 155.39L57.9716 155.254C57.7671 155.254 57.5853 155.208 57.3809 155.163C57.5853 155.14 57.7671 155.14 57.9716 155.163C58.3578 155.163 58.9031 155.208 59.5619 155.231C60.9251 155.299 62.788 155.458 64.8328 155.64C66.8775 155.822 68.7405 156.026 70.0809 156.185L71.6713 156.367C71.8757 156.39 72.0802 156.412 72.262 156.458Z" fill="#375A64"/>
<path d="M62.7872 155.595C62.8554 155.595 63.4688 160.956 64.1504 167.59C64.832 174.225 65.3545 179.609 65.2864 179.632C65.2182 179.654 64.6048 174.27 63.9232 167.636C63.2416 161.002 62.7191 155.617 62.7872 155.595Z" fill="#375A64"/>
<path d="M62.9702 155.459C63.0157 155.505 62.3568 156.095 61.4935 156.777C60.6301 157.459 59.9031 157.958 59.8577 157.913C59.8122 157.868 60.4711 157.277 61.3344 156.595C62.1978 155.914 62.9475 155.414 62.9702 155.459Z" fill="#375A64"/>
<path d="M62.3103 153.049C62.2194 152.935 62.1512 152.822 62.1058 152.708C61.924 152.39 61.765 152.049 61.6287 151.708C60.6972 149.459 60.2655 147.028 60.3791 144.597C60.4018 144.143 60.4473 143.757 60.4927 143.507C60.4927 143.371 60.5382 143.234 60.5836 143.121C60.629 143.121 60.5609 143.689 60.5609 144.62C60.5382 147.028 60.9471 149.414 61.7877 151.663C62.1058 152.526 62.3557 153.049 62.3103 153.049Z" fill="#375A64"/>
<path d="M77.6912 116.041C77.5549 115.655 76.1463 107.612 76.1463 107.612L86.5063 107.362C86.5063 107.362 81.9625 89.6187 79.4861 88.301C75.6465 86.279 67.2177 86.0291 67.2177 86.0291H56.3579C56.3579 86.0291 44.3394 89.3461 42.1811 92.9357L34.502 107.68L44.4757 111.338L46.2024 109.203L47.929 124.243C47.929 124.243 46.9067 137.783 46.9067 139.828C46.9067 141.873 47.043 143.145 47.043 143.145C47.043 143.145 69.6259 137.011 75.124 138.806C80.622 140.601 81.4399 142.259 81.4399 142.259C81.4399 142.259 81.9397 136.239 80.6447 133.944L77.6912 116.041Z" fill="#B18AD9"/>
<path d="M46.4296 111.314C46.3842 111.314 46.2933 110.587 46.0661 109.451C45.7708 107.952 45.3618 106.475 44.862 105.021C44.3622 103.59 43.7487 102.181 43.0672 100.795C42.8173 100.318 42.6128 99.8865 42.431 99.5457C42.3402 99.4094 42.272 99.2504 42.2266 99.0686C42.3402 99.2049 42.431 99.3412 42.5219 99.5003C42.7037 99.7729 42.9309 100.182 43.2262 100.704C43.9532 102.068 44.5894 103.476 45.0892 104.93C45.589 106.384 45.9752 107.884 46.2252 109.406C46.316 109.997 46.3842 110.451 46.4069 110.792C46.4296 110.973 46.4523 111.155 46.4296 111.314Z" fill="#1A2E35"/>
<path d="M76.2364 95.2998C76.2819 95.2998 76.1228 96.0041 75.9865 97.1628C75.8502 98.6623 75.8048 100.184 75.8502 101.707C75.8956 103.479 76.0092 105.092 76.1001 106.25C76.1456 106.796 76.191 107.25 76.2137 107.614C76.2364 107.773 76.2364 107.954 76.2364 108.113C76.1683 107.954 76.1456 107.795 76.1228 107.614C76.0774 107.296 76.0092 106.818 75.9411 106.25C75.8048 105.092 75.6684 103.479 75.623 101.707C75.5776 100.184 75.6457 98.6623 75.8275 97.1401C75.8956 96.6857 75.9865 96.2313 76.0774 95.7769C76.1228 95.6179 76.1683 95.4588 76.2364 95.2998Z" fill="#1A2E35"/>
<path d="M84.2134 121.312C84.2134 121.38 83.7363 121.448 83.1228 121.357C82.5094 121.266 82.0777 121.039 82.1005 120.971C82.1232 120.903 82.5776 121.016 83.1456 121.107C83.7135 121.198 84.2134 121.243 84.2134 121.312Z" fill="#FF9A6C"/>
<path d="M103.887 70.8296C103.296 70.0344 101.979 70.148 101.252 70.8069C100.525 71.4658 100.184 72.4654 99.8657 73.3969C99.5477 74.3284 99.116 75.328 98.2754 75.8506C99.5704 75.3053 101.183 74.2602 102.365 73.7831C103.546 73.306 104.637 71.852 103.887 70.8296Z" fill="#773DBD"/>
<path d="M97.5703 77.7144C98.32 77.3282 99.8877 76.9874 100.683 77.1465C101.501 77.3282 102.25 77.7826 102.773 78.4187C102.932 78.6005 103.046 78.8277 103.114 79.0549C103.159 79.3048 103.091 79.5547 102.909 79.7137C102.728 79.8273 102.5 79.8728 102.273 79.8273C101.501 79.7365 100.842 79.2139 100.228 78.7368C99.615 78.2597 98.3428 77.7372 97.5703 77.7144Z" fill="#773DBD"/>
<path d="M67.1497 74.2833C68.4923 74.2833 69.5807 73.1949 69.5807 71.8523C69.5807 70.5098 68.4923 69.4214 67.1497 69.4214C65.8071 69.4214 64.7188 70.5098 64.7188 71.8523C64.7188 73.1949 65.8071 74.2833 67.1497 74.2833Z" fill="#FFBF9D"/>
<path d="M68.4456 71.2832C68.4456 71.2832 67.4005 70.9878 66.7871 72.8053" stroke="#BF513C" stroke-width="0.234008" stroke-linecap="round" stroke-linejoin="round"/>
<path d="M305.158 62.8545C302.159 59.9919 298.342 60.9007 295.207 61.8094C294.434 61.1279 291.276 60.7189 289.14 61.4232C284.597 62.9 278.508 69.9884 286.323 91.5716L311.769 90.1858C312.655 82.1432 311.814 69.2159 305.158 62.8545Z" fill="#1F2D3D"/>
<path d="M293.002 83.6901L293.206 90.7103C293.275 93.2322 295.319 95.2315 297.818 95.2542C300.386 95.2769 302.499 93.2095 302.521 90.6195C302.521 90.4604 302.521 90.3014 302.499 90.1424L301.067 76.7834L293.002 83.6901Z" fill="#FFC3AA"/>
<path d="M286.777 66.3547C286.05 67.0589 285.596 67.9677 285.46 68.9674C285.028 71.8981 284.233 77.9869 285.414 81.0086C286.959 84.939 290.367 87.2791 295.57 86.0068C295.57 86.0068 301.658 85.3934 302.658 76.3738C304.112 63.5602 293.025 60.4704 286.777 66.3547Z" fill="#FFC3AA"/>
<path d="M293.752 64.2394C293.752 64.2394 287.89 63.7623 285.459 68.965C285.459 68.965 285.345 61.604 294.251 62.1492L293.752 64.2394Z" fill="#1F2D3D"/>
<path d="M293.752 64.2409C293.752 64.2409 296.955 64.2409 297.773 67.4216C298.387 69.8071 296.206 72.5335 300.159 76.2594L303.794 72.7606C303.794 72.7606 305.748 61.4692 294.229 62.1735L293.752 64.2409Z" fill="#1F2D3D"/>
<path d="M286.914 75.3724C286.846 75.7586 286.46 75.9858 286.096 75.9177C285.71 75.8495 285.483 75.4633 285.551 75.0998C285.619 74.7135 286.005 74.4863 286.369 74.5545C286.755 74.6227 286.982 74.9862 286.914 75.3724Z" fill="#101010"/>
<path d="M292.797 75.1695C292.729 75.5557 292.365 75.7829 291.979 75.7148C291.593 75.6466 291.366 75.2831 291.434 74.8969C291.502 74.5106 291.866 74.2835 292.252 74.3516C292.615 74.4198 292.865 74.7833 292.797 75.1695Z" fill="#101010"/>
<path d="M289.004 73.1238L287.891 77.1224C287.732 77.6903 288.072 78.3038 288.64 78.4628C288.663 78.4628 288.686 78.4628 288.709 78.4855" stroke="#FF9574" stroke-width="0.41349" stroke-linecap="round" stroke-linejoin="round"/>
<path d="M287.867 79.6673L291.775 79.2129C291.775 79.2129 292.025 80.8032 290.094 81.0304C288.163 81.2576 287.867 79.6673 287.867 79.6673Z" fill="white"/>
<path d="M286.664 71.6479C286.664 71.6479 285.437 71.5115 283.869 72.6248" stroke="#1F2D3D" stroke-width="1.2223" stroke-miterlimit="10" stroke-linecap="round"/>
<path d="M290.73 71.4186C290.73 71.4186 293.752 70.6461 295.456 71.9638" stroke="#1F2D3D" stroke-width="1.2223" stroke-miterlimit="10" stroke-linecap="round"/>
<path d="M303.136 80.0022C305.166 79.8905 306.721 78.1546 306.609 76.125C306.497 74.0954 304.761 72.5406 302.732 72.6522C300.702 72.7639 299.147 74.4998 299.259 76.5295C299.371 78.5591 301.106 80.1139 303.136 80.0022Z" fill="#FFC3AA"/>
<path d="M304.521 75.1476C304.521 75.1476 301.772 74.5115 301.227 77.5332" stroke="#FF9574" stroke-width="0.41349" stroke-linecap="round" stroke-linejoin="round"/>
<path d="M288.754 59.3783C288.868 59.3556 289.004 59.3556 289.117 59.3783C289.254 59.401 289.367 59.4692 289.481 59.5601C289.617 59.6737 289.708 59.81 289.754 59.9917L289.776 60.0599L289.844 60.0372C290.049 59.969 290.276 60.0826 290.367 60.2644C290.481 60.4916 290.503 60.7642 290.481 61.0141V61.2867L290.617 61.0595L290.64 61.0141C290.753 60.8551 290.912 60.7869 291.094 60.7642C291.253 60.7415 291.412 60.8096 291.548 60.9005C291.776 61.105 291.912 61.3776 291.912 61.673C291.912 61.8774 291.889 62.0819 291.821 62.2864C291.798 62.3545 291.776 62.4454 291.753 62.5136C291.798 62.4454 291.844 62.3773 291.866 62.3091C291.957 62.1046 292.003 61.9002 292.003 61.6957C292.003 61.3549 291.866 61.0368 291.617 60.8324C291.298 60.5597 290.821 60.6052 290.549 60.9232C290.549 60.9459 290.526 60.9459 290.526 60.9687C290.526 60.9914 290.503 61.0141 290.503 61.0141L290.64 61.0595C290.685 60.7869 290.617 60.4916 290.503 60.2417C290.367 59.9917 290.072 59.9009 289.822 59.969L289.89 60.0145C289.844 59.81 289.731 59.651 289.572 59.5374C289.458 59.4465 289.322 59.3783 289.163 59.3556C289.072 59.3329 288.981 59.3556 288.89 59.3783C288.777 59.3556 288.754 59.3783 288.754 59.3783Z" fill="#375A64"/>
<path d="M297.387 229.796C297.433 229.887 297.887 229.75 298.455 229.796C299.023 229.841 299.455 230.023 299.523 229.932C299.591 229.841 299.159 229.478 298.478 229.455C297.796 229.432 297.319 229.728 297.387 229.796Z" fill="#1A2E35"/>
<path d="M296.296 222.048C296.386 222.117 296.704 221.753 297.204 221.503C297.704 221.253 298.181 221.185 298.181 221.094C298.181 221.003 297.636 220.89 297.045 221.185C296.455 221.48 296.205 222.003 296.296 222.048Z" fill="#1A2E35"/>
<path d="M324.151 113.155C323.697 109.634 317.994 101.568 315.79 98.7967C312.564 94.7981 307.089 91.6856 304.59 91.6401L310.133 133.375C313.087 130.286 316.654 127.809 319.562 124.697C322.47 121.584 324.719 117.404 324.151 113.155Z" fill="#B18AD9"/>
<path d="M278.212 100.068C278.257 98.5236 277.939 96.9787 277.303 95.5474C276.258 93.3436 273.054 89.5949 273.054 89.5949C273.054 89.5949 268.601 85.9826 268.124 86.2097C267.647 86.4369 267.488 86.9822 268.102 87.5275C268.715 88.0727 271.078 90.9581 271.078 90.9581C271.078 90.9581 270.055 91.3216 270.033 92.0259C270.01 92.3894 270.078 92.7529 270.237 93.071C270.237 93.071 269.283 93.5026 269.056 94.0479C268.897 94.366 268.829 94.7067 268.806 95.0475C268.806 95.0475 268.261 95.1157 268.17 95.82C268.124 96.2744 268.124 96.706 268.215 97.1604C268.215 97.1604 269.896 99.1597 270.601 99.3869C271.305 99.6141 272.236 99.9322 272.236 99.9322L272.827 100.773L272.418 105.862L278.212 100.068Z" fill="#FFC3AA"/>
<path d="M271.669 104.66C271.669 104.66 270.261 115.701 270.92 118.087C271.578 120.472 272.692 123.767 274.736 124.448C276.781 125.13 274.736 124.016 274.736 124.016C274.736 124.016 282.893 117.178 282.984 117.292C283.074 117.405 278.599 99.207 278.599 99.207L271.669 104.66Z" fill="#B18AD9"/>
<path d="M313.677 99.1608C312.928 95.3213 309.429 92.5041 307.543 91.1636C306.952 90.732 304.999 89.8914 303.795 89.8914C303.635 89.8914 302.545 90.5729 300.886 91.3C298.501 92.345 295.865 92.6858 293.298 92.2769C291.163 91.7998 287.3 93.1402 284.824 96.23C282.802 98.7519 275.418 112.52 275.418 112.52C275.418 112.52 272.76 115.473 272.624 117.563C272.487 119.654 271.192 124.22 276.304 125.81C279.076 126.674 282.029 125.174 284.029 122.062L284.892 120.699C284.847 121.38 285.869 123.948 287.846 124.947C289.709 125.901 288.618 128.673 288.732 129.377L313.109 128.878C312.814 126.856 315.177 106.749 313.677 99.1608Z" fill="#B18AD9"/>
<path d="M292.844 109.362C292.912 109.407 291.117 112.065 288.822 115.291C286.528 118.518 284.642 121.108 284.597 121.062C284.551 121.017 286.323 118.358 288.618 115.132C290.912 111.906 292.775 109.316 292.844 109.362Z" fill="#1A2E35"/>
<path d="M283.188 98.7066C283.233 98.7293 281.552 101.865 279.416 105.659C277.281 109.453 275.486 112.543 275.44 112.497C275.395 112.452 277.076 109.362 279.212 105.545C281.347 101.728 283.142 98.6611 283.188 98.7066Z" fill="#1A2E35"/>
<path d="M313.7 101.705C313.723 101.795 313.723 101.886 313.723 101.977C313.723 102.182 313.745 102.432 313.768 102.772C313.813 103.454 313.836 104.454 313.859 105.658C313.904 108.111 313.859 111.474 313.745 115.2C313.632 118.926 313.45 122.288 313.314 124.742C313.246 125.946 313.177 126.923 313.132 127.627C313.109 127.945 313.086 128.195 313.086 128.422C313.086 128.513 313.086 128.604 313.064 128.695C313.041 128.604 313.041 128.513 313.041 128.422C313.041 128.218 313.041 127.968 313.064 127.627C313.086 126.923 313.132 125.923 313.177 124.742C313.268 122.311 313.427 118.926 313.541 115.2C313.654 111.474 313.723 108.111 313.723 105.658C313.723 104.454 313.723 103.477 313.7 102.772C313.7 102.454 313.7 102.182 313.7 101.977C313.7 101.886 313.7 101.795 313.7 101.705Z" fill="#1A2E35"/>
<path d="M293.752 104.046C293.706 104.024 293.888 103.501 294.025 102.592C294.093 102.07 294.138 101.547 294.138 101.002C294.138 99.707 293.866 98.412 293.388 97.2306C293.184 96.7308 292.957 96.2764 292.684 95.822C292.207 95.0496 291.844 94.6179 291.866 94.5952C291.889 94.5724 291.98 94.686 292.162 94.8678C292.411 95.1404 292.616 95.4358 292.82 95.7311C293.116 96.1855 293.366 96.6626 293.593 97.1624C293.843 97.7759 294.047 98.412 294.184 99.0481C294.297 99.707 294.365 100.366 294.365 101.025C294.365 101.57 294.297 102.093 294.206 102.638C294.138 103.001 294.047 103.342 293.934 103.683C293.866 103.796 293.82 103.933 293.752 104.046Z" fill="#1A2E35"/>
<path d="M297.16 221.777L297.546 232.319C297.546 232.319 286.959 236.249 286.846 238.203H307.316L307.407 221.754L297.16 221.777Z" fill="#374351"/>
<path d="M307.293 238.201L307.247 236.543L287.641 237.156C287.641 237.156 286.732 237.542 286.823 238.201H307.293Z" fill="#1A2E35"/>
<path d="M297.206 232.205C297.206 232.296 297.706 232.342 298.205 232.66C298.705 232.978 298.955 233.409 299.046 233.364C299.137 233.319 299.001 232.751 298.387 232.364C297.774 231.978 297.183 232.114 297.206 232.205Z" fill="#1A2E35"/>
<path d="M295.046 233.09C295.023 233.181 295.455 233.362 295.796 233.771C296.136 234.18 296.227 234.635 296.341 234.635C296.454 234.635 296.5 234.067 296.068 233.544C295.636 233.022 295.046 232.999 295.046 233.09Z" fill="#1A2E35"/>
<path d="M293.843 235.681C293.934 235.703 294.07 235.203 293.82 234.658C293.57 234.113 293.093 233.886 293.048 233.977C293.002 234.068 293.298 234.363 293.502 234.795C293.707 235.226 293.729 235.658 293.843 235.681Z" fill="#1A2E35"/>
<path d="M313.131 128.878C313.131 128.878 316.902 135.921 317.993 143.554C319.265 152.392 312.495 159.117 312.495 159.117L308.155 186.403L307.769 230.455L296.41 230.796L290.957 178.247L293.956 129.491L313.131 128.878Z" fill="#202E3E"/>
<path d="M292.116 215.188L297.683 224.162C297.683 224.162 290.435 232.818 291.321 234.59L309.088 224.412L300.977 210.099L292.116 215.188Z" fill="#374351"/>
<path d="M309.064 224.412L308.2 223.004L291.502 233.273C291.502 233.273 290.911 234.068 291.32 234.568L309.064 224.412Z" fill="#1A2E35"/>
<path d="M297.342 224.228C297.388 224.319 297.842 224.115 298.433 224.137C299.024 224.16 299.455 224.41 299.523 224.319C299.592 224.228 299.16 223.819 298.456 223.774C297.751 223.729 297.274 224.16 297.342 224.228Z" fill="#1A2E35"/>
<path d="M295.909 226.07C295.932 226.161 296.409 226.093 296.909 226.297C297.408 226.502 297.727 226.842 297.795 226.774C297.863 226.706 297.658 226.206 297.022 225.956C296.386 225.706 295.864 225.979 295.909 226.07Z" fill="#1A2E35"/>
<path d="M296.137 228.909C296.228 228.886 296.092 228.386 295.615 228.023C295.138 227.659 294.615 227.727 294.615 227.818C294.615 227.909 295.024 228.023 295.41 228.318C295.797 228.613 296.047 228.954 296.137 228.909Z" fill="#1A2E35"/>
<path d="M288.346 133.149C288.346 133.149 272.579 178.747 275.441 184.404C278.304 190.061 293.821 223.549 293.821 223.549L306.771 216.756L292.867 182.268L304.499 158.049C304.499 158.049 309.929 153.528 312.133 147.076C314.337 140.624 311.042 128.946 311.042 128.946L288.755 129.378L288.346 133.149Z" fill="#202E3E"/>
<path d="M312.903 140.192C312.903 140.192 312.949 140.328 312.971 140.578C312.994 140.828 313.085 141.214 313.13 141.714C313.312 143.168 313.358 144.622 313.312 146.099C313.267 147.144 313.13 148.189 312.903 149.211C312.767 149.802 312.585 150.37 312.358 150.915C312.085 151.506 311.79 152.074 311.426 152.619C309.768 155.141 307.36 157.072 304.52 158.14L304.588 158.072L292.978 182.313V182.2L293.592 183.699L306.86 216.71L306.905 216.801L306.837 216.847L297.341 221.777L294.751 223.117L294.069 223.458C293.91 223.526 293.842 223.572 293.842 223.572C293.842 223.572 293.91 223.526 294.069 223.435L294.728 223.072L297.295 221.709L306.746 216.71L306.701 216.824C303.293 208.395 298.567 196.74 293.365 183.858C293.16 183.336 292.956 182.836 292.751 182.359L292.729 182.313L292.751 182.268C297.068 173.271 301.089 164.956 304.406 158.049L304.429 158.004L304.474 157.981C307.269 156.936 309.654 155.05 311.29 152.574C311.654 152.051 311.949 151.483 312.222 150.915C312.449 150.37 312.653 149.825 312.767 149.234C312.994 148.212 313.153 147.189 313.199 146.144C313.267 144.69 313.221 143.236 313.085 141.782C313.04 141.282 312.994 140.896 312.949 140.646C312.903 140.396 312.903 140.192 312.903 140.192Z" fill="#375A64"/>
<path d="M295.954 132.148C295.886 132.148 295.818 131.58 295.773 130.853C295.727 130.126 295.773 129.558 295.818 129.536C295.864 129.513 295.954 130.104 296 130.831C296.045 131.558 296.023 132.148 295.954 132.148Z" fill="#375A64"/>
<path d="M297.819 132.558C297.751 132.558 297.682 131.945 297.637 131.172C297.591 130.4 297.614 129.786 297.682 129.764C297.751 129.741 297.819 130.377 297.864 131.149C297.91 131.922 297.887 132.558 297.819 132.558Z" fill="#375A64"/>
<path d="M307.792 132.376C307.724 132.399 307.519 131.649 307.315 130.74C307.11 129.831 306.997 129.059 307.065 129.036C307.133 129.014 307.337 129.763 307.542 130.672C307.746 131.581 307.86 132.376 307.792 132.376Z" fill="#375A64"/>
<path d="M309.542 132.627C309.474 132.627 309.406 131.877 309.361 130.968C309.315 130.06 309.361 129.287 309.406 129.287C309.451 129.287 309.542 130.037 309.588 130.946C309.633 131.854 309.611 132.627 309.542 132.627Z" fill="#375A64"/>
<path d="M301.204 139.418C301.068 139.509 300.886 139.6 300.727 139.645C300.272 139.827 299.818 139.963 299.341 140.077C296.115 140.759 292.798 139.532 290.776 136.919C290.48 136.533 290.208 136.124 290.003 135.692C289.912 135.533 289.844 135.374 289.799 135.215C289.844 135.192 290.14 135.897 290.912 136.828C292.934 139.327 296.16 140.509 299.318 139.941C300.5 139.691 301.181 139.373 301.204 139.418Z" fill="#375A64"/>
<path d="M284.801 181.359C284.801 181.336 285.232 181.177 285.982 181.064C287.936 180.768 289.958 180.996 291.798 181.723C292.503 182.018 292.889 182.245 292.889 182.291C292.889 182.336 292.457 182.132 291.753 181.882C290.844 181.564 289.89 181.359 288.913 181.245C287.936 181.132 286.982 181.132 286.005 181.245C285.278 181.291 284.824 181.404 284.801 181.359Z" fill="#375A64"/>
<path d="M308.951 160.207C308.929 160.275 307.952 159.889 306.77 159.366C305.589 158.844 304.657 158.389 304.68 158.321C304.703 158.253 305.68 158.639 306.861 159.162C308.043 159.684 308.974 160.139 308.951 160.207Z" fill="#375A64"/>
</svg>
