<svg width="255" height="553" viewBox="0 0 255 553" fill="none" xmlns="http://www.w3.org/2000/svg">
<g clip-path="url(#clip0)">
<rect y="0.368164" width="255" height="552.16" rx="11.1915" fill="#7B838D"/>
<g filter="url(#filter0_d)">
<path d="M0 89.4473C0 80.0585 7.61116 72.4473 17 72.4473H238C247.389 72.4473 255 80.0585 255 89.4473V552.527H0V89.4473Z" fill="white"/>
</g>
<rect width="608.6" height="43.52" transform="translate(0 72.4473)" fill="#EDEEEF"/>
<line x1="23.552" y1="141.949" x2="86.9578" y2="141.949" stroke="#D6D9DC" stroke-width="10.8696" stroke-linecap="round"/>
<rect opacity="0.35" x="229.047" y="12.4932" width="14.28" height="7.02667" rx="1.47333" stroke="white" stroke-width="0.68"/>
<path opacity="0.4" d="M244.346 14.6475V17.3675C244.893 17.1371 245.249 16.6012 245.249 16.0075C245.249 15.4137 244.893 14.8778 244.346 14.6475Z" fill="white"/>
<rect x="230.066" y="13.5137" width="12.24" height="4.98667" rx="0.906666" fill="white"/>
<path fill-rule="evenodd" clip-rule="evenodd" d="M220.093 13.7056C221.605 13.7056 223.06 14.2864 224.157 15.3279C224.239 15.4083 224.371 15.4073 224.453 15.3256L225.242 14.5298C225.283 14.4884 225.306 14.4323 225.306 14.3739C225.305 14.3155 225.282 14.2597 225.24 14.2188C222.362 11.4632 217.822 11.4632 214.945 14.2188C214.903 14.2597 214.879 14.3155 214.879 14.3739C214.879 14.4322 214.901 14.4884 214.943 14.5298L215.732 15.3256C215.813 15.4074 215.945 15.4084 216.028 15.3279C217.124 14.2864 218.58 13.7056 220.093 13.7056ZM220.092 16.2944C220.923 16.2944 221.725 16.603 222.341 17.1605C222.424 17.2396 222.555 17.2379 222.637 17.1566L223.425 16.3608C223.466 16.3191 223.49 16.2624 223.489 16.2036C223.488 16.1447 223.464 16.0886 223.422 16.0477C221.546 14.3039 218.64 14.3039 216.764 16.0477C216.721 16.0886 216.697 16.1448 216.697 16.2036C216.696 16.2625 216.719 16.3191 216.761 16.3608L217.549 17.1566C217.63 17.2379 217.761 17.2396 217.845 17.1605C218.46 16.6034 219.261 16.2947 220.092 16.2944ZM221.673 18.0374C221.674 18.0964 221.651 18.1533 221.609 18.1947L220.245 19.5696C220.205 19.61 220.151 19.6328 220.094 19.6328C220.037 19.6328 219.982 19.61 219.942 19.5696L218.578 18.1947C218.536 18.1533 218.513 18.0964 218.514 18.0374C218.516 17.9783 218.541 17.9225 218.585 17.8829C219.456 17.147 220.731 17.147 221.602 17.8829C221.646 17.9225 221.672 17.9784 221.673 18.0374Z" fill="white"/>
<path fill-rule="evenodd" clip-rule="evenodd" d="M210.8 12.382H210.12C209.744 12.382 209.44 12.6865 209.44 13.062V18.9554C209.44 19.3309 209.744 19.6354 210.12 19.6354H210.8C211.175 19.6354 211.48 19.3309 211.48 18.9554V13.062C211.48 12.6865 211.175 12.382 210.8 12.382ZM206.948 13.9676H207.628C208.004 13.9676 208.308 14.2721 208.308 14.6476V18.9543C208.308 19.3298 208.004 19.6343 207.628 19.6343H206.948C206.573 19.6343 206.268 19.3298 206.268 18.9543V14.6476C206.268 14.2721 206.573 13.9676 206.948 13.9676ZM204.453 15.5563H203.773C203.398 15.5563 203.093 15.8608 203.093 16.2363V18.9563C203.093 19.3319 203.398 19.6363 203.773 19.6363H204.453C204.829 19.6363 205.133 19.3319 205.133 18.9563V16.2363C205.133 15.8608 204.829 15.5563 204.453 15.5563ZM201.28 16.917H200.6C200.224 16.917 199.92 17.2215 199.92 17.597V18.957C199.92 19.3326 200.224 19.637 200.6 19.637H201.28C201.655 19.637 201.96 19.3326 201.96 18.957V17.597C201.96 17.2215 201.655 16.917 201.28 16.917Z" fill="white"/>
<path d="M25.269 11.8408C23.7101 11.8408 22.5994 12.9066 22.5994 14.3659V14.3759C22.5994 15.7405 23.5656 16.7466 24.9452 16.7466C25.9314 16.7466 26.5589 16.2435 26.8229 15.6758H26.9225C26.9225 15.7306 26.9175 15.7853 26.9175 15.8401C26.8627 17.2147 26.3796 18.3304 25.2391 18.3304C24.6066 18.3304 24.1633 18.0016 23.974 17.4986L23.9591 17.4488H22.6941L22.704 17.5036C22.9331 18.6043 23.9193 19.3862 25.2391 19.3862C27.047 19.3862 28.1377 17.9518 28.1377 15.5313V15.5214C28.1377 12.9315 26.8029 11.8408 25.269 11.8408ZM25.264 15.7604C24.4472 15.7604 23.8545 15.1628 23.8545 14.331V14.3211C23.8545 13.5192 24.487 12.8867 25.2789 12.8867C26.0758 12.8867 26.6984 13.5292 26.6984 14.351V14.3609C26.6984 15.1727 26.0758 15.7604 25.264 15.7604ZM30.2854 15.606C30.7436 15.606 31.0773 15.2624 31.0773 14.8241C31.0773 14.3808 30.7436 14.0372 30.2854 14.0372C29.8322 14.0372 29.4935 14.3808 29.4935 14.8241C29.4935 15.2624 29.8322 15.606 30.2854 15.606ZM30.2854 19.3065C30.7436 19.3065 31.0773 18.9579 31.0773 18.5196C31.0773 18.0764 30.7436 17.7327 30.2854 17.7327C29.8322 17.7327 29.4935 18.0764 29.4935 18.5196C29.4935 18.9579 29.8322 19.3065 30.2854 19.3065ZM35.7701 19.2069H37.0003V17.8273H37.9665V16.7665H37.0003V12.0201H35.1824C34.2062 13.5043 33.1852 15.1578 32.2539 16.7764V17.8273H35.7701V19.2069ZM33.4492 16.7964V16.7217C34.1465 15.5014 34.9782 14.1717 35.7153 13.0461H35.79V16.7964H33.4492ZM40.7816 19.2069H42.0666V12.0201H40.7866L38.9089 13.3399V14.5502L40.6969 13.2851H40.7816V19.2069Z" fill="white"/>
<path d="M0 504.927H255V552.527H0V504.927Z" fill="#D6D9DC"/>
<rect x="13.2485" y="167.293" width="111.462" height="149.8" rx="5.79497" fill="white"/>
<rect x="13.6035" y="292.087" width="110.16" height="0.68" fill="#D6D9DC"/>
<path d="M68.5566 292.766H123.512V311.126C123.512 314.131 121.076 316.566 118.072 316.566H68.5566V292.766Z" fill="white"/>
<path d="M13.6035 292.766H68.5585V316.566H19.0435C16.0391 316.566 13.6035 314.131 13.6035 311.126V292.766Z" fill="white"/>
<path d="M68.0039 292.766H68.6839V316.566H68.0039V292.766Z" fill="#D6D9DC"/>
<rect x="33.3203" y="197.369" width="71.2912" height="71.2912" rx="35.6456" fill="#D6D9DC"/>
<rect x="13.2485" y="167.293" width="111.462" height="149.8" rx="5.79497" stroke="#D6D9DC" stroke-width="0.709952"/>
<rect x="132.52" y="167.293" width="111.462" height="149.8" rx="5.79497" fill="white"/>
<rect x="132.875" y="292.087" width="110.16" height="0.68" fill="#D6D9DC"/>
<path d="M187.83 292.766H242.785V311.126C242.785 314.131 240.349 316.566 237.345 316.566H187.83V292.766Z" fill="white"/>
<path d="M132.875 292.766H187.83V316.566H138.315C135.311 316.566 132.875 314.131 132.875 311.126V292.766Z" fill="white"/>
<path d="M187.273 292.766H187.953V316.566H187.273V292.766Z" fill="#D6D9DC"/>
<rect x="152.594" y="197.369" width="71.2912" height="71.2912" rx="35.6456" fill="#D6D9DC"/>
<rect x="132.52" y="167.293" width="111.462" height="149.8" rx="5.79497" stroke="#D6D9DC" stroke-width="0.709952"/>
<rect x="13.2485" y="336.261" width="111.462" height="149.8" rx="5.79497" fill="white"/>
<rect x="13.6035" y="461.056" width="110.16" height="0.68" fill="#D6D9DC"/>
<path d="M68.5566 461.735H123.512V480.095C123.512 483.099 121.076 485.535 118.072 485.535H68.5566V461.735Z" fill="white"/>
<path d="M13.6035 461.735H68.5585V485.535H19.0435C16.0391 485.535 13.6035 483.099 13.6035 480.095V461.735Z" fill="white"/>
<path d="M68.0039 461.735H68.6839V485.535H68.0039V461.735Z" fill="#D6D9DC"/>
<rect x="33.3203" y="366.337" width="71.2912" height="71.2912" rx="35.6456" fill="#D6D9DC"/>
<rect x="13.2485" y="336.261" width="111.462" height="149.8" rx="5.79497" stroke="#D6D9DC" stroke-width="0.709952"/>
<rect x="132.52" y="336.261" width="111.462" height="149.8" rx="5.79497" fill="white"/>
<rect x="132.875" y="461.056" width="110.16" height="0.68" fill="#D6D9DC"/>
<path d="M187.83 461.735H242.785V480.095C242.785 483.099 240.349 485.535 237.345 485.535H187.83V461.735Z" fill="white"/>
<path d="M132.875 461.735H187.83V485.535H138.315C135.311 485.535 132.875 483.099 132.875 480.095V461.735Z" fill="white"/>
<path d="M187.273 461.735H187.953V485.535H187.273V461.735Z" fill="#D6D9DC"/>
<rect x="152.594" y="366.337" width="71.2912" height="71.2912" rx="35.6456" fill="#D6D9DC"/>
<rect x="132.52" y="336.261" width="111.462" height="149.8" rx="5.79497" stroke="#D6D9DC" stroke-width="0.709952"/>
</g>
<defs>
<filter id="filter0_d" x="-10.88" y="60.2073" width="276.76" height="501.84" filterUnits="userSpaceOnUse" color-interpolation-filters="sRGB">
<feFlood flood-opacity="0" result="BackgroundImageFix"/>
<feColorMatrix in="SourceAlpha" type="matrix" values="0 0 0 0 0 0 0 0 0 0 0 0 0 0 0 0 0 0 127 0"/>
<feOffset dy="-1.36"/>
<feGaussianBlur stdDeviation="5.44"/>
<feColorMatrix type="matrix" values="0 0 0 0 0 0 0 0 0 0 0 0 0 0 0 0 0 0 0.16 0"/>
<feBlend mode="normal" in2="BackgroundImageFix" result="effect1_dropShadow"/>
<feBlend mode="normal" in="SourceGraphic" in2="effect1_dropShadow" result="shape"/>
</filter>
<clipPath id="clip0">
<rect y="0.368164" width="255" height="552.16" rx="11.1915" fill="white"/>
</clipPath>
</defs>
</svg>
