<svg width="120" height="71" viewBox="0 0 120 71" fill="none" xmlns="http://www.w3.org/2000/svg">
<g clip-path="url(#clip0)">
<path d="M14.9424 1.29877C21.2511 1.29877 25.937 4.5148 25.937 9.26132C25.937 12.9705 23.5674 14.7395 21.4786 15.5818C24.9071 16.6209 28.0239 18.6063 28.0239 22.9552C28.0239 29.3884 22.2871 31.5784 16.0793 31.5784H0.306641V1.29877H14.9424ZM9.9691 12.868H13.5217C14.9246 12.868 16.0702 11.719 16.0702 10.6452C16.0702 9.48966 14.9674 8.3509 13.5213 8.3509H9.9691V12.868ZM9.9691 24.6065H14.3741C16.3841 24.6065 17.6691 23.347 17.6691 21.8307C17.6691 20.402 16.2952 19.1523 14.6583 19.1523H9.9691V24.6065ZM22.7578 34.8808C29.0665 34.8808 33.7524 38.0968 33.7524 42.8437C33.7524 46.5525 31.3828 48.3216 29.294 49.1638C32.7222 50.2034 35.8393 52.1883 35.8393 56.5373C35.8393 62.9704 30.1021 65.1604 23.8943 65.1604H8.12203V34.8812L22.7578 34.8808ZM17.7845 46.45H21.3367C22.7396 46.45 23.8856 45.3011 23.8856 44.2272C23.8856 43.0717 22.7825 41.9329 21.3367 41.9329H17.7841L17.7845 46.45ZM17.7845 58.1889H22.1891C24.1995 58.1889 25.4841 56.9294 25.4841 55.4127C25.4841 53.9844 24.1102 52.7347 22.4733 52.7347H17.7845V58.1889ZM28.7823 31.5747V1.29512H53.0809V8.60805H38.4165V12.5787H50.3241V19.4343H38.4165V24.2906H53.0806V31.5747H28.7823ZM53.5487 27.4435L59.2927 21.9394C60.6808 23.0986 62.4643 24.4646 64.716 24.4646C66.6992 24.4646 67.7925 23.3156 67.7925 22.1732C67.7925 18.9141 54.7106 20.4217 54.7106 10.0357C54.7106 4.78362 59.4851 0.429932 66.783 0.429932C71.642 0.429932 75.2494 2.26683 77.5334 4.45169L71.8234 9.91715C71.8234 9.91715 70.1752 8.40671 67.8945 8.40671C66.5711 8.40671 65.2806 9.06107 65.2806 10.2947C65.2806 13.4877 78.5538 11.9094 78.5538 22.1652C78.5538 28.5199 73.083 32.4414 66.2437 32.4414C59.5751 32.4414 55.8617 29.7083 53.549 27.4439L53.5487 27.4435ZM85.99 31.5747V8.5796H78.0323V1.29549H103.609V8.5796H95.652V31.5747H85.99ZM36.1713 34.8597H45.8055V52.9988C45.8055 54.8408 47.6293 56.538 49.5308 56.538C51.3246 56.538 53.1375 55.0053 53.1375 52.9018V34.8597H62.743V52.7785C62.743 59.8886 56.8701 65.5605 49.2765 65.5605C41.6389 65.5605 36.1713 59.3878 36.1713 52.3911V34.8597ZM74.6223 65.1392V54.3196L63.2989 34.86H73.0463L79.4534 45.2861L85.8829 34.8597H95.6524L84.2848 54.4308V65.1392H74.6223Z" fill="white"/>
<path d="M119.695 51.4314V70.57H95.6526L89.9688 64.8572V57.1445L95.6526 51.4314H119.695Z" fill="#FFED31"/>
<path d="M94.7197 60.9971C94.7197 61.338 94.585 61.6649 94.3452 61.9059C94.1053 62.147 93.7801 62.2824 93.4409 62.2824C93.1017 62.2824 92.7765 62.147 92.5367 61.9059C92.2968 61.6649 92.1621 61.338 92.1621 60.9971C92.1621 60.6561 92.2968 60.3292 92.5367 60.0881C92.7765 59.8471 93.1017 59.7117 93.4409 59.7117C93.7801 59.7117 94.1053 59.8471 94.3452 60.0881C94.585 60.3292 94.7197 60.6561 94.7197 60.9971Z" fill="white"/>
</g>
<defs>
<clipPath id="clip0">
<rect width="119.405" height="70.1401" fill="white" transform="translate(0.296875 0.429932)"/>
</clipPath>
</defs>
</svg>
