<svg width="49" height="49" viewBox="0 0 49 49" fill="none" xmlns="http://www.w3.org/2000/svg">
<path d="M24.3528 0.029641C24.3528 0.029641 38.4489 -0.602922 45.9223 13.5657H23.1534C23.1534 13.5657 18.8565 13.4272 15.1859 18.6401C14.1315 20.828 12.9982 23.0819 14.27 27.5236C12.4378 24.4196 4.54297 10.6728 4.54297 10.6728C4.54297 10.6728 10.1116 0.589777 24.3526 0.029641H24.3528Z" fill="#EF3F36"/>
<path d="M45.1907 35.9985C45.1907 35.9985 38.6862 48.5262 22.6855 47.9067C24.6626 44.4864 34.0732 28.1891 34.0732 28.1891C34.0732 28.1891 36.3468 24.5382 33.6646 18.7522C32.3003 16.7422 30.9098 14.64 26.4287 13.5195C30.0336 13.4867 45.8828 13.5195 45.8828 13.5195C45.8828 13.5195 51.8203 23.385 45.1907 35.9985Z" fill="#FCD900"/>
<path d="M3.61428 36.0973C3.61428 36.0973 -3.98414 24.2021 4.55657 10.653C6.52706 14.0733 15.9376 30.3705 15.9376 30.3705C15.9376 30.3705 17.9675 34.1665 24.3137 34.733C26.7324 34.5552 29.2497 34.4036 32.4658 31.0888C30.6928 34.2258 22.7384 47.9331 22.7384 47.9331C22.7384 47.9331 11.2191 48.144 3.61409 36.0973H3.61428Z" fill="#61BC5B"/>
<path d="M22.6797 48.0254L25.8824 34.6608C25.8824 34.6608 29.4015 34.3838 32.354 31.1482C30.5218 34.3709 22.6797 48.0254 22.6797 48.0254Z" fill="#5AB055"/>
<path d="M13.625 24.1758C13.625 18.2843 18.4029 13.5064 24.2943 13.5064C30.1858 13.5064 34.9637 18.2843 34.9637 24.1758C34.9637 30.0674 30.1858 34.8451 24.2943 34.8451C18.4029 34.8385 13.625 30.0674 13.625 24.1758Z" fill="white"/>
<path d="M15.4102 24.1757C15.4102 19.2728 19.3841 15.2924 24.2937 15.2924C29.1966 15.2924 33.1771 19.2663 33.1771 24.1757C33.1771 29.0788 29.2034 33.0593 24.2937 33.0593C19.3906 33.0593 15.4102 29.0788 15.4102 24.1757Z" fill="url(#paint0_linear)"/>
<path d="M45.8758 13.5262L32.6889 17.3946C32.6889 17.3946 30.6988 14.4751 26.4219 13.5262C30.1321 13.5064 45.8758 13.5262 45.8758 13.5262Z" fill="#EACA05"/>
<path d="M14.0131 27.036C12.161 23.8266 4.54297 10.6728 4.54297 10.6728L14.3095 20.3338C14.3095 20.3338 13.3077 22.3966 13.6835 25.3488L14.0129 27.036H14.0131Z" fill="#DF3A32"/>
<defs>
<linearGradient id="paint0_linear" x1="24.2933" y1="15.4178" x2="24.2933" y2="32.5245" gradientUnits="userSpaceOnUse">
<stop stop-color="#86BBE5"/>
<stop offset="1" stop-color="#1072BA"/>
</linearGradient>
</defs>
</svg>
