<svg width="248" height="217" viewBox="0 0 248 217" fill="none" xmlns="http://www.w3.org/2000/svg">
<g clip-path="url(#clip0)">
<path d="M219.222 0.25H70.3219C61.6219 0.25 53.3219 3.85 47.1219 10.35C40.9219 16.85 37.5219 25.65 37.5219 34.85V90.85H5.42188L37.5219 124.75V162.75C37.5219 171.95 41.0219 180.75 47.1219 187.25C53.3219 193.75 61.6219 197.35 70.3219 197.35H219.222C227.922 197.35 236.222 193.75 242.422 187.25C248.622 180.75 252.022 171.95 252.022 162.75V34.85C252.022 25.65 248.522 16.85 242.422 10.35C236.322 3.95 227.922 0.25 219.222 0.25Z" fill="#FEE698"/>
<path d="M91.5218 9.3499C99.1218 1.2499 109.422 3.1499 118.022 5.1499C120.022 3.2499 128.422 1.6499 134.222 3.2499C146.622 6.5499 164.022 24.6499 146.222 83.6499H77.8218C74.2218 62.1499 74.6218 27.3499 91.5218 9.3499Z" fill="#1F2D3D"/>
<path d="M126.022 64.0498L125.422 82.8498C125.222 89.5498 119.822 95.0498 113.022 95.0498C105.622 95.1498 99.7218 88.7498 100.422 81.3498L104.322 45.5498L126.022 64.0498Z" fill="#F8B498"/>
<path d="M141.322 16.0499C143.422 17.7499 144.722 20.2499 145.222 22.8499C146.822 30.6499 149.822 46.8499 147.122 55.1499C143.522 65.9499 134.822 72.7499 120.622 70.0499C120.622 70.0499 104.222 69.3499 100.222 45.2499C94.4218 11.1499 123.722 1.14994 141.322 16.0499Z" fill="#F8B498"/>
<path d="M122.322 11.3499C122.322 11.3499 137.922 9.24989 145.222 22.8499C145.222 22.8499 144.522 3.14989 120.722 5.84989L122.322 11.3499Z" fill="#1F2D3D"/>
<path d="M122.322 11.3499C122.322 11.3499 113.722 11.8499 112.022 20.4499C110.722 26.9499 116.922 33.9499 106.922 44.4499L96.6219 35.6499C96.6219 35.6499 89.7219 5.64987 120.722 5.84987L122.322 11.3499Z" fill="#1F2D3D"/>
<path d="M142.222 40.2498C142.522 41.2498 143.522 41.8498 144.522 41.5498C145.522 41.2498 146.122 40.2498 145.822 39.2498C145.522 38.2498 144.522 37.6498 143.522 37.9498C142.622 38.1498 142.022 39.2498 142.222 40.2498Z" fill="#101010"/>
<path d="M126.422 40.5499C126.722 41.5499 127.722 42.1499 128.722 41.8499C129.722 41.5499 130.322 40.5499 130.022 39.5499C129.722 38.5499 128.722 37.9499 127.722 38.2499C126.822 38.5499 126.222 39.5499 126.422 40.5499Z" fill="#101010"/>
<path d="M136.322 34.5498L139.922 45.0498C140.422 46.6498 139.522 48.3498 137.922 48.7498" stroke="#FF9574" stroke-width="1.1096" stroke-miterlimit="10" stroke-linecap="round" stroke-linejoin="round"/>
<path d="M139.822 53.2498L129.322 52.0498C129.322 52.0498 128.622 56.3498 133.822 56.9498C139.122 57.5498 139.822 53.2498 139.822 53.2498Z" fill="white"/>
<path d="M142.422 30.1498C142.422 30.1498 145.722 29.6498 150.022 32.3498" stroke="#1F2D3D" stroke-width="3.2783" stroke-miterlimit="10" stroke-linecap="round"/>
<path d="M131.422 30.1498C131.422 30.1498 123.222 28.5498 118.822 32.3498" stroke="#1F2D3D" stroke-width="3.2783" stroke-miterlimit="10" stroke-linecap="round"/>
<path d="M140.122 39.7497C140.122 43.4497 142.822 46.5497 146.222 46.5497C149.622 46.5497 152.322 43.5497 152.322 39.7497C152.322 36.0497 149.622 32.9497 146.222 32.9497C142.822 32.9497 140.122 35.9497 140.122 39.7497Z" stroke="white" stroke-width="1.0508" stroke-miterlimit="10"/>
<path d="M119.722 40.3498C119.722 44.0498 122.722 47.1498 126.522 47.1498C130.322 47.1498 133.322 44.1498 133.322 40.3498C133.322 36.5498 130.322 33.5498 126.522 33.5498C122.722 33.5498 119.722 36.5498 119.722 40.3498Z" stroke="white" stroke-width="1.1051" stroke-miterlimit="10"/>
<path d="M140.122 39.7497C140.122 39.7497 136.722 37.3497 133.322 40.3497" stroke="white" stroke-width="1.1051" stroke-miterlimit="10"/>
<path d="M119.722 40.3498L104.222 39.5498" stroke="white" stroke-width="1.1051" stroke-miterlimit="10"/>
<path d="M99.5218 55.05C104.989 55.05 109.422 50.6176 109.422 45.15C109.422 39.6824 104.989 35.25 99.5218 35.25C94.0542 35.25 89.6218 39.6824 89.6218 45.15C89.6218 50.6176 94.0542 55.05 99.5218 55.05Z" fill="#F8B498"/>
<path d="M95.0219 42.2501C95.0219 42.2501 102.322 40.1501 104.222 48.1501" stroke="#FF9574" stroke-width="1.1096" stroke-miterlimit="10" stroke-linecap="round" stroke-linejoin="round"/>
<path d="M140.822 88.3501L133.822 86.5501C134.622 86.0501 135.122 85.1501 135.422 84.2501C135.722 83.3501 135.622 82.3501 135.222 81.4501C134.822 80.3501 134.022 79.3501 133.122 78.5501C132.222 77.8501 131.122 77.3501 129.922 77.2501L98.2219 73.4501C97.6219 73.3501 97.1219 73.4501 96.6219 73.7501C96.1219 74.0501 95.7219 74.5501 95.5219 75.0501C94.1219 78.8501 94.0219 81.9501 95.4219 84.3501H95.3219L89.2219 85.6501L78.8219 182.05L146.722 178.75L140.822 88.3501Z" fill="#E1F0F9"/>
<path d="M177.222 147.05L208.822 88.5499L212.622 78.4499C212.622 78.4499 222.422 56.1499 223.122 53.8499C223.922 51.2499 225.322 51.0499 226.222 51.3499C227.622 51.9499 228.022 54.1499 227.422 56.4499C227.222 57.2499 223.422 69.4499 223.422 69.4499C224.422 68.5499 225.522 67.6499 226.722 66.8499C229.122 65.0499 233.622 65.1499 237.722 66.7499C241.822 68.3499 242.822 69.1499 242.322 70.8499C242.222 71.1499 242.022 71.4499 241.822 71.6499C241.622 71.8499 241.322 72.0499 241.022 72.1499C240.022 72.5499 238.922 72.6499 238.022 72.2499C231.422 69.8499 228.522 73.0499 228.522 73.0499L228.022 74.3499C228.022 74.3499 233.022 72.6499 235.822 75.0499C236.222 75.3499 236.622 75.8499 236.822 76.3499C237.722 76.6499 238.522 77.2499 239.222 77.9499C239.822 78.6499 240.322 79.6499 240.522 80.5499C240.722 81.5499 240.722 82.5499 240.422 83.5499C240.122 84.5499 239.622 85.3499 238.922 86.0499C238.622 86.4499 238.222 86.6499 237.722 86.7499C237.222 86.8499 236.822 86.8499 236.422 86.6499C236.022 86.3499 235.722 85.9499 235.522 85.4499C235.422 85.2499 235.222 84.9499 235.022 84.7499L233.122 88.2499C233.122 88.2499 228.522 95.8499 226.822 99.4499L205.122 160.55C204.422 162.55 203.322 164.45 201.922 165.95C200.522 167.55 198.822 168.75 197.022 169.65C195.222 170.55 193.122 170.95 191.122 171.05C189.122 171.05 187.022 170.75 185.122 169.95C183.122 169.05 181.222 167.75 179.722 166.15C178.222 164.45 177.022 162.45 176.322 160.35C175.622 158.25 175.322 155.85 175.522 153.55C175.722 151.25 176.122 149.05 177.222 147.05Z" fill="#F8B498"/>
<path d="M210.922 88.3501C212.022 89.1501 213.622 88.5501 214.622 87.6501C215.622 86.7501 216.322 85.4501 217.222 84.4501C220.022 81.4501 224.722 81.2501 227.422 78.1501C227.822 77.7501 228.122 77.0501 227.822 76.5501C227.522 76.0501 226.922 76.1501 226.422 76.2501L213.522 78.9501" fill="#F8B498"/>
<path d="M213.522 79.05C213.922 78.85 214.422 78.65 214.922 78.65C215.822 78.45 217.122 78.15 218.722 77.75L224.322 76.45L226.022 76.05C226.622 75.85 227.422 75.85 228.022 76.15C228.222 76.25 228.322 76.45 228.422 76.75C228.522 76.95 228.522 77.25 228.422 77.45C228.322 77.85 228.122 78.15 227.922 78.45C227.522 78.95 227.022 79.45 226.422 79.85C224.322 81.45 221.922 82.05 220.022 83.15C219.122 83.55 218.322 84.15 217.622 84.95C216.922 85.65 216.422 86.35 215.922 87.05C215.522 87.65 215.022 88.15 214.422 88.45C213.822 88.85 213.222 89.05 212.522 89.05C211.522 89.05 211.122 88.55 211.122 88.55C211.522 88.75 212.022 88.75 212.522 88.75C213.122 88.65 213.722 88.45 214.222 88.05C214.722 87.65 215.222 87.25 215.522 86.65C216.022 85.85 216.622 85.15 217.222 84.45C218.022 83.65 218.822 83.05 219.822 82.45C221.722 81.35 224.122 80.65 226.122 79.15C226.622 78.75 227.022 78.35 227.422 77.95C227.822 77.55 227.922 77.05 227.622 76.85C227.322 76.75 226.822 76.75 226.222 76.85L224.522 77.15L218.822 78.25C217.222 78.55 215.922 78.75 215.022 78.95C214.422 79.05 213.922 79.05 213.522 79.05Z" fill="#EB996E"/>
<path d="M227.722 74.35C228.022 73.55 228.522 72.85 229.222 72.25C229.922 71.65 230.822 71.35 231.722 71.35C232.822 71.35 234.022 71.55 235.022 71.95C236.122 72.35 237.222 72.65 238.422 72.75C239.422 72.85 240.322 72.75 241.222 72.25C241.522 72.15 241.822 71.85 242.022 71.65C242.222 71.35 242.422 71.05 242.422 70.65C242.522 70.45 242.522 70.15 242.422 69.95C242.422 69.95 242.422 70.25 242.222 70.65C242.122 70.95 242.022 71.25 241.822 71.45C241.622 71.65 241.422 71.85 241.122 71.95C240.322 72.25 239.322 72.35 238.422 72.25C237.322 72.05 236.222 71.75 235.122 71.35C234.022 70.95 232.822 70.75 231.722 70.75C230.722 70.75 229.822 71.15 229.022 71.85C228.522 72.25 228.122 72.85 227.922 73.55C227.722 74.05 227.722 74.35 227.722 74.35Z" fill="#EB996E"/>
<path d="M227.722 55.45C227.422 56.25 227.122 57.0499 226.922 57.8499C226.422 59.5499 225.822 61.55 225.222 63.75C224.622 65.95 223.922 67.95 223.422 69.65C223.122 70.45 222.922 71.25 222.722 72.15C223.122 71.45 223.522 70.6499 223.722 69.8499C224.222 68.3499 224.922 66.3499 225.622 64.0499C226.322 61.7499 226.822 59.6499 227.222 58.0499C227.422 57.1499 227.622 56.35 227.722 55.45Z" fill="#EB996E"/>
<path d="M229.522 78.0499C229.822 78.0499 230.022 78.0499 230.322 78.0499C230.622 77.9499 230.922 78.0499 231.322 78.0499C231.622 78.1499 231.922 78.2499 232.222 78.5499C232.322 78.7499 232.422 78.9499 232.522 79.1499C232.622 79.3499 232.522 79.5499 232.522 79.8499C232.422 80.3499 232.222 80.9499 231.922 81.3499C231.622 81.9499 231.522 82.6499 231.622 83.3499C231.722 83.7499 231.922 84.0499 232.222 84.3499C232.522 84.6499 232.822 84.8499 233.122 84.9499C233.422 85.0499 233.822 85.1499 234.222 85.0499C234.622 85.0499 234.922 84.8499 235.222 84.7499C235.822 84.4499 236.322 83.9499 236.622 83.3499C237.122 82.3499 237.422 81.2499 237.522 80.1499C237.622 79.4499 237.622 78.6499 237.522 77.9499C237.522 77.6499 237.422 77.4499 237.222 77.1499C237.222 77.1499 237.322 77.4499 237.322 77.9499C237.322 78.6499 237.322 79.3499 237.122 80.0499C236.922 81.0499 236.622 82.0499 236.122 83.0499C235.822 83.5499 235.422 84.0499 234.922 84.2499C234.422 84.4499 233.822 84.5499 233.222 84.4499C232.922 84.3499 232.722 84.1499 232.522 83.9499C232.322 83.7499 232.122 83.4499 232.022 83.1499C231.922 82.5499 232.022 81.9499 232.322 81.4499C232.622 80.9499 232.822 80.3499 232.922 79.7499C233.022 79.4499 232.922 79.1499 232.922 78.9499C232.822 78.6499 232.722 78.4499 232.522 78.2499C232.222 78.0499 231.922 77.8499 231.522 77.7499C231.122 77.6499 230.822 77.6499 230.422 77.7499C230.022 77.8499 229.722 77.9499 229.522 78.0499Z" fill="#EB996E"/>
<path d="M234.922 84.15C234.922 84.15 234.722 84.35 234.822 84.85C234.822 85.15 234.922 85.55 235.122 85.85C235.322 86.15 235.522 86.35 235.822 86.55C236.222 86.85 236.722 86.95 237.222 86.95C237.722 86.95 238.222 86.85 238.622 86.55C239.622 85.95 240.422 84.95 240.722 83.75C241.122 82.55 241.122 81.35 240.722 80.15C240.422 79.15 239.922 78.35 239.222 77.65C238.722 77.25 238.222 76.85 237.622 76.65C237.422 76.55 237.222 76.45 236.922 76.45C237.622 76.85 238.322 77.35 239.022 77.85C239.722 78.55 240.222 79.45 240.422 80.45C240.622 81.45 240.622 82.45 240.322 83.45C240.022 84.55 239.322 85.45 238.422 86.05C238.022 86.25 237.622 86.35 237.222 86.45C236.822 86.45 236.422 86.35 236.022 86.15C235.822 85.95 235.522 85.75 235.422 85.55C235.222 85.35 235.122 85.05 235.122 84.75C234.922 84.45 235.022 84.15 234.922 84.15Z" fill="#EB996E"/>
<path d="M224.422 89.75C224.122 89.55 223.722 89.35 223.322 89.35C222.322 89.25 221.322 89.55 220.422 90.05L220.822 90.35C220.922 89.75 221.022 89.15 221.022 88.55C221.322 85.15 220.322 82.55 220.222 82.65C220.522 84.55 220.622 86.55 220.622 88.55C220.622 89.15 220.522 89.65 220.422 90.25L220.322 90.85L220.822 90.55C221.622 90.05 222.522 89.75 223.422 89.75C224.022 89.65 224.422 89.75 224.422 89.75Z" fill="#EB996E"/>
<path d="M231.022 68.8501C230.922 68.8501 231.122 69.9501 231.922 70.7501C232.822 71.5501 233.822 71.6501 233.822 71.4501C233.822 71.2501 233.022 71.0501 232.322 70.3501C231.522 69.6501 231.122 68.8501 231.022 68.8501Z" fill="#EB996E"/>
<path d="M132.422 195.55L165.422 195.85L159.922 170.55L161.822 175.35C163.522 179.75 166.422 183.55 170.222 186.15C173.922 188.85 178.422 190.25 182.922 190.25C193.322 190.25 200.622 182.05 205.022 172.05C215.322 148.75 225.322 111.15 225.322 111.15L205.222 92.45C190.622 121.55 176.922 146.75 176.922 146.75C176.922 146.75 172.922 134.05 169.922 122.75C166.922 111.45 166.922 105.45 162.222 99.85C155.022 91.15 144.722 89.05 135.122 86.45L134.722 133.45L132.422 195.55Z" fill="#5CB7E7"/>
<path d="M94.6219 160.65L154.822 172.95L157.722 197.35H65.4219C62.9219 197.35 60.4219 196.85 58.0219 195.85C55.7219 194.85 53.6219 193.25 51.9219 191.35C50.2219 189.45 48.9219 187.15 48.0219 184.55C47.2219 182.05 46.8219 179.35 47.0219 176.75C48.3219 158.95 49.8219 137.15 50.9219 127.85C51.7219 120.65 54.5219 113.15 57.7219 106.75C62.4219 97.55 77.9219 85.65 91.5219 85.05L94.1219 145.45" fill="#5CB7E7"/>
<path d="M176.022 213.65C176.122 214.05 176.122 214.45 176.022 214.85C175.922 215.25 175.722 215.65 175.522 215.95C175.222 216.25 174.922 216.45 174.622 216.65C174.222 216.75 173.822 216.85 173.522 216.75C173.122 216.65 172.622 216.45 172.322 216.15C172.022 215.85 171.722 215.45 171.622 214.95L170.922 212.15H171.022C171.122 212.55 171.122 212.95 170.922 213.35C170.822 213.75 170.622 214.05 170.322 214.35C170.022 214.65 169.722 214.85 169.322 215.05C168.922 215.15 168.522 215.25 168.222 215.15C167.122 215.15 166.222 213.45 165.922 212.55C165.122 212.65 164.222 212.45 163.522 212.15C162.822 211.75 162.122 211.15 161.722 210.45L156.822 202.45L147.722 195.45L153.222 174.85L172.722 188.15C173.522 188.75 173.622 189.05 174.822 190.25L187.422 202.45C186.022 203.35 184.822 203.25 182.822 202.45C180.822 201.65 172.122 195.45 172.122 195.45L176.022 213.65Z" fill="#F8B498"/>
<path d="M159.322 196.75C159.322 196.75 159.522 196.85 159.922 197.15L160.522 197.65C160.822 197.85 161.122 198.15 161.322 198.35C161.622 198.65 161.822 199.15 162.022 199.55C162.222 200.05 162.322 200.45 162.522 200.95L163.622 204.25C164.322 206.65 165.022 208.75 165.422 210.25C165.722 211.05 165.922 211.95 166.022 212.75C165.622 211.95 165.322 211.15 165.122 210.35C164.622 208.85 163.922 206.75 163.122 204.35C162.722 203.15 162.422 202.05 162.122 201.05C161.922 200.55 161.822 200.05 161.722 199.65C161.622 199.25 161.422 198.85 161.122 198.55C160.922 198.25 160.622 198.05 160.422 197.85L159.822 197.35C159.422 196.95 159.322 196.75 159.322 196.75Z" fill="#EB996E"/>
<path d="M171.022 212.75C170.922 212.45 170.822 212.15 170.722 211.85L170.122 209.45C169.622 207.45 168.922 204.75 168.022 201.75C167.122 198.75 166.122 196.05 165.022 194.45C164.622 193.75 164.022 193.25 163.422 192.75C162.922 192.45 162.622 192.35 162.722 192.35C162.822 192.35 162.922 192.35 162.922 192.35C163.122 192.45 163.322 192.45 163.522 192.55C164.222 192.95 164.822 193.55 165.322 194.15C166.522 195.85 167.522 198.55 168.522 201.55C169.422 204.55 170.122 207.35 170.522 209.35C170.722 210.35 170.922 211.15 171.022 211.75C171.022 212.15 171.022 212.45 171.022 212.75Z" fill="#EB996E"/>
<path d="M176.022 214.05C175.922 213.75 175.722 213.45 175.722 213.15C175.522 212.45 175.222 211.55 174.922 210.55C174.322 208.35 173.422 205.35 172.522 202.05C171.622 198.75 170.822 195.85 170.222 193.55C170.022 192.75 169.522 191.95 168.922 191.45C168.622 191.25 168.422 191.15 168.122 190.95C168.222 190.95 168.322 190.95 168.322 190.95C168.522 191.05 168.822 191.15 169.022 191.25C169.722 191.75 170.322 192.55 170.522 193.45C171.222 195.65 172.022 198.65 172.922 201.95C173.822 205.25 174.622 208.35 175.222 210.45C175.422 211.45 175.722 212.35 175.822 213.05C175.922 213.35 176.022 213.65 176.022 214.05Z" fill="#EB996E"/>
<path d="M68.2219 172.45C68.2219 172.45 72.5219 163.25 77.6219 161.15C82.7219 159.05 83.3219 158.85 83.3219 158.85C83.3219 158.85 139.722 168.95 145.522 171.05C149.922 172.65 153.222 174.85 153.222 174.85" stroke="black" stroke-width="0.25" stroke-miterlimit="10" stroke-linecap="round"/>
<path d="M76.6218 103.45C76.6218 103.45 80.3218 103.65 82.3218 117.35C84.3218 131.05 83.3218 158.85 83.3218 158.85" stroke="black" stroke-width="0.25" stroke-miterlimit="10" stroke-linecap="round"/>
<path d="M98.3219 85.25C98.3219 85.25 107.322 87.65 115.222 87.95C123.122 88.25 130.922 86.95 130.922 86.95" stroke="black" stroke-width="0.25" stroke-miterlimit="10" stroke-linecap="round"/>
<path d="M155.822 113.65C155.822 113.65 157.322 162.55 159.922 170.55" stroke="black" stroke-width="0.25" stroke-miterlimit="10" stroke-linecap="round"/>
<path d="M181.022 164.55C181.022 164.55 175.522 157.45 176.922 147.05" stroke="black" stroke-width="0.25" stroke-miterlimit="10" stroke-linecap="round"/>
</g>
<defs>
<clipPath id="clip0">
<rect width="246.6" height="216.5" fill="white" transform="translate(0.421875 0.25)"/>
</clipPath>
</defs>
</svg>
