<svg width="590" height="574" viewBox="0 0 590 574" fill="none" xmlns="http://www.w3.org/2000/svg">
<path fill-rule="evenodd" clip-rule="evenodd" d="M532.521 348.071L288.137 514.42L54.4038 333.411L154.288 55.0874L449.781 64.1479L532.521 348.071Z" fill="#ECF1FA"/>
<rect x="69.0176" y="1.23975" width="149.941" height="194.924" rx="6.81552" fill="#FCFDFE"/>
<circle cx="79.2417" cy="11.4629" r="3.40776" fill="#F5B0B2"/>
<circle cx="89.4644" cy="11.4629" r="3.40776" fill="#FEE182"/>
<circle cx="99.689" cy="11.4629" r="3.40776" fill="#A2D9C0"/>
<path d="M208.737 21.6863H79.2417C77.3597 21.6863 75.834 23.212 75.834 25.094V86.4336C75.834 88.3157 77.3597 89.8414 79.2417 89.8414H208.737C210.619 89.8414 212.144 88.3157 212.144 86.4336V25.094C212.144 23.212 210.619 21.6863 208.737 21.6863Z" fill="#CBE8F7"/>
<rect x="75.834" y="98.02" width="136.31" height="2.72621" rx="1.3631" fill="#E8EEF9"/>
<circle cx="169.207" cy="99.3832" r="2.72621" fill="#D8E3F5"/>
<rect width="136.31" height="2.72621" rx="1.3631" transform="matrix(-1 0 0 1 212.143 110.288)" fill="#E8EEF9"/>
<circle r="2.72621" transform="matrix(-1 0 0 1 118.77 111.651)" fill="#D8E3F5"/>
<path d="M137.174 121.193H79.2417C77.3597 121.193 75.834 122.719 75.834 124.601V185.94C75.834 187.822 77.3597 189.348 79.2417 189.348H137.174C139.056 189.348 140.581 187.822 140.581 185.94V124.601C140.581 122.719 139.056 121.193 137.174 121.193Z" fill="#FEE182"/>
<path d="M208.736 121.193H150.804C148.922 121.193 147.396 122.719 147.396 124.601V185.94C147.396 187.822 148.922 189.348 150.804 189.348H208.736C210.618 189.348 212.144 187.822 212.144 185.94V124.601C212.144 122.719 210.618 121.193 208.736 121.193Z" fill="#A2D9C0"/>
<rect x="388.5" y="116" width="152.555" height="155.329" rx="6.93433" fill="#FCFDFE"/>
<circle cx="398.901" cy="126.401" r="3.46716" fill="#F5B0B2"/>
<circle cx="409.303" cy="126.401" r="3.46716" fill="#FEE182"/>
<circle cx="419.703" cy="126.401" r="3.46716" fill="#A2D9C0"/>
<path d="M530.653 136.803H398.901C396.986 136.803 395.434 138.355 395.434 140.27V202.679C395.434 204.594 396.986 206.146 398.901 206.146H530.653C532.568 206.146 534.12 204.594 534.12 202.679V140.27C534.12 138.355 532.568 136.803 530.653 136.803Z" fill="#CBE8F7"/>
<rect x="395.434" y="213.081" width="138.687" height="5.54746" rx="2.77373" fill="#E8EEF9"/>
<rect x="395.434" y="225.562" width="138.687" height="2.77373" rx="1.38687" fill="#E8EEF9"/>
<rect x="395.434" y="235.27" width="138.687" height="2.77373" rx="1.38687" fill="#E8EEF9"/>
<rect x="395.434" y="244.978" width="138.687" height="2.77373" rx="1.38687" fill="#E8EEF9"/>
<rect x="395.434" y="254.687" width="55.4746" height="2.77373" rx="1.38687" fill="#E8EEF9"/>
<path fill-rule="evenodd" clip-rule="evenodd" d="M465.772 191.742L453.559 179.724L460.309 172.922L479.348 191.742H465.772Z" fill="#02539A"/>
<path fill-rule="evenodd" clip-rule="evenodd" d="M453.406 179.734L465.511 167.744H479.12L460.288 186.396L453.406 179.734Z" fill="#45D1FD" fill-opacity="0.85"/>
<path fill-rule="evenodd" clip-rule="evenodd" d="M442.928 169.275L449.8 176.078L479.12 147.038H465.441L442.928 169.275Z" fill="#45D1FD"/>
<path d="M169.778 55.7687C169.778 52.5712 165.499 49.541 158.938 47.6619C160.452 41.4046 159.78 36.4263 156.815 34.8325C156.131 34.4587 155.332 34.2816 154.46 34.2816V36.4755C154.943 36.4755 155.332 36.5641 155.658 36.7313C157.088 37.4987 157.708 40.4208 157.225 44.179C157.109 45.1039 156.92 46.0779 156.689 47.0715C154.628 46.5993 152.378 46.2353 150.012 45.9992C148.593 44.179 147.121 42.5262 145.638 41.0799C149.066 38.0989 152.283 36.4657 154.47 36.4657V34.2717C151.579 34.2717 147.794 36.2001 143.967 39.5451C140.14 36.2197 136.355 34.3111 133.463 34.3111V36.5051C135.64 36.5051 138.868 38.1284 142.295 41.0898C140.823 42.536 139.351 44.179 137.953 45.9992C135.577 46.2353 133.327 46.5993 131.266 47.0814C131.024 46.0975 130.845 45.1432 130.719 44.2282C130.225 40.4699 130.835 37.5479 132.254 36.7707C132.57 36.5936 132.98 36.5149 133.463 36.5149V34.3209C132.58 34.3209 131.781 34.498 131.087 34.8719C128.133 36.4657 127.47 41.4341 128.995 47.6717C122.455 49.5607 118.197 52.5811 118.197 55.7687C118.197 58.9662 122.476 61.9965 129.037 63.8756C127.523 70.1329 128.196 75.1111 131.161 76.7049C131.844 77.0788 132.643 77.2559 133.526 77.2559C136.418 77.2559 140.203 75.3276 144.03 71.9825C147.857 75.3079 151.642 77.2165 154.533 77.2165C155.416 77.2165 156.215 77.0394 156.909 76.6656C159.864 75.0718 160.526 70.1033 159.002 63.8658C165.52 61.9866 169.778 58.9564 169.778 55.7687ZM156.089 49.2065C155.7 50.4756 155.217 51.7842 154.67 53.0927C154.239 52.3056 153.787 51.5185 153.293 50.7314C152.809 49.9444 152.294 49.177 151.779 48.4292C153.272 48.6359 154.712 48.8917 156.089 49.2065ZM151.274 59.6844C150.454 61.0126 149.613 62.2719 148.74 63.4427C147.173 63.5706 145.586 63.6395 143.988 63.6395C142.4 63.6395 140.813 63.5706 139.257 63.4526C138.384 62.2818 137.532 61.0323 136.712 59.7139C135.913 58.4251 135.188 57.1166 134.525 55.7982C135.177 54.4799 135.913 53.1615 136.702 51.8727C137.522 50.5445 138.363 49.2852 139.236 48.1144C140.802 47.9865 142.39 47.9177 143.988 47.9177C145.575 47.9177 147.163 47.9865 148.719 48.1046C149.592 49.2754 150.443 50.5248 151.263 51.8432C152.062 53.132 152.788 54.4405 153.45 55.7589C152.788 57.0772 152.062 58.3956 151.274 59.6844ZM154.67 58.4054C155.238 59.7238 155.721 61.0421 156.121 62.3211C154.743 62.636 153.293 62.9016 151.789 63.1082C152.304 62.3507 152.819 61.5734 153.303 60.7765C153.787 59.9894 154.239 59.1925 154.67 58.4054ZM144.009 68.9031C143.031 67.9586 142.053 66.9058 141.086 65.7548C142.032 65.7941 142.999 65.8236 143.977 65.8236C144.966 65.8236 145.943 65.8039 146.9 65.7548C145.954 66.9058 144.976 67.9586 144.009 68.9031ZM136.186 63.1082C134.694 62.9016 133.253 62.6458 131.876 62.331C132.265 61.0618 132.748 59.7533 133.295 58.4448C133.726 59.2319 134.178 60.0189 134.672 60.806C135.167 61.5931 135.671 62.3605 136.186 63.1082ZM143.956 42.6344C144.934 43.5789 145.912 44.6316 146.879 45.7827C145.933 45.7434 144.966 45.7138 143.988 45.7138C142.999 45.7138 142.022 45.7335 141.065 45.7827C142.011 44.6316 142.989 43.5789 143.956 42.6344ZM136.176 48.4292C135.661 49.1868 135.146 49.964 134.662 50.761C134.178 51.548 133.726 52.3351 133.295 53.1222C132.727 51.8038 132.244 50.4855 131.844 49.2065C133.222 48.9015 134.672 48.6359 136.176 48.4292ZM126.661 60.747C122.939 59.2614 120.531 57.3134 120.531 55.7687C120.531 54.2241 122.939 52.2662 126.661 50.7905C127.565 50.4265 128.553 50.1018 129.573 49.7968C130.173 51.7251 130.961 53.7322 131.939 55.7884C130.972 57.8348 130.194 59.832 129.605 61.7505C128.564 61.4455 127.576 61.111 126.661 60.747ZM132.317 74.8061C130.887 74.0387 130.267 71.1167 130.751 67.3584C130.866 66.4336 131.056 65.4596 131.287 64.4659C133.348 64.9382 135.598 65.3022 137.963 65.5383C139.383 67.3584 140.855 69.0113 142.337 70.4575C138.91 73.4386 135.692 75.0718 133.505 75.0718C133.032 75.0619 132.633 74.9734 132.317 74.8061ZM157.256 67.3092C157.75 71.0675 157.141 73.9895 155.721 74.7668C155.406 74.9439 154.996 75.0226 154.512 75.0226C152.336 75.0226 149.108 73.3992 145.681 70.4379C147.152 68.9916 148.624 67.3486 150.023 65.5285C152.399 65.2923 154.649 64.9283 156.71 64.4462C156.951 65.4399 157.141 66.3942 157.256 67.3092ZM161.304 60.747C160.4 61.111 159.412 61.4357 158.392 61.7407C157.792 59.8123 157.004 57.8053 156.026 55.7491C156.993 53.7027 157.771 51.7055 158.36 49.787C159.401 50.0919 160.389 50.4265 161.315 50.7905C165.037 52.2761 167.444 54.2241 167.444 55.7687C167.434 57.3134 165.026 59.2712 161.304 60.747Z" fill="#61DAFB"/>
<path d="M143.977 60.265C146.63 60.265 148.782 58.252 148.782 55.7689C148.782 53.2857 146.63 51.2727 143.977 51.2727C141.323 51.2727 139.172 53.2857 139.172 55.7689C139.172 58.252 141.323 60.265 143.977 60.265Z" fill="#61DAFB"/>
<path d="M398.311 455.556L403.601 475.676L462.598 475.115C462.598 475.115 454.502 469.023 424.923 469.423L422.037 455.476H398.311V455.556Z" fill="#FFB092"/>
<path d="M334.024 227.826L289.777 231.994L271.821 237.124C264.126 239.288 257.152 243.376 251.381 248.907L193.426 304.377L182.845 218.046L153.988 220.611L158.798 331.791C160.962 338.444 165.13 344.296 170.822 348.464C176.513 352.632 183.326 354.877 190.38 354.877C199.037 354.797 207.374 351.35 213.626 345.418L254.828 306.541L250.74 357.682L236.551 389.505L337.792 446.658C337.792 446.658 349.655 387.822 356.148 347.102C361.278 314.156 363.923 242.415 363.923 242.415L334.024 227.826Z" fill="#90C6E8"/>
<path d="M361.279 241.292C361.279 241.292 383.643 249.629 389.094 267.103C393.903 282.654 409.935 370.107 409.935 370.107L425.806 462.61L392.54 463.892L354.225 306.221L361.279 241.292Z" fill="#90C6E8"/>
<path d="M200.961 153.118C201.441 154.16 215.229 224.86 215.229 224.86L182.765 226.383L170.18 165.542L200.961 153.118Z" fill="#455A64"/>
<path d="M215.23 224.86L218.917 223.337L204.889 153.599L200.561 153.359L215.23 224.86Z" fill="#263238"/>
<path d="M187.975 168.589C188.056 168.909 187.975 169.23 187.815 169.551C187.655 169.871 187.414 170.112 187.174 170.272C186.933 170.432 186.533 170.513 186.212 170.513C185.891 170.513 185.571 170.352 185.33 170.112C185.09 169.871 184.849 169.631 184.769 169.31C184.689 168.99 184.689 168.669 184.769 168.348C184.849 168.028 185.09 167.707 185.33 167.547C185.571 167.306 185.891 167.226 186.212 167.146C186.613 167.066 187.094 167.226 187.414 167.547C187.655 167.787 187.895 168.188 187.975 168.589Z" fill="#263238"/>
<path d="M181.241 218.287L180.76 209.069L194.628 203.377L189.097 190.552C188.455 189.109 187.574 187.827 186.452 186.785C185.329 185.742 183.967 184.941 182.524 184.46C181.081 183.979 179.478 183.739 177.955 183.899C176.432 184.059 174.909 184.46 173.546 185.181L168.015 188.227C166.091 189.269 164.328 190.712 162.965 192.476C161.602 194.239 160.64 196.243 160.079 198.408C158.556 205.862 157.514 213.477 156.873 221.012" fill="#FFB092"/>
<path d="M144.129 454.033C144.129 454.033 87.1363 469.824 84.8117 470.546C81.3649 471.748 81.926 484.333 87.2966 484.173C89.8617 484.092 131.063 485.696 136.273 485.375C141.484 485.054 157.195 478.882 157.195 478.882L144.129 454.033Z" fill="#4F5864"/>
<path d="M204.649 438.322C204.649 438.322 258.596 473.672 260.52 475.115C263.405 477.279 260.119 487.78 254.989 485.936C252.584 485.054 207.374 472.469 202.485 470.626C197.595 468.702 184.529 458.041 184.529 458.041L204.649 438.322Z" fill="#4F5864"/>
<path d="M215.871 461.889C216.432 459.804 217.554 457.961 219.158 456.598C220.52 454.995 222.364 453.793 224.368 453.231C224.528 453.472 222.123 454.915 219.799 457.32C217.474 459.644 216.112 461.969 215.871 461.889Z" fill="#263238"/>
<path d="M210.98 458.762C211.141 456.598 211.942 454.514 213.305 452.831C214.668 451.147 216.511 449.945 218.596 449.304C216.992 450.586 215.389 451.949 214.026 453.392C212.904 455.075 211.862 456.919 210.98 458.762Z" fill="#263238"/>
<path d="M214.188 452.029C214.027 452.029 214.829 450.506 215.39 447.941C215.791 446.498 215.951 444.975 216.031 443.452C216.112 442.57 216.112 441.689 216.031 440.807C216.031 440.406 215.951 440.005 215.711 439.685C215.631 439.605 215.55 439.524 215.39 439.444C215.23 439.444 215.15 439.444 214.989 439.524C214.348 439.765 214.027 440.807 213.787 441.689C213.547 442.49 213.306 443.372 213.226 444.254C213.066 445.777 213.146 447.22 213.386 448.743C213.787 451.308 214.268 452.831 214.108 452.911C213.386 451.628 212.905 450.266 212.665 448.823C212.344 447.3 212.184 445.697 212.344 444.093C212.424 443.132 212.585 442.25 212.825 441.288C212.985 440.807 213.146 440.406 213.386 439.845C213.627 439.284 214.027 438.803 214.589 438.562C214.909 438.402 215.23 438.402 215.631 438.482C215.951 438.563 216.272 438.803 216.432 439.043C216.753 439.524 216.833 440.086 216.833 440.647C216.913 441.609 216.913 442.49 216.833 443.452C216.753 444.975 216.432 446.578 215.951 448.021C215.711 449.544 215.07 450.907 214.188 452.029Z" fill="#263238"/>
<path d="M214.268 451.468C214.268 451.628 212.905 450.987 210.741 450.426C209.458 450.105 208.176 449.945 206.893 449.865C206.172 449.785 205.37 449.865 204.649 450.025C204.328 450.025 204.007 450.185 203.767 450.426C203.527 450.666 203.366 450.987 203.366 451.308C203.366 451.628 203.446 451.949 203.607 452.27C203.767 452.59 204.007 452.831 204.248 452.991C204.889 453.392 205.53 453.632 206.252 453.632C207.534 453.712 208.817 453.632 210.019 453.231C211.142 452.831 212.344 452.43 213.546 452.189C212.584 452.991 211.462 453.552 210.26 453.873C208.977 454.354 207.534 454.594 206.172 454.514C205.29 454.434 204.488 454.193 203.767 453.712C203.366 453.472 202.965 453.071 202.725 452.59C202.484 452.109 202.404 451.628 202.404 451.147C202.484 450.586 202.725 450.105 203.046 449.785C203.446 449.384 203.847 449.143 204.408 449.063C205.21 448.903 206.092 448.903 206.893 448.983C208.256 449.063 209.619 449.304 210.901 449.785C212.184 450.105 213.306 450.666 214.268 451.468Z" fill="#263238"/>
<path d="M137.637 453.392C137.637 453.392 269.978 366.58 275.349 364.817C280.72 363.053 293.866 354.396 306.931 358.003C319.997 361.61 331.781 373.394 337.632 390.467C343.484 407.621 343.965 446.017 343.965 446.017C343.965 446.017 333.464 476.237 313.344 482.65C311.581 483.211 309.817 483.612 308.054 483.932C283.285 488.822 258.035 477.439 244.167 456.358L241.201 451.869C241.201 451.869 154.63 483.692 153.268 483.211L137.637 453.392Z" fill="#232E3C"/>
<path d="M92.5869 352.152C92.5869 352.152 76.3949 357.923 76.3147 376.119C76.1544 410.908 146.534 449.143 146.534 449.143L240.078 387.101V380.608C240.078 380.608 119.68 337.242 92.5869 352.152Z" fill="#232E3C"/>
<path d="M351.818 147.186C351.818 147.186 351.418 126.185 325.526 123.86C308.934 122.417 308.853 130.594 292.1 129.552C276.87 128.59 262.362 138.85 266.049 156.886C269.175 172.036 292.341 180.452 292.341 180.452L351.818 147.186Z" fill="#1B2D3F"/>
<path d="M293.93 194.017C295.382 188.128 291.785 182.178 285.897 180.726C280.008 179.274 274.058 182.87 272.606 188.759C271.154 194.648 274.75 200.598 280.639 202.05C286.527 203.502 292.478 199.906 293.93 194.017Z" fill="#FF8E6B"/>
<path d="M299.875 215.241L300.356 233.597C300.516 244.418 309.414 253.076 320.235 252.915C332.099 252.755 341.076 242.334 339.473 230.551L332.82 189.35L299.875 215.241Z" fill="#FFB092"/>
<path d="M286.971 146.064C284.806 148.309 281.119 152.477 280.237 160.092C279.115 170.432 276.47 195.843 281.119 206.985C287.051 221.173 299.475 229.429 318.152 224.219C318.152 224.219 335.226 222.215 343.001 188.308C354.865 136.766 308.934 123.059 286.971 146.064Z" fill="#FFB092"/>
<path d="M288.655 182.857C288.334 184.219 287.052 185.101 285.689 184.781C284.326 184.46 283.445 183.177 283.765 181.815C284.086 180.452 285.368 179.57 286.731 179.891C288.094 180.212 288.975 181.494 288.655 182.857Z" fill="#101010"/>
<path d="M310.938 182.215C310.617 183.578 309.335 184.46 307.972 184.139C306.609 183.819 305.728 182.536 306.048 181.173C306.369 179.811 307.652 178.929 309.014 179.25C310.297 179.49 311.179 180.853 310.938 182.215Z" fill="#101010"/>
<path d="M294.827 181.093L291.861 193.277C291.46 194.56 292.422 195.923 293.785 196.083L294.907 196.163" stroke="#FF8E6B" stroke-width="1.45303" stroke-miterlimit="10" stroke-linecap="round" stroke-linejoin="round"/>
<path d="M280.078 203.618L286.09 204.58L287.613 201.614C288.254 200.411 289.537 199.61 290.9 199.69L304.687 200.091C305.969 200.091 307.172 200.892 307.733 202.015L310.779 204.981C310.779 204.981 326.971 208.668 330.017 185.903L334.666 184.7C334.666 184.7 329.937 194.881 336.59 206.343C336.59 206.343 329.696 229.429 302.442 225.501C302.523 225.501 285.529 223.738 280.078 203.618Z" fill="#1B2D3F"/>
<path d="M292.904 205.061C292.904 205.061 297.393 207.465 301.882 205.141" stroke="white" stroke-width="1.44702" stroke-miterlimit="10" stroke-linecap="round" stroke-linejoin="round"/>
<path d="M288.494 170.032C288.494 170.032 284.246 169.31 278.635 172.837" stroke="#1B2D3F" stroke-width="4.20992" stroke-miterlimit="10" stroke-linecap="round"/>
<path d="M302.521 170.031C302.521 170.031 313.022 167.947 318.633 172.837" stroke="#1B2D3F" stroke-width="4.20992" stroke-miterlimit="10" stroke-linecap="round"/>
<path d="M344.523 189.029L330.095 185.903L332.5 167.547C332.74 165.543 331.538 163.619 329.694 163.138C326.488 162.336 322.159 160.092 322.079 154.08C321.999 144.461 327.289 138.93 327.289 138.93C327.289 138.93 356.627 134.361 360.635 155.844C363.441 170.913 354.944 199.45 334.584 210.912L344.523 189.029Z" fill="#1B2D3F"/>
<path d="M357.671 192.877C356.228 199.53 349.655 203.698 343.082 202.255C336.429 200.812 332.26 194.239 333.703 187.666C335.146 181.013 341.719 176.845 348.292 178.288C354.865 179.731 359.113 186.223 357.671 192.877Z" fill="#FFB092"/>
<path d="M350.856 186.223C350.856 186.223 341.718 184.38 340.115 194.399" stroke="#FF8E6B" stroke-width="1.45303" stroke-miterlimit="10" stroke-linecap="round" stroke-linejoin="round"/>
<path d="M329.695 142.698C329.695 142.698 320.958 150.633 306.289 149.511C291.62 148.389 288.814 144.461 283.363 150.553C283.363 150.553 284.886 130.113 311.499 129.391C338.112 128.59 336.027 145.904 336.027 145.904L329.695 142.698Z" fill="#1B2D3F"/>
<path d="M192.785 418.443L135.471 370.107C135.471 370.107 134.59 364.095 127.055 359.606" stroke="#394350" stroke-width="1.45303" stroke-miterlimit="10" stroke-linecap="round" stroke-linejoin="round"/>
<path d="M119.039 365.137C119.039 365.137 125.291 363.454 135.472 370.107" stroke="#394350" stroke-width="1.45303" stroke-miterlimit="10" stroke-linecap="round" stroke-linejoin="round"/>
<path d="M258.915 374.756L136.994 453.312L152.866 483.531L301.399 429.585" stroke="#394350" stroke-width="1.45303" stroke-miterlimit="10" stroke-linecap="round" stroke-linejoin="round"/>
<path d="M251.701 355.278L257.473 276.322" stroke="#64AEDE" stroke-width="1.45303" stroke-miterlimit="10" stroke-linecap="round" stroke-linejoin="round"/>
<path d="M354.145 306.141L367.531 361.129" stroke="#64AEDE" stroke-width="1.45303" stroke-miterlimit="10" stroke-linecap="round" stroke-linejoin="round"/>
</svg>
