<svg width="48" height="48" viewBox="0 0 48 48" fill="none" xmlns="http://www.w3.org/2000/svg">
<path d="M24 42C33.9411 42 42 33.9411 42 24C42 14.0589 33.9411 6 24 6C14.0589 6 6 14.0589 6 24C6 33.9411 14.0589 42 24 42Z" fill="#D8E3F5"/>
<path d="M40 24C40 32.8366 32.8366 40 24 40V44C35.0457 44 44 35.0457 44 24H40ZM24 40C15.1634 40 8 32.8366 8 24H4C4 35.0457 12.9543 44 24 44V40ZM8 24C8 15.1634 15.1634 8 24 8V4C12.9543 4 4 12.9543 4 24H8ZM24 8C32.8366 8 40 15.1634 40 24H44C44 12.9543 35.0457 4 24 4V8Z" fill="#D8E3F5"/>
<path d="M24 24C20.6863 24 18 22.2091 18 20C18 17.7909 20.6863 16 24 16M24 24C27.3137 24 30 25.7909 30 28C30 30.2091 27.3138 32 24 32M24 24V16M24 24L24 32M24 16C26.2208 16 28.1599 16.8044 29.1973 18M24 16V14M24 32L24 34M24 32C21.7792 32 19.8402 31.1956 18.8027 30" stroke="#5CB7E7" stroke-width="4" stroke-linecap="round"/>
</svg>
