<svg width="535" height="451" viewBox="0 0 535 451" fill="none" xmlns="http://www.w3.org/2000/svg">
<g filter="url(#filter0_dd)">
<rect x="130.758" y="4" width="398.242" height="119.473" rx="13.2747" fill="#F8FAFD"/>
<circle cx="150.67" cy="23.912" r="6.63737" fill="#F5B0B2"/>
<circle cx="168.944" cy="23.912" r="6.63737" fill="#FEE182"/>
<circle cx="187.219" cy="23.912" r="6.63737" fill="#A2D9C0"/>
<rect x="144.032" y="46.4792" width="26.5495" height="5.30989" rx="2.65495" fill="#E8EEF9"/>
<rect x="144.032" y="65.064" width="26.5495" height="5.30989" rx="2.65495" fill="#E8EEF9"/>
<rect x="144.032" y="102.233" width="26.5495" height="5.30989" rx="2.65495" fill="#E8EEF9"/>
<rect x="178.547" y="43.8242" width="2.65495" height="66.3736" rx="1.32747" fill="#E8EEF9"/>
<rect x="220.716" y="46.4792" width="129.23" height="5.30989" rx="2.65495" fill="#E8EEF9"/>
<rect x="354.945" y="46.4792" width="26.5495" height="5.30989" rx="2.65495" fill="#E8EEF9"/>
<rect x="386.495" y="46.4792" width="129.23" height="5.30989" rx="2.65495" fill="#F5B0B2"/>
<rect x="189.166" y="65.064" width="26.5495" height="5.30989" rx="2.65495" fill="#E8EEF9"/>
<rect x="220.716" y="65.064" width="129.23" height="5.30989" rx="2.65495" fill="#F5B0B2"/>
<rect x="354.945" y="65.064" width="26.5495" height="5.30989" rx="2.65495" fill="#E8EEF9"/>
<rect x="386.495" y="65.064" width="129.23" height="5.30989" rx="2.65495" fill="#E8EEF9"/>
<rect x="189.166" y="83.6484" width="26.5495" height="5.30989" rx="2.65495" fill="#E8EEF9"/>
<rect x="252.265" y="83.6484" width="231.91" height="5.30989" rx="2.65495" fill="#E8EEF9"/>
<rect x="489.175" y="83.6484" width="26.5495" height="5.30989" rx="2.65495" fill="#E8EEF9"/>
<rect x="189.166" y="102.233" width="26.5495" height="5.30989" rx="2.65495" fill="#E8EEF9"/>
<rect x="220.716" y="102.233" width="231.91" height="5.30989" rx="2.65495" fill="#F5B0B2"/>
<rect x="489.175" y="102.233" width="26.5495" height="5.30989" rx="2.65495" fill="#E8EEF9"/>
</g>
<g filter="url(#filter1_dd)">
<rect x="130.758" y="150.022" width="398.242" height="92.9231" rx="13.2747" fill="#F8FAFD"/>
<rect x="144.032" y="165.952" width="26.5495" height="5.30989" rx="2.65495" fill="#E8EEF9"/>
<rect x="144.032" y="184.536" width="26.5495" height="5.30989" rx="2.65495" fill="#E8EEF9"/>
<rect x="144.032" y="221.706" width="26.5495" height="5.30989" rx="2.65495" fill="#E8EEF9"/>
<rect x="178.547" y="163.297" width="2.65495" height="66.3736" rx="1.32747" fill="#E8EEF9"/>
<rect x="220.716" y="165.952" width="129.23" height="5.30989" rx="2.65495" fill="#F5B0B2"/>
<rect x="354.945" y="165.952" width="26.5495" height="5.30989" rx="2.65495" fill="#E8EEF9"/>
<rect x="386.495" y="165.952" width="129.23" height="5.30989" rx="2.65495" fill="#E8EEF9"/>
<rect x="189.166" y="184.536" width="26.5495" height="5.30989" rx="2.65495" fill="#E8EEF9"/>
<rect x="220.716" y="184.536" width="129.23" height="5.30989" rx="2.65495" fill="#E8EEF9"/>
<rect x="354.945" y="184.536" width="26.5495" height="5.30989" rx="2.65495" fill="#E8EEF9"/>
<rect x="386.495" y="184.536" width="129.23" height="5.30989" rx="2.65495" fill="#E8EEF9"/>
<rect x="189.166" y="203.121" width="26.5495" height="5.30989" rx="2.65495" fill="#F5B0B2"/>
<rect x="252.265" y="203.121" width="231.91" height="5.30989" rx="2.65495" fill="#E8EEF9"/>
<rect x="489.175" y="203.121" width="26.5495" height="5.30989" rx="2.65495" fill="#E8EEF9"/>
<rect x="189.166" y="221.706" width="26.5495" height="5.30989" rx="2.65495" fill="#E8EEF9"/>
<rect x="220.716" y="221.706" width="231.91" height="5.30989" rx="2.65495" fill="#E8EEF9"/>
<rect x="489.175" y="221.706" width="26.5495" height="5.30989" rx="2.65495" fill="#F5B0B2"/>
</g>
<g filter="url(#filter2_dd)">
<rect x="130.758" y="269.495" width="398.242" height="124.782" rx="13.2747" fill="#F8FAFD"/>
<rect x="144.032" y="282.77" width="26.5495" height="5.30989" rx="2.65495" fill="#E8EEF9"/>
<rect x="144.032" y="319.939" width="26.5495" height="5.30989" rx="2.65495" fill="#E8EEF9"/>
<rect x="144.032" y="338.523" width="26.5495" height="5.30989" rx="2.65495" fill="#E8EEF9"/>
<rect x="144.032" y="357.108" width="26.5495" height="5.30989" rx="2.65495" fill="#E8EEF9"/>
<rect x="144.032" y="375.693" width="26.5495" height="5.30989" rx="2.65495" fill="#E8EEF9"/>
<rect x="178.547" y="298.699" width="2.65495" height="66.3736" rx="1.32747" fill="#E8EEF9"/>
<rect x="220.716" y="282.77" width="129.23" height="5.30989" rx="2.65495" fill="#F5B0B2"/>
<rect x="354.945" y="282.77" width="26.5495" height="5.30989" rx="2.65495" fill="#E8EEF9"/>
<rect x="386.495" y="282.77" width="129.23" height="5.30989" rx="2.65495" fill="#E8EEF9"/>
<rect x="189.166" y="301.354" width="26.5495" height="5.30989" rx="2.65495" fill="#E8EEF9"/>
<rect x="220.716" y="301.354" width="129.23" height="5.30989" rx="2.65495" fill="#E8EEF9"/>
<rect x="354.945" y="301.354" width="26.5495" height="5.30989" rx="2.65495" fill="#E8EEF9"/>
<rect x="386.495" y="301.354" width="129.23" height="5.30989" rx="2.65495" fill="#E8EEF9"/>
<rect x="189.166" y="319.939" width="26.5495" height="5.30989" rx="2.65495" fill="#E8EEF9"/>
<rect x="220.716" y="319.939" width="231.91" height="5.30989" rx="2.65495" fill="#E8EEF9"/>
<rect x="489.175" y="319.939" width="26.5495" height="5.30989" rx="2.65495" fill="#E8EEF9"/>
<rect x="189.166" y="338.523" width="129.23" height="5.30989" rx="2.65495" fill="#E8EEF9"/>
<rect x="323.396" y="338.523" width="26.5495" height="5.30989" rx="2.65495" fill="#E8EEF9"/>
<rect x="354.945" y="338.523" width="129.23" height="5.30989" rx="2.65495" fill="#E8EEF9"/>
<rect x="189.166" y="357.108" width="26.5495" height="5.30989" rx="2.65495" fill="#F5B0B2"/>
<rect x="252.265" y="357.108" width="231.91" height="5.30989" rx="2.65495" fill="#E8EEF9"/>
<rect x="489.175" y="357.108" width="26.5495" height="5.30989" rx="2.65495" fill="#E8EEF9"/>
<rect x="189.166" y="375.693" width="26.5495" height="5.30989" rx="2.65495" fill="#E8EEF9"/>
<rect x="220.716" y="375.693" width="231.91" height="5.30989" rx="2.65495" fill="#E8EEF9"/>
<rect x="489.175" y="375.693" width="26.5495" height="5.30989" rx="2.65495" fill="#F5B0B2"/>
</g>
<g filter="url(#filter3_d)">
<path d="M262.857 67.7188H10.6374C6.97165 67.7188 4 70.6904 4 74.3561V193.829C4 197.494 6.97166 200.466 10.6374 200.466H262.857C266.523 200.466 269.495 197.494 269.495 193.829V74.3561C269.495 70.6904 266.523 67.7188 262.857 67.7188Z" fill="#F0F9FD"/>
<mask id="mask0" mask-type="alpha" maskUnits="userSpaceOnUse" x="4" y="67" width="266" height="134">
<path d="M262.857 67.7188H10.6374C6.97165 67.7188 4 70.6904 4 74.3561V193.829C4 197.494 6.97166 200.466 10.6374 200.466H262.857C266.523 200.466 269.495 197.494 269.495 193.829V74.3561C269.495 70.6904 266.523 67.7188 262.857 67.7188Z" fill="#F0F9FD"/>
</mask>
<g mask="url(#mask0)">
<path d="M-1.30957 200.466V195.312C-1.30957 193.515 -0.581513 191.796 0.708333 190.545L86.9548 106.952C89.6266 104.362 93.9048 104.474 96.4372 107.2L145.148 159.637C147.489 162.157 151.366 162.471 154.082 160.362L186.121 135.482C188.43 133.689 191.641 133.618 194.027 135.307L272.003 190.517C273.76 191.762 274.805 193.781 274.805 195.934V200.466H-1.30957Z" fill="#8ED1B2"/>
<path d="M163.297 115.508C170.629 115.508 176.572 109.564 176.572 102.233C176.572 94.9016 170.629 88.9583 163.297 88.9583C155.966 88.9583 150.022 94.9016 150.022 102.233C150.022 109.564 155.966 115.508 163.297 115.508Z" fill="#FEDB6B"/>
</g>
</g>
<g filter="url(#filter4_dd)">
<rect x="497.819" y="443.394" width="265.495" height="10.6198" rx="5.30989" transform="rotate(-90 497.819 443.394)" fill="#A9AEB4"/>
<circle cx="503.13" cy="256.22" r="10.6198" transform="rotate(-90 503.13 256.22)" fill="#4E5865"/>
</g>
<defs>
<filter id="filter0_dd" x="125.648" y="0.59375" width="408.461" height="129.691" filterUnits="userSpaceOnUse" color-interpolation-filters="sRGB">
<feFlood flood-opacity="0" result="BackgroundImageFix"/>
<feColorMatrix in="SourceAlpha" type="matrix" values="0 0 0 0 0 0 0 0 0 0 0 0 0 0 0 0 0 0 127 0"/>
<feOffset dy="1.70312"/>
<feGaussianBlur stdDeviation="1.70312"/>
<feColorMatrix type="matrix" values="0 0 0 0 0.121569 0 0 0 0 0.176471 0 0 0 0 0.239216 0 0 0 0.06 0"/>
<feBlend mode="normal" in2="BackgroundImageFix" result="effect1_dropShadow"/>
<feColorMatrix in="SourceAlpha" type="matrix" values="0 0 0 0 0 0 0 0 0 0 0 0 0 0 0 0 0 0 127 0"/>
<feOffset dy="1.70312"/>
<feGaussianBlur stdDeviation="2.55469"/>
<feColorMatrix type="matrix" values="0 0 0 0 0.121569 0 0 0 0 0.176471 0 0 0 0 0.239216 0 0 0 0.1 0"/>
<feBlend mode="normal" in2="effect1_dropShadow" result="effect2_dropShadow"/>
<feBlend mode="normal" in="SourceGraphic" in2="effect2_dropShadow" result="shape"/>
</filter>
<filter id="filter1_dd" x="125.648" y="146.616" width="408.461" height="103.142" filterUnits="userSpaceOnUse" color-interpolation-filters="sRGB">
<feFlood flood-opacity="0" result="BackgroundImageFix"/>
<feColorMatrix in="SourceAlpha" type="matrix" values="0 0 0 0 0 0 0 0 0 0 0 0 0 0 0 0 0 0 127 0"/>
<feOffset dy="1.70312"/>
<feGaussianBlur stdDeviation="1.70312"/>
<feColorMatrix type="matrix" values="0 0 0 0 0.121569 0 0 0 0 0.176471 0 0 0 0 0.239216 0 0 0 0.06 0"/>
<feBlend mode="normal" in2="BackgroundImageFix" result="effect1_dropShadow"/>
<feColorMatrix in="SourceAlpha" type="matrix" values="0 0 0 0 0 0 0 0 0 0 0 0 0 0 0 0 0 0 127 0"/>
<feOffset dy="1.70312"/>
<feGaussianBlur stdDeviation="2.55469"/>
<feColorMatrix type="matrix" values="0 0 0 0 0.121569 0 0 0 0 0.176471 0 0 0 0 0.239216 0 0 0 0.1 0"/>
<feBlend mode="normal" in2="effect1_dropShadow" result="effect2_dropShadow"/>
<feBlend mode="normal" in="SourceGraphic" in2="effect2_dropShadow" result="shape"/>
</filter>
<filter id="filter2_dd" x="125.648" y="266.088" width="408.461" height="135.001" filterUnits="userSpaceOnUse" color-interpolation-filters="sRGB">
<feFlood flood-opacity="0" result="BackgroundImageFix"/>
<feColorMatrix in="SourceAlpha" type="matrix" values="0 0 0 0 0 0 0 0 0 0 0 0 0 0 0 0 0 0 127 0"/>
<feOffset dy="1.70312"/>
<feGaussianBlur stdDeviation="1.70312"/>
<feColorMatrix type="matrix" values="0 0 0 0 0.121569 0 0 0 0 0.176471 0 0 0 0 0.239216 0 0 0 0.06 0"/>
<feBlend mode="normal" in2="BackgroundImageFix" result="effect1_dropShadow"/>
<feColorMatrix in="SourceAlpha" type="matrix" values="0 0 0 0 0 0 0 0 0 0 0 0 0 0 0 0 0 0 127 0"/>
<feOffset dy="1.70312"/>
<feGaussianBlur stdDeviation="2.55469"/>
<feColorMatrix type="matrix" values="0 0 0 0 0.121569 0 0 0 0 0.176471 0 0 0 0 0.239216 0 0 0 0.1 0"/>
<feBlend mode="normal" in2="effect1_dropShadow" result="effect2_dropShadow"/>
<feBlend mode="normal" in="SourceGraphic" in2="effect2_dropShadow" result="shape"/>
</filter>
<filter id="filter3_d" x="0.59375" y="66.0156" width="272.307" height="139.56" filterUnits="userSpaceOnUse" color-interpolation-filters="sRGB">
<feFlood flood-opacity="0" result="BackgroundImageFix"/>
<feColorMatrix in="SourceAlpha" type="matrix" values="0 0 0 0 0 0 0 0 0 0 0 0 0 0 0 0 0 0 127 0"/>
<feOffset dy="1.70312"/>
<feGaussianBlur stdDeviation="1.70312"/>
<feColorMatrix type="matrix" values="0 0 0 0 0.121569 0 0 0 0 0.176471 0 0 0 0 0.239216 0 0 0 0.05 0"/>
<feBlend mode="normal" in2="BackgroundImageFix" result="effect1_dropShadow"/>
<feBlend mode="normal" in="SourceGraphic" in2="effect1_dropShadow" result="shape"/>
</filter>
<filter id="filter4_dd" x="487.4" y="174.493" width="31.4583" height="275.713" filterUnits="userSpaceOnUse" color-interpolation-filters="sRGB">
<feFlood flood-opacity="0" result="BackgroundImageFix"/>
<feColorMatrix in="SourceAlpha" type="matrix" values="0 0 0 0 0 0 0 0 0 0 0 0 0 0 0 0 0 0 127 0"/>
<feOffset dy="1.70312"/>
<feGaussianBlur stdDeviation="1.70312"/>
<feColorMatrix type="matrix" values="0 0 0 0 0.121569 0 0 0 0 0.176471 0 0 0 0 0.239216 0 0 0 0.06 0"/>
<feBlend mode="normal" in2="BackgroundImageFix" result="effect1_dropShadow"/>
<feColorMatrix in="SourceAlpha" type="matrix" values="0 0 0 0 0 0 0 0 0 0 0 0 0 0 0 0 0 0 127 0"/>
<feOffset dy="1.70312"/>
<feGaussianBlur stdDeviation="2.55469"/>
<feColorMatrix type="matrix" values="0 0 0 0 0.121569 0 0 0 0 0.176471 0 0 0 0 0.239216 0 0 0 0.1 0"/>
<feBlend mode="normal" in2="effect1_dropShadow" result="effect2_dropShadow"/>
<feBlend mode="normal" in="SourceGraphic" in2="effect2_dropShadow" result="shape"/>
</filter>
</defs>
</svg>
