<svg width="134" height="53" viewBox="0 0 134 53" fill="none" xmlns="http://www.w3.org/2000/svg">
<g clip-path="url(#clip0)">
<path d="M105.972 0H0.871872L21.3719 15.4V28.3C21.3719 34.7 23.8719 40.7 28.1719 45.2C32.4719 49.7 38.2719 52.1 44.2719 52.1H110.272C116.272 52.1 122.072 49.7 126.372 45.2C130.672 40.7 133.172 34.6 133.172 28.3C133.172 24.6 132.372 20.9 131.072 17.4C129.672 14 127.672 10.8 125.172 8.2C122.672 5.6 119.672 3.5 116.372 2.1C113.072 0.7 109.472 0 105.972 0Z" fill="#7BC9A5"/>
<path d="M37.4719 17.9C37.4719 17.9 38.9719 21.4 41.2719 27.1C43.5719 32.8 46.0719 31.4 47.0719 25.4C48.1719 19.4 49.2719 16.2 51.0719 17.2C52.8719 18.2 54.1719 31.5 57.2719 32.1C60.3719 32.7 61.4719 17.5 64.5719 18C67.6719 18.5 66.7719 32.4 70.9719 32.2C75.1719 32 73.9719 17.4 78.2719 18.1C82.5719 18.8 79.4719 33.2 84.7719 32.5C90.0719 31.8 87.7719 17.7 91.9719 18.8C96.1719 20 93.9719 32.9 98.6719 33.3C103.372 33.7 100.372 18.3 105.972 19C111.572 19.7 106.172 34 111.872 33.8C117.572 33.6 115.772 18.8 119.572 19.3" stroke="#232E3C" stroke-width="0.75" stroke-miterlimit="10" stroke-linecap="round"/>
</g>
<defs>
<clipPath id="clip0">
<rect width="132.3" height="52.1" fill="white" transform="matrix(-1 0 0 1 133.172 0.09375)"/>
</clipPath>
</defs>
</svg>
