<svg width="449" height="223" viewBox="0 0 449 223" fill="none" xmlns="http://www.w3.org/2000/svg">
<circle cx="207.393" cy="56.7702" r="42.3935" fill="#773DBD"/>
<path fill-rule="evenodd" clip-rule="evenodd" d="M148.661 160.436L99.5083 147.245L135.481 111.245L148.661 160.436Z" fill="#D7E4FF"/>
<path fill-rule="evenodd" clip-rule="evenodd" d="M42.2338 76.9384L9.28142 50.253L24.4763 10.6666L66.8323 12.8758L77.807 53.834L42.2338 76.9384Z" fill="#CCB1E6"/>
<g clip-path="url(#clip0)">
<path d="M449 97.1767H417.6V63.9767C417.6 45.1767 403.1 29.8767 385.3 29.8767H239.8C221.9 29.8767 207.5 45.1767 207.5 63.9767V188.877C207.5 207.677 222 222.977 239.8 222.977H385.3C403.2 222.977 417.6 207.677 417.6 188.877V130.377L449 97.1767Z" fill="#93D0EF"/>
<path d="M360.6 21.0767C360.6 21.0767 362 5.77671 343.4 1.97671C331.5 -0.423293 330.7 5.47671 318.7 3.37671C307.7 1.47671 296.3 7.77671 297.6 21.1767C298.5 32.3767 314.7 40.3767 314.7 40.3767L360.6 21.0767Z" fill="#1F2D3D"/>
<path d="M314.713 50.3596C316.239 46.213 314.115 41.6145 309.968 40.0884C305.821 38.5623 301.223 40.6866 299.697 44.8332C298.171 48.9797 300.295 53.5783 304.442 55.1044C308.588 56.6305 313.187 54.5061 314.713 50.3596Z" fill="#FF9574"/>
<path d="M317.299 66.2767L316.099 79.6767C315.399 87.5767 321.099 94.5767 328.999 95.3767C337.599 96.2767 344.999 89.3767 344.799 80.6767L343.299 50.1767L317.299 66.2767Z" fill="#F8B498"/>
<path d="M313.6 14.9767C311.9 16.4767 308.8 19.1767 307.6 24.6767C305.9 32.0767 302 50.3767 304.5 58.7767C307.7 69.5767 316 76.5767 330 74.2767C330 74.2767 342.6 74.2767 351 50.1767C363.7 13.6767 331.4 -0.0232811 313.6 14.9767Z" fill="#F8B498"/>
<path d="M311.799 41.8767C311.499 42.8767 310.499 43.3767 309.499 43.0767C308.499 42.7767 307.999 41.7767 308.299 40.7767C308.599 39.7767 309.599 39.2767 310.599 39.5767C311.599 39.8767 312.099 40.8767 311.799 41.8767Z" fill="#101010"/>
<path d="M327.999 43.1767C327.699 44.1767 326.699 44.6767 325.699 44.3767C324.699 44.0767 324.199 43.0767 324.499 42.0767C324.799 41.0767 325.799 40.5767 326.799 40.8767C327.799 41.1767 328.299 42.1767 327.999 43.1767Z" fill="#101010"/>
<path d="M316.399 41.0767L313.299 49.6767C312.899 50.5767 313.499 51.6767 314.499 51.8767L315.299 52.0767" stroke="#FF9574" stroke-width="1.0621" stroke-miterlimit="10" stroke-linecap="round" stroke-linejoin="round"/>
<path d="M303.898 56.1767L308.198 57.3767L309.598 55.2767C310.198 54.4767 311.098 53.9767 312.098 54.1767L322.098 55.5767C322.998 55.6767 323.798 56.3767 324.198 57.2767L326.198 59.6767C326.198 59.6767 337.698 63.6767 341.698 47.3767L345.198 46.8767C345.198 46.8767 340.998 53.8767 344.898 62.7767C344.898 62.7767 337.998 78.9767 318.498 73.8767C318.398 73.8767 306.198 71.2767 303.898 56.1767Z" fill="#1F2D3D"/>
<path d="M313.098 58.2767C313.098 58.2767 316.198 60.3767 319.598 59.0767" stroke="white" stroke-width="1.0578" stroke-miterlimit="10" stroke-linecap="round" stroke-linejoin="round"/>
<path d="M312.699 32.4767C312.699 32.4767 309.699 31.5767 305.299 33.6767" stroke="#1F2D3D" stroke-width="3.0773" stroke-miterlimit="10" stroke-linecap="round"/>
<path d="M322.898 33.6767C322.898 33.6767 330.698 32.9767 334.398 36.9767" stroke="#1F2D3D" stroke-width="3.0773" stroke-miterlimit="10" stroke-linecap="round"/>
<path d="M351.899 50.8767L341.599 47.3767L344.899 34.1767C345.299 32.7767 344.499 31.2767 343.199 30.7767C340.899 29.9767 337.899 27.9767 338.399 23.5767C339.099 16.5767 343.399 12.9767 343.399 12.9767C343.399 12.9767 365.099 11.9767 366.299 27.9767C367.099 39.0767 358.599 59.1767 342.899 65.8767L351.899 50.8767Z" fill="#1F2D3D"/>
<path d="M361.099 54.6767C359.499 59.3767 354.399 61.8767 349.699 60.2767C344.999 58.6767 342.499 53.5767 344.099 48.8767C345.699 44.1767 350.799 41.6767 355.499 43.2767C360.199 44.8767 362.699 49.9767 361.099 54.6767Z" fill="#F8B498"/>
<path d="M356.699 49.2767C356.699 49.2767 350.199 47.1767 348.199 54.3767" stroke="#FF9574" stroke-width="1.0621" stroke-miterlimit="10" stroke-linecap="round" stroke-linejoin="round"/>
<path d="M344.9 15.9767C344.9 15.9767 337.9 21.0767 327.3 19.0767C316.7 17.0767 315 13.9767 310.5 17.9767C310.5 17.9767 313.2 3.27671 332.7 4.87671C352.1 6.47671 349.2 18.8767 349.2 18.8767L344.9 15.9767Z" fill="#1F2D3D"/>
<path d="M222.5 118.077L209.3 102.277C205.7 98.4767 204.5 96.6767 205.2 96.0767C206.1 95.1767 205.7 95.4767 213.1 101.377C213.1 101.377 202.6 92.8767 206.2 92.8767C206.8 92.8767 208.6 93.9767 210.5 95.2767C207.9 92.9767 207.2 91.3767 207.7 90.6767C208.5 89.3767 215 94.0767 217.9 96.3767C215.5 94.4767 210.9 90.7767 210.1 89.6767C209 88.0767 211.2 88.2767 213.1 88.8767C215.2 89.5767 226.5 95.7767 229.9 97.2767C230.2 97.4767 230.5 97.5767 230.8 97.5767C231.1 97.5767 231.4 97.5767 231.7 97.4767C232 97.3767 232.3 97.1767 232.5 96.9767C232.7 96.7767 232.9 96.4767 233 96.1767C234.2 90.6767 238 87.0767 239.4 86.6767C240.8 86.1767 241.9 88.1767 240.9 89.5767C239.9 91.1767 239.2 92.9767 238.7 94.8767C238.2 96.3767 238 97.8767 238 99.3767C238 101.177 238.1 102.677 238.2 103.977L250.3 121.377L230.3 133.377L222.5 118.077Z" fill="#F8B498"/>
<path d="M217.7 103.777C217.6 103.977 215.2 102.277 212.5 99.9767C209.8 97.6767 207.6 95.6767 207.8 95.4767C208 95.2767 210.3 96.9767 213 99.2767C215.8 101.577 217.9 103.577 217.7 103.777Z" fill="#AA6550"/>
<path d="M220.3 100.977C220.2 101.177 217.6 99.4767 214.5 97.2767C211.4 95.0767 209.1 93.0767 209.2 92.8767C209.3 92.6767 211.9 94.3767 215 96.5767C218 98.7767 220.4 100.777 220.3 100.977Z" fill="#AA6550"/>
<path d="M222.201 98.0767C222.101 98.2767 219.601 96.7767 216.701 94.6767C213.801 92.5767 211.501 90.7767 211.601 90.4767C211.701 90.2767 214.201 91.7767 217.101 93.8767C220.001 95.9767 222.301 97.8767 222.201 98.0767Z" fill="#AA6550"/>
<path d="M239.5 105.977L287.6 170.277L276.6 197.277C276.6 197.277 263.4 194.177 259.4 188.377C255.4 182.477 222.5 118.077 222.5 118.077L239.5 105.977Z" fill="#F8B498"/>
<path d="M328.801 198.877C328.401 198.577 328.001 198.277 327.601 197.977C327.201 197.677 326.801 197.277 326.301 196.877C325.801 196.477 325.201 195.977 324.501 195.477C323.801 194.977 323.101 194.477 322.201 193.977C321.301 193.477 320.401 192.977 319.501 192.377C315.201 190.177 310.601 188.677 305.901 188.077C304.801 187.977 303.801 187.777 302.801 187.777C301.801 187.777 300.901 187.677 300.101 187.677C299.301 187.677 298.501 187.777 297.901 187.777C297.201 187.777 296.701 187.877 296.201 187.877C295.701 187.977 295.201 187.977 294.801 187.977C295.301 187.877 295.701 187.777 296.201 187.677C296.801 187.577 297.301 187.477 297.901 187.477C298.601 187.377 299.301 187.377 300.101 187.377C300.901 187.377 301.801 187.277 302.801 187.377C303.801 187.477 304.801 187.477 305.901 187.577C308.301 187.877 310.601 188.377 312.901 189.077C315.201 189.777 317.401 190.777 319.601 191.877C320.601 192.377 321.501 192.877 322.301 193.477C323.101 194.077 323.901 194.577 324.601 195.077C325.301 195.577 325.901 196.077 326.401 196.477C326.901 196.877 327.401 197.277 327.701 197.677C328.101 198.077 328.401 198.477 328.801 198.877Z" fill="#FAFAFA"/>
<path d="M279.8 153.777L286.6 122.577C289.2 110.877 292.3 99.5767 297.5 98.1767V101.777L295.3 190.977C295.3 190.977 281.4 207.677 263.6 198.377C258.1 195.477 247.9 175.077 247.9 175.077C247.9 175.077 224.3 130.777 225.3 128.777C226.3 126.777 240.7 107.177 242.1 106.277L279.8 153.777Z" fill="#5868AC"/>
<path d="M350.1 89.3767C363.7 92.0767 379 100.477 386 121.877C388.6 129.677 407.3 187.377 407.3 187.377L375.4 186.677L370.3 174.777L372.8 194.077L375 222.977H294.4L295 181.577L295.8 99.1767C295.8 99.1767 296.7 97.9767 310.6 89.8767C319.1 84.7767 350.1 89.3767 350.1 89.3767Z" fill="#5868AC"/>
<path d="M310.5 98.6767L310.8 96.8767L313.4 79.4767C313.5 78.9767 313.7 78.4767 314.1 78.1767C314.5 77.8767 315 77.6767 315.4 77.7767L347.1 80.5767C348.1 80.6767 348.9 81.1767 349.6 81.8767C350.2 82.6767 350.5 83.6767 350.5 84.6767L349.8 94.7767L339.9 108.377L325.6 110.677" fill="#5868AC"/>
<path d="M406.9 193.577C407.5 196.977 407.4 200.477 406.6 203.877C405.8 207.277 404.3 210.377 402.2 213.077C400.1 215.777 397.5 217.977 394.6 219.477C391.6 220.977 388.4 221.777 385.1 221.777L322 221.077L323.7 199.477L377.7 190.877" fill="#F8B498"/>
<path d="M327.601 200.277C327.301 200.377 323.701 198.677 320.401 197.077C316.901 195.377 313.101 194.577 309.301 194.777L294.301 195.577C294.301 195.577 295.201 198.177 296.801 199.077C298.401 199.977 307.801 200.277 307.801 200.277L307.301 200.777C305.301 202.877 302.601 204.177 299.801 204.277H298.401C297.301 204.177 296.301 203.977 295.301 203.677L291.601 202.077C290.501 201.577 289.301 201.677 288.801 202.777C288.301 203.977 288.701 205.377 291.701 206.977C293.401 207.877 299.801 210.177 299.801 210.177C299.801 211.177 300.001 212.077 300.201 212.977C300.501 213.977 303.001 214.977 303.001 214.977C303.601 216.377 304.401 217.777 305.201 219.177C305.501 219.577 307.801 220.277 310.201 220.977C314.101 222.077 318.201 222.077 322.101 220.877L327.801 219.077V200.577" fill="#F8B498"/>
<path d="M307 212.377C304.3 212.277 301.7 211.577 299.4 210.277C299.4 210.177 301.1 210.877 303.2 211.377C305.3 211.977 307 212.177 307 212.377Z" fill="#AA6550"/>
<path d="M306.4 216.077C305.7 216.277 305 216.177 304.3 215.877C303.6 215.777 302.9 215.377 302.4 214.877C303.1 214.977 303.8 215.177 304.4 215.477C305.1 215.577 305.8 215.777 306.4 216.077Z" fill="#AA6550"/>
<path d="M309.199 198.877C308.899 199.377 308.499 199.777 307.999 200.177C306.999 201.177 305.899 202.077 304.699 202.777C303.499 203.477 302.199 204.077 300.899 204.377C300.399 204.577 299.799 204.577 299.199 204.577C301.099 204.077 302.899 203.377 304.499 202.477C305.699 201.777 306.799 200.877 307.799 199.977C308.299 199.577 308.699 199.177 309.199 198.877Z" fill="#AA6550"/>
<path d="M329.1 197.377L327.5 222.677L386.8 223.077C390.8 222.977 395 220.677 398.4 218.477C402.3 215.977 405.4 212.277 407.3 207.877C409.2 203.477 409.7 198.577 408.8 193.877C407.9 189.277 406.7 184.677 405 180.377L375.1 185.577L376.1 189.477L329.1 197.377Z" fill="#5868AC"/>
<path d="M294.4 131.377L294.6 192.077" stroke="black" stroke-width="0.25" stroke-miterlimit="10" stroke-linecap="round"/>
<path d="M329.1 197.377L389.8 187.377" stroke="black" stroke-width="0.25" stroke-miterlimit="10" stroke-linecap="round"/>
<path d="M353.901 108.377C353.901 108.377 347.801 118.277 354.101 133.877C360.401 149.477 376.101 189.377 376.101 189.377" stroke="black" stroke-width="0.25" stroke-miterlimit="10"/>
<path d="M312.199 88.9767C312.199 88.9767 315.899 93.8767 326.099 93.0767C336.299 92.2767 349.399 90.4767 349.399 90.4767" stroke="black" stroke-width="0.25" stroke-miterlimit="10" stroke-linecap="round"/>
</g>
<defs>
<clipPath id="clip0">
<rect width="249" height="221" fill="white" transform="translate(200 1.37671)"/>
</clipPath>
</defs>
</svg>
