<svg width="51" height="50" viewBox="0 0 51 50" fill="none" xmlns="http://www.w3.org/2000/svg">
<g clip-path="url(#clip0)">
<path d="M27.6477 4.16416C30.9913 -0.205139 35.6396 -0.22644 35.6396 -0.22644C35.6396 -0.22644 36.3311 3.88144 33.0094 7.83864C29.4627 12.0641 25.4314 11.3726 25.4314 11.3726C25.4314 11.3726 24.6744 8.0495 27.6477 4.16416ZM25.8566 14.2502C27.5767 14.2502 30.7691 11.9059 34.9245 11.9059C42.0773 11.9059 44.8912 16.9521 44.8912 16.9521C44.8912 16.9521 39.3877 19.7419 39.3877 26.5112C39.3877 34.1475 46.2436 36.7792 46.2436 36.7792C46.2436 36.7792 41.4511 50.1531 34.9778 50.1531C32.0046 50.1531 29.6932 48.1666 26.5605 48.1666C23.3681 48.1666 20.2001 50.2272 18.1367 50.2272C12.2256 50.2274 4.75781 37.5409 4.75781 27.343C4.75781 17.3098 11.0788 12.0465 17.0076 12.0465C20.8619 12.0465 23.8529 14.2502 25.8566 14.2502Z" fill="#999999"/>
</g>
<defs>
<clipPath id="clip0">
<rect width="50" height="50" fill="white" transform="translate(0.5)"/>
</clipPath>
</defs>
</svg>
