<svg width="483" height="478" viewBox="0 0 483 478" fill="none" xmlns="http://www.w3.org/2000/svg">
<circle cx="239.193" cy="238.807" r="238.807" fill="#ECF1FA"/>
<rect x="330.35" y="148.614" width="152.555" height="155.329" rx="6.93433" fill="#FCFDFE"/>
<circle cx="340.75" cy="159.015" r="3.46716" fill="#F5B0B2"/>
<circle cx="351.153" cy="159.015" r="3.46716" fill="#FEE182"/>
<circle cx="361.553" cy="159.015" r="3.46716" fill="#A2D9C0"/>
<path d="M472.503 169.417H340.75C338.836 169.417 337.283 170.969 337.283 172.884V235.293C337.283 237.208 338.836 238.76 340.75 238.76H472.503C474.417 238.76 475.97 237.208 475.97 235.293V172.884C475.97 170.969 474.417 169.417 472.503 169.417Z" fill="#E8EEF9"/>
<rect x="337.283" y="245.694" width="138.687" height="5.54746" rx="2.77373" fill="#E8EEF9"/>
<rect x="337.283" y="258.176" width="138.687" height="2.77373" rx="1.38687" fill="#E8EEF9"/>
<rect x="337.283" y="267.884" width="138.687" height="2.77373" rx="1.38687" fill="#E8EEF9"/>
<rect x="337.283" y="277.592" width="138.687" height="2.77373" rx="1.38687" fill="#E8EEF9"/>
<rect x="337.283" y="287.3" width="55.4746" height="2.77373" rx="1.38687" fill="#E8EEF9"/>
<rect x="13" y="63.8828" width="149.941" height="218.096" rx="6.81552" fill="#FCFDFE"/>
<circle cx="23.2242" cy="74.1061" r="3.40776" fill="#F5B0B2"/>
<circle cx="33.4468" cy="74.1061" r="3.40776" fill="#FEE182"/>
<circle cx="43.6714" cy="74.1061" r="3.40776" fill="#A2D9C0"/>
<path d="M152.719 84.3293H23.2242C21.3421 84.3293 19.8164 85.8551 19.8164 87.7371V149.077C19.8164 150.959 21.3421 152.484 23.2242 152.484H152.719C154.601 152.484 156.127 150.959 156.127 149.077V87.7371C156.127 85.8551 154.601 84.3293 152.719 84.3293Z" fill="#F18F92"/>
<rect width="136.31" height="2.72621" rx="1.3631" transform="matrix(-1 0 0 1 156.125 159.3)" fill="#E8EEF9"/>
<rect width="136.31" height="2.72621" rx="1.3631" transform="matrix(-1 0 0 1 156.125 168.842)" fill="#E8EEF9"/>
<rect width="136.31" height="2.72621" rx="1.3631" transform="matrix(-1 0 0 1 156.125 178.384)" fill="#E8EEF9"/>
<rect width="136.31" height="2.72621" rx="1.3631" transform="matrix(-1 0 0 1 156.125 187.925)" fill="#E8EEF9"/>
<rect width="54.5241" height="2.72621" rx="1.3631" transform="matrix(-1 0 0 1 156.125 197.467)" fill="#E8EEF9"/>
<path d="M81.1561 207.009H23.2242C21.3421 207.009 19.8164 208.534 19.8164 210.416V271.756C19.8164 273.638 21.3421 275.164 23.2242 275.164H81.1561C83.0381 275.164 84.5638 273.638 84.5638 271.756V210.416C84.5638 208.534 83.0381 207.009 81.1561 207.009Z" fill="#FEECAF"/>
<path d="M152.719 207.009H94.7867C92.9046 207.009 91.3789 208.534 91.3789 210.416V271.756C91.3789 273.638 92.9046 275.164 94.7867 275.164H152.719C154.601 275.164 156.126 273.638 156.126 271.756V210.416C156.126 208.534 154.601 207.009 152.719 207.009Z" fill="#F9D1D2"/>
<mask id="mask0" mask-type="alpha" maskUnits="userSpaceOnUse" x="0" y="0" width="478" height="478">
<circle cx="239.193" cy="238.807" r="238.807" fill="#ECF1FA"/>
</mask>
<g mask="url(#mask0)">
<path d="M353.69 374.893C352.987 368.182 350.743 361.721 348.521 355.35C341.198 334.424 333.875 313.498 326.598 292.572C324.67 287.063 322.698 281.44 319.184 276.792C315.67 272.145 310.297 268.472 304.447 268.517L307.78 403.527L316.123 422.843C327.391 421.279 337.593 415.407 344.599 406.452C351.604 397.496 354.869 386.183 353.69 374.893Z" fill="#ED6D72"/>
<path d="M198.23 238.636C179.503 238.432 170.911 241.493 153.68 248.861C145.949 252.171 136.88 264.459 133.706 268.517C126.996 277.11 123.799 337.53 123.799 337.53C123.799 337.53 160.164 445.016 162.771 455.173L155.879 480.339H326.96L311.566 397.406L323.559 256.252L243.777 236.278C244.616 238.704 217.841 238.84 198.23 238.636Z" fill="#ED6D72"/>
<path d="M176.806 345.919C176.806 345.919 159.961 372.898 158.374 375.777C156.787 378.656 134.999 407.472 134.999 407.472C134.999 407.472 128.016 430.212 138.853 439.802C149.69 449.392 162.84 451.002 165.424 451.002C168.009 451.002 181.748 423.161 181.748 423.161L199.047 373.895L176.806 345.919Z" fill="#FFB092"/>
<path d="M310.296 227.595C309.729 222.925 310.115 218.141 311.271 213.629C317.233 190.753 310.409 171.256 298.348 156.701C287.443 143.528 284.722 124.031 284.722 124.031C276.742 97.6409 249.581 79.3221 224.892 79.3221C200.18 79.3221 173.132 96.5753 165.106 122.988C165.106 122.988 161.502 143.891 151.39 156.701C139.692 171.551 132.505 190.753 138.467 213.629C139.646 218.141 140.009 222.925 139.442 227.595C139.034 231.041 138.082 234.623 136.109 237.094H313.629C311.656 234.623 310.727 231.041 310.296 227.595Z" fill="#202E3D"/>
<path d="M194.103 177.377C194.375 186.967 186.826 194.971 177.236 195.243C167.646 195.515 159.642 187.965 159.37 178.375C159.098 168.785 166.648 160.782 176.238 160.51C185.851 160.215 193.831 167.787 194.103 177.377Z" fill="#FFB092"/>
<path d="M166.875 175.428C166.875 175.428 173.79 172.072 180.365 184.065" stroke="#E96C63" stroke-width="2.11675" stroke-miterlimit="10" stroke-linecap="round" stroke-linejoin="round"/>
<path d="M274.929 195.22C284.52 195.22 292.296 187.445 292.296 177.854C292.296 168.262 284.52 160.487 274.929 160.487C265.338 160.487 257.562 168.262 257.562 177.854C257.562 187.445 265.338 195.22 274.929 195.22Z" fill="#FFB092"/>
<path d="M284.723 175.133C284.723 175.133 277.717 171.959 271.482 184.156" stroke="#E96C63" stroke-width="2.11675" stroke-miterlimit="10" stroke-linecap="round" stroke-linejoin="round"/>
<path d="M263.935 183.364C285.246 162.053 285.246 127.501 263.935 106.19C242.624 84.8791 208.072 84.8791 186.761 106.19C165.45 127.501 165.45 162.053 186.761 183.364C208.072 204.675 242.624 204.675 263.935 183.364Z" fill="#202E3D"/>
<path d="M247.496 246.458L245.161 212.518C245.161 212.518 236.569 219.433 228.747 221.134C220.925 222.834 213.308 217.642 213.217 217.574C213.126 217.506 204.08 211.566 204.08 211.566L201.904 246.594C201.088 259.834 211.653 270.989 224.915 270.853C238.065 270.739 248.403 259.562 247.496 246.458Z" fill="#FFB092"/>
<path d="M272.751 145.365C272.842 164.16 270.121 180.393 267.378 191.932C264.703 203.223 257.017 211.135 246.135 217.529L244.162 218.685C232.668 225.441 217.75 225.691 206.006 219.274C194.149 212.813 185.851 204.266 183.244 192.182C178.505 170.213 177.87 145.841 177.87 145.841C177.87 145.841 173.903 95.011 225.073 95.6684C276.243 96.3259 272.751 145.365 272.751 145.365Z" fill="#FFB092"/>
<path d="M223.509 155.771L219.836 175.495C219.338 178.171 221.401 180.665 224.121 180.665H226.207" stroke="#E96C63" stroke-width="2.11675" stroke-miterlimit="10" stroke-linecap="round" stroke-linejoin="round"/>
<path d="M208.932 187.534H238.473C238.473 187.534 237.339 195.242 223.169 195.242C211.539 195.242 208.932 187.534 208.932 187.534Z" fill="white"/>
<path d="M210.292 163.185C210.292 163.185 203.287 157.471 197.143 163.185" stroke="#202E3D" stroke-width="2.93995" stroke-miterlimit="10" stroke-linecap="round" stroke-linejoin="round"/>
<path d="M249.854 163.185C249.854 163.185 244.368 157.313 237.045 163.185" stroke="#202E3D" stroke-width="2.93995" stroke-miterlimit="10" stroke-linecap="round" stroke-linejoin="round"/>
<path d="M190.545 144.843L193.107 144.118C198.253 142.644 202.221 142.168 207.594 142.395L209.634 142.485" fill="#202E3D"/>
<path d="M190.545 144.843L193.107 144.118C198.253 142.644 202.221 142.168 207.594 142.395L209.634 142.485" stroke="#1B2D3F" stroke-width="5.13334" stroke-miterlimit="10" stroke-linecap="round"/>
<path d="M255.385 143.982L252.823 143.211C247.677 141.647 243.732 141.125 238.359 141.239L236.318 141.284" fill="#202E3D"/>
<path d="M255.385 143.982L252.823 143.211C247.677 141.647 243.732 141.125 238.359 141.239L236.318 141.284" stroke="#1B2D3F" stroke-width="5.13334" stroke-miterlimit="10" stroke-linecap="round"/>
<path opacity="0.23" d="M197.187 144.481L217.025 171.414C217.025 171.414 211.039 182.841 201.517 181.571L181.498 155.318C181.498 155.318 186.917 143.755 197.187 144.481Z" fill="white"/>
<path opacity="0.23" d="M245.952 144.481L265.79 171.414C265.79 171.414 259.805 182.841 250.283 181.571L230.264 155.318C230.264 155.318 235.682 143.755 245.952 144.481Z" fill="white"/>
<path d="M218.589 163.185C218.589 173.886 209.906 182.569 199.205 182.569C188.504 182.569 179.82 173.886 179.82 163.185C179.82 152.484 188.504 143.8 199.205 143.8C209.906 143.8 218.589 152.484 218.589 163.185Z" stroke="white" stroke-width="1.5145" stroke-miterlimit="10"/>
<path d="M267.423 163.185C267.423 173.886 258.74 182.569 248.039 182.569C237.338 182.569 228.654 173.886 228.654 163.185C228.654 152.484 237.338 143.8 248.039 143.8C258.74 143.8 267.423 152.484 267.423 163.185Z" stroke="white" stroke-width="1.5145" stroke-miterlimit="10"/>
<path d="M218.588 163.185C218.588 163.185 224.12 161.144 228.631 163.185" stroke="white" stroke-width="1.5145" stroke-miterlimit="10"/>
<path d="M172.93 133.825C172.93 133.825 218.545 125.142 227.954 91.0888C227.977 91.0888 179.436 73.8583 172.93 133.825Z" fill="#202E3D"/>
<path d="M272.753 133.825C272.753 133.825 227.137 125.142 217.729 91.0888C217.706 91.0888 266.246 73.8583 272.753 133.825Z" fill="#202E3D"/>
<path d="M153.68 248.838C153.68 248.838 130.418 260.378 115.41 300.19C111.601 316.173 102.306 369.724 102.306 369.724C102.306 369.724 98.3607 413.049 99.2902 423.025C100.22 433 109.923 460.456 115.183 468.21C122.597 479.137 156.627 475.873 162.227 466.373C165.219 461.227 177.394 441.956 176.782 432.864C176.17 423.773 147.966 390.015 147.966 390.015L153.68 248.838Z" fill="#ED6D72"/>
<path d="M202.016 298.24C202.016 298.24 199.567 303.93 196.597 305.563C193.604 307.172 183.606 316.944 180.863 325.083C178.12 333.222 176.805 345.964 176.805 345.964L199.046 373.895C199.046 373.895 210.109 368.59 215.369 363.806C220.176 359.431 229.131 350.815 234.345 345.828C237.474 342.835 239.9 339.162 241.442 335.127C241.85 334.038 242.076 333.222 241.918 332.973C241.374 332.157 240.013 330.524 240.013 330.524C240.013 330.524 240.83 326.987 239.469 324.834C238.109 322.657 237.293 321.297 237.293 321.297C237.293 321.297 239.379 316.876 238.562 314.699C237.882 313.203 236.862 311.933 235.57 310.936C235.57 310.936 250.782 301.777 251.054 299.056C251.327 296.335 251.735 295.61 248.47 295.61C245.228 295.61 226.41 302.321 221.264 305.291C216.117 308.261 205.008 313.43 205.008 313.43C205.008 313.43 210.404 299.872 202.016 298.24Z" fill="#FFB092"/>
<path d="M350.288 372.58L324.42 313.952H324.261L349.336 271.986L341.514 263.643L300.456 256.207C300.456 256.207 297.758 245.551 294.402 245.778C291.047 246.004 289.097 247.002 288.734 260.764C288.734 260.764 287.125 284.252 286.649 290.328C286.263 295.406 286.535 307.807 286.649 311.299C286.649 311.526 286.649 311.775 286.649 312.07V312.251C287.442 326.172 303.063 396.975 305.625 405.273C306.94 409.445 310.749 411.417 314.966 412.256C319.228 413.027 323.603 412.709 327.684 411.304C331.765 409.898 335.415 407.45 338.295 404.207C344.053 397.791 350.9 387.952 351.286 377.092L350.288 372.58ZM288.689 261.557C288.689 261.784 288.689 261.965 288.689 262.124C288.689 261.988 288.689 261.761 288.689 261.557Z" fill="#FFB092"/>
<path d="M349.518 191.026H298.87C295.741 191.026 293.225 193.542 293.225 196.671V306.719C293.225 309.848 295.741 312.364 298.87 312.364H349.518C352.647 312.364 355.164 309.848 355.164 306.719V196.671C355.164 193.542 352.647 191.026 349.518 191.026Z" fill="#263238"/>
<path d="M349.245 196.399H299.548C297.667 196.399 296.125 197.94 296.125 199.822V306.107C296.125 308.012 297.667 309.531 299.548 309.531H349.245C351.127 309.531 352.668 307.989 352.668 306.107V199.822C352.668 197.94 351.127 196.399 349.245 196.399Z" fill="white"/>
<path d="M320.407 304.066C320.407 304.338 320.317 304.611 320.181 304.837C320.022 305.064 319.818 305.245 319.568 305.336C319.319 305.449 319.047 305.472 318.775 305.404C318.503 305.359 318.254 305.223 318.072 305.019C317.868 304.815 317.755 304.588 317.687 304.316C317.641 304.044 317.664 303.772 317.755 303.522C317.868 303.273 318.027 303.046 318.254 302.91C318.48 302.751 318.752 302.683 319.024 302.683C319.206 302.683 319.387 302.706 319.546 302.797C319.705 302.865 319.863 302.978 319.999 303.092C320.135 303.228 320.226 303.364 320.294 303.545C320.385 303.704 320.43 303.885 320.407 304.066Z" fill="#FBE1E2"/>
<path d="M326.075 304.066C326.052 304.406 325.893 304.724 325.644 304.973C325.395 305.2 325.055 305.336 324.715 305.336C324.374 305.336 324.034 305.2 323.785 304.973C323.536 304.747 323.377 304.429 323.354 304.066C323.332 303.885 323.354 303.681 323.422 303.5C323.49 303.318 323.581 303.16 323.717 303.024C323.853 302.887 324.012 302.774 324.17 302.683C324.352 302.615 324.533 302.57 324.715 302.57C324.896 302.57 325.1 302.615 325.259 302.683C325.44 302.751 325.599 302.865 325.712 303.024C325.848 303.16 325.939 303.341 326.007 303.5C326.075 303.681 326.097 303.885 326.075 304.066Z" fill="#FBE1E2"/>
<path d="M331.721 304.066C331.698 304.406 331.539 304.724 331.29 304.973C331.04 305.2 330.7 305.336 330.36 305.336C330.02 305.336 329.68 305.2 329.431 304.973C329.181 304.747 329.023 304.429 328.977 304.066C328.955 303.885 328.977 303.681 329.045 303.5C329.113 303.318 329.204 303.16 329.34 303.024C329.476 302.887 329.635 302.774 329.793 302.683C329.975 302.615 330.156 302.57 330.36 302.57C330.542 302.57 330.746 302.615 330.927 302.683C331.108 302.751 331.267 302.865 331.38 303.024C331.516 303.16 331.607 303.341 331.675 303.5C331.721 303.681 331.743 303.885 331.721 304.066Z" fill="#FBE1E2"/>
<path d="M344.166 269.129H306.962C306.373 269.129 305.806 268.903 305.398 268.472C304.99 268.064 304.74 267.497 304.74 266.908C304.74 266.318 304.967 265.751 305.398 265.343C305.806 264.935 306.373 264.686 306.962 264.686H344.166C344.756 264.686 345.323 264.913 345.731 265.343C346.139 265.751 346.388 266.318 346.388 266.908C346.388 267.497 346.161 268.064 345.731 268.472C345.323 268.903 344.756 269.129 344.166 269.129Z" fill="#FBE1E2"/>
<path d="M323.354 269.129H306.985C306.396 269.129 305.829 268.903 305.421 268.472C305.013 268.064 304.764 267.497 304.764 266.908C304.764 266.318 304.99 265.751 305.421 265.343C305.829 264.935 306.396 264.686 306.985 264.686H323.354C323.649 264.686 323.944 264.754 324.216 264.844C324.488 264.958 324.737 265.117 324.941 265.321C325.146 265.525 325.304 265.774 325.418 266.046C325.531 266.318 325.576 266.613 325.576 266.908C325.576 267.202 325.531 267.497 325.418 267.769C325.304 268.041 325.146 268.291 324.941 268.495C324.737 268.699 324.488 268.857 324.216 268.971C323.921 269.084 323.627 269.129 323.354 269.129Z" fill="#ED6D72"/>
<path d="M344.166 288.128H306.962C306.667 288.128 306.373 288.083 306.101 287.97C305.828 287.856 305.579 287.698 305.375 287.494C305.171 287.289 305.012 287.04 304.899 286.768C304.786 286.496 304.74 286.201 304.74 285.907C304.74 285.317 304.967 284.75 305.398 284.342C305.806 283.934 306.373 283.685 306.962 283.685H344.166C344.461 283.685 344.756 283.753 345.028 283.866C345.3 283.979 345.549 284.161 345.753 284.365C345.957 284.569 346.116 284.818 346.229 285.113C346.343 285.408 346.388 285.68 346.388 285.975C346.365 286.564 346.139 287.108 345.708 287.516C345.3 287.924 344.733 288.128 344.166 288.128Z" fill="#FBE1E2"/>
<path d="M323.354 288.128H306.985C306.691 288.128 306.396 288.083 306.124 287.97C305.852 287.856 305.603 287.698 305.398 287.494C305.194 287.289 305.036 287.04 304.922 286.768C304.809 286.496 304.764 286.201 304.764 285.907C304.764 285.612 304.832 285.317 304.922 285.045C305.036 284.773 305.194 284.524 305.398 284.319C305.603 284.115 305.852 283.957 306.124 283.843C306.396 283.73 306.691 283.685 306.985 283.685H323.354C323.649 283.685 323.944 283.73 324.216 283.843C324.488 283.957 324.737 284.115 324.941 284.319C325.146 284.524 325.304 284.773 325.418 285.045C325.531 285.317 325.576 285.612 325.576 285.907C325.576 286.201 325.508 286.496 325.418 286.745C325.304 287.017 325.146 287.267 324.941 287.471C324.737 287.675 324.488 287.834 324.216 287.947C323.921 288.083 323.627 288.128 323.354 288.128Z" fill="#ED6D72"/>
<path d="M344.166 278.425H306.962C306.667 278.425 306.373 278.357 306.101 278.266C305.828 278.153 305.579 277.994 305.375 277.79C305.171 277.586 305.012 277.337 304.899 277.065C304.786 276.792 304.74 276.498 304.74 276.203C304.74 275.614 304.967 275.047 305.398 274.639C305.806 274.231 306.373 273.981 306.962 273.981H344.166C344.756 273.981 345.323 274.208 345.731 274.639C346.139 275.047 346.388 275.614 346.388 276.203C346.388 276.498 346.32 276.792 346.207 277.065C346.093 277.337 345.935 277.586 345.731 277.79C345.527 277.994 345.277 278.153 345.005 278.266C344.756 278.357 344.461 278.425 344.166 278.425Z" fill="#FBE1E2"/>
<path d="M337.864 278.425H306.962C306.667 278.425 306.373 278.357 306.101 278.266C305.828 278.153 305.579 277.994 305.375 277.79C305.171 277.586 305.012 277.337 304.899 277.065C304.786 276.792 304.74 276.498 304.74 276.203C304.74 275.614 304.967 275.047 305.398 274.639C305.806 274.231 306.373 273.981 306.962 273.981H337.841C338.43 273.981 338.997 274.208 339.405 274.639C339.813 275.047 340.063 275.614 340.063 276.203C340.063 276.498 340.017 276.792 339.881 277.065C339.768 277.337 339.609 277.586 339.405 277.79C339.201 277.994 338.952 278.153 338.68 278.266C338.43 278.357 338.158 278.425 337.864 278.425Z" fill="#ED6D72"/>
<path d="M334.214 194.54H316.099C316.009 194.54 315.918 194.517 315.827 194.494C315.737 194.449 315.669 194.404 315.601 194.336C315.533 194.268 315.487 194.2 315.442 194.109C315.396 194.018 315.396 193.928 315.396 193.837C315.396 193.746 315.419 193.655 315.442 193.565C315.487 193.474 315.533 193.406 315.601 193.338C315.669 193.27 315.737 193.225 315.827 193.179C315.918 193.134 316.009 193.134 316.099 193.134H334.214C334.395 193.134 334.577 193.202 334.713 193.338C334.849 193.474 334.917 193.655 334.917 193.837C334.917 194.018 334.849 194.2 334.713 194.336C334.577 194.472 334.395 194.54 334.214 194.54Z" fill="#455A64"/>
<path d="M352.941 245.551C354.415 245.324 355.934 245.574 357.271 246.231C358.609 246.889 359.72 247.931 360.468 249.224C361.216 250.516 361.534 252.012 361.42 253.486C361.307 254.982 360.74 256.388 359.811 257.544C360.831 257.975 361.738 258.678 362.418 259.585C363.098 260.492 363.506 261.534 363.642 262.645C363.756 263.756 363.597 264.89 363.143 265.91C362.69 266.93 361.965 267.814 361.058 268.472C364.821 270.218 365.977 275.659 363.642 279.082C361.307 282.506 356.297 283.526 352.556 281.78C351.808 281.508 351.15 281.055 350.606 280.488C350.062 279.921 349.654 279.218 349.427 278.47C349.291 277.654 349.382 276.815 349.676 276.044C349.971 275.273 350.447 274.571 351.082 274.049C352.374 273.006 353.825 272.19 355.39 271.646C353.893 271.329 352.533 270.558 351.513 269.402C350.493 268.268 349.88 266.817 349.722 265.298C349.586 263.779 349.926 262.26 350.719 260.945C351.513 259.63 352.692 258.61 354.097 258.02C352.964 257.635 351.966 256.932 351.241 256.003C350.493 255.073 350.039 253.939 349.926 252.738C349.744 250.357 350.833 246.594 352.919 245.528" fill="#FFB092"/>
<path d="M300.774 240.11C296.58 242.218 292.953 245.324 290.277 249.201L291.116 260.401C294.653 258.202 298.008 255.572 300.117 251.99C302.203 248.385 302.815 243.714 300.774 240.11Z" fill="#FFB092"/>
<path d="M122.869 406.52C122.869 406.52 139.51 392.509 147.06 390.242" stroke="#4E5865" stroke-width="0.98835" stroke-miterlimit="10" stroke-linecap="round" stroke-linejoin="round"/>
<path d="M157.58 317.534L155.539 378.611" stroke="#4E5865" stroke-width="0.98835" stroke-miterlimit="10" stroke-linecap="round" stroke-linejoin="round"/>
<path d="M159.053 468.89C159.053 468.89 166.852 462.474 171.704 449.483C176.555 436.492 176.827 432.864 176.827 432.864" stroke="#4E5865" stroke-width="0.98835" stroke-miterlimit="10" stroke-linecap="round" stroke-linejoin="round"/>
<path d="M285.969 316.286C285.969 316.286 289.846 381.989 297.327 399.99C304.809 417.992 307.303 418.649 315.759 422.775" stroke="#4E5865" stroke-width="0.98835" stroke-miterlimit="10" stroke-linecap="round" stroke-linejoin="round"/>
<path d="M341.56 257.522H309.253C306.578 257.522 304.424 255.368 304.424 252.693V207.803C304.424 205.127 306.578 202.974 309.253 202.974H341.56C344.235 202.974 346.389 205.127 346.389 207.803V252.693C346.389 255.368 344.235 257.522 341.56 257.522Z" fill="#FEE698"/>
<path d="M186.734 322.295L205.008 313.679" stroke="#E96C63" stroke-width="0.741263" stroke-miterlimit="10" stroke-linecap="round" stroke-linejoin="round"/>
<path d="M210.02 326.375C210.02 326.375 233.802 312.183 235.593 310.936" stroke="#E96C63" stroke-width="0.741263" stroke-miterlimit="10" stroke-linecap="round" stroke-linejoin="round"/>
<path d="M218.045 336.396C218.045 336.396 235.82 323.995 237.316 321.297" stroke="#E96C63" stroke-width="0.741263" stroke-miterlimit="10" stroke-linecap="round" stroke-linejoin="round"/>
<path d="M221.717 346.123C221.717 346.123 233.393 338.663 236.272 335.671C239.151 332.678 240.013 330.502 240.013 330.502" stroke="#E96C63" stroke-width="0.741263" stroke-miterlimit="10" stroke-linecap="round" stroke-linejoin="round"/>
</g>
<g clip-path="url(#clip0)">
<path d="M71.0388 95.7349H98.0108C99.3232 95.7349 100.598 95.9441 101.834 96.3816C103.622 97.0283 105.239 98.1696 106.456 99.6532C107.693 101.137 108.51 102.963 108.796 104.865C108.91 105.569 108.929 106.273 108.929 106.976V133.283C108.929 134.119 108.891 134.975 108.72 135.793C108.339 137.676 107.445 139.445 106.152 140.872C104.877 142.299 103.204 143.364 101.397 143.934C100.293 144.277 99.152 144.429 97.9918 144.429C97.4782 144.429 70.9628 144.429 70.5633 144.41C68.6232 144.315 66.702 143.687 65.0852 142.603C63.5065 141.538 62.213 140.054 61.3761 138.342C60.6533 136.878 60.2919 135.242 60.2919 133.606V106.558C60.2539 104.941 60.5963 103.343 61.3 101.898C62.1179 100.186 63.3924 98.6831 64.9711 97.618C66.5879 96.5147 68.49 95.868 70.4302 95.7729C70.6204 95.7349 70.8296 95.7349 71.0388 95.7349Z" fill="url(#paint0_linear)"/>
<path d="M101.302 135.565C101.131 135.299 100.941 135.032 100.732 134.785C100.256 134.215 99.7046 133.72 99.0959 133.302C98.3351 132.788 97.4411 132.465 96.5281 132.427C95.8814 132.389 95.2346 132.503 94.626 132.731C94.0173 132.94 93.4277 133.244 92.857 133.549C92.1913 133.891 91.5255 134.234 90.8218 134.519C89.9848 134.861 89.1099 135.128 88.2159 135.318C87.0936 135.527 85.9524 135.603 84.8301 135.584C82.7948 135.546 80.7596 135.242 78.8194 134.671C77.1075 134.157 75.4717 133.454 73.931 132.56C72.5805 131.78 71.3251 130.886 70.1458 129.878C69.1757 129.041 68.2817 128.147 67.4448 127.196C66.8742 126.53 66.3226 125.826 65.809 125.103C65.5998 124.818 65.4096 124.514 65.2384 124.209L60.2168 118.788V106.52C60.2168 100.566 65.0291 95.7349 70.9827 95.7349H80.5884L87.7023 102.963C103.756 113.881 98.5633 125.921 98.5633 125.921C98.5633 125.921 103.128 131.057 101.302 135.565Z" fill="url(#paint1_linear)"/>
<path d="M87.7402 102.963C103.794 113.881 98.6013 125.921 98.6013 125.921C98.6013 125.921 103.166 131.076 101.321 135.584C101.321 135.584 99.4382 132.427 96.2807 132.427C93.2373 132.427 91.4493 135.584 85.3246 135.584C71.6864 135.584 65.2383 124.19 65.2383 124.19C77.5259 132.274 85.9142 126.549 85.9142 126.549C80.3791 123.334 68.605 107.965 68.605 107.965C78.8574 116.696 83.2893 118.998 83.2893 118.998C80.6454 116.81 73.2271 106.12 73.2271 106.12C79.1617 112.131 90.9548 120.519 90.9548 120.519C94.3025 111.237 87.7402 102.963 87.7402 102.963Z" fill="white"/>
</g>
<g clip-path="url(#clip1)">
<path d="M411.155 186.775C414.414 182.516 418.944 182.495 418.944 182.495C418.944 182.495 419.618 186.499 416.381 190.356C412.924 194.474 408.995 193.8 408.995 193.8C408.995 193.8 408.257 190.561 411.155 186.775ZM409.409 196.605C411.086 196.605 414.197 194.32 418.247 194.32C425.219 194.32 427.961 199.238 427.961 199.238C427.961 199.238 422.597 201.957 422.597 208.555C422.597 215.998 429.279 218.563 429.279 218.563C429.279 218.563 424.609 231.597 418.299 231.597C415.402 231.597 413.149 229.661 410.096 229.661C406.984 229.661 403.896 231.669 401.885 231.669C396.124 231.67 388.846 219.305 388.846 209.366C388.846 199.587 395.006 194.457 400.785 194.457C404.541 194.457 407.457 196.605 409.409 196.605Z" fill="#999999"/>
</g>
<defs>
<linearGradient id="paint0_linear" x1="89.1833" y1="93.9973" x2="79.9833" y2="146.172" gradientUnits="userSpaceOnUse">
<stop stop-color="#FAAE42"/>
<stop offset="1" stop-color="#EF3E31"/>
</linearGradient>
<linearGradient id="paint1_linear" x1="85.0606" y1="96.5216" x2="78.3274" y2="134.708" gradientUnits="userSpaceOnUse">
<stop stop-color="#E39F3A"/>
<stop offset="1" stop-color="#D33929"/>
</linearGradient>
<clipPath id="clip0">
<rect width="48.7321" height="48.7321" fill="white" transform="translate(60.1973 95.7158)"/>
</clipPath>
<clipPath id="clip1">
<rect width="48.7321" height="48.7321" fill="white" transform="translate(384.697 182.716)"/>
</clipPath>
</defs>
</svg>
