<svg width="51" height="50" viewBox="0 0 51 50" fill="none" xmlns="http://www.w3.org/2000/svg">
<g clip-path="url(#clip0)">
<path d="M50.3829 12.0465C50.4014 12.1108 50.4109 12.1771 50.4111 12.2438V22.6001C50.4111 22.7331 50.3737 22.8636 50.3028 22.9787C50.2318 23.0937 50.1298 23.1891 50.007 23.2552L40.7503 28.2597V38.1791C40.7503 38.449 40.5975 38.6982 40.3482 38.8341L21.0257 49.2792C20.9815 49.3028 20.9332 49.3179 20.885 49.334C20.8669 49.3396 20.8498 49.35 20.8307 49.3547C20.6956 49.3881 20.5537 49.3881 20.4186 49.3547C20.3965 49.3491 20.3764 49.3377 20.3553 49.3302C20.311 49.3151 20.2648 49.3019 20.2226 49.2792L0.904081 38.8341C0.781357 38.7679 0.679385 38.6725 0.608443 38.5575C0.537502 38.4425 0.500097 38.312 0.5 38.1791V7.10995C0.5 7.04199 0.510052 6.97592 0.528145 6.91174C0.534176 6.89003 0.548249 6.87021 0.55629 6.8485C0.571368 6.80885 0.58544 6.76827 0.607554 6.73145C0.622632 6.70691 0.644746 6.68709 0.662839 6.66444C0.685958 6.63423 0.707067 6.60308 0.734206 6.57666C0.757325 6.55495 0.787481 6.5389 0.813615 6.52002C0.842765 6.49737 0.8689 6.47283 0.902071 6.45489H0.903076L10.5628 1.23234C10.6851 1.16625 10.8238 1.13147 10.9649 1.13147C11.106 1.13147 11.2447 1.16625 11.367 1.23234L21.0267 6.45489H21.0287C21.0609 6.47377 21.088 6.49737 21.1172 6.51908C21.1433 6.53796 21.1725 6.55495 21.1956 6.57571C21.2237 6.60308 21.2438 6.63423 21.268 6.66444C21.2851 6.68709 21.3082 6.70691 21.3222 6.73145C21.3454 6.76921 21.3584 6.80885 21.3745 6.8485C21.3826 6.87021 21.3966 6.89003 21.4027 6.91268C21.4212 6.977 21.4306 7.04332 21.4308 7.10995V26.5154L29.4803 22.1631V12.2428C29.4803 12.1768 29.4903 12.1097 29.5084 12.0465C29.5154 12.0239 29.5285 12.004 29.5366 11.9823C29.5526 11.9427 29.5667 11.9021 29.5888 11.8653C29.6039 11.8407 29.626 11.8209 29.6431 11.7983C29.6672 11.7681 29.6873 11.7369 29.7155 11.7105C29.7386 11.6888 29.7677 11.6727 29.7939 11.6538C29.824 11.6312 29.8502 11.6067 29.8823 11.5887H29.8833L39.5441 6.36617C39.6664 6.29999 39.805 6.26515 39.9462 6.26515C40.0873 6.26515 40.226 6.29999 40.3482 6.36617L50.008 11.5887C50.0422 11.6076 50.0683 11.6312 50.0985 11.6529C50.1236 11.6718 50.1527 11.6888 50.1759 11.7095C50.204 11.7369 50.2241 11.7681 50.2482 11.7983C50.2663 11.8209 50.2884 11.8407 50.3025 11.8653C50.3256 11.9021 50.3387 11.9427 50.3548 11.9823C50.3638 12.004 50.3769 12.0239 50.3829 12.0465ZM48.8008 22.1631V13.5511L45.4204 15.3784L40.7503 17.9033V26.5154L48.8018 22.1631H48.8008ZM39.141 37.742V29.1243L34.5474 31.5879L21.4298 38.618V47.3169L39.141 37.742ZM2.11029 8.41724V37.742L19.8195 47.3159V38.6189L10.5679 33.7022L10.5648 33.7003L10.5608 33.6984C10.5297 33.6814 10.5035 33.6569 10.4744 33.6361C10.4492 33.6172 10.4201 33.6021 10.398 33.5814L10.396 33.5785C10.3698 33.5549 10.3517 33.5257 10.3296 33.4993C10.3095 33.4738 10.2854 33.4521 10.2693 33.4256L10.2683 33.4228C10.2502 33.3945 10.2392 33.3605 10.2261 33.3284C10.213 33.3001 10.1959 33.2737 10.1879 33.2435V33.2425C10.1778 33.2067 10.1758 33.1689 10.1718 33.1321C10.1678 33.1038 10.1598 33.0755 10.1598 33.0471V12.7695L5.49071 10.2437L2.11029 8.41819V8.41724ZM10.9659 2.75956L2.91745 7.10995L10.9639 11.4603L19.0113 7.10901L10.9639 2.75956H10.9659ZM15.1515 29.9096L19.8205 27.3857V8.41724L16.4401 10.2446L11.77 12.7695V31.738L15.1515 29.9096ZM39.9462 7.89338L31.8987 12.2438L39.9462 16.5942L47.9926 12.2428L39.9462 7.89338ZM39.141 17.9033L34.471 15.3784L31.0906 13.5511V22.1631L35.7596 24.6871L39.141 26.5154V17.9033ZM20.6236 37.3107L32.4274 30.9828L38.3278 27.8208L30.2864 23.4732L21.0277 28.4787L12.5893 33.0405L20.6236 37.3107Z" fill="#FF2D20"/>
</g>
<defs>
<clipPath id="clip0">
<rect width="50" height="50" fill="white" transform="translate(0.5)"/>
</clipPath>
</defs>
</svg>
