<svg width="618" height="588" viewBox="0 0 618 588" fill="none" xmlns="http://www.w3.org/2000/svg">
<path fill-rule="evenodd" clip-rule="evenodd" d="M99.9863 298.508L346 119.776L592.014 298.508L498.094 587.81H194.004L99.9863 298.508Z" fill="#FCEBEE"/>
<mask id="mask0" mask-type="alpha" maskUnits="userSpaceOnUse" x="0" y="0" width="618" height="588">
<path fill-rule="evenodd" clip-rule="evenodd" d="M0.173828 224.784L308.88 0.505127L617.587 224.784L499.733 587.81H118.151L0.173828 224.784Z" fill="#D7E4FF"/>
</mask>
<g mask="url(#mask0)">
<g clip-path="url(#clip0)">
<path d="M129.917 526.441L91.749 365.229C90.1435 358.442 92.3328 351.217 97.5874 346.984C100.215 344.867 103.426 343.7 106.783 343.7L212.457 340.343C215.231 340.27 218.004 341.073 220.339 342.532C222.675 343.992 224.572 346.108 225.74 348.662L236.249 370.483L370.313 370.629C380.165 370.629 390.528 384.276 389.36 395.734L400.818 530.017C399.14 546.218 384.836 558.406 370.969 558.406H159.036C144.513 558.479 132.253 545.781 129.917 526.441Z" fill="#ED6D72"/>
<g opacity="0.3">
<path opacity="0.3" d="M129.917 526.441L91.749 365.229C90.1435 358.442 92.3328 351.217 97.5874 346.984C100.215 344.867 103.426 343.7 106.783 343.7L212.457 340.343C215.231 340.27 218.004 341.073 220.339 342.532C222.675 343.992 224.572 346.108 225.74 348.662L236.249 370.483L370.313 370.629C380.165 370.629 390.528 384.276 389.36 395.734L400.818 530.017C399.14 546.218 384.836 558.406 370.969 558.406H159.036C144.513 558.479 132.253 545.781 129.917 526.441Z" fill="black"/>
</g>
<g filter="url(#filter0_dd)">
<rect width="265.763" height="184.423" rx="8.80681" transform="matrix(1 0 0.0826343 0.99658 108.824 350.52)" fill="#ECF1FA"/>
<circle r="4.40341" transform="matrix(1 0 0.0826343 0.99658 123.906 363.685)" fill="#F5B0B2"/>
<circle r="4.40341" transform="matrix(1 0 0.0826343 0.99658 137.117 363.685)" fill="#FEE182"/>
<circle r="4.40341" transform="matrix(1 0 0.0826343 0.99658 150.326 363.685)" fill="#A2D9C0"/>
<rect width="17.6136" height="3.52272" rx="1.76136" transform="matrix(1 0 0.0826343 0.99658 121.342 378.605)" fill="#E8EEF9"/>
<rect width="17.6136" height="3.52272" rx="1.76136" transform="matrix(1 0 0.0826343 0.99658 122.361 390.892)" fill="#E8EEF9"/>
<rect width="17.6136" height="3.52272" rx="1.76136" transform="matrix(1 0 0.0826343 0.99658 124.398 415.467)" fill="#E8EEF9"/>
<rect width="1.76136" height="44.0341" rx="0.880681" transform="matrix(1 0 0.0826343 0.99658 144.094 376.85)" fill="#E8EEF9"/>
<rect width="84.105" height="3.52272" rx="1.76136" transform="matrix(1 0 0.0826343 0.99658 173.301 378.605)" fill="#E8EEF9"/>
<rect width="17.6136" height="3.52272" rx="1.76136" transform="matrix(1 0 0.0826343 0.99658 261.809 378.605)" fill="#E8EEF9"/>
<rect width="84.105" height="3.52272" rx="1.76136" transform="matrix(1 0 0.0826343 0.99658 283.826 378.605)" fill="#F5B0B2"/>
<rect width="17.6136" height="3.52272" rx="1.76136" transform="matrix(1 0 0.0826343 0.99658 152.303 390.892)" fill="#E8EEF9"/>
<rect width="84.105" height="3.52272" rx="1.76136" transform="matrix(1 0 0.0826343 0.99658 174.32 390.892)" fill="#F5B0B2"/>
<rect width="17.6136" height="3.52272" rx="1.76136" transform="matrix(1 0 0.0826343 0.99658 262.828 390.892)" fill="#E8EEF9"/>
<rect width="84.105" height="3.52272" rx="1.76136" transform="matrix(1 0 0.0826343 0.99658 284.846 390.892)" fill="#E8EEF9"/>
<rect width="17.6136" height="3.52272" rx="1.76136" transform="matrix(1 0 0.0826343 0.99658 153.32 403.18)" fill="#E8EEF9"/>
<rect width="150.596" height="3.52272" rx="1.76136" transform="matrix(1 0 0.0826343 0.99658 197.354 403.18)" fill="#E8EEF9"/>
<rect width="17.6136" height="3.52272" rx="1.76136" transform="matrix(1 0 0.0826343 0.99658 352.354 403.18)" fill="#E8EEF9"/>
<rect width="17.6136" height="3.52272" rx="1.76136" transform="matrix(1 0 0.0826343 0.99658 154.34 415.467)" fill="#E8EEF9"/>
<rect width="150.596" height="3.52272" rx="1.76136" transform="matrix(1 0 0.0826343 0.99658 176.357 415.467)" fill="#F5B0B2"/>
<rect width="17.6136" height="3.52272" rx="1.76136" transform="matrix(1 0 0.0826343 0.99658 353.373 415.467)" fill="#E8EEF9"/>
<rect width="17.6136" height="3.52272" rx="1.76136" transform="matrix(1 0 0.0826343 0.99658 125.107 431.265)" fill="#E8EEF9"/>
<rect width="17.6136" height="3.52272" rx="1.76136" transform="matrix(1 0 0.0826343 0.99658 126.127 443.553)" fill="#E8EEF9"/>
<rect width="17.6136" height="3.52272" rx="1.76136" transform="matrix(1 0 0.0826343 0.99658 128.164 468.127)" fill="#E8EEF9"/>
<rect width="1.76136" height="44.0341" rx="0.880681" transform="matrix(1 0 0.0826343 0.99658 147.859 429.51)" fill="#E8EEF9"/>
<rect width="84.105" height="3.52272" rx="1.76136" transform="matrix(1 0 0.0826343 0.99658 177.066 431.265)" fill="#E8EEF9"/>
<rect width="17.6136" height="3.52272" rx="1.76136" transform="matrix(1 0 0.0826343 0.99658 265.574 431.265)" fill="#E8EEF9"/>
<rect width="84.105" height="3.52272" rx="1.76136" transform="matrix(1 0 0.0826343 0.99658 287.592 431.265)" fill="#F5B0B2"/>
<rect width="17.6136" height="3.52272" rx="1.76136" transform="matrix(1 0 0.0826343 0.99658 156.068 443.553)" fill="#E8EEF9"/>
<rect width="84.105" height="3.52272" rx="1.76136" transform="matrix(1 0 0.0826343 0.99658 178.086 443.553)" fill="#F5B0B2"/>
<rect width="17.6136" height="3.52272" rx="1.76136" transform="matrix(1 0 0.0826343 0.99658 266.594 443.553)" fill="#E8EEF9"/>
<rect width="84.105" height="3.52272" rx="1.76136" transform="matrix(1 0 0.0826343 0.99658 288.611 443.553)" fill="#E8EEF9"/>
<rect width="17.6136" height="3.52272" rx="1.76136" transform="matrix(1 0 0.0826343 0.99658 157.086 455.84)" fill="#E8EEF9"/>
<rect width="150.596" height="3.52272" rx="1.76136" transform="matrix(1 0 0.0826343 0.99658 201.119 455.84)" fill="#E8EEF9"/>
<rect width="17.6136" height="3.52272" rx="1.76136" transform="matrix(1 0 0.0826343 0.99658 356.119 455.84)" fill="#E8EEF9"/>
<rect width="17.6136" height="3.52272" rx="1.76136" transform="matrix(1 0 0.0826343 0.99658 158.105 468.127)" fill="#E8EEF9"/>
<rect width="150.596" height="3.52272" rx="1.76136" transform="matrix(1 0 0.0826343 0.99658 180.123 468.127)" fill="#F5B0B2"/>
<rect width="17.6136" height="3.52272" rx="1.76136" transform="matrix(1 0 0.0826343 0.99658 357.139 468.127)" fill="#E8EEF9"/>
<rect width="17.6136" height="3.52272" rx="1.76136" transform="matrix(1 0 0.0826343 0.99658 129.473 483.925)" fill="#E8EEF9"/>
<rect width="17.6136" height="3.52272" rx="1.76136" transform="matrix(1 0 0.0826343 0.99658 130.492 496.213)" fill="#E8EEF9"/>
<rect width="17.6136" height="3.52272" rx="1.76136" transform="matrix(1 0 0.0826343 0.99658 132.529 520.787)" fill="#E8EEF9"/>
<rect width="1.76136" height="44.0341" rx="0.880681" transform="matrix(1 0 0.0826343 0.99658 152.225 482.17)" fill="#E8EEF9"/>
<rect width="84.105" height="3.52272" rx="1.76136" transform="matrix(1 0 0.0826343 0.99658 181.432 483.925)" fill="#E8EEF9"/>
<rect width="17.6136" height="3.52272" rx="1.76136" transform="matrix(1 0 0.0826343 0.99658 269.939 483.925)" fill="#E8EEF9"/>
<rect width="84.105" height="3.52272" rx="1.76136" transform="matrix(1 0 0.0826343 0.99658 291.957 483.925)" fill="#F5B0B2"/>
<rect width="17.6136" height="3.52272" rx="1.76136" transform="matrix(1 0 0.0826343 0.99658 160.434 496.213)" fill="#E8EEF9"/>
<rect width="84.105" height="3.52272" rx="1.76136" transform="matrix(1 0 0.0826343 0.99658 182.451 496.213)" fill="#F5B0B2"/>
<rect width="17.6136" height="3.52272" rx="1.76136" transform="matrix(1 0 0.0826343 0.99658 270.959 496.213)" fill="#E8EEF9"/>
<rect width="84.105" height="3.52272" rx="1.76136" transform="matrix(1 0 0.0826343 0.99658 292.977 496.213)" fill="#E8EEF9"/>
<rect width="17.6136" height="3.52272" rx="1.76136" transform="matrix(1 0 0.0826343 0.99658 161.451 508.5)" fill="#E8EEF9"/>
<rect width="150.596" height="3.52272" rx="1.76136" transform="matrix(1 0 0.0826343 0.99658 205.484 508.5)" fill="#E8EEF9"/>
<rect width="17.6136" height="3.52272" rx="1.76136" transform="matrix(1 0 0.0826343 0.99658 360.484 508.5)" fill="#E8EEF9"/>
<rect width="17.6136" height="3.52272" rx="1.76136" transform="matrix(1 0 0.0826343 0.99658 162.471 520.787)" fill="#E8EEF9"/>
<rect width="150.596" height="3.52272" rx="1.76136" transform="matrix(1 0 0.0826343 0.99658 184.488 520.787)" fill="#F5B0B2"/>
<rect width="17.6136" height="3.52272" rx="1.76136" transform="matrix(1 0 0.0826343 0.99658 361.504 520.787)" fill="#E8EEF9"/>
</g>
<g filter="url(#filter1_dd)">
<rect x="126.824" y="355.311" width="268.113" height="184.943" rx="8.80681" fill="#F8FAFD"/>
<circle cx="141.989" cy="368.521" r="4.40341" fill="#F5B0B2"/>
<circle cx="155.2" cy="368.521" r="4.40341" fill="#FEE182"/>
<circle cx="168.409" cy="368.521" r="4.40341" fill="#A2D9C0"/>
<rect x="137.586" y="383.493" width="17.6136" height="3.52272" rx="1.76136" fill="#E8EEF9"/>
<rect x="137.586" y="395.822" width="17.6136" height="3.52272" rx="1.76136" fill="#E8EEF9"/>
<rect x="137.586" y="420.481" width="17.6136" height="3.52272" rx="1.76136" fill="#E8EEF9"/>
<rect x="160.484" y="381.731" width="1.76136" height="44.0341" rx="0.880681" fill="#E8EEF9"/>
<rect x="189.547" y="383.493" width="84.105" height="3.52272" rx="1.76136" fill="#E8EEF9"/>
<rect x="278.055" y="383.493" width="17.6136" height="3.52272" rx="1.76136" fill="#E8EEF9"/>
<rect x="300.072" y="383.493" width="84.105" height="3.52272" rx="1.76136" fill="#F5B0B2"/>
<rect x="167.529" y="395.822" width="17.6136" height="3.52272" rx="1.76136" fill="#E8EEF9"/>
<rect x="189.547" y="395.822" width="84.105" height="3.52272" rx="1.76136" fill="#F5B0B2"/>
<rect x="278.055" y="395.822" width="17.6136" height="3.52272" rx="1.76136" fill="#E8EEF9"/>
<rect x="300.072" y="395.822" width="84.105" height="3.52272" rx="1.76136" fill="#E8EEF9"/>
<rect x="167.529" y="408.152" width="17.6136" height="3.52272" rx="1.76136" fill="#E8EEF9"/>
<rect x="211.562" y="408.152" width="150.596" height="3.52272" rx="1.76136" fill="#E8EEF9"/>
<rect x="366.562" y="408.152" width="17.6136" height="3.52272" rx="1.76136" fill="#E8EEF9"/>
<rect x="167.529" y="420.481" width="17.6136" height="3.52272" rx="1.76136" fill="#E8EEF9"/>
<rect x="189.547" y="420.481" width="150.596" height="3.52272" rx="1.76136" fill="#F5B0B2"/>
<rect x="366.562" y="420.481" width="17.6136" height="3.52272" rx="1.76136" fill="#E8EEF9"/>
<rect x="135.631" y="436.334" width="17.6136" height="3.52272" rx="1.76136" fill="#E8EEF9"/>
<rect x="135.631" y="448.663" width="17.6136" height="3.52272" rx="1.76136" fill="#E8EEF9"/>
<rect x="135.631" y="473.322" width="17.6136" height="3.52272" rx="1.76136" fill="#E8EEF9"/>
<rect x="158.529" y="434.572" width="1.76136" height="44.0341" rx="0.880681" fill="#E8EEF9"/>
<rect x="187.592" y="436.334" width="84.105" height="3.52272" rx="1.76136" fill="#E8EEF9"/>
<rect x="276.1" y="436.334" width="17.6136" height="3.52272" rx="1.76136" fill="#E8EEF9"/>
<rect x="298.117" y="436.334" width="84.105" height="3.52272" rx="1.76136" fill="#F5B0B2"/>
<rect x="165.574" y="448.663" width="17.6136" height="3.52272" rx="1.76136" fill="#E8EEF9"/>
<rect x="187.592" y="448.663" width="84.105" height="3.52272" rx="1.76136" fill="#F5B0B2"/>
<rect x="276.1" y="448.663" width="17.6136" height="3.52272" rx="1.76136" fill="#E8EEF9"/>
<rect x="298.117" y="448.663" width="84.105" height="3.52272" rx="1.76136" fill="#E8EEF9"/>
<rect x="165.574" y="460.993" width="17.6136" height="3.52272" rx="1.76136" fill="#E8EEF9"/>
<rect x="209.607" y="460.993" width="150.596" height="3.52272" rx="1.76136" fill="#E8EEF9"/>
<rect x="364.607" y="460.993" width="17.6136" height="3.52272" rx="1.76136" fill="#E8EEF9"/>
<rect x="165.574" y="473.322" width="17.6136" height="3.52272" rx="1.76136" fill="#E8EEF9"/>
<rect x="187.592" y="473.322" width="150.596" height="3.52272" rx="1.76136" fill="#F5B0B2"/>
<rect x="364.607" y="473.322" width="17.6136" height="3.52272" rx="1.76136" fill="#E8EEF9"/>
<rect x="136.244" y="489.174" width="17.6136" height="3.52272" rx="1.76136" fill="#E8EEF9"/>
<rect x="136.244" y="501.504" width="17.6136" height="3.52272" rx="1.76136" fill="#E8EEF9"/>
<rect x="136.244" y="526.163" width="17.6136" height="3.52272" rx="1.76136" fill="#E8EEF9"/>
<rect x="159.143" y="487.413" width="1.76136" height="44.0341" rx="0.880681" fill="#E8EEF9"/>
<rect x="188.205" y="489.174" width="84.105" height="3.52272" rx="1.76136" fill="#E8EEF9"/>
<rect x="276.713" y="489.174" width="17.6136" height="3.52272" rx="1.76136" fill="#E8EEF9"/>
<rect x="298.73" y="489.174" width="84.105" height="3.52272" rx="1.76136" fill="#F5B0B2"/>
<rect x="166.188" y="501.504" width="17.6136" height="3.52272" rx="1.76136" fill="#E8EEF9"/>
<rect x="188.205" y="501.504" width="84.105" height="3.52272" rx="1.76136" fill="#F5B0B2"/>
<rect x="276.713" y="501.504" width="17.6136" height="3.52272" rx="1.76136" fill="#E8EEF9"/>
<rect x="298.73" y="501.504" width="84.105" height="3.52272" rx="1.76136" fill="#E8EEF9"/>
<rect x="166.188" y="513.834" width="17.6136" height="3.52272" rx="1.76136" fill="#E8EEF9"/>
<rect x="210.221" y="513.834" width="150.596" height="3.52272" rx="1.76136" fill="#E8EEF9"/>
<rect x="365.221" y="513.834" width="17.6136" height="3.52272" rx="1.76136" fill="#E8EEF9"/>
<rect x="166.188" y="526.163" width="17.6136" height="3.52272" rx="1.76136" fill="#E8EEF9"/>
<rect x="188.205" y="526.163" width="150.596" height="3.52272" rx="1.76136" fill="#F5B0B2"/>
<rect x="365.221" y="526.163" width="17.6136" height="3.52272" rx="1.76136" fill="#E8EEF9"/>
</g>
<g opacity="0.3">
<path opacity="0.3" d="M183.12 395.442C183.266 396.537 183.193 397.705 182.901 398.726C182.609 399.821 182.098 400.843 181.441 401.719C180.785 402.594 179.909 403.324 178.96 403.908C178.011 404.492 176.917 404.784 175.822 404.93C173.56 405.295 171.297 404.784 169.4 403.543C167.502 402.229 166.189 400.259 165.751 398.07C165.605 396.975 165.678 395.807 165.97 394.786C166.262 393.691 166.772 392.669 167.429 391.793C168.086 390.918 168.962 390.188 169.911 389.604C170.859 389.02 171.954 388.728 173.049 388.582C175.311 388.217 177.573 388.728 179.471 389.969C181.368 391.282 182.682 393.253 183.12 395.442Z" fill="black"/>
</g>
<path d="M132.545 525.565L147.798 401.427C148.966 391.72 155.899 384.495 164.073 384.495H396.732C406.584 384.495 414.247 394.859 413.079 406.681L400.819 529.36C397.243 554.83 387.463 558.552 373.524 558.552H156.118C141.522 558.479 127.437 554.83 132.545 525.565Z" fill="#ED6D72"/>
<path d="M498.038 386.202L419.295 404.671L419.048 422.316C418.966 425.202 419.13 428.088 419.543 430.974L430.509 517.137L446.422 636.776L461.758 635.951L461.923 640.651L487.484 639.167C487.484 639.167 500.924 565.619 499.604 549.293C497.048 515.735 494.245 498.915 498.45 481.765C502.902 463.213 517.744 419.266 498.038 386.202Z" fill="#202E3D"/>
<path d="M479.157 258.07C479.899 258.318 502.161 266.398 508.675 270.603C513.21 273.654 513.705 281.24 511.479 286.269L500.43 311.17L494.246 342.007L504.388 390.242L506.367 398.158L419.379 405.001L422.677 349.428L420.203 292.041L434.22 256.339L458.214 256.669L479.157 258.07Z" fill="#EF7E82"/>
<path d="M423.007 256.339C417.566 256.339 395.963 259.06 395.963 259.06L393.654 294.102L420.122 297.318L438.344 256.339C438.261 256.339 428.449 256.257 423.007 256.339Z" fill="#EF7E82"/>
<path d="M484.517 177.761C476.354 169.104 465.388 171.165 456.236 173.226C454.092 171.165 445.187 169.516 438.921 171.165C425.646 174.711 407.176 194.005 426.141 256.916H499.111C502.986 234.077 502.574 196.973 484.517 177.761Z" fill="#1B2D3F"/>
<path d="M447.744 236.055L448.321 256.174C448.486 263.347 454.34 269.119 461.514 269.201C469.429 269.284 475.696 262.44 474.871 254.607L470.748 216.349L447.744 236.055Z" fill="#FFBFA4"/>
<path d="M431.417 184.935C429.191 186.749 427.789 189.387 427.294 192.191C425.645 200.518 422.347 217.834 425.316 226.656C429.191 238.117 438.508 245.373 453.597 242.487C453.597 242.487 471.077 241.662 475.364 216.02C481.466 179.658 450.216 169.022 431.417 184.935Z" fill="#FFBFA4"/>
<path d="M451.701 179.905C451.701 179.905 435.046 177.679 427.213 192.108C427.213 192.108 428.037 171.083 453.35 173.969L451.701 179.905Z" fill="#1B2D3F"/>
<path d="M451.701 179.905C451.701 179.905 460.853 180.4 462.667 189.635C464.069 196.561 457.39 204.064 468.109 215.277L479.075 205.878C479.075 205.878 486.414 173.886 453.433 174.051L451.701 179.905Z" fill="#1B2D3F"/>
<path d="M430.427 210.66C430.18 211.732 429.026 212.392 427.954 212.062C426.882 211.814 426.222 210.66 426.552 209.671C426.799 208.599 427.954 207.939 429.026 208.269C430.098 208.516 430.757 209.671 430.427 210.66Z" fill="#101010"/>
<path d="M447.332 211.072C447.084 212.144 445.93 212.804 444.858 212.474C443.786 212.227 443.127 211.072 443.456 210.083C443.704 209.011 444.858 208.351 445.93 208.681C446.919 208.846 447.579 210.001 447.332 211.072Z" fill="#101010"/>
<path d="M436.777 204.641L432.901 215.855C432.324 217.586 433.314 219.4 435.045 219.812" stroke="#FF8E6B" stroke-width="1.18394" stroke-miterlimit="10" stroke-linecap="round" stroke-linejoin="round"/>
<path d="M433.066 224.595L444.28 223.275C444.28 223.275 445.022 227.81 439.415 228.47C433.808 229.129 433.066 224.595 433.066 224.595Z" fill="white"/>
<path d="M430.344 200.023C430.344 200.023 426.881 199.446 422.182 202.332" stroke="#1B2D3F" stroke-width="3.49781" stroke-miterlimit="10" stroke-linecap="round"/>
<path d="M441.971 200.024C441.971 200.024 450.711 198.292 455.41 202.332" stroke="#1B2D3F" stroke-width="3.49781" stroke-miterlimit="10" stroke-linecap="round"/>
<path d="M432.737 210.165C432.737 214.123 429.851 217.421 426.223 217.421C422.595 217.421 419.709 214.206 419.709 210.165C419.709 206.208 422.595 202.992 426.223 202.992C429.851 202.91 432.737 206.208 432.737 210.165Z" stroke="white" stroke-width="1.12111" stroke-miterlimit="10"/>
<path d="M454.504 210.825C454.504 214.783 451.288 218.081 447.248 218.081C443.29 218.081 439.992 214.865 439.992 210.825C439.992 206.785 443.208 203.569 447.248 203.569C451.288 203.569 454.504 206.867 454.504 210.825Z" stroke="white" stroke-width="1.17907" stroke-miterlimit="10"/>
<path d="M432.736 210.166C432.736 210.166 436.364 207.609 440.075 210.825" stroke="white" stroke-width="1.17907" stroke-miterlimit="10"/>
<path d="M454.504 210.825L470.994 210" stroke="white" stroke-width="1.17907" stroke-miterlimit="10"/>
<path d="M476.109 226.491C481.937 226.491 486.663 221.766 486.663 215.937C486.663 210.108 481.937 205.383 476.109 205.383C470.28 205.383 465.555 210.108 465.555 215.937C465.555 221.766 470.28 226.491 476.109 226.491Z" fill="#FFBFA4"/>
<path d="M480.81 212.804C480.81 212.804 473.059 210.578 470.998 219.07" stroke="#FF8E6B" stroke-width="1.18394" stroke-miterlimit="10" stroke-linecap="round" stroke-linejoin="round"/>
<path d="M371.392 261.368C371.392 261.368 414.267 257.493 418.143 256.751C422.018 255.927 434.056 256.421 434.056 256.421L420.039 293.937L362.075 287.259C352.098 283.96 343.853 266.893 343.853 266.893L324.889 230.778L345.09 228.964L371.392 261.368Z" fill="#FFBFA4"/>
<path d="M507.768 270.026C510.819 271.593 513.375 274.066 515.106 276.952C518.734 282.394 530.772 317.931 530.772 317.931L500.017 330.711L492.432 314.386L507.768 270.026Z" fill="#EF7E82"/>
<g filter="url(#filter2_dd)">
<rect x="221.369" y="202.757" width="249.363" height="132.474" rx="7.7926" transform="rotate(13.8129 221.369 202.757)" fill="#F8FAFD"/>
<circle cx="237.496" cy="218.759" r="3.8963" transform="rotate(13.8129 237.496 218.759)" fill="#F5B0B2"/>
<circle cx="248.848" cy="221.55" r="3.8963" transform="rotate(13.8129 248.848 221.55)" fill="#FEE182"/>
<circle cx="260.197" cy="224.341" r="3.8963" transform="rotate(13.8129 260.197 224.341)" fill="#A2D9C0"/>
<rect x="230.549" y="230.693" width="15.5852" height="3.11704" rx="1.55852" transform="rotate(13.8129 230.549 230.693)" fill="#E8EEF9"/>
<rect x="227.943" y="241.287" width="15.5852" height="3.11704" rx="1.55852" transform="rotate(13.8129 227.943 241.287)" fill="#E8EEF9"/>
<rect x="222.734" y="262.476" width="15.5852" height="3.11704" rx="1.55852" transform="rotate(13.8129 222.734 262.476)" fill="#E8EEF9"/>
<rect x="250.598" y="234.017" width="1.55852" height="38.963" rx="0.77926" transform="rotate(13.8129 250.598 234.017)" fill="#E8EEF9"/>
<rect x="275.197" y="241.67" width="74.4193" height="3.11704" rx="1.55852" transform="rotate(13.8129 275.197 241.67)" fill="#E8EEF9"/>
<rect x="351.248" y="260.368" width="15.5852" height="3.11704" rx="1.55852" transform="rotate(13.8129 351.248 260.368)" fill="#E8EEF9"/>
<rect x="370.166" y="265.02" width="74.4193" height="3.11704" rx="1.55852" transform="rotate(13.8129 370.166 265.02)" fill="#F5B0B2"/>
<rect x="253.674" y="247.613" width="15.5852" height="3.11704" rx="1.55852" transform="rotate(13.8129 253.674 247.613)" fill="#E8EEF9"/>
<rect x="272.592" y="252.264" width="74.4193" height="3.11704" rx="1.55852" transform="rotate(13.8129 272.592 252.264)" fill="#F5B0B2"/>
<rect x="348.643" y="270.962" width="15.5852" height="3.11704" rx="1.55852" transform="rotate(13.8129 348.643 270.962)" fill="#E8EEF9"/>
<rect x="367.561" y="275.614" width="74.4193" height="3.11704" rx="1.55852" transform="rotate(13.8129 367.561 275.614)" fill="#E8EEF9"/>
<rect x="251.07" y="258.207" width="15.5852" height="3.11704" rx="1.55852" transform="rotate(13.8129 251.07 258.207)" fill="#E8EEF9"/>
<rect x="288.906" y="267.51" width="133.253" height="3.11704" rx="1.55852" transform="rotate(13.8129 288.906 267.51)" fill="#E8EEF9"/>
<rect x="422.09" y="300.255" width="15.5852" height="3.11704" rx="1.55852" transform="rotate(13.8129 422.09 300.255)" fill="#E8EEF9"/>
<rect x="248.465" y="268.801" width="15.5852" height="3.11704" rx="1.55852" transform="rotate(13.8129 248.465 268.801)" fill="#E8EEF9"/>
<rect x="267.383" y="273.453" width="133.253" height="3.11704" rx="1.55852" transform="rotate(13.8129 267.383 273.453)" fill="#F5B0B2"/>
<rect x="419.484" y="310.849" width="15.5852" height="3.11704" rx="1.55852" transform="rotate(13.8129 419.484 310.849)" fill="#E8EEF9"/>
<rect x="212.191" y="272.723" width="233.778" height="54.5482" rx="7.7926" transform="rotate(13.8129 212.191 272.723)" fill="#F8FAFD"/>
<rect x="217.525" y="283.664" width="15.5852" height="3.11704" rx="1.55852" transform="rotate(13.8129 217.525 283.664)" fill="#E8EEF9"/>
<rect x="214.92" y="294.258" width="15.5852" height="3.11704" rx="1.55852" transform="rotate(13.8129 214.92 294.258)" fill="#E8EEF9"/>
<rect x="209.711" y="315.446" width="15.5852" height="3.11704" rx="1.55852" transform="rotate(13.8129 209.711 315.446)" fill="#E8EEF9"/>
<rect x="237.574" y="286.988" width="1.55852" height="38.963" rx="0.77926" transform="rotate(13.8129 237.574 286.988)" fill="#E8EEF9"/>
<rect x="262.174" y="294.641" width="74.4193" height="3.11704" rx="1.55852" transform="rotate(13.8129 262.174 294.641)" fill="#F5B0B2"/>
<rect x="338.225" y="313.339" width="15.5852" height="3.11704" rx="1.55852" transform="rotate(13.8129 338.225 313.339)" fill="#E8EEF9"/>
<rect x="357.143" y="317.99" width="74.4193" height="3.11704" rx="1.55852" transform="rotate(13.8129 357.143 317.99)" fill="#E8EEF9"/>
<rect x="240.65" y="300.584" width="15.5852" height="3.11704" rx="1.55852" transform="rotate(13.8129 240.65 300.584)" fill="#E8EEF9"/>
<rect x="259.568" y="305.235" width="74.4193" height="3.11704" rx="1.55852" transform="rotate(13.8129 259.568 305.235)" fill="#E8EEF9"/>
<rect x="335.619" y="323.933" width="15.5852" height="3.11704" rx="1.55852" transform="rotate(13.8129 335.619 323.933)" fill="#E8EEF9"/>
<rect x="354.537" y="328.584" width="74.4193" height="3.11704" rx="1.55852" transform="rotate(13.8129 354.537 328.584)" fill="#E8EEF9"/>
<rect x="238.047" y="311.178" width="15.5852" height="3.11704" rx="1.55852" transform="rotate(13.8129 238.047 311.178)" fill="#F5B0B2"/>
<rect x="275.883" y="320.481" width="133.253" height="3.11704" rx="1.55852" transform="rotate(13.8129 275.883 320.481)" fill="#E8EEF9"/>
<rect x="409.066" y="353.225" width="15.5852" height="3.11704" rx="1.55852" transform="rotate(13.8129 409.066 353.225)" fill="#E8EEF9"/>
<rect x="235.441" y="321.772" width="15.5852" height="3.11704" rx="1.55852" transform="rotate(13.8129 235.441 321.772)" fill="#E8EEF9"/>
<rect x="254.359" y="326.423" width="133.253" height="3.11704" rx="1.55852" transform="rotate(13.8129 254.359 326.423)" fill="#E8EEF9"/>
<rect x="406.461" y="363.819" width="15.5852" height="3.11704" rx="1.55852" transform="rotate(13.8129 406.461 363.819)" fill="#F5B0B2"/>
</g>
<path d="M500.184 296.164C500.019 296.576 499.854 296.906 499.854 297.318C499.689 298.06 499.441 299.214 499.194 300.616C498.699 303.419 498.122 307.295 497.71 311.582C497.215 315.87 497.133 319.827 497.133 322.631C497.133 324.033 497.133 325.187 497.133 326.011C497.133 326.424 497.133 326.836 497.215 327.248C497.38 325.764 497.545 324.197 497.545 322.713C497.71 319.91 497.957 316.035 498.37 311.747C498.782 307.46 499.277 303.584 499.606 300.781C499.936 299.214 500.101 297.73 500.184 296.164Z" fill="#263238"/>
<path d="M461.926 353.056L504.884 339.204L502.08 329.474L527.228 319.415C530.774 329.474 533.412 335.988 534.402 343.491C534.402 343.986 534.484 344.398 534.484 344.893C534.732 349.923 533 354.87 529.784 358.745C526.569 362.62 521.951 365.176 517.004 365.836L465.224 369.299L461.926 353.056Z" fill="#FFBFA4"/>
<path d="M352.757 235.644C353.417 234.572 353.747 233.252 353.912 232.016C353.912 231.356 353.747 230.779 353.417 230.202C353.087 229.625 352.592 229.212 352.015 228.965C351.438 228.882 350.861 228.8 350.284 228.965C349.707 229.13 349.129 229.295 348.717 229.625C347.728 230.284 346.573 230.614 345.419 230.696C344.595 230.449 343.77 230.202 342.946 229.954C342.121 229.789 340.967 230.037 340.802 230.861C340.719 231.191 340.802 231.438 340.884 231.686C340.967 231.933 341.214 232.181 341.461 232.345C341.956 232.675 342.451 232.84 343.028 233.005L353.252 235.479" fill="#FFBFA4"/>
<path d="M323.816 224.842C323.816 224.842 326.208 232.593 327.362 232.84C328.351 232.84 329.258 232.51 330 231.933C330 231.933 329.588 239.189 334.288 240.096C334.288 240.096 335.112 242.322 336.761 242.487C338.411 242.652 338.658 240.591 338.658 240.591C338.658 240.591 341.296 243.641 342.203 240.261C343.028 236.633 343.523 233.005 343.852 229.295C343.852 229.295 342.863 225.832 341.461 226.244C340.637 226.409 339.895 226.821 339.318 227.398C338.493 226.244 337.504 225.337 336.267 224.595C335.854 224.347 335.36 224.265 334.865 224.43C334.37 224.512 333.958 224.842 333.711 225.172C333.711 225.172 331.484 221.791 330.165 222.781C328.846 223.77 329.506 224.677 329.506 224.677C329.506 224.677 326.702 222.534 325.465 223.028C324.806 223.523 324.229 224.1 323.816 224.842Z" fill="#FFBFA4"/>
<path d="M461.925 353.056L443.456 345.8L416.906 351.737C417.319 352.644 417.896 353.468 418.72 354.045C419.545 354.623 420.534 354.952 421.524 354.952C425.234 355.365 435.046 353.468 435.046 353.468L419.132 358.91C419.132 358.91 422.183 362.126 425.729 361.301C429.274 360.477 438.261 358.663 438.261 358.663L427.543 364.27C428.037 365.094 428.779 365.754 429.686 366.166C430.593 366.578 431.583 366.661 432.49 366.413C436.2 366.001 442.961 362.95 442.961 362.95C442.961 362.95 456.731 369.217 461.018 369.217C465.306 369.217 467.12 369.134 467.12 369.134L461.925 353.056Z" fill="#FFBFA4"/>
<path d="M441.889 346.13C441.971 346.13 422.512 345.141 422.512 345.141C422.347 345.636 422.347 346.13 422.512 346.543C422.677 347.037 423.007 347.367 423.419 347.614C424.903 348.851 431.005 349.511 431.005 349.511L441.889 346.13Z" fill="#FFBE9D"/>
<path d="M333.793 225.254L334.37 240.096" stroke="#FF8E6B" stroke-width="0.618395" stroke-miterlimit="10" stroke-linecap="round" stroke-linejoin="round"/>
<path d="M339.4 227.481L338.74 240.591" stroke="#FF8E6B" stroke-width="0.618395" stroke-miterlimit="10" stroke-linecap="round" stroke-linejoin="round"/>
<path d="M329.588 224.76L330.083 231.933" stroke="#FF8E6B" stroke-width="0.618395" stroke-miterlimit="10" stroke-linecap="round" stroke-linejoin="round"/>
<path d="M417.979 351.737L438.674 347.202" stroke="#FF8E6B" stroke-width="0.618395" stroke-miterlimit="10" stroke-linecap="round" stroke-linejoin="round"/>
<path d="M435.045 353.468L440.322 352.809" stroke="#FF8E6B" stroke-width="0.618395" stroke-miterlimit="10" stroke-linecap="round" stroke-linejoin="round"/>
<path d="M438.262 358.663L442.467 357.591" stroke="#FF8E6B" stroke-width="0.618395" stroke-miterlimit="10" stroke-linecap="round" stroke-linejoin="round"/>
<path d="M461.5 634.802L453.863 442.779" stroke="#374351" stroke-width="1.17405"/>
</g>
</g>
<defs>
<filter id="filter0_dd" x="105.435" y="348.26" width="287.782" height="190.572" filterUnits="userSpaceOnUse" color-interpolation-filters="sRGB">
<feFlood flood-opacity="0" result="BackgroundImageFix"/>
<feColorMatrix in="SourceAlpha" type="matrix" values="0 0 0 0 0 0 0 0 0 0 0 0 0 0 0 0 0 0 127 0"/>
<feOffset dy="1.1299"/>
<feGaussianBlur stdDeviation="1.1299"/>
<feColorMatrix type="matrix" values="0 0 0 0 0.121569 0 0 0 0 0.176471 0 0 0 0 0.239216 0 0 0 0.06 0"/>
<feBlend mode="normal" in2="BackgroundImageFix" result="effect1_dropShadow"/>
<feColorMatrix in="SourceAlpha" type="matrix" values="0 0 0 0 0 0 0 0 0 0 0 0 0 0 0 0 0 0 127 0"/>
<feOffset dy="1.1299"/>
<feGaussianBlur stdDeviation="1.69485"/>
<feColorMatrix type="matrix" values="0 0 0 0 0.121569 0 0 0 0 0.176471 0 0 0 0 0.239216 0 0 0 0.1 0"/>
<feBlend mode="normal" in2="effect1_dropShadow" result="effect2_dropShadow"/>
<feBlend mode="normal" in="SourceGraphic" in2="effect2_dropShadow" result="shape"/>
</filter>
<filter id="filter1_dd" x="123.435" y="353.051" width="274.892" height="191.722" filterUnits="userSpaceOnUse" color-interpolation-filters="sRGB">
<feFlood flood-opacity="0" result="BackgroundImageFix"/>
<feColorMatrix in="SourceAlpha" type="matrix" values="0 0 0 0 0 0 0 0 0 0 0 0 0 0 0 0 0 0 127 0"/>
<feOffset dy="1.1299"/>
<feGaussianBlur stdDeviation="1.1299"/>
<feColorMatrix type="matrix" values="0 0 0 0 0.121569 0 0 0 0 0.176471 0 0 0 0 0.239216 0 0 0 0.06 0"/>
<feBlend mode="normal" in2="BackgroundImageFix" result="effect1_dropShadow"/>
<feColorMatrix in="SourceAlpha" type="matrix" values="0 0 0 0 0 0 0 0 0 0 0 0 0 0 0 0 0 0 127 0"/>
<feOffset dy="1.1299"/>
<feGaussianBlur stdDeviation="1.69485"/>
<feColorMatrix type="matrix" values="0 0 0 0 0.121569 0 0 0 0 0.176471 0 0 0 0 0.239216 0 0 0 0.1 0"/>
<feBlend mode="normal" in2="effect1_dropShadow" result="effect2_dropShadow"/>
<feBlend mode="normal" in="SourceGraphic" in2="effect2_dropShadow" result="shape"/>
</filter>
<filter id="filter2_dd" x="186.741" y="200.758" width="279.779" height="194.178" filterUnits="userSpaceOnUse" color-interpolation-filters="sRGB">
<feFlood flood-opacity="0" result="BackgroundImageFix"/>
<feColorMatrix in="SourceAlpha" type="matrix" values="0 0 0 0 0 0 0 0 0 0 0 0 0 0 0 0 0 0 127 0"/>
<feOffset dy="0.999777"/>
<feGaussianBlur stdDeviation="0.999777"/>
<feColorMatrix type="matrix" values="0 0 0 0 0.121569 0 0 0 0 0.176471 0 0 0 0 0.239216 0 0 0 0.06 0"/>
<feBlend mode="normal" in2="BackgroundImageFix" result="effect1_dropShadow"/>
<feColorMatrix in="SourceAlpha" type="matrix" values="0 0 0 0 0 0 0 0 0 0 0 0 0 0 0 0 0 0 127 0"/>
<feOffset dy="0.999777"/>
<feGaussianBlur stdDeviation="1.49967"/>
<feColorMatrix type="matrix" values="0 0 0 0 0.121569 0 0 0 0 0.176471 0 0 0 0 0.239216 0 0 0 0.1 0"/>
<feBlend mode="normal" in2="effect1_dropShadow" result="effect2_dropShadow"/>
<feBlend mode="normal" in="SourceGraphic" in2="effect2_dropShadow" result="shape"/>
</filter>
<clipPath id="clip0">
<rect width="503.209" height="514.175" fill="white" transform="translate(31.3574 170.506)"/>
</clipPath>
</defs>
</svg>
