<svg width="576" height="514" viewBox="0 0 576 514" fill="none" xmlns="http://www.w3.org/2000/svg">
<path fill-rule="evenodd" clip-rule="evenodd" d="M0.613281 224.285L246.475 45.6633L492.336 224.285L398.474 513.407H94.573L0.613281 224.285Z" fill="#FCEBEE"/>
<g filter="url(#filter0_dd)">
<rect x="175.836" y="4.22119" width="345.35" height="103.605" rx="11.5117" fill="#F8FAFD"/>
<circle cx="193.104" cy="21.4888" r="5.75584" fill="#F5B0B2"/>
<circle cx="208.951" cy="21.4888" r="5.75584" fill="#FEE182"/>
<circle cx="224.799" cy="21.4888" r="5.75584" fill="#A2D9C0"/>
<rect x="187.348" y="41.0586" width="23.0234" height="4.60467" rx="2.30234" fill="#E8EEF9"/>
<rect x="187.348" y="57.175" width="23.0234" height="4.60467" rx="2.30234" fill="#E8EEF9"/>
<rect x="187.348" y="89.4077" width="23.0234" height="4.60467" rx="2.30234" fill="#E8EEF9"/>
<rect x="217.277" y="38.7563" width="2.30234" height="57.5584" rx="1.15117" fill="#E8EEF9"/>
<rect x="253.848" y="41.0586" width="112.066" height="4.60467" rx="2.30234" fill="#E8EEF9"/>
<rect x="370.25" y="41.0586" width="23.0234" height="4.60467" rx="2.30234" fill="#E8EEF9"/>
<rect x="397.609" y="41.0586" width="112.066" height="4.60467" rx="2.30234" fill="#D8E3F5"/>
<rect x="226.488" y="57.175" width="23.0234" height="4.60467" rx="2.30234" fill="#E8EEF9"/>
<rect x="253.848" y="57.175" width="112.066" height="4.60467" rx="2.30234" fill="#D8E3F5"/>
<rect x="370.25" y="57.175" width="23.0234" height="4.60467" rx="2.30234" fill="#E8EEF9"/>
<rect x="397.609" y="57.175" width="112.066" height="4.60467" rx="2.30234" fill="#E8EEF9"/>
<rect x="226.488" y="73.2913" width="23.0234" height="4.60467" rx="2.30234" fill="#E8EEF9"/>
<rect x="281.207" y="73.2913" width="201.109" height="4.60467" rx="2.30234" fill="#E8EEF9"/>
<rect x="486.652" y="73.2913" width="23.0234" height="4.60467" rx="2.30234" fill="#E8EEF9"/>
<rect x="226.488" y="89.4077" width="23.0234" height="4.60467" rx="2.30234" fill="#E8EEF9"/>
<rect x="253.848" y="89.4077" width="201.109" height="4.60467" rx="2.30234" fill="#D8E3F5"/>
<rect x="486.652" y="89.4077" width="23.0234" height="4.60467" rx="2.30234" fill="#E8EEF9"/>
</g>
<rect x="175.941" y="130.85" width="345.141" height="95.3906" rx="11.5047" stroke="#D8E3F5" stroke-width="1.15047" stroke-dasharray="11.5 11.5"/>
<g filter="url(#filter1_dd)">
<rect x="175.836" y="249.264" width="345.35" height="80.5817" rx="11.5117" fill="#F8FAFD"/>
<rect x="187.348" y="263.078" width="23.0234" height="4.60467" rx="2.30234" fill="#E8EEF9"/>
<rect x="187.348" y="295.31" width="23.0234" height="4.60467" rx="2.30234" fill="#E8EEF9"/>
<rect x="187.348" y="311.427" width="23.0234" height="4.60467" rx="2.30234" fill="#E8EEF9"/>
<rect x="217.277" y="260.775" width="2.30234" height="57.5584" rx="1.15117" fill="#E8EEF9"/>
<rect x="253.848" y="263.078" width="112.066" height="4.60467" rx="2.30234" fill="#D8E3F5"/>
<rect x="370.25" y="263.078" width="23.0234" height="4.60467" rx="2.30234" fill="#E8EEF9"/>
<rect x="397.609" y="263.078" width="112.066" height="4.60467" rx="2.30234" fill="#E8EEF9"/>
<rect x="226.488" y="279.194" width="23.0234" height="4.60467" rx="2.30234" fill="#E8EEF9"/>
<rect x="253.848" y="279.194" width="112.066" height="4.60467" rx="2.30234" fill="#E8EEF9"/>
<rect x="370.25" y="279.194" width="23.0234" height="4.60467" rx="2.30234" fill="#E8EEF9"/>
<rect x="397.609" y="279.194" width="112.066" height="4.60467" rx="2.30234" fill="#E8EEF9"/>
<rect x="226.488" y="295.31" width="23.0234" height="4.60467" rx="2.30234" fill="#D8E3F5"/>
<rect x="281.207" y="295.31" width="201.109" height="4.60467" rx="2.30234" fill="#E8EEF9"/>
<rect x="486.652" y="295.31" width="23.0234" height="4.60467" rx="2.30234" fill="#E8EEF9"/>
<rect x="226.488" y="311.427" width="23.0234" height="4.60467" rx="2.30234" fill="#E8EEF9"/>
<rect x="253.848" y="311.427" width="201.109" height="4.60467" rx="2.30234" fill="#E8EEF9"/>
<rect x="486.652" y="311.427" width="23.0234" height="4.60467" rx="2.30234" fill="#D8E3F5"/>
</g>
<g filter="url(#filter2_d)">
<rect x="120.336" y="59.7212" width="247.148" height="186.012" rx="8.67187" fill="#FCFDFE"/>
<path d="M232.42 68.3931H134.753C131.58 68.3931 129.008 70.9653 129.008 74.1382V177.55C129.008 180.723 131.58 183.295 134.753 183.295H232.42C235.593 183.295 238.165 180.723 238.165 177.55V74.1382C238.165 70.9652 235.593 68.3931 232.42 68.3931Z" fill="#FBE0E4"/>
<path d="M353.066 68.3931H255.399C252.226 68.3931 249.654 70.9653 249.654 74.1382V177.55C249.654 180.723 252.226 183.295 255.399 183.295H353.066C356.239 183.295 358.812 180.723 358.812 177.55V74.1382C358.812 70.9652 356.239 68.3931 353.066 68.3931Z" fill="#F5B0B2"/>
<rect width="229.805" height="6.9375" rx="3.46875" transform="matrix(-1 0 0 1 358.812 195.436)" fill="#E8EEF9"/>
<circle r="6.9375" transform="matrix(-1 0 0 1 236.539 198.905)" fill="#D8E3F5"/>
<rect x="129.008" y="217.983" width="229.805" height="6.9375" rx="3.46875" fill="#E8EEF9"/>
<circle cx="251.281" cy="221.451" r="6.9375" fill="#D8E3F5"/>
</g>
<path d="M261.045 370.5L288.101 344.466L240.063 263.932C235.094 258.347 228.744 254.023 221.566 251.411L204.633 245.105L184.755 241.502C170.307 238.889 155.307 240.331 141.687 245.556L132.761 248.979C129.08 250.42 126.043 252.942 124.018 256.275C121.994 259.608 121.166 263.482 121.626 267.265L129.448 331.584L134.049 415.361L242.548 396.984L231.689 365.996L232.057 317.712L261.045 370.5Z" fill="#F18F92"/>
<path d="M228.559 376.263L163.036 350.41C160.46 349.419 158.159 347.707 156.595 345.455C154.938 343.293 153.926 340.681 153.742 337.888L148.957 276.362C148.957 276.362 149.509 250.238 132.852 248.887L123.373 252.58C111.042 258.976 108.005 276.452 109.754 289.964C112.146 309.152 113.158 336.357 115.827 353.022C118.036 366.625 126.318 377.435 139.57 382.119L220.277 399.234L228.559 376.263Z" fill="#F18F92"/>
<path d="M301.168 453.643C301.168 453.643 351.598 467.336 353.622 467.966C356.659 469.047 356.107 479.857 351.414 479.767C349.205 479.677 312.763 481.118 308.069 480.848C303.468 480.578 289.572 475.173 289.572 475.173L301.168 453.643Z" fill="#404757"/>
<path d="M241.535 442.205C241.535 442.205 193.866 472.742 192.118 474.004C189.541 475.895 192.486 484.994 196.903 483.372C199.019 482.651 239.051 471.752 243.284 470.13C247.609 468.509 259.204 459.23 259.204 459.23L241.535 442.205Z" fill="#404757"/>
<path d="M340.646 365.725C340.646 365.725 354.91 370.68 355.002 386.444C355.094 416.532 292.885 449.682 292.885 449.682L210.153 395.993L205 393.921C205.092 393.921 316.719 352.844 340.646 365.725Z" fill="#1F2D3D"/>
<path d="M310.185 372.3C308.252 373.111 306.596 374.282 305.307 375.904C304.019 377.435 303.099 379.327 302.73 381.308C303.007 381.399 303.835 378.876 305.951 376.354C307.976 373.832 310.277 372.48 310.185 372.3Z" fill="#455A64"/>
<path d="M334.758 323.024L311.199 385.091C310.555 386.803 309.359 388.334 307.794 389.325C306.23 390.406 304.39 390.947 302.549 390.947L172.977 389.235V379.596L221.106 381.308L241.536 319.331C241.904 318.34 242.548 317.439 243.376 316.809C244.297 316.178 245.309 315.818 246.413 315.818L329.973 316.088C330.801 316.088 331.629 316.268 332.365 316.719C333.102 317.079 333.746 317.62 334.206 318.34C334.666 319.061 334.942 319.782 335.034 320.592C335.126 321.493 335.034 322.304 334.758 323.024Z" fill="white"/>
<path d="M277.333 346.537C278.346 345.997 279.45 345.817 280.554 345.997C281.659 346.087 282.763 346.537 283.591 347.258C284.327 347.979 284.88 348.789 285.064 349.78C285.248 350.771 285.156 351.762 284.788 352.663C284.42 353.564 283.683 354.374 282.855 354.915C282.027 355.455 281.015 355.816 280.002 355.906C278.898 355.996 277.886 355.726 276.965 355.095C276.045 354.555 275.401 353.654 275.033 352.663C274.573 350.591 275.125 347.618 277.333 346.537Z" fill="#EEF3FA"/>
<path d="M306.873 453.105C306.873 453.105 190 379.868 184.939 376.986C180.521 374.553 168.834 367.437 157.239 370.59C145.644 373.743 135.337 383.832 130.091 398.696C127.146 407.163 125.766 421.667 125.122 432.476C124.202 445.448 128.527 458.24 137.085 468.239C140.858 472.834 145.92 476.347 151.625 478.329C152.822 478.689 154.11 479.049 155.398 479.319C166.257 481.481 177.577 480.4 187.791 476.257C198.006 472.023 206.749 464.906 212.73 455.808L215.491 451.754C215.491 451.754 291.965 479.229 293.161 478.869L306.873 453.105Z" fill="#1F2D3D"/>
<path d="M289.94 391.128L254.234 421.666" stroke="#404757" stroke-width="0.920259" stroke-miterlimit="10"/>
<path d="M186.686 378.244L307.24 453.283L293.344 479.317L162.852 432.564" stroke="#404757" stroke-width="0.920259" stroke-miterlimit="10"/>
<path d="M120.336 254.562C135.428 254.562 147.944 265.912 149.048 280.686L153.557 338.969C154.017 345.455 158.435 350.951 164.6 353.112L222.301 373.201" stroke="#ED6D72" stroke-width="0.920259" stroke-miterlimit="10"/>
<path d="M149.324 172.497C149.324 172.497 149.692 155.201 171.41 153.31C185.306 152.139 185.398 158.805 199.478 157.994C212.27 157.183 224.417 165.651 221.288 180.514C218.712 192.946 199.202 199.882 199.202 199.882L149.324 172.497Z" fill="#1F2D3D"/>
<path d="M209.025 217.56C213.959 216.369 216.973 211.488 215.756 206.658C214.54 201.827 209.553 198.877 204.618 200.068C199.684 201.259 196.67 206.14 197.887 210.971C199.103 215.801 204.09 218.751 209.025 217.56Z" fill="#FF9574"/>
<path d="M192.853 228.438L192.485 243.482C192.301 252.4 184.847 259.426 175.828 259.336C165.89 259.246 158.343 250.598 159.632 240.959L165.245 207.088L192.853 228.438Z" fill="#F8B498"/>
<path d="M203.714 171.597C205.555 173.489 208.684 176.912 209.328 183.127C210.34 191.685 212.457 212.494 208.592 221.683C203.622 233.393 193.132 240.15 177.487 235.916C177.487 235.916 163.131 234.294 156.597 206.459C146.75 163.85 185.309 152.68 203.714 171.597Z" fill="#F8B498"/>
<path d="M202.333 201.774C202.609 202.855 203.714 203.576 204.818 203.396C205.922 203.125 206.659 202.044 206.475 200.963C206.198 199.882 205.094 199.162 203.99 199.342C202.793 199.612 202.057 200.693 202.333 201.774Z" fill="#101010"/>
<path d="M183.652 201.234C183.928 202.315 185.032 203.036 186.136 202.856C187.241 202.585 187.977 201.504 187.793 200.423C187.517 199.342 186.412 198.622 185.308 198.802C184.112 199.072 183.376 200.153 183.652 201.234Z" fill="#101010"/>
<path d="M197.18 200.332L199.664 210.331C199.94 211.412 199.204 212.493 198.1 212.583L197.18 212.673" stroke="#FF9574" stroke-width="1.21962" stroke-miterlimit="10" stroke-linecap="round" stroke-linejoin="round"/>
<path d="M209.511 218.8L204.45 219.611L203.161 217.178C202.609 216.187 201.597 215.557 200.4 215.557L188.805 215.917C187.701 215.917 186.689 216.548 186.228 217.539L183.652 219.971C183.652 219.971 170.032 223.034 167.455 204.297L163.59 203.306C163.59 203.306 167.547 211.683 161.934 221.052C161.934 221.052 167.731 240.059 190.646 236.816C190.738 236.816 205.002 235.375 209.511 218.8Z" fill="#1F2D3D"/>
<path d="M198.743 220.061C198.743 220.061 194.97 222.043 191.197 220.151" stroke="white" stroke-width="1.21465" stroke-miterlimit="10" stroke-linecap="round" stroke-linejoin="round"/>
<path d="M202.518 191.234C202.518 191.234 206.015 190.693 210.8 193.576" stroke="#1F2D3D" stroke-width="3.53379" stroke-miterlimit="10" stroke-linecap="round"/>
<path d="M190.739 191.235C190.739 191.235 181.904 189.523 177.211 193.577" stroke="#1F2D3D" stroke-width="3.53379" stroke-miterlimit="10" stroke-linecap="round"/>
<path d="M155.491 206.909L167.547 204.386L165.522 189.252C165.338 187.631 166.35 186.009 167.915 185.649C170.584 185.019 174.265 183.127 174.265 178.172C174.357 170.245 169.939 165.741 169.939 165.741C169.939 165.741 145.276 161.957 141.964 179.614C139.571 191.955 146.749 215.466 163.866 224.835L155.491 206.909Z" fill="#1F2D3D"/>
<path d="M144.447 209.971C145.644 215.376 151.165 218.889 156.687 217.628C162.208 216.457 165.797 211.052 164.509 205.647C163.313 200.242 157.791 196.728 152.27 197.99C146.748 199.161 143.251 204.566 144.447 209.971Z" fill="#F8B498"/>
<path d="M150.061 204.564C150.061 204.564 157.791 203.033 159.079 211.32" stroke="#FF9574" stroke-width="1.21962" stroke-miterlimit="10" stroke-linecap="round" stroke-linejoin="round"/>
<path d="M167.916 168.713C167.916 168.713 175.278 175.289 187.61 174.388C199.941 173.488 202.242 170.245 206.843 175.199C206.843 175.199 205.555 158.444 183.193 157.813C160.83 157.183 162.579 171.416 162.579 171.416L167.916 168.713Z" fill="#1F2D3D"/>
<defs>
<filter id="filter0_dd" x="170.727" y="0.814941" width="355.569" height="113.824" filterUnits="userSpaceOnUse" color-interpolation-filters="sRGB">
<feFlood flood-opacity="0" result="BackgroundImageFix"/>
<feColorMatrix in="SourceAlpha" type="matrix" values="0 0 0 0 0 0 0 0 0 0 0 0 0 0 0 0 0 0 127 0"/>
<feOffset dy="1.70312"/>
<feGaussianBlur stdDeviation="1.70312"/>
<feColorMatrix type="matrix" values="0 0 0 0 0.121569 0 0 0 0 0.176471 0 0 0 0 0.239216 0 0 0 0.06 0"/>
<feBlend mode="normal" in2="BackgroundImageFix" result="effect1_dropShadow"/>
<feColorMatrix in="SourceAlpha" type="matrix" values="0 0 0 0 0 0 0 0 0 0 0 0 0 0 0 0 0 0 127 0"/>
<feOffset dy="1.70312"/>
<feGaussianBlur stdDeviation="2.55469"/>
<feColorMatrix type="matrix" values="0 0 0 0 0.121569 0 0 0 0 0.176471 0 0 0 0 0.239216 0 0 0 0.1 0"/>
<feBlend mode="normal" in2="effect1_dropShadow" result="effect2_dropShadow"/>
<feBlend mode="normal" in="SourceGraphic" in2="effect2_dropShadow" result="shape"/>
</filter>
<filter id="filter1_dd" x="170.727" y="245.857" width="355.569" height="90.8005" filterUnits="userSpaceOnUse" color-interpolation-filters="sRGB">
<feFlood flood-opacity="0" result="BackgroundImageFix"/>
<feColorMatrix in="SourceAlpha" type="matrix" values="0 0 0 0 0 0 0 0 0 0 0 0 0 0 0 0 0 0 127 0"/>
<feOffset dy="1.70312"/>
<feGaussianBlur stdDeviation="1.70312"/>
<feColorMatrix type="matrix" values="0 0 0 0 0.121569 0 0 0 0 0.176471 0 0 0 0 0.239216 0 0 0 0.06 0"/>
<feBlend mode="normal" in2="BackgroundImageFix" result="effect1_dropShadow"/>
<feColorMatrix in="SourceAlpha" type="matrix" values="0 0 0 0 0 0 0 0 0 0 0 0 0 0 0 0 0 0 127 0"/>
<feOffset dy="1.70312"/>
<feGaussianBlur stdDeviation="2.55469"/>
<feColorMatrix type="matrix" values="0 0 0 0 0.121569 0 0 0 0 0.176471 0 0 0 0 0.239216 0 0 0 0.1 0"/>
<feBlend mode="normal" in2="effect1_dropShadow" result="effect2_dropShadow"/>
<feBlend mode="normal" in="SourceGraphic" in2="effect2_dropShadow" result="shape"/>
</filter>
<filter id="filter2_d" x="116.93" y="58.0181" width="253.961" height="192.824" filterUnits="userSpaceOnUse" color-interpolation-filters="sRGB">
<feFlood flood-opacity="0" result="BackgroundImageFix"/>
<feColorMatrix in="SourceAlpha" type="matrix" values="0 0 0 0 0 0 0 0 0 0 0 0 0 0 0 0 0 0 127 0"/>
<feOffset dy="1.70312"/>
<feGaussianBlur stdDeviation="1.70312"/>
<feColorMatrix type="matrix" values="0 0 0 0 0.121569 0 0 0 0 0.176471 0 0 0 0 0.239216 0 0 0 0.05 0"/>
<feBlend mode="normal" in2="BackgroundImageFix" result="effect1_dropShadow"/>
<feBlend mode="normal" in="SourceGraphic" in2="effect1_dropShadow" result="shape"/>
</filter>
</defs>
</svg>
