<svg width="340" height="283" viewBox="0 0 340 283" fill="none" xmlns="http://www.w3.org/2000/svg">
<path d="M116.125 196.175L61.7279 223.756C59.7359 224.752 57.3225 223.986 56.3265 221.994L0.435183 111.667C-0.560824 109.675 0.205326 107.262 2.19734 106.266L56.5947 78.6841C58.5867 77.6881 61.0001 78.4543 61.9961 80.4463L117.887 190.735C118.883 192.765 118.117 195.179 116.125 196.175Z" fill="#EDEEED"/>
<path d="M30.583 118.258C31.8471 120.748 30.8511 123.774 28.3611 125.038C25.8711 126.302 22.8448 125.306 21.5806 122.816C20.3164 120.326 21.3124 117.3 23.8025 116.036C26.2925 114.81 29.3188 115.768 30.583 118.258Z" fill="#FCFCFC"/>
<path d="M56.7861 105.002C58.0503 107.492 57.0543 110.518 54.5643 111.782C52.0742 113.046 49.0479 112.05 47.7837 109.56C46.5196 107.07 47.5156 104.044 50.0056 102.78C52.4573 101.516 55.5219 102.512 56.7861 105.002Z" fill="#FCFCFC"/>
<path d="M42.9179 142.582C44.1821 145.072 43.1861 148.098 40.6961 149.362C38.2061 150.627 35.1797 149.631 33.9156 147.141C32.6514 144.651 33.6474 141.624 36.1374 140.36C38.6275 139.134 41.6538 140.13 42.9179 142.582Z" fill="#FCFCFC"/>
<path d="M69.083 129.327C70.3471 131.817 69.3511 134.844 66.8611 136.108C64.3711 137.372 61.3448 136.376 60.0806 133.886C58.8164 131.396 59.8124 128.369 62.3025 127.105C64.7925 125.841 67.8571 126.837 69.083 129.327Z" fill="#FCFCFC"/>
<path d="M55.2539 166.946C56.518 169.436 55.522 172.463 53.032 173.727C50.542 174.991 47.5157 173.995 46.2515 171.505C44.9873 169.015 45.9833 165.989 48.4734 164.725C50.9634 163.46 53.9897 164.456 55.2539 166.946Z" fill="#FCFCFC"/>
<path d="M81.4179 153.654C82.6821 156.144 81.6861 159.17 79.1961 160.434C76.7061 161.698 73.6797 160.702 72.4156 158.212C71.1514 155.722 72.1474 152.696 74.6374 151.432C77.1275 150.206 80.1538 151.202 81.4179 153.654Z" fill="#FCFCFC"/>
<path d="M67.5888 191.272C68.853 193.762 67.857 196.788 65.367 198.052C62.877 199.317 59.8506 198.321 58.5865 195.831C57.3223 193.341 58.3183 190.314 60.8083 189.05C63.2983 187.786 66.3247 188.782 67.5888 191.272Z" fill="#FCFCFC"/>
<path d="M93.7529 178.018C95.0171 180.508 94.0211 183.534 91.531 184.799C89.041 186.063 86.0147 185.067 84.7505 182.577C83.4864 180.087 84.4824 177.06 86.9724 175.796C89.4624 174.532 92.4887 175.528 93.7529 178.018Z" fill="#FCFCFC"/>
<path d="M27.557 115.958C27.6719 115.996 27.059 118.026 26.2162 120.516C25.3735 123.006 24.6073 124.999 24.4924 124.96C24.3775 124.922 24.9904 122.892 25.8332 120.402C26.6759 117.912 27.4421 115.92 27.557 115.958Z" fill="#E1E4E3"/>
<path d="M53.1469 102.742C53.2618 102.78 52.6489 104.811 51.8061 107.301C50.9633 109.791 50.1971 111.783 50.0822 111.744C49.9673 111.706 50.5802 109.676 51.423 107.186C52.2658 104.696 53.0319 102.704 53.1469 102.742Z" fill="#E1E4E3"/>
<path d="M40.1222 137.91C40.2372 137.948 39.7392 140.055 39.0496 142.66C38.3601 145.265 37.6705 147.334 37.5556 147.295C37.4407 147.257 37.9387 145.15 38.6282 142.545C39.3561 139.94 40.0073 137.871 40.1222 137.91Z" fill="#E1E4E3"/>
<path d="M65.942 126.992C66.0569 127.03 65.6738 129.06 65.0609 131.589C64.4863 134.117 63.9116 136.109 63.7967 136.071C63.6818 136.032 64.0649 134.002 64.6778 131.474C65.2907 128.984 65.8653 126.953 65.942 126.992Z" fill="#E1E4E3"/>
<path d="M51.6144 164.609C51.7293 164.647 51.2697 166.601 50.6184 168.938C49.9672 171.313 49.3542 173.19 49.2393 173.19C49.1244 173.152 49.5841 171.236 50.2353 168.861C50.8866 166.486 51.4995 164.571 51.6144 164.609Z" fill="#E1E4E3"/>
<path d="M78.5062 151.66C78.6212 151.699 78.0082 153.614 77.1655 155.989C76.3227 158.326 75.5565 160.203 75.4416 160.165C75.3267 160.126 75.9396 158.211 76.7824 155.836C77.6635 153.499 78.4296 151.622 78.5062 151.66Z" fill="#E1E4E3"/>
<path d="M64.7543 189.204C64.8692 189.242 64.1797 191.272 63.2986 193.686C62.3792 196.137 61.5364 198.091 61.4598 198.053C61.3449 198.015 62.0344 196.022 62.9155 193.571C63.8349 191.081 64.6394 189.165 64.7543 189.204Z" fill="#E1E4E3"/>
<path d="M90.7265 175.106C90.8414 175.144 90.3434 177.405 89.6539 180.124C88.9643 182.883 88.3131 185.105 88.1982 185.066C88.0832 185.028 88.5812 182.768 89.2708 180.048C89.9986 177.29 90.6499 175.068 90.7265 175.106Z" fill="#E1E4E3"/>
<path d="M103.177 190.62C103.215 190.735 95.2091 194.873 85.2873 199.891C75.3656 204.909 67.2826 208.932 67.2443 208.817C67.206 208.702 75.2123 204.565 85.1341 199.546C95.0559 194.528 103.139 190.544 103.177 190.62Z" fill="#E1E4E3"/>
<path d="M51.2318 93.1641C51.2701 93.279 43.2638 97.4163 33.342 102.435C23.4202 107.453 15.3373 111.475 15.299 111.36C15.2607 111.245 23.267 107.108 33.1888 102.09C43.1106 97.0332 51.1935 93.0492 51.2318 93.1641Z" fill="#E1E4E3"/>
<path d="M34.5287 104.926L34.3754 104.964H34.3372H34.2988L34.6436 104.773C34.6819 104.773 34.6436 104.888 34.5287 104.926C34.4138 104.964 34.3371 104.964 34.2988 104.888L34.6436 104.696V104.734L34.6053 104.773L34.5287 104.926Z" fill="#E1E4E3"/>
<path d="M83.9465 200.121C83.8316 200.159 72.6073 178.208 58.8548 151.048C45.1022 123.888 34.0312 101.861 34.1078 101.784C34.2227 101.746 45.447 123.696 59.1995 150.857C72.9904 178.055 84.0614 200.082 83.9465 200.121Z" fill="#E1E4E3"/>
<path d="M251.468 281.64H73.3738C68.4703 281.64 64.4863 277.656 64.4863 272.753V8.88745C64.4863 3.98403 68.4703 0 73.3738 0H251.812C256.716 0 260.7 3.98403 260.7 8.88745V272.753C260.7 277.656 256.716 281.64 251.812 281.64" fill="#00242B"/>
<path d="M254.532 255.476H70.6152V19.9973H254.532V255.476Z" fill="white"/>
<path d="M169.91 267.812C169.91 271.987 166.539 275.358 162.363 275.358C158.188 275.358 154.816 271.987 154.816 267.812C154.816 263.636 158.188 260.265 162.363 260.265C166.539 260.303 169.91 263.674 169.91 267.812Z" fill="#155762"/>
<path d="M237.6 63.8589H91.417V39.2269H237.6V63.8589Z" fill="#C6AEE2"/>
<path d="M190.366 235.48H134.551C129.226 235.48 124.667 231.343 124.591 226.018C124.514 220.616 128.843 216.249 134.206 216.249H190.059C195.384 216.249 199.943 220.387 200.019 225.711C200.096 231.074 195.729 235.48 190.366 235.48Z" fill="#C6AEE2"/>
<path d="M111.873 54.5881H109.536V46.1221H111.873V54.6264V54.5881Z" fill="white"/>
<path d="M114.938 49.2255V51.524H106.472V49.2255H114.67H114.938Z" fill="white"/>
<path d="M117.504 50.336C117.504 50.336 117.504 50.2977 117.504 50.221C117.504 50.1444 117.504 50.0295 117.465 49.8763C117.465 49.7997 117.465 49.723 117.465 49.6081C117.465 49.5315 117.427 49.4166 117.427 49.3017C117.389 49.0718 117.35 48.842 117.274 48.5738C117.159 48.0375 116.891 47.348 116.469 46.6584C116.048 45.9689 115.473 45.241 114.669 44.6281C113.864 44.0152 112.83 43.5172 111.681 43.2873C110.532 43.0958 109.191 43.1341 107.927 43.5938C107.62 43.7087 107.314 43.8619 107.007 44.0152C106.701 44.2067 106.394 44.3599 106.126 44.5898C105.82 44.7813 105.59 45.0495 105.322 45.2793C105.092 45.5475 104.824 45.8156 104.632 46.1221C104.211 46.6967 103.828 47.3479 103.598 48.0758C103.368 48.8037 103.253 49.5315 103.215 50.336C103.215 51.1021 103.368 51.8683 103.598 52.5961C103.828 53.324 104.172 53.9752 104.632 54.5499C104.824 54.8563 105.092 55.1245 105.322 55.3926C105.59 55.6225 105.858 55.8906 106.126 56.0822C106.394 56.312 106.701 56.4653 107.007 56.6568C107.314 56.81 107.62 56.9633 107.927 57.0782C109.191 57.5379 110.493 57.5762 111.681 57.3846C112.868 57.1931 113.864 56.6568 114.669 56.0439C115.473 55.4309 116.086 54.7031 116.469 54.0135C116.891 53.324 117.159 52.6728 117.274 52.0981C117.35 51.83 117.389 51.5618 117.427 51.3703C117.427 51.2554 117.465 51.1788 117.465 51.0638C117.465 50.9872 117.465 50.8723 117.465 50.7957C117.465 50.6424 117.504 50.5275 117.504 50.4509C117.504 50.3743 117.504 50.336 117.504 50.336C117.504 50.336 117.504 50.3743 117.504 50.4509C117.504 50.5275 117.504 50.6424 117.504 50.7957C117.504 50.8723 117.504 50.9489 117.504 51.0638C117.504 51.1404 117.465 51.2554 117.465 51.3703C117.427 51.6001 117.389 51.83 117.312 52.1364C117.197 52.7111 116.929 53.3623 116.546 54.0518C116.125 54.7414 115.55 55.5075 114.707 56.1205C113.903 56.7334 112.868 57.2697 111.681 57.4996C110.493 57.6911 109.153 57.6911 107.888 57.1931C107.582 57.0782 107.237 56.9249 106.931 56.7717C106.624 56.5802 106.318 56.4269 106.05 56.1971C105.743 56.0056 105.513 55.7374 105.207 55.5076C104.977 55.2394 104.709 54.9712 104.479 54.6648C104.058 54.0518 103.674 53.4006 103.445 52.6728C103.215 51.9449 103.062 51.1787 103.062 50.3743C103.062 49.5698 103.215 48.8037 103.445 48.0758C103.674 47.3479 104.058 46.6584 104.479 46.0838C104.709 45.7773 104.939 45.5092 105.207 45.241C105.475 45.0112 105.743 44.743 106.05 44.5515C106.318 44.3216 106.624 44.1684 106.931 43.9769C107.237 43.8236 107.544 43.6704 107.888 43.5555C109.153 43.0575 110.493 43.0575 111.681 43.249C112.868 43.4789 113.903 43.9768 114.707 44.6281C115.512 45.241 116.125 46.0072 116.546 46.6967C116.967 47.3863 117.197 48.0758 117.312 48.6121C117.389 48.8803 117.427 49.1484 117.465 49.3783C117.465 49.4932 117.504 49.5698 117.504 49.6847C117.504 49.7614 117.504 49.8763 117.504 49.9529C117.504 50.1061 117.504 50.2211 117.504 50.2977V50.336Z" fill="white"/>
<path d="M132.367 226.171L133.325 225.213L135.202 226.86L138.88 223.336L139.761 224.332L135.087 228.737L132.367 226.171Z" fill="white"/>
<path d="M306.669 262.026L305.865 274.859C305.865 274.859 318.66 279.954 318.736 282.367L293.798 281.716L294.219 261.681L306.669 262.026Z" fill="#C6AEE2"/>
<path d="M298.433 275.473C298.011 275.473 297.59 275.128 297.475 274.706C297.398 274.247 297.666 273.749 298.126 273.595C298.203 273.557 298.318 273.519 298.433 273.519C298.816 273.519 299.275 273.825 299.39 274.208C299.544 274.668 299.122 275.319 298.624 275.434C298.548 275.473 298.471 275.473 298.433 275.473Z" fill="#00242B"/>
<path d="M329.117 281.256L307.243 280.682L329.117 281.256C329.117 281.027 328.964 280.758 328.734 280.49C328.772 280.49 328.811 280.49 328.849 280.49C329.04 280.682 329.155 280.95 329.117 281.256ZM328.734 280.49C328.734 280.49 328.581 280.49 328.542 280.49C328.466 280.414 328.389 280.337 328.313 280.26C328.389 280.299 328.504 280.375 328.619 280.49" fill="white"/>
<path d="M318.391 281.603C318.353 281.526 318.277 281.488 318.238 280.875H318.315C318.391 281.449 318.468 281.526 318.506 281.641H318.43" fill="#A7B0B2"/>
<path d="M318.775 282.369L296.901 281.794C296.901 281.296 296.403 280.952 296.096 280.76C295.713 280.415 295.215 280.071 294.641 279.726L317.817 281.067C317.817 281.067 317.894 281.105 318.008 281.182C318.085 281.258 318.162 281.335 318.238 281.411C318.315 281.488 318.353 281.526 318.392 281.603C318.621 281.871 318.736 282.139 318.775 282.369Z" fill="#00242B"/>
<path d="M306.286 274.744C306.286 274.859 305.673 274.897 305.06 275.28C304.447 275.625 304.102 276.161 304.026 276.123C303.911 276.085 304.103 275.357 304.869 274.936C305.597 274.476 306.324 274.629 306.286 274.744Z" fill="#00242B"/>
<path d="M308.891 275.894C308.929 276.009 308.393 276.201 307.972 276.699C307.512 277.197 307.397 277.733 307.282 277.733C307.167 277.733 307.091 277.044 307.627 276.431C308.163 275.818 308.891 275.78 308.891 275.894Z" fill="#00242B"/>
<path d="M310.308 279.073C310.193 279.112 310.04 278.499 310.385 277.809C310.691 277.158 311.304 276.89 311.342 277.005C311.419 277.12 311.036 277.464 310.768 278.001C310.461 278.537 310.423 279.035 310.308 279.073Z" fill="#00242B"/>
<path d="M306.171 271.795C306.133 271.91 305.558 271.718 304.868 271.757C304.179 271.757 303.642 271.987 303.566 271.872C303.489 271.795 304.026 271.335 304.83 271.335C305.673 271.297 306.209 271.718 306.171 271.795Z" fill="#00242B"/>
<path d="M306.401 266.854V266.816V266.854ZM294.143 266.433L294.181 263.789L294.143 266.433Z" fill="#B4B4B4"/>
<path d="M306.401 266.854L294.143 266.433L294.181 263.789L306.516 264.556L306.401 266.816V266.854Z" fill="#D74141"/>
<path d="M306.286 269.191C306.286 269.229 305.788 269.306 305.022 269.153C304.639 269.076 304.179 268.923 303.719 268.731C303.489 268.616 303.26 268.501 303.03 268.348C302.915 268.271 302.8 268.195 302.647 268.042C302.532 267.927 302.455 267.582 302.608 267.39C302.723 267.199 302.953 267.122 303.145 267.122C303.336 267.122 303.489 267.161 303.604 267.199C303.872 267.275 304.141 267.39 304.37 267.467C304.83 267.697 305.213 267.965 305.52 268.271C306.094 268.808 306.286 269.268 306.248 269.306C306.209 269.344 305.903 268.961 305.328 268.501C305.022 268.272 304.677 268.042 304.217 267.85C303.987 267.773 303.758 267.659 303.489 267.62C303.221 267.544 302.991 267.544 302.915 267.659C302.876 267.697 302.876 267.735 302.953 267.812C302.991 267.888 303.106 267.965 303.221 268.042C303.451 268.195 303.643 268.31 303.872 268.425C304.294 268.655 304.715 268.808 305.06 268.923C305.788 269.076 306.286 269.153 306.286 269.191Z" fill="#00242B"/>
<path d="M306.095 269.381C306.056 269.381 305.826 268.96 305.788 268.155C305.788 267.772 305.826 267.274 305.98 266.776C306.056 266.546 306.171 266.278 306.324 266.01C306.478 265.78 306.669 265.435 307.129 265.397C307.359 265.397 307.589 265.589 307.627 265.742C307.703 265.895 307.703 266.048 307.742 266.202C307.78 266.508 307.78 266.776 307.703 267.044C307.627 267.581 307.397 268.002 307.129 268.308C306.631 268.96 306.095 269.075 306.095 269.036C306.056 268.96 306.478 268.768 306.861 268.155C307.052 267.849 307.244 267.466 307.282 267.006C307.32 266.776 307.32 266.546 307.282 266.278C307.244 266.01 307.167 265.78 307.052 265.818C306.937 265.818 306.707 266.01 306.593 266.202C306.478 266.431 306.363 266.661 306.248 266.853C306.095 267.312 306.018 267.734 305.98 268.079C306.056 268.883 306.171 269.343 306.095 269.381Z" fill="#00242B"/>
<path d="M311.841 183.648L291.997 190.007C292.227 190.199 295.675 212.456 295.675 212.456L292.802 271.603L308.546 271.795L315.595 209.736L311.841 183.648Z" fill="#00242B"/>
<path d="M284.565 261.605L284.181 274.515C284.181 274.515 297.168 279.265 297.321 281.64L272.268 281.755L272.076 261.644L284.565 261.605Z" fill="#C6AEE2"/>
<path d="M276.291 275.664C275.869 275.664 275.448 275.358 275.333 274.936C275.218 274.476 275.524 273.978 275.946 273.787C276.022 273.749 276.137 273.71 276.252 273.71C276.635 273.71 277.095 274.017 277.21 274.4C277.363 274.86 276.942 275.511 276.482 275.626C276.444 275.664 276.367 275.664 276.291 275.664Z" fill="#00242B"/>
<path d="M282.267 280.492H307.205C307.205 280.76 307.205 280.722 307.167 280.645H307.205C307.205 280.683 307.205 280.722 307.205 280.492H282.573" fill="white"/>
<path d="M296.862 281.793C296.747 281.487 296.479 281.142 296.058 280.759C296.364 280.951 296.862 281.295 296.862 281.793Z" fill="#FFE4E8"/>
<path d="M271.924 281.756L272 279.726L296.288 280.377C296.288 280.377 296.364 280.415 296.479 280.492C296.901 280.875 297.169 281.22 297.245 281.526H297.284C297.284 281.565 297.284 281.603 297.284 281.68L272.269 281.794" fill="#00242B"/>
<path d="M284.182 274.706C284.182 274.821 283.569 274.898 282.956 275.281C282.343 275.664 282.036 276.2 281.922 276.124C281.807 276.085 281.998 275.357 282.726 274.898C283.454 274.438 284.22 274.591 284.182 274.706Z" fill="#00242B"/>
<path d="M286.787 275.78C286.825 275.895 286.289 276.125 285.867 276.623C285.446 277.121 285.331 277.695 285.216 277.695C285.101 277.734 285.025 277.006 285.523 276.355C286.097 275.703 286.787 275.665 286.787 275.78Z" fill="#00242B"/>
<path d="M288.319 278.882C288.204 278.92 288.051 278.307 288.358 277.618C288.664 276.928 289.239 276.698 289.277 276.775C289.354 276.89 288.971 277.235 288.741 277.771C288.473 278.384 288.434 278.882 288.319 278.882Z" fill="#00242B"/>
<path d="M283.952 271.757C283.914 271.872 283.339 271.719 282.65 271.757C281.96 271.795 281.424 272.025 281.347 271.91C281.27 271.834 281.807 271.374 282.611 271.336C283.416 271.297 283.99 271.68 283.952 271.757Z" fill="#00242B"/>
<path d="M284.029 266.814V266.738V266.814ZM271.464 267.006V263.941H272.23V267.006" fill="#B4B4B4"/>
<path d="M283.799 267.007L271.464 266.969V266.931L271.426 264.326L283.799 264.709L283.723 266.931V267.007" fill="#D74141"/>
<path d="M283.991 269.152C283.991 269.191 283.493 269.267 282.727 269.152C282.344 269.076 281.884 268.961 281.424 268.769C281.195 268.654 280.926 268.539 280.697 268.386C280.582 268.309 280.428 268.233 280.313 268.08C280.16 267.965 280.084 267.62 280.237 267.428C280.352 267.237 280.582 267.16 280.773 267.16C280.965 267.16 281.118 267.198 281.233 267.237C281.501 267.313 281.769 267.39 281.999 267.505C282.459 267.735 282.88 268.003 283.148 268.271C283.723 268.807 283.914 269.267 283.876 269.267C283.838 269.305 283.531 268.922 282.957 268.501C282.65 268.271 282.267 268.041 281.846 267.888C281.616 267.811 281.386 267.735 281.118 267.658C280.85 267.582 280.62 267.582 280.543 267.696C280.505 267.735 280.505 267.773 280.582 267.85C280.658 267.926 280.735 268.003 280.85 268.08C281.08 268.233 281.309 268.348 281.501 268.463C281.922 268.692 282.344 268.807 282.727 268.922C283.493 269.076 283.991 269.114 283.991 269.152Z" fill="#00242B"/>
<path d="M283.838 269.343C283.8 269.343 283.57 268.922 283.493 268.156C283.455 267.773 283.493 267.275 283.647 266.777C283.723 266.508 283.838 266.279 283.953 266.01C284.106 265.781 284.259 265.436 284.757 265.359C284.987 265.359 285.217 265.551 285.294 265.704C285.37 265.857 285.409 266.01 285.409 266.164C285.447 266.47 285.447 266.738 285.409 267.006C285.332 267.543 285.102 267.964 284.872 268.309C284.374 268.96 283.876 269.113 283.876 269.075C283.838 268.998 284.259 268.769 284.643 268.156C284.834 267.849 284.987 267.428 285.026 266.968C285.064 266.738 285.026 266.508 284.987 266.24C284.949 265.972 284.834 265.742 284.757 265.781C284.643 265.781 284.413 265.972 284.336 266.202C284.221 266.432 284.106 266.662 284.03 266.891C283.876 267.351 283.8 267.773 283.8 268.156C283.761 268.883 283.876 269.305 283.838 269.343Z" fill="#00242B"/>
<path d="M268.208 186.981C268.208 191.463 269.97 274.515 269.97 274.515L284.91 273.174L287.975 222.148L289.584 217.704L291.461 190.199L268.208 186.981Z" fill="#00242B"/>
<path d="M299.85 79.2974C300.041 79.5655 311.725 98.0683 311.725 98.0683L324.827 84.354L331.53 94.0459C331.53 94.0459 317.51 113.851 315.441 114.579C313.372 115.307 306.745 114.158 306.745 114.158L297.475 101.937L299.85 79.2974Z" fill="#EDEEED"/>
<path d="M270.2 65.507L268.169 70.4871C268.169 70.4871 257.826 79.2213 256.868 80.5621C255.911 81.9028 264.262 125.459 264.262 125.459C264.262 125.459 263.726 189.433 264.262 189.433C264.798 189.433 271.924 191.732 286.557 190.659C301.191 189.587 303.911 188.093 303.911 188.093L299.352 131.473L292.38 93.4335L280.39 77.9954L270.2 65.507Z" fill="#EDEEED"/>
<path d="M293.759 87.0735C293.759 87.0735 292.227 79.68 292.342 79.4502C292.457 79.2203 288.894 70.4861 288.894 70.4861L287.707 66.5021L271.387 63.7439L270.583 66.1956L292.342 93.6624L294.564 105.461L296.862 102.243L293.759 87.0735Z" fill="#C6AEE2"/>
<path d="M308.316 142.62L304.792 100.059L301.88 83.4338C301.497 80.1393 299.275 76.7682 299.275 76.7682L290.771 71.8648C290.771 71.8648 288.472 69.03 288.357 68.6086L292.38 78.8369L293.797 87.0348L294.678 105.806L299.313 131.012L303.834 186.444L313.679 184.529L308.316 142.62Z" fill="#EDEEED"/>
<path d="M294.985 93.0506L296.9 79.0682L290.771 71.9046L288.357 68.6484L292.112 79.4513L294.985 93.0506Z" fill="#EDEEED"/>
<path d="M285.331 119.099L300.118 98.0681L325.861 105.845L306.401 131.013L282.229 123.16L285.331 119.099Z" fill="#C6AEE2"/>
<path d="M318.314 104.887C318.314 105.231 318.046 105.538 317.663 105.538C317.318 105.538 317.012 105.27 317.012 104.887C317.012 104.503 317.28 104.235 317.663 104.235C318.046 104.235 318.314 104.542 318.314 104.887Z" fill="#00242B"/>
<path d="M308.048 102.014C308.048 102.359 307.779 102.666 307.396 102.666C307.052 102.666 306.745 102.397 306.745 102.014C306.745 101.67 307.013 101.363 307.396 101.363C307.741 101.363 308.048 101.67 308.048 102.014Z" fill="#00242B"/>
<path d="M295.981 84.5451C295.942 84.5451 296.249 85.9242 296.709 87.5714C297.13 89.257 297.513 90.5978 297.551 90.5595C297.59 90.5595 297.283 89.1804 296.824 87.5331C296.402 85.8859 296.019 84.5451 295.981 84.5451Z" fill="#00242B"/>
<path d="M300.884 94.0087C300.999 94.6217 300.884 95.2729 300.654 95.7709C300.424 96.2689 299.888 96.8818 299.314 96.9968C299.314 96.9968 298.011 97.4565 296.977 96.4988C296.057 95.6177 295.33 93.4724 295.521 92.055C295.636 91.059 296.249 90.0247 297.207 89.7566C298.471 89.4118 299.467 90.1013 300.003 90.9441" fill="#E1E4E3"/>
<path d="M299.964 90.9424C299.964 90.9424 299.888 90.7126 299.581 90.3678C299.428 90.2146 299.237 90.023 298.93 89.8698C298.662 89.7166 298.317 89.6017 297.896 89.5634C297.704 89.5634 297.474 89.5633 297.283 89.64C297.053 89.6783 296.861 89.7549 296.67 89.9081C296.287 90.1763 295.942 90.5594 295.712 91.0574C295.482 91.5171 295.367 92.0917 295.406 92.6663C295.406 93.2409 295.521 93.8155 295.712 94.3902C296.019 95.2712 296.402 96.114 297.091 96.6503C297.436 96.9185 297.819 97.0717 298.24 97.11C298.624 97.1483 299.007 97.11 299.351 96.9951C299.658 96.9185 299.888 96.7653 300.079 96.612C300.271 96.4588 300.424 96.2673 300.539 96.0757C300.769 95.6926 300.884 95.2712 300.922 94.9648C300.96 94.6583 300.96 94.3902 300.922 94.2369C300.922 94.1603 300.884 94.0837 300.884 94.0454L300.845 93.9688C300.807 93.9688 300.922 94.3519 300.807 94.9648C300.731 95.2712 300.654 95.6543 300.424 96.0374C300.309 96.2289 300.156 96.3822 299.964 96.5737C299.773 96.7269 299.543 96.8802 299.313 96.9185C298.662 97.11 297.819 97.0717 297.206 96.5354C296.593 95.9991 296.172 95.1946 295.904 94.3135C295.559 93.2026 295.444 92.0151 295.904 91.0957C296.095 90.636 296.402 90.2529 296.785 89.9847C296.976 89.8698 297.168 89.7932 297.359 89.7549C297.551 89.7166 297.781 89.6783 297.934 89.6783C298.317 89.6783 298.662 89.7932 298.93 89.9464C299.198 90.0997 299.39 90.2529 299.543 90.4061C299.849 90.7509 299.964 90.9424 299.964 90.9424Z" fill="#00242B"/>
<path d="M301.575 93.8931C301.69 94.506 301.575 95.1572 301.345 95.6552C301.115 96.1533 300.579 96.7662 300.004 96.8811C300.004 96.8811 298.701 97.3408 297.667 96.3831C296.748 95.502 296.02 93.3568 296.211 91.9394C296.326 90.9434 296.939 89.909 297.897 89.6409C299.161 89.2961 300.157 89.9857 300.693 90.8284" fill="#E1E4E3"/>
<path d="M300.655 90.9823C300.655 90.9823 300.578 90.7524 300.272 90.4077C300.118 90.2544 299.927 90.0629 299.62 89.9097C299.352 89.7564 299.008 89.6415 298.586 89.6032C298.395 89.6032 298.165 89.6032 297.973 89.6798C297.743 89.7181 297.552 89.7947 297.36 89.948C296.939 90.2161 296.632 90.5992 296.403 91.0972C296.173 91.5569 296.058 92.1315 296.096 92.7061C296.096 93.2808 296.211 93.8554 296.403 94.43C296.709 95.3111 297.092 96.1539 297.782 96.6902C298.126 96.9583 298.51 97.1116 298.931 97.1499C299.314 97.1882 299.697 97.1499 300.042 97.035C300.348 96.9583 300.578 96.8051 300.77 96.6519C300.961 96.4986 301.114 96.3071 301.229 96.1156C301.459 95.7325 301.574 95.3111 301.612 95.0046C301.651 94.6982 301.651 94.43 301.651 94.2768C301.651 94.2002 301.612 94.1235 301.612 94.0852L301.574 94.0086C301.536 94.0086 301.651 94.3917 301.536 95.0046C301.459 95.3111 301.383 95.6942 301.153 96.0773C301.038 96.2688 300.885 96.422 300.693 96.6136C300.502 96.7668 300.272 96.92 300.042 96.9583C299.391 97.1499 298.548 97.1116 297.935 96.5753C297.322 96.0773 296.901 95.2345 296.632 94.3534C296.288 93.2425 296.173 92.0549 296.632 91.1355C296.824 90.6758 297.13 90.2927 297.514 90.0246C297.705 89.9097 297.897 89.8331 298.088 89.7948C298.28 89.7564 298.51 89.7181 298.663 89.7181C299.046 89.7181 299.391 89.8331 299.659 89.9863C299.927 90.1395 300.118 90.2927 300.272 90.446C300.54 90.7524 300.655 90.9823 300.655 90.9823Z" fill="#00242B"/>
<path d="M299.467 90.7902C300.042 90.4837 300.808 90.7519 301.229 91.2882C301.651 91.7862 301.766 92.5141 301.727 93.1653C301.689 93.5101 301.612 93.8165 301.459 94.123C301.306 94.4295 301.038 94.6593 300.731 94.7742C300.272 94.9275 299.735 94.6976 299.352 94.3912C298.739 93.8931 298.395 93.0887 298.395 92.3225C298.395 91.7862 298.624 91.1733 299.122 91.0584" fill="#E1E4E3"/>
<path d="M299.122 90.9807C299.122 90.9807 299.083 90.9807 299.007 91.019C298.93 91.0573 298.815 91.0956 298.739 91.2105C298.509 91.4021 298.317 91.8235 298.355 92.3598C298.355 92.8961 298.547 93.509 299.007 94.0453C299.237 94.3135 299.505 94.5816 299.85 94.7349C300.194 94.8881 300.654 94.9264 301.037 94.6966C301.42 94.4667 301.612 94.1219 301.727 93.7389C301.841 93.3558 301.842 93.011 301.842 92.6662C301.803 91.9767 301.535 91.3638 301.114 91.019C300.692 90.6742 300.233 90.5976 299.964 90.6359C299.811 90.6359 299.696 90.6742 299.658 90.7125L299.543 90.7891C299.543 90.7891 299.696 90.7125 299.964 90.7125C300.233 90.7125 300.654 90.7892 301.037 91.0956C301.42 91.4021 301.688 92.015 301.688 92.6662C301.688 93.011 301.688 93.3558 301.573 93.7006C301.458 94.0453 301.267 94.3901 300.96 94.5433C300.654 94.7349 300.233 94.6966 299.926 94.5433C299.581 94.3901 299.313 94.1603 299.122 93.9304C298.7 93.4324 298.509 92.8195 298.47 92.3215C298.432 91.8235 298.624 91.4021 298.815 91.2105C298.968 91.019 299.122 91.019 299.122 90.9807Z" fill="#00242B"/>
<path d="M299.276 95.8851C299.314 95.8851 299.314 95.7702 299.391 95.6553C299.467 95.5021 299.582 95.3488 299.812 95.2339C300.003 95.119 300.233 95.0424 300.387 94.9658C300.54 94.9275 300.655 94.8891 300.616 94.8508C300.616 94.8125 300.501 94.8508 300.348 94.8508C300.195 94.8891 299.965 94.9274 299.735 95.0807C299.505 95.2339 299.352 95.4254 299.314 95.617C299.199 95.7702 299.237 95.8851 299.276 95.8851Z" fill="#00242B"/>
<path d="M297.705 90.829C297.705 90.829 297.782 90.9056 297.935 90.9822C298.088 91.0588 298.318 91.0972 298.624 91.0972C298.893 91.0588 299.123 90.9822 299.276 90.9056C299.429 90.829 299.506 90.7141 299.467 90.7141C299.429 90.6758 299.084 90.9439 298.586 90.9439C298.088 90.9822 297.743 90.7907 297.705 90.829Z" fill="#00242B"/>
<path d="M285.83 101.209C285.064 101.439 284.183 100.865 283.416 101.133C282.842 101.363 282.535 102.052 282.765 102.627C282.995 103.163 283.723 103.47 284.259 103.201C285.025 102.857 285.217 101.746 285.945 101.286" fill="#00242B"/>
<path d="M279.509 104.005C279.739 103.929 279.968 103.852 280.198 103.699L280.083 103.431C279.164 103.891 278.321 104.005 277.555 103.737C276.597 103.431 275.754 102.55 275.065 101.132L275.027 101.094C274.759 100.558 270.928 89.1803 270.238 87.035C269.127 83.6639 271.962 82.2465 272.077 82.1699C272.192 82.0933 274.72 80.7908 277.363 84.0087C280.122 87.3798 284.91 94.0454 285.37 94.8881C285.408 95.0031 285.485 95.118 285.561 95.2712C286.174 96.3055 287.438 98.4508 286.328 100.29C285.102 102.358 283.531 102.205 283.454 102.205L283.416 102.473C283.493 102.473 285.217 102.626 286.557 100.443C287.745 98.4508 286.442 96.1906 285.791 95.118C285.715 94.9648 285.638 94.8498 285.6 94.7732C285.14 93.9305 280.351 87.2649 277.593 83.8555C274.835 80.446 272 81.9401 271.962 81.9401C271.924 81.9401 268.821 83.5107 269.97 87.1499C270.545 88.9121 274.49 100.673 274.759 101.247L274.797 101.286C275.525 102.741 276.406 103.661 277.478 104.005C278.091 104.235 278.781 104.235 279.509 104.005Z" fill="#00242B"/>
<path d="M270.812 89.2959C270.85 89.2959 270.697 88.7212 270.927 87.8018C271.042 87.3422 271.272 86.8442 271.617 86.3078C271.961 85.8098 272.459 85.3118 273.072 84.9288C274.298 84.2009 275.677 84.1243 276.597 84.2775C277.516 84.4307 278.014 84.7755 278.052 84.7372L277.976 84.6606C277.899 84.6223 277.823 84.584 277.708 84.5074C277.478 84.3924 277.095 84.2392 276.635 84.1626C276.175 84.086 275.601 84.0477 274.949 84.1243C274.337 84.2009 273.647 84.4308 273.034 84.8138C272.421 85.1969 271.923 85.6949 271.54 86.2312C271.195 86.7675 270.965 87.3038 270.85 87.7635C270.736 88.2232 270.736 88.6063 270.774 88.8745C270.774 88.9894 270.812 89.1043 270.812 89.1809V89.2959Z" fill="#00242B"/>
<path d="M268.169 70.4488L280.926 86.2699L292.38 93.4335L270.199 65.507L268.169 70.4488Z" fill="#EDEEED"/>
<path d="M256.907 80.5607C256.907 80.5607 254.225 84.7746 253.804 89.1034C253.651 90.789 257.826 122.431 258.324 123.849C258.784 125.266 264.377 128.829 266.024 129.557C267.671 130.284 287.975 137.027 296.287 136.912L298.05 121.244L276.712 117.681C276.712 117.681 274.222 115.306 272.92 114.846L271.157 97.4163L268.552 83.4338C268.514 83.3572 261.044 78.7603 256.907 80.5607Z" fill="#EDEEED"/>
<path d="M270.813 82.7075L271.464 82.3245L270.813 82.7075C269.779 81.022 268.706 79.2598 267.94 77.3444L267.787 76.9996C267.021 75.1226 266.139 72.9773 266.484 70.9087V70.8704C266.676 69.9893 267.174 69.1848 267.902 68.5719L268.131 68.457H268.361V69.5679L268.898 69.7211L269.127 69.8361V69.951H268.706C268.361 70.2574 268.093 70.6788 268.017 71.1385V71.1768C267.748 72.7858 268.515 74.7012 269.204 76.3484L269.357 76.6932C270.085 78.4937 271.119 80.1792 272.115 81.8265L270.813 82.7075Z" fill="#00242B"/>
<path d="M339.844 82.5156C339.652 82.0559 338.771 81.941 338.771 81.941L338.963 81.6729C339.231 81.2898 339.269 80.7918 339.039 80.3704L338.924 80.1788C338.618 79.6808 337.89 79.451 337.89 79.451C337.89 79.451 338.541 78.5699 338.388 78.1102C338.158 77.5356 337.2 76.7694 336.358 76.9227C335.476 77.0759 333.523 77.6888 332.182 78.1868C331.646 78.3784 331.071 78.0719 330.956 77.4973C330.726 76.4247 330.305 74.8157 329.615 73.6282C328.849 72.3257 327.93 72.2874 327.393 72.4023C327.125 72.4406 326.972 72.7471 327.087 72.9769C327.394 73.7048 327.93 75.1222 328.083 75.6968C328.236 76.3864 327.738 81.4047 327.738 81.4047L325.21 84.8141L330.956 93.1652L333.484 89.4111L338.924 86.9977C338.924 86.9977 339.959 85.6952 339.844 85.2738C339.729 84.8141 339.307 84.546 339.307 84.546L339.997 83.5883C339.997 83.5883 340.035 82.9753 339.844 82.5156Z" fill="#FFBA9D"/>
<path d="M338.427 79.5653C338.427 79.5653 338.388 79.6036 338.312 79.6419C338.235 79.6802 338.12 79.7568 337.967 79.8335C337.66 79.9867 337.239 80.2548 336.741 80.523C336.205 80.8295 335.592 81.1359 334.902 81.519C334.557 81.7105 334.213 81.9021 333.791 82.0936C333.408 82.2469 332.872 82.3235 332.451 82.0553C332.259 81.9404 332.106 81.7105 332.029 81.4807C331.953 81.2509 331.953 81.021 332.029 80.7912C332.106 80.3315 332.412 79.9867 332.719 79.7568C333.025 79.4887 333.37 79.2971 333.676 79.1439C333.983 78.9524 334.251 78.7991 334.519 78.6459C335.017 78.3394 335.439 78.1096 335.745 77.9181C335.898 77.8414 335.975 77.7648 336.09 77.7265C336.166 77.6882 336.205 77.6499 336.205 77.6499C336.205 77.6499 336.166 77.6882 336.09 77.7265C336.013 77.7648 335.898 77.8414 335.783 77.9564C335.477 78.1479 335.094 78.4161 334.596 78.7225C334.328 78.8758 334.059 79.0673 333.753 79.2205C333.447 79.4121 333.14 79.6036 332.834 79.8335C332.527 80.1016 332.259 80.4081 332.182 80.8295C332.106 81.2125 332.182 81.7106 332.565 81.9404C332.757 82.0553 332.949 82.0936 333.178 82.0936C333.408 82.0936 333.6 82.017 333.791 81.9404C334.174 81.7872 334.557 81.5573 334.902 81.3658C335.592 80.9827 336.243 80.6762 336.779 80.3698C337.316 80.1016 337.737 79.8718 338.043 79.7185C338.197 79.6419 338.312 79.6036 338.388 79.5653C338.35 79.5653 338.427 79.5653 338.427 79.5653Z" fill="#FF9B6F"/>
<path d="M334.251 84.7363C334.251 84.7746 333.638 84.4681 332.871 84.3915C332.067 84.3149 331.454 84.5065 331.454 84.4298C331.454 84.3915 332.067 84.1617 332.91 84.2383C333.714 84.3532 334.251 84.7363 334.251 84.7363Z" fill="#FF9B6F"/>
<path d="M297.934 122.202L299.122 121.895C299.122 121.895 299.543 119.903 300.08 119.482C300.616 119.06 305.902 116.647 307.052 116.034C308.201 115.383 312.76 113.314 313.334 114.425C313.985 115.689 312.147 116.685 311.112 117.183C310.116 117.643 307.243 118.754 307.818 119.443C308.392 120.133 314.79 119.827 314.79 119.827L315.594 118.754C315.594 118.754 317.012 120.095 316.858 121.244C316.705 122.393 316.207 123.159 316.207 123.159H315.748C315.748 123.159 316.207 123.849 315.786 124.538C315.365 125.228 314.522 126.109 314.522 126.109C314.522 126.109 313.756 127.68 311.495 128.293C311.227 128.369 300.654 129.289 300.654 129.289L297.13 129.633L297.934 122.202Z" fill="#FFBA9D"/>
<path d="M292.726 30.3013C292.726 30.3013 304.563 32.5614 295.829 44.2071L292.726 30.3013Z" fill="#1F2D3D"/>
<path d="M290.618 50.2988C291.116 52.5973 293.415 54.053 295.713 53.5167C298.012 53.0187 299.467 50.7202 298.931 48.4217C298.433 46.1233 296.134 44.6676 293.836 45.2039C291.538 45.7402 290.082 48.0004 290.618 50.2988Z" fill="#FF9574"/>
<path d="M288.396 59.798L288.319 66.9233C288.281 70.8307 285.101 73.9336 281.194 73.9336C277.057 73.9336 273.8 70.371 274.145 66.2337L275.563 49.8379L288.396 59.798Z" fill="#F8B498"/>
<path d="M293.261 32.9447C294.104 33.8258 295.751 37.1969 295.904 38.3845C296.402 42.4068 297.437 52.252 295.636 56.5808C293.376 62.0971 288.549 65.3533 281.309 63.3613C281.309 63.3613 273.303 62.8633 271.579 49.4938C269.051 29.497 284.68 24.0573 293.261 32.9447Z" fill="#F8B498"/>
<path d="M292.725 49.4945C292.84 50.0308 293.338 50.3755 293.874 50.2606C294.411 50.1457 294.756 49.6477 294.641 49.1114C294.526 48.5751 294.028 48.2303 293.491 48.3452C292.955 48.4601 292.61 48.9582 292.725 49.4945Z" fill="#101010"/>
<path d="M284.105 49.0717C284.22 49.608 284.718 49.9528 285.254 49.8378C285.791 49.7229 286.135 49.2249 286.021 48.6886C285.906 48.1523 285.408 47.8075 284.871 47.9224C284.335 48.0374 283.99 48.5354 284.105 49.0717Z" fill="#101010"/>
<path d="M290.502 50.145L291.192 52.9415C291.269 53.248 291.077 53.5544 290.732 53.631L289.736 53.8226" stroke="#DB7368" stroke-width="0.534954" stroke-miterlimit="10" stroke-linecap="round" stroke-linejoin="round"/>
<path d="M290.082 57.1551C290.197 57.4232 289.661 57.9978 289.048 58.1894C287.592 58.6491 285.868 56.8486 286.021 56.5804C286.098 56.4272 286.673 56.8486 288.013 56.9635C289.316 57.1168 290.005 56.8869 290.082 57.1551Z" fill="#101010"/>
<path d="M291.882 43.5563C291.882 43.5563 293.567 43.2882 295.866 44.7056" stroke="#1F2D3D" stroke-width="1.29731" stroke-miterlimit="10" stroke-linecap="round"/>
<path d="M286.213 43.5558C286.213 43.5558 281.96 42.7131 279.7 44.7051" stroke="#1F2D3D" stroke-width="1.29731" stroke-miterlimit="10" stroke-linecap="round"/>
<path d="M272 52.5962C272 52.5962 278.091 46.5819 277.248 36.2004C277.248 36.2004 283.224 36.3153 287.553 38.0392C288.779 38.4989 290.043 38.7671 291.345 38.6521C293.912 38.384 298.662 35.5109 296.019 29.2667C291.92 19.5748 281.194 23.712 278.589 27.6194C278.589 27.6194 266.522 26.815 266.483 39.5332C266.483 44.4749 272 52.5962 272 52.5962Z" fill="#1F2D3D"/>
<path d="M266.485 50.1069C267.059 52.6736 269.588 54.2825 272.154 53.7079C274.721 53.1333 276.33 50.6049 275.755 48.0383C275.18 45.4717 272.652 43.8627 270.085 44.4374C267.519 44.9737 265.91 47.5403 266.485 50.1069Z" fill="#F8B498"/>
<path d="M269.09 47.5023C269.09 47.5023 272.652 46.7745 273.265 50.6436" stroke="#DB7368" stroke-width="0.534954" stroke-miterlimit="10" stroke-linecap="round" stroke-linejoin="round"/>
<path d="M130.528 119.598C130.452 136.836 130.375 164.724 130.337 177.519C130.337 181.312 133.363 184.376 137.156 184.376L184.083 184.606C187.799 184.606 190.825 181.58 190.864 177.787L191.132 120.44C191.17 112.051 184.504 105.232 176.268 105.194L176.306 96.6895L145.469 96.5363L145.43 104.504H145.315C137.117 104.696 130.605 111.4 130.528 119.598Z" fill="#F6F7F6"/>
<path d="M145.469 98.184V101.249L176.268 102.474V97.4178L145.315 98.184H145.469Z" fill="#E1E4E3"/>
<path d="M178.528 99.7155L143.094 99.5623C142.289 99.5623 141.6 98.8727 141.6 98.0682L141.638 86.6142C141.638 85.35 142.672 84.3157 143.975 84.3157L177.762 84.4689C179.065 84.4689 180.099 85.5032 180.061 86.7674L180.023 98.2215C180.023 99.0643 179.371 99.7155 178.528 99.7155Z" fill="#F6F7F6"/>
<path d="M146.618 99.9452C146.389 99.9452 146.235 96.5358 146.235 92.3219C146.235 88.108 146.465 84.6986 146.657 84.6986C146.887 84.6986 147.04 88.108 147.04 92.3219C147.04 96.5358 146.848 99.9452 146.618 99.9452Z" fill="#E1E4E3"/>
<path d="M150.679 99.9831C150.449 99.9831 150.296 96.5737 150.296 92.3599C150.334 88.146 150.526 84.7366 150.717 84.7366C150.947 84.7366 151.1 88.146 151.1 92.3599C151.1 96.5737 150.909 99.9831 150.679 99.9831Z" fill="#E1E4E3"/>
<path d="M154.74 99.9831C154.51 99.9831 154.356 96.5737 154.356 92.3599C154.395 88.146 154.586 84.7366 154.778 84.7366C155.008 84.7366 155.161 88.146 155.161 92.3599C155.161 96.5737 154.969 99.9831 154.74 99.9831Z" fill="#E1E4E3"/>
<path d="M158.8 99.9831C158.57 99.9831 158.417 96.5737 158.417 92.3599C158.455 88.146 158.647 84.7366 158.838 84.7366C159.068 84.7366 159.221 88.146 159.221 92.3599C159.221 96.5737 159.03 100.021 158.8 99.9831Z" fill="#E1E4E3"/>
<path d="M162.861 100.023C162.631 100.023 162.478 96.6135 162.478 92.3997C162.516 88.1858 162.707 84.7764 162.899 84.7764C163.129 84.7764 163.282 88.1858 163.282 92.3997C163.282 96.6135 163.09 100.023 162.861 100.023Z" fill="#E1E4E3"/>
<path d="M166.921 100.023C166.691 100.023 166.538 96.6135 166.538 92.3997C166.538 88.1858 166.768 84.7764 166.959 84.7764C167.189 84.7764 167.343 88.1858 167.343 92.3997C167.343 96.6135 167.151 100.023 166.921 100.023Z" fill="#E1E4E3"/>
<path d="M171.021 100.061C170.791 100.061 170.638 96.6514 170.638 92.4376C170.676 88.2237 170.868 84.8143 171.059 84.8143C171.289 84.8143 171.442 88.2237 171.442 92.4376C171.442 96.6514 171.212 100.061 171.021 100.061Z" fill="#E1E4E3"/>
<path d="M175.081 100.061C174.851 100.061 174.698 96.6514 174.698 92.4376C174.737 88.2237 174.928 84.8143 175.12 84.8143C175.349 84.8143 175.503 88.2237 175.503 92.4376C175.503 96.6514 175.273 100.061 175.081 100.061Z" fill="#E1E4E3"/>
<path d="M181.9 157.447L139.684 157.255C139.033 157.255 138.535 156.757 138.535 156.106L138.65 129.329C138.65 128.716 139.186 128.179 139.799 128.218L182.015 128.409C182.666 128.409 183.164 128.907 183.164 129.559L183.049 156.336C183.049 156.949 182.551 157.447 181.9 157.447Z" fill="#EDEEED"/>
<path d="M179.639 155.415C179.639 155.415 179.601 155.224 179.601 154.917C179.601 154.534 179.601 154.113 179.563 153.538C179.563 152.274 179.524 150.589 179.486 148.405C179.448 143.961 179.448 137.64 179.41 130.017L179.716 130.324C169.105 130.285 155.697 130.247 141.178 130.247C141.102 130.324 141.944 129.481 141.561 129.864V129.902V129.711V129.826L142.327 130.055L141.561 130.477L142.327 131.32V133.005C141.753 134.116 141.753 135.227 141.753 136.338C141.753 138.522 141.715 140.705 141.715 142.812C141.676 147.064 141.676 151.125 141.638 155.032L141.255 154.649C152.556 154.764 162.171 154.879 169.028 154.956C172.399 155.032 175.119 155.071 177.034 155.109C177.916 155.147 178.643 155.147 179.18 155.147C179.678 155.147 179.946 155.186 179.946 155.186C179.946 155.186 179.716 155.224 179.256 155.224C178.72 155.224 178.03 155.262 177.188 155.262C175.272 155.262 172.591 155.3 169.258 155.339C162.324 155.339 141.217 155.147 141.217 155.147H140.757V154.994C140.872 151.125 140.872 147.026 140.872 142.774C140.872 140.667 140.872 138.483 140.91 136.3C140.91 135.189 141.523 132.967 141.523 132.967L140.757 131.281L141.523 130.439L140.757 130.017L141.523 129.787V129.672L140.757 129.634V129.596H140.948C140.604 129.941 141.446 129.098 141.37 129.174C155.965 129.289 180.099 129.672 180.099 129.672H180.023V129.979C179.908 137.717 179.831 144.038 179.754 148.558C179.716 150.703 179.678 152.389 179.639 153.615C179.639 154.151 179.601 154.573 179.601 154.917C179.678 155.3 179.678 155.415 179.639 155.415Z" fill="#E1E4E3"/>
<path d="M174.353 104.657C174.353 104.887 167.917 105.04 159.988 105.002C152.058 104.964 145.622 104.772 145.622 104.542C145.622 104.313 152.058 104.159 159.988 104.198C167.917 104.198 174.353 104.427 174.353 104.657Z" fill="#E1E4E3"/>
<path d="M170.331 137.755C170.331 137.793 170.331 137.793 170.331 137.832V141.777C170.331 141.892 170.292 141.969 170.178 142.007L166.845 143.923V147.677C166.845 147.792 166.806 147.868 166.692 147.907L159.834 151.852C159.834 151.852 159.796 151.852 159.796 151.891C159.796 151.891 159.796 151.891 159.758 151.891C159.719 151.891 159.643 151.891 159.605 151.891C159.605 151.891 159.605 151.891 159.566 151.891C159.566 151.891 159.528 151.891 159.528 151.852L152.671 147.907C152.594 147.868 152.518 147.753 152.518 147.677V135.878C152.518 135.84 152.518 135.84 152.518 135.801C152.518 135.801 152.518 135.801 152.518 135.763V135.725C152.518 135.725 152.518 135.725 152.556 135.686C152.556 135.686 152.556 135.648 152.594 135.648C152.594 135.648 152.594 135.648 152.632 135.61C152.632 135.61 152.671 135.61 152.671 135.571H152.786L156.195 133.579C156.272 133.541 156.387 133.541 156.463 133.579L159.873 135.571C159.873 135.571 159.911 135.571 159.911 135.61C159.911 135.61 159.949 135.61 159.949 135.648C159.949 135.648 159.949 135.686 159.988 135.686C159.988 135.686 159.988 135.686 160.026 135.725V135.763C160.026 135.763 160.026 135.763 160.026 135.801C160.026 135.84 160.026 135.84 160.026 135.878V143.233L162.861 141.586V137.832C162.861 137.793 162.861 137.793 162.861 137.755C162.861 137.755 162.861 137.755 162.861 137.717V137.678C162.861 137.678 162.861 137.678 162.899 137.64C162.899 137.64 162.899 137.602 162.937 137.602C162.937 137.602 162.937 137.602 162.976 137.563C162.976 137.563 163.014 137.563 163.014 137.525H162.937L166.423 135.533C166.5 135.495 166.615 135.495 166.73 135.533L170.216 137.525C170.216 137.525 170.254 137.525 170.254 137.563C170.254 137.563 170.292 137.563 170.292 137.602C170.292 137.602 170.292 137.64 170.331 137.64C170.331 137.64 170.331 137.64 170.369 137.678C170.292 137.717 170.292 137.717 170.331 137.755ZM169.756 141.624V138.368L168.569 139.057L166.921 140.015V143.271L169.756 141.624ZM166.308 147.485V144.229L164.661 145.148L159.988 147.83V151.124L166.308 147.485ZM153.169 136.414V147.524L159.413 151.124V147.868L156.08 145.991C156.08 145.991 156.042 145.991 156.042 145.953C156.042 145.953 156.004 145.953 156.004 145.915C156.004 145.915 156.004 145.876 155.965 145.876C155.965 145.876 155.965 145.876 155.927 145.838V145.8V145.761L155.965 145.723V145.685V145.646V138.023L154.318 137.065L153.169 136.414ZM156.31 134.231L153.437 135.878L156.31 137.525L159.183 135.878L156.31 134.231ZM157.766 144.497L159.413 143.54V136.414L158.225 137.104L156.578 138.061V145.187L157.766 144.497ZM166.615 136.184L163.742 137.832L166.615 139.479L169.488 137.832L166.615 136.184ZM166.308 139.977L164.661 139.019L163.474 138.33V141.586L165.121 142.544L166.308 143.233V139.977ZM159.719 147.332L163.933 144.919L166.04 143.731L163.167 142.084L159.873 143.999L156.885 145.723L159.719 147.332Z" fill="#C6AEE2"/>
<path d="M131.994 53.0917H131.254V50.5121H128.44V53.0917H127.704V47.5109H128.44V49.9103H131.254V47.5109H131.994V53.0917ZM134.91 53.1684C134.348 53.1684 133.891 52.9844 133.538 52.6164C133.186 52.2459 133.009 51.7515 133.009 51.1331V51.0027C133.009 50.5913 133.087 50.2246 133.243 49.9027C133.402 49.5781 133.621 49.3252 133.902 49.1437C134.186 48.9598 134.493 48.8678 134.822 48.8678C135.361 48.8678 135.781 49.0454 136.08 49.4005C136.379 49.7557 136.528 50.2643 136.528 50.9261V51.2212H133.718C133.729 51.6301 133.847 51.961 134.075 52.214C134.305 52.4644 134.596 52.5896 134.949 52.5896C135.199 52.5896 135.411 52.5385 135.585 52.4363C135.759 52.3341 135.911 52.1986 136.041 52.03L136.474 52.3673C136.127 52.9014 135.606 53.1684 134.91 53.1684ZM134.822 49.4504C134.536 49.4504 134.296 49.5551 134.102 49.7647C133.908 49.9717 133.787 50.263 133.741 50.6386H135.819V50.5849C135.798 50.2246 135.701 49.9461 135.528 49.7494C135.354 49.55 135.119 49.4504 134.822 49.4504ZM139.913 53.0917C139.872 53.01 139.838 52.8643 139.813 52.6548C139.483 52.9972 139.09 53.1684 138.632 53.1684C138.223 53.1684 137.887 53.0534 137.624 52.8234C137.364 52.5909 137.233 52.297 137.233 51.9418C137.233 51.51 137.397 51.1752 137.724 50.9376C138.054 50.6974 138.516 50.5773 139.111 50.5773H139.801V50.2515C139.801 50.0036 139.727 49.8068 139.579 49.6612C139.431 49.513 139.212 49.4389 138.924 49.4389C138.671 49.4389 138.459 49.5028 138.287 49.6305C138.116 49.7583 138.031 49.9129 138.031 50.0943H137.318C137.318 49.8873 137.39 49.688 137.536 49.4964C137.684 49.3022 137.884 49.1488 138.134 49.0364C138.387 48.924 138.664 48.8678 138.966 48.8678C139.444 48.8678 139.818 48.9879 140.089 49.2281C140.36 49.4657 140.5 49.7941 140.51 50.2131V52.122C140.51 52.5027 140.559 52.8055 140.656 53.0304V53.0917H139.913ZM138.736 52.5513C138.958 52.5513 139.169 52.4938 139.368 52.3788C139.568 52.2638 139.712 52.1143 139.801 51.9303V51.0794H139.246C138.377 51.0794 137.942 51.3337 137.942 51.8422C137.942 52.0645 138.016 52.2383 138.165 52.3635C138.313 52.4887 138.503 52.5513 138.736 52.5513ZM142.393 53.0917H141.683V47.2042H142.393V53.0917ZM144.493 47.9402V48.9444H145.267V49.4925H144.493V52.0645C144.493 52.2306 144.527 52.3558 144.596 52.4401C144.665 52.5219 144.783 52.5628 144.949 52.5628C145.031 52.5628 145.143 52.5474 145.286 52.5168V53.0917C145.1 53.1428 144.918 53.1684 144.742 53.1684C144.425 53.1684 144.186 53.0726 144.025 52.8809C143.864 52.6893 143.784 52.4171 143.784 52.0645V49.4925H143.029V48.9444H143.784V47.9402H144.493ZM146.808 49.4465C147.122 49.0607 147.531 48.8678 148.035 48.8678C148.911 48.8678 149.353 49.3622 149.361 50.3511V53.0917H148.652V50.3473C148.649 50.0483 148.58 49.8273 148.445 49.6842C148.312 49.5411 148.104 49.4695 147.82 49.4695C147.59 49.4695 147.388 49.5309 147.214 49.6535C147.041 49.7762 146.905 49.9372 146.808 50.1365V53.0917H146.099V47.2042H146.808V49.4465ZM152.086 52.5896C152.339 52.5896 152.56 52.513 152.749 52.3596C152.938 52.2063 153.043 52.0147 153.064 51.7847H153.734C153.722 52.0223 153.64 52.2485 153.489 52.4631C153.338 52.6778 153.136 52.849 152.883 52.9767C152.633 53.1045 152.367 53.1684 152.086 53.1684C151.521 53.1684 151.072 52.9806 150.737 52.6049C150.405 52.2268 150.239 51.7106 150.239 51.0564V50.9376C150.239 50.5338 150.313 50.1748 150.461 49.8605C150.609 49.5462 150.821 49.3022 151.097 49.1284C151.376 48.9546 151.704 48.8678 152.082 48.8678C152.547 48.8678 152.933 49.007 153.24 49.2856C153.549 49.5641 153.714 49.9257 153.734 50.3703H153.064C153.043 50.102 152.941 49.8822 152.757 49.711C152.576 49.5373 152.351 49.4504 152.082 49.4504C151.722 49.4504 151.442 49.5807 151.243 49.8413C151.046 50.0994 150.948 50.4738 150.948 50.9644V51.0986C150.948 51.5764 151.046 51.9444 151.243 52.2025C151.44 52.4606 151.721 52.5896 152.086 52.5896ZM157.092 53.0917C157.051 53.01 157.018 52.8643 156.992 52.6548C156.663 52.9972 156.269 53.1684 155.812 53.1684C155.403 53.1684 155.067 53.0534 154.804 52.8234C154.543 52.5909 154.413 52.297 154.413 51.9418C154.413 51.51 154.576 51.1752 154.903 50.9376C155.233 50.6974 155.696 50.5773 156.291 50.5773H156.981V50.2515C156.981 50.0036 156.907 49.8068 156.759 49.6612C156.61 49.513 156.392 49.4389 156.103 49.4389C155.85 49.4389 155.638 49.5028 155.467 49.6305C155.296 49.7583 155.21 49.9129 155.21 50.0943H154.497C154.497 49.8873 154.57 49.688 154.716 49.4964C154.864 49.3022 155.063 49.1488 155.314 49.0364C155.567 48.924 155.844 48.8678 156.145 48.8678C156.623 48.8678 156.998 48.9879 157.268 49.2281C157.539 49.4657 157.68 49.7941 157.69 50.2131V52.122C157.69 52.5027 157.739 52.8055 157.836 53.0304V53.0917H157.092ZM155.915 52.5513C156.138 52.5513 156.348 52.4938 156.548 52.3788C156.747 52.2638 156.891 52.1143 156.981 51.9303V51.0794H156.425C155.556 51.0794 155.122 51.3337 155.122 51.8422C155.122 52.0645 155.196 52.2383 155.344 52.3635C155.492 52.4887 155.683 52.5513 155.915 52.5513ZM160.806 49.5807C160.699 49.5628 160.583 49.5539 160.457 49.5539C159.992 49.5539 159.677 49.7519 159.511 50.148V53.0917H158.802V48.9444H159.492L159.503 49.4235C159.736 49.053 160.065 48.8678 160.492 48.8678C160.63 48.8678 160.735 48.8856 160.806 48.9214V49.5807ZM163.106 53.1684C162.544 53.1684 162.086 52.9844 161.734 52.6164C161.381 52.2459 161.205 51.7515 161.205 51.1331V51.0027C161.205 50.5913 161.283 50.2246 161.439 49.9027C161.597 49.5781 161.817 49.3252 162.098 49.1437C162.382 48.9598 162.688 48.8678 163.018 48.8678C163.557 48.8678 163.976 49.0454 164.275 49.4005C164.574 49.7557 164.724 50.2643 164.724 50.9261V51.2212H161.914C161.924 51.6301 162.043 51.961 162.27 52.214C162.5 52.4644 162.792 52.5896 163.144 52.5896C163.395 52.5896 163.607 52.5385 163.781 52.4363C163.954 52.3341 164.106 52.1986 164.237 52.03L164.67 52.3673C164.322 52.9014 163.801 53.1684 163.106 53.1684ZM163.018 49.4504C162.732 49.4504 162.492 49.5551 162.297 49.7647C162.103 49.9717 161.983 50.263 161.937 50.6386H164.015V50.5849C163.994 50.2246 163.897 49.9461 163.723 49.7494C163.549 49.55 163.314 49.4504 163.018 49.4504ZM170.688 51.6352H168.35L167.825 53.0917H167.066L169.197 47.5109H169.841L171.976 53.0917H171.221L170.688 51.6352ZM168.572 51.0296H170.469L169.519 48.4193L168.572 51.0296ZM176.119 51.0641C176.119 51.6952 175.975 52.2038 175.686 52.5896C175.397 52.9755 175.006 53.1684 174.513 53.1684C174.01 53.1684 173.614 53.0087 173.325 52.6893V54.6863H172.616V48.9444H173.264L173.298 49.4044C173.587 49.0466 173.988 48.8678 174.502 48.8678C175 48.8678 175.393 49.0556 175.682 49.4312C175.973 49.8068 176.119 50.3294 176.119 50.9989V51.0641ZM175.41 50.9836C175.41 50.516 175.31 50.1467 175.111 49.8758C174.912 49.605 174.638 49.4695 174.291 49.4695C173.861 49.4695 173.54 49.6599 173.325 50.0407V52.0223C173.537 52.4005 173.861 52.5896 174.298 52.5896C174.638 52.5896 174.908 52.4555 175.107 52.1871C175.309 51.9163 175.41 51.5151 175.41 50.9836ZM180.527 51.0641C180.527 51.6952 180.383 52.2038 180.094 52.5896C179.805 52.9755 179.414 53.1684 178.921 53.1684C178.418 53.1684 178.022 53.0087 177.733 52.6893V54.6863H177.024V48.9444H177.672L177.706 49.4044C177.995 49.0466 178.396 48.8678 178.91 48.8678C179.408 48.8678 179.801 49.0556 180.09 49.4312C180.381 49.8068 180.527 50.3294 180.527 50.9989V51.0641ZM179.818 50.9836C179.818 50.516 179.718 50.1467 179.519 49.8758C179.32 49.605 179.046 49.4695 178.699 49.4695C178.269 49.4695 177.947 49.6599 177.733 50.0407V52.0223C177.945 52.4005 178.269 52.5896 178.706 52.5896C179.046 52.5896 179.316 52.4555 179.515 52.1871C179.717 51.9163 179.818 51.5151 179.818 50.9836ZM182.202 53.0917H181.493V47.2042H182.202V53.0917ZM184.111 53.0917H183.402V48.9444H184.111V53.0917ZM183.344 47.8443C183.344 47.7294 183.379 47.6323 183.448 47.553C183.519 47.4738 183.624 47.4342 183.762 47.4342C183.9 47.4342 184.005 47.4738 184.076 47.553C184.148 47.6323 184.184 47.7294 184.184 47.8443C184.184 47.9593 184.148 48.0552 184.076 48.1318C184.005 48.2085 183.9 48.2468 183.762 48.2468C183.624 48.2468 183.519 48.2085 183.448 48.1318C183.379 48.0552 183.344 47.9593 183.344 47.8443ZM186.913 52.5896C187.166 52.5896 187.387 52.513 187.576 52.3596C187.765 52.2063 187.87 52.0147 187.89 51.7847H188.561C188.548 52.0223 188.467 52.2485 188.316 52.4631C188.165 52.6778 187.963 52.849 187.71 52.9767C187.46 53.1045 187.194 53.1684 186.913 53.1684C186.348 53.1684 185.898 52.9806 185.564 52.6049C185.231 52.2268 185.065 51.7106 185.065 51.0564V50.9376C185.065 50.5338 185.139 50.1748 185.288 49.8605C185.436 49.5462 185.648 49.3022 185.924 49.1284C186.203 48.9546 186.531 48.8678 186.909 48.8678C187.374 48.8678 187.76 49.007 188.067 49.2856C188.376 49.5641 188.541 49.9257 188.561 50.3703H187.89C187.87 50.102 187.768 49.8822 187.584 49.711C187.402 49.5373 187.177 49.4504 186.909 49.4504C186.549 49.4504 186.269 49.5807 186.07 49.8413C185.873 50.0994 185.774 50.4738 185.774 50.9644V51.0986C185.774 51.5764 185.873 51.9444 186.07 52.2025C186.266 52.4606 186.547 52.5896 186.913 52.5896ZM191.919 53.0917C191.878 53.01 191.845 52.8643 191.819 52.6548C191.49 52.9972 191.096 53.1684 190.639 53.1684C190.23 53.1684 189.894 53.0534 189.63 52.8234C189.37 52.5909 189.24 52.297 189.24 51.9418C189.24 51.51 189.403 51.1752 189.73 50.9376C190.06 50.6974 190.522 50.5773 191.118 50.5773H191.808V50.2515C191.808 50.0036 191.734 49.8068 191.585 49.6612C191.437 49.513 191.219 49.4389 190.93 49.4389C190.677 49.4389 190.465 49.5028 190.294 49.6305C190.122 49.7583 190.037 49.9129 190.037 50.0943H189.324C189.324 49.8873 189.397 49.688 189.542 49.4964C189.691 49.3022 189.89 49.1488 190.14 49.0364C190.393 48.924 190.671 48.8678 190.972 48.8678C191.45 48.8678 191.824 48.9879 192.095 49.2281C192.366 49.4657 192.507 49.7941 192.517 50.2131V52.122C192.517 52.5027 192.565 52.8055 192.662 53.0304V53.0917H191.919ZM190.742 52.5513C190.964 52.5513 191.175 52.4938 191.375 52.3788C191.574 52.2638 191.718 52.1143 191.808 51.9303V51.0794H191.252C190.383 51.0794 189.949 51.3337 189.949 51.8422C189.949 52.0645 190.023 52.2383 190.171 52.3635C190.319 52.4887 190.51 52.5513 190.742 52.5513ZM194.59 47.9402V48.9444H195.365V49.4925H194.59V52.0645C194.59 52.2306 194.625 52.3558 194.694 52.4401C194.763 52.5219 194.88 52.5628 195.047 52.5628C195.128 52.5628 195.241 52.5474 195.384 52.5168V53.0917C195.197 53.1428 195.016 53.1684 194.84 53.1684C194.523 53.1684 194.284 53.0726 194.123 52.8809C193.962 52.6893 193.881 52.4171 193.881 52.0645V49.4925H193.126V48.9444H193.881V47.9402H194.59ZM196.967 53.0917H196.258V48.9444H196.967V53.0917ZM196.2 47.8443C196.2 47.7294 196.235 47.6323 196.304 47.553C196.375 47.4738 196.48 47.4342 196.618 47.4342C196.756 47.4342 196.861 47.4738 196.932 47.553C197.004 47.6323 197.04 47.7294 197.04 47.8443C197.04 47.9593 197.004 48.0552 196.932 48.1318C196.861 48.2085 196.756 48.2468 196.618 48.2468C196.48 48.2468 196.375 48.2085 196.304 48.1318C196.235 48.0552 196.2 47.9593 196.2 47.8443ZM197.917 50.9797C197.917 50.5734 197.997 50.208 198.155 49.8835C198.316 49.559 198.538 49.3086 198.822 49.1322C199.108 48.9559 199.434 48.8678 199.799 48.8678C200.364 48.8678 200.82 49.0632 201.168 49.4542C201.518 49.8452 201.693 50.3652 201.693 51.0142V51.0641C201.693 51.4678 201.615 51.8307 201.459 52.1526C201.306 52.4721 201.085 52.7212 200.796 52.9001C200.51 53.079 200.18 53.1684 199.807 53.1684C199.245 53.1684 198.789 52.9729 198.439 52.5819C198.091 52.191 197.917 51.6735 197.917 51.0296V50.9797ZM198.63 51.0641C198.63 51.524 198.736 51.8933 198.949 52.1718C199.163 52.4503 199.449 52.5896 199.807 52.5896C200.167 52.5896 200.454 52.4491 200.666 52.168C200.878 51.8843 200.984 51.4883 200.984 50.9797C200.984 50.5249 200.875 50.1569 200.658 49.8758C200.443 49.5922 200.157 49.4504 199.799 49.4504C199.449 49.4504 199.167 49.5896 198.952 49.8682C198.738 50.1467 198.63 50.5453 198.63 51.0641ZM203.253 48.9444L203.276 49.4657C203.593 49.0671 204.007 48.8678 204.518 48.8678C205.394 48.8678 205.836 49.3622 205.844 50.3511V53.0917H205.135V50.3473C205.132 50.0483 205.063 49.8273 204.928 49.6842C204.795 49.5411 204.587 49.4695 204.303 49.4695C204.073 49.4695 203.871 49.5309 203.698 49.6535C203.524 49.7762 203.388 49.9372 203.291 50.1365V53.0917H202.582V48.9444H203.253Z" fill="white"/>
<path d="M148.313 222.682V226.477C148.31 227.003 148.144 227.433 147.815 227.768C147.488 228.103 147.043 228.291 146.481 228.332L146.285 228.339C145.675 228.339 145.188 228.175 144.825 227.845C144.462 227.515 144.278 227.062 144.273 226.484V222.682H145.001V226.461C145.001 226.865 145.112 227.179 145.335 227.404C145.557 227.626 145.874 227.738 146.285 227.738C146.702 227.738 147.02 227.626 147.24 227.404C147.462 227.182 147.573 226.869 147.573 226.465V222.682H148.313ZM151.778 227.163C151.778 226.971 151.705 226.823 151.559 226.718C151.416 226.611 151.165 226.519 150.804 226.442C150.447 226.365 150.162 226.273 149.95 226.166C149.74 226.059 149.584 225.931 149.482 225.783C149.382 225.635 149.333 225.458 149.333 225.254C149.333 224.914 149.476 224.626 149.762 224.391C150.051 224.156 150.419 224.039 150.866 224.039C151.336 224.039 151.717 224.16 152.008 224.403C152.302 224.646 152.449 224.956 152.449 225.334H151.736C151.736 225.14 151.653 224.973 151.487 224.832C151.323 224.692 151.116 224.621 150.866 224.621C150.608 224.621 150.406 224.678 150.26 224.79C150.114 224.902 150.042 225.049 150.042 225.231C150.042 225.402 150.109 225.531 150.245 225.618C150.38 225.705 150.624 225.788 150.977 225.867C151.332 225.946 151.62 226.041 151.839 226.151C152.059 226.261 152.221 226.393 152.326 226.549C152.433 226.703 152.487 226.89 152.487 227.113C152.487 227.483 152.339 227.781 152.042 228.006C151.746 228.228 151.361 228.339 150.889 228.339C150.557 228.339 150.263 228.281 150.007 228.163C149.752 228.045 149.551 227.882 149.405 227.672C149.262 227.46 149.191 227.232 149.191 226.986H149.9C149.913 227.224 150.007 227.413 150.183 227.554C150.362 227.692 150.597 227.761 150.889 227.761C151.157 227.761 151.372 227.707 151.533 227.6C151.696 227.49 151.778 227.344 151.778 227.163ZM155.132 228.339C154.57 228.339 154.112 228.155 153.76 227.787C153.407 227.417 153.231 226.922 153.231 226.304V226.174C153.231 225.762 153.309 225.396 153.465 225.074C153.623 224.749 153.843 224.496 154.124 224.315C154.407 224.131 154.714 224.039 155.044 224.039C155.583 224.039 156.002 224.216 156.301 224.572C156.6 224.927 156.749 225.435 156.749 226.097V226.392H153.94C153.95 226.801 154.069 227.132 154.296 227.385C154.526 227.635 154.818 227.761 155.17 227.761C155.421 227.761 155.633 227.709 155.806 227.607C155.98 227.505 156.132 227.37 156.263 227.201L156.696 227.538C156.348 228.072 155.827 228.339 155.132 228.339ZM155.044 224.621C154.758 224.621 154.517 224.726 154.323 224.936C154.129 225.143 154.009 225.434 153.963 225.81H156.04V225.756C156.02 225.396 155.923 225.117 155.749 224.92C155.575 224.721 155.34 224.621 155.044 224.621ZM160.372 227.661H163.016V228.263H159.632V222.682H160.372V227.661ZM166.305 228.263C166.264 228.181 166.231 228.035 166.205 227.826C165.876 228.168 165.482 228.339 165.025 228.339C164.616 228.339 164.28 228.224 164.017 227.994C163.756 227.762 163.626 227.468 163.626 227.113C163.626 226.681 163.789 226.346 164.116 226.109C164.446 225.868 164.909 225.748 165.504 225.748H166.194V225.422C166.194 225.175 166.12 224.978 165.972 224.832C165.823 224.684 165.605 224.61 165.316 224.61C165.063 224.61 164.851 224.674 164.68 224.801C164.509 224.929 164.423 225.084 164.423 225.265H163.71C163.71 225.058 163.783 224.859 163.929 224.667C164.077 224.473 164.276 224.32 164.527 224.207C164.78 224.095 165.057 224.039 165.358 224.039C165.836 224.039 166.211 224.159 166.481 224.399C166.752 224.637 166.893 224.965 166.903 225.384V227.293C166.903 227.674 166.952 227.976 167.049 228.201V228.263H166.305ZM165.128 227.722C165.351 227.722 165.561 227.665 165.761 227.55C165.96 227.435 166.104 227.285 166.194 227.101V226.25H165.638C164.769 226.25 164.335 226.505 164.335 227.013C164.335 227.235 164.409 227.409 164.557 227.534C164.705 227.66 164.896 227.722 165.128 227.722ZM170.019 224.752C169.912 224.734 169.796 224.725 169.67 224.725C169.205 224.725 168.89 224.923 168.724 225.319V228.263H168.015V224.115H168.705L168.716 224.595C168.949 224.224 169.278 224.039 169.705 224.039C169.843 224.039 169.948 224.057 170.019 224.092V224.752ZM173.082 228.263C173.041 228.181 173.008 228.035 172.982 227.826C172.653 228.168 172.259 228.339 171.802 228.339C171.393 228.339 171.057 228.224 170.794 227.994C170.533 227.762 170.403 227.468 170.403 227.113C170.403 226.681 170.566 226.346 170.893 226.109C171.223 225.868 171.685 225.748 172.281 225.748H172.971V225.422C172.971 225.175 172.897 224.978 172.748 224.832C172.6 224.684 172.382 224.61 172.093 224.61C171.84 224.61 171.628 224.674 171.457 224.801C171.285 224.929 171.2 225.084 171.2 225.265H170.487C170.487 225.058 170.56 224.859 170.705 224.667C170.854 224.473 171.053 224.32 171.303 224.207C171.556 224.095 171.834 224.039 172.135 224.039C172.613 224.039 172.987 224.159 173.258 224.399C173.529 224.637 173.67 224.965 173.68 225.384V227.293C173.68 227.674 173.728 227.976 173.825 228.201V228.263H173.082ZM171.905 227.722C172.127 227.722 172.338 227.665 172.538 227.55C172.737 227.435 172.881 227.285 172.971 227.101V226.25H172.415C171.546 226.25 171.112 226.505 171.112 227.013C171.112 227.235 171.186 227.409 171.334 227.534C171.482 227.66 171.673 227.722 171.905 227.722ZM176.098 227.301L177.126 224.115H177.85L176.363 228.263H175.822L174.32 224.115H175.044L176.098 227.301ZM180.2 228.339C179.638 228.339 179.18 228.155 178.828 227.787C178.475 227.417 178.299 226.922 178.299 226.304V226.174C178.299 225.762 178.376 225.396 178.532 225.074C178.691 224.749 178.911 224.496 179.192 224.315C179.475 224.131 179.782 224.039 180.112 224.039C180.651 224.039 181.07 224.216 181.369 224.572C181.668 224.927 181.817 225.435 181.817 226.097V226.392H179.008C179.018 226.801 179.137 227.132 179.364 227.385C179.594 227.635 179.885 227.761 180.238 227.761C180.488 227.761 180.701 227.709 180.874 227.607C181.048 227.505 181.2 227.37 181.33 227.201L181.764 227.538C181.416 228.072 180.895 228.339 180.2 228.339ZM180.112 224.621C179.825 224.621 179.585 224.726 179.391 224.936C179.197 225.143 179.077 225.434 179.031 225.81H181.108V225.756C181.088 225.396 180.991 225.117 180.817 224.92C180.643 224.721 180.408 224.621 180.112 224.621ZM183.412 228.263H182.703V222.375H183.412V228.263Z" fill="white"/>
<path d="M288.357 68.6484L296.402 83.2438L294.219 96.4217" stroke="#FCFCFC" stroke-width="0.394654" stroke-miterlimit="10" stroke-linecap="round"/>
<path d="M268.323 70.5253L280.773 86.3848L292.381 93.4335" stroke="#FCFCFC" stroke-width="0.394654" stroke-miterlimit="10" stroke-linecap="round"/>
<path d="M259.014 81.5184C259.014 81.5184 267.749 80.6756 270.047 95.7306C272.346 110.786 273.112 114.808 273.112 114.808L276.598 117.681L298.088 120.937L296.441 136.988C296.441 136.988 274.223 133.387 266.025 129.557C259.551 125.726 258.057 123.504 258.057 123.504" stroke="#FCFCFC" stroke-width="0.394654" stroke-miterlimit="10" stroke-linecap="round"/>
<path d="M289.086 147.677C289.086 147.677 278.628 155.836 273.763 155.913C273.954 159.514 273.954 159.514 273.954 159.514C273.954 159.514 283.608 158.518 289.814 151.316" stroke="#FCFCFC" stroke-width="0.394654" stroke-miterlimit="10" stroke-linecap="round"/>
<path d="M298.854 129.596L303.796 186.483" stroke="#FCFCFC" stroke-width="0.394654" stroke-miterlimit="10" stroke-linecap="round"/>
</svg>
