<svg width="48" height="48" viewBox="0 0 48 48" fill="none" xmlns="http://www.w3.org/2000/svg">
<path d="M8 26C8 23.7909 9.79086 22 12 22H36C38.2091 22 40 23.7909 40 26V38C40 40.2091 38.2091 42 36 42H12C9.79086 42 8 40.2091 8 38V26Z" fill="#D8E3F5"/>
<path d="M12 24H36V20H12V24ZM38 26V38H42V26H38ZM36 40H12V44H36V40ZM10 38V26H6V38H10ZM12 40C10.8954 40 10 39.1046 10 38H6C6 41.3137 8.68629 44 12 44V40ZM38 38C38 39.1046 37.1046 40 36 40V44C39.3137 44 42 41.3137 42 38H38ZM36 24C37.1046 24 38 24.8954 38 26H42C42 22.6863 39.3137 20 36 20V24ZM12 20C8.68629 20 6 22.6863 6 26H10C10 24.8954 10.8954 24 12 24V20Z" fill="#D8E3F5"/>
<path d="M32 22V24H34V22H32ZM16 22H14V24H16V22ZM30 14V22H34V14H30ZM32 20H16V24H32V20ZM18 22V14H14V22H18ZM24 8C27.3137 8 30 10.6863 30 14H34C34 8.47715 29.5228 4 24 4V8ZM24 4C18.4772 4 14 8.47715 14 14H18C18 10.6863 20.6863 8 24 8V4Z" fill="#D8E3F5"/>
<path d="M26 30C26 28.8954 25.1046 28 24 28C22.8954 28 22 28.8954 22 30H26ZM22 34C22 35.1046 22.8954 36 24 36C25.1046 36 26 35.1046 26 34H22ZM22 30V34H26V30H22Z" fill="#6EBFE9"/>
</svg>
