<svg width="116" height="38" viewBox="0 0 116 38" fill="none" xmlns="http://www.w3.org/2000/svg">
<g clip-path="url(#clip0)">
<path d="M93.3945 33.778V15.2697H88.8959V33.778H4.64243V4.54201H7.91516V0.586914H0.633179V37.7328H93.4012V33.778H93.3945Z" fill="#773DBD"/>
<path d="M88.991 10.374H93.4893V14.143H88.991V10.374Z" fill="#773DBD"/>
<path d="M27.3624 10.374H31.861V14.143H27.3624V10.374Z" fill="#773DBD"/>
<path d="M93.3945 33.778V15.2697H88.8959V33.778H4.64243V4.54201H7.91516V0.586914H0.633179V37.7328H93.4012V33.778H93.3945Z" fill="#773DBD"/>
<path d="M9.90885 0.586914V0.588858H9.86914V27.3172H11.9054V27.3175H25.4504V22.6586H14.9793V4.54201H111.581V33.778H95.3533V37.732H115.59V0.586914H9.90885Z" fill="#773DBD"/>
<path d="M31.7434 15.2715V27.4662H27.302V15.2715H31.7434Z" fill="#773DBD"/>
<path d="M43.6379 17.9039H52.4521C52.4521 18.8099 52.4141 19.6336 52.338 20.3737C52.2619 21.1139 52.1119 21.8015 51.885 22.4361C51.5681 23.3274 51.1373 24.1161 50.5936 24.8038C50.0498 25.4911 49.4118 26.0646 48.6792 26.5259C47.9463 26.9864 47.1417 27.338 46.2663 27.5788C45.3898 27.8207 44.468 27.9421 43.5018 27.9421C42.1723 27.9421 40.9601 27.7224 39.865 27.2841C38.7699 26.847 37.829 26.2313 37.0444 25.4384C36.2587 24.6455 35.6474 23.6929 35.2092 22.5831C34.7709 21.4733 34.5524 20.2463 34.5524 18.901C34.5524 17.5726 34.7668 16.3517 35.1975 15.2419C35.6283 14.1321 36.2398 13.184 37.0327 12.3983C37.8256 11.6137 38.7813 11.0013 39.8986 10.5631C41.017 10.1248 42.2629 9.90625 43.6379 9.90625C45.4192 9.90625 46.9831 10.2917 48.3276 11.0616C49.6718 11.8326 50.7374 13.0257 51.5228 14.6412L47.3083 16.3867C46.9156 15.4499 46.4054 14.7773 45.7783 14.3699C45.1521 13.9622 44.4383 13.7586 43.6379 13.7586C42.9728 13.7586 42.3687 13.8833 41.8249 14.1324C41.2811 14.3815 40.8165 14.7365 40.4321 15.1969C40.0466 15.6585 39.7447 16.2129 39.5251 16.8622C39.3065 17.5115 39.1968 18.2369 39.1968 19.0376C39.1968 19.763 39.2907 20.4346 39.4798 21.0545C39.6689 21.6732 39.9519 22.2098 40.3299 22.6628C40.7068 23.1157 41.1759 23.4673 41.7344 23.7167C42.2929 23.9659 42.9436 24.0906 43.6837 24.0906C44.1209 24.0906 44.5444 24.042 44.9518 23.9428C45.3595 23.8456 45.7259 23.6862 46.0511 23.4676C46.3752 23.249 46.6435 22.9649 46.8556 22.6175C47.0667 22.2701 47.2106 21.8476 47.2856 21.3494H43.6382V17.9039H43.6379Z" fill="#773DBD"/>
<path d="M59.7024 16.9752H66.1142V10.3828H70.5545V27.4663H66.1142V20.4198H59.7024V27.4663H55.261V10.3828H59.7024V16.9752Z" fill="#773DBD"/>
<path d="M80.6156 14.1432V27.4663H76.1742V14.1432H72.5269V10.3828H84.263V14.1432H80.6156Z" fill="#773DBD"/>
<path d="M104.46 14.1432V27.4663H100.018V14.1432H96.3711V10.3828H108.107V14.1432H104.46Z" fill="#773DBD"/>
</g>
<defs>
<clipPath id="clip0">
<rect width="114.957" height="37.1459" fill="white" transform="translate(0.633179 0.586914)"/>
</clipPath>
</defs>
</svg>
