<svg width="190" height="76" viewBox="0 0 190 76" fill="none" xmlns="http://www.w3.org/2000/svg">
<g clip-path="url(#clip0)">
<path d="M147.683 59.7199V32.2199H140.999V59.7199H15.8128V16.2804H20.6755V10.4038H9.85571V65.5961H147.693V59.7199H147.683Z" fill="#773DBD"/>
<path d="M141.14 24.9453H147.824V30.5454H141.14V24.9453Z" fill="#773DBD"/>
<path d="M49.5707 24.9453H56.2548V30.5454H49.5707V24.9453Z" fill="#773DBD"/>
<path d="M147.683 59.7199V32.2199H140.999V59.7199H15.8128V16.2804H20.6755V10.4038H9.85571V65.5961H147.693V59.7199H147.683Z" fill="#773DBD"/>
<path d="M23.6377 10.4041V10.4069H23.5787V50.1206H26.6043V50.121H46.7298V43.1988H31.1715V16.2806H174.704V59.7201H150.593V65.5951H180.661V10.4041H23.6377Z" fill="#773DBD"/>
<path d="M56.08 32.2212V50.3403H49.4808V32.2212H56.08Z" fill="#773DBD"/>
<path d="M73.7531 36.1331H86.8494C86.8494 37.4792 86.7929 38.7031 86.6798 39.8029C86.5667 40.9026 86.3439 41.9243 86.0068 42.8672C85.5359 44.1914 84.8959 45.3634 84.0879 46.3851C83.28 47.4064 82.3321 48.2585 81.2435 48.9439C80.1545 49.6281 78.9591 50.1505 77.6584 50.5083C76.3561 50.8677 74.9865 51.0481 73.5509 51.0481C71.5755 51.0481 69.7743 50.7216 68.1472 50.0705C66.5201 49.421 65.122 48.5061 63.9563 47.328C62.7889 46.1499 61.8806 44.7345 61.2295 43.0855C60.5783 41.4366 60.2535 39.6135 60.2535 37.6146C60.2535 35.6409 60.5721 33.8268 61.2121 32.1779C61.8522 30.5289 62.7608 29.1201 63.9389 27.9527C65.1171 26.787 66.537 25.8771 68.1971 25.2259C69.8589 24.5748 71.71 24.25 73.7531 24.25C76.3998 24.25 78.7235 24.8228 80.7211 25.9666C82.7183 27.1122 84.3017 28.8849 85.4687 31.2853L79.2067 33.8788C78.6232 32.487 77.8651 31.4875 76.9334 30.8821C76.0028 30.2764 74.9423 29.9739 73.7531 29.9739C72.7648 29.9739 71.8672 30.1592 71.0593 30.5293C70.2513 30.8995 69.5609 31.4269 68.9898 32.111C68.417 32.7969 67.9685 33.6205 67.6421 34.5853C67.3173 35.5501 67.1543 36.6279 67.1543 37.8176C67.1543 38.8954 67.2938 39.8932 67.5748 40.8143C67.8558 41.7337 68.2763 42.5309 68.838 43.2039C69.3979 43.877 70.0949 44.3994 70.9247 44.77C71.7546 45.1401 72.7214 45.3254 73.8211 45.3254C74.4707 45.3254 75.1 45.2532 75.7053 45.1059C76.3111 44.9614 76.8554 44.7246 77.3386 44.3998C77.8202 44.0751 78.2188 43.6529 78.534 43.1367C78.8477 42.6205 79.0614 41.9928 79.1728 41.2525H73.7535V36.1331H73.7531Z" fill="#773DBD"/>
<path d="M97.6222 34.7536H107.149V24.9585H113.747V50.3416H107.149V39.8718H97.6222V50.3416H91.0231V24.9585H97.6222V34.7536Z" fill="#773DBD"/>
<path d="M128.696 30.5458V50.3416H122.096V30.5458H116.677V24.9585H134.115V30.5458H128.696Z" fill="#773DBD"/>
<path d="M164.124 30.5458V50.3416H157.525V30.5458H152.105V24.9585H169.543V30.5458H164.124Z" fill="#773DBD"/>
</g>
<defs>
<clipPath id="clip0">
<rect width="170.805" height="55.1922" fill="white" transform="translate(9.85571 10.4038)"/>
</clipPath>
</defs>
</svg>
