<svg width="97" height="38" viewBox="0 0 97 38" fill="none" xmlns="http://www.w3.org/2000/svg">
<g clip-path="url(#clip0)">
<path d="M74.9221 30.0189V16.0677H71.5311V30.0189H8.02212V7.98129H10.489V5H5V33H74.9271V30.0189H74.9221Z" fill="white"/>
<path d="M71.6028 12.3773H74.9936V15.2184H71.6028V12.3773Z" fill="white"/>
<path d="M25.1481 12.3773H28.5391V15.2184H25.1481V12.3773Z" fill="white"/>
<path d="M74.9221 30.0189V16.0677H71.5311V30.0189H8.02212V7.98129H10.489V5H5V33H74.9271V30.0189H74.9221Z" fill="white"/>
<path d="M11.9919 5.00024V5.00171H11.9619V25.1491H13.4968V25.1494H23.7068V21.6376H15.8139V7.98154H88.6304V30.0192H76.3986V32.9996H91.6525V5.00024H11.9919Z" fill="white"/>
<path d="M28.4504 16.068V25.2602H25.1025V16.068H28.4504Z" fill="white"/>
<path d="M37.4163 18.0525H44.0603C44.0603 18.7353 44.0316 19.3563 43.9743 19.9142C43.9169 20.4721 43.8039 20.9904 43.6328 21.4688C43.394 22.1406 43.0693 22.7351 42.6594 23.2534C42.2495 23.7716 41.7686 24.2039 41.2163 24.5516C40.6639 24.8987 40.0574 25.1637 39.3975 25.3452C38.7368 25.5276 38.042 25.6191 37.3137 25.6191C36.3116 25.6191 35.3978 25.4535 34.5723 25.1231C33.7469 24.7936 33.0376 24.3295 32.4462 23.7318C31.854 23.1341 31.3932 22.4161 31.0629 21.5795C30.7325 20.743 30.5677 19.8181 30.5677 18.804C30.5677 17.8027 30.7294 16.8824 31.0541 16.0459C31.3788 15.2093 31.8397 14.4946 32.4374 13.9024C33.0351 13.311 33.7555 12.8494 34.5977 12.519C35.4407 12.1887 36.3798 12.0239 37.4163 12.0239C38.759 12.0239 39.9379 12.3145 40.9513 12.8948C41.9645 13.4759 42.7678 14.3753 43.3598 15.5931L40.183 16.9088C39.887 16.2027 39.5024 15.6956 39.0297 15.3885C38.5576 15.0812 38.0196 14.9278 37.4163 14.9278C36.9149 14.9278 36.4596 15.0218 36.0497 15.2095C35.6398 15.3973 35.2895 15.6649 34.9998 16.012C34.7092 16.3599 34.4817 16.7778 34.3161 17.2672C34.1513 17.7567 34.0686 18.3035 34.0686 18.907C34.0686 19.4538 34.1394 19.96 34.282 20.4273C34.4245 20.8937 34.6379 21.2982 34.9228 21.6396C35.2069 21.981 35.5604 22.2461 35.9814 22.4341C36.4024 22.6218 36.8929 22.7158 37.4508 22.7158C37.7803 22.7158 38.0996 22.6792 38.4067 22.6045C38.714 22.5312 38.9902 22.411 39.2353 22.2463C39.4796 22.0815 39.6818 21.8674 39.8418 21.6055C40.0009 21.3436 40.1093 21.0252 40.1658 20.6496H37.4165V18.0525H37.4163Z" fill="white"/>
<path d="M49.5255 17.3521H54.3587V12.3828H57.7057V25.2601H54.3587V19.9486H49.5255V25.2601H46.1777V12.3828H49.5255V17.3521Z" fill="white"/>
<path d="M65.2895 15.2174V25.2601H61.9417V15.2174H59.1923V12.3828H68.0389V15.2174H65.2895Z" fill="white"/>
<path d="M83.263 15.2174V25.2601H79.9151V15.2174H77.1658V12.3828H86.0123V15.2174H83.263Z" fill="white"/>
</g>
<defs>
<clipPath id="clip0">
<rect width="86.6526" height="28" fill="white" transform="translate(5 5)"/>
</clipPath>
</defs>
</svg>
