<svg width="116" height="38" viewBox="0 0 116 38" fill="none" xmlns="http://www.w3.org/2000/svg">
<path d="M93.2614 33.1911V14.6828H88.7628V33.1911H4.50925V3.9551H7.78198V0H0.5V37.1459H93.268V33.1911H93.2614Z" fill="#773DBD"/>
<path d="M88.8579 9.78687H93.3562V13.5559H88.8579V9.78687Z" fill="#773DBD"/>
<path d="M27.229 9.78687H31.7276V13.5559H27.229V9.78687Z" fill="#773DBD"/>
<path d="M93.2614 33.1911V14.6828H88.7628V33.1911H4.50925V3.9551H7.78198V0H0.5V37.1459H93.268V33.1911H93.2614Z" fill="#773DBD"/>
<path d="M9.77555 0.000488281V0.00243236H9.73584V26.7308H11.7721V26.7311H25.3171V22.0722H14.846V3.95559H111.447V33.1915H95.22V37.1455H115.456V0.000488281H9.77555Z" fill="#773DBD"/>
<path d="M31.6103 14.6838V26.8785H27.1689V14.6838H31.6103Z" fill="#773DBD"/>
<path d="M43.505 17.3168H52.3192C52.3192 18.2227 52.2811 19.0465 52.205 19.7866C52.1289 20.5267 51.979 21.2144 51.7521 21.849C51.4352 22.7402 51.0044 23.529 50.4606 24.2166C49.9168 24.904 49.2789 25.4775 48.5463 25.9388C47.8133 26.3993 47.0088 26.7509 46.1334 26.9916C45.2569 27.2335 44.3351 27.3549 43.3689 27.3549C42.0394 27.3549 40.8271 27.1352 39.7321 26.697C38.637 26.2598 37.6961 25.6441 36.9115 24.8512C36.1258 24.0583 35.5145 23.1057 35.0763 21.9959C34.638 20.8861 34.4194 19.6591 34.4194 18.3138C34.4194 16.9854 34.6338 15.7646 35.0646 14.6548C35.4953 13.545 36.1069 12.5968 36.8998 11.8111C37.6927 11.0266 38.6484 10.4142 39.7657 9.97591C40.8841 9.53766 42.1299 9.31909 43.505 9.31909C45.2863 9.31909 46.8502 9.70458 48.1947 10.4744C49.5389 11.2454 50.6045 12.4385 51.3899 14.054L47.1754 15.7996C46.7827 14.8628 46.2725 14.1901 45.6454 13.7827C45.0191 13.375 44.3054 13.1714 43.505 13.1714C42.8398 13.1714 42.2358 13.2961 41.692 13.5453C41.1482 13.7944 40.6836 14.1493 40.2992 14.6098C39.9137 15.0714 39.6118 15.6257 39.3921 16.275C39.1736 16.9243 39.0639 17.6498 39.0639 18.4505C39.0639 19.1759 39.1577 19.8474 39.3469 20.4673C39.536 21.0861 39.819 21.6226 40.197 22.0756C40.5739 22.5286 41.0429 22.8802 41.6014 23.1296C42.1599 23.3787 42.8107 23.5034 43.5508 23.5034C43.9879 23.5034 44.4115 23.4548 44.8189 23.3557C45.2266 23.2584 45.5929 23.099 45.9181 22.8805C46.2422 22.6619 46.5105 22.3778 46.7227 22.0303C46.9338 21.6829 47.0776 21.2605 47.1526 20.7622H43.5052V17.3168H43.505Z" fill="#773DBD"/>
<path d="M59.5693 16.388H65.9812V9.79565H70.4215V26.8792H65.9812V19.8327H59.5693V26.8792H55.1279V9.79565H59.5693V16.388Z" fill="#773DBD"/>
<path d="M80.4828 13.5561V26.8792H76.0414V13.5561H72.394V9.79565H84.1302V13.5561H80.4828Z" fill="#773DBD"/>
<path d="M104.327 13.5561V26.8792H99.8852V13.5561H96.2378V9.79565H107.974V13.5561H104.327Z" fill="#773DBD"/>
</svg>
