<svg width="250" height="222" viewBox="0 0 250 222" fill="none" xmlns="http://www.w3.org/2000/svg">
<g clip-path="url(#clip0)">
<path d="M249.71 95.9511H218.31V62.7511C218.31 43.9511 203.81 28.6511 186.01 28.6511H40.5104C22.6104 28.6511 8.21045 43.9511 8.21045 62.7511V187.651C8.21045 206.451 22.7104 221.751 40.5104 221.751H186.01C203.91 221.751 218.31 206.451 218.31 187.651V129.151L249.71 95.9511Z" fill="#93D0EF"/>
<path d="M161.311 19.8511C161.311 19.8511 162.711 4.55106 144.111 0.75106C132.211 -1.64894 131.411 4.25106 119.411 2.15106C108.411 0.25106 97.0106 6.55106 98.3106 19.9511C99.2106 31.1511 115.411 39.1511 115.411 39.1511L161.311 19.8511Z" fill="#1F2D3D"/>
<path d="M115.424 49.134C116.95 44.9875 114.826 40.3889 110.679 38.8628C106.533 37.3367 101.934 39.461 100.408 43.6076C98.8821 47.7542 101.006 52.3527 105.153 53.8788C109.3 55.4049 113.898 53.2806 115.424 49.134Z" fill="#FF9574"/>
<path d="M118.011 65.0511L116.811 78.4511C116.111 86.3511 121.811 93.3511 129.711 94.1511C138.311 95.0511 145.711 88.1511 145.511 79.4511L144.011 48.951L118.011 65.0511Z" fill="#F8B498"/>
<path d="M114.31 13.751C112.61 15.251 109.51 17.951 108.31 23.451C106.61 30.851 102.71 49.151 105.21 57.551C108.41 68.351 116.71 75.351 130.71 73.051C130.71 73.051 143.31 73.051 151.71 48.951C164.41 12.451 132.11 -1.24896 114.31 13.751Z" fill="#F8B498"/>
<path d="M112.511 40.651C112.211 41.651 111.211 42.151 110.211 41.851C109.211 41.551 108.711 40.551 109.011 39.551C109.311 38.551 110.311 38.051 111.311 38.351C112.311 38.651 112.811 39.651 112.511 40.651Z" fill="#101010"/>
<path d="M128.711 41.951C128.411 42.951 127.411 43.451 126.411 43.151C125.411 42.851 124.911 41.851 125.211 40.851C125.511 39.851 126.511 39.351 127.511 39.651C128.511 39.951 129.011 40.951 128.711 41.951Z" fill="#101010"/>
<path d="M117.111 39.8511L114.011 48.4511C113.611 49.3511 114.211 50.4511 115.211 50.6511L116.011 50.8511" stroke="#FF9574" stroke-width="1.0621" stroke-miterlimit="10" stroke-linecap="round" stroke-linejoin="round"/>
<path d="M104.611 54.951L108.911 56.151L110.311 54.051C110.911 53.251 111.811 52.751 112.811 52.951L122.811 54.351C123.711 54.451 124.511 55.151 124.911 56.051L126.911 58.451C126.911 58.451 138.411 62.451 142.411 46.151L145.911 45.651C145.911 45.651 141.711 52.651 145.611 61.551C145.611 61.551 138.711 77.751 119.211 72.651C119.111 72.651 106.911 70.051 104.611 54.951Z" fill="#1F2D3D"/>
<path d="M113.811 57.051C113.811 57.051 116.911 59.151 120.311 57.851" stroke="white" stroke-width="1.0578" stroke-miterlimit="10" stroke-linecap="round" stroke-linejoin="round"/>
<path d="M113.411 31.251C113.411 31.251 110.411 30.351 106.011 32.451" stroke="#1F2D3D" stroke-width="3.0773" stroke-miterlimit="10" stroke-linecap="round"/>
<path d="M123.611 32.4511C123.611 32.4511 131.411 31.7511 135.111 35.7511" stroke="#1F2D3D" stroke-width="3.0773" stroke-miterlimit="10" stroke-linecap="round"/>
<path d="M152.611 49.6511L142.311 46.1511L145.611 32.9511C146.011 31.5511 145.211 30.0511 143.911 29.5511C141.611 28.7511 138.611 26.7511 139.111 22.3511C139.811 15.3511 144.111 11.7511 144.111 11.7511C144.111 11.7511 165.811 10.7511 167.011 26.7511C167.811 37.8511 159.311 57.9511 143.611 64.6511L152.611 49.6511Z" fill="#1F2D3D"/>
<path d="M161.811 53.4511C160.211 58.1511 155.111 60.6511 150.411 59.0511C145.711 57.4511 143.211 52.3511 144.811 47.6511C146.411 42.9511 151.511 40.4511 156.211 42.0511C160.911 43.6511 163.411 48.7511 161.811 53.4511Z" fill="#F8B498"/>
<path d="M157.411 48.0512C157.411 48.0512 150.911 45.9512 148.911 53.1512" stroke="#FF9574" stroke-width="1.0621" stroke-miterlimit="10" stroke-linecap="round" stroke-linejoin="round"/>
<path d="M145.61 14.751C145.61 14.751 138.61 19.851 128.01 17.851C117.41 15.851 115.71 12.751 111.21 16.751C111.21 16.751 113.91 2.05104 133.41 3.65104C152.81 5.25104 149.91 17.651 149.91 17.651L145.61 14.751Z" fill="#1F2D3D"/>
<path d="M23.2106 116.851L10.0106 101.051C6.41062 97.2511 5.21062 95.4511 5.91062 94.8511C6.81062 93.9511 6.41062 94.2511 13.8106 100.151C13.8106 100.151 3.31062 91.6511 6.91062 91.6511C7.51062 91.6511 9.31062 92.7511 11.2106 94.0511C8.61062 91.7511 7.91062 90.1511 8.41062 89.4511C9.21062 88.1511 15.7106 92.8511 18.6106 95.1511C16.2106 93.2511 11.6106 89.5511 10.8106 88.4511C9.71062 86.8511 11.9106 87.0511 13.8106 87.6511C15.9106 88.3511 27.2106 94.5511 30.6106 96.0511C30.9106 96.2511 31.2106 96.3511 31.5106 96.3511C31.8106 96.3511 32.1106 96.3511 32.4106 96.2511C32.7106 96.1511 33.0106 95.9511 33.2106 95.7511C33.4106 95.5511 33.6106 95.2511 33.7106 94.9511C34.9106 89.4511 38.7106 85.8511 40.1106 85.4511C41.5106 84.9511 42.6106 86.9511 41.6106 88.3511C40.6106 89.9511 39.9106 91.7511 39.4106 93.6511C38.9106 95.1511 38.7106 96.6511 38.7106 98.1511C38.7106 99.9511 38.8106 101.451 38.9106 102.751L51.0106 120.151L31.0106 132.151L23.2106 116.851Z" fill="#F8B498"/>
<path d="M18.4107 102.551C18.3107 102.751 15.9107 101.051 13.2107 98.7511C10.5107 96.4511 8.31069 94.4511 8.51069 94.2511C8.71069 94.0511 11.0107 95.7511 13.7107 98.0511C16.5107 100.351 18.6107 102.351 18.4107 102.551Z" fill="#AA6550"/>
<path d="M21.0104 99.7511C20.9104 99.9511 18.3104 98.2511 15.2104 96.0511C12.1104 93.8511 9.81037 91.8511 9.91037 91.6511C10.0104 91.4511 12.6104 93.1511 15.7104 95.3511C18.7104 97.5511 21.1104 99.5511 21.0104 99.7511Z" fill="#AA6550"/>
<path d="M22.9103 96.8512C22.8103 97.0512 20.3103 95.5512 17.4103 93.4512C14.5103 91.3512 12.2103 89.5512 12.3103 89.2512C12.4103 89.0512 14.9103 90.5512 17.8103 92.6512C20.7103 94.7512 23.0103 96.6512 22.9103 96.8512Z" fill="#AA6550"/>
<path d="M40.2104 104.751L88.3104 169.051L77.3104 196.051C77.3104 196.051 64.1105 192.951 60.1105 187.151C56.1105 181.251 23.2104 116.851 23.2104 116.851L40.2104 104.751Z" fill="#F8B498"/>
<path d="M129.51 197.651C129.11 197.351 128.71 197.051 128.31 196.751C127.91 196.451 127.51 196.051 127.01 195.651C126.51 195.251 125.91 194.751 125.21 194.251C124.51 193.751 123.81 193.251 122.91 192.751C122.01 192.251 121.11 191.751 120.21 191.151C115.91 188.951 111.31 187.451 106.61 186.851C105.51 186.751 104.51 186.551 103.51 186.551C102.51 186.551 101.61 186.451 100.81 186.451C100.01 186.451 99.2103 186.551 98.6103 186.551C97.9103 186.551 97.4102 186.651 96.9102 186.651C96.4102 186.751 95.9103 186.751 95.5103 186.751C96.0103 186.651 96.4102 186.551 96.9102 186.451C97.5102 186.351 98.0103 186.251 98.6103 186.251C99.3103 186.151 100.01 186.151 100.81 186.151C101.61 186.151 102.51 186.051 103.51 186.151C104.51 186.251 105.51 186.251 106.61 186.351C109.01 186.651 111.31 187.151 113.61 187.851C115.91 188.551 118.11 189.551 120.31 190.651C121.31 191.151 122.21 191.651 123.01 192.251C123.81 192.851 124.61 193.351 125.31 193.851C126.01 194.351 126.61 194.851 127.11 195.251C127.61 195.651 128.11 196.051 128.41 196.451C128.81 196.851 129.11 197.251 129.51 197.651Z" fill="#FAFAFA"/>
<path d="M80.5104 152.551L87.3104 121.351C89.9104 109.651 93.0104 98.3512 98.2104 96.9512V100.551L96.0104 189.751C96.0104 189.751 82.1104 206.451 64.3104 197.151C58.8104 194.251 48.6104 173.851 48.6104 173.851C48.6104 173.851 25.0104 129.551 26.0104 127.551C27.0104 125.551 41.4104 105.951 42.8104 105.051L80.5104 152.551Z" fill="#5868AC"/>
<path d="M150.81 88.1512C164.41 90.8512 179.71 99.2512 186.71 120.651C189.31 128.451 208.01 186.151 208.01 186.151L176.11 185.451L171.01 173.551L173.51 192.851L175.71 221.751H95.1104L95.7104 180.351L96.5104 97.9512C96.5104 97.9512 97.4103 96.7512 111.31 88.6512C119.81 83.5512 150.81 88.1512 150.81 88.1512Z" fill="#5868AC"/>
<path d="M111.21 97.4512L111.51 95.6512L114.11 78.2512C114.21 77.7512 114.41 77.2512 114.81 76.9512C115.21 76.6512 115.71 76.4512 116.11 76.5512L147.81 79.3512C148.81 79.4512 149.61 79.9512 150.31 80.6512C150.91 81.4512 151.21 82.4512 151.21 83.4512L150.51 93.5512L140.61 107.151L126.31 109.451" fill="#5868AC"/>
<path d="M207.61 192.351C208.21 195.751 208.11 199.251 207.31 202.651C206.51 206.051 205.01 209.151 202.91 211.851C200.81 214.551 198.21 216.751 195.31 218.251C192.31 219.751 189.11 220.551 185.81 220.551L122.71 219.851L124.41 198.251L178.41 189.651" fill="#F8B498"/>
<path d="M128.311 199.051C128.011 199.151 124.411 197.451 121.111 195.851C117.611 194.151 113.811 193.351 110.011 193.551L95.0106 194.351C95.0106 194.351 95.9106 196.951 97.5106 197.851C99.1106 198.751 108.511 199.051 108.511 199.051L108.011 199.551C106.011 201.651 103.311 202.951 100.511 203.051H99.1106C98.0106 202.951 97.0106 202.751 96.0106 202.451L92.3106 200.851C91.2106 200.351 90.0106 200.451 89.5106 201.551C89.0106 202.751 89.4106 204.151 92.4106 205.751C94.1106 206.651 100.511 208.951 100.511 208.951C100.511 209.951 100.711 210.851 100.911 211.751C101.211 212.751 103.711 213.751 103.711 213.751C104.311 215.151 105.111 216.551 105.911 217.951C106.211 218.351 108.511 219.051 110.911 219.751C114.811 220.851 118.911 220.851 122.811 219.651L128.511 217.851V199.351" fill="#F8B498"/>
<path d="M107.71 211.151C105.01 211.051 102.41 210.351 100.11 209.051C100.11 208.951 101.81 209.651 103.91 210.151C106.01 210.751 107.71 210.951 107.71 211.151Z" fill="#AA6550"/>
<path d="M107.11 214.851C106.41 215.051 105.71 214.951 105.01 214.651C104.31 214.551 103.61 214.151 103.11 213.651C103.81 213.751 104.51 213.951 105.11 214.251C105.81 214.351 106.51 214.551 107.11 214.851Z" fill="#AA6550"/>
<path d="M109.911 197.651C109.611 198.151 109.211 198.551 108.711 198.951C107.711 199.951 106.611 200.851 105.411 201.551C104.211 202.251 102.911 202.851 101.611 203.151C101.111 203.351 100.511 203.351 99.9106 203.351C101.811 202.851 103.611 202.151 105.211 201.251C106.411 200.551 107.511 199.651 108.511 198.751C109.011 198.351 109.411 197.951 109.911 197.651Z" fill="#AA6550"/>
<path d="M129.81 196.151L128.21 221.451L187.51 221.851C191.51 221.751 195.71 219.451 199.11 217.251C203.01 214.751 206.11 211.051 208.01 206.651C209.91 202.251 210.41 197.351 209.51 192.651C208.61 188.051 207.41 183.451 205.71 179.151L175.81 184.351L176.81 188.251L129.81 196.151Z" fill="#5868AC"/>
<path d="M95.1104 130.151L95.3103 190.851" stroke="black" stroke-width="0.25" stroke-miterlimit="10" stroke-linecap="round"/>
<path d="M129.811 196.151L190.511 186.151" stroke="black" stroke-width="0.25" stroke-miterlimit="10" stroke-linecap="round"/>
<path d="M154.61 107.151C154.61 107.151 148.51 117.051 154.81 132.651C161.11 148.251 176.81 188.151 176.81 188.151" stroke="black" stroke-width="0.25" stroke-miterlimit="10"/>
<path d="M112.911 87.7511C112.911 87.7511 116.611 92.6511 126.811 91.8511C137.011 91.0511 150.111 89.2511 150.111 89.2511" stroke="black" stroke-width="0.25" stroke-miterlimit="10" stroke-linecap="round"/>
</g>
<defs>
<clipPath id="clip0">
<rect width="249" height="221" fill="white" transform="translate(0.710449 0.151123)"/>
</clipPath>
</defs>
</svg>
