<svg width="48" height="49" viewBox="0 0 48 49" fill="none" xmlns="http://www.w3.org/2000/svg">
<path d="M38 34.0254H28.5L30 40.0254L32 42.0254H16L18 40.0254L19.5 34.0254H10C7.79086 34.0254 6 32.2345 6 30.0254V26.0254H42V30.0254C42 32.2345 40.2091 34.0254 38 34.0254Z" fill="#D8E3F5"/>
<path d="M19.5 34.0254L18 40.0254L16 42.0254H32L30 40.0254L28.5 34.0254M10 34.0254H38C40.2091 34.0254 42 32.2345 42 30.0254V26.0254H6V30.0254C6 32.2345 7.79086 34.0254 10 34.0254Z" stroke="#D8E3F5" stroke-width="4" stroke-linecap="round" stroke-linejoin="round"/>
<path d="M38 6.02539H10C7.79086 6.02539 6 7.81625 6 10.0254V26.0254H42V10.0254C42 7.81625 40.2091 6.02539 38 6.02539Z" fill="#E0E9F7" stroke="#E0E9F7" stroke-width="4" stroke-linecap="round" stroke-linejoin="round"/>
</svg>
