<svg width="49" height="49" viewBox="0 0 49 49" fill="none" xmlns="http://www.w3.org/2000/svg">
<path d="M40.5 8.36816H8.5V32.3682C8.5 33.4727 9.39543 34.3682 10.5 34.3682H24.5H38.5C39.6046 34.3682 40.5 33.4727 40.5 32.3682V8.36816Z" fill="#D8E3F5"/>
<path d="M15.0858 40.9539C14.3047 41.735 14.3047 43.0013 15.0858 43.7824C15.8668 44.5634 17.1332 44.5634 17.9142 43.7824L15.0858 40.9539ZM31.0858 43.7824C31.8668 44.5634 33.1332 44.5634 33.9142 43.7824C34.6953 43.0013 34.6953 41.735 33.9142 40.9539L31.0858 43.7824ZM6.5 6.36816C5.39543 6.36816 4.5 7.26359 4.5 8.36816C4.5 9.47273 5.39543 10.3682 6.5 10.3682V6.36816ZM42.5 10.3682C43.6046 10.3682 44.5 9.47273 44.5 8.36816C44.5 7.26359 43.6046 6.36816 42.5 6.36816V10.3682ZM8.5 10.3682H40.5V6.36816H8.5V10.3682ZM38.5 8.36816V32.3682H42.5V8.36816H38.5ZM38.5 32.3682H24.5V36.3682H38.5V32.3682ZM24.5 32.3682H10.5V36.3682H24.5V32.3682ZM10.5 32.3682V8.36816H6.5V32.3682H10.5ZM10.5 32.3682H6.5C6.5 34.5773 8.29086 36.3682 10.5 36.3682V32.3682ZM38.5 32.3682V36.3682C40.7091 36.3682 42.5 34.5773 42.5 32.3682H38.5ZM17.9142 43.7824L25.9142 35.7824L23.0858 32.954L15.0858 40.9539L17.9142 43.7824ZM23.0858 35.7824L31.0858 43.7824L33.9142 40.9539L25.9142 32.954L23.0858 35.7824ZM6.5 10.3682H8.5V6.36816H6.5V10.3682ZM40.5 10.3682H42.5V6.36816H40.5V10.3682Z" fill="#D8E3F5"/>
<path d="M13.0858 22.954C12.3047 23.735 12.3047 25.0013 13.0858 25.7824C13.8668 26.5634 15.1332 26.5634 15.9142 25.7824L13.0858 22.954ZM20.5 18.3682L21.9142 16.954C21.1332 16.1729 19.8668 16.1729 19.0858 16.954L20.5 18.3682ZM26.5 24.3682L25.0858 25.7824C25.8668 26.5634 27.1332 26.5634 27.9142 25.7824L26.5 24.3682ZM35.9142 17.7824C36.6953 17.0013 36.6953 15.735 35.9142 14.954C35.1332 14.1729 33.8668 14.1729 33.0858 14.954L35.9142 17.7824ZM15.9142 25.7824L21.9142 19.7824L19.0858 16.954L13.0858 22.954L15.9142 25.7824ZM19.0858 19.7824L25.0858 25.7824L27.9142 22.954L21.9142 16.954L19.0858 19.7824ZM27.9142 25.7824L35.9142 17.7824L33.0858 14.954L25.0858 22.954L27.9142 25.7824Z" fill="#6EBFE9"/>
</svg>
