<svg width="51" height="50" viewBox="0 0 51 50" fill="none" xmlns="http://www.w3.org/2000/svg">
<path d="M50.5 25.0047C50.5 21.9052 46.352 18.9679 39.9925 17.1463C41.46 11.0809 40.8078 6.2552 37.9338 4.71023C37.2713 4.34783 36.4967 4.17616 35.6508 4.17616V6.30289C36.1196 6.30289 36.4967 6.38872 36.8127 6.55085C38.1987 7.29473 38.8 10.1272 38.3312 13.7703C38.2191 14.6667 38.0357 15.6109 37.8115 16.5741C35.8139 16.1163 33.6329 15.7635 31.3398 15.5346C29.9639 13.7703 28.5371 12.1681 27.1001 10.7662C30.4225 7.87648 33.5412 6.29335 35.661 6.29335V4.16663C32.8583 4.16663 29.1894 6.03586 25.4796 9.2784C21.7699 6.05493 18.1009 4.20477 15.2982 4.20477V6.3315C17.4079 6.3315 20.5367 7.90509 23.8592 10.7757C22.4323 12.1776 21.0055 13.7703 19.65 15.5346C17.3467 15.7635 15.1657 16.1163 13.1682 16.5837C12.9338 15.63 12.7605 14.7049 12.6382 13.818C12.1592 10.1749 12.7503 7.34241 14.1262 6.589C14.4319 6.41733 14.8294 6.34104 15.2982 6.34104V4.21431C14.4421 4.21431 13.6675 4.38597 12.9949 4.74838C10.1311 6.29335 9.48899 11.1095 10.9668 17.1559C4.6276 18.9869 0.5 21.9148 0.5 25.0047C0.5 28.1042 4.64798 31.0416 11.0075 32.8631C9.53995 38.9286 10.1922 43.7542 13.0662 45.2992C13.7287 45.6616 14.5033 45.8333 15.3594 45.8333C18.162 45.8333 21.831 43.9641 25.5408 40.7215C29.2505 43.945 32.9195 45.7951 35.7222 45.7951C36.5783 45.7951 37.3528 45.6235 38.0255 45.2611C40.8893 43.7161 41.5314 38.9 40.0536 32.8536C46.3724 31.032 50.5 28.0947 50.5 25.0047ZM37.2305 18.6436C36.8534 19.8739 36.3846 21.1423 35.8547 22.4107C35.4368 21.6477 34.9986 20.8848 34.5196 20.1218C34.0508 19.3589 33.5514 18.615 33.052 17.8902C34.4992 18.0905 35.8954 18.3384 37.2305 18.6436ZM32.5628 28.8004C31.7678 30.0879 30.9525 31.3086 30.1066 32.4435C28.5881 32.5675 27.0491 32.6342 25.5 32.6342C23.9611 32.6342 22.4221 32.5675 20.9138 32.453C20.0679 31.3181 19.2424 30.107 18.4474 28.829C17.6728 27.5797 16.9696 26.3113 16.3276 25.0333C16.9594 23.7554 17.6729 22.4774 18.4372 21.2281C19.2322 19.9406 20.0475 18.7199 20.8934 17.585C22.4119 17.461 23.9509 17.3943 25.5 17.3943C27.0389 17.3943 28.5779 17.461 30.0862 17.5755C30.9321 18.7104 31.7576 19.9216 32.5526 21.1995C33.3272 22.4488 34.0304 23.7172 34.6724 24.9952C34.0304 26.2731 33.3271 27.5511 32.5628 28.8004ZM35.8547 27.5606C36.405 28.8386 36.8738 30.1165 37.2611 31.3563C35.926 31.6615 34.5196 31.919 33.0622 32.1192C33.5616 31.3849 34.0609 30.6315 34.5298 29.859C34.9986 29.0961 35.4368 28.3236 35.8547 27.5606ZM25.5204 37.7365C24.5726 36.8209 23.6247 35.8005 22.6871 34.6847C23.6044 34.7228 24.542 34.7514 25.4898 34.7514C26.4478 34.7514 27.3956 34.7324 28.3231 34.6847C27.4058 35.8005 26.458 36.8209 25.5204 37.7365ZM17.9378 32.1192C16.4906 31.919 15.0944 31.671 13.7593 31.3658C14.1364 30.1356 14.6052 28.8672 15.1351 27.5988C15.553 28.3617 15.9912 29.1247 16.4702 29.8876C16.9492 30.6506 17.4384 31.3944 17.9378 32.1192ZM25.4694 12.273C26.4172 13.1885 27.3651 14.209 28.3027 15.3248C27.3854 15.2866 26.4478 15.258 25.5 15.258C24.542 15.258 23.5942 15.2771 22.6667 15.3248C23.584 14.209 24.5318 13.1885 25.4694 12.273ZM17.9276 17.8902C17.4283 18.6245 16.9289 19.378 16.46 20.1505C15.9912 20.9134 15.553 21.6764 15.1351 22.4393C14.5848 21.1614 14.116 19.8834 13.7287 18.6436C15.0638 18.348 16.4702 18.0905 17.9276 17.8902ZM8.70424 29.8304C5.09641 28.3903 2.76254 26.502 2.76254 25.0047C2.76254 23.5074 5.09641 21.6096 8.70424 20.1791C9.58072 19.8262 10.5387 19.5115 11.5273 19.2158C12.1082 21.0851 12.8726 23.0306 13.8204 25.0238C12.8828 27.0075 12.1286 28.9435 11.5579 30.8032C10.5489 30.5075 9.59091 30.1833 8.70424 29.8304ZM14.1873 43.4586C12.8013 42.7147 12.2 39.8823 12.6688 36.2392C12.7809 35.3427 12.9643 34.3986 13.1885 33.4353C15.1861 33.8931 17.3671 34.246 19.6602 34.4749C21.0361 36.2392 22.4629 37.8414 23.8999 39.2433C20.5775 42.133 17.4588 43.7161 15.339 43.7161C14.8804 43.7066 14.4931 43.6207 14.1873 43.4586ZM38.3618 36.1915C38.8408 39.8346 38.2497 42.667 36.8738 43.4205C36.5681 43.5921 36.1706 43.6684 35.7018 43.6684C33.5921 43.6684 30.4633 42.0948 27.1409 39.2242C28.5677 37.8223 29.9945 36.2296 31.35 34.4653C33.6533 34.2364 35.8343 33.8836 37.8318 33.4163C38.0662 34.3795 38.2497 35.3046 38.3618 36.1915ZM42.2856 29.8304C41.4091 30.1833 40.4511 30.498 39.4625 30.7936C38.8816 28.9244 38.1172 26.9789 37.1694 24.9857C38.107 23.002 38.8612 21.066 39.4319 19.2063C40.4409 19.5019 41.3989 19.8262 42.2958 20.1791C45.9036 21.6191 48.2375 23.5074 48.2375 25.0047C48.2273 26.502 45.8934 28.3999 42.2856 29.8304Z" fill="#61DAFB"/>
<path d="M25.4896 29.3631C28.0619 29.3631 30.1472 27.4118 30.1472 25.0047C30.1472 22.5977 28.0619 20.6464 25.4896 20.6464C22.9173 20.6464 20.832 22.5977 20.832 25.0047C20.832 27.4118 22.9173 29.3631 25.4896 29.3631Z" fill="#61DAFB"/>
</svg>
