<svg width="541" height="480" viewBox="0 0 541 480" fill="none" xmlns="http://www.w3.org/2000/svg">
<circle cx="301.416" cy="239.594" r="238.807" fill="#ECF1FA"/>
<path d="M260.5 472.294V424.422C304.327 417.455 392.249 405.678 393.328 414.308C394.407 422.939 401.059 445.324 404.25 455.438C392.294 461.056 360.694 473.373 329.948 477.688C291.516 483.082 260.5 474.317 260.5 472.294Z" fill="#202E3D"/>
<rect x="0.25" y="33.7876" width="220" height="224" rx="10" fill="#FCFDFE"/>
<circle cx="15.25" cy="48.7876" r="5" fill="#F5B0B2"/>
<circle cx="30.25" cy="48.7876" r="5" fill="#FEE182"/>
<circle cx="45.25" cy="48.7876" r="5" fill="#A2D9C0"/>
<path d="M205.25 63.7876H15.25C12.4886 63.7876 10.25 66.0262 10.25 68.7876V158.787C10.25 161.549 12.4886 163.787 15.25 163.787H205.25C208.011 163.787 210.25 161.549 210.25 158.787V68.7876C210.25 66.0262 208.011 63.7876 205.25 63.7876Z" fill="#CBE8F7"/>
<rect x="10.25" y="173.787" width="200" height="8" rx="4" fill="#E8EEF9"/>
<rect x="10.25" y="191.787" width="200" height="4" rx="2" fill="#E8EEF9"/>
<rect x="10.25" y="205.787" width="200" height="4" rx="2" fill="#E8EEF9"/>
<rect x="10.25" y="219.787" width="200" height="4" rx="2" fill="#E8EEF9"/>
<rect x="10.25" y="233.787" width="80" height="4" rx="2" fill="#E8EEF9"/>
<path d="M355.145 94.697C355.145 94.697 354.673 70.1807 324.381 67.4697C305.051 65.7017 304.933 75.3668 285.368 74.0703C267.57 73.0095 250.597 84.914 254.958 106.012C258.612 123.692 285.603 133.475 285.603 133.475L355.145 94.697Z" fill="#1F2D3D"/>
<path d="M296.093 169.425L292.439 190.523C290.2 203.017 298.45 214.921 310.826 217.161C324.381 219.636 337.111 209.735 337.936 195.945L339.586 147.148L296.093 169.425Z" fill="#FFC3AA"/>
<path d="M333.693 143.612L329.803 139.958L332.632 118.506C332.986 116.149 331.571 113.909 329.332 113.438C325.56 112.495 320.492 109.902 320.492 102.83C320.374 91.6323 326.621 85.1496 326.621 85.1496C326.621 85.1496 360.92 79.7278 365.635 104.951C368.935 122.513 359.034 165.299 335.225 178.736L333.693 143.612Z" fill="#1F2D3D"/>
<path d="M329.332 89.3929C329.332 89.3929 319.078 98.7044 301.987 97.4079C284.778 96.1113 281.596 91.5145 275.113 98.5865C275.113 98.5865 276.881 74.7774 307.998 73.8345C339.115 72.8916 336.64 93.1647 336.64 93.1647L329.332 89.3929Z" fill="#1F2D3D"/>
<path d="M275.938 98.2329C273.816 101.297 270.28 106.955 270.516 116.149C270.87 128.643 271.93 159.406 279.003 171.9C287.96 187.812 299.865 193.469 323.91 186.044C323.91 186.044 347.719 180.386 351.137 138.543C356.441 74.8952 297.272 66.9982 275.938 98.2329Z" fill="#1F2D3D"/>
<path d="M166.793 225.883C166.793 225.883 151.942 203.606 151.471 203.37C151.471 203.37 138.034 180.74 133.555 180.74C129.076 180.74 130.726 185.337 135.323 193.469C139.33 200.541 139.802 205.02 139.802 205.02L128.722 211.739C128.722 211.739 121.297 208.91 121.061 215.746C120.943 217.986 121.532 220.932 122.357 225.058C122.829 227.533 123.89 230.126 126.247 229.183C127.308 228.712 128.133 228.004 128.251 226.472C128.369 222.465 127.661 220.932 128.133 220.932C128.84 220.932 136.03 242.266 136.03 242.266L166.793 225.883Z" fill="#FFC3AA"/>
<path d="M136.737 208.438C135.558 207.613 134.497 206.906 133.201 206.317C131.904 205.728 130.49 205.492 129.193 205.728C128.368 205.845 127.543 206.199 126.954 206.906C126.246 207.849 126.129 209.146 126.482 210.324C126.836 211.503 127.543 212.446 128.25 213.389" fill="#FFC3AA"/>
<path d="M141.688 203.842C140.627 203.134 139.566 202.427 138.387 201.838C137.209 201.366 135.912 201.013 134.616 201.248C133.791 201.366 132.966 201.72 132.494 202.427C131.787 203.252 131.787 204.549 132.14 205.61C132.494 206.67 134.851 209.146 135.559 209.971" fill="#FFC3AA"/>
<path d="M161.608 213.271L183.059 259.239L159.368 283.52L146.992 249.22C146.992 249.22 140.392 250.517 137.681 246.156C134.616 241.205 130.727 227.061 130.727 227.061L161.608 213.271Z" fill="#FFBF9D"/>
<path d="M146.167 212.092C145.813 212.21 144.634 209.381 142.631 206.435C140.509 203.606 137.798 202.192 138.034 201.72C138.152 201.484 141.334 202.309 143.692 205.61C145.931 208.91 146.52 211.975 146.167 212.092Z" fill="#FF9A6C"/>
<path d="M122.357 212.21C122.24 212.092 122.829 211.385 124.243 210.914C125.54 210.442 127.779 210.324 129.783 211.385C131.787 212.564 132.848 214.332 133.437 215.511C134.026 216.689 134.262 217.514 134.144 217.632C134.026 217.75 133.437 217.043 132.73 215.982C131.905 214.921 130.844 213.507 129.194 212.564C127.544 211.621 125.776 211.621 124.597 211.857C123.183 211.974 122.475 212.446 122.357 212.21Z" fill="#FF9A6C"/>
<path d="M130.373 205.727C130.373 205.374 133.437 205.256 136.266 207.731C138.977 210.089 139.684 213.035 139.331 213.153C138.977 213.389 137.798 210.914 135.323 208.792C132.966 206.67 130.255 206.081 130.373 205.727Z" fill="#FF9A6C"/>
<path d="M125.068 215.628C125.422 215.746 125.54 217.043 126.365 218.457C127.19 219.872 128.369 220.461 128.251 220.814C128.251 221.168 126.365 220.932 125.186 219.164C124.125 217.396 124.715 215.51 125.068 215.628Z" fill="#FF9A6C"/>
<path d="M166.675 225.058C166.675 225.058 167.382 211.385 164.082 208.203C160.782 205.138 151.234 208.321 151.234 208.321" fill="#FFC3AA"/>
<path d="M149.938 201.72C150.174 201.484 152.884 204.667 155.831 208.792C158.778 212.917 161.017 216.453 160.664 216.689C160.31 216.925 157.717 213.742 154.77 209.617C151.824 205.492 149.702 201.956 149.938 201.72Z" fill="#FF9A6C"/>
<path d="M381.665 214.214C381.312 212.328 380.84 210.206 380.251 207.731C379.662 205.61 378.719 203.606 377.54 201.72C376.008 199.481 373.886 196.652 372.236 195.355C370.232 193.823 371.057 190.641 373.415 190.641C375.772 190.641 381.43 194.648 385.319 201.838C389.209 209.028 391.566 196.298 392.509 191.819C393.452 187.222 396.988 173.196 398.638 172.371C400.995 171.193 402.763 173.55 401.703 178.029C400.642 182.626 398.52 196.534 400.995 196.888C403.353 197.241 407.832 173.786 407.832 173.786C407.832 173.786 407.95 168.599 410.778 168.953C415.965 169.542 409.364 194.177 408.775 196.416C408.303 198.066 410.896 198.538 411.368 196.77C411.839 195.002 415.257 173.314 420.444 173.903C424.451 174.375 415.257 194.177 417.025 199.009C418.793 203.842 422.447 183.215 426.219 183.804C427.633 184.04 428.694 184.394 424.922 195.945C423.037 201.602 415.965 227.769 415.965 227.769L420.09 249.338L387.441 257.589L381.665 214.214Z" fill="#FFC3AA"/>
<path d="M387.087 209.971L443.192 310.393C446.492 318.88 444.606 329.959 438.831 337.031L440.009 335.381C435.412 341.039 428.576 344.339 421.386 344.339H420.325C410.778 344.339 402.174 338.681 398.402 329.959L385.201 309.922L387.087 209.971Z" fill="#81C7EC"/>
<path d="M265.449 202.899C276.41 197.241 287.372 195.945 299.159 195.709C312.949 195.355 332.515 193.352 347.366 195.002C347.366 195.002 392.745 193.587 392.981 228.829L386.969 363.787L395.664 425.785H260.616L261.559 357.54C259.909 322.062 263.445 271.733 263.445 271.733C261.323 252.639 250.951 244.034 249.419 231.658C248.24 220.461 255.548 207.849 265.449 202.899Z" fill="#81C7EC"/>
<path d="M421.505 240.262C421.505 240.262 426.691 255.349 427.516 257.353C427.516 257.353 440.245 294.01 444.371 318.88L403.825 245.566C403.471 245.684 420.915 240.498 421.505 240.262Z" fill="#81C7EC"/>
<path d="M401.467 235.901C401.585 235.901 402.41 237.198 403.942 239.673C405.592 242.266 407.714 245.802 410.307 250.045C415.611 258.885 423.508 270.672 431.405 284.345C435.295 291.181 438.595 297.899 441.542 304.146C444.37 310.393 445.785 316.64 445.313 321.944C444.842 327.13 443.192 331.138 441.659 333.613" fill="#81C7EC"/>
<path d="M401.467 235.901C401.585 235.901 402.41 237.198 403.942 239.673C405.592 242.266 407.714 245.802 410.307 250.045C415.611 258.885 423.508 270.672 431.405 284.345C435.295 291.181 438.595 297.899 441.542 304.146C444.37 310.393 445.785 316.64 445.313 321.944C444.842 327.13 443.192 331.138 441.659 333.613" stroke="#9264CA" stroke-width="0.449518" stroke-miterlimit="10"/>
<path d="M151.354 273.383L182.824 252.756L202.626 287.174C202.626 287.174 230.206 248.867 242.7 226.472C254.251 205.845 269.102 200.306 276.292 198.773C278.414 198.302 280.3 200.07 280.064 202.309L269.22 276.683C267.806 280.573 245.176 313.458 232.446 330.077C211.23 357.776 179.995 339.978 171.509 320.648C164.79 305.325 154.182 281.987 151.354 273.383Z" fill="#81C7EC"/>
<path d="M139.626 108.482C139.626 104.181 133.87 100.106 125.046 97.5784C127.083 89.1625 126.178 82.4668 122.19 80.3231C121.271 79.8203 120.196 79.5821 119.022 79.5821V82.5329C119.673 82.5329 120.196 82.652 120.634 82.877C122.557 83.9091 123.392 87.8392 122.741 92.894C122.586 94.1379 122.331 95.4479 122.02 96.7844C119.248 96.1492 116.222 95.6596 113.041 95.3421C111.132 92.894 109.152 90.671 107.158 88.7258C111.768 84.7163 116.095 82.5197 119.036 82.5197V79.5688C115.148 79.5688 110.057 82.1624 104.91 86.6615C99.7622 82.1889 94.6715 79.6218 90.7827 79.6218V82.5726C93.7099 82.5726 98.0512 84.756 102.661 88.739C100.681 90.6842 98.7017 92.894 96.8209 95.3421C93.625 95.6596 90.5989 96.1492 87.8272 96.7976C87.502 95.4744 87.2616 94.1908 87.0919 92.9602C86.4273 87.9054 87.2475 83.9753 89.1565 82.9299C89.5807 82.6917 90.1322 82.5859 90.7827 82.5859V79.635C89.5949 79.635 88.5201 79.8732 87.5868 80.376C83.6132 82.5197 82.7223 89.2021 84.7728 97.5916C75.9771 100.132 70.25 104.195 70.25 108.482C70.25 112.783 76.0054 116.858 84.8293 119.386C82.793 127.802 83.6981 134.497 87.6858 136.641C88.605 137.144 89.6797 137.382 90.8675 137.382C94.7563 137.382 99.8471 134.788 104.994 130.289C110.142 134.762 115.232 137.329 119.121 137.329C120.309 137.329 121.384 137.091 122.317 136.588C126.291 134.444 127.182 127.762 125.131 119.372C133.899 116.845 139.626 112.769 139.626 108.482ZM121.214 99.6559C120.691 101.363 120.04 103.123 119.305 104.883C118.725 103.824 118.117 102.766 117.453 101.707C116.802 100.648 116.109 99.6162 115.416 98.6105C117.424 98.8884 119.362 99.2324 121.214 99.6559ZM114.738 113.749C113.635 115.535 112.503 117.229 111.33 118.803C109.223 118.975 107.087 119.068 104.938 119.068C102.803 119.068 100.667 118.975 98.5744 118.817C97.4007 117.242 96.2553 115.561 95.1523 113.788C94.0775 112.055 93.1018 110.295 92.2109 108.522C93.0877 106.749 94.0776 104.975 95.1381 103.242C96.2411 101.455 97.3724 99.7617 98.5461 98.1871C100.653 98.015 102.788 97.9224 104.938 97.9224C107.073 97.9224 109.208 98.015 111.301 98.1738C112.475 99.7485 113.62 101.429 114.723 103.202C115.798 104.936 116.774 106.696 117.665 108.469C116.774 110.242 115.798 112.015 114.738 113.749ZM119.305 112.028C120.069 113.801 120.719 115.575 121.257 117.295C119.404 117.718 117.453 118.076 115.43 118.353C116.123 117.335 116.816 116.289 117.467 115.217C118.117 114.159 118.725 113.087 119.305 112.028ZM104.966 126.147C103.651 124.877 102.336 123.461 101.035 121.913C102.308 121.966 103.609 122.006 104.924 122.006C106.253 122.006 107.568 121.979 108.855 121.913C107.582 123.461 106.267 124.877 104.966 126.147ZM94.4452 118.353C92.4372 118.076 90.4999 117.732 88.6474 117.308C89.1706 115.601 89.8211 113.841 90.5564 112.081C91.1362 113.14 91.7443 114.198 92.4089 115.257C93.0735 116.316 93.7523 117.348 94.4452 118.353ZM104.895 90.8165C106.211 92.0868 107.526 93.5027 108.827 95.0509C107.554 94.998 106.253 94.9583 104.938 94.9583C103.609 94.9583 102.293 94.9848 101.007 95.0509C102.279 93.5027 103.594 92.0868 104.895 90.8165ZM94.4311 98.6105C93.7382 99.6294 93.0453 100.675 92.3948 101.747C91.7443 102.805 91.1362 103.864 90.5564 104.922C89.7928 103.149 89.1423 101.376 88.605 99.6559C90.4575 99.2457 92.4089 98.8884 94.4311 98.6105ZM81.6335 115.178C76.6276 113.18 73.3893 110.559 73.3893 108.482C73.3893 106.404 76.6276 103.771 81.6335 101.786C82.8496 101.297 84.1789 100.86 85.5505 100.45C86.3566 103.043 87.4171 105.743 88.7323 108.508C87.4313 111.261 86.3849 113.947 85.593 116.527C84.193 116.117 82.8638 115.667 81.6335 115.178ZM89.2413 134.087C87.3182 133.055 86.4838 129.125 87.1343 124.07C87.2899 122.826 87.5444 121.516 87.8555 120.18C90.6272 120.815 93.6533 121.304 96.835 121.622C98.7441 124.07 100.724 126.293 102.718 128.238C98.1077 132.248 93.7806 134.444 90.8393 134.444C90.2029 134.431 89.6656 134.312 89.2413 134.087ZM122.784 124.004C123.448 129.059 122.628 132.989 120.719 134.034C120.295 134.272 119.743 134.378 119.093 134.378C116.166 134.378 111.824 132.195 107.215 128.212C109.194 126.267 111.174 124.057 113.055 121.609C116.251 121.291 119.277 120.801 122.048 120.153C122.374 121.49 122.628 122.773 122.784 124.004ZM128.228 115.178C127.012 115.667 125.683 116.104 124.311 116.514C123.505 113.921 122.444 111.221 121.129 108.456C122.43 105.703 123.477 103.017 124.269 100.437C125.668 100.847 126.998 101.297 128.242 101.786C133.248 103.784 136.486 106.404 136.486 108.482C136.472 110.559 133.234 113.193 128.228 115.178Z" fill="#61DAFB"/>
<path d="M104.924 114.529C108.493 114.529 111.387 111.822 111.387 108.482C111.387 105.142 108.493 102.435 104.924 102.435C101.355 102.435 98.4619 105.142 98.4619 108.482C98.4619 111.822 101.355 114.529 104.924 114.529Z" fill="#61DAFB"/>
</svg>
