<svg width="32" height="33" viewBox="0 0 32 33" fill="none" xmlns="http://www.w3.org/2000/svg">
<path fill-rule="evenodd" clip-rule="evenodd" d="M0 16.2256C0 7.38903 7.16344 0.225586 16 0.225586C24.8366 0.225586 32 7.38903 32 16.2256C32 25.0621 24.8366 32.2256 16 32.2256C7.16344 32.2256 0 25.0621 0 16.2256Z" fill="#ECF1FA"/>
<path fill-rule="evenodd" clip-rule="evenodd" d="M15.5208 13.2306L15.5544 13.7842L14.9948 13.7164C12.9579 13.4565 11.1784 12.5752 9.66756 11.0951L8.92891 10.3607L8.73865 10.903C8.33575 12.112 8.59316 13.3887 9.43253 14.2474C9.8802 14.722 9.77948 14.7898 9.00725 14.5073C8.73865 14.4169 8.50363 14.3491 8.48124 14.383C8.4029 14.4621 8.6715 15.4903 8.88414 15.8971C9.17513 16.462 9.76828 17.0156 10.4174 17.3433L10.9658 17.6032L10.3167 17.6145C9.68994 17.6145 9.66756 17.6258 9.73471 17.863C9.95854 18.5974 10.8427 19.3771 11.8276 19.716L12.5214 19.9533L11.9171 20.3148C11.0218 20.8346 9.96973 21.1284 8.91772 21.1509C8.41409 21.1622 8 21.2074 8 21.2413C8 21.3543 9.36538 21.9871 10.16 22.2356C12.5438 22.97 15.3753 22.6537 17.5017 21.3995C19.0126 20.5069 20.5235 18.733 21.2286 17.0156C21.6091 16.1004 21.9896 14.4282 21.9896 13.626C21.9896 13.1063 22.0232 13.0385 22.6499 12.4171C23.0192 12.0555 23.3662 11.66 23.4333 11.5471C23.5452 11.3324 23.534 11.3324 22.9633 11.5245C22.012 11.8634 21.8777 11.8182 22.3477 11.3098C22.6947 10.9482 23.1088 10.2929 23.1088 10.1008C23.1088 10.0669 22.9409 10.1234 22.7506 10.2251C22.5492 10.3381 22.1015 10.5076 21.7658 10.6093L21.1614 10.8013L20.613 10.4285C20.3108 10.2251 19.8856 9.99913 19.6617 9.93134C19.0909 9.77316 18.218 9.79576 17.7032 9.97654C16.3042 10.485 15.4201 11.7956 15.5208 13.2306Z" fill="#202E3D"/>
</svg>
