<svg width="304" height="49" viewBox="0 0 304 49" fill="none" xmlns="http://www.w3.org/2000/svg">
<path fill-rule="evenodd" clip-rule="evenodd" d="M0 24.5283C0 11.2735 10.7452 0.52832 24 0.52832C37.2548 0.52832 48 11.2735 48 24.5283C48 37.7832 37.2548 48.5283 24 48.5283C10.7452 48.5283 0 37.7832 0 24.5283Z" fill="#ECF1FA"/>
<path fill-rule="evenodd" clip-rule="evenodd" d="M24.0004 11.7283C20.5241 11.7283 20.0878 11.7435 18.7225 11.8056C17.3598 11.868 16.4297 12.0837 15.6158 12.4003C14.7739 12.7272 14.0598 13.1646 13.3483 13.8763C12.6363 14.5878 12.199 15.3019 11.871 16.1435C11.5536 16.9577 11.3376 17.8881 11.2763 19.2502C11.2152 20.6156 11.1992 21.0521 11.1992 24.5284C11.1992 28.0047 11.2147 28.4396 11.2766 29.805C11.3392 31.1677 11.555 32.0978 11.8712 32.9117C12.1984 33.7536 12.6358 34.4677 13.3475 35.1792C14.0587 35.8912 14.7729 36.3296 15.6142 36.6565C16.4286 36.9731 17.359 37.1888 18.7214 37.2512C20.0868 37.3133 20.5228 37.3285 23.9988 37.3285C27.4754 37.3285 27.9103 37.3133 29.2757 37.2512C30.6384 37.1888 31.5696 36.9731 32.384 36.6565C33.2256 36.3296 33.9387 35.8912 34.6499 35.1792C35.3619 34.4677 35.7992 33.7536 36.1272 32.912C36.4419 32.0978 36.6579 31.1674 36.7219 29.8053C36.7832 28.4399 36.7992 28.0047 36.7992 24.5284C36.7992 21.0521 36.7832 20.6158 36.7219 19.2505C36.6579 17.8878 36.4419 16.9577 36.1272 16.1438C35.7992 15.3019 35.3619 14.5878 34.6499 13.8763C33.9379 13.1643 33.2258 12.7269 32.3832 12.4003C31.5672 12.0837 30.6365 11.868 29.2738 11.8056C27.9085 11.7435 27.4738 11.7283 23.9964 11.7283H24.0004ZM22.8521 14.0349C23.1929 14.0344 23.5732 14.0349 24.0004 14.0349C27.418 14.0349 27.8231 14.0472 29.1727 14.1085C30.4207 14.1656 31.098 14.3741 31.5492 14.5493C32.1466 14.7813 32.5725 15.0587 33.0202 15.5067C33.4682 15.9547 33.7455 16.3814 33.9781 16.9787C34.1533 17.4294 34.3621 18.1067 34.4189 19.3547C34.4802 20.7041 34.4935 21.1094 34.4935 24.5254C34.4935 27.9415 34.4802 28.3468 34.4189 29.6962C34.3618 30.9442 34.1533 31.6215 33.9781 32.0722C33.7461 32.6695 33.4682 33.0949 33.0202 33.5426C32.5722 33.9906 32.1468 34.2679 31.5492 34.4999C31.0986 34.6759 30.4207 34.8839 29.1727 34.941C27.8233 35.0023 27.418 35.0157 24.0004 35.0157C20.5825 35.0157 20.1774 35.0023 18.828 34.941C17.58 34.8834 16.9027 34.6749 16.4512 34.4997C15.8539 34.2677 15.4272 33.9903 14.9792 33.5423C14.5312 33.0943 14.2539 32.6687 14.0213 32.0711C13.8461 31.6204 13.6373 30.9431 13.5805 29.6951C13.5192 28.3457 13.5069 27.9404 13.5069 24.5222C13.5069 21.1041 13.5192 20.7009 13.5805 19.3515C13.6376 18.1035 13.8461 17.4262 14.0213 16.975C14.2533 16.3776 14.5312 15.9509 14.9792 15.5029C15.4272 15.0549 15.8539 14.7776 16.4512 14.5451C16.9024 14.3691 17.58 14.1611 18.828 14.1037C20.0089 14.0504 20.4665 14.0344 22.8521 14.0317V14.0349ZM30.833 16.1603C29.985 16.1603 29.297 16.8475 29.297 17.6958C29.297 18.5438 29.985 19.2318 30.833 19.2318C31.681 19.2318 32.369 18.5438 32.369 17.6958C32.369 16.8478 31.681 16.1603 30.833 16.1603ZM24.0004 17.955C20.3703 17.955 17.427 20.8982 17.427 24.5284C17.427 28.1585 20.3703 31.1004 24.0004 31.1004C27.6306 31.1004 30.5728 28.1585 30.5728 24.5284C30.5728 20.8982 27.6306 17.955 24.0004 17.955ZM24.0004 20.2617C26.3567 20.2617 28.2671 22.1718 28.2671 24.5284C28.2671 26.8847 26.3567 28.7951 24.0004 28.7951C21.6438 28.7951 19.7337 26.8847 19.7337 24.5284C19.7337 22.1718 21.6438 20.2617 24.0004 20.2617Z" fill="#202E3D"/>
<circle cx="88" cy="24.1006" r="24" fill="#ECF1FA"/>
<path d="M97.5223 33.7617L98.4432 27.7577H92.6826V23.8632C92.6826 22.2202 93.4858 20.6178 96.0659 20.6178H98.6866V15.5063C98.6866 15.5063 96.3094 15.1006 94.0376 15.1006C89.2911 15.1006 86.1918 17.9768 86.1918 23.1817V27.7577H80.918V33.7617H86.1918V48.0145C87.2506 48.1809 88.3957 48.1006 89.4991 48.1006C90.6026 48.1006 92.6826 47.6417 92.6826 47.6417V33.7617H97.5223Z" fill="#202E3D"/>
<path fill-rule="evenodd" clip-rule="evenodd" d="M128 24.5283C128 11.2735 138.745 0.52832 152 0.52832C165.255 0.52832 176 11.2735 176 24.5283C176 37.7832 165.255 48.5283 152 48.5283C138.745 48.5283 128 37.7832 128 24.5283Z" fill="#ECF1FA"/>
<path fill-rule="evenodd" clip-rule="evenodd" d="M151.281 20.0358L151.332 20.8663L150.492 20.7646C147.437 20.3748 144.768 19.0529 142.501 16.8327L141.393 15.731L141.108 16.5445C140.504 18.358 140.89 20.2731 142.149 21.5612C142.82 22.273 142.669 22.3747 141.511 21.951C141.108 21.8154 140.755 21.7137 140.722 21.7645C140.604 21.8832 141.007 23.4255 141.326 24.0356C141.763 24.883 142.652 25.7134 143.626 26.2049L144.449 26.5947L143.475 26.6117C142.535 26.6117 142.501 26.6286 142.602 26.9845C142.938 28.0862 144.264 29.2556 145.741 29.764L146.782 30.1199L145.876 30.6623C144.533 31.4419 142.955 31.8825 141.377 31.9164C140.621 31.9334 140 32.0012 140 32.052C140 32.2215 142.048 33.1706 143.24 33.5434C146.816 34.6451 151.063 34.1705 154.253 32.2893C156.519 30.9504 158.785 28.2895 159.843 25.7134C160.414 24.3406 160.984 21.8323 160.984 20.629C160.984 19.8494 161.035 19.7477 161.975 18.8156C162.529 18.2732 163.049 17.6801 163.15 17.5106C163.318 17.1886 163.301 17.1886 162.445 17.4767C161.018 17.9851 160.817 17.9173 161.522 17.1547C162.042 16.6123 162.663 15.6294 162.663 15.3412C162.663 15.2904 162.411 15.3751 162.126 15.5277C161.824 15.6971 161.152 15.9514 160.649 16.1039L159.742 16.392L158.92 15.8327C158.466 15.5277 157.828 15.1887 157.493 15.087C156.636 14.8497 155.327 14.8836 154.555 15.1548C152.456 15.9175 151.13 17.8834 151.281 20.0358Z" fill="#202E3D"/>
<path fill-rule="evenodd" clip-rule="evenodd" d="M192 24.5283C192 11.2735 202.745 0.52832 216 0.52832C229.255 0.52832 240 11.2735 240 24.5283C240 37.7832 229.255 48.5283 216 48.5283C202.745 48.5283 192 37.7832 192 24.5283Z" fill="#ECF1FA"/>
<path fill-rule="evenodd" clip-rule="evenodd" d="M225.999 16.2777C227.1 16.58 227.968 17.4706 228.262 18.6016C228.797 20.6514 228.797 24.9284 228.797 24.9284C228.797 24.9284 228.797 29.2052 228.262 31.2552C227.968 32.3862 227.1 33.2768 225.999 33.5792C224.003 34.1284 215.997 34.1284 215.997 34.1284C215.997 34.1284 207.992 34.1284 205.996 33.5792C204.894 33.2768 204.027 32.3862 203.732 31.2552C203.197 29.2052 203.197 24.9284 203.197 24.9284C203.197 24.9284 203.197 20.6514 203.732 18.6016C204.027 17.4706 204.894 16.58 205.996 16.2777C207.992 15.7284 215.997 15.7284 215.997 15.7284C215.997 15.7284 224.003 15.7284 225.999 16.2777ZM213.597 21.3283V29.3283L219.997 25.3285L213.597 21.3283Z" fill="#202E3D"/>
<circle cx="280" cy="24.5283" r="24" fill="#ECF1FA"/>
<g clip-path="url(#clip0)">
<path fill-rule="evenodd" clip-rule="evenodd" d="M294.336 17.2625C294.55 16.0253 294.55 14.7643 293.789 13.8126C292.718 12.4564 290.458 12.4088 288.911 12.6468C287.65 12.8371 283.392 14.7167 281.94 19.2373C284.51 19.0469 285.866 19.4276 285.604 22.2589C285.509 23.4485 284.89 24.7333 284.224 25.9943C283.463 27.4219 282.012 30.2532 280.108 28.207C278.395 26.375 278.538 22.8775 278.133 20.5696C277.919 19.2611 277.681 17.6432 277.253 16.287C276.896 15.1212 276.04 13.7412 275.017 13.4319C273.898 13.0988 272.542 13.6222 271.733 14.0981C269.187 15.5732 267.213 17.7145 265 19.499V19.6655C265.428 20.0938 265.547 20.7838 266.213 20.8789C267.736 21.0931 269.187 19.4514 270.211 21.1644C270.829 22.2113 271.019 23.3534 271.424 24.4954C271.947 25.9943 272.352 27.636 272.804 29.3728C273.541 32.2993 274.446 36.6771 276.968 37.7478C278.252 38.295 280.203 37.5574 281.179 36.9864C283.844 35.4161 285.914 33.1321 287.698 30.8004C291.767 25.2805 294.003 19.0469 294.336 17.2625Z" fill="#202E3D"/>
</g>
<defs>
<clipPath id="clip0">
<rect width="29.4551" height="25.4103" fill="white" transform="translate(265 12.5283)"/>
</clipPath>
</defs>
</svg>
