<svg width="32" height="33" viewBox="0 0 32 33" fill="none" xmlns="http://www.w3.org/2000/svg">
<path fill-rule="evenodd" clip-rule="evenodd" d="M0 16.2256C0 7.38903 7.16344 0.225586 16 0.225586C24.8366 0.225586 32 7.38903 32 16.2256C32 25.0621 24.8366 32.2256 16 32.2256C7.16344 32.2256 0 25.0621 0 16.2256Z" fill="#ECF1FA"/>
<path fill-rule="evenodd" clip-rule="evenodd" d="M25.025 16.2256C25.025 16.8351 24.963 17.4438 24.8411 18.037C24.7223 18.6163 24.5462 19.1849 24.3156 19.7285C24.0903 20.2625 23.8109 20.777 23.4843 21.2569C23.1626 21.7337 22.7921 22.1811 22.385 22.5889C21.977 22.9949 21.5281 23.3645 21.0515 23.6875C20.5701 24.0118 20.0548 24.2909 19.5205 24.5172C18.9761 24.7466 18.4061 24.9224 17.8274 25.041C17.2334 25.1632 16.6225 25.2256 16.0121 25.2256C15.4013 25.2256 14.7904 25.1632 14.1972 25.041C13.6176 24.9224 13.0477 24.7466 12.5037 24.5172C11.9695 24.2909 11.4537 24.0118 10.9722 23.6875C10.4956 23.3645 10.0467 22.9949 9.63966 22.5889C9.23215 22.1811 8.86158 21.7337 8.53944 21.2569C8.21465 20.777 7.93474 20.2624 7.70855 19.7285C7.47792 19.1849 7.30147 18.6162 7.1822 18.037C7.06163 17.4438 7 16.8351 7 16.2256C7 15.6156 7.06159 15.0057 7.18224 14.4137C7.3015 13.8345 7.47795 13.265 7.70859 12.7223C7.93478 12.1879 8.21469 11.6729 8.53947 11.193C8.86161 10.7157 9.23219 10.2692 9.63969 9.86098C10.0468 9.4549 10.4957 9.08624 10.9723 8.76368C11.4537 8.43803 11.9695 8.15901 12.5038 7.93223C13.0477 7.70236 13.6176 7.52616 14.1972 7.4084C14.7905 7.28712 15.4013 7.22559 16.0121 7.22559C16.6225 7.22559 17.2334 7.28712 17.8275 7.4084C18.4062 7.5262 18.9761 7.70239 19.5205 7.93223C20.0548 8.15898 20.5701 8.43803 21.0515 8.76368C21.5282 9.08624 21.9771 9.4549 22.385 9.86098C22.7921 10.2692 23.1627 10.7157 23.4844 11.193C23.8109 11.6729 24.0903 12.1879 24.3156 12.7223C24.5462 13.265 24.7223 13.8345 24.8411 14.4137C24.963 15.0057 25.025 15.6156 25.025 16.2256ZM12.7281 9.27387C10.5818 10.286 8.9799 12.2608 8.48039 14.6409C8.6833 14.6427 11.8907 14.6831 15.5861 13.7027C14.2539 11.3393 12.8307 9.41058 12.7281 9.27387ZM16.2237 14.8862C12.2608 16.0709 8.45796 15.9856 8.32154 15.9804C8.31932 16.063 8.31537 16.143 8.31537 16.2256C8.31537 18.2 9.06131 20 10.2874 21.361C10.2848 21.3571 12.391 17.6257 16.5446 16.2845C16.6449 16.2511 16.747 16.2212 16.8482 16.1922C16.655 15.7554 16.4442 15.3177 16.2237 14.8862ZM21.0951 10.4573C19.74 9.26419 17.9608 8.54046 16.0121 8.54046C15.3867 8.54046 14.7798 8.61605 14.1985 8.75579C14.3138 8.9105 15.7595 10.8256 17.0758 13.239C19.9799 12.1519 21.0761 10.4854 21.0951 10.4573ZM17.3729 17.4657C17.3557 17.4714 17.3386 17.4763 17.3218 17.4824C12.7806 19.0633 11.2977 22.2491 11.2816 22.2839C12.5883 23.2986 14.2271 23.9107 16.0121 23.9107C17.078 23.9107 18.0933 23.694 19.017 23.3017C18.903 22.6302 18.4559 20.2765 17.3729 17.4657ZM20.3131 22.5994C22.0413 21.4349 23.2686 19.5857 23.611 17.4437C23.4526 17.3927 21.2993 16.712 18.815 17.1097C19.8245 19.8801 20.2347 22.1362 20.3131 22.5994ZM17.6682 14.3843C17.8468 14.7508 18.0198 15.1238 18.1795 15.4987C18.2363 15.6332 18.2918 15.7651 18.3459 15.8969C20.9899 15.5646 23.5948 16.1236 23.7062 16.1464C23.6886 14.3245 23.0359 12.6524 21.956 11.3433C21.9414 11.3639 20.707 13.145 17.6682 14.3843Z" fill="#202E3D"/>
</svg>
