<svg width="528" height="451" viewBox="0 0 528 451" fill="none" xmlns="http://www.w3.org/2000/svg">
<g filter="url(#filter0_dd)">
<rect x="77" y="40" width="398.242" height="119.473" rx="13.2747" fill="#F8FAFD"/>
<circle cx="96.9128" cy="59.912" r="6.63737" fill="#F5B0B2"/>
<circle cx="115.188" cy="59.912" r="6.63737" fill="#FEE182"/>
<circle cx="133.462" cy="59.912" r="6.63737" fill="#A2D9C0"/>
<rect x="90.2754" y="82.4792" width="26.5495" height="5.30989" rx="2.65495" fill="#E8EEF9"/>
<rect x="90.2754" y="101.064" width="26.5495" height="5.30989" rx="2.65495" fill="#E8EEF9"/>
<rect x="90.2754" y="138.233" width="26.5495" height="5.30989" rx="2.65495" fill="#E8EEF9"/>
<rect x="124.789" y="79.8242" width="2.65495" height="66.3736" rx="1.32747" fill="#E8EEF9"/>
<rect x="166.959" y="82.4792" width="129.23" height="5.30989" rx="2.65495" fill="#E8EEF9"/>
<rect x="301.189" y="82.4792" width="26.5495" height="5.30989" rx="2.65495" fill="#E8EEF9"/>
<rect x="332.738" y="82.4792" width="129.23" height="5.30989" rx="2.65495" fill="#D8E3F5"/>
<rect x="135.41" y="101.064" width="26.5495" height="5.30989" rx="2.65495" fill="#E8EEF9"/>
<rect x="166.959" y="101.064" width="129.23" height="5.30989" rx="2.65495" fill="#D8E3F5"/>
<rect x="301.189" y="101.064" width="26.5495" height="5.30989" rx="2.65495" fill="#E8EEF9"/>
<rect x="332.738" y="101.064" width="129.23" height="5.30989" rx="2.65495" fill="#E8EEF9"/>
<rect x="135.41" y="119.648" width="26.5495" height="5.30989" rx="2.65495" fill="#E8EEF9"/>
<rect x="198.51" y="119.648" width="231.91" height="5.30989" rx="2.65495" fill="#E8EEF9"/>
<rect x="435.42" y="119.648" width="26.5495" height="5.30989" rx="2.65495" fill="#E8EEF9"/>
<rect x="135.41" y="138.233" width="26.5495" height="5.30989" rx="2.65495" fill="#E8EEF9"/>
<rect x="166.959" y="138.233" width="231.91" height="5.30989" rx="2.65495" fill="#D8E3F5"/>
<rect x="435.42" y="138.233" width="26.5495" height="5.30989" rx="2.65495" fill="#E8EEF9"/>
</g>
<rect x="77.1211" y="186.022" width="398" height="110" rx="13.2667" stroke="#D8E3F5" stroke-width="1.32667" stroke-dasharray="13.27 13.27"/>
<g filter="url(#filter1_dd)">
<rect x="77" y="322.572" width="398.242" height="92.9231" rx="13.2747" fill="#F8FAFD"/>
<rect x="90.2754" y="338.501" width="26.5495" height="5.30989" rx="2.65495" fill="#E8EEF9"/>
<rect x="90.2754" y="375.671" width="26.5495" height="5.30989" rx="2.65495" fill="#E8EEF9"/>
<rect x="90.2754" y="394.255" width="26.5495" height="5.30989" rx="2.65495" fill="#E8EEF9"/>
<rect x="124.789" y="335.846" width="2.65495" height="66.3736" rx="1.32747" fill="#E8EEF9"/>
<rect x="166.959" y="338.501" width="129.23" height="5.30989" rx="2.65495" fill="#D8E3F5"/>
<rect x="301.189" y="338.501" width="26.5495" height="5.30989" rx="2.65495" fill="#E8EEF9"/>
<rect x="332.738" y="338.501" width="129.23" height="5.30989" rx="2.65495" fill="#E8EEF9"/>
<rect x="135.41" y="357.086" width="26.5495" height="5.30989" rx="2.65495" fill="#E8EEF9"/>
<rect x="166.959" y="357.086" width="129.23" height="5.30989" rx="2.65495" fill="#E8EEF9"/>
<rect x="301.189" y="357.086" width="26.5495" height="5.30989" rx="2.65495" fill="#E8EEF9"/>
<rect x="332.738" y="357.086" width="129.23" height="5.30989" rx="2.65495" fill="#E8EEF9"/>
<rect x="135.41" y="375.671" width="26.5495" height="5.30989" rx="2.65495" fill="#D8E3F5"/>
<rect x="198.51" y="375.671" width="231.91" height="5.30989" rx="2.65495" fill="#E8EEF9"/>
<rect x="435.42" y="375.671" width="26.5495" height="5.30989" rx="2.65495" fill="#E8EEF9"/>
<rect x="135.41" y="394.255" width="26.5495" height="5.30989" rx="2.65495" fill="#E8EEF9"/>
<rect x="166.959" y="394.255" width="231.91" height="5.30989" rx="2.65495" fill="#E8EEF9"/>
<rect x="435.42" y="394.255" width="26.5495" height="5.30989" rx="2.65495" fill="#D8E3F5"/>
</g>
<rect x="243" width="285" height="305" rx="10" fill="#FCFDFE"/>
<circle cx="258" cy="15" r="5" fill="#F5B0B2"/>
<circle cx="273" cy="15" r="5" fill="#FEE182"/>
<circle cx="288" cy="15" r="5" fill="#A2D9C0"/>
<path d="M511.375 30H259.625C255.966 30 253 32.9661 253 36.625V288.375C253 292.034 255.966 295 259.625 295H511.375C515.034 295 518 292.034 518 288.375V36.625C518 32.9661 515.034 30 511.375 30Z" fill="#F0F4FB"/>
<path d="M305.495 170.494C305.544 170.788 305.544 171.083 305.544 171.426C305.544 172.114 305.544 172.997 305.593 174.077C305.593 174.666 305.593 175.304 305.593 175.992C305.593 176.679 305.692 177.464 305.741 178.25C305.888 179.87 305.937 181.735 306.281 183.797C306.428 184.828 306.575 185.908 306.723 186.987C306.87 188.117 307.115 189.246 307.312 190.424C307.704 192.829 308.293 195.333 308.882 197.983C310.11 203.285 311.631 209.028 313.3 215.164C314.969 221.301 316.442 227.044 317.62 232.395C318.16 235.094 318.7 237.647 319.044 240.052C319.24 241.231 319.436 242.409 319.535 243.538C319.682 244.667 319.78 245.747 319.878 246.778C320.124 248.839 320.124 250.705 320.173 252.325C320.173 253.159 320.222 253.895 320.222 254.632C320.222 255.319 320.173 255.957 320.124 256.546C320.075 257.626 320.026 258.51 319.976 259.197C319.976 259.492 319.927 259.835 319.878 260.13C319.829 259.835 319.829 259.492 319.878 259.197C319.878 258.51 319.878 257.626 319.878 256.546C319.878 255.957 319.878 255.319 319.878 254.632C319.878 253.945 319.829 253.159 319.78 252.374C319.682 250.754 319.633 248.888 319.387 246.827C319.289 245.796 319.142 244.716 319.044 243.636C318.897 242.507 318.7 241.378 318.504 240.2C318.16 237.794 317.571 235.291 317.08 232.591C315.902 227.289 314.38 221.448 312.76 215.41C311.091 209.323 309.619 203.53 308.392 198.229C307.852 195.578 307.262 193.025 306.919 190.62C306.723 189.442 306.526 188.264 306.379 187.135C306.232 186.006 306.133 184.926 305.986 183.895C305.692 181.833 305.643 179.968 305.544 178.348C305.544 177.513 305.446 176.777 305.446 176.041V174.126C305.446 172.997 305.495 172.163 305.495 171.475C305.348 171.132 305.397 170.788 305.495 170.494Z" fill="#263238"/>
<path d="M432.242 214.674L445.3 168.285L461.352 171.23C461.352 171.23 457.523 175.599 457.523 179.624C457.523 183.649 454.872 221.644 454.872 221.644C454.872 221.644 438.918 226.308 432.439 215.508" fill="#FFBE9D"/>
<path d="M445.299 168.236C445.299 168.236 443.532 163.376 444.906 159.203C446.33 155.031 451.14 151.791 450.846 149.238C450.551 146.735 453.104 140.697 455.46 141.188C457.817 141.679 459.486 143.937 457.522 147.815C456.295 150.368 455.264 152.969 454.429 155.669C454.429 155.669 478.385 143.201 480.348 142.906C482.312 142.661 484.275 142.366 484.766 143.937C485.257 145.508 480.496 147.471 480.496 147.471L474.065 155.865C472.985 159.056 471.512 162.1 469.598 164.898C466.849 168.629 461.4 171.132 461.4 171.132L454.429 179.526C454.38 179.575 443.777 175.992 445.299 168.236Z" fill="#FFBE9D"/>
<path d="M471.267 151.006C471.366 151.153 469.795 152.233 467.831 153.362C465.819 154.491 464.15 155.325 464.051 155.129C463.953 154.982 465.475 153.902 467.488 152.773C469.5 151.644 471.218 150.858 471.267 151.006Z" fill="#EB996E"/>
<path d="M458.603 156.405C458.505 156.258 460.469 155.62 462.628 156.405C464.837 157.191 465.966 158.811 465.819 158.86C465.672 158.909 464.445 157.681 462.432 156.994C460.37 156.356 458.603 156.602 458.603 156.405Z" fill="#EB996E"/>
<path d="M408.484 217.324C408.386 218.012 426.647 242.703 432.586 247.318C447.117 258.657 457.818 243.292 456.738 230.333C455.658 217.324 417.86 156.307 417.86 156.307L405.637 185.122L408.484 217.324Z" fill="#DCE5F6"/>
<path d="M417.908 156.307C417.908 156.307 406.127 150.416 397.487 147.177C396.358 146.784 391.253 144.968 391.253 144.968L385.068 143.74L346.091 141.973L338.434 143.249V143.348L312.318 149.042L320.271 249.625H361.702H363.616H403.231L417.908 156.307Z" fill="#DCE5F6"/>
<path d="M363.518 249.576H403.132C403.222 249.846 410.653 270.488 416 295H302.5C310.378 272.222 320.516 253.945 320.516 253.945L320.172 249.576H361.603H363.518Z" fill="#374351"/>
<path d="M356.302 264.941C354.977 263.174 352.277 262.094 350.902 263.812H350.951C350.264 264.352 349.773 265.088 349.528 265.873C349.282 266.708 349.282 267.591 349.528 268.426C349.724 268.917 350.019 269.408 350.411 269.751C350.804 270.144 351.246 270.439 351.737 270.635C352.228 270.831 352.768 270.93 353.308 270.93C353.848 270.93 354.388 270.782 354.879 270.586C355.369 270.34 355.811 269.948 356.106 269.506C356.449 269.064 356.695 268.573 356.793 268.033C356.94 267.493 356.94 266.953 356.842 266.413C356.842 265.922 356.597 265.432 356.302 264.941Z" fill="#263238"/>
<path d="M312.76 148.944C307.851 150.613 303.63 153.853 300.782 158.173C295.235 166.321 285.712 245.6 286.007 251.098C286.35 256.595 291.161 270.537 303.973 268.72C316.785 266.904 350.902 243.047 350.902 243.047L339.17 220.319L314.282 232.051L317.669 192.829L312.76 148.944Z" fill="#DCE5F6"/>
<path d="M440.784 182.815L428.855 218.797L444.368 230.038L456.836 235.045C456.836 234.996 459.192 217.079 458.554 223.313L461.303 186.398L440.784 182.815Z" fill="#DCE5F6"/>
<path d="M304.758 190.031L320.27 271.764C320.417 272.55 320.712 273.286 321.153 273.924C321.595 274.562 322.135 275.151 322.822 275.593C323.461 276.035 324.197 276.329 324.982 276.526C325.768 276.673 326.553 276.673 327.339 276.526L387.03 265.039C387.816 264.892 388.552 264.597 389.19 264.155C389.829 263.714 390.418 263.174 390.859 262.486C391.301 261.848 391.596 261.112 391.792 260.326C391.939 259.541 391.939 258.756 391.792 257.97L375.347 174.814C375.2 174.028 374.856 173.292 374.415 172.605C373.973 171.918 373.384 171.378 372.697 170.936C372.009 170.494 371.273 170.2 370.488 170.052C369.702 169.905 368.868 169.905 368.131 170.101L309.323 183.012C307.801 183.355 306.427 184.288 305.592 185.564C304.758 186.89 304.463 188.461 304.758 190.031Z" fill="white"/>
<path d="M344.568 220.172L349.526 217.717C349.526 217.717 351.146 209.176 353.748 206.181C356.35 203.187 360.179 199.751 360.179 198.916C360.179 198.082 361.406 192.486 361.406 192.486C361.406 192.486 363.713 190.473 364.155 194.498C364.449 196.854 364.449 199.211 364.155 201.567L379.716 197.689C381.336 197.296 383.348 197.444 383.152 199.063C382.956 200.683 382.072 201.518 380.845 202.5C380.403 202.892 379.912 203.138 379.372 203.383C379.372 203.383 381.974 205.789 381.974 208.096C381.974 210.403 384.625 215.901 382.219 218.503C379.814 221.104 368.72 229.008 362.878 229.989C357.037 230.971 355.613 232.738 352.864 236.224L344.568 220.172Z" fill="#FFBE9D"/>
<path d="M365.482 201.272C365.531 201.42 363.714 202.5 361.604 204.071C359.542 205.69 357.971 207.163 357.922 207.065C359.935 204.561 362.536 202.549 365.482 201.272Z" fill="#EB996E"/>
<path d="M380.306 202.941C379.128 203.629 377.901 204.169 376.575 204.463C375.299 204.905 374.023 205.298 372.697 205.543C373.875 204.856 375.103 204.316 376.428 204.021C377.655 203.53 378.981 203.187 380.306 202.941Z" fill="#EB996E"/>
<path d="M309.912 231.854L344.127 217.324L356.988 242.949L309.912 266.953V231.854Z" fill="#DCE5F6"/>
<path d="M409.561 133.039C409.267 130.633 409.463 128.179 410.052 125.872C413.096 114.14 409.611 104.175 403.425 96.713C397.829 89.9879 396.455 79.9738 396.455 79.9738C392.331 66.4743 378.488 57.0984 365.823 57.0984C353.158 57.0984 339.315 65.9344 335.241 79.4338C335.241 79.4338 333.376 90.1351 328.221 96.713C322.233 104.322 318.551 114.14 321.594 125.872C322.183 128.179 322.38 130.633 322.085 133.039C321.889 134.806 321.398 136.622 320.367 137.898H411.181C410.249 136.622 409.758 134.806 409.561 133.039Z" fill="#1F2D3D"/>
<path d="M350.067 107.316C350.214 112.225 346.336 116.3 341.428 116.447C336.519 116.594 332.444 112.716 332.297 107.807C332.15 102.898 336.028 98.8239 340.937 98.6767C345.846 98.5785 349.92 102.407 350.067 107.316Z" fill="#FFC3AA"/>
<path d="M336.125 106.335C336.125 106.335 339.659 104.617 343.047 110.753" stroke="#DB7368" stroke-width="0.993998" stroke-miterlimit="10" stroke-linecap="round" stroke-linejoin="round"/>
<path d="M391.446 116.447C396.353 116.447 400.331 112.469 400.331 107.562C400.331 102.655 396.353 98.6768 391.446 98.6768C386.539 98.6768 382.561 102.655 382.561 107.562C382.561 112.469 386.539 116.447 391.446 116.447Z" fill="#FFC3AA"/>
<path d="M396.454 106.187C396.454 106.187 392.87 104.568 389.68 110.802" stroke="#DB7368" stroke-width="0.993998" stroke-miterlimit="10" stroke-linecap="round" stroke-linejoin="round"/>
<path d="M393.223 97.1152C396.798 82.1087 387.53 67.0459 372.523 63.4717C357.517 59.8975 342.454 69.1652 338.88 84.1717C335.306 99.1783 344.573 114.241 359.58 117.815C374.587 121.389 389.649 112.122 393.223 97.1152Z" fill="#1F2D3D"/>
<path d="M377.409 142.71L376.231 125.332C376.231 125.332 371.862 128.867 367.836 129.75C363.811 130.634 359.933 127.983 359.884 127.934C359.835 127.885 355.221 124.842 355.221 124.842L354.092 142.759C353.65 149.533 359.099 155.227 365.873 155.178C372.598 155.129 377.85 149.386 377.409 142.71Z" fill="#FFC3AA"/>
<path d="M390.319 90.9699C390.368 100.591 388.994 108.887 387.57 114.778C386.195 120.57 382.268 124.596 376.721 127.885L375.69 128.474C369.8 131.959 362.191 132.057 356.153 128.768C350.066 125.479 345.845 121.061 344.519 114.876C342.114 103.635 341.77 91.1663 341.77 91.1663C341.77 91.1663 339.758 65.1493 365.922 65.4929C392.135 65.8365 390.319 90.9699 390.319 90.9699Z" fill="#FFC3AA"/>
<path d="M365.136 96.272L363.271 106.384C363.025 107.759 364.056 109.035 365.48 109.035H366.56" stroke="#DB7368" stroke-width="0.993998" stroke-miterlimit="10" stroke-linecap="round" stroke-linejoin="round"/>
<path d="M357.672 112.521H372.791C372.791 112.521 372.202 116.448 364.937 116.448C358.997 116.497 357.672 112.521 357.672 112.521Z" fill="white"/>
<path d="M358.362 100.101C358.362 100.101 354.778 97.1559 351.637 100.101" stroke="#1D0300" stroke-width="1.38052" stroke-miterlimit="10" stroke-linecap="round" stroke-linejoin="round"/>
<path d="M378.586 100.101C378.586 100.101 375.788 97.1065 372.008 100.101" stroke="#1D0300" stroke-width="1.38052" stroke-miterlimit="10" stroke-linecap="round" stroke-linejoin="round"/>
<path d="M348.248 90.6758L349.573 90.2831C352.224 89.5468 354.237 89.3014 356.986 89.3995L358.017 89.4486" stroke="#1F2D3D" stroke-width="2.4105" stroke-miterlimit="10" stroke-linecap="round"/>
<path d="M381.433 90.234L380.107 89.8413C377.457 89.0559 375.444 88.7614 372.695 88.8595L371.664 88.9086" stroke="#1F2D3D" stroke-width="2.4105" stroke-miterlimit="10" stroke-linecap="round"/>
<path opacity="0.23" d="M351.636 90.5281L361.798 104.322C361.798 104.322 358.754 110.164 353.845 109.525L343.586 96.0751C343.635 96.026 346.384 90.1354 351.636 90.5281Z" fill="white"/>
<path opacity="0.23" d="M376.623 90.5281L386.784 104.322C386.784 104.322 383.741 110.164 378.832 109.525L368.572 96.0751C368.572 96.026 371.37 90.1354 376.623 90.5281Z" fill="white"/>
<path d="M362.633 100.1C362.633 105.598 358.166 110.016 352.717 110.016C347.219 110.016 342.801 105.549 342.801 100.1C342.801 94.6022 347.268 90.1842 352.717 90.1842C358.166 90.1351 362.633 94.6022 362.633 100.1Z" stroke="white" stroke-width="0.711198" stroke-miterlimit="10"/>
<path d="M387.619 100.101C387.619 105.599 383.152 110.017 377.703 110.017C372.205 110.017 367.787 105.55 367.787 100.101C367.787 94.603 372.254 90.185 377.703 90.185C383.152 90.1359 387.619 94.603 387.619 100.101Z" stroke="white" stroke-width="0.711198" stroke-miterlimit="10"/>
<path d="M362.633 100.101C362.633 100.101 365.48 99.0699 367.787 100.101" stroke="white" stroke-width="0.711198" stroke-miterlimit="10"/>
<path d="M339.219 85.0302C339.219 85.0302 362.585 80.5631 367.396 63.1857C367.396 63.1857 342.557 54.3497 339.219 85.0302Z" fill="#1F2D3D"/>
<path d="M390.32 85.0302C390.32 85.0302 366.953 80.5631 362.143 63.1857C362.143 63.1857 386.981 54.3497 390.32 85.0302Z" fill="#1F2D3D"/>
<path d="M301.961 234.702L344.03 217.128" stroke="#E8EEF9" stroke-width="0.490888" stroke-miterlimit="10"/>
<path d="M440.783 182.815L431.653 214.134C430.082 219.484 430.671 225.277 433.322 230.186L436.905 236.96" stroke="#E8EEF9" stroke-width="0.490888" stroke-miterlimit="10"/>
<path d="M403.131 249.576L416.679 172.114" stroke="#E8EEF9" stroke-width="0.490888" stroke-miterlimit="10"/>
<path d="M253 241H518V288.38C518 292.036 515.036 295 511.38 295H259.62C255.964 295 253 292.036 253 288.38V241Z" fill="#C0C3C8" fill-opacity="0.5"/>
<rect x="314.5" y="251" width="34" height="34" rx="17" fill="white"/>
<path d="M334.5 266L339.053 263.723C339.718 263.391 340.5 263.874 340.5 264.618V271.382C340.5 272.125 339.718 272.609 339.053 272.276L334.5 270M324.5 274H332.5C333.605 274 334.5 273.104 334.5 272V264C334.5 262.895 333.605 262 332.5 262H324.5C323.395 262 322.5 262.895 322.5 264V272C322.5 273.104 323.395 274 324.5 274Z" stroke="#374351" stroke-width="2" stroke-linecap="round" stroke-linejoin="round"/>
<rect x="368.5" y="251" width="34" height="34" rx="17" fill="white"/>
<path d="M382.728 259.684L381.779 260L381.779 260L382.728 259.684ZM384.226 264.177L383.277 264.493L384.226 264.177ZM383.724 265.388L384.171 266.282L384.171 266.282L383.724 265.388ZM381.469 266.515L381.021 265.621C380.541 265.861 380.336 266.437 380.557 266.926L381.469 266.515ZM386.984 272.032L386.573 272.944C387.063 273.165 387.639 272.96 387.879 272.479L386.984 272.032ZM388.113 269.775L389.007 270.223V270.223L388.113 269.775ZM389.323 269.274L389.64 268.325H389.64L389.323 269.274ZM393.817 270.772L393.501 271.72L393.817 270.772ZM391.501 277V276C390.949 276 390.501 276.447 390.501 277H391.501ZM391.501 277L391.501 278C391.767 278 392.021 277.894 392.208 277.707C392.396 277.519 392.501 277.265 392.501 277H391.501ZM376.501 262.001L377.501 262.001C377.501 261.774 377.424 261.554 377.282 261.377L376.501 262.001ZM376.5 262H375.5C375.5 262.227 375.577 262.447 375.719 262.624L376.5 262ZM378.5 258C376.843 258 375.5 259.343 375.5 261H377.5C377.5 260.447 377.948 260 378.5 260V258ZM381.779 258H378.5V260H381.779V258ZM383.677 259.367C383.404 258.551 382.64 258 381.779 258V260L381.779 260L383.677 259.367ZM385.174 263.861L383.677 259.367L381.779 260L383.277 264.493L385.174 263.861ZM384.171 266.282C385.062 265.837 385.489 264.805 385.174 263.861L383.277 264.493L383.277 264.493L384.171 266.282ZM381.916 267.41L384.171 266.282L383.277 264.493L381.021 265.621L381.916 267.41ZM387.395 271.121C385.173 270.119 383.382 268.327 382.38 266.105L380.557 266.926C381.759 269.593 383.906 271.741 386.573 272.944L387.395 271.121ZM387.218 269.328L386.09 271.585L387.879 272.479L389.007 270.223L387.218 269.328ZM389.64 268.325C388.695 268.01 387.664 268.438 387.218 269.328L389.007 270.223L389.007 270.223L389.64 268.325ZM394.133 269.823L389.64 268.325L389.007 270.223L393.501 271.72L394.133 269.823ZM395.501 271.72C395.501 270.86 394.95 270.095 394.133 269.823L393.501 271.72H395.501ZM395.501 275V271.72H393.501V275H395.501ZM392.501 278C394.158 278 395.501 276.656 395.501 275H393.501C393.501 275.552 393.053 276 392.501 276V278ZM391.501 278H392.501V276H391.501V278ZM392.501 277V277H390.501V277H392.501ZM375.501 262.002C375.502 270.837 382.665 278 391.501 278L391.501 276C383.77 276 377.502 269.733 377.501 262.001L375.501 262.002ZM375.719 262.624L375.72 262.626L377.282 261.377L377.281 261.375L375.719 262.624ZM375.5 261V262H377.5V261H375.5Z" fill="#374351"/>
<rect x="422.5" y="251" width="34" height="34" rx="17" fill="white"/>
<path d="M446.5 267C446.5 270.866 443.366 274 439.5 274M439.5 274C435.634 274 432.5 270.866 432.5 267M439.5 274V278M439.5 278H435.5M439.5 278H443.5" stroke="#374351" stroke-width="2" stroke-linecap="round" stroke-linejoin="round"/>
<path d="M436.5 261C436.5 259.343 437.843 258 439.5 258C441.157 258 442.5 259.343 442.5 261V267C442.5 268.657 441.157 270 439.5 270C437.843 270 436.5 268.657 436.5 267V261Z" stroke="#374351" stroke-width="2" stroke-linecap="round" stroke-linejoin="round"/>
<path d="M84.167 317H205.667C208.612 317 211 319.388 211 322.333V348.333C211 351.279 208.612 353.667 205.667 353.667H200.333V364.333L189.667 353.667H84.167C81.2215 353.667 78.8337 351.279 78.8337 348.333V322.333C78.8337 319.388 81.2215 317 84.167 317Z" fill="#FEDB6B" stroke="#FEDB6B" stroke-width="5.33333" stroke-linecap="round" stroke-linejoin="round"/>
<path d="M174.238 380.883H8.33333C5.38781 380.883 3 383.271 3 386.216V432.216C3 435.162 5.38781 437.549 8.33333 437.549H13.6667V448.216L24.3333 437.549H174.238C177.184 437.549 179.571 435.162 179.571 432.216V386.216C179.571 383.271 177.184 380.883 174.238 380.883Z" fill="#93D0EF" stroke="#93D0EF" stroke-width="5.33333" stroke-linecap="round" stroke-linejoin="round"/>
<defs>
<filter id="filter0_dd" x="71.8906" y="36.5938" width="408.461" height="129.691" filterUnits="userSpaceOnUse" color-interpolation-filters="sRGB">
<feFlood flood-opacity="0" result="BackgroundImageFix"/>
<feColorMatrix in="SourceAlpha" type="matrix" values="0 0 0 0 0 0 0 0 0 0 0 0 0 0 0 0 0 0 127 0"/>
<feOffset dy="1.70312"/>
<feGaussianBlur stdDeviation="1.70312"/>
<feColorMatrix type="matrix" values="0 0 0 0 0.121569 0 0 0 0 0.176471 0 0 0 0 0.239216 0 0 0 0.06 0"/>
<feBlend mode="normal" in2="BackgroundImageFix" result="effect1_dropShadow"/>
<feColorMatrix in="SourceAlpha" type="matrix" values="0 0 0 0 0 0 0 0 0 0 0 0 0 0 0 0 0 0 127 0"/>
<feOffset dy="1.70312"/>
<feGaussianBlur stdDeviation="2.55469"/>
<feColorMatrix type="matrix" values="0 0 0 0 0.121569 0 0 0 0 0.176471 0 0 0 0 0.239216 0 0 0 0.1 0"/>
<feBlend mode="normal" in2="effect1_dropShadow" result="effect2_dropShadow"/>
<feBlend mode="normal" in="SourceGraphic" in2="effect2_dropShadow" result="shape"/>
</filter>
<filter id="filter1_dd" x="71.8906" y="319.165" width="408.461" height="103.142" filterUnits="userSpaceOnUse" color-interpolation-filters="sRGB">
<feFlood flood-opacity="0" result="BackgroundImageFix"/>
<feColorMatrix in="SourceAlpha" type="matrix" values="0 0 0 0 0 0 0 0 0 0 0 0 0 0 0 0 0 0 127 0"/>
<feOffset dy="1.70312"/>
<feGaussianBlur stdDeviation="1.70312"/>
<feColorMatrix type="matrix" values="0 0 0 0 0.121569 0 0 0 0 0.176471 0 0 0 0 0.239216 0 0 0 0.06 0"/>
<feBlend mode="normal" in2="BackgroundImageFix" result="effect1_dropShadow"/>
<feColorMatrix in="SourceAlpha" type="matrix" values="0 0 0 0 0 0 0 0 0 0 0 0 0 0 0 0 0 0 127 0"/>
<feOffset dy="1.70312"/>
<feGaussianBlur stdDeviation="2.55469"/>
<feColorMatrix type="matrix" values="0 0 0 0 0.121569 0 0 0 0 0.176471 0 0 0 0 0.239216 0 0 0 0.1 0"/>
<feBlend mode="normal" in2="effect1_dropShadow" result="effect2_dropShadow"/>
<feBlend mode="normal" in="SourceGraphic" in2="effect2_dropShadow" result="shape"/>
</filter>
</defs>
</svg>
