<svg width="51" height="50" viewBox="0 0 51 50" fill="none" xmlns="http://www.w3.org/2000/svg">
<path d="M13.9141 48.5703L2.0625 1.4375L48.9375 14.6016" fill="white"/>
<path d="M19.7031 28.3125L22.6641 40.1016" stroke="black" stroke-width="0.4989" stroke-miterlimit="10"/>
<path d="M31.3984 31.625L19.7031 28.3125" stroke="black" stroke-width="0.4989" stroke-miterlimit="10"/>
<path d="M22.6641 40.1016L31.3984 31.625" stroke="black" stroke-width="0.4989" stroke-miterlimit="10"/>
<path d="M22.6641 40.1016L10.9688 36.7891" stroke="black" stroke-width="0.4989" stroke-miterlimit="10"/>
<path d="M10.9688 36.7891L13.9297 48.5859L22.6641 40.1016" stroke="black" stroke-width="0.4989" stroke-miterlimit="10"/>
<path d="M10.9688 36.7891L19.7031 28.3125" stroke="black" stroke-width="0.4989" stroke-miterlimit="10"/>
<path d="M19.7031 28.3125L28.4453 19.8281" stroke="black" stroke-width="0.4989" stroke-miterlimit="10"/>
<path d="M28.4453 19.8281L37.1797 11.3516" stroke="black" stroke-width="0.4989" stroke-miterlimit="10"/>
<path d="M25.4844 8.03906L28.4453 19.8281" stroke="black" stroke-width="0.4989" stroke-miterlimit="10"/>
<path d="M28.4453 19.8281L16.7422 16.5234" stroke="black" stroke-width="0.4989" stroke-miterlimit="10"/>
<path d="M16.7422 16.5234L19.7031 28.3125" stroke="black" stroke-width="0.4989" stroke-miterlimit="10"/>
<path d="M19.7031 28.3125L8.00781 25" stroke="black" stroke-width="0.4989" stroke-miterlimit="10"/>
<path d="M8.00781 25L10.9688 36.7891" stroke="black" stroke-width="0.4989" stroke-miterlimit="10"/>
<path d="M5.04688 13.2109L8.00781 25" stroke="black" stroke-width="0.4989" stroke-miterlimit="10"/>
<path d="M16.7422 16.5234L5.04688 13.2109" stroke="black" stroke-width="0.4989" stroke-miterlimit="10"/>
<path d="M8.00781 25L16.7422 16.5234" stroke="black" stroke-width="0.4989" stroke-miterlimit="10"/>
<path d="M16.7422 16.5156L25.4844 8.03906" stroke="black" stroke-width="0.4989" stroke-miterlimit="10"/>
<path d="M25.4844 8.03906L13.7812 4.72656" stroke="black" stroke-width="0.4989" stroke-miterlimit="10"/>
<path d="M13.7812 4.72656L16.7422 16.5156" stroke="black" stroke-width="0.4989" stroke-miterlimit="10"/>
<path d="M5.04687 13.2109L2.08594 1.41406L13.7812 4.72656" stroke="black" stroke-width="0.4989" stroke-miterlimit="10"/>
<path d="M5.04688 13.2109L13.7813 4.72656" stroke="black" stroke-width="0.4989" stroke-miterlimit="10"/>
<path d="M40.1406 23.1406L48.875 14.6641L37.1797 11.3516" stroke="black" stroke-width="0.4989" stroke-miterlimit="10"/>
<path d="M37.1797 11.3516L40.1406 23.1406" stroke="black" stroke-width="0.4989" stroke-miterlimit="10"/>
<path d="M40.1406 23.1406L28.4453 19.8281" stroke="black" stroke-width="0.4989" stroke-miterlimit="10"/>
<path d="M28.4453 19.8281L31.3984 31.625" stroke="black" stroke-width="0.4989" stroke-miterlimit="10"/>
<path d="M31.3984 31.625L40.1406 23.1406" stroke="black" stroke-width="0.4989" stroke-miterlimit="10"/>
<path d="M37.1797 11.3516L25.4844 8.03906" stroke="black" stroke-width="0.4989" stroke-miterlimit="10"/>
</svg>
