<svg width="48" height="49" viewBox="0 0 48 49" fill="none" xmlns="http://www.w3.org/2000/svg">
<path d="M20.0018 20.5283H10.4739C7.50038 20.5283 5.5664 23.6576 6.8962 26.3172L13.8962 40.3172C14.5738 41.6723 15.9588 42.5283 17.4739 42.5283H25.5093C25.8364 42.5283 26.1622 42.4882 26.4795 42.4089L34.0018 40.5283V22.5283L27.2171 12.3513C26.4246 11.1626 26.0018 9.76598 26.0018 8.33738C26.0018 7.33826 25.1918 6.52832 24.1927 6.52832H24.0018C21.7926 6.52832 20.0018 8.31919 20.0018 10.5283V20.5283Z" fill="#D8E3F5"/>
<path d="M20.0018 20.5283H10.4739C7.50038 20.5283 5.5664 23.6576 6.8962 26.3172L13.8962 40.3172C14.5738 41.6723 15.9588 42.5283 17.4739 42.5283H25.5094C25.8364 42.5283 26.1622 42.4882 26.4795 42.4089L34.0018 40.5283V22.5283L27.2171 12.3513C26.4246 11.1626 26.0018 9.76598 26.0018 8.33738C26.0018 7.33826 25.1918 6.52832 24.1927 6.52832H24.0018C21.7926 6.52832 20.0018 8.31919 20.0018 10.5283V20.5283ZM20.0018 20.5283H24.0018" stroke="#D8E3F5" stroke-width="4" stroke-linecap="round" stroke-linejoin="round"/>
<path d="M34 40.5283L33 20.5283H38C40.2091 20.5283 42 22.3192 42 24.5283V36.5283C42 38.7375 40.2091 40.5283 38 40.5283H34Z" fill="#6EBFE9" stroke="#6EBFE9" stroke-width="4" stroke-linecap="round" stroke-linejoin="round"/>
</svg>
