<svg width="721" height="705" viewBox="0 0 721 705" fill="none" xmlns="http://www.w3.org/2000/svg">
<path fill-rule="evenodd" clip-rule="evenodd" d="M627.516 238.951L517.804 570.959L168.143 569.227L61.6353 236.082L345.543 31.9604L627.516 238.951Z" fill="#F0F4FB"/>
<g clip-path="url(#clip0)">
<path d="M414.426 575.653L247.372 575.522C227.31 575.522 211.051 559.262 211.051 539.135L211.116 120.387C211.116 100.259 227.441 84 247.569 84L414.622 84.0656C434.684 84.0656 451.009 100.391 451.009 120.453L450.944 539.2C450.878 559.394 434.553 575.653 414.426 575.653Z" fill="#4D5763"/>
<path d="M414.426 98.8833H382.038C377.711 98.8833 374.17 102.555 374.17 107.079V112.979C374.17 117.503 370.63 121.174 366.303 121.174L303.166 121.109C298.839 121.109 295.299 117.437 295.299 112.914V107.013C295.299 102.489 291.758 98.8177 287.431 98.8177H276.023H247.7C233.604 98.8177 222.196 110.226 222.196 124.321L222.131 533.104C222.131 547.2 233.539 558.607 247.569 558.607L414.295 558.673C428.39 558.673 439.798 547.265 439.798 533.169L439.864 124.387C439.864 110.357 428.456 98.9488 414.426 98.8833Z" fill="#F7F9FD" stroke="#4F5B6C" stroke-width="1.31125" stroke-miterlimit="10" stroke-linecap="round"/>
<path d="M404.722 213.093H254.256C246.716 213.093 240.619 206.996 240.619 199.456V194.408C240.619 186.868 246.716 180.771 254.256 180.771H404.722C412.262 180.771 418.359 186.868 418.359 194.408V199.456C418.359 206.996 412.262 213.093 404.722 213.093Z" fill="#F0F4FB"/>
<path d="M303.297 254.334H411.213" stroke="#646E79" stroke-width="1.31125" stroke-miterlimit="10" stroke-linecap="round"/>
<path d="M303.297 245.81H360.73" stroke="#646E79" stroke-width="1.31125" stroke-miterlimit="10" stroke-linecap="round"/>
<path d="M303.297 263.119H409.967" stroke="#646E79" stroke-width="1.31125" stroke-miterlimit="10" stroke-linecap="round"/>
<path d="M303.297 271.511H366.237" stroke="#646E79" stroke-width="1.31125" stroke-miterlimit="10" stroke-linecap="round"/>
<path d="M303.297 319.896H411.213" stroke="#646E79" stroke-width="1.31125" stroke-miterlimit="10" stroke-linecap="round"/>
<path d="M303.297 311.372H360.73" stroke="#646E79" stroke-width="1.31125" stroke-miterlimit="10" stroke-linecap="round"/>
<path d="M303.297 328.682H409.967" stroke="#646E79" stroke-width="1.31125" stroke-miterlimit="10" stroke-linecap="round"/>
<path d="M303.297 337.073H366.237" stroke="#646E79" stroke-width="1.31125" stroke-miterlimit="10" stroke-linecap="round"/>
<path d="M303.297 385.459H411.213" stroke="#646E79" stroke-width="1.31125" stroke-miterlimit="10" stroke-linecap="round"/>
<path d="M303.297 376.935H360.73" stroke="#646E79" stroke-width="1.31125" stroke-miterlimit="10" stroke-linecap="round"/>
<path d="M303.297 394.244H409.967" stroke="#646E79" stroke-width="1.31125" stroke-miterlimit="10" stroke-linecap="round"/>
<path d="M303.297 402.635H366.237" stroke="#646E79" stroke-width="1.31125" stroke-miterlimit="10" stroke-linecap="round"/>
<path d="M303.297 451.021H411.213" stroke="#646E79" stroke-width="1.31125" stroke-miterlimit="10" stroke-linecap="round"/>
<path d="M303.297 442.497H360.73" stroke="#646E79" stroke-width="1.31125" stroke-miterlimit="10" stroke-linecap="round"/>
<path d="M303.297 459.807H409.967" stroke="#646E79" stroke-width="1.31125" stroke-miterlimit="10" stroke-linecap="round"/>
<path d="M303.297 468.198H366.237" stroke="#646E79" stroke-width="1.31125" stroke-miterlimit="10" stroke-linecap="round"/>
<path d="M303.297 516.584H411.213" stroke="#646E79" stroke-width="1.31125" stroke-miterlimit="10" stroke-linecap="round"/>
<path d="M303.297 508.06H360.73" stroke="#646E79" stroke-width="1.31125" stroke-miterlimit="10" stroke-linecap="round"/>
<path d="M303.297 525.369H409.967" stroke="#646E79" stroke-width="1.31125" stroke-miterlimit="10" stroke-linecap="round"/>
<path d="M303.297 533.76H366.237" stroke="#646E79" stroke-width="1.31125" stroke-miterlimit="10" stroke-linecap="round"/>
<path d="M287.038 239.646H248.159V278.525H287.038V239.646Z" fill="#CBE8F7"/>
<path d="M287.038 369.263H248.159V408.141H287.038V369.263Z" fill="#FEF1C6"/>
<path d="M287.038 434.105H248.159V472.983H287.038V434.105Z" fill="#F7C0C2"/>
<path d="M287.038 498.881H248.159V537.759H287.038V498.881Z" fill="#CBE8F7"/>
<path d="M287.038 304.488H248.159V343.367H287.038V304.488Z" fill="#B5E1CD"/>
<path d="M401.838 143.072H421.244" stroke="#646E79" stroke-width="1.31125" stroke-miterlimit="10" stroke-linecap="round"/>
<path d="M401.838 148.055H421.31" stroke="#646E79" stroke-width="1.31125" stroke-miterlimit="10" stroke-linecap="round"/>
<path d="M401.903 153.039H421.31" stroke="#646E79" stroke-width="1.31125" stroke-miterlimit="10" stroke-linecap="round"/>
<path d="M262.977 143.073L257.076 137.172C256.552 136.648 255.765 136.648 255.24 137.172L249.34 143.073C249.077 143.335 248.946 143.663 248.946 143.991V151.989C248.946 152.382 249.209 152.645 249.602 152.645H253.536C253.929 152.645 254.191 152.382 254.191 151.989V148.055C254.191 147.334 254.781 146.744 255.503 146.744H256.814C257.535 146.744 258.125 147.334 258.125 148.055V151.989C258.125 152.382 258.387 152.645 258.781 152.645H262.714C263.108 152.645 263.37 152.382 263.37 151.989V143.991C263.37 143.663 263.239 143.335 262.977 143.073Z" stroke="#646E79" stroke-width="1.31125" stroke-miterlimit="10" stroke-linecap="round"/>
<path d="M478.283 155.399C478.283 155.399 478.021 141.762 461.171 140.254C450.419 139.27 450.354 144.647 439.47 143.925C429.57 143.335 420.129 149.957 422.555 161.693C424.587 171.527 439.601 176.969 439.601 176.969L478.283 155.399Z" fill="#1F2D3D"/>
<path d="M445.436 196.964L443.403 208.7C442.158 215.65 446.747 222.272 453.631 223.517C461.171 224.894 468.251 219.387 468.71 211.716L469.628 184.573L445.436 196.964Z" fill="#FFC3AA"/>
<path d="M466.35 182.606L464.186 180.574L465.76 168.642C465.956 167.33 465.17 166.085 463.924 165.822C461.826 165.298 459.007 163.855 459.007 159.922C458.941 153.693 462.416 150.087 462.416 150.087C462.416 150.087 481.495 147.071 484.117 161.102C485.953 170.871 480.446 194.67 467.202 202.144L466.35 182.606Z" fill="#1F2D3D"/>
<path d="M463.924 152.448C463.924 152.448 458.22 157.627 448.714 156.906C439.142 156.185 437.372 153.628 433.766 157.562C433.766 157.562 434.749 144.318 452.058 143.794C469.366 143.269 467.989 154.546 467.989 154.546L463.924 152.448Z" fill="#1F2D3D"/>
<path d="M434.29 157.365C433.11 159.07 431.143 162.217 431.274 167.331C431.471 174.281 432.061 191.392 435.994 198.342C440.977 207.193 447.599 210.34 460.974 206.209C460.974 206.209 474.217 203.062 476.119 179.788C479.003 144.384 446.157 139.991 434.29 157.365Z" fill="#1F2D3D"/>
<path d="M524.766 546.217L532.043 573.032L508.441 575.195L503.458 549.626L524.766 546.217Z" fill="#4F5B6C"/>
<g opacity="0.6">
<g opacity="0.6">
<g opacity="0.6">
<path opacity="0.6" d="M532.044 573.031L508.441 575.195L508.048 573.228L531.388 570.277L532.044 572.769" fill="white"/>
</g>
</g>
</g>
<path d="M427.276 539.003L428.849 562.868C428.849 562.868 405.116 570.735 404.919 575.194L451.337 575.522L450.419 538.216L427.276 539.003Z" fill="#4F5B6C"/>
<g opacity="0.6">
<g opacity="0.6">
<path opacity="0.6" d="M451.336 575.521L451.27 571.784L406.425 573.03C406.425 573.03 404.917 573.685 404.721 575.521H451.336Z" fill="white"/>
</g>
</g>
<path d="M427.276 331.565L498.018 331.04L532.176 555.526L502.804 559.264L465.171 374.64L453.96 559.919L453.894 560.509L422.162 559.919L427.276 331.565Z" fill="#1F2D3D"/>
<path d="M373.514 228.369C373.514 228.369 365.253 215.978 364.991 215.847C364.991 215.847 357.517 203.259 355.025 203.259C352.534 203.259 353.452 205.816 356.009 210.34C358.238 214.273 358.5 216.765 358.5 216.765L352.337 220.502C352.337 220.502 348.207 218.928 348.076 222.731C348.01 223.977 348.338 225.616 348.797 227.91C349.059 229.287 349.649 230.73 350.96 230.205C351.551 229.943 352.009 229.549 352.075 228.697C352.141 226.468 351.747 225.616 352.009 225.616C352.403 225.616 356.402 237.483 356.402 237.483L373.514 228.369Z" fill="#FFC3AA"/>
<path d="M356.795 218.666C356.139 218.207 355.549 217.814 354.828 217.486C354.107 217.158 353.32 217.027 352.599 217.158C352.14 217.224 351.681 217.42 351.353 217.814C350.96 218.338 350.894 219.059 351.091 219.715C351.287 220.371 351.681 220.895 352.074 221.42" fill="#FFC3AA"/>
<path d="M359.615 216.109C359.025 215.716 358.434 215.322 357.779 214.994C357.123 214.732 356.402 214.536 355.681 214.667C355.222 214.732 354.763 214.929 354.501 215.322C354.107 215.781 354.107 216.502 354.304 217.092C354.501 217.683 355.812 219.059 356.205 219.518" fill="#FFC3AA"/>
<path d="M370.629 221.354L382.561 246.923L369.383 260.429L362.499 241.351C362.499 241.351 358.827 242.072 357.319 239.646C355.615 236.892 353.451 229.025 353.451 229.025L370.629 221.354Z" fill="#FFBF9D"/>
<path d="M362.105 220.698C361.908 220.764 361.253 219.19 360.138 217.551C358.958 215.978 357.45 215.191 357.581 214.929C357.647 214.798 359.417 215.257 360.728 217.092C361.974 218.928 362.236 220.633 362.105 220.698Z" fill="#FF9A6C"/>
<path d="M348.795 220.765C348.73 220.699 349.058 220.306 349.844 220.044C350.565 219.781 351.811 219.716 352.926 220.306C354.04 220.961 354.63 221.945 354.958 222.6C355.286 223.256 355.417 223.715 355.352 223.781C355.286 223.846 354.958 223.453 354.565 222.863C354.106 222.273 353.516 221.486 352.598 220.961C351.68 220.437 350.697 220.437 350.041 220.568C349.254 220.634 348.861 220.896 348.795 220.765Z" fill="#FF9A6C"/>
<path d="M353.254 217.158C353.254 216.961 354.959 216.895 356.532 218.272C358.04 219.584 358.433 221.223 358.237 221.288C358.04 221.419 357.384 220.042 356.008 218.862C354.696 217.682 353.254 217.354 353.254 217.158Z" fill="#FF9A6C"/>
<path d="M350.304 222.666C350.501 222.731 350.566 223.452 351.025 224.239C351.484 225.026 352.14 225.354 352.074 225.55C352.074 225.747 351.025 225.616 350.37 224.633C349.78 223.649 350.107 222.6 350.304 222.666Z" fill="#FF9A6C"/>
<path d="M373.513 227.911C373.513 227.911 373.907 220.305 372.071 218.535C370.235 216.831 364.925 218.601 364.925 218.601" fill="#FFC3AA"/>
<path d="M364.203 214.929C364.334 214.798 365.842 216.568 367.481 218.863C369.12 221.157 370.366 223.124 370.169 223.255C369.973 223.386 368.53 221.616 366.891 219.322C365.252 217.027 364.006 215.06 364.203 214.929Z" fill="#FF9A6C"/>
<path d="M493.034 221.879C492.837 220.83 492.575 219.65 492.247 218.273C491.919 217.093 491.395 215.978 490.739 214.929C489.887 213.683 488.707 212.11 487.789 211.389C486.674 210.536 487.133 208.766 488.445 208.766C489.756 208.766 492.903 210.995 495.066 214.995C497.23 218.994 498.541 211.913 499.066 209.422C499.59 206.865 501.557 199.063 502.475 198.604C503.786 197.948 504.77 199.26 504.18 201.751C503.59 204.308 502.409 212.044 503.786 212.241C505.097 212.438 507.589 199.391 507.589 199.391C507.589 199.391 507.654 196.506 509.228 196.703C512.113 197.031 508.441 210.733 508.113 211.979C507.851 212.897 509.293 213.159 509.556 212.175C509.818 211.192 511.719 199.129 514.604 199.456C516.833 199.719 511.719 210.733 512.703 213.421C513.686 216.109 515.719 204.636 517.817 204.964C518.603 205.095 519.193 205.291 517.095 211.717C516.046 214.864 512.113 229.418 512.113 229.418L514.407 241.416L496.247 246.006L493.034 221.879Z" fill="#FFC3AA"/>
<path d="M496.051 219.519L527.259 275.378C529.094 280.099 528.045 286.262 524.833 290.195L525.489 289.277C522.932 292.424 519.129 294.26 515.13 294.26H514.54C509.229 294.26 504.443 291.113 502.345 286.262L495.002 275.116L496.051 219.519Z" fill="#C9B1E5"/>
<path d="M428.39 215.585C434.488 212.438 440.585 211.717 447.141 211.586C454.812 211.389 465.695 210.274 473.956 211.192C473.956 211.192 499.198 210.406 499.329 230.009L495.985 305.078L501.361 337.269L425.702 339.564L426.227 301.603C425.309 281.869 427.276 253.873 427.276 253.873C426.096 243.252 420.326 238.466 419.474 231.582C418.818 225.354 422.949 218.339 428.39 215.585Z" fill="#C9B1E5"/>
<path d="M515.195 236.368C515.195 236.368 518.079 244.76 518.538 245.875C518.538 245.875 525.619 266.264 527.914 280.098L505.36 239.318C505.164 239.384 514.932 236.499 515.195 236.368Z" fill="#C9B1E5"/>
<path d="M504.115 233.943C504.181 233.943 504.64 234.664 505.492 236.041C506.41 237.483 507.59 239.45 509.032 241.81C511.983 246.727 516.375 253.284 520.768 260.889C522.932 264.691 524.767 268.429 526.406 271.903C527.98 275.378 528.767 278.853 528.504 281.803C528.242 284.688 527.324 286.917 526.472 288.294" stroke="#9264CA" stroke-width="0.33568" stroke-miterlimit="10"/>
<path d="M364.926 254.792L382.431 243.318L393.445 262.463C393.445 262.463 408.787 241.155 415.737 228.698C422.162 217.225 430.423 214.143 434.422 213.291C435.602 213.029 436.651 214.012 436.52 215.258L430.488 256.628C429.702 258.791 417.114 277.083 410.033 286.327C398.232 301.735 380.857 291.835 376.137 281.082C372.4 272.559 366.499 259.578 364.926 254.792Z" fill="#C9B1E5"/>
<path d="M449.436 382.835L471.202 372.017" stroke="#4F5B6C" stroke-width="0.655625" stroke-miterlimit="10"/>
<path d="M488.839 379.95C488.839 379.95 470.35 380.999 465.171 374.705" stroke="#4F5B6C" stroke-width="0.655625" stroke-miterlimit="10"/>
<path d="M450.354 388.277C450.354 388.277 459.663 384.343 462.483 376.344" stroke="#4F5B6C" stroke-width="0.655625" stroke-miterlimit="10"/>
<path d="M499.132 232.762L496.051 302.783" stroke="#9264CA" stroke-width="0.33568" stroke-miterlimit="10"/>
<path d="M435.603 218.404C435.603 218.404 448.781 229.222 437.176 247.448C425.637 265.74 419.475 273.411 419.475 273.411" stroke="#9264CA" stroke-width="0.33568" stroke-miterlimit="10"/>
</g>
<defs>
<clipPath id="clip0">
<rect width="321.125" height="491.653" fill="white" transform="translate(211.051 84)"/>
</clipPath>
</defs>
</svg>
