<svg viewBox="0 0 740 729" fill="none" xmlns="http://www.w3.org/2000/svg">
<path fill-rule="evenodd" clip-rule="evenodd" d="M643.883 250.157L531.142 591.331L171.827 589.551L62.3787 247.208L354.125 37.4508L643.883 250.157Z" fill="#F4F7FC"/>
<rect x="41.2773" width="360" height="294" rx="10" fill="#FCFDFE"/>
<circle cx="56.2773" cy="15" r="5" fill="#F5B0B2"/>
<circle cx="71.2773" cy="15" r="5" fill="#FEE182"/>
<circle cx="86.2773" cy="15" r="5" fill="#A2D9C0"/>
<path d="M386.277 30H56.2773C53.5159 30 51.2773 32.2386 51.2773 35V195C51.2773 197.761 53.5159 200 56.2773 200H386.277C389.039 200 391.277 197.761 391.277 195V35C391.277 32.2386 389.039 30 386.277 30Z" fill="#F0F9FD"/>
<mask id="mask0" mask-type="alpha" maskUnits="userSpaceOnUse" x="51" y="30" width="341" height="170">
<path d="M386.277 30H56.2773C53.5159 30 51.2773 32.2386 51.2773 35V195C51.2773 197.761 53.5159 200 56.2773 200H386.277C389.039 200 391.277 197.761 391.277 195V35C391.277 32.2386 389.039 30 386.277 30Z" fill="#F0F9FD"/>
</mask>
<g mask="url(#mask0)">
<path d="M44.4775 200V191.917C44.4775 190.564 45.026 189.269 45.9976 188.327L160.078 77.7544C162.091 75.8037 165.314 75.8882 167.222 77.9418L234.216 150.061C235.979 151.959 238.9 152.196 240.946 150.607L286.557 115.187C288.297 113.836 290.715 113.783 292.513 115.055L395.967 188.306C397.291 189.243 398.078 190.764 398.078 192.386V200H44.4775Z" fill="#8ED1B2"/>
<path d="M255.277 91.2C264.666 91.2 272.277 83.5888 272.277 74.2C272.277 64.8111 264.666 57.2 255.277 57.2C245.889 57.2 238.277 64.8111 238.277 74.2C238.277 83.5888 245.889 91.2 255.277 91.2Z" fill="#FEDB6B"/>
</g>
<rect x="51.2773" y="210" width="200" height="8" rx="4" fill="#E8EEF9"/>
<rect x="51.2773" y="228" width="200" height="4" rx="2" fill="#E8EEF9"/>
<rect x="51.2773" y="242" width="200" height="4" rx="2" fill="#E8EEF9"/>
<rect x="51.2773" y="256" width="200" height="4" rx="2" fill="#E8EEF9"/>
<rect x="51.2773" y="270" width="80" height="4" rx="2" fill="#E8EEF9"/>
<g clip-path="url(#clip0)">
<path d="M406.221 150.806L396.604 178.998L421.503 184.926V163.321L416.629 142.111L406.221 150.806Z" fill="#FFC3AA"/>
<path d="M435.995 81.1164C428.222 72.8169 417.683 74.793 408.857 76.769C406.881 74.793 398.318 73.2121 392.258 74.793C379.611 78.2181 361.826 96.6614 380.006 156.866H449.959C453.648 134.997 453.253 99.5597 435.995 81.1164Z" fill="#1F2D3D"/>
<path d="M400.688 136.973L401.215 156.207C401.347 163.057 407.012 168.59 413.862 168.722C421.503 168.722 427.431 162.267 426.641 154.758L422.689 118.135L400.688 136.973Z" fill="#FFC3AA"/>
<path d="M385.143 87.9667C383.036 89.6793 381.718 92.1823 381.191 94.9488C379.61 102.853 376.449 119.452 379.347 127.883C383.036 138.818 391.994 145.8 406.353 143.033C406.353 143.033 423.084 142.243 427.168 117.739C433.096 82.9607 403.192 72.8169 385.143 87.9667Z" fill="#FFC3AA"/>
<path d="M404.509 83.2241C404.509 83.2241 388.569 81.1163 381.06 94.9488C381.06 94.9488 381.85 74.7929 406.09 77.5594L404.509 83.2241Z" fill="#1F2D3D"/>
<path d="M404.509 83.2241C404.509 83.2241 413.203 83.7511 415.048 92.4458C416.365 99.0327 410.042 106.278 420.317 116.949L430.856 107.859C430.856 107.859 437.97 77.2959 406.221 77.4277L404.509 83.2241Z" fill="#1F2D3D"/>
<path d="M384.222 112.602C383.958 113.655 382.904 114.182 381.85 113.919C380.796 113.655 380.269 112.602 380.533 111.548C380.796 110.494 381.85 109.967 382.904 110.23C383.826 110.625 384.485 111.679 384.222 112.602Z" fill="#101010"/>
<path d="M400.294 112.997C400.03 114.051 398.977 114.578 397.923 114.314C396.869 114.051 396.342 112.997 396.605 111.943C396.869 110.889 397.923 110.362 398.977 110.626C400.03 110.889 400.557 111.943 400.294 112.997Z" fill="#101010"/>
<path d="M390.15 106.805L386.461 117.608C385.934 119.188 386.857 121.033 388.437 121.428" stroke="#FF9574" stroke-width="1.1336" stroke-miterlimit="10" stroke-linecap="round" stroke-linejoin="round"/>
<path d="M386.593 125.907L397.264 124.721C397.264 124.721 397.922 129.069 392.653 129.727C387.383 130.386 386.593 125.907 386.593 125.907Z" fill="white"/>
<path d="M384.09 102.458C384.09 102.458 380.796 101.931 376.317 104.697" stroke="#1F2D3D" stroke-width="3.34917" stroke-miterlimit="10" stroke-linecap="round"/>
<path d="M395.156 102.458C395.156 102.458 403.587 100.745 407.935 104.697" stroke="#1F2D3D" stroke-width="3.34917" stroke-miterlimit="10" stroke-linecap="round"/>
<path d="M386.329 112.075C386.329 115.895 383.563 118.925 380.006 118.925C376.581 118.925 373.683 115.895 373.683 112.075C373.683 108.254 376.449 105.224 380.006 105.224C383.563 105.224 386.329 108.386 386.329 112.075Z" stroke="white" stroke-width="1.07353" stroke-miterlimit="10"/>
<path d="M407.276 112.733C407.276 116.554 404.114 119.584 400.294 119.584C396.473 119.584 393.312 116.554 393.312 112.733C393.312 108.913 396.473 105.883 400.294 105.883C404.114 105.883 407.276 108.913 407.276 112.733Z" stroke="white" stroke-width="1.12899" stroke-miterlimit="10"/>
<path d="M386.329 112.075C386.329 112.075 389.886 109.572 393.311 112.733" stroke="white" stroke-width="1.12899" stroke-miterlimit="10"/>
<path d="M407.275 112.733L423.084 111.943" stroke="white" stroke-width="1.12899" stroke-miterlimit="10"/>
<path d="M427.826 127.751C433.429 127.751 437.97 123.21 437.97 117.608C437.97 112.005 433.429 107.464 427.826 107.464C422.224 107.464 417.683 112.005 417.683 117.608C417.683 123.21 422.224 127.751 427.826 127.751Z" fill="#FFC3AA"/>
<path d="M432.437 114.71C432.437 114.71 425.06 112.602 423.084 120.77" stroke="#FF9574" stroke-width="1.1336" stroke-miterlimit="10" stroke-linecap="round" stroke-linejoin="round"/>
<path d="M485.264 560.115L471.432 550.63L488.953 524.546L509.372 538.115L508.45 539.828C503.971 547.337 485.396 577.505 480.785 581.325C475.384 585.672 485.264 560.115 485.264 560.115Z" fill="#8650C4"/>
<path d="M478.941 581.062C478.678 580.93 485.133 571.05 493.169 559.062C501.205 547.073 508.055 537.457 508.319 537.588C508.582 537.72 502.127 547.6 493.959 559.72C485.792 571.84 479.205 581.325 478.941 581.062Z" fill="#263238"/>
<path d="M487.768 562.487C487.768 562.75 486.845 563.014 485.923 563.014C485.001 563.145 484.079 563.014 483.947 562.75C483.815 562.487 484.738 562.091 485.791 561.96C486.977 561.96 487.768 562.223 487.768 562.487Z" fill="#263238"/>
<path d="M487.636 564.726C487.636 564.99 486.582 565.121 485.528 564.99C484.342 564.858 483.42 564.726 483.42 564.463C483.42 564.199 484.342 563.804 485.528 563.936C486.713 564.068 487.636 564.463 487.636 564.726Z" fill="#263238"/>
<path d="M503.049 545.492C502.917 545.492 502.522 544.966 502.127 544.043C501.6 542.726 501.205 541.409 501.205 540.091C501.073 538.642 501.6 537.193 502.39 536.007C503.049 535.085 503.708 534.822 503.84 534.953C503.971 535.085 503.444 535.48 503.049 536.403C502.522 537.456 502.259 538.774 502.259 539.959C502.39 541.277 502.522 542.462 502.917 543.78C503.049 544.702 503.181 545.361 503.049 545.492Z" fill="#263238"/>
<path d="M485.133 560.774C485.001 560.511 485.528 559.984 486.187 559.457C486.845 558.93 487.504 558.666 487.767 558.798C488.031 559.061 487.636 559.72 486.845 560.247C486.055 560.906 485.264 561.038 485.133 560.774Z" fill="#263238"/>
<path d="M484.079 559.457C483.815 559.325 484.079 558.403 484.737 557.612C485.396 556.822 486.055 556.295 486.186 556.427C486.45 556.558 486.186 557.349 485.528 558.271C485.001 559.061 484.342 559.72 484.079 559.457Z" fill="#263238"/>
<path d="M321.646 581.589V564.858L353 564.594L353.263 589.098L351.287 589.229C342.592 589.756 307.155 591.337 301.358 589.625C295.035 587.78 321.646 581.589 321.646 581.589Z" fill="#8650C4"/>
<path d="M300.7 588.175C300.7 587.912 312.425 587.648 326.916 587.648C341.407 587.648 353.132 587.912 353.132 588.175C353.132 588.439 341.407 588.702 326.916 588.702C312.425 588.702 300.7 588.439 300.7 588.175Z" fill="#263238"/>
<path d="M321.119 585.014C320.855 585.145 320.197 584.487 319.67 583.696C319.011 582.906 318.616 582.115 318.879 581.852C319.143 581.589 319.933 582.116 320.592 583.038C321.119 583.96 321.382 584.882 321.119 585.014Z" fill="#263238"/>
<path d="M319.143 586.068C318.88 586.2 318.353 585.409 317.694 584.487C317.167 583.565 316.772 582.643 316.903 582.511C317.167 582.379 317.957 582.906 318.616 583.96C319.275 585.014 319.406 586.068 319.143 586.068Z" fill="#263238"/>
<path d="M343.778 588.044C343.646 588.044 343.909 587.385 344.436 586.463C345.095 585.277 346.149 584.223 347.203 583.433C348.389 582.511 349.706 582.115 351.155 582.115C352.209 582.115 352.868 582.642 352.736 582.774C352.736 582.906 352.077 582.774 351.155 582.906C349.969 583.038 348.784 583.565 347.73 584.355C346.676 585.145 345.754 586.068 344.963 586.99C344.305 587.648 343.909 588.175 343.778 588.044Z" fill="#263238"/>
<path d="M320.987 581.852C321.118 581.589 321.909 581.72 322.568 581.984C323.358 582.247 324.017 582.643 323.885 582.906C323.885 583.17 323.095 583.301 322.172 583.038C321.382 582.643 320.723 582.116 320.987 581.852Z" fill="#263238"/>
<path d="M321.515 580.271C321.515 580.008 322.437 579.744 323.359 579.744C324.281 579.744 325.203 580.008 325.203 580.271C325.203 580.535 324.413 580.798 323.359 580.798C322.305 580.798 321.515 580.535 321.515 580.271Z" fill="#263238"/>
<path d="M400.952 194.279L366.832 182.95C366.832 182.95 351.814 226.292 347.203 226.687C321.646 229.058 294.376 220.495 284.759 217.202C283.837 216.148 282.652 214.83 281.466 213.25C280.412 211.932 279.622 210.351 279.095 208.639C278.304 206.663 277.909 204.423 277.777 202.315C277.777 201.92 277.777 201.525 277.514 201.13C277.25 200.734 276.987 200.471 276.592 200.339C276.196 200.207 275.801 200.076 275.406 200.207C275.011 200.339 274.616 200.471 274.352 200.734C273.298 202.184 273.035 207.585 275.538 213.513C278.041 219.441 269.083 214.699 265.921 213.118C262.627 211.405 252.22 206.794 250.903 207.453C249.058 208.375 249.585 210.615 252.879 212.196C256.172 213.776 265.789 219.178 264.867 220.89C263.945 222.603 247.346 213.908 247.346 213.908C247.346 213.908 244.052 211.537 242.998 213.381C240.891 216.806 259.202 224.711 260.915 225.369C262.1 225.896 261.178 227.741 259.861 227.214C258.544 226.687 243.525 218.256 241.286 221.681C239.573 224.316 256.304 228.268 258.412 231.693C260.52 235.118 246.028 227.477 244.579 230.112C244.052 231.034 243.789 231.956 252.747 235.118C259.334 237.094 266.053 238.807 272.771 240.124V240.256C272.771 240.256 362.221 280.304 381.587 241.705C401.874 200.603 400.952 194.279 400.952 194.279Z" fill="#FFBE9D"/>
<path d="M380.137 289.394C380.137 289.394 358.401 433.647 361.562 440.497C364.724 447.48 476.306 565.912 476.306 565.912L502.39 521.253C502.39 521.253 414.389 422.976 415.048 420.342C415.707 417.707 446.27 277.406 446.27 277.406L380.137 289.394Z" fill="#4E5865"/>
<path d="M397.132 287.945L379.874 290.843L389.755 302.963C373.814 339.191 340.748 415.731 336.796 440.366C331.526 473.037 311.634 575.265 313.61 576.846C315.586 578.427 361.431 576.846 361.431 576.846L390.677 440.366L455.228 328.652C463.264 314.688 465.636 298.221 461.815 282.676L460.498 277.406" fill="#646E79"/>
<path d="M379.874 290.843L380.533 292.424L463.264 285.705L460.366 277.406L379.874 290.843Z" fill="#202E3D"/>
<path d="M413.994 156.075L408.461 178.471L408.33 162.267L408.725 158.71L409.252 155.943L401.874 153.44L398.054 159.369H397C397 159.369 367.227 156.339 356.82 195.728L347.335 219.046L376.186 233.405V235.25L378.03 290.843L461.42 277.406C461.815 264.891 449.037 242.232 451.803 230.902L461.42 192.171L448.773 156.075L439.947 156.602L435.072 150.806L413.994 156.075Z" fill="#202E3D"/>
<path d="M294.508 179.92L556.667 230.244C575.373 233.801 587.098 250.926 584.99 270.424C584.99 270.687 584.858 270.951 584.858 271.214C583.936 275.825 582.224 280.172 579.589 284.124C576.954 288.077 573.661 291.37 569.84 294.005C565.888 296.64 561.541 298.484 556.93 299.274C552.319 300.196 547.577 300.196 542.966 299.274L286.077 247.37L229.43 202.052L294.508 179.92Z" fill="#202E3D"/>
<path d="M543.098 299.274C547.708 300.197 552.451 300.197 557.062 299.274C561.673 298.352 566.02 296.508 569.972 294.005C573.924 291.37 577.218 288.077 579.721 284.125C582.356 280.172 584.068 275.825 584.99 271.214C585.122 270.951 585.122 270.687 585.122 270.424C587.23 250.927 575.505 233.932 556.798 230.244L543.098 299.274Z" fill="#374351"/>
<path d="M438.102 184.926C438.102 184.926 431.515 218.651 421.503 233.01" stroke="#4E5865" stroke-width="0.329345" stroke-miterlimit="10" stroke-linecap="round"/>
<path d="M380.401 189.142L379.61 196.519" stroke="#4E5865" stroke-width="0.329345" stroke-miterlimit="10" stroke-linecap="round"/>
<path d="M376.317 189.142L379.743 195.728" stroke="#4E5865" stroke-width="0.329345" stroke-miterlimit="10" stroke-linecap="round"/>
<path d="M289.106 212.196L546.786 265.154" stroke="#4E5865" stroke-width="0.329345" stroke-miterlimit="10" stroke-linecap="round"/>
<path d="M438.893 190.459C438.893 190.459 422.953 240.783 418.473 241.837C393.575 248.16 365.383 244.208 355.371 242.364C354.185 241.441 352.868 240.256 351.419 238.938C350.102 237.753 349.179 236.304 348.257 234.855C347.203 233.01 346.413 230.902 345.886 228.795C345.886 228.399 345.754 228.004 345.491 227.609C345.227 227.214 344.832 227.082 344.437 226.95C344.042 226.819 343.646 226.819 343.251 226.95C342.856 227.082 342.461 227.345 342.329 227.741C341.407 229.322 342.066 234.723 345.491 240.124C345.491 240.124 325.467 252.771 321.119 252.639C316.772 252.507 304.257 252.376 305.574 254.088C306.892 255.801 321.119 258.172 321.119 258.172L346.94 266.867C346.94 266.867 441.659 292.292 454.57 251.19C462.474 226.028 468.007 211.142 469.193 205.082L438.893 190.459Z" fill="#FFBE9D"/>
<path d="M448.773 156.339C448.773 156.339 469.588 160.027 470.378 194.148C470.773 214.83 466.294 235.381 457.336 254.088L420.713 234.854C428.881 218.387 435.072 200.998 439.156 182.95L448.773 156.339Z" fill="#202E3D"/>
<path d="M294.508 179.92C294.508 179.92 308.868 185.321 305.838 199.022C302.939 212.723 289.107 212.196 289.107 212.196C289.107 212.196 302.544 215.226 298.856 234.459C296.484 246.843 286.209 247.501 286.209 247.501L229.562 202.183L294.508 179.92Z" fill="#D7D9DC"/>
<path d="M241.813 211.932C247.346 209.166 249.322 201.92 247.346 195.992L229.562 202.052L241.813 211.932Z" fill="#202E3D"/>
</g>
<defs>
<clipPath id="clip0">
<rect width="357.01" height="525.634" fill="white" transform="translate(229.166 65.7034)"/>
</clipPath>
</defs>
</svg>
