<svg width="48" height="48" viewBox="0 0 48 48" fill="none" xmlns="http://www.w3.org/2000/svg">
<circle cx="24" cy="24" r="19" fill="#F0F4FB" stroke="#F0F4FB" stroke-width="1.27467"/>
<path d="M26 24C26 25.1046 25.1046 26 24 26C22.8954 26 22 25.1046 22 24C22 22.8954 22.8954 22 24 22C25.1046 22 26 22.8954 26 24Z" stroke="#6EBFE9" stroke-width="2.5"/>
<path d="M30.1285 29.1424L28.8943 28.9445L30.1285 29.1424ZM30.1285 29.1428L28.8942 28.9449L30.1285 29.1428ZM30.1262 29.1431L30.5357 30.3241L30.1262 29.1431ZM15.5058 33.5892L14.2717 33.391L15.5058 33.5892ZM16.0318 34.0306L15.6223 32.8496L16.0318 34.0306ZM17.8716 18.8599L16.6375 18.6617L17.8716 18.8599ZM17.8718 18.8593L16.6376 18.661L17.8718 18.8593ZM17.8732 18.8584L18.6767 17.9008L17.8732 18.8584ZM17.8718 18.8589L16.6376 18.6606L16.6376 18.6606L17.8718 18.8589ZM17.8741 18.8586L17.4646 17.6776L17.8741 18.8586ZM17.8733 18.8584L17.0698 19.816L17.8733 18.8584ZM30.1286 29.1418L28.8944 28.9435L30.1286 29.1418ZM32.4944 14.4125L33.7286 14.6107L32.4944 14.4125ZM31.9684 13.9711L32.378 15.1521L31.9684 13.9711ZM31.2602 14.2142L28.8944 28.9435L31.3628 29.34L33.7286 14.6107L31.2602 14.2142ZM18.2837 20.0396L32.378 15.1521L31.5589 12.7901L17.4646 17.6776L18.2837 20.0396ZM17.0697 19.8159L17.0698 19.816L18.6767 17.9008L18.6767 17.9008L17.0697 19.8159ZM19.1059 19.0576L19.106 19.0572L16.6376 18.6606L16.6376 18.661L19.1059 19.0576ZM18.6751 17.9022L18.6751 17.9022L17.0681 19.8173L17.0681 19.8173L18.6751 17.9022ZM16.74 33.7874L19.1058 19.0582L16.6375 18.6617L14.2717 33.391L16.74 33.7874ZM29.7166 27.9621L15.6223 32.8496L16.4414 35.2116L30.5357 30.3241L29.7166 27.9621ZM30.9305 28.1858L30.9305 28.1857L29.3235 30.1008L29.3236 30.1009L30.9305 28.1858ZM28.8943 28.9445L28.8942 28.9449L31.3627 29.3407L31.3628 29.3403L28.8943 28.9445ZM29.3252 30.0995L29.3252 30.0995L30.9322 28.1844L30.9322 28.1844L29.3252 30.0995ZM30.5381 30.3233C31.4555 30.0053 31.676 28.8085 30.9322 28.1844L29.3252 30.0995C28.5817 29.4756 28.8021 28.2792 29.7192 27.9612L30.5381 30.3233ZM31.3628 29.3403C31.2899 29.7949 30.973 30.1725 30.5381 30.3233L29.7192 27.9612C29.2841 28.1121 28.9672 28.4898 28.8943 28.9445L31.3628 29.3403ZM29.3236 30.1009C30.0678 30.7254 31.2089 30.3 31.3627 29.3407L28.8942 28.9449C29.0479 27.9869 30.1873 27.5621 30.9305 28.1858L29.3236 30.1009ZM30.5357 30.3241C30.1205 30.4681 29.6602 30.3833 29.3235 30.1008L30.9305 28.1857C30.5934 27.9029 30.1324 27.8179 29.7166 27.9621L30.5357 30.3241ZM14.2717 33.391C14.0738 34.6231 15.2624 35.6204 16.4414 35.2116L15.6223 32.8496C16.2297 32.6389 16.842 33.1527 16.74 33.7874L14.2717 33.391ZM17.0681 19.8173C16.7311 19.5346 16.5678 19.0957 16.6375 18.6617L19.1058 19.0582C19.1756 18.6241 19.0121 18.185 18.6751 17.9022L17.0681 19.8173ZM17.4625 17.6783C16.5449 17.9961 16.3242 19.1931 17.0681 19.8173L18.6751 17.9022C19.4187 18.5262 19.1981 19.7228 18.2807 20.0406L17.4625 17.6783ZM16.6376 18.661C16.7106 18.2065 17.0276 17.8289 17.4625 17.6783L18.2807 20.0406C18.7158 19.8899 19.0329 19.5122 19.1059 19.0576L16.6376 18.661ZM18.6767 17.9008C17.9326 17.2764 16.7918 17.7015 16.6376 18.6606L19.106 19.0572C18.9521 20.015 17.8128 20.4395 17.0697 19.8159L18.6767 17.9008ZM17.4646 17.6776C17.8798 17.5336 18.3401 17.6184 18.6767 17.9008L17.0698 19.816C17.4069 20.0988 17.8679 20.1838 18.2837 20.0396L17.4646 17.6776ZM28.8944 28.9435C28.825 29.3757 28.9866 29.8154 29.3252 30.0995L30.9322 28.1844C31.2706 28.4684 31.4322 28.908 31.3628 29.34L28.8944 28.9435ZM33.7286 14.6107C33.9265 13.3786 32.7379 12.3813 31.5589 12.7901L32.378 15.1521C31.7706 15.3627 31.1583 14.849 31.2602 14.2142L33.7286 14.6107Z" fill="#6EBFE9"/>
</svg>
