<svg width="543" height="503" viewBox="0 0 543 503" fill="none" xmlns="http://www.w3.org/2000/svg">
<circle cx="238.516" cy="258.085" r="228.845" fill="#F0F4FB"/>
<mask id="mask0" mask-type="alpha" maskUnits="userSpaceOnUse" x="9" y="29" width="459" height="458">
<circle cx="238.516" cy="258.085" r="228.845" fill="#DEF0FA"/>
</mask>
<g mask="url(#mask0)">
<rect x="37.5811" y="269.693" width="162.507" height="61.1336" rx="9.28612" fill="#CBE8F7"/>
<rect x="210.148" y="269.693" width="161.733" height="61.1336" rx="9.28612" fill="#FEDB6B"/>
<rect x="381.941" y="269.693" width="161.733" height="61.1336" rx="9.28612" fill="#CBE8F7"/>
<path d="M289.807 258.906C290.26 259.359 290.995 259.359 291.449 258.906L298.836 251.519C299.289 251.065 299.289 250.33 298.836 249.877C298.382 249.424 297.648 249.424 297.194 249.877L290.628 256.443L284.062 249.877C283.608 249.424 282.873 249.424 282.42 249.877C281.967 250.33 281.967 251.065 282.42 251.519L289.807 258.906ZM98.7148 229.066L275.151 229.066L275.151 226.744L98.7148 226.744L98.7148 229.066ZM289.467 243.382L289.467 258.085L291.789 258.085L291.789 243.382L289.467 243.382ZM275.151 229.066C283.058 229.066 289.467 235.475 289.467 243.382L291.789 243.382C291.789 234.193 284.34 226.744 275.151 226.744L275.151 229.066Z" fill="#A9AEB4"/>
<path d="M461.6 258.906C462.053 259.359 462.788 259.359 463.241 258.906L470.628 251.519C471.082 251.065 471.082 250.33 470.628 249.877C470.175 249.424 469.44 249.424 468.987 249.877L462.421 256.443L455.854 249.877C455.401 249.424 454.666 249.424 454.213 249.877C453.759 250.33 453.759 251.065 454.213 251.519L461.6 258.906ZM258.126 229.066L446.944 229.066L446.944 226.744L258.126 226.744L258.126 229.066ZM461.26 243.382L461.26 258.085L463.581 258.085L463.581 243.382L461.26 243.382ZM446.944 229.066C454.85 229.066 461.26 235.475 461.26 243.382L463.581 243.382C463.581 234.193 456.132 226.744 446.944 226.744L446.944 229.066Z" fill="#A9AEB4"/>
<path d="M118.014 258.906C118.467 259.359 119.202 259.359 119.655 258.906L127.042 251.519C127.496 251.066 127.496 250.331 127.042 249.877C126.589 249.424 125.854 249.424 125.401 249.877L118.835 256.444L112.268 249.877C111.815 249.424 111.08 249.424 110.627 249.877C110.173 250.331 110.173 251.066 110.627 251.519L118.014 258.906ZM36.4203 197.725L36.4203 212.428L38.7418 212.428L38.7418 197.725L36.4203 197.725ZM53.0579 229.066L103.358 229.066L103.358 226.744L53.0579 226.744L53.0579 229.066ZM117.674 243.382L117.674 258.085L119.995 258.085L119.995 243.382L117.674 243.382ZM103.358 229.066C111.264 229.066 117.674 235.476 117.674 243.382L119.995 243.382C119.995 234.193 112.546 226.744 103.358 226.744L103.358 229.066ZM36.4203 212.428C36.4203 221.617 43.8692 229.066 53.0579 229.066L53.0579 226.744C45.1514 226.744 38.7418 220.335 38.7418 212.428L36.4203 212.428Z" fill="#A9AEB4"/>
<path d="M0.436523 126.532L119.608 126.532C124.737 126.532 128.894 130.689 128.894 135.818L128.894 178.379C128.894 183.508 124.737 187.665 119.608 187.665L0.436523 187.665L0.436523 126.532Z" fill="#919BC8"/>
</g>
<rect x="209.225" y="342.434" width="161.733" height="61.1336" rx="9.28612" fill="#FEE698"/>
<rect x="209.225" y="415.176" width="161.733" height="61.1336" rx="9.28612" fill="#FEE698"/>
<rect x="380.985" y="269.693" width="161.733" height="61.1336" rx="9.28612" fill="#8ED1B2"/>
<rect x="380.985" y="342.607" width="161.733" height="61.1336" rx="9.28612" fill="#C9E9DA"/>
</svg>
