<svg width="502" height="521" viewBox="0 0 502 521" fill="none" xmlns="http://www.w3.org/2000/svg">
<circle cx="265.651" cy="285.355" r="235.439" fill="#CBE8F7"/>
<rect x="60.4023" y="94.5" width="209" height="79" rx="12" fill="#F4F7FC"/>
<rect x="60.4023" y="94.5" width="209" height="79" rx="12" fill="#F4F7FC"/>
<rect x="60.4023" y="94.5" width="209" height="79" rx="12" fill="#F4F7FC"/>
<path d="M415.959 375.298C416.545 375.884 417.494 375.884 418.08 375.298L427.626 365.752C428.212 365.167 428.212 364.217 427.626 363.631C427.04 363.045 426.091 363.045 425.505 363.631L417.02 372.116L408.534 363.631C407.948 363.045 406.999 363.045 406.413 363.631C405.827 364.217 405.827 365.167 406.413 365.752L415.959 375.298ZM415.52 331V374.238H418.52V331H415.52Z" fill="#A9AEB4"/>
<rect x="60.4023" y="94.5" width="209" height="79" rx="12" fill="#F0F4FB"/>
<rect x="164.971" y="230.5" width="80" height="80" rx="12" transform="rotate(45 164.971 230.5)" fill="#FEDB6B"/>
<mask id="mask0" mask-type="alpha" maskUnits="userSpaceOnUse" x="30" y="49" width="472" height="472">
<circle cx="265.651" cy="285.355" r="235.439" fill="#B9E0F5"/>
</mask>
<g mask="url(#mask0)">
<path d="M324.061 255.308C325.83 250.649 330.295 247.568 335.279 247.568H508.607C517.007 247.568 522.807 255.976 519.825 263.828L498.939 318.828C497.17 323.488 492.705 326.568 487.721 326.568H314.393C305.993 326.568 300.193 318.161 303.175 310.308L324.061 255.308Z" fill="white"/>
<rect x="417.02" y="370.844" width="92.6898" height="92.6898" rx="46.3449" transform="rotate(45 417.02 370.844)" fill="#8ED1B2"/>
</g>
<path d="M55.8752 134.332C56.461 133.746 56.461 132.797 55.8752 132.211L46.3292 122.665C45.7434 122.079 44.7937 122.079 44.2079 122.665C43.6221 123.251 43.6221 124.2 44.2079 124.786L52.6932 133.271L44.2079 141.757C43.6221 142.343 43.6221 143.292 44.2079 143.878C44.7937 144.464 45.7434 144.464 46.3292 143.878L55.8752 134.332ZM58.1834 288.569H109.359V285.569H58.1834V288.569ZM22.4512 288.569H58.1834V285.569H22.4512V288.569ZM3.95117 267.069V145.271H0.951172V267.069H3.95117ZM14.4512 134.771H54.8145V131.771H14.4512V134.771ZM3.95117 145.271C3.95117 139.473 8.65218 134.771 14.4512 134.771V131.771C6.99533 131.771 0.951172 137.816 0.951172 145.271H3.95117ZM22.4512 285.569C12.2339 285.569 3.95117 277.286 3.95117 267.069H0.951172C0.951172 278.943 10.5771 288.569 22.4512 288.569V285.569Z" fill="#A9AEB4"/>
<path d="M163.842 227.103C164.427 227.688 165.377 227.688 165.963 227.103L175.509 217.557C176.095 216.971 176.095 216.021 175.509 215.435C174.923 214.85 173.973 214.85 173.388 215.435L164.902 223.921L156.417 215.435C155.831 214.85 154.882 214.85 154.296 215.435C153.71 216.021 153.71 216.971 154.296 217.557L163.842 227.103ZM163.402 177.494L163.402 226.042L166.402 226.042L166.402 177.494L163.402 177.494Z" fill="#A9AEB4"/>
<path d="M294.645 286.227C295.231 285.641 295.231 284.691 294.645 284.105L285.099 274.559C284.513 273.974 283.563 273.974 282.978 274.559C282.392 275.145 282.392 276.095 282.978 276.681L291.463 285.166L282.978 293.651C282.392 294.237 282.392 295.187 282.978 295.773C283.563 296.358 284.513 296.358 285.099 295.773L294.645 286.227ZM221.061 286.666L293.584 286.666L293.584 283.666L221.061 283.666L221.061 286.666Z" fill="#A9AEB4"/>
<g clip-path="url(#clip0)">
<path d="M142.733 15.1985C142.733 15.1985 139.846 29.143 122.688 38.8387C104.386 49.1881 113.646 83.9404 145.075 85.629C179.283 87.4809 197.912 45.2118 179.174 9.75146L142.733 15.1985Z" fill="#1F2D3D"/>
<path d="M174.816 115.153C173.944 114.118 173.835 113.247 175.851 113.083C180.263 112.702 183.477 110.741 184.021 109.652C184.512 108.562 183.15 107.473 181.952 108.126C180.971 108.671 179.119 109.107 177.648 109.325C176.45 109.543 175.252 109.543 174.053 109.379C173.018 109.216 172.147 109.052 171.33 108.889C171.33 108.889 166.645 107.909 164.684 106.329L154.825 116.787L159.455 122.016C159.455 122.016 161.688 125.339 165.61 124.903C169.587 124.522 174.925 121.69 174.925 121.69C175.633 120.6 182.006 124.522 184.076 125.993C186.091 127.463 187.671 127.082 187.562 125.666C187.508 124.685 181.298 120.055 179.282 118.639C178.139 117.877 175.905 116.351 174.816 115.153Z" fill="#FFBF9D"/>
<path d="M169.042 124.304C169.042 124.359 168.77 124.468 168.225 124.468C167.735 124.468 167.027 124.25 166.373 123.814C165.774 123.324 165.338 122.724 165.229 122.234C165.066 121.744 165.12 121.417 165.175 121.417C165.338 121.363 165.556 122.561 166.7 123.378C167.844 124.25 169.042 124.141 169.042 124.304Z" fill="#FF9A6C"/>
<path d="M172.965 122.724C172.965 122.779 172.692 122.888 172.202 122.888C171.712 122.888 171.058 122.67 170.459 122.179C169.86 121.744 169.479 121.144 169.37 120.654C169.206 120.164 169.261 119.892 169.315 119.892C169.479 119.837 169.696 120.981 170.786 121.798C171.766 122.615 172.965 122.615 172.965 122.724Z" fill="#FF9A6C"/>
<path d="M242.578 75.0606L180.427 56.5951C175.252 54.4163 171.385 53.8716 171.385 53.8716L150.414 54.035C147.581 54.035 144.858 54.6342 142.352 55.7236L85.8116 74.5159C81.6174 75.8232 78.7305 80.1264 78.7305 85.0287C78.7305 91.075 83.0881 95.9229 88.4262 95.9229H114.518C114.463 96.1952 114.409 96.3041 114.409 96.3041L205.266 96.631C205.266 96.631 205.266 96.631 205.266 96.5765L239.963 96.631C245.301 96.631 249.659 91.6741 249.659 85.6279C249.659 80.7256 246.772 76.4224 242.578 75.0606Z" fill="#B18AD9"/>
<path d="M85.8662 94.6726C85.8662 94.6726 156.896 125.993 156.515 125.285C156.133 124.577 167.79 104.042 167.79 104.042L110.269 75.6079L85.8662 94.6726Z" fill="#B18AD9"/>
<path d="M154.553 97.505C154.553 97.5595 154.008 97.3416 153.082 96.9058C152.101 96.4156 150.74 95.8164 149.16 95.0538C145.892 93.4742 141.316 91.2954 136.359 88.7897C131.348 86.3386 126.882 84.0508 123.613 82.4167C122.034 81.5996 120.781 80.946 119.8 80.4557C118.874 79.9655 118.384 79.6931 118.439 79.6387" stroke="#9264CA" stroke-width="0.278889" stroke-miterlimit="10"/>
<path d="M175.634 96.6871V82.3613C175.634 82.3613 154.336 86.7734 153.955 96.5237L175.634 96.6871Z" fill="#FFBF9D"/>
<path d="M175.579 82.3054H229.995" stroke="#9264CA" stroke-width="0.278889" stroke-miterlimit="10"/>
<path d="M149.647 35.8442C151.881 33.6107 151.881 29.9894 149.647 27.7559C147.414 25.5223 143.792 25.5223 141.559 27.7559C139.325 29.9894 139.325 33.6107 141.559 35.8442C143.792 38.0778 147.414 38.0778 149.647 35.8442Z" fill="#FFC3AA"/>
<path d="M142.407 30.9402C142.407 30.9402 144.695 29.9052 146.765 33.8271" stroke="#DB7368" stroke-width="0.672058" stroke-miterlimit="10" stroke-linecap="round" stroke-linejoin="round"/>
<path d="M172.094 32.3021C172.039 35.4614 174.545 38.0215 177.704 38.076C180.863 38.1305 183.424 35.6248 183.478 32.4655C183.532 29.3062 181.027 26.7461 177.868 26.6917C174.708 26.6917 172.148 29.1973 172.094 32.3021Z" fill="#FFC3AA"/>
<path d="M180.972 31.594C180.972 31.594 178.684 30.5046 176.56 34.481" stroke="#DB7368" stroke-width="0.672058" stroke-miterlimit="10" stroke-linecap="round" stroke-linejoin="round"/>
<path d="M181.411 18.6456C181.603 8.53964 172.981 0.180304 162.154 -0.0255065C151.326 -0.231317 142.392 7.79433 142.2 17.9003C142.008 28.0062 150.63 36.3656 161.458 36.5714C172.286 36.7772 181.219 28.7515 181.411 18.6456Z" fill="#1F2D3D"/>
<path d="M166.973 43.5774C166.973 43.5774 164.467 45.8107 162.234 46.3009C160.001 46.7912 157.822 45.0481 157.822 45.0481C157.768 45.0481 155.207 43.0327 155.207 43.0327L153.846 56.9772C153.846 57.2495 153.9 57.5219 154.064 57.7398C157.822 61.934 163.269 62.0429 167.191 58.1211L167.463 57.8487C167.681 57.6308 167.736 57.3585 167.736 57.0861L166.973 43.5774Z" fill="#FFC3AA"/>
<path d="M177.268 21.2464C177.159 27.4016 176.178 32.6852 175.198 36.4437C174.272 40.1477 171.657 42.6534 168.062 44.7232L167.408 45.1045C163.595 47.2289 158.693 47.2289 154.88 45.0501C151.013 42.8712 148.344 39.9843 147.581 36.0079C146.165 28.7634 146.11 20.8107 146.11 20.8107C146.11 20.8107 145.13 4.14268 161.907 4.68738C178.684 5.17762 177.268 21.2464 177.268 21.2464Z" fill="#FFC3AA"/>
<path d="M161.308 28.3267L160.164 31.1047C159.892 31.7038 160.328 32.3575 160.982 32.3575H161.853" stroke="#DB7368" stroke-width="0.672058" stroke-miterlimit="10" stroke-linecap="round" stroke-linejoin="round"/>
<path d="M155.752 26.6362C155.752 27.3988 155.099 27.998 154.391 27.9435C153.682 27.889 153.029 27.2898 153.083 26.5817C153.083 25.8191 153.737 25.22 154.445 25.2744C155.153 25.2744 155.752 25.8736 155.752 26.6362Z" fill="#1D0300"/>
<path d="M169.043 26.8547C169.043 27.6173 168.389 28.2165 167.681 28.162C166.918 28.162 166.319 27.5084 166.374 26.8002C166.374 26.0376 167.027 25.4385 167.735 25.4929C168.498 25.4929 169.097 26.1466 169.043 26.8547Z" fill="#1D0300"/>
<path d="M155.915 35.7344C155.915 35.7344 159.619 37.8587 165.774 35.8978" stroke="black" stroke-width="0.636434" stroke-miterlimit="10" stroke-linecap="round" stroke-linejoin="round"/>
<path d="M149.924 20.6982L150.795 20.4258C152.593 19.9356 153.955 19.7722 155.807 19.8267L156.515 19.8811" stroke="#1F2D3D" stroke-width="1.62981" stroke-miterlimit="10" stroke-linecap="round"/>
<path d="M172.366 20.4279L171.495 20.1555C169.697 19.6108 168.336 19.4474 166.484 19.5019H165.775" stroke="#1F2D3D" stroke-width="1.62981" stroke-miterlimit="10" stroke-linecap="round"/>
<path d="M177.322 17.9781C177.322 17.9781 152.647 18.4139 153.954 3.97917C153.954 3.97917 175.579 -1.68577 177.322 17.9781Z" fill="#1F2D3D"/>
<path d="M145.894 17.4322C145.894 17.4322 154.609 13.9461 154.827 5.06738C154.772 5.06738 145.894 5.93891 145.894 17.4322Z" fill="#1F2D3D"/>
</g>
<defs>
<clipPath id="clip0">
<rect width="298.281" height="145.6" fill="white" transform="translate(29)"/>
</clipPath>
</defs>
</svg>
