<svg width="48" height="49" viewBox="0 0 48 49" fill="none" xmlns="http://www.w3.org/2000/svg">
<circle cx="24" cy="24.5283" r="24" fill="#ECF1FA"/>
<g clip-path="url(#clip0)">
<path fill-rule="evenodd" clip-rule="evenodd" d="M38.3361 17.2625C38.5502 16.0253 38.5502 14.7643 37.7889 13.8126C36.7182 12.4564 34.4579 12.4088 32.9114 12.6468C31.6504 12.8371 27.3916 14.7167 25.9402 19.2373C28.5098 19.0469 29.866 19.4276 29.6043 22.2589C29.5091 23.4485 28.8905 24.7333 28.2243 25.9943C27.4629 27.4219 26.0116 30.2532 24.1082 28.207C22.3951 26.375 22.5379 22.8775 22.1334 20.5696C21.9193 19.2611 21.6814 17.6432 21.2531 16.287C20.8962 15.1212 20.0397 13.7412 19.0166 13.4319C17.8984 13.0988 16.5422 13.6222 15.7333 14.0981C13.1875 15.5732 11.2127 17.7145 9 19.499V19.6655C9.42826 20.0938 9.54723 20.7838 10.2134 20.8789C11.7361 21.0931 13.1875 19.4514 14.2105 21.1644C14.8292 22.2113 15.0195 23.3534 15.424 24.4954C15.9474 25.9943 16.3519 27.636 16.8039 29.3728C17.5415 32.2993 18.4456 36.6771 20.9676 37.7478C22.2524 38.295 24.2034 37.5574 25.1789 36.9864C27.8436 35.4161 29.9136 33.1321 31.698 30.8004C35.7665 25.2805 38.003 19.0469 38.3361 17.2625Z" fill="#202E3D"/>
</g>
<defs>
<clipPath id="clip0">
<rect width="29.4551" height="25.4103" fill="white" transform="translate(9 12.5283)"/>
</clipPath>
</defs>
</svg>
