<svg width="48" height="49" viewBox="0 0 48 49" fill="none" xmlns="http://www.w3.org/2000/svg">
<path fill-rule="evenodd" clip-rule="evenodd" d="M0 24.5283C0 11.2735 10.7452 0.52832 24 0.52832C37.2548 0.52832 48 11.2735 48 24.5283C48 37.7832 37.2548 48.5283 24 48.5283C10.7452 48.5283 0 37.7832 0 24.5283Z" fill="#ECF1FA"/>
<path fill-rule="evenodd" clip-rule="evenodd" d="M33.9989 16.2777C35.1004 16.58 35.9679 17.4706 36.2623 18.6016C36.7973 20.6514 36.7973 24.9284 36.7973 24.9284C36.7973 24.9284 36.7973 29.2052 36.2623 31.2552C35.9679 32.3862 35.1004 33.2768 33.9989 33.5792C32.0026 34.1284 23.9973 34.1284 23.9973 34.1284C23.9973 34.1284 15.9919 34.1284 13.9955 33.5792C12.894 33.2768 12.0265 32.3862 11.7321 31.2552C11.1973 29.2052 11.1973 24.9284 11.1973 24.9284C11.1973 24.9284 11.1973 20.6514 11.7321 18.6016C12.0265 17.4706 12.894 16.58 13.9955 16.2777C15.9919 15.7284 23.9973 15.7284 23.9973 15.7284C23.9973 15.7284 32.0026 15.7284 33.9989 16.2777ZM21.5973 21.3283V29.3283L27.9973 25.3285L21.5973 21.3283Z" fill="#202E3D"/>
</svg>
