<svg width="697" height="682" viewBox="0 0 697 682" fill="none" xmlns="http://www.w3.org/2000/svg">
<path fill-rule="evenodd" clip-rule="evenodd" d="M604.054 228.92L501.867 550.048L165.034 551.837L58.9327 231.751L330.262 32.1773L604.054 228.92Z" fill="#ECF1FA"/>
<rect x="407.582" y="191.436" width="149.941" height="149.971" rx="6.81552" fill="#FCFDFE"/>
<circle cx="417.806" cy="201.66" r="3.40776" fill="#F5B0B2"/>
<circle cx="428.029" cy="201.66" r="3.40776" fill="#FEE182"/>
<circle cx="438.253" cy="201.66" r="3.40776" fill="#A2D9C0"/>
<path d="M546.991 211.883H417.806C415.924 211.883 414.398 213.409 414.398 215.291V283.475C414.398 285.357 415.924 286.883 417.806 286.883H546.991C548.873 286.883 550.398 285.357 550.398 283.475V215.291C550.398 213.409 548.873 211.883 546.991 211.883Z" fill="#F9D1D2"/>
<rect width="136.31" height="2.72621" rx="1.3631" transform="matrix(-1 0 0 1 550.707 293.698)" fill="#E8EEF9"/>
<rect width="136.31" height="2.72621" rx="1.3631" transform="matrix(-1 0 0 1 550.707 303.24)" fill="#E8EEF9"/>
<rect width="136.31" height="2.72621" rx="1.3631" transform="matrix(-1 0 0 1 550.707 312.782)" fill="#E8EEF9"/>
<rect width="136.31" height="2.72621" rx="1.3631" transform="matrix(-1 0 0 1 550.707 322.324)" fill="#E8EEF9"/>
<rect width="54.5241" height="2.72621" rx="1.3631" transform="matrix(-1 0 0 1 550.707 331.865)" fill="#E8EEF9"/>
<g clip-path="url(#clip0)">
<path fill-rule="evenodd" clip-rule="evenodd" d="M474.622 262.656C474.622 262.656 472.343 263.984 476.245 264.432C480.973 264.973 483.388 264.895 488.597 263.908C488.597 263.908 489.968 264.768 491.883 265.512C480.203 270.524 465.449 265.222 474.622 262.656ZM473.194 256.116C473.194 256.116 470.638 258.011 474.543 258.415C479.594 258.938 483.581 258.98 490.484 257.65C490.484 257.65 491.437 258.619 492.937 259.148C478.817 263.284 463.092 259.474 473.194 256.116Z" fill="#3174B9"/>
<path fill-rule="evenodd" clip-rule="evenodd" d="M485.225 245.022C488.104 248.34 484.47 251.325 484.47 251.325C484.47 251.325 491.778 247.548 488.421 242.817C485.288 238.407 482.884 236.217 495.895 228.661C495.895 228.661 475.471 233.767 485.225 245.022Z" fill="#CA3132"/>
<path fill-rule="evenodd" clip-rule="evenodd" d="M500.673 267.494C500.673 267.494 502.359 268.886 498.815 269.963C492.075 272.007 470.757 272.624 464.836 270.045C462.709 269.117 466.7 267.831 467.955 267.559C469.265 267.276 470.012 267.327 470.012 267.327C467.645 265.658 454.712 270.605 463.444 272.025C487.254 275.891 506.848 270.284 500.673 267.494ZM475.719 249.34C475.719 249.34 464.877 251.919 471.88 252.857C474.838 253.253 480.73 253.162 486.223 252.7C490.71 252.323 495.215 251.516 495.215 251.516C495.215 251.516 493.634 252.196 492.488 252.978C481.476 255.878 460.207 254.527 466.331 251.562C471.508 249.054 475.719 249.34 475.719 249.34ZM495.17 260.226C506.363 254.403 501.188 248.806 497.575 249.56C496.691 249.745 496.295 249.905 496.295 249.905C496.295 249.905 496.624 249.388 497.251 249.166C504.398 246.651 509.893 256.586 494.947 260.52C494.946 260.52 495.118 260.364 495.17 260.226Z" fill="#3174B9"/>
<path fill-rule="evenodd" clip-rule="evenodd" d="M488.422 216.458C488.422 216.458 494.619 222.668 482.542 232.214C472.856 239.874 480.333 244.241 482.539 249.231C476.884 244.124 472.736 239.626 475.519 235.442C479.604 229.3 490.922 226.321 488.422 216.458Z" fill="#CA3132"/>
<path fill-rule="evenodd" clip-rule="evenodd" d="M476.819 276.009C487.561 276.697 504.061 275.627 504.452 270.536C504.452 270.536 503.701 272.466 495.573 273.996C486.403 275.725 475.092 275.524 468.385 274.415C468.385 274.415 469.759 275.554 476.819 276.009Z" fill="#3174B9"/>
</g>
<rect x="146.061" y="94.7977" width="149.941" height="224.941" rx="6.81552" fill="#FCFDFE"/>
<circle cx="156.285" cy="105.021" r="3.40776" fill="#F5B0B2"/>
<circle cx="166.507" cy="105.021" r="3.40776" fill="#FEE182"/>
<circle cx="176.732" cy="105.021" r="3.40776" fill="#A2D9C0"/>
<path d="M285.469 115.244H156.285C154.403 115.244 152.877 116.77 152.877 118.652V186.837C152.877 188.719 154.403 190.244 156.285 190.244H285.469C287.351 190.244 288.877 188.719 288.877 186.837V118.652C288.877 116.77 287.351 115.244 285.469 115.244Z" fill="#B7BEDB"/>
<rect width="136.31" height="2.72621" rx="1.3631" transform="matrix(-1 0 0 1 289.186 197.06)" fill="#E8EEF9"/>
<rect width="136.31" height="2.72621" rx="1.3631" transform="matrix(-1 0 0 1 289.186 206.602)" fill="#E8EEF9"/>
<rect width="136.31" height="2.72621" rx="1.3631" transform="matrix(-1 0 0 1 289.186 216.143)" fill="#E8EEF9"/>
<rect width="136.31" height="2.72621" rx="1.3631" transform="matrix(-1 0 0 1 289.186 225.685)" fill="#E8EEF9"/>
<rect width="54.5241" height="2.72621" rx="1.3631" transform="matrix(-1 0 0 1 289.186 235.227)" fill="#E8EEF9"/>
<path d="M214.217 244.768H156.285C154.403 244.768 152.877 246.294 152.877 248.176V309.516C152.877 311.398 154.403 312.924 156.285 312.924H214.217C216.099 312.924 217.624 311.398 217.624 309.516V248.176C217.624 246.294 216.099 244.768 214.217 244.768Z" fill="#CACFE5"/>
<path d="M285.779 244.768H227.847C225.965 244.768 224.439 246.294 224.439 248.176V309.516C224.439 311.398 225.965 312.924 227.847 312.924H285.779C287.661 312.924 289.187 311.398 289.187 309.516V248.176C289.187 246.294 287.661 244.768 285.779 244.768Z" fill="#FEECAF"/>
<path d="M420.465 396.612L420.663 456.969L447.287 451.518L469.656 446.86C469.656 446.86 438.973 507.514 405.618 507.514C372.263 507.514 367.908 457.068 367.908 457.068L365.929 396.711H420.465V396.612Z" fill="#BF513C"/>
<path d="M460.056 447.353L450.752 441.704C449.168 440.713 447.387 440.217 445.506 440.217H427.592L409.083 457.066L403.54 459.841L405.619 488.979L417.694 487.492C417.694 487.492 443.428 488.582 445.902 486.897C448.377 485.212 451.94 479.96 451.94 479.96C451.94 479.96 465.995 475.401 467.38 474.112C472.626 469.454 470.547 468.265 470.547 468.265L472.923 467.175C473.418 468.067 476.882 462.318 476.486 459.444C476.288 457.759 476.783 457.759 476.783 457.759C477.971 457.066 478.96 456.174 479.752 455.083C480.544 453.993 481.039 452.705 481.237 451.416C481.534 449.731 474.506 450.921 474.506 450.921L457.087 451.119L460.056 447.353Z" fill="#DB7E68"/>
<path d="M444.516 450.823L460.847 428.524C461.441 427.731 462.232 427.037 463.123 426.641C464.014 426.145 465.004 425.947 465.994 425.947H498.359C498.953 425.947 499.547 426.244 500.042 426.641C500.536 427.037 500.734 427.731 500.734 428.325C500.734 428.92 500.536 429.416 500.141 429.911L481.632 451.418L444.516 450.823Z" fill="#495A63"/>
<path d="M447.979 451.316C448.177 451.217 448.276 451.019 448.375 450.82L449.464 449.334L453.72 443.982L459.856 435.954L463.42 431.197C464.013 430.404 464.904 429.809 465.795 429.512C466.29 429.314 466.785 429.215 467.28 429.215C467.775 429.215 468.368 429.215 468.863 429.215L491.232 429.116L498.061 429.017H499.942C500.14 429.017 500.338 429.017 500.635 428.917C500.437 428.818 500.239 428.818 499.942 428.818L498.061 428.719L491.232 428.62L468.863 428.521C468.269 428.521 467.775 428.521 467.181 428.521C466.587 428.521 466.092 428.719 465.498 428.818C464.409 429.215 463.519 429.809 462.826 430.701L459.263 435.459L453.225 443.586C451.542 445.865 450.157 447.748 449.167 449.037C448.771 449.631 448.375 450.127 448.078 450.523C448.177 451.019 448.078 451.118 447.979 451.316Z" fill="#283237"/>
<path d="M483.215 432.49C483.017 432.291 482.72 432.192 482.522 432.192C482.225 432.192 482.027 432.192 481.73 432.391C481.532 432.49 481.335 432.688 481.236 432.985C481.137 433.183 481.038 433.481 481.137 433.778C481.137 434.075 481.236 434.274 481.433 434.472C481.631 434.67 481.829 434.769 482.126 434.868C482.423 434.967 482.621 434.967 482.918 434.868C483.215 434.769 483.413 434.67 483.512 434.472C483.71 434.174 483.809 433.877 483.809 433.481C483.71 433.084 483.512 432.688 483.215 432.49Z" fill="#F4F4F4"/>
<path d="M291.3 302.953L264.18 318.91L255.767 467.077L244.88 550.923H408.785C408.785 550.923 407.004 448.941 406.41 418.019C406.014 396.413 406.608 354.49 399.283 328.722C396.215 317.721 365.631 303.548 365.631 303.548C355.041 299.386 348.014 298.692 337.621 295.52C324.061 295.52 312.283 296.115 299.614 299.485C296.645 300.277 293.873 301.467 291.3 302.953Z" fill="#A4ADD2"/>
<path d="M416.506 457.958H301.99L301.396 397.502L248.543 390.664C248.543 390.664 248.345 452.012 248.345 472.131C248.345 496.313 269.229 513.063 286.747 510.486C304.266 507.909 416.506 486.898 416.506 486.898V457.958Z" fill="#DB7E68"/>
<path d="M244.88 403.251L306.443 409.693V337.343C306.443 337.343 300.406 312.863 279.126 313.954C257.846 315.044 245.276 338.037 244.88 359.147C244.484 380.257 244.88 403.251 244.88 403.251Z" fill="#A4ADD2"/>
<path d="M392.652 320.297C392.652 320.297 412.348 333.28 417.693 347.651C423.236 362.716 431.055 411.477 431.055 411.477H403.341L392.652 320.297Z" fill="#A4ADD2"/>
<path d="M377.919 248.382C379.907 257.675 388.966 263.538 398.246 261.657C407.526 259.666 413.381 250.595 411.503 241.302C409.515 232.01 400.456 226.147 391.176 228.028C381.896 230.019 375.93 239.09 377.919 248.382Z" fill="#BF513C"/>
<path d="M368.418 284.225L367.645 312.434C367.203 328.253 353.946 340.753 338.148 340.2C321.687 339.647 309.092 325.266 310.75 308.783L317.268 243.183L368.418 284.225Z" fill="#DB7E68"/>
<path d="M387.199 176.256C390.514 179.796 399.241 193.513 399.794 198.381C401.672 214.532 405.207 254.356 397.805 271.724C388.415 293.849 368.86 306.681 339.695 298.274C339.695 298.274 312.96 294.955 301.36 241.856C283.573 160.769 353.173 139.972 387.199 176.256Z" fill="#DB7E68"/>
<path d="M386.314 238.205C386.756 240.307 388.745 241.745 390.954 241.303C393.053 240.86 394.489 238.869 394.047 236.657C393.605 234.555 391.617 233.117 389.407 233.559C387.308 234.002 385.872 235.993 386.314 238.205Z" fill="#101010"/>
<path d="M351.627 236.767C352.069 238.869 354.057 240.307 356.266 239.865C358.365 239.422 359.801 237.431 359.359 235.218C358.918 233.117 356.929 231.678 354.72 232.121C352.51 232.563 351.185 234.665 351.627 236.767Z" fill="#101010"/>
<path d="M374.052 229.687L379.134 248.051C380.128 251.48 377.919 254.909 374.494 255.573" stroke="#BF513C" stroke-width="2.01124" stroke-miterlimit="10" stroke-linecap="round" stroke-linejoin="round"/>
<path d="M378.912 262.321L353.061 261.436C353.061 261.436 352.619 270.839 365.103 271.392C377.697 271.835 378.912 262.321 378.912 262.321Z" fill="white"/>
<path d="M383.111 215.749C383.111 215.749 389.74 214.643 398.578 220.174" stroke="#1F2D3D" stroke-width="6.6374" stroke-miterlimit="10" stroke-linecap="round"/>
<path d="M361.016 215.749C361.016 215.749 344.444 212.43 335.606 220.174" stroke="#1F2D3D" stroke-width="6.6374" stroke-miterlimit="10" stroke-linecap="round"/>
<path d="M399.13 195.836C399.13 195.836 394.711 189.199 390.182 191.522C382.449 195.505 369.302 200.151 337.595 190.084C337.595 190.084 322.35 184.332 321.355 195.836C320.361 207.341 323.786 243.404 323.786 243.404L312.628 244.953L295.725 223.603L291.416 183.004C290.312 172.163 297.382 162.096 307.988 159.441C325.885 155.016 352.841 150.813 385.652 158.114C394.601 160.105 400.788 169.176 399.351 178.247L399.13 195.836Z" fill="#1F2D3D"/>
<path d="M280.811 246.17C283.021 256.569 293.185 263.206 303.459 260.994C313.844 258.781 320.472 248.604 318.263 238.316C316.053 227.917 305.889 221.28 295.615 223.492C285.23 225.705 278.602 235.882 280.811 246.17Z" fill="#DB7E68"/>
<path d="M291.418 235.882C291.418 235.882 305.78 233.117 308.1 248.825" stroke="#BF513C" stroke-width="2.01124" stroke-miterlimit="10" stroke-linecap="round" stroke-linejoin="round"/>
<path d="M476.088 458.354C476.088 458.354 460.154 461.426 451.246 460.534" stroke="#BF513C" stroke-width="0.360661" stroke-miterlimit="10" stroke-linecap="round" stroke-linejoin="round"/>
<path d="M472.328 467.573C472.328 467.573 458.274 471.042 449.862 470.15" stroke="#BF513C" stroke-width="0.360661" stroke-miterlimit="10" stroke-linecap="round" stroke-linejoin="round"/>
<path d="M451.939 480.057C451.939 480.057 445.606 479.858 442.538 478.372" stroke="#BF513C" stroke-width="0.360661" stroke-miterlimit="10" stroke-linecap="round" stroke-linejoin="round"/>
<path d="M450.156 451.416L434.222 450.821" stroke="#BF513C" stroke-width="0.360661" stroke-miterlimit="10" stroke-linecap="round" stroke-linejoin="round"/>
<path d="M405.321 355.18L406.41 434.665" stroke="#6B79B6" stroke-width="0.360661" stroke-miterlimit="10" stroke-linecap="round" stroke-linejoin="round"/>
<path d="M307.037 340.218L301.594 420.001" stroke="#6B79B6" stroke-width="0.360661" stroke-miterlimit="10" stroke-linecap="round" stroke-linejoin="round"/>
<defs>
<clipPath id="clip0">
<rect width="59.3438" height="59.423" fill="white" transform="translate(452.781 216.458)"/>
</clipPath>
</defs>
</svg>
