<svg width="69" height="40" viewBox="0 0 69 40" fill="none" xmlns="http://www.w3.org/2000/svg">
<g clip-path="url(#clip0)">
<path d="M9.19619 0.495489C12.794 0.495489 15.4663 2.32955 15.4663 5.03643C15.4663 7.15172 14.1149 8.16059 12.9237 8.64089C14.879 9.23352 16.6564 10.3657 16.6564 12.8459C16.6564 16.5146 13.3848 17.7635 9.84455 17.7635H0.849609V0.495489H9.19619ZM6.35998 7.09327H8.38599C9.18605 7.09327 9.83938 6.43802 9.83938 5.82563C9.83938 5.16664 9.21047 4.51723 8.38579 4.51723H6.35998V7.09327ZM6.35998 13.7876H8.87211C10.0184 13.7876 10.7512 13.0693 10.7512 12.2046C10.7512 11.3898 9.96769 10.6771 9.03415 10.6771H6.35998V13.7876ZM13.6532 19.6469C17.251 19.6469 19.9233 21.4809 19.9233 24.188C19.9233 26.3031 18.5719 27.312 17.3807 27.7923C19.3358 28.3851 21.1134 29.5171 21.1134 31.9973C21.1134 35.666 17.8416 36.9149 14.3014 36.9149H5.30662V19.6471L13.6532 19.6469ZM10.817 26.2447H12.8428C13.6429 26.2447 14.2964 25.5894 14.2964 24.977C14.2964 24.318 13.6673 23.6686 12.8428 23.6686H10.8168L10.817 26.2447ZM10.817 32.9392H13.3289C14.4754 32.9392 15.208 32.2209 15.208 31.356C15.208 30.5414 14.4245 29.8287 13.491 29.8287H10.817V32.9392ZM17.0889 17.7615V0.493409H30.9461V4.66388H22.5832V6.92831H29.3739V10.8379H22.5832V13.6074H30.9459V17.7615H17.0889ZM31.2129 15.4055L34.4886 12.2666C35.2802 12.9276 36.2973 13.7066 37.5814 13.7066C38.7124 13.7066 39.3359 13.0514 39.3359 12.3999C39.3359 10.5413 31.8755 11.401 31.8755 5.47804C31.8755 2.48285 34.5983 0 38.7602 0C41.5312 0 43.5885 1.04756 44.891 2.29356L41.6347 5.41044C41.6347 5.41044 40.6947 4.54905 39.3941 4.54905C38.6394 4.54905 37.9034 4.92223 37.9034 5.62573C37.9034 7.44668 45.4729 6.54661 45.4729 12.3953C45.4729 16.0193 42.353 18.2557 38.4527 18.2557C34.6496 18.2557 32.5319 16.6971 31.2131 15.4057L31.2129 15.4055ZM49.7137 17.7615V4.64765H45.1756V0.493616H59.7618V4.64765H55.2239V17.7615H49.7137ZM21.3028 19.6348H26.797V29.9793C26.797 31.0298 27.8371 31.9977 28.9215 31.9977C29.9445 31.9977 30.9784 31.1236 30.9784 29.924V19.6348H36.4563V29.8537C36.4563 33.9085 33.107 37.1431 28.7765 37.1431C24.4209 37.1431 21.3028 33.6229 21.3028 29.6328V19.6348ZM43.2309 36.9029V30.7326L36.7733 19.635H42.3321L45.986 25.5809L49.6526 19.6348H55.2241L48.7413 30.796V36.9029H43.2309Z" fill="#1C252C"/>
<path d="M68.9329 29.0857V40.0002H55.2219L51.9805 36.7423V32.3438L55.2219 29.0857H68.9329Z" fill="#FFED31"/>
<path d="M54.689 34.5411C54.689 34.7356 54.6122 34.922 54.4754 35.0595C54.3387 35.1969 54.1532 35.2742 53.9598 35.2742C53.7663 35.2742 53.5808 35.1969 53.4441 35.0595C53.3073 34.922 53.2305 34.7356 53.2305 34.5411C53.2305 34.3467 53.3073 34.1603 53.4441 34.0228C53.5808 33.8853 53.7663 33.8081 53.9598 33.8081C54.1532 33.8081 54.3387 33.8853 54.4754 34.0228C54.6122 34.1603 54.689 34.3467 54.689 34.5411Z" fill="#1C252C"/>
</g>
<defs>
<clipPath id="clip0">
<rect width="68.0952" height="40" fill="white" transform="translate(0.84375)"/>
</clipPath>
</defs>
</svg>
