<svg width="48" height="48" viewBox="0 0 48 48" fill="none" xmlns="http://www.w3.org/2000/svg">
<path d="M38 34H28.5L30 40L32 42H16L18 40L19.5 34H10C7.79086 34 6 32.2091 6 30V26H42V30C42 32.2091 40.2091 34 38 34Z" fill="#D8E3F5"/>
<path d="M19.5 34L18 40L16 42H32L30 40L28.5 34M10 34H38C40.2091 34 42 32.2091 42 30V26H6V30C6 32.2091 7.79086 34 10 34Z" stroke="#D8E3F5" stroke-width="4" stroke-linecap="round" stroke-linejoin="round"/>
<path d="M38 6H10C7.79086 6 6 7.79086 6 10V26H42V10C42 7.79086 40.2091 6 38 6Z" fill="#E0E9F7" stroke="#E0E9F7" stroke-width="4" stroke-linecap="round" stroke-linejoin="round"/>
</svg>
