<svg width="50" height="50" viewBox="0 0 50 50" fill="none" xmlns="http://www.w3.org/2000/svg">
<path d="M16.6686 49.9999C21.2677 49.9999 25.0002 46.2666 25.0002 41.6666V33.3333H16.6686C12.0695 33.3333 8.33691 37.0666 8.33691 41.6666C8.33691 46.2666 12.0695 49.9999 16.6686 49.9999Z" fill="#0ACF83"/>
<path d="M8.33691 25.0001C8.33691 20.4001 12.0695 16.6667 16.6686 16.6667H25.0002V33.3334H16.6686C12.0695 33.3334 8.33691 29.6001 8.33691 25.0001Z" fill="#A259FF"/>
<path d="M8.33789 8.33333C8.33789 3.73333 12.0705 0 16.6696 0H25.0012V16.6667H16.6696C12.0705 16.6667 8.33789 12.9333 8.33789 8.33333Z" fill="#F24E1E"/>
<path d="M25 0H33.3317C37.9308 0 41.6633 3.73333 41.6633 8.33333C41.6633 12.9333 37.9308 16.6667 33.3317 16.6667H25V0Z" fill="#FF7262"/>
<path d="M41.6633 25.0001C41.6633 29.6001 37.9308 33.3334 33.3317 33.3334C28.7326 33.3334 25 29.6001 25 25.0001C25 20.4001 28.7326 16.6667 33.3317 16.6667C37.9308 16.6667 41.6633 20.4001 41.6633 25.0001Z" fill="#1ABCFE"/>
</svg>
