<svg width="125" height="113" viewBox="0 0 125 113" fill="none" xmlns="http://www.w3.org/2000/svg">
<g clip-path="url(#clip0)">
<path d="M117.116 22.302C117.116 22.302 98.4555 34.6225 65.4126 17.8545C32.3696 1.0866 12.9414 18.7373 16.0036 27.4334C19.0658 36.1296 34.6901 37.0674 39.4222 32.8712C44.1543 28.6751 22.1376 14.809 12.7357 37.0937C3.33373 59.3783 22.1615 69.163 43.0578 75.5695" stroke="#40B17E" stroke-miterlimit="10" stroke-linecap="round" stroke-linejoin="round"/>
<path d="M56.2217 81.6504V76.6504L98.2217 102.65L56.2217 81.6504Z" fill="white" stroke="#40B17E" stroke-miterlimit="10" stroke-linecap="round" stroke-linejoin="round"/>
<path d="M98.2217 102.65L78.2217 74.6504L56.2217 76.6504L98.2217 102.65Z" fill="white" stroke="#40B17E" stroke-miterlimit="10" stroke-linecap="round" stroke-linejoin="round"/>
<path d="M51.2217 94.6504L52.2217 85.6504L98.2217 102.65L51.2217 94.6504Z" fill="white" stroke="#40B17E" stroke-miterlimit="10" stroke-linecap="round" stroke-linejoin="round"/>
<path d="M26.2217 80.6504L54.2217 78.6504L98.2217 102.65L26.2217 80.6504Z" fill="white" stroke="#40B17E" stroke-miterlimit="10" stroke-linecap="round" stroke-linejoin="round"/>
</g>
<defs>
<clipPath id="clip0">
<rect width="124" height="112" fill="white" transform="translate(0.421875 0.0507812)"/>
</clipPath>
</defs>
</svg>
