<svg width="32" height="33" viewBox="0 0 32 33" fill="none" xmlns="http://www.w3.org/2000/svg">
<circle cx="16" cy="16.2256" r="16" fill="#ECF1FA"/>
<path d="M16.0001 6.22559C10.4779 6.22559 6 10.816 6 16.4788C6 21.0089 8.86533 24.8522 12.8387 26.208C13.3384 26.3029 13.5219 25.9855 13.5219 25.7147C13.5219 25.4702 13.5126 24.6625 13.5083 23.8058C10.7263 24.426 10.1393 22.5961 10.1393 22.5961C9.68437 21.4109 9.02894 21.0958 9.02894 21.0958C8.12163 20.4594 9.09733 20.4725 9.09733 20.4725C10.1015 20.5448 10.6303 21.5291 10.6303 21.5291C11.5222 23.0966 12.9697 22.6434 13.5403 22.3814C13.6301 21.7188 13.8892 21.2664 14.1752 21.0104C11.954 20.7511 9.61913 19.872 9.61913 15.9432C9.61913 14.8238 10.0098 13.9092 10.6495 13.1911C10.5456 12.9329 10.2034 11.8901 10.7463 10.4778C10.7463 10.4778 11.5861 10.2022 13.4971 11.5288C14.2948 11.3016 15.1502 11.1876 16.0001 11.1837C16.8499 11.1876 17.7061 11.3016 18.5052 11.5288C20.4139 10.2022 21.2525 10.4778 21.2525 10.4778C21.7968 11.8901 21.4544 12.9329 21.3505 13.1911C21.9917 13.9092 22.3797 14.8238 22.3797 15.9432C22.3797 19.8813 20.0403 20.7484 17.8135 21.0023C18.1722 21.3204 18.4918 21.9444 18.4918 22.901C18.4918 24.2729 18.4802 25.377 18.4802 25.7147C18.4802 25.9876 18.6602 26.3073 19.1671 26.2066C23.1383 24.8493 26 21.0073 26 16.4788C26 10.816 21.5227 6.22559 16.0001 6.22559Z" fill="#202E3D"/>
<path d="M9.81703 20.8765C9.79504 20.927 9.71703 20.9421 9.64595 20.9075C9.57356 20.8744 9.53289 20.8056 9.55637 20.755C9.57785 20.7031 9.65604 20.6886 9.72827 20.7234C9.80083 20.7565 9.84215 20.8259 9.81703 20.8765Z" fill="#202E3D"/>
<path d="M10.2213 21.3352C10.1737 21.38 10.0807 21.3592 10.0175 21.2883C9.95223 21.2175 9.94 21.1228 9.98827 21.0773C10.0374 21.0324 10.1276 21.0534 10.1931 21.1242C10.2583 21.1958 10.2711 21.2898 10.2213 21.3352Z" fill="#202E3D"/>
<path d="M10.6149 21.9199C10.5537 21.9631 10.4537 21.9226 10.3919 21.8323C10.3307 21.742 10.3307 21.6337 10.3932 21.5904C10.4552 21.547 10.5537 21.586 10.6164 21.6756C10.6773 21.7674 10.6773 21.8756 10.6149 21.9199Z" fill="#202E3D"/>
<path d="M11.154 22.4847C11.0993 22.5461 10.9828 22.5296 10.8975 22.4459C10.8102 22.364 10.7859 22.2479 10.8408 22.1865C10.8962 22.125 11.0134 22.1423 11.0993 22.2253C11.1859 22.307 11.2124 22.424 11.154 22.4847Z" fill="#202E3D"/>
<path d="M11.8978 22.8127C11.8737 22.8922 11.7615 22.9284 11.6484 22.8946C11.5355 22.8598 11.4616 22.7667 11.4845 22.6863C11.5079 22.6063 11.6207 22.5686 11.7345 22.6048C11.8473 22.6394 11.9213 22.7318 11.8978 22.8127Z" fill="#202E3D"/>
<path d="M12.7147 22.8736C12.7175 22.9573 12.6216 23.0267 12.503 23.0282C12.3836 23.0309 12.2871 22.9632 12.2858 22.8808C12.2858 22.7962 12.3795 22.7275 12.4988 22.7255C12.6175 22.7231 12.7147 22.7904 12.7147 22.8736Z" fill="#202E3D"/>
<path d="M13.4749 22.7419C13.4891 22.8236 13.4066 22.9075 13.2888 22.9299C13.1729 22.9514 13.0656 22.901 13.0509 22.8199C13.0365 22.7362 13.1205 22.6523 13.2362 22.6306C13.3542 22.6098 13.4598 22.6589 13.4749 22.7419Z" fill="#202E3D"/>
</svg>
