<svg width="48" height="49" viewBox="0 0 48 49" fill="none" xmlns="http://www.w3.org/2000/svg">
<path d="M41.2358 12.9262C40.8265 12.947 40.4145 12.9575 40 12.9575C33.8531 12.9575 28.2459 10.6466 23.9999 6.84619C19.7538 10.6464 14.1468 12.9572 8 12.9572C7.58555 12.9572 7.17355 12.9467 6.76426 12.926C6.26541 14.8532 6 16.8744 6 18.9575C6 30.1406 13.6486 39.5372 24 42.2014C34.3514 39.5372 42 30.1406 42 18.9575C42 16.8745 41.7346 14.8533 41.2358 12.9262Z" fill="#D8E3F5" stroke="#D8E3F5" stroke-width="4" stroke-linecap="round" stroke-linejoin="round"/>
<path d="M24 18.9575V24.9575M24 24.9575V30.9575M24 24.9575H30M24 24.9575H18" stroke="#EF7E82" stroke-width="4" stroke-linecap="round" stroke-linejoin="round"/>
</svg>
