<svg width="519" height="489" viewBox="0 0 519 489" fill="none" xmlns="http://www.w3.org/2000/svg">
<rect x="149.596" y="0.135254" width="132.458" height="172.196" rx="5.99474" fill="#FCFDFE"/>
<circle cx="158.587" cy="9.12725" r="2.99737" fill="#F5B0B2"/>
<circle cx="167.579" cy="9.12725" r="2.99737" fill="#FEE182"/>
<circle cx="176.572" cy="9.12725" r="2.99737" fill="#F7BFC7"/>
<path d="M272.487 18.1194H158.587C156.932 18.1194 155.59 19.4614 155.59 21.1168V75.0693C155.59 76.7247 156.932 78.0667 158.587 78.0667H272.487C274.143 78.0667 275.485 76.7247 275.485 75.0693V21.1168C275.485 19.4614 274.143 18.1194 272.487 18.1194Z" fill="#F9D1D2"/>
<rect x="155.59" y="85.2605" width="119.895" height="2.3979" rx="1.19895" fill="#E8EEF9"/>
<circle cx="237.718" cy="86.4594" r="2.3979" fill="#D8E3F5"/>
<rect width="119.895" height="2.3979" rx="1.19895" transform="matrix(-1 0 0 1 275.484 96.051)" fill="#E8EEF9"/>
<circle r="2.3979" transform="matrix(-1 0 0 1 193.356 97.2499)" fill="#D8E3F5"/>
<path d="M209.542 105.643H158.587C156.932 105.643 155.59 106.985 155.59 108.64V162.593C155.59 164.248 156.932 165.59 158.587 165.59H209.542C211.198 165.59 212.54 164.248 212.54 162.593V108.64C212.54 106.985 211.198 105.643 209.542 105.643Z" fill="#FEE182"/>
<path d="M272.488 105.643H221.533C219.877 105.643 218.535 106.985 218.535 108.64V162.593C218.535 164.248 219.877 165.59 221.533 165.59H272.488C274.143 165.59 275.485 164.248 275.485 162.593V108.64C275.485 106.985 274.143 105.643 272.488 105.643Z" fill="#F7BFC7"/>
<g clip-path="url(#clip0)">
<path d="M232.636 37.2181C232.65 37.2676 232.657 37.3186 232.658 37.3699V45.3348C232.658 45.4371 232.629 45.5375 232.574 45.6259C232.52 45.7144 232.441 45.7878 232.347 45.8386L225.228 49.6876V57.3164C225.228 57.524 225.11 57.7157 224.918 57.8202L210.058 65.8534C210.024 65.8716 209.986 65.8832 209.949 65.8955C209.935 65.8999 209.922 65.9079 209.908 65.9115C209.804 65.9372 209.695 65.9372 209.591 65.9115C209.574 65.9072 209.558 65.8985 209.542 65.8926C209.508 65.881 209.472 65.8709 209.44 65.8534L194.582 57.8202C194.488 57.7693 194.409 57.6959 194.355 57.6075C194.3 57.519 194.272 57.4186 194.271 57.3164V33.4215C194.271 33.3692 194.279 33.3184 194.293 33.269C194.298 33.2523 194.309 33.2371 194.315 33.2204C194.326 33.1899 194.337 33.1587 194.354 33.1304C194.366 33.1115 194.383 33.0963 194.397 33.0788C194.415 33.0556 194.431 33.0317 194.452 33.0113C194.469 32.9946 194.493 32.9823 194.513 32.9678C194.535 32.9503 194.555 32.9315 194.581 32.9177H194.581L202.011 28.9011C202.105 28.8502 202.211 28.8235 202.32 28.8235C202.428 28.8235 202.535 28.8502 202.629 28.9011L210.058 32.9177H210.06C210.085 32.9322 210.106 32.9503 210.128 32.967C210.148 32.9816 210.17 32.9946 210.188 33.0106C210.21 33.0317 210.225 33.0556 210.244 33.0788C210.257 33.0963 210.275 33.1115 210.286 33.1304C210.303 33.1594 210.313 33.1899 210.326 33.2204C210.332 33.2371 210.343 33.2523 210.348 33.2698C210.362 33.3192 210.369 33.3702 210.369 33.4215V48.346L216.56 44.9987V37.3691C216.56 37.3183 216.568 37.2668 216.582 37.2181C216.587 37.2007 216.597 37.1855 216.603 37.1688C216.616 37.1383 216.626 37.1071 216.643 37.0787C216.655 37.0599 216.672 37.0446 216.685 37.0272C216.704 37.004 216.719 36.98 216.741 36.9597C216.759 36.943 216.781 36.9307 216.801 36.9161C216.824 36.8987 216.844 36.8798 216.869 36.8661H216.87L224.3 32.8494C224.394 32.7985 224.501 32.7717 224.609 32.7717C224.718 32.7717 224.824 32.7985 224.918 32.8494L232.348 36.8661C232.374 36.8806 232.394 36.8987 232.417 36.9154C232.436 36.9299 232.459 36.943 232.477 36.959C232.498 36.98 232.514 37.004 232.532 37.0272C232.546 37.0446 232.563 37.0599 232.574 37.0787C232.592 37.1071 232.602 37.1383 232.614 37.1688C232.621 37.1855 232.631 37.2007 232.636 37.2181ZM231.419 44.9987V38.3753L228.819 39.7807L225.228 41.7226V48.346L231.42 44.9987H231.419ZM223.99 56.9803V50.3525L220.457 52.2472L210.368 57.654V64.3442L223.99 56.9803ZM195.51 34.4269V56.9803L209.13 64.3435V57.6547L202.015 53.8733L202.012 53.8719L202.009 53.8704C201.985 53.8573 201.965 53.8385 201.943 53.8225C201.923 53.808 201.901 53.7964 201.884 53.7804L201.882 53.7782C201.862 53.7601 201.848 53.7376 201.831 53.7172C201.816 53.6976 201.797 53.6809 201.785 53.6606L201.784 53.6584C201.77 53.6366 201.762 53.6105 201.752 53.5858C201.742 53.5641 201.729 53.5437 201.722 53.5205V53.5198C201.715 53.4922 201.713 53.4632 201.71 53.4348C201.707 53.4131 201.701 53.3913 201.701 53.3695V37.7742L198.11 35.8316L195.51 34.4276V34.4269ZM202.321 30.0756L196.131 33.4215L202.319 36.7673L208.508 33.4208L202.319 30.0756H202.321ZM205.54 50.9565L209.131 49.0153V34.4269L206.531 35.8323L202.939 37.7742V52.3626L205.54 50.9565ZM224.609 34.024L218.42 37.3699L224.609 40.7157L230.798 37.3691L224.609 34.024ZM223.99 41.7226L220.398 39.7807L217.798 38.3753V44.9987L221.389 46.9399L223.99 48.346V41.7226ZM209.748 56.6486L218.827 51.7819L223.364 49.35L217.18 46.0063L210.059 49.856L203.569 53.3644L209.748 56.6486Z" fill="#FF2D20"/>
</g>
<path d="M46.8795 458.948L46.4599 462.51C46.4599 462.51 36.8457 484.632 38.6287 486.31C39.8524 487.44 41.3557 488.159 43.0338 488.398C44.6769 488.638 46.3551 488.398 47.8584 487.714C52.1236 485.967 68.1706 465.9 68.1706 465.9L68.7999 462.955L46.8795 458.948Z" fill="#676E77"/>
<path d="M55.4093 465.695C55.3394 465.832 54.1507 465.25 52.5775 464.839C51.5986 464.668 50.6547 464.462 49.6758 464.188C50.6896 464.051 51.7035 464.12 52.7173 464.36C53.6962 464.599 54.6402 465.079 55.4093 465.695Z" fill="#495A63"/>
<path d="M54.3265 462.99C53.6972 462.854 53.1029 462.614 52.5435 462.237C51.9492 461.895 51.3898 461.484 50.9004 461.039C50.6207 460.765 50.341 460.491 50.0264 460.182C49.8516 460.011 49.7117 459.84 49.6068 459.635C49.5369 459.498 49.502 459.361 49.502 459.224C49.502 459.087 49.5369 458.915 49.6068 458.778C49.7816 458.573 49.9914 458.436 50.2711 458.368C50.5158 458.299 50.7955 458.299 51.0752 458.402C51.4947 458.505 51.9142 458.676 52.2638 458.95C52.8232 459.395 53.2777 459.977 53.5224 460.662C53.8021 461.244 53.907 461.895 53.8371 462.511C53.8371 462.511 53.6623 461.792 53.1728 460.799C52.8931 460.217 52.4736 459.703 51.9841 459.326C51.4597 458.95 50.4459 458.607 50.0613 459.087C49.9215 459.258 50.0613 459.6 50.4109 459.909C50.6556 460.217 50.9353 460.491 51.25 460.765C51.7394 461.21 52.2638 461.655 52.7882 462.032C53.6972 462.58 54.3615 462.922 54.3265 462.99Z" fill="#495A63"/>
<path d="M53.9766 462.682C53.9766 462.031 54.1863 461.381 54.5709 460.833C54.9205 460.216 55.4449 459.634 56.0392 459.223C56.3889 458.949 56.7734 458.744 57.193 458.607C57.4377 458.504 57.6824 458.47 57.9271 458.504C58.1019 458.504 58.2418 458.573 58.3816 458.641C58.5215 458.744 58.6263 458.846 58.6613 459.018C58.7312 459.257 58.7312 459.531 58.6613 459.771C58.5914 460.011 58.4865 460.251 58.3117 460.456C58.1019 460.833 57.8222 461.141 57.4726 461.449C56.9482 461.928 56.284 462.305 55.5848 462.511C54.9555 462.785 54.2562 462.819 53.627 462.648C54.2562 462.545 54.8855 462.374 55.4799 462.168C56.1092 461.928 56.6685 461.552 57.123 461.107C57.4027 460.833 57.6474 460.524 57.8572 460.216C57.9621 460.079 58.067 459.908 58.1019 459.737C58.1369 459.566 58.1719 459.394 58.1369 459.223C58.067 458.983 57.6474 458.949 57.2978 459.12C56.9482 459.257 56.5986 459.463 56.284 459.668C55.7246 460.045 55.2351 460.49 54.8506 461.038C54.2213 461.963 54.0814 462.682 53.9766 462.682Z" fill="#495A63"/>
<path d="M63.0675 463.949C63.1374 464.051 62.9277 464.359 62.648 464.667C62.3683 464.941 62.0536 465.215 61.9138 465.112C61.8089 465.044 61.9138 464.667 62.2634 464.325C62.613 463.983 62.9976 463.846 63.0675 463.949Z" fill="#495A63"/>
<path d="M66.0723 462.716C66.0723 462.853 65.7576 463.024 65.3381 463.127C64.9186 463.229 64.534 463.298 64.499 463.127C64.4641 462.955 64.7438 462.75 65.1982 462.613C65.6877 462.476 66.0723 462.579 66.0723 462.716Z" fill="#495A63"/>
<path d="M99.8092 466.928L103.096 452.135L74.8472 446.005L69.8828 467.579L71.6309 468.093C79.3222 470.216 110.892 478.332 116.486 477.921C122.604 477.442 99.8092 466.928 99.8092 466.928Z" fill="#676E77"/>
<path d="M77.4008 448.539C76.7715 450.388 76.282 452.271 75.8625 454.155C75.373 456.038 74.9535 457.956 74.6738 459.874C75.3031 458.025 75.8275 456.141 76.2121 454.258C76.7365 452.374 77.156 450.457 77.4008 448.539Z" fill="#495A63"/>
<path d="M77.2596 463.469C77.1897 463.469 77.2596 463.846 77.5393 464.222C77.819 464.565 78.0288 464.804 78.0987 464.77C78.1686 464.736 78.0987 464.393 77.819 464.017C77.5393 463.641 77.3295 463.401 77.2596 463.469Z" fill="#495A63"/>
<path d="M74.5332 461.655C74.5332 461.757 74.9178 461.826 75.3023 462.065C75.6869 462.305 75.9316 462.579 76.0365 462.544C76.1064 462.51 76.0365 462.065 75.4771 461.792C74.9178 461.518 74.5332 461.586 74.5332 461.655Z" fill="#495A63"/>
<path d="M72.541 460.662C72.541 460.73 72.6109 460.935 72.8207 461.038C73.0305 461.175 73.2402 461.243 73.3102 461.141C73.3451 461.072 73.3102 460.867 73.0305 460.764C72.7508 460.627 72.576 460.559 72.541 460.662Z" fill="#495A63"/>
<path d="M113.271 216.635L79.8831 205.06L33.8398 213.245L35.1683 466.037L78.8693 465.455C78.8693 465.455 78.8693 462.51 78.7644 457.374L104.391 464.257C104.391 464.257 129.353 381.591 137.883 347.654C144.945 319.334 113.271 216.635 113.271 216.635ZM78.24 416.212C77.5757 355.051 76.6667 257.283 77.5757 244.544C77.5757 244.544 102.048 329.881 102.328 337.107C102.468 341.456 88.903 383.714 78.24 416.212Z" fill="#252E3B"/>
<path d="M163.543 97.9434C164.557 94.9642 165.885 92.0876 167.459 89.3823C168.892 87.2249 170.955 85.5127 173.402 84.5196C176.583 83.3553 180.114 83.8005 183.471 84.2799L191.581 85.4442C192.7 85.6154 194.099 86.0949 194.064 87.1907C193.994 87.4989 193.854 87.8071 193.644 88.0468C193.434 88.2865 193.12 88.4577 192.805 88.5262C192.141 88.6632 191.477 88.6632 190.847 88.5262C189.064 88.2865 187.246 88.2523 185.428 88.355C184.135 88.4235 182.527 88.9029 182.317 90.1357C182.107 91.3685 183.331 92.1904 184.484 92.2246C185.638 92.1561 186.757 91.7452 187.701 91.0603L190.882 89.2111C191.442 88.7659 192.141 88.5605 192.875 88.629C194.064 88.9029 194.343 90.5466 193.714 91.5397C192.98 92.4643 192.036 93.252 190.952 93.7999C186.862 96.5052 184.974 100.923 183.086 106.744" fill="#FFC3AA"/>
<path d="M163.614 96.7114L145.434 142.565L126.555 99.7592C120.647 79.0413 94.5312 77.6715 94.5312 77.6715L68.6952 74.4525C59.3956 70.7541 44.3275 73.8361 38.4541 77.0208C30.9376 81.0617 24.2601 93.4924 22.7917 102.67C22.7917 102.67 -3.21908 168.556 1.22094 175.439C5.66095 182.323 33.4547 209.205 33.4547 209.205L29.5741 223.074L73.7995 225.813L120.367 229.888C118.549 213.793 115.612 197.63 114.808 193.007L111.522 145.818L111.942 136.127L112.326 135.134C116.207 141.537 121.136 149.688 127.185 160.166C139.351 181.193 151.587 175.816 158.789 167.392C161.866 163.522 164.173 159.139 165.606 154.448L183.471 105.238L163.614 96.7114ZM36.9508 175.405C36.9508 175.679 32.5108 167.632 32.5108 167.632L39.0135 146.606C39.0135 146.606 36.9508 175.166 36.9508 175.405Z" fill="#EF7E82"/>
<path d="M100.293 46.926C101.267 51.4176 105.73 54.2795 110.316 53.3255C114.901 52.3715 117.823 47.9992 116.849 43.5077C115.875 39.0161 111.412 36.1542 106.826 37.1082C102.281 38.0224 99.3595 42.4345 100.293 46.926Z" fill="#FFC3AA"/>
<path d="M95.6266 64.2566L95.2614 77.8903C95.0585 85.5617 88.5252 91.6034 80.6933 91.3649C72.5368 91.0867 66.3281 84.1307 67.1397 76.1811L70.3861 44.4619L95.6266 64.2566Z" fill="#FFC3AA"/>
<path d="M104.919 12.0268C106.583 13.736 110.884 20.3739 111.128 22.7191C112.061 30.5495 113.806 49.7877 110.113 58.1746C105.447 68.8669 95.7886 75.0676 81.3828 71.0133C81.3828 71.0133 68.1944 69.4233 62.4321 43.7062C53.6669 4.51437 88.119 -5.54195 104.919 12.0268Z" fill="#FFC3AA"/>
<path d="M104.473 41.9561C104.676 42.9896 105.69 43.6653 106.745 43.4665C107.8 43.2678 108.49 42.2741 108.287 41.2407C108.085 40.2072 107.07 39.5315 106.015 39.7302C104.96 39.929 104.27 40.9227 104.473 41.9561Z" fill="#101010"/>
<path d="M87.3069 41.3202C87.5098 42.3536 88.5243 43.0293 89.5794 42.8306C90.6344 42.6318 91.3243 41.6381 91.1214 40.6047C90.9185 39.5712 89.904 38.8955 88.8489 39.0942C87.7938 39.293 87.104 40.2867 87.3069 41.3202Z" fill="#101010"/>
<path d="M98.4277 37.9014L100.984 46.7653C101.471 48.395 100.416 50.1041 98.7118 50.4221" stroke="#FF9574" stroke-width="0.99331" stroke-miterlimit="10" stroke-linecap="round" stroke-linejoin="round"/>
<path d="M100.82 53.6423L88.0379 53.2051C88.0379 53.2051 87.835 57.7762 94.0031 58.0146C100.212 58.2531 100.82 53.6423 100.82 53.6423Z" fill="white"/>
<path d="M102.932 31.1051C102.932 31.1051 106.219 30.5884 110.561 33.2515" stroke="#1F2D3D" stroke-width="3.27819" stroke-miterlimit="10" stroke-linecap="round"/>
<path d="M92.0153 31.1056C92.0153 31.1056 83.8182 29.5157 79.4355 33.252" stroke="#1F2D3D" stroke-width="3.27819" stroke-miterlimit="10" stroke-linecap="round"/>
<path d="M110.803 21.4474C110.803 21.4474 108.611 18.2277 106.379 19.3407C102.524 21.2884 96.0721 23.5143 80.3678 18.665C80.3678 18.665 72.8199 15.8826 72.333 21.4474C71.846 27.0121 73.5504 44.4616 73.5504 44.4616L68.0315 45.1771L59.6315 34.8425L57.5214 15.1671C56.9533 9.8806 60.4431 5.03131 65.7185 3.75936C74.5649 1.61296 87.875 -0.414207 104.147 3.12339C108.571 4.07735 111.614 8.48941 110.924 12.8617L110.803 21.4474Z" fill="#1F2D3D"/>
<path d="M52.3279 45.8534C53.4236 50.8617 58.4149 54.0813 63.5279 53.0081C68.6409 51.9349 71.9279 47.0459 70.8322 42.0376C69.7366 37.0293 64.7453 33.8097 59.6323 34.8829C54.5192 35.9164 51.2323 40.8451 52.3279 45.8534Z" fill="#FFC3AA"/>
<path d="M57.5625 40.8849C57.5625 40.8849 64.6639 39.5335 65.8408 47.1254" stroke="#FF9574" stroke-width="0.99331" stroke-miterlimit="10" stroke-linecap="round" stroke-linejoin="round"/>
<path d="M68.6945 74.4519C68.6945 74.4519 66.6668 85.2047 78.8681 88.5949C93.5517 92.6357 95.7192 77.8079 95.7192 77.8079" fill="#FFC3AA"/>
<path d="M33.1406 210.266C33.1406 210.266 40.9019 156.296 39.2937 123.49" stroke="#ED6D72" stroke-width="0.855769" stroke-miterlimit="10" stroke-linecap="round" stroke-linejoin="round"/>
<path d="M305.902 297.321L354.992 307.508C360.563 309.257 367.816 306.685 372.966 304.113L418.587 279.623L406.604 249.063C405.342 249.475 404.186 249.886 403.03 250.504L363.401 281.784L310.317 277.565L305.902 297.321Z" fill="#EF7E82"/>
<g filter="url(#filter0_dd)">
<rect x="221.312" y="271.735" width="295.074" height="80.4755" rx="8.94172" transform="rotate(4.45032 221.312 271.735)" fill="#F8FAFD"/>
<circle cx="235.831" cy="286.318" r="4.47086" transform="rotate(4.45032 235.831 286.318)" fill="#F5B0B2"/>
<circle cx="249.204" cy="287.359" r="4.47086" transform="rotate(4.45032 249.204 287.359)" fill="#FEE182"/>
<circle cx="262.575" cy="288.4" r="4.47086" transform="rotate(4.45032 262.575 288.4)" fill="#A2D9C0"/>
<path d="M269.36 302.38L231.504 299.434C229.65 299.29 228.029 300.676 227.885 302.531L224.939 340.389C224.794 342.243 226.181 343.864 228.035 344.008L265.891 346.954C267.745 347.099 269.366 345.712 269.51 343.858L272.456 306C272.601 304.145 271.214 302.525 269.36 302.38Z" fill="#F7C0C2"/>
<rect x="278.066" y="303.058" width="1.78834" height="44.7086" rx="0.894172" transform="rotate(4.45032 278.066 303.058)" fill="#E8EEF9"/>
<rect x="307.348" y="307.131" width="85.3934" height="3.57669" rx="1.78834" transform="rotate(4.45032 307.348 307.131)" fill="#F39FA2"/>
<rect x="396.941" y="314.104" width="17.8834" height="3.57669" rx="1.78834" transform="rotate(4.45032 396.941 314.104)" fill="#E8EEF9"/>
<rect x="419.229" y="315.838" width="85.3934" height="3.57669" rx="1.78834" transform="rotate(4.45032 419.229 315.838)" fill="#E8EEF9"/>
<rect x="284.09" y="317.877" width="17.8834" height="3.57669" rx="1.78834" transform="rotate(4.45032 284.09 317.877)" fill="#E8EEF9"/>
<rect x="306.377" y="319.612" width="85.3934" height="3.57669" rx="1.78834" transform="rotate(4.45032 306.377 319.612)" fill="#E8EEF9"/>
<rect x="395.971" y="326.584" width="17.8834" height="3.57669" rx="1.78834" transform="rotate(4.45032 395.971 326.584)" fill="#E8EEF9"/>
<rect x="418.258" y="328.319" width="85.3934" height="3.57669" rx="1.78834" transform="rotate(4.45032 418.258 328.319)" fill="#F39FA2"/>
<rect x="283.117" y="330.358" width="17.8834" height="3.57669" rx="1.78834" transform="rotate(4.45032 283.117 330.358)" fill="#E8EEF9"/>
<rect x="305.404" y="332.092" width="17.8834" height="3.57669" rx="1.78834" transform="rotate(4.45032 305.404 332.092)" fill="#F39FA2"/>
<rect x="327.691" y="333.827" width="152.903" height="3.57669" rx="1.78834" transform="rotate(4.45032 327.691 333.827)" fill="#E8EEF9"/>
<rect x="484.59" y="346.038" width="17.8834" height="3.57669" rx="1.78834" transform="rotate(4.45032 484.59 346.038)" fill="#E8EEF9"/>
<rect x="282.146" y="342.838" width="17.8834" height="3.57669" rx="1.78834" transform="rotate(4.45032 282.146 342.838)" fill="#E8EEF9"/>
<rect x="326.721" y="346.307" width="152.903" height="3.57669" rx="1.78834" transform="rotate(4.45032 326.721 346.307)" fill="#F39FA2"/>
<rect x="483.619" y="358.519" width="17.8834" height="3.57669" rx="1.78834" transform="rotate(4.45032 483.619 358.519)" fill="#E8EEF9"/>
</g>
<g clip-path="url(#clip1)">
<path d="M260.437 319.318C260.443 319.347 260.445 319.377 260.443 319.407L260.084 324.013C260.08 324.072 260.059 324.129 260.023 324.178C259.988 324.226 259.939 324.265 259.882 324.29L255.591 326.196L255.248 330.608C255.239 330.728 255.162 330.834 255.046 330.886L246.09 334.863C246.07 334.872 246.048 334.877 246.026 334.882C246.017 334.884 246.009 334.888 246.001 334.89C245.939 334.9 245.876 334.895 245.817 334.875C245.808 334.872 245.799 334.866 245.79 334.862C245.771 334.854 245.751 334.846 245.733 334.835L237.501 329.52C237.449 329.486 237.407 329.44 237.38 329.387C237.352 329.333 237.34 329.274 237.344 329.215L238.42 315.395C238.422 315.365 238.429 315.336 238.439 315.308C238.443 315.298 238.45 315.29 238.454 315.281C238.462 315.264 238.47 315.246 238.481 315.23C238.488 315.22 238.499 315.212 238.508 315.203C238.519 315.19 238.53 315.177 238.543 315.166C238.554 315.157 238.568 315.151 238.58 315.144C238.594 315.134 238.606 315.124 238.622 315.118L238.622 315.118L243.099 313.129C243.156 313.104 243.219 313.093 243.282 313.098C243.345 313.103 243.405 313.123 243.457 313.157L247.573 315.814L247.574 315.814C247.588 315.824 247.599 315.835 247.611 315.846C247.622 315.855 247.634 315.864 247.644 315.874C247.656 315.887 247.663 315.902 247.673 315.916C247.68 315.927 247.689 315.936 247.695 315.948C247.704 315.965 247.708 315.983 247.714 316.001C247.717 316.011 247.723 316.021 247.724 316.031C247.73 316.06 247.732 316.09 247.73 316.12L247.058 324.751L250.789 323.094L251.133 318.681C251.135 318.652 251.142 318.623 251.152 318.595C251.156 318.585 251.163 318.577 251.167 318.568C251.175 318.55 251.183 318.533 251.194 318.517C251.202 318.507 251.212 318.499 251.221 318.489C251.232 318.477 251.242 318.464 251.256 318.453C251.267 318.444 251.28 318.438 251.293 318.43C251.307 318.421 251.319 318.411 251.334 318.404L251.335 318.404L255.813 316.416C255.869 316.391 255.932 316.38 255.995 316.385C256.058 316.39 256.118 316.41 256.17 316.444L260.286 319.101C260.301 319.111 260.312 319.122 260.324 319.133C260.335 319.142 260.347 319.151 260.357 319.161C260.368 319.174 260.376 319.188 260.386 319.203C260.393 319.213 260.402 319.223 260.408 319.234C260.417 319.252 260.421 319.27 260.427 319.288C260.43 319.298 260.435 319.307 260.437 319.318ZM259.383 323.763L259.681 319.932L258.115 320.628L255.95 321.589L255.652 325.42L259.384 323.763L259.383 323.763ZM254.547 330.358L254.846 326.525L252.717 327.462L246.639 330.135L246.338 334.004L254.547 330.358ZM239.091 316.032L238.076 329.076L245.621 333.948L245.923 330.079L241.978 327.572L241.976 327.571L241.975 327.57C241.961 327.561 241.951 327.55 241.938 327.539C241.928 327.53 241.915 327.522 241.906 327.512L241.905 327.511C241.895 327.5 241.888 327.486 241.879 327.473C241.871 327.461 241.861 327.451 241.854 327.439L241.854 327.437C241.847 327.424 241.843 327.409 241.839 327.394C241.834 327.381 241.827 327.368 241.824 327.355L241.825 327.354C241.821 327.338 241.822 327.321 241.821 327.305C241.82 327.292 241.818 327.279 241.819 327.266L242.521 318.247L240.531 316.962L239.091 316.033L239.091 316.032ZM243.226 313.822L239.495 315.479L242.924 317.692L246.654 316.036L243.225 313.822L243.226 313.822ZM244.148 326.044L246.312 325.083L246.969 316.645L245.402 317.341L243.237 318.303L242.58 326.74L244.148 326.044ZM255.939 317.109L252.209 318.766L255.637 320.979L259.367 319.322L255.939 317.109ZM255.234 321.534L253.244 320.249L251.804 319.319L251.506 323.15L253.495 324.434L254.936 325.364L255.234 321.534ZM246.326 329.525L251.795 327.119L254.529 325.917L251.103 323.705L246.811 325.611L242.9 327.348L246.326 329.525Z" fill="#FF2D20"/>
</g>
<path d="M383.057 301.437C383.057 301.437 377.485 293.822 376.014 291.25C374.647 288.575 367.92 281.989 367.92 281.989C367.92 281.989 366.658 282.401 366.764 284.665C367.71 286.722 368.656 288.678 369.812 290.633C369.812 290.633 370.443 293.925 368.971 294.028C367.499 294.131 349.63 291.456 349.63 291.456C345.74 290.838 345.74 293.102 345.74 293.102C345.74 293.102 343.112 292.588 342.692 294.337C342.377 295.469 344.689 296.909 344.689 296.909C344.689 296.909 341.956 295.88 341.01 297.732C339.959 299.482 344.899 301.54 344.899 301.54C345.004 304.318 354.36 308.331 356.883 309.565C359.405 310.697 382.216 316.357 382.216 316.357L387.787 304.009L383.057 301.437Z" fill="#FFBEA9"/>
<path d="M364.346 298.145C363.4 298.145 362.454 298.145 361.508 297.939C359.301 297.63 356.988 297.116 354.886 296.498C352.678 295.881 350.576 295.161 348.474 294.235C347.528 293.926 346.687 293.514 345.846 293C346.792 293.206 347.633 293.514 348.474 293.926C350.05 294.543 352.363 295.264 354.886 295.984C357.514 296.704 359.721 297.219 361.508 297.527C362.454 297.733 363.4 297.939 364.346 298.145Z" fill="#E4977C"/>
<path d="M362.559 302.672C361.613 302.569 360.772 302.363 359.931 302.157C358.354 301.746 356.041 301.128 353.624 300.408C351.521 299.791 349.524 299.07 347.527 298.144C346.686 297.835 345.845 297.424 345.109 296.909C345.95 297.115 346.896 297.424 347.737 297.733C349.314 298.35 351.416 298.967 353.834 299.791L360.036 301.643C360.877 301.951 361.718 302.26 362.559 302.672Z" fill="#E4977C"/>
<path d="M360.037 306.994C359.196 306.994 358.46 306.891 357.619 306.685C355.727 306.274 353.835 305.759 352.048 305.039C350.261 304.319 348.474 303.598 346.792 302.672C346.056 302.364 345.426 301.952 344.795 301.437C344.9 301.335 348.054 302.981 352.258 304.627C354.045 305.347 355.832 305.862 357.619 306.376C358.565 306.479 359.301 306.685 360.037 306.994Z" fill="#E4977C"/>
<path d="M406.496 248.96C406.496 250.195 401.346 287.752 401.346 295.983C401.346 304.215 410.806 316.254 410.806 316.254L434.773 353.091H497.842L473.455 313.27L466.518 281.681C462.839 269.642 463.154 263.468 454.009 254.619L449.594 251.738C441.185 246.182 430.778 244.124 420.792 246.182L406.496 248.96Z" fill="#EF7E82"/>
<path d="M425.102 275.198L434.773 315.019L385.789 301.54L377.484 315.945L441.185 344.345C444.969 345.991 449.279 346.403 453.273 345.271C457.267 344.139 460.841 341.772 463.259 338.48C464.731 336.422 465.782 334.055 466.202 331.586C466.623 329.116 466.623 326.544 465.992 324.074L451.696 269.539C451.276 267.79 450.435 266.144 449.279 264.703C448.122 263.263 446.651 262.028 445.074 261.205C443.392 260.279 441.605 259.764 439.713 259.661C437.821 259.455 435.929 259.764 434.142 260.279C431.094 261.307 428.466 263.365 426.784 266.144C425.102 268.819 424.576 272.009 425.102 275.198Z" fill="#EF7E82"/>
<path d="M491.432 439.524L467.045 429.132L460.633 449.814L479.554 456.296L479.343 474.098C470.303 476.67 469.042 481.095 469.042 481.095L487.963 480.683L504.466 447.859L491.432 439.524Z" fill="#1F2D3D"/>
<g opacity="0.6">
<path opacity="0.6" d="M504.465 447.859L487.962 480.58L469.041 480.992L471.143 478.213L486.49 477.081L501.627 446.11L504.465 447.859Z" fill="#3C4858"/>
</g>
<path d="M363.714 442.302L363.924 466.586C363.924 466.586 338.802 475.023 338.486 479.448L386.524 480.682L387.681 442.816L363.714 442.302Z" fill="#1F2D3D"/>
<g opacity="0.6">
<path opacity="0.6" d="M386.525 480.683V476.875L340.484 477.184C340.484 477.184 338.277 478.007 338.487 479.551L386.525 480.683Z" fill="#3C4858"/>
</g>
<path d="M475.349 429.955L420.058 409.787L478.187 401.762L481.13 373.979L372.335 383.24L356.988 404.848L360.983 432.013L466.94 458.355L475.349 429.955Z" fill="#3C4858"/>
<path d="M358.039 449.403L352.783 350.21C352.888 345.477 354.255 340.847 356.778 336.731C359.3 332.615 362.769 329.22 366.974 326.853C370.443 324.898 374.332 323.663 378.326 323.252C382.321 322.84 386.42 323.252 390.205 324.486L460.842 347.535L495.426 352.886C495.426 352.886 506.253 373.156 502.363 385.607C498.579 397.749 485.019 405.774 473.036 402.276C458.215 397.954 390.099 369.349 390.099 369.349V450.226L358.039 449.403Z" fill="#3C4858"/>
<path d="M404.607 259.455L404.291 274.17C404.291 275.096 404.186 276.022 403.976 276.948L401.769 290.324C401.033 295.057 401.453 299.997 403.24 304.421L404.186 306.891" stroke="#EB5D62" stroke-width="1.05116" stroke-miterlimit="10" stroke-linecap="round"/>
<path d="M385.789 301.438L435.194 315.432L425.733 278.492" stroke="#EB5D62" stroke-width="1.05116" stroke-miterlimit="10" stroke-linecap="round"/>
<path d="M451.908 272.729L465.363 324.692C467.255 332.101 463.786 339.818 456.954 343.419L453.38 345.374" stroke="#EB5D62" stroke-width="1.05116" stroke-miterlimit="10" stroke-linecap="round"/>
<path d="M383.898 356.075L390.205 369.966" stroke="#1F2D3D" stroke-width="1.05116" stroke-miterlimit="10"/>
<path d="M472.931 402.379L390.31 369.658L390.1 450.226" stroke="#1F2D3D" stroke-width="1.05116" stroke-miterlimit="10"/>
<path d="M446.405 203.564C446.405 217.414 433.259 228.71 418.709 228.71C404.159 228.71 392.418 217.512 392.418 203.662C392.418 189.812 404.259 178.614 418.709 178.614C433.259 178.417 446.405 189.615 446.405 203.564Z" fill="#222D3C"/>
<path d="M446.205 200.617C446.205 200.617 447.108 209.261 449.818 213.976C453.932 221.048 457.946 229.594 456.641 237.747L385.796 239.711C385.796 239.711 385.294 226.352 391.817 220.557C398.239 214.761 393.723 199.929 393.723 199.929L446.205 200.617Z" fill="#222D3C"/>
<path d="M404.159 220.754C402.754 225.272 397.938 227.826 393.322 226.451C388.706 225.076 386.097 220.361 387.501 215.842C388.906 211.324 393.723 208.77 398.339 210.145C402.955 211.52 405.564 216.235 404.159 220.754Z" fill="#F0997B"/>
<path d="M410.883 233.916L411.284 248.748C411.385 254.74 416.402 259.455 422.523 259.455C429.146 259.455 434.364 253.856 433.662 247.373L430.551 217.512L410.883 233.916Z" fill="#EDB59C"/>
<path d="M396.533 191.285C394.627 192.857 393.523 195.018 393.021 197.375C391.616 204.349 388.807 217.708 391.315 225.075C394.526 234.604 402.554 240.694 415.298 238.336C415.298 238.336 430.852 235.881 433.863 217.315C438.78 186.865 412.589 178.024 396.533 191.285Z" fill="#EDB59C"/>
<path d="M395.73 212.797C395.53 213.681 394.526 214.172 393.623 213.976C392.72 213.779 392.218 212.797 392.419 211.913C392.62 211.029 393.623 210.538 394.526 210.734C395.429 211.029 395.931 211.913 395.73 212.797Z" fill="#101010"/>
<path d="M410.08 213.092C409.879 213.976 408.876 214.467 407.973 214.271C407.07 214.074 406.568 213.092 406.769 212.208C406.969 211.324 407.973 210.833 408.876 211.029C409.779 211.226 410.281 212.208 410.08 213.092Z" fill="#101010"/>
<path d="M400.649 209.261L397.538 217.905C397.237 218.887 397.739 219.968 398.742 220.164L399.545 220.361" stroke="#F0997B" stroke-width="1.01291" stroke-miterlimit="10" stroke-linecap="round" stroke-linejoin="round"/>
<path d="M397.939 224.388L407.473 223.308C407.473 223.308 408.075 227.139 403.358 227.63C398.642 228.121 397.939 224.388 397.939 224.388Z" fill="white"/>
<path d="M396.734 205.529C396.734 205.529 394.727 205.234 391.717 206.511" stroke="#222D3C" stroke-width="2.93466" stroke-miterlimit="10" stroke-linecap="round"/>
<path d="M406.568 205.528C406.568 205.528 413.894 204.055 417.807 207.395" stroke="#222D3C" stroke-width="2.93466" stroke-miterlimit="10" stroke-linecap="round"/>
<path d="M429.345 217.611C429.345 217.611 418.005 210.342 423.826 196.492C423.826 196.492 439.58 201.108 436.971 202.975C434.362 204.939 429.345 217.611 429.345 217.611Z" fill="#222D3C"/>
<path d="M427.14 200.617C427.14 200.617 413.492 201.501 388.506 200.617C388.506 200.617 389.911 180.775 414.195 178.614C436.673 176.649 443.697 196.197 438.379 213.092L428.645 215.646L427.14 200.617Z" fill="#222D3C"/>
<path d="M440.68 222.472C443.354 218.741 442.431 213.595 438.62 210.978C434.809 208.361 429.552 209.264 426.878 212.995C424.204 216.726 425.127 221.872 428.938 224.489C432.749 227.106 438.006 226.203 440.68 222.472Z" fill="#EDB59C"/>
<path d="M437.778 215.155C437.778 215.155 431.557 213.387 429.951 220.066" stroke="#F0997B" stroke-width="1.01291" stroke-miterlimit="10" stroke-linecap="round" stroke-linejoin="round"/>
<defs>
<filter id="filter0_dd" x="211.627" y="269.44" width="307.312" height="110.012" filterUnits="userSpaceOnUse" color-interpolation-filters="sRGB">
<feFlood flood-opacity="0" result="BackgroundImageFix"/>
<feColorMatrix in="SourceAlpha" type="matrix" values="0 0 0 0 0 0 0 0 0 0 0 0 0 0 0 0 0 0 127 0"/>
<feOffset dy="1.14721"/>
<feGaussianBlur stdDeviation="1.14721"/>
<feColorMatrix type="matrix" values="0 0 0 0 0.121569 0 0 0 0 0.176471 0 0 0 0 0.239216 0 0 0 0.06 0"/>
<feBlend mode="normal" in2="BackgroundImageFix" result="effect1_dropShadow"/>
<feColorMatrix in="SourceAlpha" type="matrix" values="0 0 0 0 0 0 0 0 0 0 0 0 0 0 0 0 0 0 127 0"/>
<feOffset dy="1.14721"/>
<feGaussianBlur stdDeviation="1.72081"/>
<feColorMatrix type="matrix" values="0 0 0 0 0.121569 0 0 0 0 0.176471 0 0 0 0 0.239216 0 0 0 0.1 0"/>
<feBlend mode="normal" in2="effect1_dropShadow" result="effect2_dropShadow"/>
<feBlend mode="normal" in="SourceGraphic" in2="effect2_dropShadow" result="shape"/>
</filter>
<clipPath id="clip0">
<rect width="38.4545" height="38.4545" fill="white" transform="translate(194.271 27.9534)"/>
</clipPath>
<clipPath id="clip1">
<rect width="22.3075" height="22.3075" fill="white" transform="translate(238.666 312.233) rotate(4.45032)"/>
</clipPath>
</defs>
</svg>
