<svg width="520" height="509" viewBox="0 0 520 509" fill="none" xmlns="http://www.w3.org/2000/svg">
<ellipse cx="260.35" cy="254.667" rx="259.479" ry="253.999" fill="#FCEBEE"/>
<mask id="mask0" mask-type="alpha" maskUnits="userSpaceOnUse" x="0" y="0" width="520" height="509">
<ellipse cx="260.35" cy="254.667" rx="259.478" ry="253.999" fill="#ECF1FA"/>
</mask>
<g mask="url(#mask0)">
<path d="M49.2473 417.808C48.9416 418.905 48.534 420.202 48.2282 421.798C47.9225 423.095 47.8206 424.492 48.0244 425.888C48.1263 427.584 48.534 429.28 49.1454 430.876C49.8588 432.273 48.4321 433.769 47.2091 433.17C45.8843 432.572 43.8461 428.681 43.6423 423.594C43.4385 418.506 38.5468 424.891 36.7125 427.185C34.8781 429.479 28.8654 436.263 27.7444 436.263C26.012 436.263 25.7062 434.467 27.6425 432.273C29.5788 430.078 34.6743 422.895 33.4514 421.998C32.1265 421.1 23.0566 432.871 23.0566 432.871C23.0566 432.871 21.6299 435.764 19.9993 434.667C17.2478 432.871 27.9482 421.1 28.9673 420.002C29.6807 419.204 28.3559 418.207 27.6425 419.105C26.9292 420.002 18.7764 431.076 16.0248 429.18C13.8847 427.784 24.6871 419.404 25.0948 416.212C25.5024 413.019 17.5535 423.394 15.5153 421.998C14.8019 421.499 14.2924 421 19.6936 415.713C22.3432 413.119 32.4323 405.338 32.4323 405.338L53.018 334.909H80.024L49.2473 417.808Z" fill="#F4BFA1"/>
<path d="M177.978 237.884C177.978 237.884 215.351 220.35 221.12 215.259C226.896 210.268 262.83 173.832 262.83 173.832L267.617 169.308C268.157 168.271 268.791 167.128 269.499 165.58C270.024 164.344 270.441 163.016 270.546 161.609C270.731 159.897 270.713 158.198 270.491 156.513C270.369 156.221 270.34 155.823 270.523 155.511C270.603 155.206 270.785 154.893 271.076 154.673C271.367 154.454 271.665 154.334 271.97 154.313C272.275 154.292 272.587 154.371 272.906 154.549C273.993 155.476 275.306 159.586 274.431 164.546C273.556 169.505 279.725 164.287 281.943 162.436C284.263 160.579 291.543 155.186 292.683 155.408C294.338 155.696 294.268 157.601 291.941 159.358C289.613 161.116 283.088 167.059 284.087 168.191C285.188 169.316 296.558 159.645 296.558 159.645C296.558 159.645 298.633 157.205 299.944 158.416C302.248 160.659 289.325 170.035 288.06 170.921C287.18 171.481 288.295 172.805 289.161 172.046C290.034 171.387 300.313 162.191 302.726 164.527C304.487 166.307 292.145 172.344 291.136 175.412C290.127 178.481 300.042 169.909 301.701 171.696C302.361 172.351 302.708 172.928 296.258 177.065C293.132 179.077 281.575 184.66 281.575 184.66L280.447 186.037L233.073 241.248L187.508 262.837L177.978 237.884Z" fill="#F4BFA1"/>
<path d="M98.6733 252.31C98.6733 252.31 78.801 257.897 71.3616 269.867C63.9222 281.838 40.8906 366.333 40.8906 366.333L67.1833 369.226L89.0938 312.963L94.495 330.52L91.0301 347.778L158.392 350.871L163.182 275.155L235.13 240.838L243.181 232.658L222.29 211.01L214.341 218.293L142.189 244.13" fill="#F18F92"/>
<path d="M470.114 203.293C470.114 217.358 456.764 228.831 441.987 228.831C427.21 228.831 415.287 217.458 415.287 203.392C415.287 189.327 427.312 177.954 441.987 177.954C456.764 177.755 470.114 189.127 470.114 203.293Z" fill="#222D3C"/>
<path d="M469.911 200.299C469.911 200.299 470.829 209.078 473.58 213.866C477.758 221.049 481.835 229.728 480.51 238.008L408.562 240.003C408.562 240.003 408.052 226.436 414.676 220.55C421.199 214.664 416.613 199.601 416.613 199.601L469.911 200.299Z" fill="#222D3C"/>
<path d="M427.209 220.749C425.783 225.338 420.891 227.931 416.203 226.535C411.515 225.138 408.866 220.35 410.292 215.761C411.719 211.172 416.611 208.579 421.299 209.975C425.986 211.372 428.636 216.16 427.209 220.749Z" fill="#F0997B"/>
<path d="M434.039 234.117L434.447 249.18C434.549 255.265 439.644 260.054 445.861 260.054C452.587 260.054 457.886 254.368 457.173 247.784L454.013 217.457L434.039 234.117Z" fill="#EDB59C"/>
<path d="M419.466 190.822C417.53 192.418 416.409 194.613 415.899 197.007C414.473 204.09 411.619 217.657 414.167 225.138C417.428 234.815 425.581 241 438.523 238.606C438.523 238.606 454.319 236.112 457.376 217.258C462.37 186.333 435.772 177.355 419.466 190.822Z" fill="#EDB59C"/>
<path d="M418.652 212.669C418.448 213.567 417.429 214.066 416.512 213.866C415.594 213.667 415.085 212.669 415.289 211.771C415.493 210.873 416.512 210.375 417.429 210.574C418.346 210.873 418.855 211.771 418.652 212.669Z" fill="#101010"/>
<path d="M433.224 212.968C433.02 213.866 432.001 214.365 431.084 214.165C430.167 213.966 429.657 212.968 429.861 212.07C430.065 211.172 431.084 210.674 432.001 210.873C432.918 211.073 433.428 212.07 433.224 212.968Z" fill="#101010"/>
<path d="M423.644 209.078L420.485 217.857C420.179 218.854 420.688 219.952 421.708 220.151L422.523 220.351" stroke="#F0997B" stroke-width="1.02867" stroke-miterlimit="10" stroke-linecap="round" stroke-linejoin="round"/>
<path d="M420.893 224.44L430.574 223.343C430.574 223.343 431.185 227.234 426.396 227.732C421.606 228.231 420.893 224.44 420.893 224.44Z" fill="white"/>
<path d="M419.67 205.287C419.67 205.287 417.631 204.988 414.574 206.285" stroke="#222D3C" stroke-width="2.98034" stroke-miterlimit="10" stroke-linecap="round"/>
<path d="M429.658 205.287C429.658 205.287 437.098 203.791 441.072 207.182" stroke="#222D3C" stroke-width="2.98034" stroke-miterlimit="10" stroke-linecap="round"/>
<path d="M452.789 217.557C452.789 217.557 441.273 210.175 447.184 196.109C447.184 196.109 463.183 200.798 460.534 202.693C457.884 204.689 452.789 217.557 452.789 217.557Z" fill="#222D3C"/>
<path d="M450.548 200.299C450.548 200.299 436.688 201.197 411.312 200.299C411.312 200.299 412.739 180.148 437.401 177.953C460.229 175.958 467.363 195.81 461.962 212.968L452.076 215.562L450.548 200.299Z" fill="#222D3C"/>
<path d="M464.298 222.495C467.013 218.707 466.077 213.48 462.206 210.823C458.335 208.165 452.997 209.082 450.281 212.871C447.566 216.659 448.503 221.886 452.374 224.543C456.244 227.201 461.583 226.284 464.298 222.495Z" fill="#EDB59C"/>
<path d="M461.349 215.063C461.349 215.063 455.031 213.267 453.4 220.051" stroke="#F0997B" stroke-width="1.02867" stroke-miterlimit="10" stroke-linecap="round" stroke-linejoin="round"/>
<path d="M363.11 209.576L338.142 171.868L330.499 159.398C330.499 159.398 328.257 146.928 327.136 143.437C324.894 136.254 324.181 136.454 323.467 136.853C321.327 137.95 326.932 149.721 324.181 147.826C321.429 146.03 318.983 132.663 316.843 133.86C313.888 135.456 320.003 147.626 320.512 148.724C320.92 149.821 319.391 150.42 319.085 149.422C318.576 148.025 313.073 133.261 310.117 134.758C308.487 135.556 310.321 138.249 310.321 138.249C310.321 138.249 316.538 151.717 315.213 152.415C313.786 153.113 309.913 145.332 308.691 142.639C307.57 139.945 305.735 139.347 305.022 140.843C304.512 141.841 307.773 150.22 308.996 152.914C310.219 155.607 313.582 162.79 308.996 160.595C304.41 158.4 299.926 158.4 298.703 159.198C298.398 159.398 298.296 159.697 298.194 159.996C298.092 160.296 298.092 160.695 298.296 160.994C298.5 161.293 298.602 161.593 298.907 161.692C299.213 161.892 299.519 161.992 299.824 161.992C301.557 162.191 303.289 162.69 304.818 163.288C306.143 163.787 307.366 164.485 308.385 165.383C309.608 166.381 310.627 167.378 311.442 168.177L317.659 180.746L345.072 233.318L402.447 279.805L416.918 254.267L363.11 209.576Z" fill="#EDB59C"/>
<path d="M353.121 185.534C353.121 185.534 352.815 170.172 333.452 168.476C321.019 167.378 321.019 173.364 308.484 172.666C297.07 171.967 286.268 179.449 289.02 192.717C291.363 203.79 308.688 209.975 308.688 209.975L353.121 185.534Z" fill="#222D3C"/>
<path d="M310.132 219.698C311.223 215.365 308.52 210.987 304.094 209.918C299.667 208.85 295.195 211.496 294.103 215.829C293.012 220.162 295.715 224.541 300.141 225.609C304.568 226.677 309.041 224.031 310.132 219.698Z" fill="#B15743"/>
<path d="M314.293 235.313L314.599 248.781C314.701 256.662 321.427 263.046 329.477 262.946C338.344 262.846 345.07 255.165 343.847 246.586L338.853 216.459L314.293 235.313Z" fill="#CE816D"/>
<path d="M304.612 184.637C302.982 186.333 300.23 189.325 299.619 194.912C298.803 202.493 296.765 221.048 300.332 229.228C304.816 239.603 314.09 245.688 328.051 241.898C328.051 241.898 340.892 240.501 346.599 215.661C355.363 177.853 321.02 167.778 304.612 184.637Z" fill="#CE816D"/>
<path d="M305.835 211.671C305.631 212.669 304.612 213.267 303.593 213.068C302.574 212.868 301.962 211.871 302.166 210.873C302.37 209.875 303.389 209.277 304.408 209.476C305.427 209.676 306.039 210.674 305.835 211.671Z" fill="#101010"/>
<path d="M322.546 211.172C322.342 212.17 321.323 212.769 320.304 212.569C319.285 212.37 318.673 211.372 318.877 210.374C319.081 209.377 320.1 208.778 321.119 208.978C322.036 209.177 322.749 210.175 322.546 211.172Z" fill="#101010"/>
<path d="M310.421 210.374L308.179 219.252C307.873 220.25 308.586 221.148 309.606 221.247L310.421 221.347" stroke="#B15743" stroke-width="0.954077" stroke-miterlimit="10" stroke-linecap="round" stroke-linejoin="round"/>
<path d="M299.414 226.834L303.898 227.532L305.019 225.337C305.529 224.44 306.446 223.841 307.465 223.941L317.758 224.24C318.777 224.24 319.592 224.839 320.102 225.637L322.344 227.831C322.344 227.831 334.471 230.525 336.713 213.865L340.178 212.968C340.178 212.968 336.611 220.449 341.604 228.829C341.604 228.829 336.509 245.788 316.025 242.895C316.229 242.795 303.49 241.498 299.414 226.834Z" fill="#222D3C"/>
<path d="M308.994 227.931C308.994 227.931 312.357 229.726 315.72 228.031" stroke="white" stroke-width="1.08228" stroke-miterlimit="10" stroke-linecap="round" stroke-linejoin="round"/>
<path d="M305.732 202.194C305.732 202.194 302.573 201.695 298.395 204.289" stroke="#222D3C" stroke-width="3.1488" stroke-miterlimit="10" stroke-linecap="round"/>
<path d="M316.229 202.194C316.229 202.194 324.076 200.698 328.254 204.289" stroke="#222D3C" stroke-width="3.1488" stroke-miterlimit="10" stroke-linecap="round"/>
<path d="M347.62 216.16L336.817 213.865L338.652 200.398C338.856 198.902 337.938 197.505 336.512 197.206C334.066 196.607 330.805 195.011 330.805 190.522C330.805 183.539 334.677 179.449 334.677 179.449C334.677 179.449 356.588 176.057 359.645 191.819C361.785 202.792 355.365 223.741 340.18 232.121L347.62 216.16Z" fill="#222D3C"/>
<path d="M357.401 218.953C356.28 223.842 351.388 226.834 346.497 225.837C341.503 224.739 338.446 219.951 339.465 215.163C340.586 210.274 345.478 207.282 350.369 208.279C355.363 209.277 358.522 214.065 357.401 218.953Z" fill="#CE816D"/>
<path d="M352.408 214.065C352.408 214.065 345.58 212.669 344.357 220.051" stroke="#B15743" stroke-width="0.954077" stroke-miterlimit="10" stroke-linecap="round" stroke-linejoin="round"/>
<path d="M336.511 182.143C336.511 182.143 329.988 187.929 318.982 187.131C307.976 186.333 305.938 183.44 301.861 187.829C301.861 187.829 302.982 172.866 322.957 172.367C342.829 171.768 341.3 184.437 341.3 184.437L336.511 182.143Z" fill="#222D3C"/>
<path d="M388.484 262.248L402.038 245.887L388.484 262.248Z" fill="white"/>
<path d="M402.038 245.788C400 248.681 397.758 251.474 395.516 254.167C393.376 256.961 391.032 259.654 388.484 262.148C390.523 259.255 392.663 256.462 395.007 253.768C397.249 251.075 399.491 248.382 402.038 245.788Z" fill="#DFDFDF"/>
<path d="M468.79 358.613C468.79 358.613 484.688 392.332 487.032 402.208C489.477 412.084 533.808 672.251 533.808 672.251L493.044 674.645L437.707 420.164L459.924 672.85L419.873 676.142C419.873 676.142 389.606 409.191 390.829 401.609C392.765 390.237 402.651 357.516 402.651 357.516L468.79 358.613Z" fill="#4E5865"/>
<path d="M511.184 420.364C511.489 421.461 511.897 422.758 512.304 424.354C512.61 425.651 512.712 427.047 512.508 428.444C512.406 430.14 511.999 431.836 511.387 433.432C510.674 434.829 512.101 436.325 513.426 435.726C514.75 435.128 516.789 431.237 516.789 426.15C516.89 421.062 521.884 427.347 523.82 429.641C525.655 431.936 531.769 438.619 532.992 438.619C534.725 438.619 535.03 436.824 533.094 434.629C531.158 432.434 525.858 425.451 527.183 424.554C528.508 423.656 537.782 435.228 537.782 435.228C537.782 435.228 539.412 438.021 540.839 437.023C543.489 435.228 532.686 423.556 531.565 422.558C530.852 421.76 532.177 420.763 532.89 421.661C533.604 422.558 541.96 433.432 544.712 431.636C546.852 430.24 535.846 421.96 535.438 418.768C535.03 415.575 543.081 425.85 545.119 424.454C545.833 423.955 546.342 423.456 540.839 418.169C538.189 415.575 527.897 407.994 527.897 407.994L506.088 337.864L479.082 338.263L511.184 420.364Z" fill="#EDB59C"/>
<path d="M427.515 254.168C423.133 252.472 418.853 250.676 414.573 248.482L371.669 216.659L352.51 241.698C352.51 241.698 401.426 284.993 402.242 284.694C403.159 284.594 427.515 254.168 427.515 254.168Z" fill="#EF7E82"/>
<path d="M430.778 254.068L427.517 254.168C422.931 254.367 418.549 255.863 414.881 258.557C411.212 261.25 408.46 264.941 407.034 269.231C403.772 278.907 403.976 282 401.734 289.182C396.333 306.341 406.014 327.19 406.014 327.19L402.652 357.416L468.791 358.614L472.154 322.202L484.485 267.635C484.485 267.635 481.733 255.963 471.237 254.966C465.733 254.467 430.778 254.068 430.778 254.068Z" fill="#EF7E82"/>
<path d="M473.17 255.963C473.17 255.963 488.864 255.864 493.654 273.62C498.444 291.278 507.922 337.864 507.922 337.864L478.266 346.643L462.266 282.798C461.145 279.207 460.737 275.416 460.941 271.625C461.451 265.041 463.897 256.761 473.17 255.963Z" fill="#EF7E82"/>
<path d="M426.09 254.966L431.287 245.19L440.153 250.078V254.368L442.905 250.078L463.796 245.19V257.261L439.44 259.854L426.09 254.966Z" fill="#EF7E82"/>
<path d="M280.971 263.046L249.786 282.399L271.901 223.243L277.913 211.571C278.729 210.574 279.646 209.476 280.869 208.18C281.888 207.082 283.111 206.184 284.435 205.486C286.066 204.588 287.798 203.89 289.633 203.391C290.04 203.391 290.346 203.192 290.652 202.992C290.958 202.793 291.161 202.493 291.263 202.094C291.365 201.795 291.365 201.396 291.161 200.997C291.06 200.698 290.754 200.399 290.448 200.199C289.021 199.501 284.334 200 279.646 203.092C274.958 206.085 277.608 197.905 278.627 194.812C279.544 191.819 281.99 182.342 281.276 181.345C280.257 179.948 278.423 180.647 277.506 183.739C276.588 186.732 273.429 195.71 271.799 195.111C270.168 194.513 275.162 179.25 275.162 179.25C275.162 179.25 276.792 176.157 274.958 175.459C271.697 174.162 267.62 190.822 267.213 192.418C267.009 193.515 265.175 193.016 265.582 191.819C265.888 190.622 270.882 176.656 267.519 175.359C264.971 174.362 264.054 189.026 261.404 191.321C258.754 193.615 263.238 180.248 260.792 179.35C259.875 179.05 259.162 178.951 257.735 186.931C257.022 190.822 256.308 204.489 256.308 204.489L249.073 218.455L249.277 218.654L219.519 280.105C213.812 294.869 223.086 306.74 232.462 312.127C236.742 314.621 241.633 315.818 246.525 315.718C251.519 315.618 256.308 314.122 260.385 311.429L296.359 287.886L280.971 263.046Z" fill="#CE816D"/>
<path d="M448.612 392.731C449.326 393.828 450.141 395.125 451.058 396.622C451.873 397.918 452.383 399.415 452.587 400.911C452.994 402.806 453.198 404.702 452.994 406.697C452.892 407.096 452.892 407.495 453.096 407.794C453.198 408.193 453.504 408.493 453.81 408.692C454.115 408.892 454.523 408.991 454.931 408.991C455.338 408.991 455.644 408.792 455.95 408.592C457.173 407.495 458.09 402.707 456.561 397.22C455.032 391.733 462.472 396.921 465.223 398.816C467.975 400.712 476.739 405.999 477.962 405.6C479.796 405.101 479.491 403.006 476.739 401.31C473.988 399.614 466.039 393.629 467.058 392.232C468.077 390.836 481.937 400.512 481.937 400.512C481.937 400.512 484.586 403.006 485.809 401.51C488.153 398.716 472.663 389.539 471.134 388.741C470.115 388.142 471.134 386.646 472.255 387.344C473.376 388.042 485.809 397.22 488.255 394.427C490.089 392.232 475.618 386.746 474.09 383.454C472.561 380.162 484.688 388.741 486.319 386.646C486.93 385.848 487.338 385.249 479.593 381.259C475.924 379.363 462.268 374.176 462.268 374.176L379.008 268.932L354.855 290.28L448.612 392.731Z" fill="#CE816D"/>
<path d="M372.281 388.541L421.605 669.658L382.676 674.346L327.441 423.556L332.027 670.755H294.728L279.951 386.147L372.281 388.541Z" fill="#202E3D"/>
<path d="M283.722 299.059L269.761 307.538L253.965 277.81C260.895 272.922 283.111 258.856 288.818 255.265C290.245 254.367 291.671 253.569 293.2 252.871C296.971 251.474 300.843 250.477 304.92 250.078C308.486 249.579 311.238 249.379 312.971 249.18C323.161 252.372 333.964 252.372 344.155 249.18C345.378 249.18 346.601 249.279 347.722 249.479C358.014 250.876 368.002 257.958 374.218 264.542L398.778 286.19L374.728 314.421L367.288 305.742L369.021 345.546L376.154 395.125H279.952C279.952 395.125 279.748 383.453 280.665 367.193C281.888 344.348 283.111 308.835 283.111 308.835" fill="#FDF2F3"/>
<path d="M91.1319 347.778C91.1319 347.778 74.4187 373.715 71.9729 383.591C69.8328 392.469 33.1454 585.799 25.5022 625.802C25.0945 627.797 25.5022 629.793 26.6232 631.588C27.7442 633.284 29.3747 634.581 31.311 635.179L64.4316 644.956C65.5526 645.255 66.6736 645.355 67.8965 645.255C69.1194 645.155 70.1385 644.756 71.1576 644.158C72.1767 643.559 72.992 642.761 73.7053 641.863C74.4187 640.965 74.8264 639.868 75.1321 638.771L116.1 451.526L104.176 637.075C104.074 638.372 104.278 639.768 104.788 640.965C105.297 642.163 106.011 643.36 106.928 644.257C107.845 645.255 108.966 645.953 110.291 646.452C111.514 646.951 112.839 647.15 114.265 647.15L146.774 646.153C149.118 646.053 151.462 645.055 153.093 643.459C154.825 641.863 155.844 639.569 155.946 637.274C158.8 592.583 171.437 389.277 168.889 382.992C166.035 375.81 158.494 350.87 158.494 350.87L91.1319 347.778Z" fill="#202E3D"/>
<path d="M400.713 295.168C400.713 295.168 402.547 285.691 404.688 281.701" stroke="#ED6D72" stroke-width="0.764322" stroke-miterlimit="10" stroke-linecap="round"/>
<path d="M95.1071 182.879C101.527 174.4 111.616 174.998 120.075 175.896C121.706 173.801 129.654 171.407 135.463 172.305C147.794 174.001 166.546 189.164 156.151 246.624L90.3174 254.206C84.5086 234.454 80.9417 201.634 95.1071 182.879Z" fill="#222D3C"/>
<path d="M134.547 230.464L136.177 248.22C136.789 254.605 132.101 260.291 125.681 261.089C118.547 261.987 112.229 256.6 112.025 249.617L111.617 215.4L134.547 230.464Z" fill="#EDB59C"/>
<path d="M143.821 183.577C145.961 184.974 147.49 187.169 148.305 189.563C150.649 196.745 155.541 211.609 153.808 219.789C151.566 230.364 143.923 237.746 130.063 236.748C130.063 236.748 114.165 237.846 107.541 215.699C98.0636 184.176 125.172 171.507 143.821 183.577Z" fill="#EDB59C"/>
<path d="M124.967 181.283C124.967 181.283 139.743 177.493 148.304 189.563C148.304 189.563 145.349 171.108 122.725 176.296L124.967 181.283Z" fill="#222D3C"/>
<path d="M124.967 181.283C124.967 181.283 116.814 182.679 116.101 190.959C115.592 197.244 122.419 203.13 113.961 214.103L103.057 206.92C103.057 206.92 92.9676 179.487 122.827 176.195L124.967 181.283Z" fill="#222D3C"/>
<path d="M147.387 206.222C147.795 207.12 148.814 207.619 149.731 207.22C150.649 206.821 151.158 205.823 150.751 204.926C150.343 204.028 149.324 203.529 148.407 203.928C147.489 204.327 147.082 205.325 147.387 206.222Z" fill="#101010"/>
<path d="M132.304 208.317C132.712 209.215 133.731 209.714 134.648 209.315C135.565 208.916 136.075 207.918 135.667 207.02C135.26 206.122 134.24 205.624 133.323 206.023C132.406 206.422 131.897 207.419 132.304 208.317Z" fill="#101010"/>
<path d="M141.068 201.534L145.756 211.11C146.47 212.507 145.756 214.303 144.228 214.901" stroke="#F0997B" stroke-width="1.07494" stroke-miterlimit="10" stroke-linecap="round" stroke-linejoin="round"/>
<path d="M146.572 218.792H136.381C136.381 218.792 136.279 222.882 141.273 222.882C146.368 222.882 146.572 218.792 146.572 218.792Z" fill="white"/>
<path d="M146.471 196.845C146.471 196.845 149.528 195.947 154.114 198.042" stroke="#222D3C" stroke-width="3.17601" stroke-miterlimit="10" stroke-linecap="round"/>
<path d="M135.87 198.042C135.87 198.042 127.819 197.444 124.049 201.534" stroke="#222D3C" stroke-width="3.17601" stroke-miterlimit="10" stroke-linecap="round"/>
<path d="M145.347 206.023C145.755 209.514 148.71 212.108 151.971 211.709C155.232 211.31 157.474 208.218 157.067 204.626C156.659 201.135 153.704 198.541 150.442 198.94C147.181 199.339 144.837 202.531 145.347 206.023Z" stroke="white" stroke-width="1.01797" stroke-miterlimit="10"/>
<path d="M125.782 208.816C126.189 212.308 129.45 214.802 133.119 214.403C136.788 214.004 139.336 210.811 138.826 207.32C138.418 203.828 135.157 201.334 131.489 201.733C127.82 202.132 125.272 205.325 125.782 208.816Z" stroke="white" stroke-width="1.07056" stroke-miterlimit="10"/>
<path d="M145.348 206.023C145.348 206.023 141.782 204.127 138.826 207.319" stroke="white" stroke-width="1.07056" stroke-miterlimit="10"/>
<path d="M125.781 208.816L110.801 209.913" stroke="white" stroke-width="1.07056" stroke-miterlimit="10"/>
<path d="M108.048 225.01C113.302 224.403 117.059 219.741 116.439 214.598C115.819 209.455 111.057 205.778 105.802 206.385C100.548 206.992 96.7917 211.653 97.4118 216.796C98.0318 221.939 102.794 225.617 108.048 225.01Z" fill="#EDB59C"/>
<path d="M102.24 213.405C102.24 213.405 108.966 210.612 111.718 217.894" stroke="#F0997B" stroke-width="1.07494" stroke-miterlimit="10" stroke-linecap="round" stroke-linejoin="round"/>
<path d="M85.2207 297.102L94.4944 330.52" stroke="#EF7E82" stroke-width="0.764322" stroke-miterlimit="10" stroke-linecap="round"/>
<path d="M285.963 281.601C285.963 281.601 283.313 300.256 282.498 322.203" stroke="#F9D1D2" stroke-width="0.764322" stroke-miterlimit="10" stroke-linecap="round"/>
<path d="M366.27 293.472C366.27 293.472 368.41 331.679 368.614 336.268" stroke="#F9D1D2" stroke-width="0.764322" stroke-miterlimit="10" stroke-linecap="round"/>
<path d="M470.42 315.519L477.35 343.251" stroke="#ED6D72" stroke-width="0.764322" stroke-miterlimit="10" stroke-linecap="round"/>
<path d="M428.33 330.681C428.33 330.681 433.527 282.898 435.668 273.121C437.808 263.345 440.05 254.866 440.05 254.866" stroke="#ED6D72" stroke-width="0.764322" stroke-miterlimit="10" stroke-linecap="round"/>
<path d="M427.516 255.465L435.057 259.854L438.114 252.572" stroke="#ED6D72" stroke-width="0.764322" stroke-miterlimit="10" stroke-linecap="round" stroke-linejoin="round"/>
<path d="M443.516 252.572L445.758 260.153L458.7 257.161" stroke="#ED6D72" stroke-width="0.764322" stroke-miterlimit="10" stroke-linecap="round" stroke-linejoin="round"/>
</g>
</svg>
