<svg width="48" height="49" viewBox="0 0 48 49" fill="none" xmlns="http://www.w3.org/2000/svg">
<path d="M34 6.95752H14C11.7909 6.95752 10 8.74838 10 10.9575V42.9575H38V10.9575C38 8.74838 36.2091 6.95752 34 6.95752Z" fill="#D8E3F5"/>
<path d="M38 42.9575V10.9575C38 8.74838 36.2091 6.95752 34 6.95752H14C11.7909 6.95752 10 8.74838 10 10.9575V42.9575M38 42.9575L42 42.9575M38 42.9575H10M10 42.9575L6 42.9575" stroke="#D8E3F5" stroke-width="4" stroke-linecap="round" stroke-linejoin="round"/>
<path d="M26 30.9574H22C20.8954 30.9574 20 31.8528 20 32.9574V42.9574H28V32.9574C28 31.8528 27.1046 30.9574 26 30.9574Z" fill="#6EBFE9"/>
<path d="M18 14.9574H20M18 22.9574H20M28 14.9574H30M28 22.9574H30M26 30.9574H22C20.8954 30.9574 20 31.8528 20 32.9574V42.9574H28V32.9574C28 31.8528 27.1046 30.9574 26 30.9574Z" stroke="#6EBFE9" stroke-width="4" stroke-linecap="round" stroke-linejoin="round"/>
</svg>
