<svg width="49" height="48" viewBox="0 0 49 48" fill="none" xmlns="http://www.w3.org/2000/svg">
<path d="M14.3105 20C14.3105 22.2091 12.5197 24 10.3105 24C8.10141 24 6.31055 22.2091 6.31055 20C6.31055 17.7909 8.10141 16 10.3105 16C12.5197 16 14.3105 17.7909 14.3105 20Z" fill="#D8E3F5"/>
<path d="M10.3105 30C7.78433 30 5.62275 31.8586 4.73804 34.4898C4.46226 35.3101 4.31055 36.2054 4.31055 37.1429V40H16.3105V37.1429C16.3105 36.2054 16.1588 35.3101 15.8831 34.4898C14.9983 31.8586 12.8368 30 10.3105 30Z" fill="#D8E3F5"/>
<path d="M14.3105 20C14.3105 22.2091 12.5197 24 10.3105 24C8.10141 24 6.31055 22.2091 6.31055 20C6.31055 17.7909 8.10141 16 10.3105 16C12.5197 16 14.3105 17.7909 14.3105 20Z" stroke="#D8E3F5" stroke-width="2.5" stroke-linecap="round" stroke-linejoin="round"/>
<path d="M10.3105 30C7.78433 30 5.62275 31.8586 4.73804 34.4898C4.46226 35.3101 4.31055 36.2054 4.31055 37.1429V40H16.3105V37.1429C16.3105 36.2054 16.1588 35.3101 15.8831 34.4898C14.9983 31.8586 12.8368 30 10.3105 30Z" stroke="#D8E3F5" stroke-width="2.5" stroke-linecap="round" stroke-linejoin="round"/>
<path d="M42.3105 20C42.3105 22.2091 40.5197 24 38.3105 24C36.1014 24 34.3105 22.2091 34.3105 20C34.3105 17.7909 36.1014 16 38.3105 16C40.5197 16 42.3105 17.7909 42.3105 20Z" fill="#D8E3F5"/>
<path d="M38.3105 30C35.7843 30 33.6228 31.8586 32.738 34.4898C32.4623 35.3101 32.3105 36.2054 32.3105 37.1429V40H44.3105V37.1429C44.3105 36.2054 44.1588 35.3101 43.8831 34.4898C42.9983 31.8586 40.8368 30 38.3105 30Z" fill="#D8E3F5"/>
<path d="M42.3105 20C42.3105 22.2091 40.5197 24 38.3105 24C36.1014 24 34.3105 22.2091 34.3105 20C34.3105 17.7909 36.1014 16 38.3105 16C40.5197 16 42.3105 17.7909 42.3105 20Z" stroke="#D8E3F5" stroke-width="2.5" stroke-linecap="round" stroke-linejoin="round"/>
<path d="M38.3105 30C35.7843 30 33.6228 31.8586 32.738 34.4898C32.4623 35.3101 32.3105 36.2054 32.3105 37.1429V40H44.3105V37.1429C44.3105 36.2054 44.1588 35.3101 43.8831 34.4898C42.9983 31.8586 40.8368 30 38.3105 30Z" stroke="#D8E3F5" stroke-width="2.5" stroke-linecap="round" stroke-linejoin="round"/>
<path d="M30.3105 14C30.3105 17.3137 27.6243 20 24.3105 20C20.9968 20 18.3105 17.3137 18.3105 14C18.3105 10.6863 20.9968 8 24.3105 8C27.6243 8 30.3105 10.6863 30.3105 14Z" fill="#49AFE4"/>
<path d="M24.3105 26C20.1002 26 16.4976 28.6021 15.023 32.2858C14.5634 33.4341 14.3105 34.6875 14.3105 36V40H34.3105V36C34.3105 34.6875 34.0577 33.4341 33.5981 32.2858C32.1235 28.6021 28.5209 26 24.3105 26Z" fill="#49AFE4"/>
<path d="M30.3105 14C30.3105 17.3137 27.6243 20 24.3105 20C20.9968 20 18.3105 17.3137 18.3105 14C18.3105 10.6863 20.9968 8 24.3105 8C27.6243 8 30.3105 10.6863 30.3105 14Z" stroke="#49AFE4" stroke-width="2.5" stroke-linecap="round" stroke-linejoin="round"/>
<path d="M24.3105 26C20.1002 26 16.4976 28.6021 15.023 32.2858C14.5634 33.4341 14.3105 34.6875 14.3105 36V40H34.3105V36C34.3105 34.6875 34.0577 33.4341 33.5981 32.2858C32.1235 28.6021 28.5209 26 24.3105 26Z" stroke="#49AFE4" stroke-width="2.5" stroke-linecap="round" stroke-linejoin="round"/>
</svg>
