<svg width="51" height="50" viewBox="0 0 51 50" fill="none" xmlns="http://www.w3.org/2000/svg">
<g clip-path="url(#clip0)">
<path d="M9.57682 0.625H41.8685C46.7643 0.625 50.7227 4.58333 50.7227 9.47917V40.5208C50.7227 45.4167 46.7643 49.375 41.8685 49.375H9.57682C4.68099 49.375 0.722656 45.4167 0.722656 40.5208V9.47917C0.722656 4.58333 4.68099 0.625 9.57682 0.625Z" fill="#001E36"/>
<path d="M11.9727 34.8127V13.3752C11.9727 13.2293 12.0352 13.146 12.181 13.146C12.5352 13.146 12.8685 13.146 13.3477 13.1252C13.8477 13.1043 14.3685 13.1043 14.931 13.0835C15.4935 13.0627 16.0977 13.0627 16.7435 13.0418C17.3893 13.021 18.0143 13.021 18.6393 13.021C20.3477 13.021 21.7643 13.2293 22.931 13.6668C23.9727 14.021 24.931 14.6043 25.7227 15.3752C26.3893 16.0418 26.9102 16.8543 27.2435 17.7502C27.556 18.6252 27.7227 19.521 27.7227 20.4585C27.7227 22.2502 27.306 23.7293 26.4727 24.896C25.6393 26.0627 24.4727 26.9377 23.1185 27.4377C21.7018 27.9585 20.1393 28.146 18.431 28.146C17.931 28.146 17.5977 28.146 17.3893 28.1252C17.181 28.1043 16.8893 28.1043 16.4935 28.1043V34.7918C16.5143 34.9377 16.4102 35.0627 16.2643 35.0835C16.2435 35.0835 16.2227 35.0835 16.181 35.0835H12.2227C12.056 35.0835 11.9727 35.0002 11.9727 34.8127ZM16.5143 17.1668V24.1668C16.806 24.1877 17.0768 24.2085 17.3268 24.2085H18.431C19.2435 24.2085 20.056 24.0835 20.8268 23.8335C21.4935 23.646 22.0768 23.2502 22.5352 22.7293C22.9727 22.2085 23.181 21.5002 23.181 20.5835C23.2018 19.9377 23.0352 19.2918 22.7018 18.7293C22.3477 18.1877 21.8477 17.771 21.2435 17.5418C20.4727 17.2293 19.6393 17.1043 18.7852 17.1252C18.2435 17.1252 17.7643 17.1252 17.3685 17.146C16.9518 17.1252 16.6602 17.146 16.5143 17.1668Z" fill="#31A8FF"/>
<path d="M40.7227 22.8958C40.0977 22.5625 39.431 22.3333 38.7227 22.1875C37.9519 22.0208 37.181 21.9167 36.3894 21.9167C35.9727 21.8958 35.5352 21.9583 35.1394 22.0625C34.8685 22.125 34.6394 22.2708 34.4935 22.4792C34.3894 22.6458 34.3269 22.8542 34.3269 23.0417C34.3269 23.2292 34.4102 23.4167 34.5352 23.5833C34.7227 23.8125 34.9727 24 35.2435 24.1458C35.7227 24.3958 36.2227 24.625 36.7227 24.8333C37.8477 25.2083 38.931 25.7292 39.931 26.3542C40.6185 26.7917 41.181 27.375 41.5769 28.0833C41.9102 28.75 42.0769 29.4792 42.056 30.2292C42.0769 31.2083 41.7852 32.1875 41.2435 33C40.6602 33.8333 39.8477 34.4792 38.9102 34.8542C37.8894 35.2917 36.6394 35.5208 35.1394 35.5208C34.181 35.5208 33.2435 35.4375 32.306 35.25C31.5769 35.125 30.8477 34.8958 30.181 34.5833C30.0352 34.5 29.931 34.3542 29.9519 34.1875V30.5625C29.9519 30.5 29.9727 30.4167 30.0352 30.375C30.0977 30.3333 30.1602 30.3542 30.2227 30.3958C31.0352 30.875 31.8894 31.2083 32.806 31.4167C33.5977 31.625 34.431 31.7292 35.2644 31.7292C36.056 31.7292 36.6185 31.625 36.9935 31.4375C37.3269 31.2917 37.556 30.9375 37.556 30.5625C37.556 30.2708 37.3894 30 37.056 29.7292C36.7227 29.4583 36.0352 29.1458 35.0144 28.75C33.9519 28.375 32.9727 27.875 32.056 27.25C31.4102 26.7917 30.8685 26.1875 30.4727 25.4792C30.1394 24.8125 29.9727 24.0833 29.9935 23.3542C29.9935 22.4583 30.2435 21.6042 30.7019 20.8333C31.2227 20 31.9935 19.3333 32.8894 18.9167C33.8685 18.4167 35.0977 18.1875 36.5769 18.1875C37.431 18.1875 38.306 18.25 39.1602 18.375C39.7852 18.4583 40.3894 18.625 40.9519 18.8542C41.0352 18.875 41.1185 18.9583 41.1602 19.0417C41.181 19.125 41.2019 19.2083 41.2019 19.2917V22.6875C41.2019 22.7708 41.1602 22.8542 41.0977 22.8958C40.9102 22.9375 40.806 22.9375 40.7227 22.8958Z" fill="#31A8FF"/>
</g>
<defs>
<clipPath id="clip0">
<rect width="50" height="50" fill="white" transform="translate(0.722656)"/>
</clipPath>
</defs>
</svg>
