<svg width="48" height="48" viewBox="0 0 48 48" fill="none" xmlns="http://www.w3.org/2000/svg">
<path d="M42 24C42 33.9411 33.9411 42 24 42C14.0589 42 6 33.9411 6 24C6 14.0589 14.0589 6 24 6C33.9411 6 42 14.0589 42 24Z" fill="#D8E3F5" stroke="#D8E3F5" stroke-width="3.69231" stroke-linecap="round" stroke-linejoin="round"/>
<path d="M36 24C36 30.6274 30.6274 36 24 36C17.3726 36 12 30.6274 12 24C12 17.3726 17.3726 12 24 12C30.6274 12 36 17.3726 36 24Z" fill="#E8EEF9" stroke="#E8EEF9" stroke-width="3.69231" stroke-linecap="round" stroke-linejoin="round"/>
<path d="M28 24C28 26.2091 26.2091 28 24 28C21.7909 28 20 26.2091 20 24C20 21.7909 21.7909 20 24 20C26.2091 20 28 21.7909 28 24Z" fill="#F8FAFD" stroke="#F8FAFD" stroke-width="3.69231" stroke-linecap="round" stroke-linejoin="round"/>
<path d="M33.2087 24.2551H24.5987M24.5987 24.2551V15.6451M24.5987 24.2551L36.0788 12.775" stroke="#49AFE4" stroke-width="2.5" stroke-linecap="round" stroke-linejoin="round"/>
</svg>
