<svg width="32" height="33" viewBox="0 0 32 33" fill="none" xmlns="http://www.w3.org/2000/svg">
<path fill-rule="evenodd" clip-rule="evenodd" d="M0 16.2256C0 7.38903 7.16344 0.225586 16 0.225586C24.8366 0.225586 32 7.38903 32 16.2256C32 25.0621 24.8366 32.2256 16 32.2256C7.16344 32.2256 0 25.0621 0 16.2256Z" fill="#ECF1FA"/>
<path fill-rule="evenodd" clip-rule="evenodd" d="M16.0009 7.69226C13.6834 7.69226 13.3925 7.70239 12.4823 7.74382C11.5739 7.78542 10.9538 7.92924 10.4112 8.14027C9.84993 8.35822 9.37384 8.64978 8.89952 9.12428C8.42485 9.59859 8.13329 10.0747 7.91462 10.6358C7.70307 11.1785 7.55906 11.7988 7.51818 12.7069C7.47746 13.6171 7.4668 13.9081 7.4668 16.2257C7.4668 18.5432 7.47711 18.8332 7.51835 19.7434C7.56013 20.6519 7.70395 21.272 7.9148 21.8145C8.13294 22.3758 8.4245 22.8519 8.89899 23.3262C9.37313 23.8009 9.84922 24.0931 10.4101 24.3111C10.9531 24.5221 11.5733 24.6659 12.4816 24.7075C13.3918 24.749 13.6825 24.7591 15.9999 24.7591C18.3176 24.7591 18.6075 24.749 19.5178 24.7075C20.4262 24.6659 21.047 24.5221 21.59 24.3111C22.151 24.0931 22.6264 23.8009 23.1006 23.3262C23.5752 22.8519 23.8668 22.3758 24.0855 21.8147C24.2952 21.272 24.4392 20.6517 24.4819 19.7436C24.5228 18.8334 24.5335 18.5432 24.5335 16.2257C24.5335 13.9081 24.5228 13.6173 24.4819 12.7071C24.4392 11.7986 24.2952 11.1785 24.0855 10.6359C23.8668 10.0747 23.5752 9.59859 23.1006 9.12428C22.6259 8.6496 22.1512 8.35805 21.5894 8.14027C21.0454 7.92924 20.425 7.78542 19.5165 7.74382C18.6063 7.70239 18.3165 7.69226 15.9983 7.69226H16.0009ZM15.2354 9.23003C15.4626 9.22967 15.7161 9.23003 16.0009 9.23003C18.2793 9.23003 18.5494 9.23821 19.4491 9.2791C20.2811 9.31714 20.7327 9.45617 21.0335 9.57297C21.4317 9.72764 21.7156 9.91253 22.0141 10.2112C22.3128 10.5099 22.4977 10.7943 22.6527 11.1925C22.7695 11.493 22.9087 11.9445 22.9466 12.7766C22.9875 13.6761 22.9963 13.9463 22.9963 16.2237C22.9963 18.5011 22.9875 18.7713 22.9466 19.6709C22.9085 20.5029 22.7695 20.9544 22.6527 21.2549C22.498 21.6531 22.3128 21.9367 22.0141 22.2351C21.7154 22.5338 21.4319 22.7187 21.0335 22.8734C20.733 22.9907 20.2811 23.1294 19.4491 23.1674C18.5495 23.2083 18.2793 23.2172 16.0009 23.2172C13.7223 23.2172 13.4522 23.2083 12.5527 23.1674C11.7207 23.129 11.2691 22.99 10.9681 22.8732C10.5699 22.7185 10.2855 22.5336 9.98679 22.235C9.68812 21.9363 9.50323 21.6526 9.3482 21.2542C9.2314 20.9537 9.0922 20.5021 9.05433 19.6701C9.01344 18.7706 9.00527 18.5003 9.00527 16.2216C9.00527 13.9428 9.01344 13.674 9.05433 12.7744C9.09238 11.9424 9.2314 11.4909 9.3482 11.1901C9.50287 10.7918 9.68812 10.5074 9.98679 10.2087C10.2855 9.91004 10.5699 9.72515 10.9681 9.57012C11.2689 9.45279 11.7207 9.31412 12.5527 9.2759C13.3399 9.24034 13.645 9.22967 15.2354 9.2279V9.23003ZM20.556 10.6469C19.9906 10.6469 19.532 11.1051 19.532 11.6706C19.532 12.2359 19.9906 12.6946 20.556 12.6946C21.1213 12.6946 21.58 12.2359 21.58 11.6706C21.58 11.1053 21.1213 10.6469 20.556 10.6469ZM16.0009 11.8434C13.5808 11.8434 11.6187 13.8055 11.6187 16.2257C11.6187 18.6458 13.5808 20.607 16.0009 20.607C18.4211 20.607 20.3825 18.6458 20.3825 16.2257C20.3825 13.8055 18.4211 11.8434 16.0009 11.8434ZM16.0009 13.3812C17.5718 13.3812 18.8454 14.6546 18.8454 16.2257C18.8454 17.7965 17.5718 19.0701 16.0009 19.0701C14.4299 19.0701 13.1564 17.7965 13.1564 16.2257C13.1564 14.6546 14.4299 13.3812 16.0009 13.3812Z" fill="#202E3D"/>
</svg>
