<svg width="32" height="33" viewBox="0 0 32 33" fill="none" xmlns="http://www.w3.org/2000/svg">
<path fill-rule="evenodd" clip-rule="evenodd" d="M0 16.2256C0 7.38903 7.16344 0.225586 16 0.225586C24.8366 0.225586 32 7.38903 32 16.2256C32 25.0621 24.8366 32.2256 16 32.2256C7.16344 32.2256 0 25.0621 0 16.2256Z" fill="#ECF1FA"/>
<path d="M11.546 10.1074C11.5224 9.03919 10.7586 8.22559 9.51815 8.22559C8.27774 8.22559 7.4668 9.03919 7.4668 10.1074C7.4668 11.1535 8.25377 11.9905 9.47108 11.9905H9.49426C10.7586 11.9905 11.546 11.1535 11.546 10.1074Z" fill="#202E3D"/>
<path d="M11.3072 13.4775H7.68121V24.372H11.3072V13.4775Z" fill="#202E3D"/>
<path d="M20.2089 13.2217C22.5949 13.2217 24.3837 14.7791 24.3837 18.1254L24.3836 24.372H20.7578V18.5434C20.7578 17.0794 20.2331 16.0804 18.9205 16.0804C17.9187 16.0804 17.3221 16.7539 17.06 17.4044C16.9641 17.6375 16.9406 17.9623 16.9406 18.2879V24.3723H13.3142C13.3142 24.3723 13.362 14.5001 13.3142 13.4778H16.9406V15.0209C17.4218 14.2791 18.2838 13.2217 20.2089 13.2217Z" fill="#202E3D"/>
</svg>
