<svg width="340" height="283" viewBox="0 0 340 283" fill="none" xmlns="http://www.w3.org/2000/svg">
<g clip-path="url(#clip0)">
<path d="M83.6098 94.8488H123.016C123.016 94.8488 123.016 61.7585 157.406 61.1541C175.265 60.8519 184.512 72.5468 188.29 81.4918C192.672 91.8873 191.342 103.763 185.479 113.403C178.801 124.434 164.386 135.494 137.854 130.81L137.612 218.597H176.565V166.62C176.565 166.62 231.232 152.477 231.232 92.2499C231.232 34.6215 184.633 22.1711 159.581 21.3854C145.65 20.9321 140.604 20.3277 123.348 22.7755C101.379 25.8881 83.1565 51.3932 83.6098 94.8488Z" fill="#C9B1E5"/>
<path d="M177.047 236.975H137.49V273.903H177.047V236.975Z" fill="#C9B1E5"/>
<path d="M177.047 236.975H137.49V273.903H177.047V236.975Z" fill="#FFDC6B"/>
<path d="M83.6098 94.8488H123.016C123.016 94.8488 123.016 61.7585 157.406 61.1541C175.265 60.8519 184.512 72.5468 188.29 81.4918C192.672 91.8873 191.342 103.763 185.479 113.403C178.801 124.434 164.386 135.494 137.854 130.81L137.612 218.597H176.565V166.62C176.565 166.62 231.232 152.477 231.232 92.2499C231.232 34.6215 184.633 22.1711 159.581 21.3854C145.65 20.9321 140.604 20.3277 123.348 22.7755C101.379 25.8881 83.1565 51.3932 83.6098 94.8488Z" fill="#FFDC6B"/>
<path d="M67.2919 94.8512H106.698C106.698 94.8512 106.698 61.7609 141.088 61.1565C158.947 60.8543 168.195 72.5493 171.972 81.4942C176.354 91.8897 175.024 103.766 169.162 113.406C162.483 124.436 147.827 134.439 121.264 129.755V218.6H160.217V166.622C160.217 166.622 214.884 152.48 214.884 92.2523C214.884 34.6239 163.208 21.2367 141.088 21.2367C124.195 21.2367 66.5667 25.3163 67.2919 94.8512Z" fill="#C9B1E5"/>
<path d="M67.2919 94.8512H106.698C106.698 94.8512 106.698 61.7609 141.088 61.1565C158.947 60.8543 168.195 72.5493 171.972 81.4942C176.354 91.8897 175.024 103.766 169.162 113.406C162.483 124.436 147.827 134.439 121.264 129.755V218.6H160.217V166.622C160.217 166.622 214.884 152.48 214.884 92.2523C214.884 34.6239 163.208 21.2367 141.088 21.2367C124.195 21.2367 66.5667 25.3163 67.2919 94.8512Z" fill="#FFD13C"/>
<path d="M160.731 236.974H121.174V273.902H160.731V236.974Z" fill="#C9B1E5"/>
<path d="M160.731 236.974H121.174V273.902H160.731V236.974Z" fill="#FFD13C"/>
<path d="M199.863 89.6225C199.168 90.9824 201.737 92.1005 203.187 92.5538C204.668 93.0071 206.239 92.9467 207.75 92.856C209.775 92.7351 211.89 92.5538 213.673 91.5566C215.245 90.65 216.423 89.1692 217.239 87.5676C218.055 85.966 218.569 84.2132 219.052 82.4605C219.052 82.4303 202.915 83.488 199.863 89.6225Z" fill="#FFDC6B"/>
<path d="M245.402 85.2401C248.031 87.1137 251.265 88.1412 254.498 88.1109C256.04 88.0807 257.702 87.7785 258.82 86.7511C259.334 86.2676 259.726 85.6632 260.27 85.1797C260.633 84.8775 261.056 84.6357 261.419 84.3033C261.751 83.9709 262.023 83.4874 261.932 83.0039C261.811 82.5204 261.419 81.7346 260.996 81.4929C259.152 80.4352 256.946 80.4654 254.801 80.5259C252.685 80.5863 250.57 81.0698 248.545 81.7649C246.883 82.3088 245.161 83.0945 244.314 84.6357" fill="#FFDC6B"/>
<path d="M213.915 109.749L247.942 110.202C248.245 110.202 248.456 109.93 248.366 109.628L244.377 97.1777C244.377 97.1777 244.951 90.9525 245.767 83.4883C247.006 72.1258 248.637 57.8622 248.668 57.8925C246.341 51.3651 232.621 50.2469 232.621 50.2469L216.968 51.1837L216.424 50.2772L211.921 52.3623C210.924 52.8156 209.987 53.3595 209.11 53.9639C206.149 55.9584 198.957 60.5216 197.657 65.5984C194.635 77.3538 199.742 90.4992 199.742 90.4992L203.036 87.9306C203.883 87.2657 204.698 86.7218 205.635 86.1778L212.223 103.856C212.223 103.856 210.863 104.702 210.803 106.123C210.742 107.543 211.498 109.265 213.915 109.749Z" fill="#FFE79C"/>
<path d="M260.967 80.7385C258.187 74.4831 248.396 57.1674 248.396 57.1674L240.811 66.6865L242.563 85.3621C242.563 85.3621 246.582 80.8896 257.764 80.7989C260.363 80.7687 261.934 83.005 261.934 83.005L260.967 80.7385Z" fill="#FFE79C"/>
<path d="M205.635 14.1333C208.929 9.50973 214.308 9.75149 218.75 10.1746C219.626 9.05644 223.766 7.69657 226.818 8.08942C233.346 8.90534 243.348 16.8833 238.423 47.9488L203.791 52.6631C200.497 42.056 198.322 24.4079 205.635 14.1333Z" fill="#1F2D3D"/>
<path d="M226.879 39.4296L227.907 49.0092C228.3 52.424 225.882 55.5366 222.467 56.0503C218.72 56.5942 215.305 53.7536 215.154 49.9762L214.641 31.5726L226.879 39.4296Z" fill="#FFC3AA"/>
<path d="M231.32 14.1068C232.469 14.8321 233.315 15.9804 233.768 17.2799C235.098 21.1177 237.757 29.1259 236.941 33.4775C235.853 39.1587 231.894 43.2081 224.551 42.8455C224.551 42.8455 216.211 43.601 212.494 31.6945C207.205 14.8321 221.348 7.79098 231.32 14.1068Z" fill="#FFC3AA"/>
<path d="M221.349 13.0471C221.349 13.0471 229.116 10.9016 233.739 17.2778C233.739 17.2778 232.017 7.33566 220.141 10.3576L221.349 13.0471Z" fill="#1F2D3D"/>
<path d="M221.348 13.0465C221.348 13.0465 217.027 13.8624 216.755 18.3651C216.543 21.7497 220.169 24.8623 215.818 30.876L210.016 27.0986C210.016 27.0986 204.455 12.4119 220.139 10.357L221.348 13.0465Z" fill="#1F2D3D"/>
<path d="M233.436 26.2836C233.648 26.7671 234.192 27.0089 234.675 26.7973C235.159 26.5858 235.401 26.0419 235.189 25.5584C234.978 25.0748 234.434 24.8331 233.95 25.0446C233.467 25.2259 233.225 25.7699 233.436 26.2836Z" fill="#101010"/>
<path d="M225.459 27.5235C225.67 28.007 226.214 28.2488 226.698 28.0372C227.181 27.8257 227.423 27.2817 227.212 26.7982C227 26.3147 226.456 26.073 225.973 26.2845C225.489 26.4658 225.278 27.04 225.459 27.5235Z" fill="#101010"/>
<path d="M230.053 23.8052L232.591 28.9123C232.984 29.6677 232.621 30.6045 231.836 30.937" stroke="#FF9574" stroke-width="0.567067" stroke-miterlimit="10" stroke-linecap="round" stroke-linejoin="round"/>
<path d="M233.105 33.0516L227.695 33.1725C227.695 33.1725 227.665 35.3785 230.324 35.318C233.014 35.2576 233.105 33.0516 233.105 33.0516Z" fill="white"/>
<path d="M232.832 21.1759C232.832 21.1759 234.464 20.6622 236.851 21.7501" stroke="#1F2D3D" stroke-width="1.67536" stroke-miterlimit="10" stroke-linecap="round"/>
<path d="M227.272 21.9328C227.272 21.9328 223.011 21.6609 221.047 23.8971" stroke="#1F2D3D" stroke-width="1.67536" stroke-miterlimit="10" stroke-linecap="round"/>
<path d="M232.318 26.1629C232.59 28.0667 234.162 29.3963 235.884 29.1546C237.607 28.9128 238.785 27.1903 238.513 25.3167C238.241 23.4129 236.67 22.0832 234.947 22.325C233.225 22.5365 232.046 24.259 232.318 26.1629Z" stroke="white" stroke-width="0.536999" stroke-miterlimit="10"/>
<path d="M222.015 27.8856C222.287 29.7894 224.009 31.0888 225.913 30.8471C227.817 30.6053 229.146 28.8526 228.875 26.9488C228.603 25.045 226.88 23.7455 224.976 23.9873C223.103 24.2593 221.773 25.9818 222.015 27.8856Z" stroke="white" stroke-width="0.56474" stroke-miterlimit="10"/>
<path d="M232.319 26.1644C232.319 26.1644 230.415 25.1974 228.904 26.9501" stroke="white" stroke-width="0.56474" stroke-miterlimit="10"/>
<path d="M222.014 27.8861L214.127 28.5509" stroke="white" stroke-width="0.56474" stroke-miterlimit="10"/>
<path d="M212.804 36.6958C215.565 36.3215 217.501 33.7791 217.126 31.0173C216.752 28.2555 214.21 26.32 211.448 26.6944C208.686 27.0687 206.751 29.611 207.125 32.3728C207.499 35.1347 210.042 37.0701 212.804 36.6958Z" fill="#FFC3AA"/>
<path d="M209.654 30.5429C209.654 30.5429 213.19 29.0017 214.701 32.9" stroke="#FF9574" stroke-width="0.567067" stroke-miterlimit="10" stroke-linecap="round" stroke-linejoin="round"/>
<path d="M241.144 237.126L239.119 267.708L225.792 267.557L223.707 235.736L241.144 237.126Z" fill="#FFBF9D"/>
<path d="M239.482 263.687V264.564C239.482 264.564 254.47 270.608 254.652 273.448L224.855 273.267L225.309 263.355C229.721 265.44 234.375 265.712 239.482 263.687Z" fill="#FFDC6B"/>
<path d="M219.656 98.8711C219.656 98.8711 236.549 99.8381 246.552 99.9288C254.288 99.9892 257.733 97.9343 259.274 92.9783C260.573 88.808 257.793 80.7999 257.793 80.7999C252.565 80.8301 249.332 81.5554 245.977 83.1268L246.884 86.7833L219.656 89.1404V98.8711Z" fill="#FFC3AA"/>
<path d="M213.462 83.0964C213.462 83.0964 208.234 84.3354 204.396 86.9041L208.476 97.9946C209.836 101.651 214.006 103.434 217.33 101.53C222.468 98.599 224.281 90.0167 224.281 90.0167L229.932 65.539L220.564 59.6764L213.462 83.0964Z" fill="#FFC3AA"/>
<path d="M220.564 59.7071L220.927 51.6688L218.842 43.5095C218.721 43.0562 218.66 42.4821 219.023 42.2101C219.416 41.9079 219.99 41.9381 220.292 42.2403C220.866 42.8145 223.586 49.9765 223.586 49.9765C223.586 49.9765 227.726 47.4985 228.451 47.3776C229.177 47.2567 230.113 49.493 230.174 49.6743C230.234 49.8556 230.174 51.1853 230.174 51.1853C230.174 51.1853 232.743 51.2759 232.954 51.6083C233.196 51.971 233.256 53.7841 233.256 53.7841C233.256 53.7841 234.344 54.1165 234.526 54.9627C234.707 55.7786 235.039 57.1385 234.526 57.4407C234.012 57.7429 232.924 58.317 232.924 58.317C232.924 58.317 232.501 62.4873 232.38 62.8802C232.259 63.273 229.872 65.5999 229.872 65.5999L220.564 59.7071Z" fill="#FFC3AA"/>
<path d="M230.204 51.1549C230.204 51.2153 229.962 51.2456 229.599 51.2456C229.237 51.2758 228.753 51.2758 228.24 51.3967C227.726 51.5175 227.333 51.7895 227.091 52.001C226.849 52.2428 226.729 52.4241 226.668 52.4241C226.638 52.4241 226.668 52.1521 226.88 51.8499C227.121 51.5478 227.575 51.2153 228.149 51.0642C228.723 50.9131 229.237 50.9434 229.599 51.0038C229.992 51.034 230.234 51.1247 230.204 51.1549Z" fill="#FF9A6C"/>
<path d="M228.209 51.2441C228.118 51.2139 228.118 51.0023 228.209 50.7606C228.299 50.549 228.45 50.3677 228.541 50.4282C228.632 50.4584 228.632 50.6699 228.541 50.9117C228.45 51.1232 228.299 51.2743 228.209 51.2441Z" fill="#FF9A6C"/>
<path d="M233.407 53.7203C233.407 53.811 232.5 53.9319 231.382 53.9923C230.838 54.0527 230.415 54.2341 230.264 54.5363C230.083 54.8082 230.143 55.05 230.083 55.05C230.052 55.0802 229.871 54.8082 230.022 54.4154C230.113 54.2341 230.264 54.0225 230.506 53.8714C230.748 53.7203 231.05 53.6599 231.322 53.6297C232.5 53.5692 233.407 53.6297 233.407 53.7203Z" fill="#FF9A6C"/>
<path d="M232.955 56.1698C233.045 56.1698 233.106 56.6835 233.076 57.2879C233.045 57.8923 232.955 58.406 232.834 58.406C232.743 58.406 232.683 57.8923 232.713 57.2879C232.773 56.6533 232.864 56.1698 232.955 56.1698Z" fill="#FF9A6C"/>
<path d="M221.862 255.344L242.683 255.253L242.321 183.301L242.139 110.109L213.945 109.747L208.868 119.296C206.813 123.164 205.423 127.334 204.97 131.686C204.607 134.98 207.085 145.768 207.961 148.518L215.728 173.117L221.862 255.344Z" fill="#1A2E35"/>
<path d="M248.215 110.205L271.091 172.547C273.78 180.918 272.874 189.198 268.28 196.904L241.717 248.73L226.789 230.055L249 183.638L229.418 151.907L232.712 110.265L241.929 110.114L248.215 110.205Z" fill="#1A2E35"/>
<path d="M228.481 113.256C228.39 113.286 228.209 113.044 228.058 112.682C227.907 112.319 227.876 112.017 227.967 111.986C228.058 111.956 228.239 112.198 228.39 112.561C228.511 112.893 228.571 113.195 228.481 113.256Z" fill="#FAFAFA"/>
</g>
<defs>
<clipPath id="clip0">
<rect width="205.311" height="265.901" fill="white" transform="translate(67.291 8)"/>
</clipPath>
</defs>
</svg>
