<svg width="528" height="521" viewBox="0 0 528 521" fill="none" xmlns="http://www.w3.org/2000/svg">
<rect x="191.25" width="300" height="90" rx="10" fill="#F8FAFD"/>
<circle cx="206.25" cy="15" r="5" fill="#F5B0B2"/>
<circle cx="221.25" cy="15" r="5" fill="#FEE182"/>
<circle cx="236.25" cy="15" r="5" fill="#A2D9C0"/>
<rect x="201.25" y="32" width="20" height="4" rx="2" fill="#E8EEF9"/>
<rect x="201.25" y="46" width="20" height="4" rx="2" fill="#E8EEF9"/>
<rect x="201.25" y="74" width="20" height="4" rx="2" fill="#E8EEF9"/>
<rect x="227.25" y="30" width="2" height="50" rx="1" fill="#E8EEF9"/>
<rect x="260.25" y="32" width="95.5" height="4" rx="2" fill="#E8EEF9"/>
<rect x="360.75" y="32" width="20" height="4" rx="2" fill="#E8EEF9"/>
<rect x="385.75" y="32" width="95.5" height="4" rx="2" fill="#F5B0B2"/>
<rect x="235.25" y="46" width="20" height="4" rx="2" fill="#E8EEF9"/>
<rect x="260.25" y="46" width="95.5" height="4" rx="2" fill="#F5B0B2"/>
<rect x="360.75" y="46" width="20" height="4" rx="2" fill="#E8EEF9"/>
<rect x="385.75" y="46" width="95.5" height="4" rx="2" fill="#E8EEF9"/>
<rect x="235.25" y="60" width="20" height="4" rx="2" fill="#E8EEF9"/>
<rect x="285.25" y="60" width="171" height="4" rx="2" fill="#E8EEF9"/>
<rect x="461.25" y="60" width="20" height="4" rx="2" fill="#E8EEF9"/>
<rect x="235.25" y="74" width="20" height="4" rx="2" fill="#E8EEF9"/>
<rect x="260.25" y="74" width="171" height="4" rx="2" fill="#F5B0B2"/>
<rect x="461.25" y="74" width="20" height="4" rx="2" fill="#E8EEF9"/>
<rect x="191.25" y="110" width="300" height="90" rx="10" stroke="#D8E3F5" stroke-dasharray="10 10"/>
<rect x="191.25" y="220" width="300" height="70" rx="10" fill="#F8FAFD"/>
<rect x="201.25" y="232" width="20" height="4" rx="2" fill="#E8EEF9"/>
<rect x="201.25" y="246" width="20" height="4" rx="2" fill="#E8EEF9"/>
<rect x="201.25" y="274" width="20" height="4" rx="2" fill="#E8EEF9"/>
<rect x="227.25" y="230" width="2" height="50" rx="1" fill="#E8EEF9"/>
<rect x="260.25" y="232" width="95.5" height="4" rx="2" fill="#F5B0B2"/>
<rect x="360.75" y="232" width="20" height="4" rx="2" fill="#E8EEF9"/>
<rect x="385.75" y="232" width="95.5" height="4" rx="2" fill="#E8EEF9"/>
<rect x="235.25" y="246" width="20" height="4" rx="2" fill="#E8EEF9"/>
<rect x="260.25" y="246" width="95.5" height="4" rx="2" fill="#E8EEF9"/>
<rect x="360.75" y="246" width="20" height="4" rx="2" fill="#E8EEF9"/>
<rect x="385.75" y="246" width="95.5" height="4" rx="2" fill="#E8EEF9"/>
<rect x="235.25" y="260" width="20" height="4" rx="2" fill="#F5B0B2"/>
<rect x="285.25" y="260" width="171" height="4" rx="2" fill="#E8EEF9"/>
<rect x="461.25" y="260" width="20" height="4" rx="2" fill="#E8EEF9"/>
<rect x="235.25" y="274" width="20" height="4" rx="2" fill="#E8EEF9"/>
<rect x="260.25" y="274" width="171" height="4" rx="2" fill="#E8EEF9"/>
<rect x="461.25" y="274" width="20" height="4" rx="2" fill="#F5B0B2"/>
<rect x="191.25" y="310" width="300" height="90" rx="10" stroke="#D8E3F5" stroke-dasharray="10 10"/>
<path d="M80.0676 472.332L75.3001 497.964C75.3001 497.964 99.7015 511.395 99.2914 516.265L49.207 508.781L55.1023 468.436L80.0676 472.332Z" fill="#3C4858"/>
<path d="M49.3086 508.78L50.0775 504.73L97.7525 513.445C97.7525 513.445 99.803 514.727 99.3417 516.264L49.3086 508.78Z" fill="#1F2D3D"/>
<path d="M63.765 478.483L63.3037 504.576C63.3037 504.576 89.7043 513.804 90.0119 518.571L39.4149 519.494L38.4922 478.842L63.765 478.483Z" fill="#3C4858"/>
<path d="M28.0859 276.095L28.7524 301.881L36.3906 381.954C36.3906 381.954 33.93 420.966 32.3921 443.009C31.0592 462.13 34.904 495.298 34.904 495.298L67.0974 494.477L75.7096 383.338L81.0923 314.082L91.9601 277.89L28.0859 276.095Z" fill="#1F2D3D"/>
<path d="M107.646 281.939L109.697 386.671C109.8 392.002 108.928 397.333 107.134 402.357L79.4516 479.355L78.0675 484.43L58.7412 480.277L68.1224 276.095L107.646 281.939Z" fill="#1F2D3D"/>
<path d="M82.3233 286.81C82.3233 287.118 82.2208 287.477 82.067 287.733C81.9132 287.989 81.6569 288.245 81.3493 288.348C81.0417 288.502 80.7342 288.502 80.3753 288.451C80.0677 288.399 79.7602 288.245 79.5038 288.04C79.2475 287.835 79.0937 287.528 79.0425 287.22C78.9912 286.913 78.9912 286.554 79.0937 286.246C79.1963 285.939 79.4013 285.682 79.7089 285.477C79.9652 285.272 80.2728 285.17 80.6316 285.17C80.8367 285.17 81.0417 285.221 81.2468 285.272C81.4518 285.375 81.6569 285.477 81.8107 285.631C81.9645 285.785 82.1183 285.939 82.1695 286.144C82.2721 286.349 82.3233 286.554 82.3233 286.81Z" fill="#4F5B6C"/>
<path d="M52.5381 282.709C52.5381 292.5 44.5923 300.446 34.801 300.446H32.6992" stroke="#4F5B6C" stroke-width="0.512634" stroke-miterlimit="10"/>
<path d="M99.5469 280.555V285.272C99.5469 290.193 103.545 299.164 108.467 299.164" stroke="#4F5B6C" stroke-width="0.512634" stroke-miterlimit="10"/>
<path d="M80.6312 300.446L77.0941 389.388L67.0977 494.375L34.9043 495.246" stroke="#4F5B6C" stroke-width="0.512634" stroke-miterlimit="10"/>
<path d="M136.252 146.194L134.25 136L128.306 137.53L127.076 128.969L125.486 115.179L120.36 122.715C119.745 123.638 119.386 124.714 119.284 125.842L118.515 152.038L118.412 163.264L131.125 171.262L130.869 157.933L133.842 154.755C136.713 151.628 136.252 146.194 136.252 146.194Z" fill="#F8B498"/>
<g filter="url(#filter0_d)">
<rect x="118.763" y="76.3933" width="300" height="70" rx="10" transform="rotate(-7.5 118.763 76.3933)" fill="#F8FAFD"/>
<rect x="130.243" y="86.9854" width="20" height="4" rx="2" transform="rotate(-7.5 130.243 86.9854)" fill="#E8EEF9"/>
<rect x="132.07" y="100.865" width="20" height="4" rx="2" transform="rotate(-7.5 132.07 100.865)" fill="#E8EEF9"/>
<rect x="135.726" y="128.626" width="20" height="4" rx="2" transform="rotate(-7.5 135.726 128.626)" fill="#E8EEF9"/>
<rect x="155.76" y="81.6086" width="2" height="50" rx="1" transform="rotate(-7.5 155.76 81.6086)" fill="#E8EEF9"/>
<rect x="188.738" y="79.2842" width="95.5" height="4" rx="2" transform="rotate(-7.5 188.738 79.2842)" fill="#E8EEF9"/>
<rect x="288.379" y="66.1663" width="20" height="4" rx="2" transform="rotate(-7.5 288.379 66.1663)" fill="#F5B0B2"/>
<rect x="313.165" y="62.9031" width="95.5" height="4" rx="2" transform="rotate(-7.5 313.165 62.9031)" fill="#E8EEF9"/>
<rect x="165.779" y="96.4275" width="20" height="4" rx="2" transform="rotate(-7.5 165.779 96.4275)" fill="#F5B0B2"/>
<rect x="190.565" y="93.1643" width="95.5" height="4" rx="2" transform="rotate(-7.5 190.565 93.1643)" fill="#E8EEF9"/>
<rect x="290.206" y="80.0464" width="20" height="4" rx="2" transform="rotate(-7.5 290.206 80.0464)" fill="#E8EEF9"/>
<rect x="314.992" y="76.7832" width="95.5" height="4" rx="2" transform="rotate(-7.5 314.992 76.7832)" fill="#E8EEF9"/>
<rect x="167.606" y="110.308" width="20" height="4" rx="2" transform="rotate(-7.5 167.606 110.308)" fill="#E8EEF9"/>
<rect x="217.179" y="103.781" width="171" height="4" rx="2" transform="rotate(-7.5 217.179 103.781)" fill="#E8EEF9"/>
<rect x="391.673" y="80.8088" width="20" height="4" rx="2" transform="rotate(-7.5 391.673 80.8088)" fill="#F5B0B2"/>
<rect x="169.435" y="124.188" width="20" height="4" rx="2" transform="rotate(-7.5 169.435 124.188)" fill="#E8EEF9"/>
<rect x="194.221" y="120.925" width="171" height="4" rx="2" transform="rotate(-7.5 194.221 120.925)" fill="#E8EEF9"/>
<rect x="393.501" y="94.689" width="20" height="4" rx="2" transform="rotate(-7.5 393.501 94.689)" fill="#E8EEF9"/>
</g>
<path d="M120.719 137.684C122.359 134.762 124.307 131.994 126.46 129.431C127.127 128.559 127.947 127.841 128.921 127.278C129.382 127.021 129.946 126.919 130.51 126.919C131.074 126.97 131.587 127.175 132.048 127.483C132.458 127.944 132.766 128.508 132.817 129.123C132.919 129.738 132.817 130.353 132.509 130.917C131.945 132.045 131.176 133.019 130.305 133.891C129.434 134.762 128.818 135.89 128.562 137.12C128.562 138.299 128.767 139.478 129.177 140.555C129.639 142.4 129.587 144.348 129.075 146.194C128.562 148.039 127.588 149.731 126.255 151.064" fill="#F8B498"/>
<path d="M39.415 519.494L39.4663 515.393L87.9102 516.06C87.9102 516.06 90.1658 516.982 89.9607 518.572L39.415 519.494Z" fill="#1F2D3D"/>
<path d="M86.5771 149.782C86.5771 149.782 95.6508 156.806 99.2392 164.803C102.366 171.313 105.955 177.567 109.851 183.668L116.361 160.138L133.996 168.545C133.996 168.545 128.562 205.403 127.28 209.709C125.486 215.707 121.18 221.039 114.464 220.423C107.749 219.808 103.75 216.784 99.3417 210.427L93.3952 199.662L86.5771 149.782Z" fill="#A8DBF7"/>
<path d="M58.0236 142.196C45.0539 140.35 31.828 142.452 20.1912 148.398C16.654 150.193 13.6807 152.192 12.2454 154.242C5.83744 163.162 23.5746 191.767 24.9074 198.842C25.5738 202.225 29.7774 227.857 27.7782 248.054C26.4966 261.485 25.984 274.968 26.2915 288.45L107.647 281.888C107.647 267.688 104.007 256.769 101.546 238.724L95.4458 179.977L86.6285 149.731L74.0177 144.451L58.0236 142.196Z" fill="#A8DBF7"/>
<path d="M31.7769 294.037L32.392 301.163C32.392 301.163 37.8259 303.982 39.7739 306.033C41.722 308.084 47.4635 318.593 47.4635 318.593C46.9508 319.054 46.2844 319.361 45.618 319.413C44.9003 319.464 44.2339 319.259 43.67 318.849C42.1833 317.055 40.8505 315.209 39.6202 313.21C39.1075 313.107 38.5949 313.159 38.1335 313.312C37.6722 313.466 37.2108 313.723 36.8519 314.081C36.4931 314.44 36.2368 314.902 36.083 315.363C35.9292 315.876 35.9292 316.388 36.0317 316.85C36.7494 320.028 37.6209 323.719 37.6209 324.18C37.6209 324.642 40.7992 327.717 43.2086 329.922C43.5162 330.229 43.7212 330.588 43.8238 331.05C43.9263 331.511 43.8238 331.921 43.67 332.28C43.4649 332.69 43.2086 332.998 42.7985 333.203C42.4396 333.408 41.9783 333.51 41.5682 333.459C41.3631 333.408 41.2093 333.356 41.0555 333.203C41.0555 333.203 41.3118 336.586 36.6981 333.869C36.6981 333.869 32.5458 334.894 30.5978 332.536C30.5978 332.536 25.5227 331.818 23.7285 330.383C21.9343 328.896 17.8845 313.62 17.8845 313.62L15.5264 297.318L31.7769 294.037Z" fill="#F8B498"/>
<path d="M31.3664 318.644C31.2639 319.567 31.2638 320.49 31.4176 321.413C31.5714 323.668 32.2379 325.872 33.4169 327.82C34.7498 329.666 36.544 331.101 38.5945 332.024C39.3635 332.485 40.2349 332.844 41.1577 333.049C40.44 332.485 39.671 331.973 38.8508 331.614C36.9541 330.589 35.3137 329.153 34.0321 327.462C32.9043 325.565 32.2379 323.514 31.9303 321.361C31.879 320.387 31.674 319.516 31.3664 318.644Z" fill="#FF9574"/>
<path d="M27.8813 320.49C27.625 321.31 27.625 322.181 27.7788 323.053C27.8813 323.975 28.0864 324.898 28.2914 325.77C28.5477 326.897 29.0604 327.974 29.7268 328.897C30.4957 329.717 31.316 330.486 32.29 331.101L34.4943 332.639C35.1607 333.152 35.8784 333.613 36.5961 333.92C36.6473 333.818 35.9809 333.203 34.8019 332.229C34.238 331.716 33.5203 331.152 32.7001 330.537C31.8286 329.922 31.0084 329.204 30.2394 328.384C29.6243 327.513 29.1629 326.59 28.8553 325.565C28.599 324.693 28.3427 323.822 28.1889 322.95C27.9838 321.463 27.9838 320.49 27.8813 320.49Z" fill="#FF9574"/>
<path d="M24.0365 322.95C23.7289 323.002 24.4466 325.77 25.5231 329C25.6769 329.461 25.9332 329.82 26.2921 330.127C26.5484 330.435 26.856 330.691 27.1635 330.896C27.6762 331.306 28.2401 331.665 28.804 331.973C29.8292 332.485 30.5469 332.639 30.5469 332.537C30.5469 332.434 29.983 332.178 29.0603 331.511C28.5477 331.153 28.035 330.742 27.5737 330.332C27.2661 330.076 27.0098 329.82 26.7534 329.563C26.4971 329.307 26.2921 329 26.1383 328.692C25.6256 327.052 25.0617 325.616 24.6516 324.54C24.5491 324.078 24.3441 323.514 24.0365 322.95Z" fill="#FF9574"/>
<path d="M12.2456 154.242C12.2456 154.242 2.45433 166.443 2.40306 176.337C2.30054 186.282 0.25 250.464 0.25 250.464L13.9886 303.931L35.8781 298.395L28.086 242.057L28.855 193.1L12.2456 154.242Z" fill="#A8DBF7"/>
<path d="M28.8029 190.332L27.7776 244.466L35.9798 298.447L13.9365 303.983" stroke="#48AEE3" stroke-width="0.512634" stroke-miterlimit="10"/>
<path d="M94.0625 170.749L100.419 231.496" stroke="#48AEE3" stroke-width="0.512634" stroke-miterlimit="10"/>
<path d="M34.9561 77.7061C34.9561 77.7061 35.2636 62.3271 54.1798 60.6354C66.278 59.5588 66.3805 65.5567 78.5812 64.7877C89.7053 64.1213 100.317 71.6057 97.5999 84.7804C95.3443 95.8021 78.4274 102.005 78.4274 102.005L34.9561 77.7061Z" fill="#A67C52"/>
<path d="M86.8981 117.716C91.1862 116.659 93.8053 112.325 92.7479 108.037C91.6906 103.749 87.3572 101.13 83.0691 102.187C78.7809 103.245 76.1618 107.578 77.2192 111.866C78.2765 116.154 82.6099 118.773 86.8981 117.716Z" fill="#FF9574"/>
<path d="M72.84 127.431L72.5324 140.811C72.3786 148.706 65.9194 155.011 58.0248 154.96C49.3613 154.857 42.7484 147.219 43.9274 138.658L48.7974 108.566L72.84 127.431Z" fill="#F8B498"/>
<path d="M82.272 76.8344C83.8612 78.4748 86.5781 81.5506 87.1933 87.087C88.0135 94.674 89.9103 113.18 86.5269 121.331C82.2208 131.686 73.0959 137.735 59.4598 133.942C59.4598 133.942 46.9516 132.506 41.3126 107.695C32.6491 70.0163 66.2266 60.02 82.272 76.8344Z" fill="#F8B498"/>
<path d="M81.0422 103.748C81.2473 104.722 82.2213 105.388 83.1953 105.183C84.1693 104.978 84.8357 104.004 84.6307 103.03C84.4256 102.056 83.4516 101.389 82.4776 101.595C81.4523 101.8 80.8372 102.774 81.0422 103.748Z" fill="#0E5977"/>
<path d="M64.7922 103.235C64.9973 104.209 65.9713 104.876 66.9453 104.671C67.9193 104.466 68.5857 103.492 68.3807 102.518C68.1756 101.544 67.2016 100.877 66.2276 101.082C65.2023 101.287 64.5872 102.261 64.7922 103.235Z" fill="#0E5977"/>
<path d="M76.5825 102.466L78.7356 111.335C78.9919 112.309 78.3255 113.283 77.3515 113.334L76.5312 113.385" stroke="#FF9574" stroke-width="1.06156" stroke-miterlimit="10" stroke-linecap="round" stroke-linejoin="round"/>
<path d="M87.3476 118.871L82.9389 119.588L81.8111 117.384C81.3498 116.461 80.427 115.949 79.4017 115.949L69.3029 116.256C68.3289 116.307 67.5086 116.82 67.0473 117.692L64.8429 119.896C64.8429 119.896 53.0011 122.613 50.7455 106.004L47.3621 105.132C47.3621 105.132 50.7968 112.565 45.9268 120.921C45.9268 120.921 50.9506 137.787 70.892 134.916C70.9433 134.865 83.349 133.583 87.3476 118.871Z" fill="#A67C52"/>
<path d="M77.966 119.947C77.966 119.947 74.6852 121.69 71.4043 119.998" stroke="white" stroke-width="1.05726" stroke-miterlimit="10" stroke-linecap="round" stroke-linejoin="round"/>
<path d="M81.1963 94.3668C81.1963 94.3668 84.2721 93.8542 88.3732 96.4173" stroke="#A67C52" stroke-width="3.0758" stroke-miterlimit="10" stroke-linecap="round"/>
<path d="M70.9429 94.3667C70.9429 94.3667 63.2534 92.8288 59.1523 96.4172" stroke="#A67C52" stroke-width="3.0758" stroke-miterlimit="10" stroke-linecap="round"/>
<path d="M40.2875 108.259L50.7965 106.004L49.0023 92.5727C48.7972 91.1373 49.6687 89.7019 51.0528 89.3943C53.4109 88.7792 56.5893 87.19 56.5893 82.7814C56.6405 75.7583 52.7958 71.7085 52.7958 71.7085C52.7958 71.7085 31.3677 68.2738 28.4457 84.0117C26.3951 94.982 32.598 115.846 47.5156 124.202L40.2875 108.259Z" fill="#A67C52"/>
<path d="M30.6507 111.028C31.7272 115.846 36.4947 118.922 41.3135 117.846C46.1322 116.769 49.208 112.002 48.1315 107.183C47.055 102.364 42.2875 99.2883 37.4687 100.365C32.65 101.441 29.6254 106.209 30.6507 111.028Z" fill="#F8B498"/>
<path d="M35.623 106.209C35.623 106.209 42.3386 104.825 43.4663 112.207" stroke="#FF9574" stroke-width="1.06156" stroke-miterlimit="10" stroke-linecap="round" stroke-linejoin="round"/>
<path d="M51.1032 74.3736C51.1032 74.3736 57.5112 80.1664 68.2252 79.3975C78.9905 78.5772 80.9898 75.7578 84.9883 80.1151C84.9883 80.1151 83.9118 65.1975 64.4317 64.6336C44.9516 64.0697 46.4895 76.6805 46.4895 76.6805L51.1032 74.3736Z" fill="#A67C52"/>
<path d="M465.106 246.9C468.606 257.7 471.506 274.8 471.106 289.2C471.006 293.1 470.206 296.7 469.406 300C468.306 304.5 464.306 307.6 459.606 307.6H408.006C403.806 307.6 400.106 305.1 398.606 301.2C397.006 297 395.306 292.9 394.806 289C390.406 257.8 402.006 235.2 409.206 228.2C412.606 224.9 417.206 223.1 421.906 223.1L432.106 223C435.706 223 439.406 223.6 442.806 224.7C453.406 228.1 461.706 236.3 465.106 246.9Z" fill="#A67C52"/>
<path d="M327.106 342.4L373.806 352.3C379.106 354 386.006 351.5 390.906 349L434.306 325.2L422.906 295.5C421.706 295.9 420.606 296.3 419.506 296.9L381.806 327.3L331.306 323.2L327.106 342.4Z" fill="#EF7E82"/>
<g filter="url(#filter1_d)">
<rect x="226.172" y="299.431" width="300" height="70" rx="10" transform="rotate(4.5 226.172 299.431)" fill="#F8FAFD"/>
<rect x="235.199" y="312.179" width="20" height="4" rx="2" transform="rotate(4.5 235.199 312.179)" fill="#E8EEF9"/>
<rect x="234.101" y="326.135" width="20" height="4" rx="2" transform="rotate(4.5 234.101 326.135)" fill="#E8EEF9"/>
<rect x="231.904" y="354.049" width="20" height="4" rx="2" transform="rotate(4.5 231.904 354.049)" fill="#E8EEF9"/>
<rect x="261.276" y="312.225" width="2" height="50" rx="1" transform="rotate(4.5 261.276 312.225)" fill="#E8EEF9"/>
<rect x="294.018" y="316.808" width="95.5" height="4" rx="2" transform="rotate(4.5 294.018 316.808)" fill="#E8EEF9"/>
<rect x="394.208" y="324.693" width="20" height="4" rx="2" transform="rotate(4.5 394.208 324.693)" fill="#F5B0B2"/>
<rect x="419.131" y="326.654" width="95.5" height="4" rx="2" transform="rotate(4.5 419.131 326.654)" fill="#E8EEF9"/>
<rect x="267.996" y="328.803" width="20" height="4" rx="2" transform="rotate(4.5 267.996 328.803)" fill="#F5B0B2"/>
<rect x="292.919" y="330.764" width="95.5" height="4" rx="2" transform="rotate(4.5 292.919 330.764)" fill="#E8EEF9"/>
<rect x="393.109" y="338.65" width="20" height="4" rx="2" transform="rotate(4.5 393.109 338.65)" fill="#E8EEF9"/>
<rect x="418.032" y="340.611" width="95.5" height="4" rx="2" transform="rotate(4.5 418.032 340.611)" fill="#E8EEF9"/>
<rect x="266.897" y="342.76" width="20" height="4" rx="2" transform="rotate(4.5 266.897 342.76)" fill="#E8EEF9"/>
<rect x="316.743" y="346.683" width="171" height="4" rx="2" transform="rotate(4.5 316.743 346.683)" fill="#E8EEF9"/>
<rect x="492.201" y="360.491" width="20" height="4" rx="2" transform="rotate(4.5 492.201 360.491)" fill="#F5B0B2"/>
<rect x="265.8" y="356.717" width="20" height="4" rx="2" transform="rotate(4.5 265.8 356.717)" fill="#E8EEF9"/>
<rect x="290.723" y="358.678" width="171" height="4" rx="2" transform="rotate(4.5 290.723 358.678)" fill="#E8EEF9"/>
<rect x="491.104" y="374.448" width="20" height="4" rx="2" transform="rotate(4.5 491.104 374.448)" fill="#E8EEF9"/>
</g>
<path d="M400.507 346.4C400.507 346.4 395.207 339 393.807 336.5C392.507 333.9 386.107 327.5 386.107 327.5C386.107 327.5 384.907 327.9 385.007 330.1C385.907 332.1 386.807 334 387.907 335.9C387.907 335.9 388.507 339.1 387.107 339.2C385.707 339.3 368.707 336.7 368.707 336.7C365.007 336.1 365.007 338.3 365.007 338.3C365.007 338.3 362.507 337.8 362.107 339.5C361.807 340.6 364.007 342 364.007 342C364.007 342 361.407 341 360.507 342.8C359.507 344.5 364.207 346.5 364.207 346.5C364.307 349.2 373.207 353.1 375.607 354.3C378.007 355.4 399.707 360.9 399.707 360.9L405.007 348.9L400.507 346.4Z" fill="#FFBEA9"/>
<path d="M382.706 343.2C381.806 343.2 380.906 343.2 380.006 343C377.906 342.7 375.706 342.2 373.706 341.6C371.606 341 369.606 340.3 367.606 339.4C366.706 339.1 365.906 338.7 365.106 338.2C366.006 338.4 366.806 338.7 367.606 339.1C369.106 339.7 371.306 340.4 373.706 341.1C376.206 341.8 378.306 342.3 380.006 342.6C380.906 342.8 381.806 343 382.706 343.2Z" fill="#E4977C"/>
<path d="M381.006 347.6C380.106 347.5 379.306 347.3 378.506 347.1C377.006 346.7 374.806 346.1 372.506 345.4C370.506 344.8 368.606 344.1 366.706 343.2C365.906 342.9 365.106 342.5 364.406 342C365.206 342.2 366.106 342.5 366.906 342.8C368.406 343.4 370.406 344 372.706 344.8L378.606 346.6C379.406 346.9 380.206 347.2 381.006 347.6Z" fill="#E4977C"/>
<path d="M378.606 351.8C377.806 351.8 377.106 351.7 376.306 351.5C374.506 351.1 372.706 350.6 371.006 349.9C369.306 349.2 367.606 348.5 366.006 347.6C365.306 347.3 364.706 346.9 364.106 346.4C364.206 346.3 367.206 347.9 371.206 349.5C372.906 350.2 374.606 350.7 376.306 351.2C377.206 351.3 377.906 351.5 378.606 351.8Z" fill="#E4977C"/>
<path d="M422.806 295.4C422.806 296.6 417.906 333.1 417.906 341.1C417.906 349.1 426.906 360.8 426.906 360.8L449.706 396.6H509.706L486.506 357.9L479.906 327.2C476.406 315.5 476.706 309.5 468.006 300.9L463.806 298.1C455.806 292.7 445.906 290.7 436.406 292.7L422.806 295.4Z" fill="#EF7E82"/>
<path d="M440.506 320.9L449.706 359.6L403.106 346.5L395.206 360.5L455.806 388.1C459.406 389.7 463.506 390.1 467.306 389C471.106 387.9 474.506 385.6 476.806 382.4C478.206 380.4 479.206 378.1 479.606 375.7C480.006 373.3 480.006 370.8 479.406 368.4L465.806 315.4C465.406 313.7 464.606 312.1 463.506 310.7C462.406 309.3 461.006 308.1 459.506 307.3C457.906 306.4 456.206 305.9 454.406 305.8C452.606 305.6 450.806 305.9 449.106 306.4C446.206 307.4 443.706 309.4 442.106 312.1C440.506 314.7 440.006 317.8 440.506 320.9Z" fill="#EF7E82"/>
<path d="M503.607 480.6L480.407 470.5L474.307 490.6L492.307 496.9L492.107 514.2C483.507 516.7 482.307 521 482.307 521L500.307 520.6L516.007 488.7L503.607 480.6Z" fill="#1F2D3D"/>
<g opacity="0.6">
<path opacity="0.6" d="M516.007 488.7L500.307 520.5L482.307 520.9L484.307 518.2L498.907 517.1L513.307 487L516.007 488.7Z" fill="#3C4858"/>
</g>
<path d="M382.106 483.3L382.306 506.9C382.306 506.9 358.406 515.1 358.106 519.4L403.806 520.6L404.906 483.8L382.106 483.3Z" fill="#1F2D3D"/>
<g opacity="0.6">
<path opacity="0.6" d="M403.806 520.6V516.9L360.006 517.2C360.006 517.2 357.906 518 358.106 519.5L403.806 520.6Z" fill="#3C4858"/>
</g>
<path d="M488.306 471.3L435.706 451.7L491.006 443.9L493.806 416.9L390.306 425.9L375.706 446.9L379.506 473.3L480.306 498.9L488.306 471.3Z" fill="#3C4858"/>
<path d="M376.706 490.2L371.706 393.8C371.806 389.2 373.106 384.7 375.506 380.7C377.906 376.7 381.206 373.4 385.206 371.1C388.506 369.2 392.206 368 396.006 367.6C399.806 367.2 403.706 367.6 407.306 368.8L474.506 391.2L507.406 396.4C507.406 396.4 517.706 416.1 514.006 428.2C510.406 440 497.506 447.8 486.106 444.4C472.006 440.2 407.206 412.4 407.206 412.4V491L376.706 490.2Z" fill="#3C4858"/>
<path d="M423.406 278.7L423.906 295.9C424.006 302.1 429.106 307 435.206 307.1C442.006 307.2 447.306 301.3 446.706 294.6L443.206 261.8L423.406 278.7Z" fill="#F8B498"/>
<path d="M409.407 234.8C407.507 236.4 406.307 238.6 405.807 241C404.407 248.1 401.607 263 404.107 270.5C407.407 280.3 415.407 286.6 428.307 284.1C428.307 284.1 443.307 283.4 447.007 261.4C452.307 230.3 425.507 221.2 409.407 234.8Z" fill="#F8B498"/>
<path d="M426.807 230.5C426.807 230.5 412.507 228.6 405.807 241C405.807 241 406.507 222.9 428.207 225.5L426.807 230.5Z" fill="#A67C52"/>
<path d="M426.807 230.5C426.807 230.5 434.607 230.9 436.207 238.8C437.407 244.7 431.707 251.1 440.907 260.8L450.307 252.7C450.307 252.7 456.607 225.3 428.307 225.4L426.807 230.5Z" fill="#A67C52"/>
<path d="M447.706 270.4C452.732 270.4 456.806 266.371 456.806 261.4C456.806 256.43 452.732 252.4 447.706 252.4C442.681 252.4 438.606 256.43 438.606 261.4C438.606 266.371 442.681 270.4 447.706 270.4Z" fill="#F8B498"/>
<path d="M451.806 258.7C451.806 258.7 445.206 256.8 443.406 264.1" stroke="#FF9574" stroke-width="1.0154" stroke-miterlimit="10" stroke-linecap="round" stroke-linejoin="round"/>
<path d="M407.506 255.9C407.306 256.8 406.406 257.3 405.506 257.1C404.606 256.9 404.106 256 404.306 255.1C404.506 254.2 405.406 253.7 406.306 253.9C407.206 254.1 407.706 255 407.506 255.9Z" fill="#101010"/>
<path d="M422.206 256.2C422.006 257.1 421.006 257.7 420.106 257.4C419.206 257.1 418.606 256.2 418.906 255.3C419.106 254.4 420.106 253.8 421.006 254.1C421.906 254.4 422.406 255.3 422.206 256.2Z" fill="#101010"/>
<path d="M412.607 252.3L409.407 261.3C409.007 262.3 409.607 263.4 410.707 263.7L411.607 263.9" stroke="#FF9574" stroke-width="1.0354" stroke-miterlimit="10" stroke-linecap="round" stroke-linejoin="round"/>
<path d="M409.807 268L419.507 266.9C419.507 266.9 420.107 270.9 415.307 271.4C410.507 272 409.807 268 409.807 268Z" fill="white"/>
<path d="M403.207 247.1C403.207 247.1 419.507 241 419.707 228.2C419.707 228.2 403.207 228.4 403.207 247.1Z" fill="#A67C52"/>
<path d="M438.907 247.1C438.907 247.1 419.907 241 419.707 228.2C419.707 228.2 438.907 227.8 438.907 247.1Z" fill="#A67C52"/>
<path d="M406.907 247.1C406.907 247.1 404.807 246.8 401.807 248.1" stroke="#A67C52" stroke-width="3" stroke-miterlimit="10" stroke-linecap="round"/>
<path d="M416.906 247.1C416.906 247.1 424.406 245.6 428.406 249.1" stroke="#A67C52" stroke-width="3" stroke-miterlimit="10" stroke-linecap="round"/>
<path d="M421.006 305.6L420.706 319.9C420.706 320.8 420.606 321.7 420.406 322.6L418.306 335.6C417.606 340.2 418.006 345 419.706 349.3L420.606 351.7" stroke="#EB5D62" stroke-miterlimit="10" stroke-linecap="round"/>
<path d="M403.106 346.4L450.106 360L441.106 324.1" stroke="#EB5D62" stroke-miterlimit="10" stroke-linecap="round"/>
<path d="M466.007 318.5L478.807 369C480.607 376.2 477.307 383.7 470.807 387.2L467.407 389.1" stroke="#EB5D62" stroke-miterlimit="10" stroke-linecap="round"/>
<path d="M401.307 399.5L407.307 413" stroke="#1F2D3D" stroke-miterlimit="10"/>
<path d="M486.006 444.5L407.406 412.7L407.206 491" stroke="#1F2D3D" stroke-miterlimit="10"/>
<defs>
<filter id="filter0_d" x="115.356" y="35.5322" width="313.383" height="115.371" filterUnits="userSpaceOnUse" color-interpolation-filters="sRGB">
<feFlood flood-opacity="0" result="BackgroundImageFix"/>
<feColorMatrix in="SourceAlpha" type="matrix" values="0 0 0 0 0 0 0 0 0 0 0 0 0 0 0 0 0 0 127 0"/>
<feOffset dy="1.70312"/>
<feGaussianBlur stdDeviation="1.70312"/>
<feColorMatrix type="matrix" values="0 0 0 0 0.121569 0 0 0 0 0.176471 0 0 0 0 0.239216 0 0 0 0.05 0"/>
<feBlend mode="normal" in2="BackgroundImageFix" result="effect1_dropShadow"/>
<feBlend mode="normal" in="SourceGraphic" in2="effect1_dropShadow" result="shape"/>
</filter>
<filter id="filter1_d" x="217.273" y="297.728" width="311.38" height="100.134" filterUnits="userSpaceOnUse" color-interpolation-filters="sRGB">
<feFlood flood-opacity="0" result="BackgroundImageFix"/>
<feColorMatrix in="SourceAlpha" type="matrix" values="0 0 0 0 0 0 0 0 0 0 0 0 0 0 0 0 0 0 127 0"/>
<feOffset dy="1.70312"/>
<feGaussianBlur stdDeviation="1.70312"/>
<feColorMatrix type="matrix" values="0 0 0 0 0.121569 0 0 0 0 0.176471 0 0 0 0 0.239216 0 0 0 0.05 0"/>
<feBlend mode="normal" in2="BackgroundImageFix" result="effect1_dropShadow"/>
<feBlend mode="normal" in="SourceGraphic" in2="effect1_dropShadow" result="shape"/>
</filter>
</defs>
</svg>
