<svg width="51" height="50" viewBox="0 0 51 50" fill="none" xmlns="http://www.w3.org/2000/svg">
<g clip-path="url(#clip0)">
<path d="M9.13151 0.625H41.4232C46.319 0.625 50.2774 4.58333 50.2774 9.47917V40.5208C50.2774 45.4167 46.319 49.375 41.4232 49.375H9.13151C4.23568 49.375 0.277344 45.4167 0.277344 40.5208V9.47917C0.277344 4.58333 4.23568 0.625 9.13151 0.625Z" fill="#470137"/>
<path d="M26.5687 13.4375L20.3187 23.75L26.9854 34.6875C27.0271 34.7708 27.0479 34.8542 27.0271 34.9375C27.0062 35.0208 26.9229 34.9583 26.7979 34.9792H22.0271C21.6937 34.9792 21.4646 34.9583 21.3187 34.75C20.8812 33.875 20.4229 33.0208 19.9854 32.1458C19.5479 31.2917 19.0687 30.4167 18.5687 29.5208C18.0687 28.625 17.5687 27.7292 17.0687 26.8125H17.0271C16.5896 27.7083 16.1104 28.6042 15.6312 29.5C15.1521 30.3958 14.6729 31.2917 14.2146 32.1667C13.7354 33.0417 13.2562 33.9375 12.7771 34.7917C12.6937 35 12.5271 35.0208 12.2979 35.0208H7.71455C7.63122 35.0208 7.56872 35.0625 7.56872 34.9583C7.54789 34.875 7.56872 34.7917 7.61039 34.7292L14.0896 24.1042L7.77705 13.4167C7.71455 13.3333 7.69372 13.25 7.73539 13.2083C7.77705 13.1458 7.86039 13.125 7.94372 13.125H12.6729C12.7771 13.125 12.8812 13.1458 12.9646 13.1667C13.0479 13.2083 13.1104 13.2708 13.1729 13.3542C13.5687 14.25 14.0271 15.1458 14.5062 16.0417C15.0062 16.9375 15.4854 17.8125 16.0062 18.6875C16.5062 19.5625 16.9646 20.4375 17.4021 21.3333H17.4437C17.8812 20.4167 18.3396 19.5208 18.7979 18.6458C19.2562 17.7708 19.7354 16.8958 20.2146 16.0208C20.6937 15.1458 21.1521 14.25 21.6104 13.3958C21.6312 13.3125 21.6729 13.2292 21.7354 13.1875C21.8187 13.1458 21.9021 13.125 22.0062 13.1458H26.4021C26.5062 13.125 26.6104 13.1875 26.6312 13.2917C26.6521 13.3125 26.6104 13.3958 26.5687 13.4375Z" fill="#FF61F6"/>
<path d="M36.1935 35.4167C34.6518 35.4376 33.1102 35.1251 31.7143 34.4792C30.4018 33.8751 29.3185 32.8751 28.5685 31.6459C27.7977 30.3751 27.4227 28.7917 27.4227 26.8959C27.4018 25.3542 27.7977 23.8334 28.5685 22.5001C29.3602 21.1459 30.506 20.0209 31.881 19.2709C33.3393 18.4584 35.0893 18.0626 37.1518 18.0626C37.256 18.0626 37.4018 18.0626 37.5893 18.0834C37.7768 18.1042 37.9852 18.1042 38.2352 18.1251V11.5417C38.2352 11.3959 38.2977 11.3126 38.4435 11.3126H42.6727C42.7768 11.2917 42.8602 11.3751 42.881 11.4584V31.3334C42.881 31.7084 42.9018 32.1251 42.9227 32.5834C42.9643 33.0209 42.9852 33.4376 43.006 33.7917C43.006 33.9376 42.9435 34.0626 42.7977 34.1251C41.7143 34.5834 40.5685 34.9167 39.4018 35.1251C38.3393 35.3126 37.2768 35.4167 36.1935 35.4167ZM38.2352 31.2501V22.0834C38.0477 22.0417 37.8602 22.0001 37.6727 21.9792C37.4435 21.9584 37.2143 21.9376 36.9852 21.9376C36.1727 21.9376 35.3602 22.1042 34.631 22.4792C33.9227 22.8334 33.3185 23.3542 32.8602 24.0209C32.4018 24.6876 32.1727 25.5834 32.1727 26.6667C32.1518 27.3959 32.2768 28.1251 32.5268 28.8126C32.7352 29.3751 33.0477 29.8751 33.4643 30.2917C33.8602 30.6667 34.3393 30.9584 34.881 31.1251C35.4435 31.3126 36.0268 31.3959 36.6102 31.3959C36.9227 31.3959 37.2143 31.3751 37.4852 31.3542C37.756 31.3751 37.9852 31.3334 38.2352 31.2501Z" fill="#FF61F6"/>
</g>
<defs>
<clipPath id="clip0">
<rect width="50" height="50" fill="white" transform="translate(0.277344)"/>
</clipPath>
</defs>
</svg>
