<svg width="235" height="29" viewBox="0 0 235 29" fill="none" xmlns="http://www.w3.org/2000/svg">
<path d="M14.4238 22L13.6985 22.1906L13.8454 22.75H14.4238V22ZM13.4395 18.2539L14.1648 18.0633L14.0178 17.5039H13.4395V18.2539ZM6.94531 18.2539V17.5039H6.371L6.22125 18.0584L6.94531 18.2539ZM5.93359 22V22.75H6.50791L6.65765 22.1955L5.93359 22ZM0 22L-0.71329 21.7682L-1.0323 22.75H0V22ZM6.52148 1.92969V1.17969H5.97658L5.80819 1.69792L6.52148 1.92969ZM13.7266 1.92969L14.439 1.69528L14.2694 1.17969H13.7266V1.92969ZM20.3301 22V22.75H21.3664L21.0425 21.7656L20.3301 22ZM12.3184 13.8242V14.5742H13.2906L13.0438 13.6338L12.3184 13.8242ZM11.457 10.543L12.1825 10.3525L12.1802 10.3441L11.457 10.543ZM10.7188 7.71289L9.99012 7.89075L9.99148 7.89614L10.7188 7.71289ZM10.1582 5.22461L10.8961 5.09045L9.41962 5.09427L10.1582 5.22461ZM9.66602 7.52148L8.9352 7.35283L8.93388 7.35879L9.66602 7.52148ZM8.06641 13.8242L7.34135 13.6324L7.09221 14.5742H8.06641V13.8242ZM15.1492 21.8094L14.1648 18.0633L12.7141 18.4445L13.6985 22.1906L15.1492 21.8094ZM13.4395 17.5039H6.94531V19.0039H13.4395V17.5039ZM6.22125 18.0584L5.20954 21.8045L6.65765 22.1955L7.66937 18.4495L6.22125 18.0584ZM5.93359 21.25H0V22.75H5.93359V21.25ZM0.71329 22.2318L7.23477 2.16146L5.80819 1.69792L-0.71329 21.7682L0.71329 22.2318ZM6.52148 2.67969H13.7266V1.17969H6.52148V2.67969ZM13.0141 2.16409L19.6176 22.2344L21.0425 21.7656L14.439 1.69528L13.0141 2.16409ZM20.3301 21.25H14.4238V22.75H20.3301V21.25ZM13.0438 13.6338L12.1825 10.3525L10.7316 10.7334L11.5929 14.0146L13.0438 13.6338ZM12.1802 10.3441C11.9817 9.62219 11.737 8.68458 11.446 7.52964L9.99148 7.89614C10.2838 9.05631 10.5314 10.0054 10.7339 10.7418L12.1802 10.3441ZM11.4474 7.53504C11.1649 6.37802 10.9829 5.5677 10.8961 5.09045L9.4203 5.35877C9.51582 5.88412 9.70746 6.73266 9.99014 7.89074L11.4474 7.53504ZM9.41962 5.09427C9.34129 5.5381 9.18118 6.28703 8.93522 7.35284L10.3968 7.69013C10.643 6.62313 10.8111 5.8408 10.8968 5.35495L9.41962 5.09427ZM8.93388 7.35879C8.70068 8.40817 8.17138 10.4947 7.34135 13.6324L8.79147 14.016C9.62028 10.8829 10.1574 8.76761 10.3982 7.68418L8.93388 7.35879ZM8.06641 14.5742H12.3184V13.0742H8.06641V14.5742ZM31.9648 22H31.2148V22.75H31.9648V22ZM31.5137 11.2266L30.857 11.5889L30.8607 11.5956L30.8646 11.6023L31.5137 11.2266ZM28.1367 11.5137L27.4815 11.1487L28.1367 11.5137ZM27.5352 22V22.75H28.2852V22H27.5352ZM22.1895 22H21.4395V22.75H22.1895V22ZM22.1895 6.50977V5.75977H21.4395V6.50977H22.1895ZM26.2227 6.50977L26.9305 6.262L26.7548 5.75977H26.2227V6.50977ZM26.8926 8.42383L26.1847 8.67159L26.3605 9.17383H26.8926V8.42383ZM27.207 8.42383V9.17383H27.6227L27.843 8.82133L27.207 8.42383ZM29.0938 6.7832L28.7863 6.09911L28.7834 6.10043L29.0938 6.7832ZM35.875 7.72656L35.3324 8.24431L35.3349 8.24689L35.875 7.72656ZM37.3105 22V22.75H38.0605V22H37.3105ZM32.7148 22V13.5508H31.2148V22H32.7148ZM32.7148 13.5508C32.7148 12.4716 32.5614 11.5395 32.1627 10.8508L30.8646 11.6023C31.0675 11.9527 31.2148 12.5701 31.2148 13.5508H32.7148ZM32.1704 10.8643C31.7332 10.072 30.9921 9.68359 30.0918 9.68359V11.1836C30.504 11.1836 30.7108 11.3239 30.857 11.5889L32.1704 10.8643ZM30.0918 9.68359C28.9489 9.68359 28.0296 10.1646 27.4815 11.1487L28.7919 11.8786C29.0459 11.4226 29.43 11.1836 30.0918 11.1836V9.68359ZM27.4815 11.1487C26.9799 12.0493 26.7852 13.4543 26.7852 15.2188H28.2852C28.2852 13.4832 28.4914 12.4182 28.7919 11.8786L27.4815 11.1487ZM26.7852 15.2188V22H28.2852V15.2188H26.7852ZM27.5352 21.25H22.1895V22.75H27.5352V21.25ZM22.9395 22V6.50977H21.4395V22H22.9395ZM22.1895 7.25977H26.2227V5.75977H22.1895V7.25977ZM25.5148 6.75753L26.1847 8.67159L27.6005 8.17607L26.9305 6.262L25.5148 6.75753ZM26.8926 9.17383H27.207V7.67383H26.8926V9.17383ZM27.843 8.82133C28.2186 8.22042 28.7327 7.77114 29.4041 7.46598L28.7834 6.10043C27.8506 6.52443 27.1069 7.1689 26.571 8.02633L27.843 8.82133ZM29.4012 7.46729C30.1 7.15322 30.9219 6.98633 31.8828 6.98633V5.48633C30.7474 5.48633 29.7099 5.68402 28.7863 6.09912L29.4012 7.46729ZM31.8828 6.98633C33.4454 6.98633 34.5594 7.4342 35.3324 8.2443L36.4176 7.20882C35.2947 6.03194 33.7473 5.48633 31.8828 5.48633V6.98633ZM35.3349 8.24689C36.1197 9.06164 36.5605 10.2513 36.5605 11.9238H38.0605C38.0605 9.98694 37.5444 8.37846 36.4151 7.20624L35.3349 8.24689ZM36.5605 11.9238V22H38.0605V11.9238H36.5605ZM37.3105 21.25H31.9648V22.75H37.3105V21.25ZM51.0508 22L50.38 22.3354L50.5873 22.75H51.0508V22ZM50.0254 19.9492L50.6962 19.6138L50.4889 19.1992H50.0254V19.9492ZM49.916 19.9492V19.1992H49.5573L49.3321 19.4785L49.916 19.9492ZM41.3711 20.9609L40.8296 21.4799L41.3711 20.9609ZM41.8359 13.5918L42.2654 14.2067L42.2686 14.2044L41.8359 13.5918ZM46.8262 12.2246L46.8024 11.4749L46.7917 11.4754L46.8262 12.2246ZM49.4102 12.1426L49.434 12.8922L50.1602 12.8691V12.1426H49.4102ZM43.2168 11.1582L42.5298 11.4591L42.8312 12.1471L43.5187 11.8447L43.2168 11.1582ZM41.6719 7.63086L41.3284 6.96413L40.7023 7.28665L40.9849 7.93175L41.6719 7.63086ZM53.1152 7.71289L52.6112 8.26827L52.6135 8.27036L53.1152 7.71289ZM54.7559 22V22.75H55.5059V22H54.7559ZM48.7402 17.8848L48.244 17.3224L48.2385 17.3273L48.7402 17.8848ZM49.4375 15.082H50.1875V14.298L49.4042 14.3328L49.4375 15.082ZM48.207 15.1367L48.2342 15.8863L48.2403 15.886L48.207 15.1367ZM51.7216 21.6646L50.6962 19.6138L49.3546 20.2846L50.38 22.3354L51.7216 21.6646ZM50.0254 19.1992H49.916V20.6992H50.0254V19.1992ZM49.3321 19.4785C48.6587 20.3139 48.0152 20.8303 47.4134 21.0945L48.0163 22.468C48.9093 22.0759 49.7332 21.371 50.4999 20.4199L49.3321 19.4785ZM47.4134 21.0945C46.7938 21.3665 45.9406 21.5234 44.8164 21.5234V23.0234C46.062 23.0234 47.1411 22.8522 48.0163 22.468L47.4134 21.0945ZM44.8164 21.5234C43.5178 21.5234 42.5814 21.1399 41.9126 20.442L40.8296 21.4799C41.8378 22.5319 43.1984 23.0234 44.8164 23.0234V21.5234ZM41.9126 20.442C41.2452 19.7456 40.8633 18.7237 40.8633 17.2695H39.3633C39.3633 18.9872 39.8199 20.4263 40.8296 21.4799L41.9126 20.442ZM40.8633 17.2695C40.8633 15.8149 41.3555 14.8421 42.2654 14.2067L41.4065 12.9769C40.0195 13.9456 39.3633 15.4247 39.3633 17.2695H40.8633ZM42.2686 14.2044C43.2523 13.5096 44.7527 13.0708 46.8607 12.9738L46.7917 11.4754C44.5429 11.5789 42.7165 12.0516 41.4032 12.9792L42.2686 14.2044ZM46.85 12.9742L49.434 12.8922L49.3864 11.393L46.8024 11.475L46.85 12.9742ZM50.1602 12.1426V11.9238H48.6602V12.1426H50.1602ZM50.1602 11.9238C50.1602 11.1729 49.9749 10.4714 49.4726 9.96178C48.9683 9.45017 48.2707 9.25977 47.5234 9.25977V10.7598C48.034 10.7598 48.2797 10.8884 48.4043 11.0148C48.5309 11.1432 48.6602 11.3987 48.6602 11.9238H50.1602ZM47.5234 9.25977C46.2416 9.25977 44.6946 9.68896 42.9149 10.4717L43.5187 11.8447C45.2208 11.0962 46.5448 10.7598 47.5234 10.7598V9.25977ZM43.9038 10.8573L42.3589 7.32997L40.9849 7.93175L42.5298 11.4591L43.9038 10.8573ZM42.0153 8.29759C43.6829 7.43857 45.8342 6.98633 48.5078 6.98633V5.48633C45.6762 5.48633 43.2703 5.96378 41.3284 6.96413L42.0153 8.29759ZM48.5078 6.98633C50.3757 6.98633 51.7074 7.44798 52.6112 8.26827L53.6193 7.15751C52.3538 6.00906 50.6139 5.48633 48.5078 5.48633V6.98633ZM52.6135 8.27036C53.5176 9.08402 54.0059 10.2395 54.0059 11.8418H55.5059C55.5059 9.90761 54.9004 8.31051 53.617 7.15542L52.6135 8.27036ZM54.0059 11.8418V22H55.5059V11.8418H54.0059ZM54.7559 21.25H51.0508V22.75H54.7559V21.25ZM47.0859 19.25C47.9071 19.25 48.6404 18.9837 49.242 18.4422L48.2385 17.3273C47.9286 17.6062 47.559 17.75 47.0859 17.75V19.25ZM49.2365 18.4471C49.8731 17.8854 50.1875 17.1423 50.1875 16.2852H48.6875C48.6875 16.7405 48.5371 17.0638 48.244 17.3224L49.2365 18.4471ZM50.1875 16.2852V15.082H48.6875V16.2852H50.1875ZM49.4042 14.3328L48.1737 14.3875L48.2403 15.886L49.4708 15.8313L49.4042 14.3328ZM48.1798 14.3872C47.2339 14.4215 46.3983 14.6135 45.7836 15.0658C45.1253 15.5501 44.8184 16.2592 44.8184 17.0781H46.3184C46.3184 16.6666 46.4512 16.4368 46.6725 16.274C46.9373 16.0792 47.421 15.9157 48.2342 15.8862L48.1798 14.3872ZM44.8184 17.0781C44.8184 17.6806 44.9815 18.2669 45.435 18.6918C45.8793 19.1081 46.4762 19.25 47.0859 19.25V17.75C46.684 17.75 46.5221 17.6549 46.4605 17.5972C46.4082 17.5482 46.3184 17.4235 46.3184 17.0781H44.8184ZM63.7383 22V22.75H64.4883V22H63.7383ZM58.3926 22H57.6426V22.75H58.3926V22ZM58.3926 0.726562V-0.0234375H57.6426V0.726562H58.3926ZM63.7383 0.726562H64.4883V-0.0234375H63.7383V0.726562ZM63.7383 21.25H58.3926V22.75H63.7383V21.25ZM59.1426 22V0.726562H57.6426V22H59.1426ZM58.3926 1.47656H63.7383V-0.0234375H58.3926V1.47656ZM62.9883 0.726562V22H64.4883V0.726562H62.9883ZM65.5703 6.50977V5.75977H64.4633L64.8738 6.78788L65.5703 6.50977ZM71.2031 6.50977L71.9224 6.2973L71.7636 5.75977H71.2031V6.50977ZM73.8281 15.3965L74.5514 15.1979L74.5495 15.191L74.5474 15.184L73.8281 15.3965ZM74.0879 17.0781L73.3397 17.1301L73.3882 17.8281H74.0879V17.0781ZM74.1973 17.0781V17.8281H74.8653L74.9423 17.1645L74.1973 17.0781ZM74.5254 15.4238L75.2422 15.6444L75.2433 15.6408L74.5254 15.4238ZM77.2188 6.50977V5.75977H76.6619L76.5008 6.29284L77.2188 6.50977ZM82.6738 6.50977L83.3768 6.77112L83.7528 5.75977H82.6738V6.50977ZM76.5488 22.9844L77.2513 23.247L77.2518 23.2457L76.5488 22.9844ZM73.6504 27.4277L73.1989 26.8289L73.1966 26.8306L73.6504 27.4277ZM66.9922 28.4941H66.2422V29.1046L66.8399 29.2285L66.9922 28.4941ZM66.9922 24.2969L67.1578 23.5654L66.2422 23.3581V24.2969H66.9922ZM70.8203 23.4082L70.2362 22.9377L70.23 22.9455L70.8203 23.4082ZM71.668 21.7812L72.3649 22.0583L72.4753 21.7807L72.3645 21.5031L71.668 21.7812ZM65.5703 7.25977H71.2031V5.75977H65.5703V7.25977ZM70.4838 6.72223L73.1088 15.6089L74.5474 15.184L71.9224 6.2973L70.4838 6.72223ZM73.1049 15.595C73.2156 15.9982 73.2964 16.5068 73.3397 17.1301L74.8361 17.0262C74.7882 16.3369 74.6959 15.7244 74.5514 15.1979L73.1049 15.595ZM74.0879 17.8281H74.1973V16.3281H74.0879V17.8281ZM74.9423 17.1645C75.0113 16.5693 75.113 16.0645 75.2422 15.6444L73.8086 15.2033C73.6462 15.7311 73.5291 16.3292 73.4523 16.9917L74.9423 17.1645ZM75.2433 15.6408L77.9367 6.72669L76.5008 6.29284L73.8074 15.2069L75.2433 15.6408ZM77.2188 7.25977H82.6738V5.75977H77.2188V7.25977ZM81.9708 6.24841L75.8458 22.723L77.2518 23.2457L83.3768 6.77112L81.9708 6.24841ZM75.8463 22.7217C75.0869 24.7528 74.1865 26.0842 73.1989 26.8289L74.1019 28.0266C75.4112 27.0395 76.4431 25.4086 77.2513 23.247L75.8463 22.7217ZM73.1966 26.8306C72.221 27.5721 70.9042 27.9766 69.1797 27.9766V29.4766C71.1374 29.4766 72.8012 29.0152 74.1042 28.0249L73.1966 26.8306ZM69.1797 27.9766C68.5235 27.9766 67.8454 27.9051 67.1444 27.7598L66.8399 29.2285C67.6338 29.3931 68.414 29.4766 69.1797 29.4766V27.9766ZM67.7422 28.4941V24.2969H66.2422V28.4941H67.7422ZM66.8266 25.0284C67.3755 25.1527 67.9842 25.2109 68.6465 25.2109V23.7109C68.0692 23.7109 67.575 23.6598 67.1578 23.5654L66.8266 25.0284ZM68.6465 25.2109C69.2174 25.2109 69.7534 25.1007 70.2329 24.8549L69.5484 23.5201C69.3169 23.6389 69.0235 23.7109 68.6465 23.7109V25.2109ZM70.2329 24.8549C70.6917 24.6195 71.0843 24.2872 71.4106 23.8709L70.23 22.9455C70.0277 23.2037 69.8005 23.3909 69.5484 23.5201L70.2329 24.8549ZM71.4044 23.8787C71.7414 23.4604 72.0572 22.8324 72.3649 22.0583L70.971 21.5042C70.6772 22.2431 70.4279 22.6998 70.2362 22.9377L71.4044 23.8787ZM72.3645 21.5031L66.2668 6.23165L64.8738 6.78788L70.9714 22.0594L72.3645 21.5031ZM94.7051 17.5156H95.4551V16.454L94.4545 16.8087L94.7051 17.5156ZM94.7051 21.4121L95.0016 22.101L95.4551 21.9058V21.4121H94.7051ZM92.6406 22.0684L92.4975 21.3321L92.4856 21.3346L92.6406 22.0684ZM86.4746 20.9609L85.9163 21.4617L85.9189 21.4646L86.4746 20.9609ZM85.2852 10.5156H86.0352V9.76562H85.2852V10.5156ZM83.4121 10.5156H82.6621V11.2656H83.4121V10.5156ZM83.4121 8.3418L82.9792 7.72936L82.6621 7.9535V8.3418H83.4121ZM85.791 6.66016L86.2239 7.27259L86.3981 7.14948L86.4814 6.95314L85.791 6.66016ZM87.1719 3.40625V2.65625H86.6754L86.4815 3.11326L87.1719 3.40625ZM90.6719 3.40625H91.4219V2.65625H90.6719V3.40625ZM90.6719 6.50977H89.9219V7.25977H90.6719V6.50977ZM94.4727 6.50977H95.2227V5.75977H94.4727V6.50977ZM94.4727 10.5156V11.2656H95.2227V10.5156H94.4727ZM90.6719 10.5156V9.76562H89.9219V10.5156H90.6719ZM92.1211 18.7988C92.9569 18.7988 93.9074 18.5942 94.9557 18.2225L94.4545 16.8087C93.4976 17.148 92.7254 17.2988 92.1211 17.2988V18.7988ZM93.9551 17.5156V21.4121H95.4551V17.5156H93.9551ZM94.4086 20.7232C93.7296 21.0154 93.093 21.2164 92.4975 21.3321L92.7838 22.8046C93.5008 22.6652 94.2405 22.4286 95.0016 22.101L94.4086 20.7232ZM92.4856 21.3346C91.9027 21.4577 91.1959 21.5234 90.3574 21.5234V23.0234C91.2689 23.0234 92.0843 22.9525 92.7957 22.8022L92.4856 21.3346ZM90.3574 21.5234C88.6636 21.5234 87.6211 21.1091 87.0303 20.4573L85.9189 21.4646C86.9141 22.5627 88.4601 23.0234 90.3574 23.0234V21.5234ZM87.0329 20.4602C86.4149 19.7711 86.0352 18.6338 86.0352 16.9004H84.5352C84.5352 18.8129 84.9484 20.3826 85.9163 21.4617L87.0329 20.4602ZM86.0352 16.9004V10.5156H84.5352V16.9004H86.0352ZM85.2852 9.76562H83.4121V11.2656H85.2852V9.76562ZM84.1621 10.5156V8.3418H82.6621V10.5156H84.1621ZM83.845 8.95423L86.2239 7.27259L85.3581 6.04772L82.9792 7.72936L83.845 8.95423ZM86.4814 6.95314L87.8623 3.69924L86.4815 3.11326L85.1006 6.36717L86.4814 6.95314ZM87.1719 4.15625H90.6719V2.65625H87.1719V4.15625ZM89.9219 3.40625V6.50977H91.4219V3.40625H89.9219ZM90.6719 7.25977H94.4727V5.75977H90.6719V7.25977ZM93.7227 6.50977V10.5156H95.2227V6.50977H93.7227ZM94.4727 9.76562H90.6719V11.2656H94.4727V9.76562ZM89.9219 10.5156V16.5449H91.4219V10.5156H89.9219ZM89.9219 16.5449C89.9219 17.155 90.0685 17.7516 90.4941 18.1933C90.9247 18.6401 91.5152 18.7988 92.1211 18.7988V17.2988C91.7608 17.2988 91.6267 17.2069 91.5742 17.1524C91.5168 17.0928 91.4219 16.9374 91.4219 16.5449H89.9219ZM102.785 22V22.75H103.535V22H102.785ZM97.4395 22H96.6895V22.75H97.4395V22ZM97.4395 6.50977V5.75977H96.6895V6.50977H97.4395ZM102.785 6.50977H103.535V5.75977H102.785V6.50977ZM102.307 0.876953L101.811 1.43999L102.307 0.876953ZM102.785 21.25H97.4395V22.75H102.785V21.25ZM98.1895 22V6.50977H96.6895V22H98.1895ZM97.4395 7.25977H102.785V5.75977H97.4395V7.25977ZM102.035 6.50977V22H103.535V6.50977H102.035ZM98.0527 2.6543C98.0527 1.98876 98.2344 1.63143 98.4673 1.427L97.478 0.299562C96.8177 0.878983 96.5527 1.71567 96.5527 2.6543H98.0527ZM98.4673 1.427C98.7109 1.21326 99.208 1.02539 100.133 1.02539V-0.474609C99.0707 -0.474609 98.1276 -0.270549 97.478 0.299562L98.4673 1.427ZM100.133 1.02539C101.053 1.02539 101.556 1.21579 101.811 1.43999L102.802 0.313918C102.145 -0.263967 101.2 -0.474609 100.133 -0.474609V1.02539ZM101.811 1.43999C102.061 1.65969 102.24 2.01902 102.24 2.6543H103.74C103.74 1.72186 103.464 0.896296 102.802 0.313918L101.811 1.43999ZM102.24 2.6543C102.24 3.27984 102.057 3.62656 101.799 3.83886C101.513 4.07419 101.001 4.25586 100.133 4.25586V5.75586C101.169 5.75586 102.086 5.5456 102.752 4.99708C103.447 4.42552 103.74 3.59646 103.74 2.6543H102.24ZM100.133 4.25586C99.2747 4.25586 98.7707 4.07474 98.4896 3.84112C98.235 3.6296 98.0527 3.28223 98.0527 2.6543H96.5527C96.5527 3.59407 96.8421 4.42248 97.5309 4.99482C98.1931 5.54505 99.1042 5.75586 100.133 5.75586V4.25586ZM107.803 20.2227L107.26 20.7402L107.262 20.7421L107.803 20.2227ZM107.967 8.35547L107.436 7.82514L107.967 8.35547ZM119.068 7.41211L119.765 7.68941L120.021 7.04639L119.401 6.73975L119.068 7.41211ZM117.496 11.3633L117.196 12.0506L117.906 12.3608L118.193 11.6406L117.496 11.3633ZM115.705 10.6934L115.479 11.4084L115.49 11.4117L115.705 10.6934ZM111.986 11.4453L112.6 11.8765L111.986 11.4453ZM118.535 16.6543H119.285V15.292L118.134 16.0206L118.535 16.6543ZM118.535 20.9062L118.949 21.5316L119.285 21.3091V20.9062H118.535ZM113.572 21.5234C111.171 21.5234 109.472 20.8785 108.344 19.7033L107.262 20.7421C108.758 22.3012 110.906 23.0234 113.572 23.0234V21.5234ZM108.346 19.7051C107.217 18.5209 106.598 16.7685 106.598 14.3301H105.098C105.098 17.0141 105.782 19.19 107.26 20.7402L108.346 19.7051ZM106.598 14.3301C106.598 11.8991 107.262 10.1207 108.497 8.8858L107.436 7.82514C105.846 9.41574 105.098 11.6205 105.098 14.3301H106.598ZM108.497 8.8858C109.73 7.65278 111.525 6.98633 113.996 6.98633V5.48633C111.254 5.48633 109.029 6.23264 107.436 7.82514L108.497 8.8858ZM113.996 6.98633C115.678 6.98633 117.255 7.35247 118.736 8.08447L119.401 6.73975C117.71 5.90404 115.905 5.48633 113.996 5.48633V6.98633ZM118.372 7.13481L116.799 11.086L118.193 11.6406L119.765 7.68941L118.372 7.13481ZM117.796 10.6759C117.128 10.384 116.502 10.1494 115.921 9.97499L115.49 11.4117C116.002 11.5654 116.57 11.7774 117.196 12.0506L117.796 10.6759ZM115.931 9.97835C115.309 9.78123 114.663 9.68359 113.996 9.68359V11.1836C114.514 11.1836 115.007 11.2591 115.479 11.4084L115.931 9.97835ZM113.996 9.68359C112.901 9.68359 111.995 10.1282 111.373 11.0141L112.6 11.8765C112.925 11.4135 113.36 11.1836 113.996 11.1836V9.68359ZM111.373 11.0141C110.776 11.8631 110.525 12.9898 110.525 14.3027H112.025C112.025 13.1547 112.249 12.3765 112.6 11.8765L111.373 11.0141ZM110.525 14.3027C110.525 15.6127 110.764 16.7314 111.359 17.5375C111.986 18.3861 112.92 18.7715 114.023 18.7715V17.2715C113.295 17.2715 112.855 17.0371 112.566 16.6461C112.245 16.2126 112.025 15.4719 112.025 14.3027H110.525ZM114.023 18.7715C115.745 18.7715 117.387 18.2686 118.936 17.288L118.134 16.0206C116.803 16.863 115.437 17.2715 114.023 17.2715V18.7715ZM117.785 16.6543V20.9062H119.285V16.6543H117.785ZM118.121 20.2809C116.887 21.098 115.383 21.5234 113.572 21.5234V23.0234C115.626 23.0234 117.43 22.5374 118.949 21.5316L118.121 20.2809ZM124.018 22.082L124.129 21.3403L124.121 21.3393L124.018 22.082ZM121.42 21.4121H120.67V21.9337L121.159 22.1152L121.42 21.4121ZM121.42 17.1328L121.722 16.4462L120.67 15.9839V17.1328H121.42ZM124.141 18.0352L123.965 18.7643L123.967 18.7647L124.141 18.0352ZM128.037 16.873L127.613 17.4916L127.623 17.4985L127.633 17.5051L128.037 16.873ZM125.221 15.6152L124.936 16.3092L124.944 16.3122L125.221 15.6152ZM122.24 13.6328L121.642 14.0852L121.645 14.0887L122.24 13.6328ZM123.061 7.43945L123.499 8.04773L123.061 7.43945ZM130.648 6.57812L130.463 7.3049L130.472 7.30701L130.648 6.57812ZM133.451 7.54883L134.143 7.83963L134.428 7.16143L133.755 6.8632L133.451 7.54883ZM132.002 10.9941L131.695 11.6784L132.396 11.9928L132.693 11.2849L132.002 10.9941ZM129.746 10.1875L129.539 10.9084L129.547 10.9105L129.746 10.1875ZM126.943 11.1719L126.541 11.8046L126.552 11.8117L126.563 11.8183L126.943 11.1719ZM129.596 12.3066L129.881 11.613L129.87 11.6088L129.596 12.3066ZM132.016 13.6191L131.543 14.2019L131.548 14.2058L132.016 13.6191ZM133.191 15.1367L132.5 15.4282L132.503 15.4348L132.506 15.4413L133.191 15.1367ZM132.824 17.2422C132.824 18.7115 132.336 19.7217 131.429 20.402L132.329 21.602C133.682 20.5869 134.324 19.0906 134.324 17.2422H132.824ZM131.429 20.402C130.479 21.1145 129.041 21.5234 127.012 21.5234V23.0234C129.212 23.0234 131.019 22.5847 132.329 21.602L131.429 20.402ZM127.012 21.5234C125.889 21.5234 124.93 21.4609 124.129 21.3404L123.906 22.8237C124.801 22.9583 125.838 23.0234 127.012 23.0234V21.5234ZM124.121 21.3393C123.333 21.229 122.519 21.0201 121.681 20.709L121.159 22.1152C122.089 22.4603 123.007 22.6981 123.914 22.8248L124.121 21.3393ZM122.17 21.4121V17.1328H120.67V21.4121H122.17ZM121.118 17.8194C121.993 18.2038 122.942 18.5181 123.965 18.7643L124.316 17.306C123.37 17.0782 122.506 16.7909 121.722 16.4462L121.118 17.8194ZM123.967 18.7647C125 19.0112 125.944 19.1406 126.793 19.1406V17.6406C126.092 17.6406 125.268 17.533 124.315 17.3056L123.967 18.7647ZM126.793 19.1406C127.405 19.1406 127.969 19.0744 128.407 18.8746C128.635 18.7705 128.859 18.6162 129.027 18.3867C129.2 18.1492 129.279 17.8758 129.279 17.5977H127.779C127.779 17.5838 127.786 17.5418 127.815 17.5024C127.838 17.4712 127.845 17.4821 127.784 17.5102C127.642 17.5747 127.338 17.6406 126.793 17.6406V19.1406ZM129.279 17.5977C129.279 16.969 128.885 16.5248 128.441 16.241L127.633 17.5051C127.739 17.5724 127.777 17.6193 127.786 17.6328C127.79 17.6383 127.787 17.6359 127.784 17.6262C127.781 17.6161 127.779 17.6056 127.779 17.5977H129.279ZM128.461 16.2545C128.238 16.1015 127.864 15.9172 127.4 15.7097C126.917 15.4941 126.282 15.23 125.498 14.9183L124.944 16.3122C125.718 16.6203 126.332 16.8757 126.788 17.0793C127.262 17.2912 127.517 17.4259 127.613 17.4916L128.461 16.2545ZM125.505 14.9214C124.135 14.3591 123.283 13.7619 122.836 13.177L121.645 14.0887C122.327 14.9803 123.463 15.7047 124.936 16.3091L125.505 14.9214ZM122.838 13.1805C122.392 12.5895 122.143 11.8149 122.143 10.8027H120.643C120.643 12.0692 120.959 13.1814 121.642 14.0851L122.838 13.1805ZM122.143 10.8027C122.143 9.58933 122.594 8.70068 123.499 8.04773L122.622 6.83118C121.303 7.7824 120.643 9.13593 120.643 10.8027H122.143ZM123.499 8.04773C124.435 7.37256 125.83 6.98633 127.777 6.98633V5.48633C125.66 5.48633 123.91 5.90218 122.622 6.83118L123.499 8.04773ZM127.777 6.98633C128.742 6.98633 129.636 7.09399 130.463 7.30485L130.834 5.8514C129.874 5.60653 128.854 5.48633 127.777 5.48633V6.98633ZM130.472 7.30701C131.325 7.51385 132.217 7.82183 133.147 8.23445L133.755 6.8632C132.753 6.41906 131.777 6.0799 130.825 5.84924L130.472 7.30701ZM132.76 7.25803L131.311 10.7033L132.693 11.2849L134.143 7.83963L132.76 7.25803ZM132.309 10.3099C131.561 9.9744 130.773 9.69285 129.946 9.46451L129.547 10.9105C130.305 11.1197 131.021 11.3759 131.695 11.6784L132.309 10.3099ZM129.953 9.46667C129.13 9.23021 128.407 9.0957 127.805 9.0957V10.5957C128.205 10.5957 128.776 10.6891 129.539 10.9083L129.953 9.46667ZM127.805 9.0957C127.33 9.0957 126.864 9.1499 126.491 9.33274C126.293 9.42924 126.099 9.57313 125.954 9.78506C125.806 10.0025 125.742 10.2467 125.742 10.4883H127.242C127.242 10.5157 127.233 10.5725 127.194 10.6292C127.159 10.6805 127.128 10.6906 127.15 10.68C127.174 10.6681 127.235 10.645 127.351 10.6261C127.465 10.6075 127.615 10.5957 127.805 10.5957V9.0957ZM125.742 10.4883C125.742 11.0948 126.108 11.529 126.541 11.8046L127.346 10.5391C127.259 10.4835 127.233 10.4476 127.231 10.4443C127.23 10.4436 127.234 10.4493 127.238 10.4605C127.241 10.472 127.242 10.4821 127.242 10.4883H125.742ZM126.563 11.8183C126.936 12.0376 127.886 12.4396 129.321 13.0045L129.87 11.6088C128.388 11.0252 127.571 10.6707 127.324 10.5254L126.563 11.8183ZM129.31 13.0001C130.369 13.436 131.098 13.8407 131.543 14.2018L132.488 13.0364C131.876 12.5408 130.992 12.0705 129.881 11.6131L129.31 13.0001ZM131.548 14.2058C131.997 14.5629 132.307 14.9702 132.5 15.4282L133.882 14.8452C133.583 14.1366 133.11 13.5321 132.483 13.0325L131.548 14.2058ZM132.506 15.4413C132.707 15.8942 132.824 16.4857 132.824 17.2422H134.324C134.324 16.3398 134.186 15.5277 133.877 14.8321L132.506 15.4413ZM156.393 22L155.667 22.1906L155.814 22.75H156.393V22ZM155.408 18.2539L156.134 18.0633L155.987 17.5039H155.408V18.2539ZM148.914 18.2539V17.5039H148.34L148.19 18.0584L148.914 18.2539ZM147.902 22V22.75H148.477L148.626 22.1955L147.902 22ZM141.969 22L141.255 21.7682L140.936 22.75H141.969V22ZM148.49 1.92969V1.17969H147.945L147.777 1.69792L148.49 1.92969ZM155.695 1.92969L156.408 1.69528L156.238 1.17969H155.695V1.92969ZM162.299 22V22.75H163.335L163.011 21.7656L162.299 22ZM154.287 13.8242V14.5742H155.259L155.013 13.6338L154.287 13.8242ZM153.426 10.543L154.151 10.3525L154.149 10.3441L153.426 10.543ZM152.688 7.71289L151.959 7.89075L151.96 7.89614L152.688 7.71289ZM152.127 5.22461L152.865 5.09045L151.388 5.09427L152.127 5.22461ZM151.635 7.52148L150.904 7.35283L150.903 7.35879L151.635 7.52148ZM150.035 13.8242L149.31 13.6324L149.061 14.5742H150.035V13.8242ZM157.118 21.8094L156.134 18.0633L154.683 18.4445L155.667 22.1906L157.118 21.8094ZM155.408 17.5039H148.914V19.0039H155.408V17.5039ZM148.19 18.0584L147.178 21.8045L148.626 22.1955L149.638 18.4495L148.19 18.0584ZM147.902 21.25H141.969V22.75H147.902V21.25ZM142.682 22.2318L149.204 2.16146L147.777 1.69792L141.255 21.7682L142.682 22.2318ZM148.49 2.67969H155.695V1.17969H148.49V2.67969ZM154.983 2.16409L161.586 22.2344L163.011 21.7656L156.408 1.69528L154.983 2.16409ZM162.299 21.25H156.393V22.75H162.299V21.25ZM155.013 13.6338L154.151 10.3525L152.7 10.7334L153.562 14.0146L155.013 13.6338ZM154.149 10.3441C153.95 9.62219 153.706 8.68458 153.415 7.52964L151.96 7.89614C152.253 9.05631 152.5 10.0054 152.703 10.7418L154.149 10.3441ZM153.416 7.53504C153.134 6.37802 152.952 5.5677 152.865 5.09045L151.389 5.35877C151.485 5.88412 151.676 6.73266 151.959 7.89074L153.416 7.53504ZM151.388 5.09427C151.31 5.5381 151.15 6.28703 150.904 7.35284L152.366 7.69013C152.612 6.62313 152.78 5.8408 152.866 5.35495L151.388 5.09427ZM150.903 7.35879C150.669 8.40817 150.14 10.4947 149.31 13.6324L150.76 14.016C151.589 10.8829 152.126 8.76761 152.367 7.68418L150.903 7.35879ZM150.035 14.5742H154.287V13.0742H150.035V14.5742ZM175.191 22L174.483 22.2462L174.658 22.75H175.191V22ZM174.521 20.0723L175.23 19.8261L175.055 19.3223H174.521V20.0723ZM174.207 20.0723V19.3223H173.792L173.572 19.6733L174.207 20.0723ZM172.334 21.7129L172.654 22.3913L172.657 22.3898L172.334 21.7129ZM165.553 20.7969L165.01 21.3146L165.012 21.3171L165.553 20.7969ZM164.131 6.50977V5.75977H163.381V6.50977H164.131ZM169.477 6.50977H170.227V5.75977H169.477V6.50977ZM169.9 17.2695L169.241 17.6279L169.246 17.6367L169.9 17.2695ZM173.291 16.9688L173.95 17.3273L173.952 17.3238L173.291 16.9688ZM173.879 6.50977V5.75977H173.129V6.50977H173.879ZM179.225 6.50977H179.975V5.75977H179.225V6.50977ZM179.225 22V22.75H179.975V22H179.225ZM175.9 21.7538L175.23 19.8261L173.813 20.3185L174.483 22.2462L175.9 21.7538ZM174.521 19.3223H174.207V20.8223H174.521V19.3223ZM173.572 19.6733C173.205 20.2567 172.693 20.7107 172.011 21.036L172.657 22.3898C173.579 21.9495 174.315 21.3097 174.842 20.4712L173.572 19.6733ZM172.014 21.0345C171.341 21.3516 170.521 21.5234 169.531 21.5234V23.0234C170.693 23.0234 171.741 22.8216 172.654 22.3913L172.014 21.0345ZM169.531 21.5234C167.977 21.5234 166.866 21.0796 166.093 20.2766L165.012 21.3171C166.135 22.4829 167.677 23.0234 169.531 23.0234V21.5234ZM166.095 20.2791C165.318 19.4646 164.881 18.2739 164.881 16.5996H163.381C163.381 18.5346 163.891 20.1422 165.01 21.3146L166.095 20.2791ZM164.881 16.5996V6.50977H163.381V16.5996H164.881ZM164.131 7.25977H169.477V5.75977H164.131V7.25977ZM168.727 6.50977V14.9727H170.227V6.50977H168.727ZM168.727 14.9727C168.727 16.0319 168.871 16.9459 169.242 17.6279L170.559 16.9112C170.365 16.5541 170.227 15.9368 170.227 14.9727H168.727ZM169.246 17.6367C169.686 18.4205 170.428 18.7988 171.322 18.7988V17.2988C170.904 17.2988 170.698 17.1576 170.554 16.9024L169.246 17.6367ZM171.322 18.7988C172.476 18.7988 173.408 18.3227 173.95 17.3273L172.632 16.6102C172.39 17.0549 172.009 17.2988 171.322 17.2988V18.7988ZM173.952 17.3238C174.438 16.4196 174.629 15.031 174.629 13.291H173.129C173.129 14.9963 172.928 16.0596 172.63 16.6137L173.952 17.3238ZM174.629 13.291V6.50977H173.129V13.291H174.629ZM173.879 7.25977H179.225V5.75977H173.879V7.25977ZM178.475 6.50977V22H179.975V6.50977H178.475ZM179.225 21.25H175.191V22.75H179.225V21.25ZM184.83 21.3301L184.374 21.9253L184.377 21.9277L184.83 21.3301ZM182.916 18.5547L182.212 18.8123L182.213 18.8169L182.916 18.5547ZM190.203 6.75586L189.849 7.41712L189.853 7.41915L190.203 6.75586ZM191.994 8.50586L191.367 8.91705L191.589 9.25586H191.994V8.50586ZM192.104 8.50586V9.25586H192.968L192.846 8.39979L192.104 8.50586ZM191.844 0.726562V-0.0234375H191.094V0.726562H191.844ZM197.23 0.726562H197.98V-0.0234375H197.23V0.726562ZM197.23 22V22.75H197.98V22H197.23ZM193.197 22L192.551 22.3799L192.768 22.75H193.197V22ZM192.049 20.0449L192.696 19.6651L192.478 19.2949H192.049V20.0449ZM191.844 20.0449V19.2949H191.426L191.206 19.6499L191.844 20.0449ZM191.721 17.2422L191.095 16.8286L191.09 16.8361L191.721 17.2422ZM192.295 14.7539L193.045 14.7722L193.045 14.7631V14.7539H192.295ZM191.707 11.418L191.084 11.8362L191.088 11.8408L191.707 11.418ZM188.221 11.541L187.574 11.1604L187.573 11.1631L188.221 11.541ZM188.234 17.1055L188.871 16.7088L188.234 17.1055ZM187.729 21.5234C186.779 21.5234 185.974 21.2564 185.283 20.7325L184.377 21.9277C185.345 22.6616 186.472 23.0234 187.729 23.0234V21.5234ZM185.286 20.7349C184.604 20.2114 184.038 19.4161 183.619 18.2925L182.213 18.8169C182.706 20.136 183.416 21.1909 184.374 21.9253L185.286 20.7349ZM183.62 18.2971C183.211 17.1763 182.996 15.8405 182.996 14.2754H181.496C181.496 15.9733 181.728 17.4904 182.212 18.8123L183.62 18.2971ZM182.996 14.2754C182.996 11.8496 183.485 10.054 184.375 8.80396L183.153 7.93432C182.019 9.52806 181.496 11.6699 181.496 14.2754H182.996ZM184.375 8.80396C185.244 7.58293 186.404 6.98633 187.934 6.98633V5.48633C185.926 5.48633 184.307 6.3116 183.153 7.93432L184.375 8.80396ZM187.934 6.98633C188.698 6.98633 189.329 7.13866 189.849 7.41711L190.557 6.09461C189.783 5.68035 188.901 5.48633 187.934 5.48633V6.98633ZM189.853 7.41915C190.367 7.69024 190.877 8.16986 191.367 8.91705L192.621 8.09467C192.036 7.20123 191.352 6.51419 190.553 6.09257L189.853 7.41915ZM191.994 9.25586H192.104V7.75586H191.994V9.25586ZM192.846 8.39979C192.678 7.22233 192.594 6.04553 192.594 4.86914H191.094C191.094 6.11723 191.183 7.36491 191.361 8.61193L192.846 8.39979ZM192.594 4.86914V0.726562H191.094V4.86914H192.594ZM191.844 1.47656H197.23V-0.0234375H191.844V1.47656ZM196.48 0.726562V22H197.98V0.726562H196.48ZM197.23 21.25H193.197V22.75H197.23V21.25ZM193.844 21.6201L192.696 19.6651L191.402 20.4248L192.551 22.3799L193.844 21.6201ZM192.049 19.2949H191.844V20.7949H192.049V19.2949ZM191.206 19.6499C190.429 20.9036 189.305 21.5234 187.729 21.5234V23.0234C189.798 23.0234 191.417 22.1576 192.481 20.44L191.206 19.6499ZM189.916 18.7988C190.931 18.7988 191.822 18.4705 192.351 17.6483L191.09 16.8361C190.927 17.0894 190.614 17.2988 189.916 17.2988V18.7988ZM192.346 17.6558C192.818 16.9424 193.016 15.9428 193.045 14.7722L191.545 14.7356C191.519 15.8072 191.334 16.4664 191.095 16.8286L192.346 17.6558ZM193.045 14.7539V14.3301H191.545V14.7539H193.045ZM193.045 14.3301C193.045 12.9338 192.853 11.7664 192.326 10.9952L191.088 11.8408C191.345 12.2179 191.545 12.992 191.545 14.3301H193.045ZM192.33 10.9997C191.77 10.1669 190.894 9.79297 189.861 9.79297V11.293C190.506 11.293 190.86 11.5024 191.084 11.8362L192.33 10.9997ZM189.861 9.79297C188.863 9.79297 188.085 10.2939 187.574 11.1604L188.867 11.9217C189.14 11.4574 189.456 11.293 189.861 11.293V9.79297ZM187.573 11.1631C187.094 11.9838 186.896 13.076 186.896 14.3574H188.396C188.396 13.1962 188.582 12.4108 188.869 11.9189L187.573 11.1631ZM186.896 14.3574C186.896 15.6218 187.099 16.7014 187.598 17.5021L188.871 16.7088C188.586 16.2517 188.396 15.4993 188.396 14.3574H186.896ZM187.598 17.5021C188.124 18.3464 188.923 18.7988 189.916 18.7988V17.2988C189.451 17.2988 189.129 17.1223 188.871 16.7088L187.598 17.5021ZM206.309 22V22.75H207.059V22H206.309ZM200.963 22H200.213V22.75H200.963V22ZM200.963 6.50977V5.75977H200.213V6.50977H200.963ZM206.309 6.50977H207.059V5.75977H206.309V6.50977ZM205.83 0.876953L205.335 1.43999L205.83 0.876953ZM206.309 21.25H200.963V22.75H206.309V21.25ZM201.713 22V6.50977H200.213V22H201.713ZM200.963 7.25977H206.309V5.75977H200.963V7.25977ZM205.559 6.50977V22H207.059V6.50977H205.559ZM201.576 2.6543C201.576 1.98876 201.758 1.63143 201.991 1.427L201.001 0.299562C200.341 0.878983 200.076 1.71567 200.076 2.6543H201.576ZM201.991 1.427C202.234 1.21326 202.731 1.02539 203.656 1.02539V-0.474609C202.594 -0.474609 201.651 -0.270549 201.001 0.299562L201.991 1.427ZM203.656 1.02539C204.576 1.02539 205.08 1.21579 205.335 1.43999L206.326 0.313918C205.669 -0.263967 204.723 -0.474609 203.656 -0.474609V1.02539ZM205.335 1.43999C205.584 1.65969 205.764 2.01902 205.764 2.6543H207.264C207.264 1.72186 206.987 0.896296 206.326 0.313918L205.335 1.43999ZM205.764 2.6543C205.764 3.27984 205.581 3.62656 205.323 3.83886C205.037 4.07419 204.525 4.25586 203.656 4.25586V5.75586C204.693 5.75586 205.609 5.5456 206.276 4.99708C206.97 4.42552 207.264 3.59646 207.264 2.6543H205.764ZM203.656 4.25586C202.798 4.25586 202.294 4.07474 202.013 3.84112C201.758 3.6296 201.576 3.28223 201.576 2.6543H200.076C200.076 3.59407 200.366 4.42248 201.054 4.99482C201.717 5.54505 202.628 5.75586 203.656 5.75586V4.25586ZM220.213 17.5156H220.963V16.454L219.962 16.8087L220.213 17.5156ZM220.213 21.4121L220.509 22.101L220.963 21.9058V21.4121H220.213ZM218.148 22.0684L218.005 21.3321L217.993 21.3346L218.148 22.0684ZM211.982 20.9609L211.424 21.4617L211.427 21.4646L211.982 20.9609ZM210.793 10.5156H211.543V9.76562H210.793V10.5156ZM208.92 10.5156H208.17V11.2656H208.92V10.5156ZM208.92 8.3418L208.487 7.72936L208.17 7.9535V8.3418H208.92ZM211.299 6.66016L211.732 7.27259L211.906 7.14948L211.989 6.95314L211.299 6.66016ZM212.68 3.40625V2.65625H212.183L211.989 3.11326L212.68 3.40625ZM216.18 3.40625H216.93V2.65625H216.18V3.40625ZM216.18 6.50977H215.43V7.25977H216.18V6.50977ZM219.98 6.50977H220.73V5.75977H219.98V6.50977ZM219.98 10.5156V11.2656H220.73V10.5156H219.98ZM216.18 10.5156V9.76562H215.43V10.5156H216.18ZM217.629 18.7988C218.465 18.7988 219.415 18.5942 220.464 18.2225L219.962 16.8087C219.005 17.148 218.233 17.2988 217.629 17.2988V18.7988ZM219.463 17.5156V21.4121H220.963V17.5156H219.463ZM219.916 20.7232C219.237 21.0154 218.601 21.2164 218.005 21.3321L218.292 22.8046C219.009 22.6652 219.748 22.4286 220.509 22.101L219.916 20.7232ZM217.993 21.3346C217.411 21.4577 216.704 21.5234 215.865 21.5234V23.0234C216.777 23.0234 217.592 22.9525 218.303 22.8022L217.993 21.3346ZM215.865 21.5234C214.171 21.5234 213.129 21.1091 212.538 20.4573L211.427 21.4646C212.422 22.5627 213.968 23.0234 215.865 23.0234V21.5234ZM212.541 20.4602C211.923 19.7711 211.543 18.6338 211.543 16.9004H210.043C210.043 18.8129 210.456 20.3826 211.424 21.4617L212.541 20.4602ZM211.543 16.9004V10.5156H210.043V16.9004H211.543ZM210.793 9.76562H208.92V11.2656H210.793V9.76562ZM209.67 10.5156V8.3418H208.17V10.5156H209.67ZM209.353 8.95423L211.732 7.27259L210.866 6.04772L208.487 7.72936L209.353 8.95423ZM211.989 6.95314L213.37 3.69924L211.989 3.11326L210.608 6.36717L211.989 6.95314ZM212.68 4.15625H216.18V2.65625H212.68V4.15625ZM215.43 3.40625V6.50977H216.93V3.40625H215.43ZM216.18 7.25977H219.98V5.75977H216.18V7.25977ZM219.23 6.50977V10.5156H220.73V6.50977H219.23ZM219.98 9.76562H216.18V11.2656H219.98V9.76562ZM215.43 10.5156V16.5449H216.93V10.5156H215.43ZM215.43 16.5449C215.43 17.155 215.576 17.7516 216.002 18.1933C216.433 18.6401 217.023 18.7988 217.629 18.7988V17.2988C217.269 17.2988 217.135 17.2069 217.082 17.1524C217.025 17.0928 216.93 16.9374 216.93 16.5449H215.43ZM225.326 22.082L225.438 21.3403L225.43 21.3393L225.326 22.082ZM222.729 21.4121H221.979V21.9337L222.468 22.1152L222.729 21.4121ZM222.729 17.1328L223.03 16.4462L221.979 15.9839V17.1328H222.729ZM225.449 18.0352L225.274 18.7643L225.275 18.7647L225.449 18.0352ZM229.346 16.873L228.922 17.4916L228.932 17.4985L228.942 17.5051L229.346 16.873ZM226.529 15.6152L226.245 16.3092L226.252 16.3122L226.529 15.6152ZM223.549 13.6328L222.951 14.0852L222.953 14.0887L223.549 13.6328ZM224.369 7.43945L224.808 8.04773L224.369 7.43945ZM231.957 6.57812L231.772 7.3049L231.78 7.30701L231.957 6.57812ZM234.76 7.54883L235.451 7.83963L235.736 7.16143L235.064 6.8632L234.76 7.54883ZM233.311 10.9941L233.004 11.6784L233.704 11.9928L234.002 11.2849L233.311 10.9941ZM231.055 10.1875L230.848 10.9084L230.855 10.9105L231.055 10.1875ZM228.252 11.1719L227.849 11.8046L227.86 11.8117L227.872 11.8183L228.252 11.1719ZM230.904 12.3066L231.19 11.613L231.179 11.6088L230.904 12.3066ZM233.324 13.6191L232.852 14.2019L232.857 14.2058L233.324 13.6191ZM234.5 15.1367L233.809 15.4282L233.812 15.4348L233.815 15.4413L234.5 15.1367ZM234.133 17.2422C234.133 18.7115 233.644 19.7217 232.738 20.402L233.637 21.602C234.991 20.5869 235.633 19.0906 235.633 17.2422H234.133ZM232.738 20.402C231.787 21.1145 230.349 21.5234 228.32 21.5234V23.0234C230.52 23.0234 232.327 22.5847 233.637 21.602L232.738 20.402ZM228.32 21.5234C227.198 21.5234 226.239 21.4609 225.438 21.3404L225.215 22.8237C226.109 22.9583 227.146 23.0234 228.32 23.0234V21.5234ZM225.43 21.3393C224.641 21.229 223.828 21.0201 222.989 20.709L222.468 22.1152C223.397 22.4603 224.316 22.6981 225.222 22.8248L225.43 21.3393ZM223.479 21.4121V17.1328H221.979V21.4121H223.479ZM222.427 17.8194C223.301 18.2038 224.251 18.5181 225.274 18.7643L225.625 17.306C224.679 17.0782 223.815 16.7909 223.03 16.4462L222.427 17.8194ZM225.275 18.7647C226.309 19.0112 227.253 19.1406 228.102 19.1406V17.6406C227.401 17.6406 226.577 17.533 225.623 17.3056L225.275 18.7647ZM228.102 19.1406C228.714 19.1406 229.278 19.0744 229.715 18.8746C229.943 18.7705 230.168 18.6162 230.335 18.3867C230.509 18.1492 230.588 17.8758 230.588 17.5977H229.088C229.088 17.5838 229.095 17.5418 229.124 17.5024C229.146 17.4712 229.154 17.4821 229.092 17.5102C228.951 17.5747 228.647 17.6406 228.102 17.6406V19.1406ZM230.588 17.5977C230.588 16.969 230.194 16.5248 229.749 16.241L228.942 17.5051C229.047 17.5724 229.085 17.6193 229.094 17.6328C229.098 17.6383 229.096 17.6359 229.093 17.6262C229.089 17.6161 229.088 17.6056 229.088 17.5977H230.588ZM229.77 16.2545C229.547 16.1015 229.173 15.9172 228.708 15.7097C228.225 15.4941 227.59 15.23 226.806 14.9183L226.252 16.3122C227.027 16.6203 227.641 16.8757 228.097 17.0793C228.571 17.2912 228.826 17.4259 228.922 17.4916L229.77 16.2545ZM226.814 14.9214C225.443 14.3591 224.592 13.7619 224.144 13.177L222.953 14.0887C223.636 14.9803 224.771 15.7047 226.245 16.3091L226.814 14.9214ZM224.147 13.1805C223.7 12.5895 223.451 11.8149 223.451 10.8027H221.951C221.951 12.0692 222.267 13.1814 222.951 14.0851L224.147 13.1805ZM223.451 10.8027C223.451 9.58933 223.903 8.70068 224.808 8.04773L223.93 6.83118C222.612 7.7824 221.951 9.13593 221.951 10.8027H223.451ZM224.808 8.04773C225.744 7.37256 227.139 6.98633 229.086 6.98633V5.48633C226.968 5.48633 225.218 5.90218 223.93 6.83118L224.808 8.04773ZM229.086 6.98633C230.051 6.98633 230.945 7.09399 231.772 7.30485L232.142 5.8514C231.183 5.60653 230.163 5.48633 229.086 5.48633V6.98633ZM231.78 7.30701C232.634 7.51385 233.525 7.82183 234.456 8.23445L235.064 6.8632C234.062 6.41906 233.085 6.0799 232.134 5.84924L231.78 7.30701ZM234.068 7.25803L232.619 10.7033L234.002 11.2849L235.451 7.83963L234.068 7.25803ZM233.618 10.3099C232.87 9.9744 232.082 9.69285 231.254 9.46451L230.855 10.9105C231.613 11.1197 232.329 11.3759 233.004 11.6784L233.618 10.3099ZM231.262 9.46667C230.439 9.23021 229.715 9.0957 229.113 9.0957V10.5957C229.514 10.5957 230.085 10.6891 230.848 10.9083L231.262 9.46667ZM229.113 9.0957C228.639 9.0957 228.173 9.1499 227.799 9.33274C227.602 9.42924 227.407 9.57313 227.263 9.78506C227.115 10.0025 227.051 10.2467 227.051 10.4883H228.551C228.551 10.5157 228.541 10.5725 228.503 10.6292C228.468 10.6805 228.437 10.6906 228.459 10.68C228.483 10.6681 228.544 10.645 228.66 10.6261C228.774 10.6075 228.923 10.5957 229.113 10.5957V9.0957ZM227.051 10.4883C227.051 11.0948 227.416 11.529 227.849 11.8046L228.655 10.5391C228.567 10.4835 228.542 10.4476 228.54 10.4443C228.539 10.4436 228.543 10.4493 228.546 10.4605C228.55 10.472 228.551 10.4821 228.551 10.4883H227.051ZM227.872 11.8183C228.245 12.0376 229.195 12.4396 230.63 13.0045L231.179 11.6088C229.697 11.0252 228.879 10.6707 228.632 10.5254L227.872 11.8183ZM230.619 13.0001C231.677 13.436 232.406 13.8407 232.852 14.2018L233.796 13.0364C233.185 12.5408 232.301 12.0705 231.19 11.6131L230.619 13.0001ZM232.857 14.2058C233.305 14.5629 233.616 14.9702 233.809 15.4282L235.191 14.8452C234.892 14.1366 234.419 13.5321 233.792 13.0325L232.857 14.2058ZM233.815 15.4413C234.016 15.8942 234.133 16.4857 234.133 17.2422H235.633C235.633 16.3398 235.494 15.5277 235.185 14.8321L233.815 15.4413Z" fill="#7B838D"/>
</svg>
