<svg width="209" height="29" viewBox="0 0 209 29" fill="none" xmlns="http://www.w3.org/2000/svg">
<path d="M0.160156 2.01172V1.26172H-0.589844V2.01172H0.160156ZM13.1758 3.22852L12.7815 3.86652L12.7867 3.86968L13.1758 3.22852ZM12.0273 11.3906L11.8504 10.6618L11.2773 10.8009V11.3906H12.0273ZM12.0273 11.5273H11.2773V12.1046L11.8354 12.2524L12.0273 11.5273ZM13.5039 20.4414L13.9596 21.0371L13.9602 21.0366L13.5039 20.4414ZM0.160156 22H-0.589844V22.75H0.160156V22ZM5.56055 9.68164H4.81055V10.4316H5.56055V9.68164ZM8.97852 9.20312L8.53054 8.60156L8.52437 8.60625L8.97852 9.20312ZM5.56055 6.09961V5.34961H4.81055V6.09961H5.56055ZM5.56055 13.6328V12.8828H4.81055V13.6328H5.56055ZM5.56055 17.8301H4.81055V18.5801H5.56055V17.8301ZM9.30664 14.166L8.83956 14.7529L8.84537 14.7574L9.30664 14.166ZM0.160156 2.76172H7.13281V1.26172H0.160156V2.76172ZM7.13281 2.76172C9.80193 2.76172 11.647 3.16531 12.7815 3.8665L13.5701 2.59053C12.0796 1.66933 9.89599 1.26172 7.13281 1.26172V2.76172ZM12.7867 3.86968C13.858 4.51985 14.4082 5.51371 14.4082 6.98828H15.9082C15.9082 5.054 15.1368 3.54135 13.5649 2.58735L12.7867 3.86968ZM14.4082 6.98828C14.4082 7.97521 14.1579 8.7725 13.6894 9.41949L14.9043 10.2993C15.5843 9.36031 15.9082 8.24354 15.9082 6.98828H14.4082ZM13.6894 9.41949C13.2183 10.0701 12.6134 10.4766 11.8504 10.6618L12.2042 12.1195C13.3189 11.8489 14.2271 11.2345 14.9043 10.2993L13.6894 9.41949ZM11.2773 11.3906V11.5273H12.7773V11.3906H11.2773ZM11.8354 12.2524C12.9672 12.552 13.6902 13.0253 14.1138 13.6087L15.3276 12.7273C14.6392 11.7794 13.5666 11.159 12.2193 10.8023L11.8354 12.2524ZM14.1138 13.6087C14.553 14.2134 14.8047 15.0393 14.8047 16.1484H16.3047C16.3047 14.8148 16.0004 13.6538 15.3276 12.7273L14.1138 13.6087ZM14.8047 16.1484C14.8047 17.7433 14.2185 18.9485 13.0476 19.8462L13.9602 21.0366C15.5236 19.838 16.3047 18.1812 16.3047 16.1484H14.8047ZM13.0482 19.8458C11.8622 20.7531 10.1871 21.25 7.93945 21.25V22.75C10.3949 22.75 12.4295 22.2078 13.9596 21.0371L13.0482 19.8458ZM7.93945 21.25H0.160156V22.75H7.93945V21.25ZM0.910156 22V2.01172H-0.589844V22H0.910156ZM5.56055 10.4316H7.1875V8.93164H5.56055V10.4316ZM7.1875 10.4316C8.05222 10.4316 8.83412 10.2554 9.43266 9.8L8.52437 8.60625C8.28437 8.78887 7.87225 8.93164 7.1875 8.93164V10.4316ZM9.42647 9.80466C10.0801 9.3179 10.3711 8.5995 10.3711 7.78125H8.87109C8.87109 8.22081 8.73369 8.45033 8.53057 8.60159L9.42647 9.80466ZM10.3711 7.78125C10.3711 6.99961 10.0572 6.32968 9.39904 5.89443C8.79527 5.49516 7.98466 5.34961 7.07812 5.34961V6.84961C7.8669 6.84961 8.32778 6.98433 8.57166 7.14561C8.76114 7.27091 8.87109 7.44179 8.87109 7.78125H10.3711ZM7.07812 5.34961H5.56055V6.84961H7.07812V5.34961ZM4.81055 6.09961V9.68164H6.31055V6.09961H4.81055ZM4.81055 13.6328V17.8301H6.31055V13.6328H4.81055ZM5.56055 18.5801H7.46094V17.0801H5.56055V18.5801ZM7.46094 18.5801C8.3914 18.5801 9.22903 18.3866 9.84139 17.8702C10.4783 17.3332 10.7402 16.5605 10.7402 15.6973H9.24023C9.24023 16.2559 9.08067 16.5496 8.87443 16.7235C8.64369 16.9181 8.21668 17.0801 7.46094 17.0801V18.5801ZM10.7402 15.6973C10.7402 14.8403 10.4349 14.0949 9.76791 13.5746L8.84537 14.7574C9.08985 14.9481 9.24023 15.2235 9.24023 15.6973H10.7402ZM9.7737 13.5792C9.14226 13.0766 8.29664 12.8828 7.35156 12.8828V14.3828C8.12002 14.3828 8.57779 14.5445 8.83958 14.7528L9.7737 13.5792ZM7.35156 12.8828H5.56055V14.3828H7.35156V12.8828ZM20.1758 20.2227L19.6541 20.7616L19.6577 20.7649L20.1758 20.2227ZM20.0254 8.3418L20.5698 8.85771L20.5714 8.85593L20.0254 8.3418ZM31.0859 8.06836L30.5654 8.60833L30.5694 8.61211L31.0859 8.06836ZM33 15.6973V16.4473H33.75V15.6973H33ZM23.4434 15.6973V14.9473H22.6611L22.694 15.7288L23.4434 15.6973ZM24.3867 17.7344L23.9074 18.3113L23.9118 18.3148L24.3867 17.7344ZM29.418 18.2129L29.5798 18.9453L29.586 18.9438L29.418 18.2129ZM31.9883 17.2969H32.7383V16.1206L31.6719 16.6169L31.9883 17.2969ZM31.9883 21.1387L32.3295 21.8066L32.7383 21.5977V21.1387H31.9883ZM24.291 10.4746L24.8032 11.0225L24.8036 11.0221L24.291 10.4746ZM23.5527 12.334L22.8055 12.2697L22.7354 13.084H23.5527V12.334ZM28.1465 12.334V13.084H28.915L28.8963 12.3157L28.1465 12.334ZM27.5039 10.543L26.9458 11.0441L26.9515 11.0503L27.5039 10.543ZM26.1914 21.5234C23.7444 21.5234 21.947 20.8776 20.6939 19.6804L19.6577 20.7649C21.2666 22.3021 23.4795 23.0234 26.1914 23.0234V21.5234ZM20.6974 19.6838C19.4596 18.4856 18.793 16.7481 18.793 14.3574H17.293C17.293 17.0344 18.0482 19.2071 19.6542 20.7616L20.6974 19.6838ZM18.793 14.3574C18.793 11.8629 19.4218 10.069 20.5698 8.8577L19.481 7.82589C17.9857 9.40369 17.293 11.6202 17.293 14.3574H18.793ZM20.5714 8.85593C21.7151 7.64128 23.3809 6.98633 25.6855 6.98633V5.48633C23.0865 5.48633 20.9789 6.23502 19.4793 7.82766L20.5714 8.85593ZM25.6855 6.98633C27.8899 6.98633 29.479 7.561 30.5654 8.60831L31.6065 7.52841C30.159 6.13301 28.1479 5.48633 25.6855 5.48633V6.98633ZM30.5694 8.61211C31.6552 9.6436 32.25 11.1714 32.25 13.3184H33.75C33.75 10.8898 33.0688 8.9176 31.6025 7.52461L30.5694 8.61211ZM32.25 13.3184V15.6973H33.75V13.3184H32.25ZM33 14.9473H23.4434V16.4473H33V14.9473ZM22.694 15.7288C22.7382 16.7771 23.1306 17.6659 23.9075 18.3113L24.866 17.1575C24.4579 16.8185 24.2215 16.3492 24.1927 15.6657L22.694 15.7288ZM23.9118 18.3148C24.6855 18.9478 25.6875 19.2227 26.834 19.2227V17.7227C25.9205 17.7227 25.2911 17.5053 24.8616 17.1539L23.9118 18.3148ZM26.834 19.2227C27.8183 19.2227 28.7347 19.1319 29.5798 18.9452L29.2562 17.4806C28.5335 17.6402 27.7273 17.7227 26.834 17.7227V19.2227ZM29.586 18.9438C30.4408 18.7473 31.3477 18.4222 32.3047 17.9769L31.6719 16.6169C30.7877 17.0283 29.9811 17.3139 29.2499 17.482L29.586 18.9438ZM31.2383 17.2969V21.1387H32.7383V17.2969H31.2383ZM31.6471 20.4708C30.871 20.8673 30.0742 21.1392 29.2551 21.2897L29.5261 22.765C30.4935 22.5873 31.4285 22.2668 32.3295 21.8066L31.6471 20.4708ZM29.2551 21.2897C28.4194 21.4432 27.4007 21.5234 26.1914 21.5234V23.0234C27.4612 23.0234 28.5754 22.9396 29.5261 22.765L29.2551 21.2897ZM25.877 9.12305C25.0726 9.12305 24.3563 9.38608 23.7784 9.92709L24.8036 11.0221C25.0825 10.7611 25.4234 10.623 25.877 10.623V9.12305ZM23.7789 9.92671C23.1716 10.4944 22.8868 11.3245 22.8055 12.2697L24.3 12.3983C24.3645 11.6482 24.5719 11.2387 24.8032 11.0225L23.7789 9.92671ZM23.5527 13.084H28.1465V11.584H23.5527V13.084ZM28.8963 12.3157C28.8747 11.4308 28.6161 10.6452 28.0563 10.0357L26.9515 11.0503C27.212 11.334 27.3818 11.7424 27.3967 12.3523L28.8963 12.3157ZM28.0619 10.0419C27.4982 9.41403 26.7407 9.12305 25.877 9.12305V10.623C26.3804 10.623 26.7076 10.7787 26.9459 11.0441L28.0619 10.0419ZM45.7969 22H45.0469V22.75H45.7969V22ZM45.3457 11.2266L44.689 11.5889L44.6928 11.5956L44.6966 11.6023L45.3457 11.2266ZM41.9688 11.5137L41.3135 11.1487L41.9688 11.5137ZM41.3672 22V22.75H42.1172V22H41.3672ZM36.0215 22H35.2715V22.75H36.0215V22ZM36.0215 6.50977V5.75977H35.2715V6.50977H36.0215ZM40.0547 6.50977L40.7626 6.262L40.5868 5.75977H40.0547V6.50977ZM40.7246 8.42383L40.0167 8.67159L40.1925 9.17383H40.7246V8.42383ZM41.0391 8.42383V9.17383H41.4548L41.6751 8.82133L41.0391 8.42383ZM42.9258 6.7832L42.6183 6.09911L42.6154 6.10043L42.9258 6.7832ZM49.707 7.72656L49.1644 8.24431L49.1669 8.24689L49.707 7.72656ZM51.1426 22V22.75H51.8926V22H51.1426ZM46.5469 22V13.5508H45.0469V22H46.5469ZM46.5469 13.5508C46.5469 12.4716 46.3935 11.5395 45.9948 10.8508L44.6966 11.6023C44.8995 11.9527 45.0469 12.5701 45.0469 13.5508H46.5469ZM46.0024 10.8643C45.5653 10.072 44.8241 9.68359 43.9238 9.68359V11.1836C44.3361 11.1836 44.5428 11.3239 44.689 11.5889L46.0024 10.8643ZM43.9238 9.68359C42.7809 9.68359 41.8616 10.1646 41.3135 11.1487L42.624 11.8786C42.878 11.4226 43.262 11.1836 43.9238 11.1836V9.68359ZM41.3135 11.1487C40.812 12.0493 40.6172 13.4543 40.6172 15.2188H42.1172C42.1172 13.4832 42.3234 12.4182 42.624 11.8786L41.3135 11.1487ZM40.6172 15.2188V22H42.1172V15.2188H40.6172ZM41.3672 21.25H36.0215V22.75H41.3672V21.25ZM36.7715 22V6.50977H35.2715V22H36.7715ZM36.0215 7.25977H40.0547V5.75977H36.0215V7.25977ZM39.3468 6.75753L40.0167 8.67159L41.4325 8.17607L40.7626 6.262L39.3468 6.75753ZM40.7246 9.17383H41.0391V7.67383H40.7246V9.17383ZM41.6751 8.82133C42.0506 8.22042 42.5648 7.77114 43.2361 7.46598L42.6154 6.10043C41.6826 6.52443 40.939 7.1689 40.4031 8.02633L41.6751 8.82133ZM43.2332 7.46729C43.932 7.15322 44.754 6.98633 45.7148 6.98633V5.48633C44.5794 5.48633 43.5419 5.68402 42.6183 6.09912L43.2332 7.46729ZM45.7148 6.98633C47.2775 6.98633 48.3915 7.4342 49.1644 8.2443L50.2497 7.20882C49.1268 6.03194 47.5793 5.48633 45.7148 5.48633V6.98633ZM49.1669 8.24689C49.9517 9.06164 50.3926 10.2513 50.3926 11.9238H51.8926C51.8926 9.98694 51.3764 8.37846 50.2472 7.20624L49.1669 8.24689ZM50.3926 11.9238V22H51.8926V11.9238H50.3926ZM51.1426 21.25H45.7969V22.75H51.1426V21.25ZM56.0645 20.2227L55.5216 20.7402L55.5234 20.7421L56.0645 20.2227ZM56.2285 8.35547L55.6982 7.82514L56.2285 8.35547ZM67.3301 7.41211L68.0269 7.68941L68.2828 7.04639L67.6624 6.73975L67.3301 7.41211ZM65.7578 11.3633L65.4577 12.0506L66.1681 12.3608L66.4547 11.6406L65.7578 11.3633ZM63.9668 10.6934L63.7403 11.4084L63.7513 11.4117L63.9668 10.6934ZM60.248 11.4453L60.8617 11.8765L60.248 11.4453ZM66.7969 16.6543H67.5469V15.292L66.3958 16.0206L66.7969 16.6543ZM66.7969 20.9062L67.211 21.5316L67.5469 21.3091V20.9062H66.7969ZM61.834 21.5234C59.4329 21.5234 57.7337 20.8785 56.6055 19.7033L55.5234 20.7421C57.0202 22.3012 59.1674 23.0234 61.834 23.0234V21.5234ZM56.6073 19.7051C55.4784 18.5209 54.8594 16.7685 54.8594 14.3301H53.3594C53.3594 17.0141 54.0438 19.19 55.5216 20.7402L56.6073 19.7051ZM54.8594 14.3301C54.8594 11.8991 55.5239 10.1207 56.7588 8.8858L55.6982 7.82514C54.1076 9.41574 53.3594 11.6205 53.3594 14.3301H54.8594ZM56.7588 8.8858C57.9919 7.65278 59.7869 6.98633 62.2578 6.98633V5.48633C59.5152 5.48633 57.2907 6.23264 55.6982 7.82514L56.7588 8.8858ZM62.2578 6.98633C63.9399 6.98633 65.5168 7.35247 66.9978 8.08447L67.6624 6.73975C65.9715 5.90404 64.1669 5.48633 62.2578 5.48633V6.98633ZM66.6332 7.13481L65.061 11.086L66.4547 11.6406L68.0269 7.68941L66.6332 7.13481ZM66.0579 10.6759C65.3894 10.384 64.7638 10.1494 64.1823 9.97499L63.7513 11.4117C64.2636 11.5654 64.832 11.7774 65.4577 12.0506L66.0579 10.6759ZM64.1932 9.97835C63.5707 9.78123 62.9245 9.68359 62.2578 9.68359V11.1836C62.776 11.1836 63.2691 11.2591 63.7404 11.4084L64.1932 9.97835ZM62.2578 9.68359C61.1622 9.68359 60.257 10.1282 59.6344 11.0141L60.8617 11.8765C61.187 11.4135 61.6216 11.1836 62.2578 11.1836V9.68359ZM59.6344 11.0141C59.0378 11.8631 58.7871 12.9898 58.7871 14.3027H60.2871C60.2871 13.1547 60.5104 12.3765 60.8617 11.8765L59.6344 11.0141ZM58.7871 14.3027C58.7871 15.6127 59.0252 16.7314 59.6209 17.5375C60.248 18.3861 61.1819 18.7715 62.2852 18.7715V17.2715C61.5563 17.2715 61.1162 17.0371 60.8273 16.6461C60.507 16.2126 60.2871 15.4719 60.2871 14.3027H58.7871ZM62.2852 18.7715C64.0072 18.7715 65.6487 18.2686 67.198 17.288L66.3958 16.0206C65.0648 16.863 63.6985 17.2715 62.2852 17.2715V18.7715ZM66.0469 16.6543V20.9062H67.5469V16.6543H66.0469ZM66.3828 20.2809C65.149 21.098 63.6447 21.5234 61.834 21.5234V23.0234C63.8879 23.0234 65.6921 22.5374 67.211 21.5316L66.3828 20.2809ZM79.6211 22H78.8711V22.75H79.6211V22ZM75.834 11.541L75.1818 11.1706L75.1803 11.1733L75.834 11.541ZM75.2188 22V22.75H75.9688V22H75.2188ZM69.873 22H69.123V22.75H69.873V22ZM69.873 0.726562V-0.0234375H69.123V0.726562H69.873ZM75.2188 0.726562H75.9688V-0.0234375H75.2188V0.726562ZM75 8.42383L74.2526 8.36154L74.1849 9.17383H75V8.42383ZM75.2461 8.42383V9.17383H75.6578L75.8788 8.82648L75.2461 8.42383ZM83.5449 7.74023L83.0024 8.25811L83.0072 8.26311L83.5449 7.74023ZM84.9941 22V22.75H85.7441V22H84.9941ZM80.3711 22V13.5508H78.8711V22H80.3711ZM80.3711 13.5508C80.3711 12.4622 80.2143 11.522 79.805 10.8308C79.3593 10.0779 78.6494 9.68359 77.7754 9.68359V11.1836C78.1318 11.1836 78.3448 11.3088 78.5143 11.595C78.7203 11.9428 78.8711 12.5612 78.8711 13.5508H80.3711ZM77.7754 9.68359C76.6408 9.68359 75.7393 10.189 75.1818 11.1706L76.4862 11.9114C76.7672 11.4165 77.16 11.1836 77.7754 11.1836V9.68359ZM75.1803 11.1733C74.6695 12.0813 74.4688 13.466 74.4688 15.1914H75.9688C75.9688 13.508 76.1781 12.459 76.4877 11.9087L75.1803 11.1733ZM74.4688 15.1914V22H75.9688V15.1914H74.4688ZM75.2188 21.25H69.873V22.75H75.2188V21.25ZM70.623 22V0.726562H69.123V22H70.623ZM69.873 1.47656H75.2188V-0.0234375H69.873V1.47656ZM74.4688 0.726562V3.74805H75.9688V0.726562H74.4688ZM74.4688 3.74805C74.4688 5.08959 74.3972 6.62677 74.2526 8.36154L75.7474 8.48611C75.8945 6.72088 75.9688 5.14088 75.9688 3.74805H74.4688ZM75 9.17383H75.2461V7.67383H75V9.17383ZM75.8788 8.82648C76.3301 8.11732 76.8361 7.66321 77.3821 7.40793L76.7468 6.0491C75.8892 6.45007 75.1829 7.12617 74.6133 8.02117L75.8788 8.82648ZM77.3821 7.40793C77.9666 7.13466 78.6702 6.98633 79.5117 6.98633V5.48633C78.4939 5.48633 77.566 5.66612 76.7468 6.0491L77.3821 7.40793ZM79.5117 6.98633C81.0929 6.98633 82.2205 7.43897 83.0024 8.25809L84.0874 7.22238C82.9553 6.03629 81.394 5.48633 79.5117 5.48633V6.98633ZM83.0072 8.26311C83.8005 9.07879 84.2441 10.2635 84.2441 11.9238H85.7441C85.7441 9.99297 85.2217 8.38866 84.0826 7.21736L83.0072 8.26311ZM84.2441 11.9238V22H85.7441V11.9238H84.2441ZM84.9941 21.25H79.6211V22.75H84.9941V21.25ZM107.648 22H106.898V22.75H107.648V22ZM107.211 11.2266L106.549 11.5801L106.553 11.5869L106.557 11.5937L107.211 11.2266ZM103.479 22V22.75H104.229V22H103.479ZM98.1191 22H97.3691V22.75H98.1191V22ZM97.709 11.2266L97.0428 11.5711L97.0453 11.5759L97.709 11.2266ZM93.9766 22V22.75H94.7266V22H93.9766ZM88.6309 22H87.8809V22.75H88.6309V22ZM88.6309 6.50977V5.75977H87.8809V6.50977H88.6309ZM92.6641 6.50977L93.372 6.262L93.1962 5.75977H92.6641V6.50977ZM93.334 8.42383L92.6261 8.67159L92.8019 9.17383H93.334V8.42383ZM93.6484 8.42383V9.17383H94.0816L94.2981 8.79862L93.6484 8.42383ZM95.4258 6.79688L95.103 6.11987L95.0999 6.12135L95.4258 6.79688ZM102.795 8.27344L102.17 8.68849L102.393 9.02344H102.795V8.27344ZM103.219 8.27344V9.02344H103.614L103.837 8.69758L103.219 8.27344ZM105.037 6.7832L105.35 7.46488L105.353 7.46324L105.037 6.7832ZM111.682 7.64453L111.133 8.15589L111.682 7.64453ZM112.994 22V22.75H113.744V22H112.994ZM108.398 22V13.5781H106.898V22H108.398ZM108.398 13.5781C108.398 12.4857 108.251 11.5469 107.865 10.8594L106.557 11.5937C106.754 11.9453 106.898 12.5742 106.898 13.5781H108.398ZM107.872 10.873C107.676 10.5049 107.401 10.1966 107.04 9.98471C106.679 9.77365 106.276 9.68359 105.857 9.68359V11.1836C106.059 11.1836 106.191 11.2257 106.282 11.279C106.371 11.3314 106.464 11.4196 106.549 11.5801L107.872 10.873ZM105.857 9.68359C105.338 9.68359 104.848 9.79553 104.413 10.0489C103.978 10.303 103.641 10.6744 103.394 11.1272L104.711 11.8455C104.847 11.5965 105.003 11.4415 105.169 11.3446C105.336 11.2471 105.556 11.1836 105.857 11.1836V9.68359ZM103.394 11.1272C102.919 11.9984 102.729 13.2525 102.729 14.7812H104.229C104.229 13.3204 104.421 12.3779 104.711 11.8455L103.394 11.1272ZM102.729 14.7812V22H104.229V14.7812H102.729ZM103.479 21.25H98.1191V22.75H103.479V21.25ZM98.8691 22V13.5781H97.3691V22H98.8691ZM98.8691 13.5781C98.8691 12.4899 98.7314 11.5589 98.3727 10.8773L97.0453 11.5759C97.2334 11.9333 97.3691 12.57 97.3691 13.5781H98.8691ZM98.3751 10.882C98.1845 10.5134 97.9157 10.2025 97.5573 9.98813C97.1999 9.77445 96.7983 9.68359 96.3828 9.68359V11.1836C96.578 11.1836 96.7028 11.2249 96.7875 11.2755C96.8711 11.3255 96.96 11.4111 97.0428 11.5711L98.3751 10.882ZM96.3828 9.68359C95.8494 9.68359 95.3465 9.80361 94.9044 10.0741C94.4624 10.3446 94.1265 10.7378 93.8832 11.2128L95.2183 11.8966C95.3579 11.6242 95.5187 11.4568 95.6874 11.3536C95.856 11.2504 96.0777 11.1836 96.3828 11.1836V9.68359ZM93.8832 11.2128C93.4146 12.1278 93.2266 13.5021 93.2266 15.2188H94.7266C94.7266 13.5448 94.9213 12.4764 95.2183 11.8966L93.8832 11.2128ZM93.2266 15.2188V22H94.7266V15.2188H93.2266ZM93.9766 21.25H88.6309V22.75H93.9766V21.25ZM89.3809 22V6.50977H87.8809V22H89.3809ZM88.6309 7.25977H92.6641V5.75977H88.6309V7.25977ZM91.9562 6.75753L92.6261 8.67159L94.0419 8.17607L93.372 6.262L91.9562 6.75753ZM93.334 9.17383H93.6484V7.67383H93.334V9.17383ZM94.2981 8.79862C94.6292 8.22464 95.1057 7.78397 95.7516 7.4724L95.0999 6.12135C94.1964 6.55718 93.488 7.20114 92.9988 8.04904L94.2981 8.79862ZM95.7485 7.47388C96.418 7.15472 97.1939 6.98633 98.0918 6.98633V5.48633C97.0027 5.48633 96.0013 5.69164 95.103 6.11987L95.7485 7.47388ZM98.0918 6.98633C100.176 6.98633 101.455 7.61225 102.17 8.68849L103.42 7.85838C102.33 6.21848 100.474 5.48633 98.0918 5.48633V6.98633ZM102.795 9.02344H103.219V7.52344H102.795V9.02344ZM103.837 8.69758C104.19 8.18267 104.686 7.76969 105.35 7.46487L104.724 6.10153C103.839 6.50766 103.122 7.08816 102.6 7.84929L103.837 8.69758ZM105.353 7.46324C106.03 7.1486 106.782 6.98633 107.621 6.98633V5.48633C106.583 5.48633 105.612 5.68864 104.721 6.10316L105.353 7.46324ZM107.621 6.98633C109.336 6.98633 110.452 7.42487 111.133 8.15589L112.23 7.13317C111.162 5.98659 109.571 5.48633 107.621 5.48633V6.98633ZM111.133 8.15589C111.827 8.90097 112.244 10.1081 112.244 11.9238H113.744C113.744 9.9114 113.286 8.2657 112.23 7.13317L111.133 8.15589ZM112.244 11.9238V22H113.744V11.9238H112.244ZM112.994 21.25H107.648V22.75H112.994V21.25ZM126.734 22L126.064 22.3354L126.271 22.75H126.734V22ZM125.709 19.9492L126.38 19.6138L126.173 19.1992H125.709V19.9492ZM125.6 19.9492V19.1992H125.241L125.016 19.4785L125.6 19.9492ZM117.055 20.9609L116.513 21.4799L117.055 20.9609ZM117.52 13.5918L117.949 14.2067L117.952 14.2044L117.52 13.5918ZM122.51 12.2246L122.486 11.4749L122.475 11.4754L122.51 12.2246ZM125.094 12.1426L125.118 12.8922L125.844 12.8691V12.1426H125.094ZM118.9 11.1582L118.213 11.4591L118.515 12.1471L119.202 11.8447L118.9 11.1582ZM117.355 7.63086L117.012 6.96413L116.386 7.28665L116.668 7.93175L117.355 7.63086ZM128.799 7.71289L128.295 8.26827L128.297 8.27036L128.799 7.71289ZM130.439 22V22.75H131.189V22H130.439ZM124.424 17.8848L123.928 17.3224L123.922 17.3273L124.424 17.8848ZM125.121 15.082H125.871V14.298L125.088 14.3328L125.121 15.082ZM123.891 15.1367L123.918 15.8863L123.924 15.886L123.891 15.1367ZM127.405 21.6646L126.38 19.6138L125.038 20.2846L126.064 22.3354L127.405 21.6646ZM125.709 19.1992H125.6V20.6992H125.709V19.1992ZM125.016 19.4785C124.342 20.3139 123.699 20.8303 123.097 21.0945L123.7 22.468C124.593 22.0759 125.417 21.371 126.184 20.4199L125.016 19.4785ZM123.097 21.0945C122.477 21.3665 121.624 21.5234 120.5 21.5234V23.0234C121.746 23.0234 122.825 22.8522 123.7 22.468L123.097 21.0945ZM120.5 21.5234C119.201 21.5234 118.265 21.1399 117.596 20.442L116.513 21.4799C117.521 22.5319 118.882 23.0234 120.5 23.0234V21.5234ZM117.596 20.442C116.929 19.7456 116.547 18.7237 116.547 17.2695H115.047C115.047 18.9872 115.504 20.4263 116.513 21.4799L117.596 20.442ZM116.547 17.2695C116.547 15.8149 117.039 14.8421 117.949 14.2067L117.09 12.9769C115.703 13.9456 115.047 15.4247 115.047 17.2695H116.547ZM117.952 14.2044C118.936 13.5096 120.436 13.0708 122.544 12.9738L122.475 11.4754C120.227 11.5789 118.4 12.0516 117.087 12.9792L117.952 14.2044ZM122.534 12.9742L125.118 12.8922L125.07 11.393L122.486 11.475L122.534 12.9742ZM125.844 12.1426V11.9238H124.344V12.1426H125.844ZM125.844 11.9238C125.844 11.1729 125.659 10.4714 125.156 9.96178C124.652 9.45017 123.954 9.25977 123.207 9.25977V10.7598C123.718 10.7598 123.963 10.8884 124.088 11.0148C124.215 11.1432 124.344 11.3987 124.344 11.9238H125.844ZM123.207 9.25977C121.925 9.25977 120.378 9.68896 118.598 10.4717L119.202 11.8447C120.904 11.0962 122.228 10.7598 123.207 10.7598V9.25977ZM119.587 10.8573L118.042 7.32997L116.668 7.93175L118.213 11.4591L119.587 10.8573ZM117.699 8.29759C119.366 7.43857 121.518 6.98633 124.191 6.98633V5.48633C121.36 5.48633 118.954 5.96378 117.012 6.96413L117.699 8.29759ZM124.191 6.98633C126.059 6.98633 127.391 7.44798 128.295 8.26827L129.303 7.15751C128.037 6.00906 126.298 5.48633 124.191 5.48633V6.98633ZM128.297 8.27036C129.201 9.08402 129.689 10.2395 129.689 11.8418H131.189C131.189 9.90761 130.584 8.31051 129.301 7.15542L128.297 8.27036ZM129.689 11.8418V22H131.189V11.8418H129.689ZM130.439 21.25H126.734V22.75H130.439V21.25ZM122.77 19.25C123.591 19.25 124.324 18.9837 124.926 18.4422L123.922 17.3273C123.612 17.6062 123.243 17.75 122.77 17.75V19.25ZM124.92 18.4471C125.557 17.8854 125.871 17.1423 125.871 16.2852H124.371C124.371 16.7405 124.221 17.0638 123.928 17.3224L124.92 18.4471ZM125.871 16.2852V15.082H124.371V16.2852H125.871ZM125.088 14.3328L123.857 14.3875L123.924 15.886L125.154 15.8313L125.088 14.3328ZM123.863 14.3872C122.917 14.4215 122.082 14.6135 121.467 15.0658C120.809 15.5501 120.502 16.2592 120.502 17.0781H122.002C122.002 16.6666 122.135 16.4368 122.356 16.274C122.621 16.0792 123.105 15.9157 123.918 15.8862L123.863 14.3872ZM120.502 17.0781C120.502 17.6806 120.665 18.2669 121.119 18.6918C121.563 19.1081 122.16 19.25 122.77 19.25V17.75C122.368 17.75 122.206 17.6549 122.144 17.5972C122.092 17.5482 122.002 17.4235 122.002 17.0781H120.502ZM144.754 6.3457L144.888 5.60778L144.882 5.60679L144.754 6.3457ZM145.055 6.40039L145.801 6.47121L145.866 5.78567L145.189 5.66249L145.055 6.40039ZM144.576 11.4453L144.394 12.1729L145.24 12.3845L145.323 11.5161L144.576 11.4453ZM140.215 12.0879L140.745 12.6182L140.75 12.6137L140.215 12.0879ZM139.422 22V22.75H140.172V22H139.422ZM134.076 22H133.326V22.75H134.076V22ZM134.076 6.50977V5.75977H133.326V6.50977H134.076ZM138.055 6.50977L138.765 6.27024L138.593 5.75977H138.055V6.50977ZM138.889 8.98438L138.178 9.2239L138.35 9.73438H138.889V8.98438ZM139.148 8.98438V9.73438H139.594L139.807 9.343L139.148 8.98438ZM141.008 7.00195L141.409 7.6359L141.41 7.6347L141.008 7.00195ZM143.428 6.98633C143.853 6.98633 144.252 7.01972 144.625 7.08461L144.882 5.60679C144.417 5.52586 143.932 5.48633 143.428 5.48633V6.98633ZM144.62 7.0836L144.921 7.13829L145.189 5.66249L144.888 5.6078L144.62 7.0836ZM144.308 6.32957L143.83 11.3745L145.323 11.5161L145.801 6.47121L144.308 6.32957ZM144.758 10.7177C144.234 10.5866 143.557 10.5312 142.758 10.5312V12.0312C143.508 12.0312 144.044 12.0853 144.394 12.1729L144.758 10.7177ZM142.758 10.5312C141.498 10.5312 140.411 10.819 139.68 11.5621L140.75 12.6137C141.076 12.2813 141.685 12.0312 142.758 12.0312V10.5312ZM139.685 11.5576C138.972 12.2696 138.672 13.2532 138.672 14.3848H140.172C140.172 13.5111 140.4 12.9635 140.745 12.6182L139.685 11.5576ZM138.672 14.3848V22H140.172V14.3848H138.672ZM139.422 21.25H134.076V22.75H139.422V21.25ZM134.826 22V6.50977H133.326V22H134.826ZM134.076 7.25977H138.055V5.75977H134.076V7.25977ZM137.344 6.74929L138.178 9.2239L139.599 8.74485L138.765 6.27024L137.344 6.74929ZM138.889 9.73438H139.148V8.23438H138.889V9.73438ZM139.807 9.343C140.192 8.63546 140.723 8.06922 141.409 7.6359L140.607 6.36801C139.707 6.93729 138.998 7.69267 138.49 8.62575L139.807 9.343ZM141.41 7.6347C142.113 7.18746 142.782 6.98633 143.428 6.98633V5.48633C142.451 5.48633 141.507 5.79561 140.605 6.36921L141.41 7.6347ZM152.41 13.291V14.041H152.825L153.045 13.69L152.41 13.291ZM154.064 10.8848L153.477 10.4185L153.477 10.4185L154.064 10.8848ZM157.537 6.50977V5.75977H157.175L156.95 6.04349L157.537 6.50977ZM163.498 6.50977L164.079 6.98371L165.077 5.75977H163.498V6.50977ZM158.125 13.0996L157.544 12.6257L157.2 13.0472L157.494 13.5048L158.125 13.0996ZM163.84 22V22.75H165.213L164.471 21.5948L163.84 22ZM157.729 22L157.088 22.391L157.308 22.75H157.729V22ZM154.338 16.4492L154.978 16.0583L154.544 15.348L153.883 15.8532L154.338 16.4492ZM152.602 17.7754L152.146 17.1794L151.852 17.4045V17.7754H152.602ZM152.602 22V22.75H153.352V22H152.602ZM147.229 22H146.479V22.75H147.229V22ZM147.229 0.726562V-0.0234375H146.479V0.726562H147.229ZM152.602 0.726562H153.352V-0.0234375H152.602V0.726562ZM152.301 13.291L151.559 13.1822L151.433 14.041H152.301V13.291ZM153.045 13.69C153.686 12.6704 154.221 11.8943 154.652 11.351L153.477 10.4185C152.997 11.0236 152.429 11.8518 151.775 12.892L153.045 13.69ZM154.652 11.351L158.125 6.97604L156.95 6.04349L153.477 10.4185L154.652 11.351ZM157.537 7.25977H163.498V5.75977H157.537V7.25977ZM162.917 6.03582L157.544 12.6257L158.706 13.5736L164.079 6.98371L162.917 6.03582ZM157.494 13.5048L163.209 22.4052L164.471 21.5948L158.756 12.6944L157.494 13.5048ZM163.84 21.25H157.729V22.75H163.84V21.25ZM158.369 21.609L154.978 16.0583L153.698 16.8402L157.088 22.391L158.369 21.609ZM153.883 15.8532L152.146 17.1794L153.057 18.3714L154.793 17.0453L153.883 15.8532ZM151.852 17.7754V22H153.352V17.7754H151.852ZM152.602 21.25H147.229V22.75H152.602V21.25ZM147.979 22V0.726562H146.479V22H147.979ZM147.229 1.47656H152.602V-0.0234375H147.229V1.47656ZM151.852 0.726562V9.09375H153.352V0.726562H151.852ZM151.852 9.09375C151.852 10.4896 151.754 11.8523 151.559 13.1822L153.043 13.3999C153.249 11.9954 153.352 10.5599 153.352 9.09375H151.852ZM152.301 14.041H152.41V12.541H152.301V14.041ZM171.059 22V22.75H171.809V22H171.059ZM165.713 22H164.963V22.75H165.713V22ZM165.713 6.50977V5.75977H164.963V6.50977H165.713ZM171.059 6.50977H171.809V5.75977H171.059V6.50977ZM170.58 0.876953L170.085 1.43999L170.58 0.876953ZM171.059 21.25H165.713V22.75H171.059V21.25ZM166.463 22V6.50977H164.963V22H166.463ZM165.713 7.25977H171.059V5.75977H165.713V7.25977ZM170.309 6.50977V22H171.809V6.50977H170.309ZM166.326 2.6543C166.326 1.98876 166.508 1.63143 166.741 1.427L165.751 0.299562C165.091 0.878983 164.826 1.71567 164.826 2.6543H166.326ZM166.741 1.427C166.984 1.21326 167.481 1.02539 168.406 1.02539V-0.474609C167.344 -0.474609 166.401 -0.270549 165.751 0.299562L166.741 1.427ZM168.406 1.02539C169.326 1.02539 169.83 1.21579 170.085 1.43999L171.076 0.313918C170.419 -0.263967 169.473 -0.474609 168.406 -0.474609V1.02539ZM170.085 1.43999C170.334 1.65969 170.514 2.01902 170.514 2.6543H172.014C172.014 1.72186 171.737 0.896296 171.076 0.313918L170.085 1.43999ZM170.514 2.6543C170.514 3.27984 170.331 3.62656 170.073 3.83886C169.787 4.07419 169.275 4.25586 168.406 4.25586V5.75586C169.443 5.75586 170.359 5.5456 171.026 4.99708C171.72 4.42552 172.014 3.59646 172.014 2.6543H170.514ZM168.406 4.25586C167.548 4.25586 167.044 4.07474 166.763 3.84112C166.508 3.6296 166.326 3.28223 166.326 2.6543H164.826C164.826 3.59407 165.116 4.42248 165.804 4.99482C166.467 5.54505 167.378 5.75586 168.406 5.75586V4.25586ZM184.566 22H183.816V22.75H184.566V22ZM184.115 11.2266L183.459 11.5889L183.462 11.5956L183.466 11.6023L184.115 11.2266ZM180.738 11.5137L180.083 11.1487L180.738 11.5137ZM180.137 22V22.75H180.887V22H180.137ZM174.791 22H174.041V22.75H174.791V22ZM174.791 6.50977V5.75977H174.041V6.50977H174.791ZM178.824 6.50977L179.532 6.262L179.356 5.75977H178.824V6.50977ZM179.494 8.42383L178.786 8.67159L178.962 9.17383H179.494V8.42383ZM179.809 8.42383V9.17383H180.224L180.445 8.82133L179.809 8.42383ZM181.695 6.7832L181.388 6.09911L181.385 6.10043L181.695 6.7832ZM188.477 7.72656L187.934 8.24431L187.936 8.24689L188.477 7.72656ZM189.912 22V22.75H190.662V22H189.912ZM185.316 22V13.5508H183.816V22H185.316ZM185.316 13.5508C185.316 12.4716 185.163 11.5395 184.764 10.8508L183.466 11.6023C183.669 11.9527 183.816 12.5701 183.816 13.5508H185.316ZM184.772 10.8643C184.335 10.072 183.594 9.68359 182.693 9.68359V11.1836C183.106 11.1836 183.312 11.3239 183.459 11.5889L184.772 10.8643ZM182.693 9.68359C181.55 9.68359 180.631 10.1646 180.083 11.1487L181.394 11.8786C181.647 11.4226 182.032 11.1836 182.693 11.1836V9.68359ZM180.083 11.1487C179.581 12.0493 179.387 13.4543 179.387 15.2188H180.887C180.887 13.4832 181.093 12.4182 181.394 11.8786L180.083 11.1487ZM179.387 15.2188V22H180.887V15.2188H179.387ZM180.137 21.25H174.791V22.75H180.137V21.25ZM175.541 22V6.50977H174.041V22H175.541ZM174.791 7.25977H178.824V5.75977H174.791V7.25977ZM178.116 6.75753L178.786 8.67159L180.202 8.17607L179.532 6.262L178.116 6.75753ZM179.494 9.17383H179.809V7.67383H179.494V9.17383ZM180.445 8.82133C180.82 8.22042 181.334 7.77114 182.006 7.46598L181.385 6.10043C180.452 6.52443 179.708 7.1689 179.173 8.02633L180.445 8.82133ZM182.003 7.46729C182.702 7.15322 183.523 6.98633 184.484 6.98633V5.48633C183.349 5.48633 182.311 5.68402 181.388 6.09912L182.003 7.46729ZM184.484 6.98633C186.047 6.98633 187.161 7.4342 187.934 8.2443L189.019 7.20882C187.896 6.03194 186.349 5.48633 184.484 5.48633V6.98633ZM187.936 8.24689C188.721 9.06164 189.162 10.2513 189.162 11.9238H190.662C190.662 9.98694 190.146 8.37846 189.017 7.20624L187.936 8.24689ZM189.162 11.9238V22H190.662V11.9238H189.162ZM189.912 21.25H184.566V22.75H189.912V21.25ZM208.164 6.50977H208.914V5.75977H208.164V6.50977ZM208.164 9.09375L208.423 9.79766L208.914 9.61705V9.09375H208.164ZM206.045 9.87305L205.786 9.16913L204.966 9.47059L205.388 10.2354L206.045 9.87305ZM204.719 15.6016L204.256 15.011L204.254 15.0128L204.719 15.6016ZM198.115 16.873L198.274 16.14L197.722 16.0208L197.455 16.5175L198.115 16.873ZM198.566 18.1582L198.325 18.8682L198.332 18.8705L198.338 18.8727L198.566 18.1582ZM205.607 27.1543L205.199 26.5254L205.197 26.5264L205.607 27.1543ZM193.754 27.6191L194.148 26.9812L194.147 26.9804L193.754 27.6191ZM195.422 20.8789L195.593 21.6092L197.833 21.0847L195.714 20.1882L195.422 20.8789ZM194.178 19.9082L193.585 20.3679L193.591 20.3753L194.178 19.9082ZM194.055 17.3105L194.662 17.7508L194.667 17.7436L194.055 17.3105ZM195.709 15.9844L196.099 16.625L197.324 15.8796L196.013 15.2987L195.709 15.9844ZM193.809 14.3164L193.166 14.7034L193.17 14.709L193.809 14.3164ZM202.764 6.50977L202.64 7.24956L202.702 7.25977H202.764V6.50977ZM197.199 24.9805L197.574 24.3308L197.565 24.3254L197.199 24.9805ZM202.203 24.8984L201.92 24.2037L201.911 24.2078L202.203 24.8984ZM202.668 22.7793L202.925 22.0747L202.913 22.0706L202.668 22.7793ZM197.076 22.9297L196.663 22.3035L196.655 22.3089L196.647 22.3146L197.076 22.9297ZM201 13.373L200.392 12.9344L200.385 12.9439L201 13.373ZM207.414 6.50977V9.09375H208.914V6.50977H207.414ZM207.905 8.38984L205.786 9.16913L206.304 10.577L208.423 9.79766L207.905 8.38984ZM205.388 10.2354C205.609 10.6362 205.732 11.1229 205.732 11.7188H207.232C207.232 10.9109 207.064 10.1672 206.702 9.51074L205.388 10.2354ZM205.732 11.7188C205.732 13.1869 205.228 14.2506 204.256 15.011L205.181 16.1921C206.561 15.1114 207.232 13.5866 207.232 11.7188H205.732ZM204.254 15.0128C203.276 15.7845 201.727 16.2324 199.482 16.2324V17.7324C201.886 17.7324 203.828 17.2598 205.183 16.1903L204.254 15.0128ZM199.482 16.2324C198.931 16.2324 198.536 16.1967 198.274 16.14L197.957 17.6061C198.369 17.6952 198.885 17.7324 199.482 17.7324V16.2324ZM197.455 16.5175C197.285 16.8335 197.174 17.1789 197.174 17.543H198.674C198.674 17.4877 198.691 17.3865 198.776 17.2286L197.455 16.5175ZM197.174 17.543C197.174 18.326 197.835 18.7016 198.325 18.8682L198.808 17.4482C198.733 17.4225 198.68 17.3986 198.645 17.3795C198.609 17.3602 198.599 17.3497 198.603 17.3533C198.608 17.358 198.628 17.379 198.646 17.4188C198.665 17.4603 198.674 17.5043 198.674 17.543H197.174ZM198.338 18.8727C198.869 19.042 199.515 19.1133 200.248 19.1133V17.6133C199.596 17.6133 199.121 17.5478 198.794 17.4437L198.338 18.8727ZM200.248 19.1133H202.818V17.6133H200.248V19.1133ZM202.818 19.1133C204.467 19.1133 205.564 19.4633 206.242 20.034C206.895 20.584 207.277 21.4416 207.277 22.752H208.777C208.777 21.1365 208.292 19.7998 207.208 18.8869C206.149 17.9947 204.642 17.6133 202.818 17.6133V19.1133ZM207.277 22.752C207.277 24.3788 206.604 25.6122 205.199 26.5254L206.016 27.7832C207.837 26.6 208.777 24.8986 208.777 22.752H207.277ZM205.197 26.5264C203.763 27.4636 201.672 27.9766 198.84 27.9766V29.4766C201.823 29.4766 204.244 28.9413 206.018 27.7822L205.197 26.5264ZM198.84 27.9766C196.71 27.9766 195.175 27.6158 194.148 26.9812L193.359 28.257C194.721 29.099 196.576 29.4766 198.84 29.4766V27.9766ZM194.147 26.9804C193.181 26.3859 192.727 25.5733 192.727 24.4609H191.227C191.227 26.1011 191.957 27.394 193.361 28.2579L194.147 26.9804ZM192.727 24.4609C192.727 23.705 192.955 23.1381 193.378 22.6976C193.818 22.2404 194.528 21.8584 195.593 21.6092L195.251 20.1487C194.019 20.4372 193.006 20.9211 192.297 21.6578C191.573 22.4113 191.227 23.3666 191.227 24.4609H192.727ZM195.714 20.1882C195.368 20.0416 195.051 19.8007 194.765 19.4411L193.591 20.3753C194.016 20.909 194.528 21.3152 195.13 21.5696L195.714 20.1882ZM194.77 19.4486C194.496 19.0948 194.408 18.81 194.408 18.582H192.908C192.908 19.229 193.167 19.8284 193.585 20.3678L194.77 19.4486ZM194.408 18.582C194.408 18.2449 194.497 17.9778 194.662 17.7508L193.447 16.8703C193.083 17.3724 192.908 17.953 192.908 18.582H194.408ZM194.667 17.7436C194.836 17.5049 195.27 17.1293 196.099 16.625L195.319 15.3437C194.47 15.8602 193.802 16.3688 193.442 16.8774L194.667 17.7436ZM196.013 15.2987C195.351 15.0055 194.834 14.5526 194.448 13.9238L193.17 14.709C193.713 15.5932 194.462 16.2523 195.405 16.6701L196.013 15.2987ZM194.451 13.9294C194.08 13.3137 193.875 12.534 193.875 11.5547H192.375C192.375 12.7447 192.626 13.8061 193.166 14.7034L194.451 13.9294ZM193.875 11.5547C193.875 10.0588 194.373 8.97988 195.32 8.21379L194.376 7.04793C193.025 8.14121 192.375 9.67816 192.375 11.5547H193.875ZM195.32 8.21379C196.286 7.43111 197.734 6.98633 199.77 6.98633V5.48633C197.539 5.48633 195.706 5.97123 194.376 7.04793L195.32 8.21379ZM199.77 6.98633C200.014 6.98633 200.47 7.01502 201.164 7.07887L201.301 5.58519C200.609 5.52144 200.09 5.48633 199.77 5.48633V6.98633ZM201.164 7.07887C201.853 7.14239 202.341 7.19964 202.64 7.24956L202.887 5.76997C202.53 5.71052 201.997 5.64928 201.301 5.58519L201.164 7.07887ZM202.764 7.25977H208.164V5.75977H202.764V7.25977ZM195.738 23.9277C195.738 24.7062 196.19 25.2761 196.834 25.6355L197.565 24.3254C197.261 24.1561 197.238 24.0243 197.238 23.9277H195.738ZM196.824 25.6301C197.452 25.9923 198.23 26.1406 199.1 26.1406V24.6406C198.383 24.6406 197.894 24.5155 197.574 24.3308L196.824 25.6301ZM199.1 26.1406C200.446 26.1406 201.592 25.9717 202.496 25.5891L201.911 24.2078C201.265 24.4815 200.342 24.6406 199.1 24.6406V26.1406ZM202.486 25.5931C203.346 25.2429 204.129 24.6434 204.129 23.6543H202.629C202.629 23.6948 202.621 23.7471 202.54 23.833C202.444 23.9341 202.257 24.0668 201.92 24.2038L202.486 25.5931ZM204.129 23.6543C204.129 23.2938 204.021 22.947 203.783 22.655C203.555 22.374 203.247 22.1925 202.925 22.0748L202.411 23.4837C202.563 23.5393 202.61 23.5902 202.619 23.6009C202.623 23.6054 202.623 23.6071 202.624 23.6088C202.625 23.6114 202.629 23.6246 202.629 23.6543H204.129ZM202.913 22.0706C202.322 21.8659 201.545 21.7832 200.631 21.7832V23.2832C201.485 23.2832 202.066 23.3646 202.423 23.488L202.913 22.0706ZM200.631 21.7832H198.539V23.2832H200.631V21.7832ZM198.539 21.7832C197.847 21.7832 197.209 21.9437 196.663 22.3035L197.489 23.5559C197.745 23.387 198.082 23.2832 198.539 23.2832V21.7832ZM196.647 22.3146C196.104 22.6934 195.738 23.2355 195.738 23.9277H197.238C197.238 23.8362 197.264 23.7128 197.505 23.5448L196.647 22.3146ZM197.42 11.582C197.42 12.4388 197.565 13.2148 197.968 13.7944C198.405 14.4235 199.068 14.7109 199.824 14.7109V13.2109C199.478 13.2109 199.313 13.1019 199.199 12.938C199.051 12.7246 198.92 12.3112 198.92 11.582H197.42ZM199.824 14.7109C200.56 14.7109 201.19 14.4108 201.615 13.8022L200.385 12.9439C200.263 13.1192 200.109 13.2109 199.824 13.2109V14.7109ZM201.608 13.8116C202.024 13.2346 202.174 12.4609 202.174 11.6094H200.674C200.674 12.3256 200.541 12.7276 200.392 12.9344L201.608 13.8116ZM202.174 11.6094C202.174 10.7479 202.035 9.97082 201.649 9.38948C201.226 8.75421 200.577 8.45312 199.824 8.45312V9.95312C200.138 9.95312 200.288 10.0531 200.399 10.2199C200.546 10.4406 200.674 10.8667 200.674 11.6094H202.174ZM199.824 8.45312C199.068 8.45312 198.405 8.74059 197.968 9.36966C197.565 9.94926 197.42 10.7252 197.42 11.582H198.92C198.92 10.8529 199.051 10.4394 199.199 10.226C199.313 10.0621 199.478 9.95312 199.824 9.95312V8.45312Z" fill="#7B838D"/>
</svg>
