<svg width="354" height="29" viewBox="0 0 354 29" fill="none" xmlns="http://www.w3.org/2000/svg">
<path d="M0.160156 2.01172V1.26172H-0.589844V2.01172H0.160156ZM13.1758 3.22852L12.7815 3.86652L12.7867 3.86968L13.1758 3.22852ZM12.0273 11.3906L11.8504 10.6618L11.2773 10.8009V11.3906H12.0273ZM12.0273 11.5273H11.2773V12.1046L11.8354 12.2524L12.0273 11.5273ZM13.5039 20.4414L13.9596 21.0371L13.9602 21.0366L13.5039 20.4414ZM0.160156 22H-0.589844V22.75H0.160156V22ZM5.56055 9.68164H4.81055V10.4316H5.56055V9.68164ZM8.97852 9.20312L8.53054 8.60156L8.52437 8.60625L8.97852 9.20312ZM5.56055 6.09961V5.34961H4.81055V6.09961H5.56055ZM5.56055 13.6328V12.8828H4.81055V13.6328H5.56055ZM5.56055 17.8301H4.81055V18.5801H5.56055V17.8301ZM9.30664 14.166L8.83956 14.7529L8.84537 14.7574L9.30664 14.166ZM0.160156 2.76172H7.13281V1.26172H0.160156V2.76172ZM7.13281 2.76172C9.80193 2.76172 11.647 3.16531 12.7815 3.8665L13.5701 2.59053C12.0796 1.66933 9.89599 1.26172 7.13281 1.26172V2.76172ZM12.7867 3.86968C13.858 4.51985 14.4082 5.51371 14.4082 6.98828H15.9082C15.9082 5.054 15.1368 3.54135 13.5649 2.58735L12.7867 3.86968ZM14.4082 6.98828C14.4082 7.97521 14.1579 8.7725 13.6894 9.41949L14.9043 10.2993C15.5843 9.36031 15.9082 8.24354 15.9082 6.98828H14.4082ZM13.6894 9.41949C13.2183 10.0701 12.6134 10.4766 11.8504 10.6618L12.2042 12.1195C13.3189 11.8489 14.2271 11.2345 14.9043 10.2993L13.6894 9.41949ZM11.2773 11.3906V11.5273H12.7773V11.3906H11.2773ZM11.8354 12.2524C12.9672 12.552 13.6902 13.0253 14.1138 13.6087L15.3276 12.7273C14.6392 11.7794 13.5666 11.159 12.2193 10.8023L11.8354 12.2524ZM14.1138 13.6087C14.553 14.2134 14.8047 15.0393 14.8047 16.1484H16.3047C16.3047 14.8148 16.0004 13.6538 15.3276 12.7273L14.1138 13.6087ZM14.8047 16.1484C14.8047 17.7433 14.2185 18.9485 13.0476 19.8462L13.9602 21.0366C15.5236 19.838 16.3047 18.1812 16.3047 16.1484H14.8047ZM13.0482 19.8458C11.8622 20.7531 10.1871 21.25 7.93945 21.25V22.75C10.3949 22.75 12.4295 22.2078 13.9596 21.0371L13.0482 19.8458ZM7.93945 21.25H0.160156V22.75H7.93945V21.25ZM0.910156 22V2.01172H-0.589844V22H0.910156ZM5.56055 10.4316H7.1875V8.93164H5.56055V10.4316ZM7.1875 10.4316C8.05222 10.4316 8.83412 10.2554 9.43266 9.8L8.52437 8.60625C8.28437 8.78887 7.87225 8.93164 7.1875 8.93164V10.4316ZM9.42647 9.80466C10.0801 9.3179 10.3711 8.5995 10.3711 7.78125H8.87109C8.87109 8.22081 8.73369 8.45033 8.53057 8.60159L9.42647 9.80466ZM10.3711 7.78125C10.3711 6.99961 10.0572 6.32968 9.39904 5.89443C8.79527 5.49516 7.98466 5.34961 7.07812 5.34961V6.84961C7.8669 6.84961 8.32778 6.98433 8.57166 7.14561C8.76114 7.27091 8.87109 7.44179 8.87109 7.78125H10.3711ZM7.07812 5.34961H5.56055V6.84961H7.07812V5.34961ZM4.81055 6.09961V9.68164H6.31055V6.09961H4.81055ZM4.81055 13.6328V17.8301H6.31055V13.6328H4.81055ZM5.56055 18.5801H7.46094V17.0801H5.56055V18.5801ZM7.46094 18.5801C8.3914 18.5801 9.22903 18.3866 9.84139 17.8702C10.4783 17.3332 10.7402 16.5605 10.7402 15.6973H9.24023C9.24023 16.2559 9.08067 16.5496 8.87443 16.7235C8.64369 16.9181 8.21668 17.0801 7.46094 17.0801V18.5801ZM10.7402 15.6973C10.7402 14.8403 10.4349 14.0949 9.76791 13.5746L8.84537 14.7574C9.08985 14.9481 9.24023 15.2235 9.24023 15.6973H10.7402ZM9.7737 13.5792C9.14226 13.0766 8.29664 12.8828 7.35156 12.8828V14.3828C8.12002 14.3828 8.57779 14.5445 8.83958 14.7528L9.7737 13.5792ZM7.35156 12.8828H5.56055V14.3828H7.35156V12.8828ZM29.7461 22L29.0377 22.2462L29.2127 22.75H29.7461V22ZM29.0762 20.0723L29.7846 19.8261L29.6095 19.3223H29.0762V20.0723ZM28.7617 20.0723V19.3223H28.3472L28.1266 19.6733L28.7617 20.0723ZM26.8887 21.7129L27.2084 22.3913L27.2117 22.3898L26.8887 21.7129ZM20.1074 20.7969L19.5648 21.3146L19.5672 21.3171L20.1074 20.7969ZM18.6855 6.50977V5.75977H17.9355V6.50977H18.6855ZM24.0312 6.50977H24.7812V5.75977H24.0312V6.50977ZM24.4551 17.2695L23.7962 17.6279L23.8011 17.6367L24.4551 17.2695ZM27.8457 16.9688L28.5045 17.3273L28.5063 17.3238L27.8457 16.9688ZM28.4336 6.50977V5.75977H27.6836V6.50977H28.4336ZM33.7793 6.50977H34.5293V5.75977H33.7793V6.50977ZM33.7793 22V22.75H34.5293V22H33.7793ZM30.4545 21.7538L29.7846 19.8261L28.3677 20.3185L29.0377 22.2462L30.4545 21.7538ZM29.0762 19.3223H28.7617V20.8223H29.0762V19.3223ZM28.1266 19.6733C27.7601 20.2567 27.2473 20.7107 26.5656 21.036L27.2117 22.3898C28.1342 21.9495 28.8701 21.3097 29.3968 20.4712L28.1266 19.6733ZM26.5689 21.0345C25.896 21.3516 25.0755 21.5234 24.0859 21.5234V23.0234C25.2474 23.0234 26.2954 22.8216 27.2084 22.3913L26.5689 21.0345ZM24.0859 21.5234C22.5317 21.5234 21.4209 21.0796 20.6477 20.2766L19.5672 21.3171C20.6898 22.4829 22.2313 23.0234 24.0859 23.0234V21.5234ZM20.6501 20.2791C19.8729 19.4646 19.4355 18.2739 19.4355 16.5996H17.9355C17.9355 18.5346 18.4461 20.1422 19.5648 21.3146L20.6501 20.2791ZM19.4355 16.5996V6.50977H17.9355V16.5996H19.4355ZM18.6855 7.25977H24.0312V5.75977H18.6855V7.25977ZM23.2812 6.50977V14.9727H24.7812V6.50977H23.2812ZM23.2812 14.9727C23.2812 16.0319 23.4254 16.9459 23.7962 17.6279L25.1139 16.9112C24.9197 16.5541 24.7812 15.9368 24.7812 14.9727H23.2812ZM23.8011 17.6367C24.2411 18.4205 24.983 18.7988 25.877 18.7988V17.2988C25.4584 17.2988 25.2523 17.1576 25.1091 16.9024L23.8011 17.6367ZM25.877 18.7988C27.0311 18.7988 27.9626 18.3227 28.5044 17.3273L27.187 16.6102C26.9449 17.0549 26.564 17.2988 25.877 17.2988V18.7988ZM28.5063 17.3238C28.9924 16.4196 29.1836 15.031 29.1836 13.291H27.6836C27.6836 14.9963 27.4829 16.0596 27.1851 16.6137L28.5063 17.3238ZM29.1836 13.291V6.50977H27.6836V13.291H29.1836ZM28.4336 7.25977H33.7793V5.75977H28.4336V7.25977ZM33.0293 6.50977V22H34.5293V6.50977H33.0293ZM33.7793 21.25H29.7461V22.75H33.7793V21.25ZM39.877 22.082L39.9886 21.3403L39.9808 21.3393L39.877 22.082ZM37.2793 21.4121H36.5293V21.9337L37.0183 22.1152L37.2793 21.4121ZM37.2793 17.1328L37.5811 16.4462L36.5293 15.9839V17.1328H37.2793ZM40 18.0352L39.8245 18.7643L39.826 18.7647L40 18.0352ZM43.8965 16.873L43.4723 17.4916L43.4824 17.4985L43.4927 17.5051L43.8965 16.873ZM41.0801 15.6152L40.7954 16.3092L40.8029 16.3122L41.0801 15.6152ZM38.0996 13.6328L37.5014 14.0852L37.5041 14.0887L38.0996 13.6328ZM38.9199 7.43945L39.3587 8.04773L38.9199 7.43945ZM46.5078 6.57812L46.3224 7.3049L46.3311 7.30701L46.5078 6.57812ZM49.3105 7.54883L50.0019 7.83963L50.2871 7.16143L49.6146 6.8632L49.3105 7.54883ZM47.8613 10.9941L47.5543 11.6784L48.2549 11.9928L48.5527 11.2849L47.8613 10.9941ZM45.6055 10.1875L45.3983 10.9084L45.406 10.9105L45.6055 10.1875ZM42.8027 11.1719L42.4001 11.8046L42.4112 11.8117L42.4225 11.8183L42.8027 11.1719ZM45.4551 12.3066L45.7407 11.613L45.7299 11.6088L45.4551 12.3066ZM47.875 13.6191L47.4028 14.2019L47.4077 14.2058L47.875 13.6191ZM49.0508 15.1367L48.3598 15.4282L48.3625 15.4348L48.3654 15.4413L49.0508 15.1367ZM48.6836 17.2422C48.6836 18.7115 48.1953 19.7217 47.2883 20.402L48.1883 21.602C49.5417 20.5869 50.1836 19.0906 50.1836 17.2422H48.6836ZM47.2883 20.402C46.3382 21.1145 44.9001 21.5234 42.8711 21.5234V23.0234C45.0713 23.0234 46.878 22.5847 48.1883 21.602L47.2883 20.402ZM42.8711 21.5234C41.7483 21.5234 40.7893 21.4609 39.9886 21.3404L39.7653 22.8237C40.6599 22.9583 41.697 23.0234 42.8711 23.0234V21.5234ZM39.9808 21.3393C39.1919 21.229 38.3787 21.0201 37.5403 20.709L37.0183 22.1152C37.9482 22.4603 38.8667 22.6981 39.7731 22.8248L39.9808 21.3393ZM38.0293 21.4121V17.1328H36.5293V21.4121H38.0293ZM36.9775 17.8194C37.8521 18.2038 38.8018 18.5181 39.8245 18.7643L40.1755 17.306C39.2295 17.0782 38.3654 16.7909 37.5811 16.4462L36.9775 17.8194ZM39.826 18.7647C40.8596 19.0112 41.8039 19.1406 42.6523 19.1406V17.6406C41.9514 17.6406 41.1274 17.533 40.174 17.3056L39.826 18.7647ZM42.6523 19.1406C43.2647 19.1406 43.8288 19.0744 44.2662 18.8746C44.4941 18.7705 44.7185 18.6162 44.8859 18.3867C45.0594 18.1492 45.1387 17.8758 45.1387 17.5977H43.6387C43.6387 17.5838 43.6456 17.5418 43.6744 17.5024C43.6971 17.4712 43.7044 17.4821 43.643 17.5102C43.5016 17.5747 43.1975 17.6406 42.6523 17.6406V19.1406ZM45.1387 17.5977C45.1387 16.969 44.7444 16.5248 44.3003 16.241L43.4927 17.5051C43.5981 17.5724 43.636 17.6193 43.6452 17.6328C43.6489 17.6383 43.6464 17.6359 43.6433 17.6262C43.6401 17.6161 43.6387 17.6056 43.6387 17.5977H45.1387ZM44.3206 16.2545C44.0974 16.1015 43.7235 15.9172 43.259 15.7097C42.7761 15.4941 42.141 15.23 41.3572 14.9183L40.8029 16.3122C41.5778 16.6203 42.1914 16.8757 42.6473 17.0793C43.1216 17.2912 43.3765 17.4259 43.4723 17.4916L44.3206 16.2545ZM41.3647 14.9214C39.9943 14.3591 39.1429 13.7619 38.6952 13.177L37.5041 14.0887C38.1866 14.9803 39.3221 15.7047 40.7954 16.3091L41.3647 14.9214ZM38.6979 13.1805C38.251 12.5895 38.002 11.8149 38.002 10.8027H36.502C36.502 12.0692 36.818 13.1814 37.5014 14.0851L38.6979 13.1805ZM38.002 10.8027C38.002 9.58933 38.4534 8.70068 39.3587 8.04773L38.4812 6.83118C37.1624 7.7824 36.502 9.13593 36.502 10.8027H38.002ZM39.3587 8.04773C40.2947 7.37256 41.6894 6.98633 43.6367 6.98633V5.48633C41.5189 5.48633 39.7691 5.90218 38.4812 6.83118L39.3587 8.04773ZM43.6367 6.98633C44.6016 6.98633 45.4959 7.09399 46.3224 7.30485L46.6932 5.8514C45.7333 5.60653 44.7135 5.48633 43.6367 5.48633V6.98633ZM46.3311 7.30701C47.1843 7.51385 48.0759 7.82183 49.0065 8.23445L49.6146 6.8632C48.6129 6.41906 47.636 6.0799 46.6845 5.84924L46.3311 7.30701ZM48.6192 7.25803L47.17 10.7033L48.5527 11.2849L50.0019 7.83963L48.6192 7.25803ZM48.1684 10.3099C47.4207 9.9744 46.6327 9.69285 45.8049 9.46451L45.406 10.9105C46.1642 11.1197 46.88 11.3759 47.5543 11.6784L48.1684 10.3099ZM45.8126 9.46667C44.9897 9.23021 44.2659 9.0957 43.6641 9.0957V10.5957C44.0648 10.5957 44.6353 10.6891 45.3983 10.9083L45.8126 9.46667ZM43.6641 9.0957C43.1894 9.0957 42.7234 9.1499 42.3499 9.33274C42.1528 9.42924 41.9579 9.57313 41.8136 9.78506C41.6656 10.0025 41.6016 10.2467 41.6016 10.4883H43.1016C43.1016 10.5157 43.0922 10.5725 43.0535 10.6292C43.0186 10.6805 42.9878 10.6906 43.0095 10.68C43.0337 10.6681 43.0946 10.645 43.2106 10.6261C43.3246 10.6075 43.4739 10.5957 43.6641 10.5957V9.0957ZM41.6016 10.4883C41.6016 11.0948 41.967 11.529 42.4001 11.8046L43.2054 10.5391C43.118 10.4835 43.0925 10.4476 43.0903 10.4443C43.0899 10.4436 43.0936 10.4493 43.097 10.4605C43.1005 10.472 43.1016 10.4821 43.1016 10.4883H41.6016ZM42.4225 11.8183C42.7953 12.0376 43.7457 12.4396 45.1803 13.0045L45.7299 11.6088C44.2478 11.0252 43.43 10.6707 43.183 10.5254L42.4225 11.8183ZM45.1695 13.0001C46.228 13.436 46.9571 13.8407 47.4028 14.2018L48.3472 13.0364C47.7356 12.5408 46.8514 12.0705 45.7406 11.6131L45.1695 13.0001ZM47.4077 14.2058C47.856 14.5629 48.1665 14.9702 48.3598 15.4282L49.7418 14.8452C49.4429 14.1366 48.9695 13.5321 48.3423 13.0325L47.4077 14.2058ZM48.3654 15.4413C48.5667 15.8942 48.6836 16.4857 48.6836 17.2422H50.1836C50.1836 16.3398 50.0453 15.5277 49.7361 14.8321L48.3654 15.4413ZM57.7734 22V22.75H58.5234V22H57.7734ZM52.4277 22H51.6777V22.75H52.4277V22ZM52.4277 6.50977V5.75977H51.6777V6.50977H52.4277ZM57.7734 6.50977H58.5234V5.75977H57.7734V6.50977ZM57.2949 0.876953L56.7994 1.43999L57.2949 0.876953ZM57.7734 21.25H52.4277V22.75H57.7734V21.25ZM53.1777 22V6.50977H51.6777V22H53.1777ZM52.4277 7.25977H57.7734V5.75977H52.4277V7.25977ZM57.0234 6.50977V22H58.5234V6.50977H57.0234ZM53.041 2.6543C53.041 1.98876 53.2227 1.63143 53.4556 1.427L52.4662 0.299562C51.806 0.878983 51.541 1.71567 51.541 2.6543H53.041ZM53.4556 1.427C53.6992 1.21326 54.1963 1.02539 55.1211 1.02539V-0.474609C54.0589 -0.474609 53.1159 -0.270549 52.4662 0.299562L53.4556 1.427ZM55.1211 1.02539C56.0408 1.02539 56.5447 1.21579 56.7994 1.43999L57.7904 0.313918C57.1337 -0.263967 56.1883 -0.474609 55.1211 -0.474609V1.02539ZM56.7994 1.43999C57.0491 1.65969 57.2285 2.01902 57.2285 2.6543H58.7285C58.7285 1.72186 58.4522 0.896296 57.7904 0.313918L56.7994 1.43999ZM57.2285 2.6543C57.2285 3.27984 57.0455 3.62656 56.7876 3.83886C56.5016 4.07419 55.9896 4.25586 55.1211 4.25586V5.75586C56.1575 5.75586 57.0742 5.5456 57.7407 4.99708C58.4352 4.42552 58.7285 3.59646 58.7285 2.6543H57.2285ZM55.1211 4.25586C54.263 4.25586 53.759 4.07474 53.4779 3.84112C53.2233 3.6296 53.041 3.28223 53.041 2.6543H51.541C51.541 3.59407 51.8304 4.42248 52.5192 4.99482C53.1814 5.54505 54.0925 5.75586 55.1211 5.75586V4.25586ZM71.2812 22H70.5312V22.75H71.2812V22ZM70.8301 11.2266L70.1734 11.5889L70.1771 11.5956L70.181 11.6023L70.8301 11.2266ZM67.4531 11.5137L66.7979 11.1487L67.4531 11.5137ZM66.8516 22V22.75H67.6016V22H66.8516ZM61.5059 22H60.7559V22.75H61.5059V22ZM61.5059 6.50977V5.75977H60.7559V6.50977H61.5059ZM65.5391 6.50977L66.247 6.262L66.0712 5.75977H65.5391V6.50977ZM66.209 8.42383L65.5011 8.67159L65.6769 9.17383H66.209V8.42383ZM66.5234 8.42383V9.17383H66.9391L67.1594 8.82133L66.5234 8.42383ZM68.4102 6.7832L68.1027 6.09911L68.0998 6.10043L68.4102 6.7832ZM75.1914 7.72656L74.6488 8.24431L74.6513 8.24689L75.1914 7.72656ZM76.627 22V22.75H77.377V22H76.627ZM72.0312 22V13.5508H70.5312V22H72.0312ZM72.0312 13.5508C72.0312 12.4716 71.8779 11.5395 71.4791 10.8508L70.181 11.6023C70.3839 11.9527 70.5312 12.5701 70.5312 13.5508H72.0312ZM71.4868 10.8643C71.0496 10.072 70.3085 9.68359 69.4082 9.68359V11.1836C69.8204 11.1836 70.0272 11.3239 70.1734 11.5889L71.4868 10.8643ZM69.4082 9.68359C68.2653 9.68359 67.346 10.1646 66.7979 11.1487L68.1084 11.8786C68.3623 11.4226 68.7464 11.1836 69.4082 11.1836V9.68359ZM66.7979 11.1487C66.2963 12.0493 66.1016 13.4543 66.1016 15.2188H67.6016C67.6016 13.4832 67.8078 12.4182 68.1084 11.8786L66.7979 11.1487ZM66.1016 15.2188V22H67.6016V15.2188H66.1016ZM66.8516 21.25H61.5059V22.75H66.8516V21.25ZM62.2559 22V6.50977H60.7559V22H62.2559ZM61.5059 7.25977H65.5391V5.75977H61.5059V7.25977ZM64.8312 6.75753L65.5011 8.67159L66.9169 8.17607L66.247 6.262L64.8312 6.75753ZM66.209 9.17383H66.5234V7.67383H66.209V9.17383ZM67.1594 8.82133C67.535 8.22042 68.0491 7.77114 68.7205 7.46598L68.0998 6.10043C67.167 6.52443 66.4233 7.1689 65.8874 8.02633L67.1594 8.82133ZM68.7176 7.46729C69.4164 7.15322 70.2383 6.98633 71.1992 6.98633V5.48633C70.0638 5.48633 69.0263 5.68402 68.1027 6.09912L68.7176 7.46729ZM71.1992 6.98633C72.7619 6.98633 73.8758 7.4342 74.6488 8.2443L75.734 7.20882C74.6111 6.03194 73.0637 5.48633 71.1992 5.48633V6.98633ZM74.6513 8.24689C75.4361 9.06164 75.877 10.2513 75.877 11.9238H77.377C77.377 9.98694 76.8608 8.37846 75.7316 7.20624L74.6513 8.24689ZM75.877 11.9238V22H77.377V11.9238H75.877ZM76.627 21.25H71.2812V22.75H76.627V21.25ZM81.7266 20.2227L81.2049 20.7616L81.2085 20.7649L81.7266 20.2227ZM81.5762 8.3418L82.1205 8.85771L82.1222 8.85593L81.5762 8.3418ZM92.6367 8.06836L92.1162 8.60833L92.1202 8.61211L92.6367 8.06836ZM94.5508 15.6973V16.4473H95.3008V15.6973H94.5508ZM84.9941 15.6973V14.9473H84.2119L84.2448 15.7288L84.9941 15.6973ZM85.9375 17.7344L85.4582 18.3113L85.4626 18.3148L85.9375 17.7344ZM90.9688 18.2129L91.1306 18.9453L91.1368 18.9438L90.9688 18.2129ZM93.5391 17.2969H94.2891V16.1206L93.2226 16.6169L93.5391 17.2969ZM93.5391 21.1387L93.8803 21.8066L94.2891 21.5977V21.1387H93.5391ZM85.8418 10.4746L86.354 11.0225L86.3544 11.0221L85.8418 10.4746ZM85.1035 12.334L84.3563 12.2697L84.2862 13.084H85.1035V12.334ZM89.6973 12.334V13.084H90.4658L90.447 12.3157L89.6973 12.334ZM89.0547 10.543L88.4966 11.0441L88.5023 11.0503L89.0547 10.543ZM87.7422 21.5234C85.2952 21.5234 83.4977 20.8776 82.2447 19.6804L81.2085 20.7649C82.8174 22.3021 85.0303 23.0234 87.7422 23.0234V21.5234ZM82.2482 19.6838C81.0104 18.4856 80.3438 16.7481 80.3438 14.3574H78.8438C78.8438 17.0344 79.599 19.2071 81.2049 20.7616L82.2482 19.6838ZM80.3438 14.3574C80.3438 11.8629 80.9726 10.069 82.1205 8.8577L81.0318 7.82589C79.5365 9.40369 78.8438 11.6202 78.8438 14.3574H80.3438ZM82.1222 8.85593C83.2659 7.64128 84.9317 6.98633 87.2363 6.98633V5.48633C84.6373 5.48633 82.5297 6.23502 81.0301 7.82766L82.1222 8.85593ZM87.2363 6.98633C89.4406 6.98633 91.0298 7.561 92.1162 8.60831L93.1572 7.52841C91.7098 6.13301 89.6987 5.48633 87.2363 5.48633V6.98633ZM92.1202 8.61211C93.2059 9.6436 93.8008 11.1714 93.8008 13.3184H95.3008C95.3008 10.8898 94.6196 8.9176 93.1533 7.52461L92.1202 8.61211ZM93.8008 13.3184V15.6973H95.3008V13.3184H93.8008ZM94.5508 14.9473H84.9941V16.4473H94.5508V14.9473ZM84.2448 15.7288C84.2889 16.7771 84.6814 17.6659 85.4582 18.3113L86.4168 17.1575C86.0087 16.8185 85.7723 16.3492 85.7435 15.6657L84.2448 15.7288ZM85.4626 18.3148C86.2362 18.9478 87.2383 19.2227 88.3848 19.2227V17.7227C87.4713 17.7227 86.8419 17.5053 86.4124 17.1539L85.4626 18.3148ZM88.3848 19.2227C89.3691 19.2227 90.2855 19.1319 91.1305 18.9452L90.807 17.4806C90.0843 17.6402 89.2781 17.7227 88.3848 17.7227V19.2227ZM91.1368 18.9438C91.9916 18.7473 92.8985 18.4222 93.8555 17.9769L93.2226 16.6169C92.3385 17.0283 91.5318 17.3139 90.8007 17.482L91.1368 18.9438ZM92.7891 17.2969V21.1387H94.2891V17.2969H92.7891ZM93.1979 20.4708C92.4217 20.8673 91.6249 21.1392 90.8059 21.2897L91.0769 22.765C92.0443 22.5873 92.9793 22.2668 93.8803 21.8066L93.1979 20.4708ZM90.8059 21.2897C89.9702 21.4432 88.9515 21.5234 87.7422 21.5234V23.0234C89.012 23.0234 90.1262 22.9396 91.0769 22.765L90.8059 21.2897ZM87.4277 9.12305C86.6234 9.12305 85.9071 9.38608 85.3292 9.92709L86.3544 11.0221C86.6332 10.7611 86.9742 10.623 87.4277 10.623V9.12305ZM85.3296 9.92671C84.7223 10.4944 84.4376 11.3245 84.3563 12.2697L85.8508 12.3983C85.9153 11.6482 86.1227 11.2387 86.354 11.0225L85.3296 9.92671ZM85.1035 13.084H89.6973V11.584H85.1035V13.084ZM90.447 12.3157C90.4255 11.4308 90.1669 10.6452 89.6071 10.0357L88.5023 11.0503C88.7628 11.334 88.9326 11.7424 88.9475 12.3523L90.447 12.3157ZM89.6127 10.0419C89.0489 9.41403 88.2915 9.12305 87.4277 9.12305V10.623C87.9311 10.623 88.2583 10.7787 88.4967 11.0441L89.6127 10.0419ZM99.9785 22.082L100.09 21.3403L100.082 21.3393L99.9785 22.082ZM97.3809 21.4121H96.6309V21.9337L97.1199 22.1152L97.3809 21.4121ZM97.3809 17.1328L97.6827 16.4462L96.6309 15.9839V17.1328H97.3809ZM100.102 18.0352L99.926 18.7643L99.9275 18.7647L100.102 18.0352ZM103.998 16.873L103.574 17.4916L103.584 17.4985L103.594 17.5051L103.998 16.873ZM101.182 15.6152L100.897 16.3092L100.905 16.3122L101.182 15.6152ZM98.2012 13.6328L97.6029 14.0852L97.6056 14.0887L98.2012 13.6328ZM99.0215 7.43945L99.4602 8.04773L99.0215 7.43945ZM106.609 6.57812L106.424 7.3049L106.433 7.30701L106.609 6.57812ZM109.412 7.54883L110.103 7.83963L110.389 7.16143L109.716 6.8632L109.412 7.54883ZM107.963 10.9941L107.656 11.6784L108.356 11.9928L108.654 11.2849L107.963 10.9941ZM105.707 10.1875L105.5 10.9084L105.508 10.9105L105.707 10.1875ZM102.904 11.1719L102.502 11.8046L102.513 11.8117L102.524 11.8183L102.904 11.1719ZM105.557 12.3066L105.842 11.613L105.831 11.6088L105.557 12.3066ZM107.977 13.6191L107.504 14.2019L107.509 14.2058L107.977 13.6191ZM109.152 15.1367L108.461 15.4282L108.464 15.4348L108.467 15.4413L109.152 15.1367ZM108.785 17.2422C108.785 18.7115 108.297 19.7217 107.39 20.402L108.29 21.602C109.643 20.5869 110.285 19.0906 110.285 17.2422H108.785ZM107.39 20.402C106.44 21.1145 105.002 21.5234 102.973 21.5234V23.0234C105.173 23.0234 106.98 22.5847 108.29 21.602L107.39 20.402ZM102.973 21.5234C101.85 21.5234 100.891 21.4609 100.09 21.3404L99.8669 22.8237C100.761 22.9583 101.799 23.0234 102.973 23.0234V21.5234ZM100.082 21.3393C99.2935 21.229 98.4802 21.0201 97.6418 20.709L97.1199 22.1152C98.0497 22.4603 98.9683 22.6981 99.8747 22.8248L100.082 21.3393ZM98.1309 21.4121V17.1328H96.6309V21.4121H98.1309ZM97.0791 17.8194C97.9537 18.2038 98.9033 18.5181 99.926 18.7643L100.277 17.306C99.331 17.0782 98.4669 16.7909 97.6827 16.4462L97.0791 17.8194ZM99.9275 18.7647C100.961 19.0112 101.905 19.1406 102.754 19.1406V17.6406C102.053 17.6406 101.229 17.533 100.276 17.3056L99.9275 18.7647ZM102.754 19.1406C103.366 19.1406 103.93 19.0744 104.368 18.8746C104.596 18.7705 104.82 18.6162 104.988 18.3867C105.161 18.1492 105.24 17.8758 105.24 17.5977H103.74C103.74 17.5838 103.747 17.5418 103.776 17.5024C103.799 17.4712 103.806 17.4821 103.745 17.5102C103.603 17.5747 103.299 17.6406 102.754 17.6406V19.1406ZM105.24 17.5977C105.24 16.969 104.846 16.5248 104.402 16.241L103.594 17.5051C103.7 17.5724 103.738 17.6193 103.747 17.6328C103.75 17.6383 103.748 17.6359 103.745 17.6262C103.742 17.6161 103.74 17.6056 103.74 17.5977H105.24ZM104.422 16.2545C104.199 16.1015 103.825 15.9172 103.361 15.7097C102.878 15.4941 102.243 15.23 101.459 14.9183L100.905 16.3122C101.679 16.6203 102.293 16.8757 102.749 17.0793C103.223 17.2912 103.478 17.4259 103.574 17.4916L104.422 16.2545ZM101.466 14.9214C100.096 14.3591 99.2444 13.7619 98.7967 13.177L97.6056 14.0887C98.2881 14.9803 99.4237 15.7047 100.897 16.3091L101.466 14.9214ZM98.7994 13.1805C98.3526 12.5895 98.1035 11.8149 98.1035 10.8027H96.6035C96.6035 12.0692 96.9196 13.1814 97.6029 14.0851L98.7994 13.1805ZM98.1035 10.8027C98.1035 9.58933 98.555 8.70068 99.4602 8.04773L98.5827 6.83118C97.264 7.7824 96.6035 9.13593 96.6035 10.8027H98.1035ZM99.4602 8.04773C100.396 7.37256 101.791 6.98633 103.738 6.98633V5.48633C101.62 5.48633 99.8707 5.90218 98.5827 6.83118L99.4602 8.04773ZM103.738 6.98633C104.703 6.98633 105.597 7.09399 106.424 7.30485L106.795 5.8514C105.835 5.60653 104.815 5.48633 103.738 5.48633V6.98633ZM106.433 7.30701C107.286 7.51385 108.177 7.82183 109.108 8.23445L109.716 6.8632C108.714 6.41906 107.738 6.0799 106.786 5.84924L106.433 7.30701ZM108.721 7.25803L107.272 10.7033L108.654 11.2849L110.103 7.83963L108.721 7.25803ZM108.27 10.3099C107.522 9.9744 106.734 9.69285 105.906 9.46451L105.508 10.9105C106.266 11.1197 106.982 11.3759 107.656 11.6784L108.27 10.3099ZM105.914 9.46667C105.091 9.23021 104.367 9.0957 103.766 9.0957V10.5957C104.166 10.5957 104.737 10.6891 105.5 10.9083L105.914 9.46667ZM103.766 9.0957C103.291 9.0957 102.825 9.1499 102.451 9.33274C102.254 9.42924 102.06 9.57313 101.915 9.78506C101.767 10.0025 101.703 10.2467 101.703 10.4883H103.203C103.203 10.5157 103.194 10.5725 103.155 10.6292C103.12 10.6805 103.089 10.6906 103.111 10.68C103.135 10.6681 103.196 10.645 103.312 10.6261C103.426 10.6075 103.575 10.5957 103.766 10.5957V9.0957ZM101.703 10.4883C101.703 11.0948 102.069 11.529 102.502 11.8046L103.307 10.5391C103.22 10.4835 103.194 10.4476 103.192 10.4443C103.191 10.4436 103.195 10.4493 103.199 10.4605C103.202 10.472 103.203 10.4821 103.203 10.4883H101.703ZM102.524 11.8183C102.897 12.0376 103.847 12.4396 105.282 13.0045L105.831 11.6088C104.349 11.0252 103.532 10.6707 103.285 10.5254L102.524 11.8183ZM105.271 13.0001C106.33 13.436 107.059 13.8407 107.504 14.2018L108.449 13.0364C107.837 12.5408 106.953 12.0705 105.842 11.6131L105.271 13.0001ZM107.509 14.2058C107.958 14.5629 108.268 14.9702 108.461 15.4282L109.843 14.8452C109.544 14.1366 109.071 13.5321 108.444 13.0325L107.509 14.2058ZM108.467 15.4413C108.668 15.8942 108.785 16.4857 108.785 17.2422H110.285C110.285 16.3398 110.147 15.5277 109.838 14.8321L108.467 15.4413ZM114.908 22.082L115.02 21.3403L115.012 21.3393L114.908 22.082ZM112.311 21.4121H111.561V21.9337L112.05 22.1152L112.311 21.4121ZM112.311 17.1328L112.612 16.4462L111.561 15.9839V17.1328H112.311ZM115.031 18.0352L114.856 18.7643L114.857 18.7647L115.031 18.0352ZM118.928 16.873L118.504 17.4916L118.514 17.4985L118.524 17.5051L118.928 16.873ZM116.111 15.6152L115.827 16.3092L115.834 16.3122L116.111 15.6152ZM113.131 13.6328L112.533 14.0852L112.535 14.0887L113.131 13.6328ZM113.951 7.43945L114.39 8.04773L113.951 7.43945ZM121.539 6.57812L121.354 7.3049L121.362 7.30701L121.539 6.57812ZM124.342 7.54883L125.033 7.83963L125.318 7.16143L124.646 6.8632L124.342 7.54883ZM122.893 10.9941L122.586 11.6784L123.286 11.9928L123.584 11.2849L122.893 10.9941ZM120.637 10.1875L120.43 10.9084L120.437 10.9105L120.637 10.1875ZM117.834 11.1719L117.431 11.8046L117.442 11.8117L117.454 11.8183L117.834 11.1719ZM120.486 12.3066L120.772 11.613L120.761 11.6088L120.486 12.3066ZM122.906 13.6191L122.434 14.2019L122.439 14.2058L122.906 13.6191ZM124.082 15.1367L123.391 15.4282L123.394 15.4348L123.397 15.4413L124.082 15.1367ZM123.715 17.2422C123.715 18.7115 123.227 19.7217 122.32 20.402L123.22 21.602C124.573 20.5869 125.215 19.0906 125.215 17.2422H123.715ZM122.32 20.402C121.369 21.1145 119.931 21.5234 117.902 21.5234V23.0234C120.103 23.0234 121.909 22.5847 123.22 21.602L122.32 20.402ZM117.902 21.5234C116.78 21.5234 115.821 21.4609 115.02 21.3404L114.797 22.8237C115.691 22.9583 116.728 23.0234 117.902 23.0234V21.5234ZM115.012 21.3393C114.223 21.229 113.41 21.0201 112.572 20.709L112.05 22.1152C112.979 22.4603 113.898 22.6981 114.804 22.8248L115.012 21.3393ZM113.061 21.4121V17.1328H111.561V21.4121H113.061ZM112.009 17.8194C112.883 18.2038 113.833 18.5181 114.856 18.7643L115.207 17.306C114.261 17.0782 113.397 16.7909 112.612 16.4462L112.009 17.8194ZM114.857 18.7647C115.891 19.0112 116.835 19.1406 117.684 19.1406V17.6406C116.983 17.6406 116.159 17.533 115.205 17.3056L114.857 18.7647ZM117.684 19.1406C118.296 19.1406 118.86 19.0744 119.297 18.8746C119.525 18.7705 119.75 18.6162 119.917 18.3867C120.091 18.1492 120.17 17.8758 120.17 17.5977H118.67C118.67 17.5838 118.677 17.5418 118.706 17.5024C118.728 17.4712 118.736 17.4821 118.674 17.5102C118.533 17.5747 118.229 17.6406 117.684 17.6406V19.1406ZM120.17 17.5977C120.17 16.969 119.776 16.5248 119.332 16.241L118.524 17.5051C118.629 17.5724 118.667 17.6193 118.676 17.6328C118.68 17.6383 118.678 17.6359 118.675 17.6262C118.671 17.6161 118.67 17.6056 118.67 17.5977H120.17ZM119.352 16.2545C119.129 16.1015 118.755 15.9172 118.29 15.7097C117.807 15.4941 117.172 15.23 116.388 14.9183L115.834 16.3122C116.609 16.6203 117.223 16.8757 117.679 17.0793C118.153 17.2912 118.408 17.4259 118.504 17.4916L119.352 16.2545ZM116.396 14.9214C115.026 14.3591 114.174 13.7619 113.726 13.177L112.535 14.0887C113.218 14.9803 114.353 15.7047 115.827 16.3091L116.396 14.9214ZM113.729 13.1805C113.282 12.5895 113.033 11.8149 113.033 10.8027H111.533C111.533 12.0692 111.849 13.1814 112.533 14.0851L113.729 13.1805ZM113.033 10.8027C113.033 9.58933 113.485 8.70068 114.39 8.04773L113.512 6.83118C112.194 7.7824 111.533 9.13593 111.533 10.8027H113.033ZM114.39 8.04773C115.326 7.37256 116.721 6.98633 118.668 6.98633V5.48633C116.55 5.48633 114.8 5.90218 113.512 6.83118L114.39 8.04773ZM118.668 6.98633C119.633 6.98633 120.527 7.09399 121.354 7.30485L121.724 5.8514C120.765 5.60653 119.745 5.48633 118.668 5.48633V6.98633ZM121.362 7.30701C122.216 7.51385 123.107 7.82183 124.038 8.23445L124.646 6.8632C123.644 6.41906 122.667 6.0799 121.716 5.84924L121.362 7.30701ZM123.65 7.25803L122.201 10.7033L123.584 11.2849L125.033 7.83963L123.65 7.25803ZM123.2 10.3099C122.452 9.9744 121.664 9.69285 120.836 9.46451L120.437 10.9105C121.195 11.1197 121.911 11.3759 122.586 11.6784L123.2 10.3099ZM120.844 9.46667C120.021 9.23021 119.297 9.0957 118.695 9.0957V10.5957C119.096 10.5957 119.667 10.6891 120.43 10.9083L120.844 9.46667ZM118.695 9.0957C118.221 9.0957 117.755 9.1499 117.381 9.33274C117.184 9.42924 116.989 9.57313 116.845 9.78506C116.697 10.0025 116.633 10.2467 116.633 10.4883H118.133C118.133 10.5157 118.123 10.5725 118.085 10.6292C118.05 10.6805 118.019 10.6906 118.041 10.68C118.065 10.6681 118.126 10.645 118.242 10.6261C118.356 10.6075 118.505 10.5957 118.695 10.5957V9.0957ZM116.633 10.4883C116.633 11.0948 116.998 11.529 117.431 11.8046L118.237 10.5391C118.149 10.4835 118.124 10.4476 118.122 10.4443C118.121 10.4436 118.125 10.4493 118.128 10.4605C118.132 10.472 118.133 10.4821 118.133 10.4883H116.633ZM117.454 11.8183C117.827 12.0376 118.777 12.4396 120.212 13.0045L120.761 11.6088C119.279 11.0252 118.461 10.6707 118.214 10.5254L117.454 11.8183ZM120.201 13.0001C121.259 13.436 121.988 13.8407 122.434 14.2018L123.378 13.0364C122.767 12.5408 121.883 12.0705 120.772 11.6131L120.201 13.0001ZM122.439 14.2058C122.887 14.5629 123.198 14.9702 123.391 15.4282L124.773 14.8452C124.474 14.1366 124.001 13.5321 123.374 13.0325L122.439 14.2058ZM123.397 15.4413C123.598 15.8942 123.715 16.4857 123.715 17.2422H125.215C125.215 16.3398 125.077 15.5277 124.767 14.8321L123.397 15.4413ZM153.723 22H152.973V22.75H153.723V22ZM153.285 11.2266L152.624 11.5801L152.627 11.5869L152.631 11.5937L153.285 11.2266ZM149.553 22V22.75H150.303V22H149.553ZM144.193 22H143.443V22.75H144.193V22ZM143.783 11.2266L143.117 11.5711L143.12 11.5759L143.783 11.2266ZM140.051 22V22.75H140.801V22H140.051ZM134.705 22H133.955V22.75H134.705V22ZM134.705 6.50977V5.75977H133.955V6.50977H134.705ZM138.738 6.50977L139.446 6.262L139.27 5.75977H138.738V6.50977ZM139.408 8.42383L138.7 8.67159L138.876 9.17383H139.408V8.42383ZM139.723 8.42383V9.17383H140.156L140.372 8.79862L139.723 8.42383ZM141.5 6.79688L141.177 6.11987L141.174 6.12135L141.5 6.79688ZM148.869 8.27344L148.244 8.68849L148.467 9.02344H148.869V8.27344ZM149.293 8.27344V9.02344H149.688L149.912 8.69758L149.293 8.27344ZM151.111 6.7832L151.424 7.46488L151.428 7.46324L151.111 6.7832ZM157.756 7.64453L157.207 8.15589L157.756 7.64453ZM159.068 22V22.75H159.818V22H159.068ZM154.473 22V13.5781H152.973V22H154.473ZM154.473 13.5781C154.473 12.4857 154.325 11.5469 153.939 10.8594L152.631 11.5937C152.829 11.9453 152.973 12.5742 152.973 13.5781H154.473ZM153.947 10.873C153.75 10.5049 153.476 10.1966 153.114 9.98471C152.754 9.77365 152.35 9.68359 151.932 9.68359V11.1836C152.133 11.1836 152.265 11.2257 152.356 11.279C152.445 11.3314 152.538 11.4196 152.624 11.5801L153.947 10.873ZM151.932 9.68359C151.412 9.68359 150.922 9.79553 150.487 10.0489C150.052 10.303 149.716 10.6744 149.469 11.1272L150.785 11.8455C150.921 11.5965 151.077 11.4415 151.243 11.3446C151.41 11.2471 151.63 11.1836 151.932 11.1836V9.68359ZM149.469 11.1272C148.993 11.9984 148.803 13.2525 148.803 14.7812H150.303C150.303 13.3204 150.495 12.3779 150.785 11.8455L149.469 11.1272ZM148.803 14.7812V22H150.303V14.7812H148.803ZM149.553 21.25H144.193V22.75H149.553V21.25ZM144.943 22V13.5781H143.443V22H144.943ZM144.943 13.5781C144.943 12.4899 144.806 11.5589 144.447 10.8773L143.12 11.5759C143.308 11.9333 143.443 12.57 143.443 13.5781H144.943ZM144.449 10.882C144.259 10.5134 143.99 10.2025 143.631 9.98813C143.274 9.77445 142.873 9.68359 142.457 9.68359V11.1836C142.652 11.1836 142.777 11.2249 142.862 11.2755C142.945 11.3255 143.034 11.4111 143.117 11.5711L144.449 10.882ZM142.457 9.68359C141.924 9.68359 141.421 9.80361 140.979 10.0741C140.537 10.3446 140.201 10.7378 139.957 11.2128L141.293 11.8966C141.432 11.6242 141.593 11.4568 141.762 11.3536C141.93 11.2504 142.152 11.1836 142.457 11.1836V9.68359ZM139.957 11.2128C139.489 12.1278 139.301 13.5021 139.301 15.2188H140.801C140.801 13.5448 140.996 12.4764 141.293 11.8966L139.957 11.2128ZM139.301 15.2188V22H140.801V15.2188H139.301ZM140.051 21.25H134.705V22.75H140.051V21.25ZM135.455 22V6.50977H133.955V22H135.455ZM134.705 7.25977H138.738V5.75977H134.705V7.25977ZM138.03 6.75753L138.7 8.67159L140.116 8.17607L139.446 6.262L138.03 6.75753ZM139.408 9.17383H139.723V7.67383H139.408V9.17383ZM140.372 8.79862C140.703 8.22464 141.18 7.78397 141.826 7.4724L141.174 6.12135C140.271 6.55718 139.562 7.20114 139.073 8.04904L140.372 8.79862ZM141.823 7.47388C142.492 7.15472 143.268 6.98633 144.166 6.98633V5.48633C143.077 5.48633 142.076 5.69164 141.177 6.11987L141.823 7.47388ZM144.166 6.98633C146.25 6.98633 147.529 7.61225 148.244 8.68849L149.494 7.85838C148.404 6.21848 146.548 5.48633 144.166 5.48633V6.98633ZM148.869 9.02344H149.293V7.52344H148.869V9.02344ZM149.912 8.69758C150.265 8.18267 150.76 7.76969 151.424 7.46487L150.799 6.10153C149.913 6.50766 149.196 7.08816 148.674 7.84929L149.912 8.69758ZM151.428 7.46324C152.104 7.1486 152.856 6.98633 153.695 6.98633V5.48633C152.657 5.48633 151.686 5.68864 150.795 6.10316L151.428 7.46324ZM153.695 6.98633C155.41 6.98633 156.526 7.42487 157.207 8.15589L158.305 7.13317C157.236 5.98659 155.645 5.48633 153.695 5.48633V6.98633ZM157.207 8.15589C157.902 8.90097 158.318 10.1081 158.318 11.9238H159.818C159.818 9.9114 159.36 8.2657 158.305 7.13317L157.207 8.15589ZM158.318 11.9238V22H159.818V11.9238H158.318ZM159.068 21.25H153.723V22.75H159.068V21.25ZM175.447 20.1543L174.907 19.6345L174.907 19.6345L175.447 20.1543ZM164.113 20.0996L163.571 20.6179L163.573 20.6196L164.113 20.0996ZM164.072 8.3418L163.535 7.81849L163.535 7.81854L164.072 8.3418ZM173.848 7.20703L174.211 6.55117L173.848 7.20703ZM176.541 9.99609L175.875 10.3415L175.878 10.3475L176.541 9.99609ZM167.996 17.2695L167.327 17.6084L167.329 17.6119L167.996 17.2695ZM171.537 17.2695L170.865 16.9376L170.863 16.9412L171.537 17.2695ZM167.996 11.2266L168.658 11.58L168.66 11.5762L167.996 11.2266ZM176.748 14.2207C176.748 16.6181 176.104 18.3888 174.907 19.6345L175.988 20.6741C177.525 19.076 178.248 16.891 178.248 14.2207H176.748ZM174.907 19.6345C173.724 20.8651 172.035 21.5234 169.732 21.5234V23.0234C172.334 23.0234 174.455 22.269 175.988 20.6741L174.907 19.6345ZM169.732 21.5234C167.547 21.5234 165.883 20.8569 164.654 19.5796L163.573 20.6196C165.133 22.2408 167.214 23.0234 169.732 23.0234V21.5234ZM164.655 19.5813C163.433 18.3024 162.785 16.5449 162.785 14.2207H161.285C161.285 16.8366 162.023 18.9983 163.571 20.6179L164.655 19.5813ZM162.785 14.2207C162.785 11.8311 163.425 10.0816 164.61 8.86506L163.535 7.81854C162.004 9.39108 161.285 11.5608 161.285 14.2207H162.785ZM164.61 8.8651C165.801 7.64147 167.501 6.98633 169.814 6.98633V5.48633C167.206 5.48633 165.078 6.23483 163.535 7.81849L164.61 8.8651ZM169.814 6.98633C171.227 6.98633 172.443 7.28575 173.484 7.86289L174.211 6.55117C172.919 5.83404 171.446 5.48633 169.814 5.48633V6.98633ZM173.484 7.86289C174.518 8.4367 175.313 9.25689 175.875 10.3415L177.207 9.65071C176.512 8.31082 175.51 7.27163 174.211 6.55117L173.484 7.86289ZM175.878 10.3475C176.449 11.424 176.748 12.7074 176.748 14.2207H178.248C178.248 12.5075 177.909 10.9744 177.204 9.64472L175.878 10.3475ZM166.713 14.2207C166.713 15.5981 166.894 16.7526 167.327 17.6084L168.665 16.9307C168.388 16.3828 168.213 15.5047 168.213 14.2207H166.713ZM167.329 17.6119C167.564 18.0693 167.896 18.4433 168.334 18.6976C168.769 18.95 169.264 19.0586 169.787 19.0586V17.5586C169.472 17.5586 169.249 17.494 169.087 17.4001C168.928 17.308 168.784 17.1625 168.663 16.9271L167.329 17.6119ZM169.787 19.0586C170.307 19.0586 170.799 18.9495 171.23 18.6937C171.664 18.4359 171.988 18.0575 172.211 17.5978L170.863 16.9412C170.749 17.1743 170.613 17.3154 170.464 17.4039C170.311 17.4945 170.097 17.5586 169.787 17.5586V19.0586ZM172.21 17.6014C172.631 16.748 172.807 15.5965 172.807 14.2207H171.307C171.307 15.5064 171.136 16.3874 170.865 16.9376L172.21 17.6014ZM172.807 14.2207C172.807 12.8563 172.632 11.7162 172.204 10.884L170.87 11.5692C171.135 12.0859 171.307 12.9419 171.307 14.2207H172.807ZM172.204 10.884C171.972 10.4321 171.641 10.0646 171.204 9.81598C170.771 9.56975 170.279 9.46484 169.76 9.46484V10.9648C170.079 10.9648 170.302 11.0286 170.462 11.1196C170.618 11.2081 170.756 11.3465 170.87 11.5692L172.204 10.884ZM169.76 9.46484C169.246 9.46484 168.76 9.571 168.33 9.81721C167.898 10.0652 167.568 10.43 167.333 10.8769L168.66 11.5762C168.78 11.3486 168.921 11.2076 169.077 11.1183C169.235 11.0273 169.453 10.9648 169.76 10.9648V9.46484ZM167.335 10.8732C166.892 11.7014 166.713 12.8477 166.713 14.2207H168.213C168.213 12.9323 168.389 12.0825 168.658 11.58L167.335 10.8732ZM182.475 21.3301L182.018 21.9253L182.021 21.9277L182.475 21.3301ZM180.561 18.5547L179.856 18.8123L179.858 18.8169L180.561 18.5547ZM187.848 6.75586L187.494 7.41712L187.498 7.41915L187.848 6.75586ZM189.639 8.50586L189.011 8.91705L189.234 9.25586H189.639V8.50586ZM189.748 8.50586V9.25586H190.613L190.491 8.39979L189.748 8.50586ZM189.488 0.726562V-0.0234375H188.738V0.726562H189.488ZM194.875 0.726562H195.625V-0.0234375H194.875V0.726562ZM194.875 22V22.75H195.625V22H194.875ZM190.842 22L190.195 22.3799L190.413 22.75H190.842V22ZM189.693 20.0449L190.34 19.6651L190.123 19.2949H189.693V20.0449ZM189.488 20.0449V19.2949H189.071L188.851 19.6499L189.488 20.0449ZM189.365 17.2422L188.74 16.8286L188.735 16.8361L189.365 17.2422ZM189.939 14.7539L190.689 14.7722L190.689 14.7631V14.7539H189.939ZM189.352 11.418L188.729 11.8362L188.732 11.8408L189.352 11.418ZM185.865 11.541L185.219 11.1604L185.217 11.1631L185.865 11.541ZM185.879 17.1055L186.515 16.7088L185.879 17.1055ZM185.373 21.5234C184.423 21.5234 183.619 21.2564 182.928 20.7325L182.021 21.9277C182.989 22.6616 184.117 23.0234 185.373 23.0234V21.5234ZM182.931 20.7349C182.248 20.2114 181.682 19.4161 181.263 18.2925L179.858 18.8169C180.35 20.136 181.06 21.1909 182.018 21.9253L182.931 20.7349ZM181.265 18.2971C180.855 17.1763 180.641 15.8405 180.641 14.2754H179.141C179.141 15.9733 179.373 17.4904 179.856 18.8123L181.265 18.2971ZM180.641 14.2754C180.641 11.8496 181.13 10.054 182.019 8.80396L180.797 7.93432C179.663 9.52806 179.141 11.6699 179.141 14.2754H180.641ZM182.019 8.80396C182.888 7.58293 184.049 6.98633 185.578 6.98633V5.48633C183.571 5.48633 181.952 6.3116 180.797 7.93432L182.019 8.80396ZM185.578 6.98633C186.343 6.98633 186.973 7.13866 187.494 7.41711L188.202 6.09461C187.428 5.68035 186.545 5.48633 185.578 5.48633V6.98633ZM187.498 7.41915C188.011 7.69024 188.522 8.16986 189.011 8.91705L190.266 8.09467C189.68 7.20123 188.997 6.51419 188.198 6.09257L187.498 7.41915ZM189.639 9.25586H189.748V7.75586H189.639V9.25586ZM190.491 8.39979C190.322 7.22233 190.238 6.04553 190.238 4.86914H188.738C188.738 6.11723 188.827 7.36491 189.006 8.61193L190.491 8.39979ZM190.238 4.86914V0.726562H188.738V4.86914H190.238ZM189.488 1.47656H194.875V-0.0234375H189.488V1.47656ZM194.125 0.726562V22H195.625V0.726562H194.125ZM194.875 21.25H190.842V22.75H194.875V21.25ZM191.488 21.6201L190.34 19.6651L189.047 20.4248L190.195 22.3799L191.488 21.6201ZM189.693 19.2949H189.488V20.7949H189.693V19.2949ZM188.851 19.6499C188.074 20.9036 186.95 21.5234 185.373 21.5234V23.0234C187.442 23.0234 189.062 22.1576 190.126 20.44L188.851 19.6499ZM187.561 18.7988C188.576 18.7988 189.466 18.4705 189.996 17.6483L188.735 16.8361C188.572 17.0894 188.259 17.2988 187.561 17.2988V18.7988ZM189.991 17.6558C190.462 16.9424 190.661 15.9428 190.689 14.7722L189.19 14.7356C189.164 15.8072 188.979 16.4664 188.74 16.8286L189.991 17.6558ZM190.689 14.7539V14.3301H189.189V14.7539H190.689ZM190.689 14.3301C190.689 12.9338 190.497 11.7664 189.971 10.9952L188.732 11.8408C188.99 12.2179 189.189 12.992 189.189 14.3301H190.689ZM189.974 10.9997C189.415 10.1669 188.539 9.79297 187.506 9.79297V11.293C188.15 11.293 188.505 11.5024 188.729 11.8362L189.974 10.9997ZM187.506 9.79297C186.508 9.79297 185.729 10.2939 185.219 11.1604L186.511 11.9217C186.785 11.4574 187.1 11.293 187.506 11.293V9.79297ZM185.217 11.1631C184.739 11.9838 184.541 13.076 184.541 14.3574H186.041C186.041 13.1962 186.226 12.4108 186.513 11.9189L185.217 11.1631ZM184.541 14.3574C184.541 15.6218 184.743 16.7014 185.242 17.5021L186.515 16.7088C186.231 16.2517 186.041 15.4993 186.041 14.3574H184.541ZM185.242 17.5021C185.769 18.3464 186.567 18.7988 187.561 18.7988V17.2988C187.095 17.2988 186.773 17.1223 186.515 16.7088L185.242 17.5021ZM200.043 20.2227L199.521 20.7616L199.525 20.7649L200.043 20.2227ZM199.893 8.3418L200.437 8.85771L200.439 8.85593L199.893 8.3418ZM210.953 8.06836L210.433 8.60833L210.437 8.61211L210.953 8.06836ZM212.867 15.6973V16.4473H213.617V15.6973H212.867ZM203.311 15.6973V14.9473H202.528L202.561 15.7288L203.311 15.6973ZM204.254 17.7344L203.775 18.3113L203.779 18.3148L204.254 17.7344ZM209.285 18.2129L209.447 18.9453L209.453 18.9438L209.285 18.2129ZM211.855 17.2969H212.605V16.1206L211.539 16.6169L211.855 17.2969ZM211.855 21.1387L212.197 21.8066L212.605 21.5977V21.1387H211.855ZM204.158 10.4746L204.67 11.0225L204.671 11.0221L204.158 10.4746ZM203.42 12.334L202.673 12.2697L202.603 13.084H203.42V12.334ZM208.014 12.334V13.084H208.782L208.763 12.3157L208.014 12.334ZM207.371 10.543L206.813 11.0441L206.819 11.0503L207.371 10.543ZM206.059 21.5234C203.612 21.5234 201.814 20.8776 200.561 19.6804L199.525 20.7649C201.134 22.3021 203.347 23.0234 206.059 23.0234V21.5234ZM200.565 19.6838C199.327 18.4856 198.66 16.7481 198.66 14.3574H197.16C197.16 17.0344 197.915 19.2071 199.521 20.7616L200.565 19.6838ZM198.66 14.3574C198.66 11.8629 199.289 10.069 200.437 8.8577L199.348 7.82589C197.853 9.40369 197.16 11.6202 197.16 14.3574H198.66ZM200.439 8.85593C201.582 7.64128 203.248 6.98633 205.553 6.98633V5.48633C202.954 5.48633 200.846 6.23502 199.347 7.82766L200.439 8.85593ZM205.553 6.98633C207.757 6.98633 209.346 7.561 210.433 8.60831L211.474 7.52841C210.026 6.13301 208.015 5.48633 205.553 5.48633V6.98633ZM210.437 8.61211C211.522 9.6436 212.117 11.1714 212.117 13.3184H213.617C213.617 10.8898 212.936 8.9176 211.47 7.52461L210.437 8.61211ZM212.117 13.3184V15.6973H213.617V13.3184H212.117ZM212.867 14.9473H203.311V16.4473H212.867V14.9473ZM202.561 15.7288C202.605 16.7771 202.998 17.6659 203.775 18.3113L204.733 17.1575C204.325 16.8185 204.089 16.3492 204.06 15.6657L202.561 15.7288ZM203.779 18.3148C204.553 18.9478 205.555 19.2227 206.701 19.2227V17.7227C205.788 17.7227 205.158 17.5053 204.729 17.1539L203.779 18.3148ZM206.701 19.2227C207.685 19.2227 208.602 19.1319 209.447 18.9452L209.123 17.4806C208.401 17.6402 207.594 17.7227 206.701 17.7227V19.2227ZM209.453 18.9438C210.308 18.7473 211.215 18.4222 212.172 17.9769L211.539 16.6169C210.655 17.0283 209.848 17.3139 209.117 17.482L209.453 18.9438ZM211.105 17.2969V21.1387H212.605V17.2969H211.105ZM211.514 20.4708C210.738 20.8673 209.941 21.1392 209.122 21.2897L209.393 22.765C210.361 22.5873 211.296 22.2668 212.197 21.8066L211.514 20.4708ZM209.122 21.2897C208.287 21.4432 207.268 21.5234 206.059 21.5234V23.0234C207.328 23.0234 208.443 22.9396 209.393 22.765L209.122 21.2897ZM205.744 9.12305C204.94 9.12305 204.224 9.38608 203.646 9.92709L204.671 11.0221C204.95 10.7611 205.291 10.623 205.744 10.623V9.12305ZM203.646 9.92671C203.039 10.4944 202.754 11.3245 202.673 12.2697L204.167 12.3983C204.232 11.6482 204.439 11.2387 204.67 11.0225L203.646 9.92671ZM203.42 13.084H208.014V11.584H203.42V13.084ZM208.763 12.3157C208.742 11.4308 208.483 10.6452 207.923 10.0357L206.819 11.0503C207.079 11.334 207.249 11.7424 207.264 12.3523L208.763 12.3157ZM207.929 10.0419C207.365 9.41403 206.608 9.12305 205.744 9.12305V10.623C206.248 10.623 206.575 10.7787 206.813 11.0441L207.929 10.0419ZM221.234 22V22.75H221.984V22H221.234ZM215.889 22H215.139V22.75H215.889V22ZM215.889 0.726562V-0.0234375H215.139V0.726562H215.889ZM221.234 0.726562H221.984V-0.0234375H221.234V0.726562ZM221.234 21.25H215.889V22.75H221.234V21.25ZM216.639 22V0.726562H215.139V22H216.639ZM215.889 1.47656H221.234V-0.0234375H215.889V1.47656ZM220.484 0.726562V22H221.984V0.726562H220.484ZM234.619 22.082L234.731 21.3403L234.723 21.3393L234.619 22.082ZM232.021 21.4121H231.271V21.9337L231.761 22.1152L232.021 21.4121ZM232.021 17.1328L232.323 16.4462L231.271 15.9839V17.1328H232.021ZM234.742 18.0352L234.567 18.7643L234.568 18.7647L234.742 18.0352ZM238.639 16.873L238.215 17.4916L238.225 17.4985L238.235 17.5051L238.639 16.873ZM235.822 15.6152L235.538 16.3092L235.545 16.3122L235.822 15.6152ZM232.842 13.6328L232.244 14.0852L232.246 14.0887L232.842 13.6328ZM233.662 7.43945L234.101 8.04773L233.662 7.43945ZM241.25 6.57812L241.065 7.3049L241.073 7.30701L241.25 6.57812ZM244.053 7.54883L244.744 7.83963L245.029 7.16143L244.357 6.8632L244.053 7.54883ZM242.604 10.9941L242.296 11.6784L242.997 11.9928L243.295 11.2849L242.604 10.9941ZM240.348 10.1875L240.141 10.9084L240.148 10.9105L240.348 10.1875ZM237.545 11.1719L237.142 11.8046L237.153 11.8117L237.165 11.8183L237.545 11.1719ZM240.197 12.3066L240.483 11.613L240.472 11.6088L240.197 12.3066ZM242.617 13.6191L242.145 14.2019L242.15 14.2058L242.617 13.6191ZM243.793 15.1367L243.102 15.4282L243.105 15.4348L243.108 15.4413L243.793 15.1367ZM243.426 17.2422C243.426 18.7115 242.937 19.7217 242.03 20.402L242.93 21.602C244.284 20.5869 244.926 19.0906 244.926 17.2422H243.426ZM242.03 20.402C241.08 21.1145 239.642 21.5234 237.613 21.5234V23.0234C239.813 23.0234 241.62 22.5847 242.93 21.602L242.03 20.402ZM237.613 21.5234C236.491 21.5234 235.531 21.4609 234.731 21.3404L234.507 22.8237C235.402 22.9583 236.439 23.0234 237.613 23.0234V21.5234ZM234.723 21.3393C233.934 21.229 233.121 21.0201 232.282 20.709L231.761 22.1152C232.69 22.4603 233.609 22.6981 234.515 22.8248L234.723 21.3393ZM232.771 21.4121V17.1328H231.271V21.4121H232.771ZM231.72 17.8194C232.594 18.2038 233.544 18.5181 234.567 18.7643L234.918 17.306C233.972 17.0782 233.108 16.7909 232.323 16.4462L231.72 17.8194ZM234.568 18.7647C235.602 19.0112 236.546 19.1406 237.395 19.1406V17.6406C236.694 17.6406 235.87 17.533 234.916 17.3056L234.568 18.7647ZM237.395 19.1406C238.007 19.1406 238.571 19.0744 239.008 18.8746C239.236 18.7705 239.461 18.6162 239.628 18.3867C239.802 18.1492 239.881 17.8758 239.881 17.5977H238.381C238.381 17.5838 238.388 17.5418 238.417 17.5024C238.439 17.4712 238.447 17.4821 238.385 17.5102C238.244 17.5747 237.94 17.6406 237.395 17.6406V19.1406ZM239.881 17.5977C239.881 16.969 239.487 16.5248 239.042 16.241L238.235 17.5051C238.34 17.5724 238.378 17.6193 238.387 17.6328C238.391 17.6383 238.389 17.6359 238.385 17.6262C238.382 17.6161 238.381 17.6056 238.381 17.5977H239.881ZM239.063 16.2545C238.84 16.1015 238.466 15.9172 238.001 15.7097C237.518 15.4941 236.883 15.23 236.099 14.9183L235.545 16.3122C236.32 16.6203 236.934 16.8757 237.389 17.0793C237.864 17.2912 238.119 17.4259 238.215 17.4916L239.063 16.2545ZM236.107 14.9214C234.736 14.3591 233.885 13.7619 233.437 13.177L232.246 14.0887C232.929 14.9803 234.064 15.7047 235.538 16.3091L236.107 14.9214ZM233.44 13.1805C232.993 12.5895 232.744 11.8149 232.744 10.8027H231.244C231.244 12.0692 231.56 13.1814 232.244 14.0851L233.44 13.1805ZM232.744 10.8027C232.744 9.58933 233.196 8.70068 234.101 8.04773L233.223 6.83118C231.905 7.7824 231.244 9.13593 231.244 10.8027H232.744ZM234.101 8.04773C235.037 7.37256 236.432 6.98633 238.379 6.98633V5.48633C236.261 5.48633 234.511 5.90218 233.223 6.83118L234.101 8.04773ZM238.379 6.98633C239.344 6.98633 240.238 7.09399 241.065 7.30485L241.435 5.8514C240.475 5.60653 239.456 5.48633 238.379 5.48633V6.98633ZM241.073 7.30701C241.926 7.51385 242.818 7.82183 243.749 8.23445L244.357 6.8632C243.355 6.41906 242.378 6.0799 241.427 5.84924L241.073 7.30701ZM243.361 7.25803L241.912 10.7033L243.295 11.2849L244.744 7.83963L243.361 7.25803ZM242.911 10.3099C242.163 9.9744 241.375 9.69285 240.547 9.46451L240.148 10.9105C240.906 11.1197 241.622 11.3759 242.296 11.6784L242.911 10.3099ZM240.555 9.46667C239.732 9.23021 239.008 9.0957 238.406 9.0957V10.5957C238.807 10.5957 239.377 10.6891 240.141 10.9083L240.555 9.46667ZM238.406 9.0957C237.932 9.0957 237.466 9.1499 237.092 9.33274C236.895 9.42924 236.7 9.57313 236.556 9.78506C236.408 10.0025 236.344 10.2467 236.344 10.4883H237.844C237.844 10.5157 237.834 10.5725 237.796 10.6292C237.761 10.6805 237.73 10.6906 237.752 10.68C237.776 10.6681 237.837 10.645 237.953 10.6261C238.067 10.6075 238.216 10.5957 238.406 10.5957V9.0957ZM236.344 10.4883C236.344 11.0948 236.709 11.529 237.142 11.8046L237.948 10.5391C237.86 10.4835 237.835 10.4476 237.833 10.4443C237.832 10.4436 237.836 10.4493 237.839 10.4605C237.843 10.472 237.844 10.4821 237.844 10.4883H236.344ZM237.165 11.8183C237.537 12.0376 238.488 12.4396 239.922 13.0045L240.472 11.6088C238.99 11.0252 238.172 10.6707 237.925 10.5254L237.165 11.8183ZM239.912 13.0001C240.97 13.436 241.699 13.8407 242.145 14.2018L243.089 13.0364C242.478 12.5408 241.594 12.0705 240.483 11.6131L239.912 13.0001ZM242.15 14.2058C242.598 14.5629 242.909 14.9702 243.102 15.4282L244.484 14.8452C244.185 14.1366 243.712 13.5321 243.084 13.0325L242.15 14.2058ZM243.108 15.4413C243.309 15.8942 243.426 16.4857 243.426 17.2422H244.926C244.926 16.3398 244.787 15.5277 244.478 14.8321L243.108 15.4413ZM257.314 17.5156H258.064V16.454L257.064 16.8087L257.314 17.5156ZM257.314 21.4121L257.611 22.101L258.064 21.9058V21.4121H257.314ZM255.25 22.0684L255.107 21.3321L255.095 21.3346L255.25 22.0684ZM249.084 20.9609L248.526 21.4617L248.528 21.4646L249.084 20.9609ZM247.895 10.5156H248.645V9.76562H247.895V10.5156ZM246.021 10.5156H245.271V11.2656H246.021V10.5156ZM246.021 8.3418L245.589 7.72936L245.271 7.9535V8.3418H246.021ZM248.4 6.66016L248.833 7.27259L249.007 7.14948L249.091 6.95314L248.4 6.66016ZM249.781 3.40625V2.65625H249.285L249.091 3.11326L249.781 3.40625ZM253.281 3.40625H254.031V2.65625H253.281V3.40625ZM253.281 6.50977H252.531V7.25977H253.281V6.50977ZM257.082 6.50977H257.832V5.75977H257.082V6.50977ZM257.082 10.5156V11.2656H257.832V10.5156H257.082ZM253.281 10.5156V9.76562H252.531V10.5156H253.281ZM254.73 18.7988C255.566 18.7988 256.517 18.5942 257.565 18.2225L257.064 16.8087C256.107 17.148 255.335 17.2988 254.73 17.2988V18.7988ZM256.564 17.5156V21.4121H258.064V17.5156H256.564ZM257.018 20.7232C256.339 21.0154 255.702 21.2164 255.107 21.3321L255.393 22.8046C256.11 22.6652 256.85 22.4286 257.611 22.101L257.018 20.7232ZM255.095 21.3346C254.512 21.4577 253.805 21.5234 252.967 21.5234V23.0234C253.878 23.0234 254.694 22.9525 255.405 22.8022L255.095 21.3346ZM252.967 21.5234C251.273 21.5234 250.23 21.1091 249.64 20.4573L248.528 21.4646C249.523 22.5627 251.07 23.0234 252.967 23.0234V21.5234ZM249.642 20.4602C249.024 19.7711 248.645 18.6338 248.645 16.9004H247.145C247.145 18.8129 247.558 20.3826 248.526 21.4617L249.642 20.4602ZM248.645 16.9004V10.5156H247.145V16.9004H248.645ZM247.895 9.76562H246.021V11.2656H247.895V9.76562ZM246.771 10.5156V8.3418H245.271V10.5156H246.771ZM246.454 8.95423L248.833 7.27259L247.967 6.04772L245.589 7.72936L246.454 8.95423ZM249.091 6.95314L250.472 3.69924L249.091 3.11326L247.71 6.36717L249.091 6.95314ZM249.781 4.15625H253.281V2.65625H249.781V4.15625ZM252.531 3.40625V6.50977H254.031V3.40625H252.531ZM253.281 7.25977H257.082V5.75977H253.281V7.25977ZM256.332 6.50977V10.5156H257.832V6.50977H256.332ZM257.082 9.76562H253.281V11.2656H257.082V9.76562ZM252.531 10.5156V16.5449H254.031V10.5156H252.531ZM252.531 16.5449C252.531 17.155 252.678 17.7516 253.104 18.1933C253.534 18.6401 254.125 18.7988 254.73 18.7988V17.2988C254.37 17.2988 254.236 17.2069 254.184 17.1524C254.126 17.0928 254.031 16.9374 254.031 16.5449H252.531ZM270.699 6.3457L270.833 5.60778L270.828 5.60679L270.699 6.3457ZM271 6.40039L271.747 6.47121L271.812 5.78567L271.134 5.66249L271 6.40039ZM270.521 11.4453L270.34 12.1729L271.186 12.3845L271.268 11.5161L270.521 11.4453ZM266.16 12.0879L266.69 12.6182L266.695 12.6137L266.16 12.0879ZM265.367 22V22.75H266.117V22H265.367ZM260.021 22H259.271V22.75H260.021V22ZM260.021 6.50977V5.75977H259.271V6.50977H260.021ZM264 6.50977L264.711 6.27024L264.539 5.75977H264V6.50977ZM264.834 8.98438L264.123 9.2239L264.295 9.73438H264.834V8.98438ZM265.094 8.98438V9.73438H265.539L265.752 9.343L265.094 8.98438ZM266.953 7.00195L267.354 7.6359L267.356 7.6347L266.953 7.00195ZM269.373 6.98633C269.799 6.98633 270.198 7.01972 270.571 7.08461L270.828 5.60679C270.362 5.52586 269.877 5.48633 269.373 5.48633V6.98633ZM270.565 7.0836L270.866 7.13829L271.134 5.66249L270.833 5.6078L270.565 7.0836ZM270.253 6.32957L269.775 11.3745L271.268 11.5161L271.747 6.47121L270.253 6.32957ZM270.703 10.7177C270.179 10.5866 269.502 10.5312 268.703 10.5312V12.0312C269.454 12.0312 269.989 12.0853 270.34 12.1729L270.703 10.7177ZM268.703 10.5312C267.443 10.5312 266.356 10.819 265.625 11.5621L266.695 12.6137C267.022 12.2813 267.63 12.0312 268.703 12.0312V10.5312ZM265.63 11.5576C264.918 12.2696 264.617 13.2532 264.617 14.3848H266.117C266.117 13.5111 266.345 12.9635 266.69 12.6182L265.63 11.5576ZM264.617 14.3848V22H266.117V14.3848H264.617ZM265.367 21.25H260.021V22.75H265.367V21.25ZM260.771 22V6.50977H259.271V22H260.771ZM260.021 7.25977H264V5.75977H260.021V7.25977ZM263.289 6.74929L264.123 9.2239L265.545 8.74485L264.711 6.27024L263.289 6.74929ZM264.834 9.73438H265.094V8.23438H264.834V9.73438ZM265.752 9.343C266.138 8.63546 266.668 8.06922 267.354 7.6359L266.552 6.36801C265.652 6.93729 264.943 7.69267 264.435 8.62575L265.752 9.343ZM267.356 7.6347C268.059 7.18746 268.728 6.98633 269.373 6.98633V5.48633C268.396 5.48633 267.452 5.79561 266.55 6.36921L267.356 7.6347ZM283.277 22L282.607 22.3354L282.814 22.75H283.277V22ZM282.252 19.9492L282.923 19.6138L282.715 19.1992H282.252V19.9492ZM282.143 19.9492V19.1992H281.784L281.559 19.4785L282.143 19.9492ZM273.598 20.9609L273.056 21.4799L273.598 20.9609ZM274.062 13.5918L274.492 14.2067L274.495 14.2044L274.062 13.5918ZM279.053 12.2246L279.029 11.4749L279.018 11.4754L279.053 12.2246ZM281.637 12.1426L281.661 12.8922L282.387 12.8691V12.1426H281.637ZM275.443 11.1582L274.756 11.4591L275.058 12.1471L275.745 11.8447L275.443 11.1582ZM273.898 7.63086L273.555 6.96413L272.929 7.28665L273.211 7.93175L273.898 7.63086ZM285.342 7.71289L284.838 8.26827L284.84 8.27036L285.342 7.71289ZM286.982 22V22.75H287.732V22H286.982ZM280.967 17.8848L280.471 17.3224L280.465 17.3273L280.967 17.8848ZM281.664 15.082H282.414V14.298L281.631 14.3328L281.664 15.082ZM280.434 15.1367L280.461 15.8863L280.467 15.886L280.434 15.1367ZM283.948 21.6646L282.923 19.6138L281.581 20.2846L282.607 22.3354L283.948 21.6646ZM282.252 19.1992H282.143V20.6992H282.252V19.1992ZM281.559 19.4785C280.885 20.3139 280.242 20.8303 279.64 21.0945L280.243 22.468C281.136 22.0759 281.96 21.371 282.726 20.4199L281.559 19.4785ZM279.64 21.0945C279.02 21.3665 278.167 21.5234 277.043 21.5234V23.0234C278.289 23.0234 279.368 22.8522 280.243 22.468L279.64 21.0945ZM277.043 21.5234C275.744 21.5234 274.808 21.1399 274.139 20.442L273.056 21.4799C274.064 22.5319 275.425 23.0234 277.043 23.0234V21.5234ZM274.139 20.442C273.472 19.7456 273.09 18.7237 273.09 17.2695H271.59C271.59 18.9872 272.047 20.4263 273.056 21.4799L274.139 20.442ZM273.09 17.2695C273.09 15.8149 273.582 14.8421 274.492 14.2067L273.633 12.9769C272.246 13.9456 271.59 15.4247 271.59 17.2695H273.09ZM274.495 14.2044C275.479 13.5096 276.979 13.0708 279.087 12.9738L279.018 11.4754C276.769 11.5789 274.943 12.0516 273.63 12.9792L274.495 14.2044ZM279.077 12.9742L281.661 12.8922L281.613 11.393L279.029 11.475L279.077 12.9742ZM282.387 12.1426V11.9238H280.887V12.1426H282.387ZM282.387 11.9238C282.387 11.1729 282.202 10.4714 281.699 9.96178C281.195 9.45017 280.497 9.25977 279.75 9.25977V10.7598C280.261 10.7598 280.506 10.8884 280.631 11.0148C280.757 11.1432 280.887 11.3987 280.887 11.9238H282.387ZM279.75 9.25977C278.468 9.25977 276.921 9.68896 275.141 10.4717L275.745 11.8447C277.447 11.0962 278.771 10.7598 279.75 10.7598V9.25977ZM276.13 10.8573L274.585 7.32997L273.211 7.93175L274.756 11.4591L276.13 10.8573ZM274.242 8.29759C275.909 7.43857 278.061 6.98633 280.734 6.98633V5.48633C277.903 5.48633 275.497 5.96378 273.555 6.96413L274.242 8.29759ZM280.734 6.98633C282.602 6.98633 283.934 7.44798 284.838 8.26827L285.846 7.15751C284.58 6.00906 282.84 5.48633 280.734 5.48633V6.98633ZM284.84 8.27036C285.744 9.08402 286.232 10.2395 286.232 11.8418H287.732C287.732 9.90761 287.127 8.31051 285.844 7.15542L284.84 8.27036ZM286.232 11.8418V22H287.732V11.8418H286.232ZM286.982 21.25H283.277V22.75H286.982V21.25ZM279.312 19.25C280.134 19.25 280.867 18.9837 281.469 18.4422L280.465 17.3273C280.155 17.6062 279.786 17.75 279.312 17.75V19.25ZM281.463 18.4471C282.1 17.8854 282.414 17.1423 282.414 16.2852H280.914C280.914 16.7405 280.764 17.0638 280.471 17.3224L281.463 18.4471ZM282.414 16.2852V15.082H280.914V16.2852H282.414ZM281.631 14.3328L280.4 14.3875L280.467 15.886L281.697 15.8313L281.631 14.3328ZM280.406 14.3872C279.46 14.4215 278.625 14.6135 278.01 15.0658C277.352 15.5501 277.045 16.2592 277.045 17.0781H278.545C278.545 16.6666 278.678 16.4368 278.899 16.274C279.164 16.0792 279.648 15.9157 280.461 15.8862L280.406 14.3872ZM277.045 17.0781C277.045 17.6806 277.208 18.2669 277.662 18.6918C278.106 19.1081 278.703 19.25 279.312 19.25V17.75C278.911 17.75 278.749 17.6549 278.687 17.5972C278.635 17.5482 278.545 17.4235 278.545 17.0781H277.045ZM300.791 17.5156H301.541V16.454L300.54 16.8087L300.791 17.5156ZM300.791 21.4121L301.087 22.101L301.541 21.9058V21.4121H300.791ZM298.727 22.0684L298.583 21.3321L298.572 21.3346L298.727 22.0684ZM292.561 20.9609L292.002 21.4617L292.005 21.4646L292.561 20.9609ZM291.371 10.5156H292.121V9.76562H291.371V10.5156ZM289.498 10.5156H288.748V11.2656H289.498V10.5156ZM289.498 8.3418L289.065 7.72936L288.748 7.9535V8.3418H289.498ZM291.877 6.66016L292.31 7.27259L292.484 7.14948L292.567 6.95314L291.877 6.66016ZM293.258 3.40625V2.65625H292.761L292.567 3.11326L293.258 3.40625ZM296.758 3.40625H297.508V2.65625H296.758V3.40625ZM296.758 6.50977H296.008V7.25977H296.758V6.50977ZM300.559 6.50977H301.309V5.75977H300.559V6.50977ZM300.559 10.5156V11.2656H301.309V10.5156H300.559ZM296.758 10.5156V9.76562H296.008V10.5156H296.758ZM298.207 18.7988C299.043 18.7988 299.993 18.5942 301.042 18.2225L300.54 16.8087C299.584 17.148 298.811 17.2988 298.207 17.2988V18.7988ZM300.041 17.5156V21.4121H301.541V17.5156H300.041ZM300.495 20.7232C299.816 21.0154 299.179 21.2164 298.583 21.3321L298.87 22.8046C299.587 22.6652 300.326 22.4286 301.087 22.101L300.495 20.7232ZM298.572 21.3346C297.989 21.4577 297.282 21.5234 296.443 21.5234V23.0234C297.355 23.0234 298.17 22.9525 298.882 22.8022L298.572 21.3346ZM296.443 21.5234C294.749 21.5234 293.707 21.1091 293.116 20.4573L292.005 21.4646C293 22.5627 294.546 23.0234 296.443 23.0234V21.5234ZM293.119 20.4602C292.501 19.7711 292.121 18.6338 292.121 16.9004H290.621C290.621 18.8129 291.034 20.3826 292.002 21.4617L293.119 20.4602ZM292.121 16.9004V10.5156H290.621V16.9004H292.121ZM291.371 9.76562H289.498V11.2656H291.371V9.76562ZM290.248 10.5156V8.3418H288.748V10.5156H290.248ZM289.931 8.95423L292.31 7.27259L291.444 6.04772L289.065 7.72936L289.931 8.95423ZM292.567 6.95314L293.948 3.69924L292.567 3.11326L291.187 6.36717L292.567 6.95314ZM293.258 4.15625H296.758V2.65625H293.258V4.15625ZM296.008 3.40625V6.50977H297.508V3.40625H296.008ZM296.758 7.25977H300.559V5.75977H296.758V7.25977ZM299.809 6.50977V10.5156H301.309V6.50977H299.809ZM300.559 9.76562H296.758V11.2656H300.559V9.76562ZM296.008 10.5156V16.5449H297.508V10.5156H296.008ZM296.008 16.5449C296.008 17.155 296.154 17.7516 296.58 18.1933C297.011 18.6401 297.601 18.7988 298.207 18.7988V17.2988C297.847 17.2988 297.713 17.2069 297.66 17.1524C297.603 17.0928 297.508 16.9374 297.508 16.5449H296.008ZM304.961 20.2227L304.439 20.7616L304.443 20.7649L304.961 20.2227ZM304.811 8.3418L305.355 8.85771L305.357 8.85593L304.811 8.3418ZM315.871 8.06836L315.351 8.60833L315.355 8.61211L315.871 8.06836ZM317.785 15.6973V16.4473H318.535V15.6973H317.785ZM308.229 15.6973V14.9473H307.446L307.479 15.7288L308.229 15.6973ZM309.172 17.7344L308.693 18.3113L308.697 18.3148L309.172 17.7344ZM314.203 18.2129L314.365 18.9453L314.371 18.9438L314.203 18.2129ZM316.773 17.2969H317.523V16.1206L316.457 16.6169L316.773 17.2969ZM316.773 21.1387L317.115 21.8066L317.523 21.5977V21.1387H316.773ZM309.076 10.4746L309.588 11.0225L309.589 11.0221L309.076 10.4746ZM308.338 12.334L307.591 12.2697L307.521 13.084H308.338V12.334ZM312.932 12.334V13.084H313.7L313.681 12.3157L312.932 12.334ZM312.289 10.543L311.731 11.0441L311.737 11.0503L312.289 10.543ZM310.977 21.5234C308.53 21.5234 306.732 20.8776 305.479 19.6804L304.443 20.7649C306.052 22.3021 308.265 23.0234 310.977 23.0234V21.5234ZM305.483 19.6838C304.245 18.4856 303.578 16.7481 303.578 14.3574H302.078C302.078 17.0344 302.833 19.2071 304.439 20.7616L305.483 19.6838ZM303.578 14.3574C303.578 11.8629 304.207 10.069 305.355 8.8577L304.266 7.82589C302.771 9.40369 302.078 11.6202 302.078 14.3574H303.578ZM305.357 8.85593C306.5 7.64128 308.166 6.98633 310.471 6.98633V5.48633C307.872 5.48633 305.764 6.23502 304.264 7.82766L305.357 8.85593ZM310.471 6.98633C312.675 6.98633 314.264 7.561 315.351 8.60831L316.392 7.52841C314.944 6.13301 312.933 5.48633 310.471 5.48633V6.98633ZM315.355 8.61211C316.44 9.6436 317.035 11.1714 317.035 13.3184H318.535C318.535 10.8898 317.854 8.9176 316.388 7.52461L315.355 8.61211ZM317.035 13.3184V15.6973H318.535V13.3184H317.035ZM317.785 14.9473H308.229V16.4473H317.785V14.9473ZM307.479 15.7288C307.523 16.7771 307.916 17.6659 308.693 18.3113L309.651 17.1575C309.243 16.8185 309.007 16.3492 308.978 15.6657L307.479 15.7288ZM308.697 18.3148C309.471 18.9478 310.473 19.2227 311.619 19.2227V17.7227C310.706 17.7227 310.076 17.5053 309.647 17.1539L308.697 18.3148ZM311.619 19.2227C312.603 19.2227 313.52 19.1319 314.365 18.9452L314.041 17.4806C313.319 17.6402 312.512 17.7227 311.619 17.7227V19.2227ZM314.371 18.9438C315.226 18.7473 316.133 18.4222 317.09 17.9769L316.457 16.6169C315.573 17.0283 314.766 17.3139 314.035 17.482L314.371 18.9438ZM316.023 17.2969V21.1387H317.523V17.2969H316.023ZM316.432 20.4708C315.656 20.8673 314.859 21.1392 314.04 21.2897L314.311 22.765C315.279 22.5873 316.214 22.2668 317.115 21.8066L316.432 20.4708ZM314.04 21.2897C313.205 21.4432 312.186 21.5234 310.977 21.5234V23.0234C312.246 23.0234 313.361 22.9396 314.311 22.765L314.04 21.2897ZM310.662 9.12305C309.858 9.12305 309.142 9.38608 308.564 9.92709L309.589 11.0221C309.868 10.7611 310.209 10.623 310.662 10.623V9.12305ZM308.564 9.92671C307.957 10.4944 307.672 11.3245 307.591 12.2697L309.085 12.3983C309.15 11.6482 309.357 11.2387 309.588 11.0225L308.564 9.92671ZM308.338 13.084H312.932V11.584H308.338V13.084ZM313.681 12.3157C313.66 11.4308 313.401 10.6452 312.841 10.0357L311.737 11.0503C311.997 11.334 312.167 11.7424 312.182 12.3523L313.681 12.3157ZM312.847 10.0419C312.283 9.41403 311.526 9.12305 310.662 9.12305V10.623C311.166 10.623 311.493 10.7787 311.731 11.0441L312.847 10.0419ZM335.422 6.50977H336.172V5.75977H335.422V6.50977ZM335.422 9.09375L335.681 9.79766L336.172 9.61705V9.09375H335.422ZM333.303 9.87305L333.044 9.16913L332.224 9.47059L332.646 10.2354L333.303 9.87305ZM331.977 15.6016L331.514 15.011L331.512 15.0128L331.977 15.6016ZM325.373 16.873L325.532 16.14L324.98 16.0208L324.713 16.5175L325.373 16.873ZM325.824 18.1582L325.583 18.8682L325.589 18.8705L325.596 18.8727L325.824 18.1582ZM332.865 27.1543L332.457 26.5254L332.455 26.5264L332.865 27.1543ZM321.012 27.6191L321.406 26.9812L321.405 26.9804L321.012 27.6191ZM322.68 20.8789L322.851 21.6092L325.091 21.0847L322.972 20.1882L322.68 20.8789ZM321.436 19.9082L320.843 20.3679L320.849 20.3753L321.436 19.9082ZM321.312 17.3105L321.92 17.7508L321.925 17.7436L321.312 17.3105ZM322.967 15.9844L323.357 16.625L324.581 15.8796L323.271 15.2987L322.967 15.9844ZM321.066 14.3164L320.424 14.7034L320.427 14.709L321.066 14.3164ZM330.021 6.50977L329.898 7.24956L329.959 7.25977H330.021V6.50977ZM324.457 24.9805L324.832 24.3308L324.822 24.3254L324.457 24.9805ZM329.461 24.8984L329.178 24.2037L329.168 24.2078L329.461 24.8984ZM329.926 22.7793L330.183 22.0747L330.171 22.0706L329.926 22.7793ZM324.334 22.9297L323.921 22.3035L323.913 22.3089L323.905 22.3146L324.334 22.9297ZM328.258 13.373L327.649 12.9344L327.643 12.9439L328.258 13.373ZM334.672 6.50977V9.09375H336.172V6.50977H334.672ZM335.163 8.38984L333.044 9.16913L333.562 10.577L335.681 9.79766L335.163 8.38984ZM332.646 10.2354C332.867 10.6362 332.99 11.1229 332.99 11.7188H334.49C334.49 10.9109 334.322 10.1672 333.959 9.51074L332.646 10.2354ZM332.99 11.7188C332.99 13.1869 332.486 14.2506 331.514 15.011L332.439 16.1921C333.819 15.1114 334.49 13.5866 334.49 11.7188H332.99ZM331.512 15.0128C330.534 15.7845 328.985 16.2324 326.74 16.2324V17.7324C329.144 17.7324 331.086 17.2598 332.441 16.1903L331.512 15.0128ZM326.74 16.2324C326.189 16.2324 325.794 16.1967 325.532 16.14L325.215 17.6061C325.627 17.6952 326.143 17.7324 326.74 17.7324V16.2324ZM324.713 16.5175C324.543 16.8335 324.432 17.1789 324.432 17.543H325.932C325.932 17.4877 325.948 17.3865 326.033 17.2286L324.713 16.5175ZM324.432 17.543C324.432 18.326 325.093 18.7016 325.583 18.8682L326.066 17.4482C325.99 17.4225 325.938 17.3986 325.903 17.3795C325.867 17.3602 325.857 17.3497 325.861 17.3533C325.866 17.358 325.886 17.379 325.904 17.4188C325.923 17.4603 325.932 17.5043 325.932 17.543H324.432ZM325.596 18.8727C326.127 19.042 326.773 19.1133 327.506 19.1133V17.6133C326.853 17.6133 326.378 17.5478 326.052 17.4437L325.596 18.8727ZM327.506 19.1133H330.076V17.6133H327.506V19.1133ZM330.076 19.1133C331.725 19.1133 332.822 19.4633 333.5 20.034C334.152 20.584 334.535 21.4416 334.535 22.752H336.035C336.035 21.1365 335.55 19.7998 334.466 18.8869C333.407 17.9947 331.9 17.6133 330.076 17.6133V19.1133ZM334.535 22.752C334.535 24.3788 333.862 25.6122 332.457 26.5254L333.274 27.7832C335.095 26.6 336.035 24.8986 336.035 22.752H334.535ZM332.455 26.5264C331.021 27.4636 328.93 27.9766 326.098 27.9766V29.4766C329.081 29.4766 331.501 28.9413 333.275 27.7822L332.455 26.5264ZM326.098 27.9766C323.968 27.9766 322.432 27.6158 321.406 26.9812L320.617 28.257C321.979 29.099 323.834 29.4766 326.098 29.4766V27.9766ZM321.405 26.9804C320.439 26.3859 319.984 25.5733 319.984 24.4609H318.484C318.484 26.1011 319.215 27.394 320.619 28.2579L321.405 26.9804ZM319.984 24.4609C319.984 23.705 320.213 23.1381 320.636 22.6976C321.076 22.2404 321.786 21.8584 322.851 21.6092L322.509 20.1487C321.276 20.4372 320.264 20.9211 319.555 21.6578C318.83 22.4113 318.484 23.3666 318.484 24.4609H319.984ZM322.972 20.1882C322.625 20.0416 322.309 19.8007 322.022 19.4411L320.849 20.3753C321.273 20.909 321.786 21.3152 322.387 21.5696L322.972 20.1882ZM322.028 19.4486C321.754 19.0948 321.666 18.81 321.666 18.582H320.166C320.166 19.229 320.425 19.8284 320.843 20.3678L322.028 19.4486ZM321.666 18.582C321.666 18.2449 321.755 17.9778 321.92 17.7508L320.705 16.8703C320.341 17.3724 320.166 17.953 320.166 18.582H321.666ZM321.925 17.7436C322.094 17.5049 322.528 17.1293 323.357 16.625L322.577 15.3437C321.728 15.8602 321.06 16.3688 320.7 16.8774L321.925 17.7436ZM323.271 15.2987C322.609 15.0055 322.092 14.5526 321.705 13.9238L320.427 14.709C320.971 15.5932 321.72 16.2523 322.663 16.6701L323.271 15.2987ZM321.709 13.9294C321.338 13.3137 321.133 12.534 321.133 11.5547H319.633C319.633 12.7447 319.883 13.8061 320.424 14.7034L321.709 13.9294ZM321.133 11.5547C321.133 10.0588 321.631 8.97988 322.577 8.21379L321.634 7.04793C320.283 8.14121 319.633 9.67816 319.633 11.5547H321.133ZM322.577 8.21379C323.544 7.43111 324.992 6.98633 327.027 6.98633V5.48633C324.797 5.48633 322.964 5.97123 321.634 7.04793L322.577 8.21379ZM327.027 6.98633C327.272 6.98633 327.728 7.01502 328.421 7.07887L328.559 5.58519C327.867 5.52144 327.348 5.48633 327.027 5.48633V6.98633ZM328.421 7.07887C329.111 7.14239 329.599 7.19964 329.898 7.24956L330.145 5.76997C329.788 5.71052 329.255 5.64928 328.559 5.58519L328.421 7.07887ZM330.021 7.25977H335.422V5.75977H330.021V7.25977ZM322.996 23.9277C322.996 24.7062 323.447 25.2761 324.092 25.6355L324.822 24.3254C324.519 24.1561 324.496 24.0243 324.496 23.9277H322.996ZM324.082 25.6301C324.71 25.9923 325.488 26.1406 326.357 26.1406V24.6406C325.641 24.6406 325.152 24.5155 324.832 24.3308L324.082 25.6301ZM326.357 26.1406C327.704 26.1406 328.85 25.9717 329.753 25.5891L329.168 24.2078C328.522 24.4815 327.6 24.6406 326.357 24.6406V26.1406ZM329.744 25.5931C330.604 25.2429 331.387 24.6434 331.387 23.6543H329.887C329.887 23.6948 329.879 23.7471 329.798 23.833C329.702 23.9341 329.515 24.0668 329.178 24.2038L329.744 25.5931ZM331.387 23.6543C331.387 23.2938 331.278 22.947 331.041 22.655C330.813 22.374 330.505 22.1925 330.183 22.0748L329.668 23.4837C329.82 23.5393 329.868 23.5902 329.877 23.6009C329.881 23.6054 329.881 23.6071 329.882 23.6088C329.883 23.6114 329.887 23.6246 329.887 23.6543H331.387ZM330.171 22.0706C329.58 21.8659 328.803 21.7832 327.889 21.7832V23.2832C328.743 23.2832 329.324 23.3646 329.68 23.488L330.171 22.0706ZM327.889 21.7832H325.797V23.2832H327.889V21.7832ZM325.797 21.7832C325.105 21.7832 324.467 21.9437 323.921 22.3035L324.747 23.5559C325.003 23.387 325.34 23.2832 325.797 23.2832V21.7832ZM323.905 22.3146C323.362 22.6934 322.996 23.2355 322.996 23.9277H324.496C324.496 23.8362 324.522 23.7128 324.763 23.5448L323.905 22.3146ZM324.678 11.582C324.678 12.4388 324.823 13.2148 325.226 13.7944C325.663 14.4235 326.325 14.7109 327.082 14.7109V13.2109C326.736 13.2109 326.571 13.1019 326.457 12.938C326.309 12.7246 326.178 12.3112 326.178 11.582H324.678ZM327.082 14.7109C327.818 14.7109 328.448 14.4108 328.873 13.8022L327.643 12.9439C327.52 13.1192 327.367 13.2109 327.082 13.2109V14.7109ZM328.866 13.8116C329.282 13.2346 329.432 12.4609 329.432 11.6094H327.932C327.932 12.3256 327.799 12.7276 327.649 12.9344L328.866 13.8116ZM329.432 11.6094C329.432 10.7479 329.293 9.97082 328.906 9.38948C328.484 8.75421 327.835 8.45312 327.082 8.45312V9.95312C327.396 9.95312 327.546 10.0531 327.657 10.2199C327.804 10.4406 327.932 10.8667 327.932 11.6094H329.432ZM327.082 8.45312C326.325 8.45312 325.663 8.74059 325.226 9.36966C324.823 9.94926 324.678 10.7252 324.678 11.582H326.178C326.178 10.8529 326.309 10.4394 326.457 10.226C326.571 10.0621 326.736 9.95312 327.082 9.95312V8.45312ZM335.914 6.50977V5.75977H334.807L335.218 6.78788L335.914 6.50977ZM341.547 6.50977L342.266 6.2973L342.107 5.75977H341.547V6.50977ZM344.172 15.3965L344.895 15.1979L344.893 15.191L344.891 15.184L344.172 15.3965ZM344.432 17.0781L343.683 17.1301L343.732 17.8281H344.432V17.0781ZM344.541 17.0781V17.8281H345.209L345.286 17.1645L344.541 17.0781ZM344.869 15.4238L345.586 15.6444L345.587 15.6408L344.869 15.4238ZM347.562 6.50977V5.75977H347.006L346.845 6.29284L347.562 6.50977ZM353.018 6.50977L353.721 6.77112L354.097 5.75977H353.018V6.50977ZM346.893 22.9844L347.595 23.247L347.596 23.2457L346.893 22.9844ZM343.994 27.4277L343.543 26.8289L343.54 26.8306L343.994 27.4277ZM337.336 28.4941H336.586V29.1046L337.184 29.2285L337.336 28.4941ZM337.336 24.2969L337.502 23.5654L336.586 23.3581V24.2969H337.336ZM341.164 23.4082L340.58 22.9377L340.574 22.9455L341.164 23.4082ZM342.012 21.7812L342.709 22.0583L342.819 21.7807L342.708 21.5031L342.012 21.7812ZM335.914 7.25977H341.547V5.75977H335.914V7.25977ZM340.828 6.72223L343.453 15.6089L344.891 15.184L342.266 6.2973L340.828 6.72223ZM343.449 15.595C343.559 15.9982 343.64 16.5068 343.683 17.1301L345.18 17.0262C345.132 16.3369 345.04 15.7244 344.895 15.1979L343.449 15.595ZM344.432 17.8281H344.541V16.3281H344.432V17.8281ZM345.286 17.1645C345.355 16.5693 345.457 16.0645 345.586 15.6444L344.152 15.2033C343.99 15.7311 343.873 16.3292 343.796 16.9917L345.286 17.1645ZM345.587 15.6408L348.28 6.72669L346.845 6.29284L344.151 15.2069L345.587 15.6408ZM347.562 7.25977H353.018V5.75977H347.562V7.25977ZM352.315 6.24841L346.19 22.723L347.596 23.2457L353.721 6.77112L352.315 6.24841ZM346.19 22.7217C345.431 24.7528 344.53 26.0842 343.543 26.8289L344.446 28.0266C345.755 27.0395 346.787 25.4086 347.595 23.247L346.19 22.7217ZM343.54 26.8306C342.565 27.5721 341.248 27.9766 339.523 27.9766V29.4766C341.481 29.4766 343.145 29.0152 344.448 28.0249L343.54 26.8306ZM339.523 27.9766C338.867 27.9766 338.189 27.9051 337.488 27.7598L337.184 29.2285C337.978 29.3931 338.758 29.4766 339.523 29.4766V27.9766ZM338.086 28.4941V24.2969H336.586V28.4941H338.086ZM337.17 25.0284C337.719 25.1527 338.328 25.2109 338.99 25.2109V23.7109C338.413 23.7109 337.919 23.6598 337.502 23.5654L337.17 25.0284ZM338.99 25.2109C339.561 25.2109 340.097 25.1007 340.577 24.8549L339.892 23.5201C339.661 23.6389 339.367 23.7109 338.99 23.7109V25.2109ZM340.577 24.8549C341.035 24.6195 341.428 24.2872 341.754 23.8709L340.574 22.9455C340.371 23.2037 340.144 23.3909 339.892 23.5201L340.577 24.8549ZM341.748 23.8787C342.085 23.4604 342.401 22.8324 342.709 22.0583L341.315 21.5042C341.021 22.2431 340.772 22.6998 340.58 22.9377L341.748 23.8787ZM342.708 21.5031L336.611 6.23165L335.218 6.78788L341.315 22.0594L342.708 21.5031Z" fill="#7B838D"/>
</svg>
