<svg width="225" height="29" viewBox="0 0 225 29" fill="none" xmlns="http://www.w3.org/2000/svg">
<path d="M7.05273 7.74023L7.67093 8.16491L7.67263 8.16241L7.05273 7.74023ZM12.9316 17.4883L12.7183 16.7693L12.9316 17.4883ZM15.4336 16.5996H16.1836V15.4784L15.1473 15.9064L15.4336 16.5996ZM15.4336 21.166L15.7372 21.8518L16.1836 21.6542V21.166H15.4336ZM2.82812 19.6484L2.27526 20.1552L2.27669 20.1568L2.82812 19.6484ZM1.58398 6.60547L0.913157 6.27005L0.911608 6.27319L1.58398 6.60547ZM4.94727 2.99609L5.32112 3.64627L5.32241 3.64553L4.94727 2.99609ZM16.3086 3.13281L17.0076 3.40476L17.2601 2.75564L16.6314 2.45584L16.3086 3.13281ZM14.6543 7.38477L14.3358 8.06376L15.0623 8.4046L15.3533 7.65671L14.6543 7.38477ZM10.0605 5.4043C8.52864 5.4043 7.29335 6.05453 6.43284 7.31806L7.67263 8.16241C8.25222 7.31136 9.02214 6.9043 10.0605 6.9043V5.4043ZM6.43455 7.31557C5.59774 8.5337 5.22266 10.1517 5.22266 12.0879H6.72266C6.72266 10.3236 7.06762 9.04313 7.67092 8.1649L6.43455 7.31557ZM5.22266 12.0879C5.22266 14.0849 5.5987 15.7199 6.47289 16.8691C7.37656 18.0571 8.71938 18.6074 10.3613 18.6074V17.1074C9.07749 17.1074 8.22597 16.6961 7.66675 15.961C7.07805 15.187 6.72266 13.9373 6.72266 12.0879H5.22266ZM10.3613 18.6074C11.3161 18.6074 12.2448 18.4744 13.145 18.2073L12.7183 16.7693C11.9596 16.9944 11.1748 17.1074 10.3613 17.1074V18.6074ZM13.145 18.2073C14.0003 17.9535 14.8587 17.6485 15.7199 17.2928L15.1473 15.9064C14.3315 16.2434 13.5218 16.5309 12.7183 16.7693L13.145 18.2073ZM14.6836 16.5996V21.166H16.1836V16.5996H14.6836ZM15.13 20.4802C13.5713 21.1701 11.7904 21.5234 9.77344 21.5234V23.0234C11.9674 23.0234 13.9599 22.6385 15.7372 21.8518L15.13 20.4802ZM9.77344 21.5234C6.90631 21.5234 4.81489 20.6971 3.37956 19.1401L2.27669 20.1568C4.06793 22.0998 6.60671 23.0234 9.77344 23.0234V21.5234ZM3.38099 19.1416C1.94611 17.5763 1.17188 15.2556 1.17188 12.0605H-0.328125C-0.328125 15.4827 0.50181 18.2206 2.27526 20.1552L3.38099 19.1416ZM1.17188 12.0605C1.17188 10.0858 1.54122 8.38485 2.25636 6.93775L0.911608 6.27319C0.0772648 7.96151 -0.328125 9.89725 -0.328125 12.0605H1.17188ZM2.2548 6.94088C2.97567 5.49916 3.9961 4.40816 5.32112 3.64627L4.57341 2.34591C2.98177 3.26111 1.76001 4.57637 0.913164 6.27006L2.2548 6.94088ZM5.32241 3.64553C6.65799 2.87404 8.24686 2.47461 10.1152 2.47461V0.974609C8.02788 0.974609 6.17143 1.42283 4.57212 2.34666L5.32241 3.64553ZM10.1152 2.47461C12.1626 2.47461 14.1168 2.91858 15.9858 3.80978L16.6314 2.45584C14.5628 1.46944 12.3882 0.974609 10.1152 0.974609V2.47461ZM15.6096 2.86087L13.9553 7.11282L15.3533 7.65671L17.0076 3.40476L15.6096 2.86087ZM14.9728 6.70577C14.207 6.34651 13.439 6.04291 12.6687 5.79565L12.2102 7.22388C12.9165 7.45058 13.625 7.73031 14.3358 8.06376L14.9728 6.70577ZM12.6687 5.79565C11.8497 5.53279 10.9788 5.4043 10.0605 5.4043V6.9043C10.8376 6.9043 11.5526 7.01279 12.2102 7.22388L12.6687 5.79565ZM29.707 6.3457L29.8412 5.60778L29.8355 5.60679L29.707 6.3457ZM30.0078 6.40039L30.7545 6.47121L30.8195 5.78567L30.142 5.66249L30.0078 6.40039ZM29.5293 11.4453L29.3474 12.1729L30.1936 12.3845L30.2759 11.5161L29.5293 11.4453ZM25.168 12.0879L25.6983 12.6182L25.7028 12.6137L25.168 12.0879ZM24.375 22V22.75H25.125V22H24.375ZM19.0293 22H18.2793V22.75H19.0293V22ZM19.0293 6.50977V5.75977H18.2793V6.50977H19.0293ZM23.0078 6.50977L23.7185 6.27024L23.5465 5.75977H23.0078V6.50977ZM23.8418 8.98438L23.1311 9.2239L23.3031 9.73438H23.8418V8.98438ZM24.1016 8.98438V9.73438H24.5472L24.7603 9.343L24.1016 8.98438ZM25.9609 7.00195L26.3617 7.6359L26.3636 7.6347L25.9609 7.00195ZM28.3809 6.98633C28.8065 6.98633 29.2054 7.01972 29.5785 7.08461L29.8355 5.60679C29.3701 5.52586 28.8849 5.48633 28.3809 5.48633V6.98633ZM29.5729 7.0836L29.8736 7.13829L30.142 5.66249L29.8412 5.6078L29.5729 7.0836ZM29.2612 6.32957L28.7826 11.3745L30.2759 11.5161L30.7545 6.47121L29.2612 6.32957ZM29.7112 10.7177C29.1866 10.5866 28.5099 10.5312 27.7109 10.5312V12.0312C28.4614 12.0312 28.997 12.0853 29.3474 12.1729L29.7112 10.7177ZM27.7109 10.5312C26.4508 10.5312 25.3636 10.819 24.6331 11.5621L25.7028 12.6137C26.0296 12.2813 26.6377 12.0312 27.7109 12.0312V10.5312ZM24.6376 11.5576C23.9256 12.2696 23.625 13.2532 23.625 14.3848H25.125C25.125 13.5111 25.3531 12.9635 25.6983 12.6182L24.6376 11.5576ZM23.625 14.3848V22H25.125V14.3848H23.625ZM24.375 21.25H19.0293V22.75H24.375V21.25ZM19.7793 22V6.50977H18.2793V22H19.7793ZM19.0293 7.25977H23.0078V5.75977H19.0293V7.25977ZM22.2971 6.74929L23.1311 9.2239L24.5525 8.74485L23.7185 6.27024L22.2971 6.74929ZM23.8418 9.73438H24.1016V8.23438H23.8418V9.73438ZM24.7603 9.343C25.1455 8.63546 25.6763 8.06922 26.3617 7.6359L25.5602 6.36801C24.6597 6.93729 23.9509 7.69267 23.4429 8.62575L24.7603 9.343ZM26.3636 7.6347C27.0664 7.18746 27.7354 6.98633 28.3809 6.98633V5.48633C27.404 5.48633 26.4596 5.79561 25.5583 6.36921L26.3636 7.6347ZM33.6445 20.2227L33.1229 20.7616L33.1264 20.7649L33.6445 20.2227ZM33.4941 8.3418L34.0385 8.85771L34.0402 8.85593L33.4941 8.3418ZM44.5547 8.06836L44.0341 8.60833L44.0381 8.61211L44.5547 8.06836ZM46.4688 15.6973V16.4473H47.2188V15.6973H46.4688ZM36.9121 15.6973V14.9473H36.1299L36.1628 15.7288L36.9121 15.6973ZM37.8555 17.7344L37.3762 18.3113L37.3805 18.3148L37.8555 17.7344ZM42.8867 18.2129L43.0485 18.9453L43.0547 18.9438L42.8867 18.2129ZM45.457 17.2969H46.207V16.1206L45.1406 16.6169L45.457 17.2969ZM45.457 21.1387L45.7982 21.8066L46.207 21.5977V21.1387H45.457ZM37.7598 10.4746L38.2719 11.0225L38.2723 11.0221L37.7598 10.4746ZM37.0215 12.334L36.2742 12.2697L36.2042 13.084H37.0215V12.334ZM41.6152 12.334V13.084H42.3838L42.365 12.3157L41.6152 12.334ZM40.9727 10.543L40.4146 11.0441L40.4203 11.0503L40.9727 10.543ZM39.6602 21.5234C37.2132 21.5234 35.4157 20.8776 34.1626 19.6804L33.1264 20.7649C34.7353 22.3021 36.9483 23.0234 39.6602 23.0234V21.5234ZM34.1662 19.6838C32.9284 18.4856 32.2617 16.7481 32.2617 14.3574H30.7617C30.7617 17.0344 31.5169 19.2071 33.1229 20.7616L34.1662 19.6838ZM32.2617 14.3574C32.2617 11.8629 32.8906 10.069 34.0385 8.8577L32.9498 7.82589C31.4545 9.40369 30.7617 11.6202 30.7617 14.3574H32.2617ZM34.0402 8.85593C35.1838 7.64128 36.8497 6.98633 39.1543 6.98633V5.48633C36.5553 5.48633 34.4477 6.23502 32.9481 7.82766L34.0402 8.85593ZM39.1543 6.98633C41.3586 6.98633 42.9478 7.561 44.0342 8.60831L45.0752 7.52841C43.6278 6.13301 41.6166 5.48633 39.1543 5.48633V6.98633ZM44.0381 8.61211C45.1239 9.6436 45.7188 11.1714 45.7188 13.3184H47.2188C47.2188 10.8898 46.5376 8.9176 45.0713 7.52461L44.0381 8.61211ZM45.7188 13.3184V15.6973H47.2188V13.3184H45.7188ZM46.4688 14.9473H36.9121V16.4473H46.4688V14.9473ZM36.1628 15.7288C36.2069 16.7771 36.5994 17.6659 37.3762 18.3113L38.3347 17.1575C37.9267 16.8185 37.6902 16.3492 37.6614 15.6657L36.1628 15.7288ZM37.3805 18.3148C38.1542 18.9478 39.1563 19.2227 40.3027 19.2227V17.7227C39.3893 17.7227 38.7599 17.5053 38.3304 17.1539L37.3805 18.3148ZM40.3027 19.2227C41.287 19.2227 42.2035 19.1319 43.0485 18.9452L42.7249 17.4806C42.0022 17.6402 41.196 17.7227 40.3027 17.7227V19.2227ZM43.0547 18.9438C43.9096 18.7473 44.8165 18.4222 45.7735 17.9769L45.1406 16.6169C44.2564 17.0283 43.4498 17.3139 42.7187 17.482L43.0547 18.9438ZM44.707 17.2969V21.1387H46.207V17.2969H44.707ZM45.1158 20.4708C44.3397 20.8673 43.5429 21.1392 42.7239 21.2897L42.9949 22.765C43.9623 22.5873 44.8973 22.2668 45.7982 21.8066L45.1158 20.4708ZM42.7239 21.2897C41.8882 21.4432 40.8695 21.5234 39.6602 21.5234V23.0234C40.93 23.0234 42.0441 22.9396 42.9949 22.765L42.7239 21.2897ZM39.3457 9.12305C38.5414 9.12305 37.8251 9.38608 37.2472 9.92709L38.2723 11.0221C38.5512 10.7611 38.8922 10.623 39.3457 10.623V9.12305ZM37.2476 9.92671C36.6403 10.4944 36.3556 11.3245 36.2742 12.2697L37.7687 12.3983C37.8332 11.6482 38.0407 11.2387 38.2719 11.0225L37.2476 9.92671ZM37.0215 13.084H41.6152V11.584H37.0215V13.084ZM42.365 12.3157C42.3434 11.4308 42.0848 10.6452 41.5251 10.0357L40.4203 11.0503C40.6808 11.334 40.8506 11.7424 40.8655 12.3523L42.365 12.3157ZM41.5307 10.0419C40.9669 9.41403 40.2095 9.12305 39.3457 9.12305V10.623C39.8491 10.623 40.1763 10.7787 40.4146 11.0441L41.5307 10.0419ZM59.5938 22L58.9229 22.3354L59.1302 22.75H59.5938V22ZM58.5684 19.9492L59.2392 19.6138L59.0319 19.1992H58.5684V19.9492ZM58.459 19.9492V19.1992H58.1002L57.8751 19.4785L58.459 19.9492ZM49.9141 20.9609L49.3726 21.4799L49.9141 20.9609ZM50.3789 13.5918L50.8084 14.2067L50.8116 14.2044L50.3789 13.5918ZM55.3691 12.2246L55.3453 11.4749L55.3347 11.4754L55.3691 12.2246ZM57.9531 12.1426L57.9769 12.8922L58.7031 12.8691V12.1426H57.9531ZM51.7598 11.1582L51.0728 11.4591L51.3741 12.1471L52.0617 11.8447L51.7598 11.1582ZM50.2148 7.63086L49.8714 6.96413L49.2453 7.28665L49.5278 7.93175L50.2148 7.63086ZM61.6582 7.71289L61.1542 8.26827L61.1565 8.27036L61.6582 7.71289ZM63.2988 22V22.75H64.0488V22H63.2988ZM57.2832 17.8848L56.787 17.3224L56.7815 17.3273L57.2832 17.8848ZM57.9805 15.082H58.7305V14.298L57.9472 14.3328L57.9805 15.082ZM56.75 15.1367L56.7772 15.8863L56.7833 15.886L56.75 15.1367ZM60.2646 21.6646L59.2392 19.6138L57.8975 20.2846L58.9229 22.3354L60.2646 21.6646ZM58.5684 19.1992H58.459V20.6992H58.5684V19.1992ZM57.8751 19.4785C57.2017 20.3139 56.5581 20.8303 55.9563 21.0945L56.5593 22.468C57.4523 22.0759 58.2762 21.371 59.0429 20.4199L57.8751 19.4785ZM55.9563 21.0945C55.3368 21.3665 54.4836 21.5234 53.3594 21.5234V23.0234C54.605 23.0234 55.6841 22.8522 56.5593 22.468L55.9563 21.0945ZM53.3594 21.5234C52.0607 21.5234 51.1244 21.1399 50.4556 20.442L49.3726 21.4799C50.3808 22.5319 51.7413 23.0234 53.3594 23.0234V21.5234ZM50.4556 20.442C49.7881 19.7456 49.4062 18.7237 49.4062 17.2695H47.9062C47.9062 18.9872 48.3629 20.4263 49.3726 21.4799L50.4556 20.442ZM49.4062 17.2695C49.4062 15.8149 49.8985 14.8421 50.8083 14.2067L49.9495 12.9769C48.5625 13.9456 47.9062 15.4247 47.9062 17.2695H49.4062ZM50.8116 14.2044C51.7952 13.5096 53.2956 13.0708 55.4036 12.9738L55.3347 11.4754C53.0859 11.5789 51.2595 12.0516 49.9462 12.9792L50.8116 14.2044ZM55.3929 12.9742L57.9769 12.8922L57.9293 11.393L55.3453 11.475L55.3929 12.9742ZM58.7031 12.1426V11.9238H57.2031V12.1426H58.7031ZM58.7031 11.9238C58.7031 11.1729 58.5179 10.4714 58.0156 9.96178C57.5113 9.45017 56.8137 9.25977 56.0664 9.25977V10.7598C56.577 10.7598 56.8227 10.8884 56.9473 11.0148C57.0739 11.1432 57.2031 11.3987 57.2031 11.9238H58.7031ZM56.0664 9.25977C54.7846 9.25977 53.2376 9.68896 51.4578 10.4717L52.0617 11.8447C53.7637 11.0962 55.0878 10.7598 56.0664 10.7598V9.25977ZM52.4468 10.8573L50.9018 7.32997L49.5278 7.93175L51.0728 11.4591L52.4468 10.8573ZM50.5583 8.29759C52.2258 7.43857 54.3772 6.98633 57.0508 6.98633V5.48633C54.2192 5.48633 51.8132 5.96378 49.8714 6.96413L50.5583 8.29759ZM57.0508 6.98633C58.9186 6.98633 60.2503 7.44798 61.1542 8.26827L62.1622 7.15751C60.8968 6.00906 59.1569 5.48633 57.0508 5.48633V6.98633ZM61.1565 8.27036C62.0605 9.08402 62.5488 10.2395 62.5488 11.8418H64.0488C64.0488 9.90761 63.4434 8.31051 62.1599 7.15542L61.1565 8.27036ZM62.5488 11.8418V22H64.0488V11.8418H62.5488ZM63.2988 21.25H59.5938V22.75H63.2988V21.25ZM55.6289 19.25C56.4501 19.25 57.1833 18.9837 57.7849 18.4422L56.7815 17.3273C56.4716 17.6062 56.102 17.75 55.6289 17.75V19.25ZM57.7794 18.4471C58.416 17.8854 58.7305 17.1423 58.7305 16.2852H57.2305C57.2305 16.7405 57.0801 17.0638 56.787 17.3224L57.7794 18.4471ZM58.7305 16.2852V15.082H57.2305V16.2852H58.7305ZM57.9472 14.3328L56.7167 14.3875L56.7833 15.886L58.0138 15.8313L57.9472 14.3328ZM56.7228 14.3872C55.7769 14.4215 54.9413 14.6135 54.3265 15.0658C53.6682 15.5501 53.3613 16.2592 53.3613 17.0781H54.8613C54.8613 16.6666 54.9942 16.4368 55.2155 16.274C55.4803 16.0792 55.964 15.9157 56.7772 15.8862L56.7228 14.3872ZM53.3613 17.0781C53.3613 17.6806 53.5244 18.2669 53.9779 18.6918C54.4222 19.1081 55.0192 19.25 55.6289 19.25V17.75C55.2269 17.75 55.0651 17.6549 55.0035 17.5972C54.9512 17.5482 54.8613 17.4235 54.8613 17.0781H53.3613ZM77.1074 17.5156H77.8574V16.454L76.8568 16.8087L77.1074 17.5156ZM77.1074 21.4121L77.4039 22.101L77.8574 21.9058V21.4121H77.1074ZM75.043 22.0684L74.8998 21.3321L74.8879 21.3346L75.043 22.0684ZM68.877 20.9609L68.3186 21.4617L68.3212 21.4646L68.877 20.9609ZM67.6875 10.5156H68.4375V9.76562H67.6875V10.5156ZM65.8145 10.5156H65.0645V11.2656H65.8145V10.5156ZM65.8145 8.3418L65.3815 7.72936L65.0645 7.9535V8.3418H65.8145ZM68.1934 6.66016L68.6263 7.27259L68.8004 7.14948L68.8838 6.95314L68.1934 6.66016ZM69.5742 3.40625V2.65625H69.0778L68.8838 3.11326L69.5742 3.40625ZM73.0742 3.40625H73.8242V2.65625H73.0742V3.40625ZM73.0742 6.50977H72.3242V7.25977H73.0742V6.50977ZM76.875 6.50977H77.625V5.75977H76.875V6.50977ZM76.875 10.5156V11.2656H77.625V10.5156H76.875ZM73.0742 10.5156V9.76562H72.3242V10.5156H73.0742ZM74.5234 18.7988C75.3593 18.7988 76.3097 18.5942 77.358 18.2225L76.8568 16.8087C75.8999 17.148 75.1277 17.2988 74.5234 17.2988V18.7988ZM76.3574 17.5156V21.4121H77.8574V17.5156H76.3574ZM76.8109 20.7232C76.1319 21.0154 75.4953 21.2164 74.8998 21.3321L75.1861 22.8046C75.9031 22.6652 76.6428 22.4286 77.4039 22.101L76.8109 20.7232ZM74.8879 21.3346C74.3051 21.4577 73.5983 21.5234 72.7598 21.5234V23.0234C73.6712 23.0234 74.4866 22.9525 75.198 22.8022L74.8879 21.3346ZM72.7598 21.5234C71.0659 21.5234 70.0234 21.1091 69.4327 20.4573L68.3212 21.4646C69.3164 22.5627 70.8625 23.0234 72.7598 23.0234V21.5234ZM69.4353 20.4602C68.8172 19.7711 68.4375 18.6338 68.4375 16.9004H66.9375C66.9375 18.8129 67.3507 20.3826 68.3186 21.4617L69.4353 20.4602ZM68.4375 16.9004V10.5156H66.9375V16.9004H68.4375ZM67.6875 9.76562H65.8145V11.2656H67.6875V9.76562ZM66.5645 10.5156V8.3418H65.0645V10.5156H66.5645ZM66.2474 8.95423L68.6263 7.27259L67.7604 6.04772L65.3815 7.72936L66.2474 8.95423ZM68.8838 6.95314L70.2646 3.69924L68.8838 3.11326L67.503 6.36717L68.8838 6.95314ZM69.5742 4.15625H73.0742V2.65625H69.5742V4.15625ZM72.3242 3.40625V6.50977H73.8242V3.40625H72.3242ZM73.0742 7.25977H76.875V5.75977H73.0742V7.25977ZM76.125 6.50977V10.5156H77.625V6.50977H76.125ZM76.875 9.76562H73.0742V11.2656H76.875V9.76562ZM72.3242 10.5156V16.5449H73.8242V10.5156H72.3242ZM72.3242 16.5449C72.3242 17.155 72.4708 17.7516 72.8965 18.1933C73.3271 18.6401 73.9175 18.7988 74.5234 18.7988V17.2988C74.1632 17.2988 74.029 17.2069 73.9766 17.1524C73.9191 17.0928 73.8242 16.9374 73.8242 16.5449H72.3242ZM85.1875 22V22.75H85.9375V22H85.1875ZM79.8418 22H79.0918V22.75H79.8418V22ZM79.8418 6.50977V5.75977H79.0918V6.50977H79.8418ZM85.1875 6.50977H85.9375V5.75977H85.1875V6.50977ZM84.709 0.876953L84.2135 1.43999L84.709 0.876953ZM85.1875 21.25H79.8418V22.75H85.1875V21.25ZM80.5918 22V6.50977H79.0918V22H80.5918ZM79.8418 7.25977H85.1875V5.75977H79.8418V7.25977ZM84.4375 6.50977V22H85.9375V6.50977H84.4375ZM80.4551 2.6543C80.4551 1.98876 80.6367 1.63143 80.8697 1.427L79.8803 0.299562C79.22 0.878983 78.9551 1.71567 78.9551 2.6543H80.4551ZM80.8697 1.427C81.1133 1.21326 81.6103 1.02539 82.5352 1.02539V-0.474609C81.473 -0.474609 80.53 -0.270549 79.8803 0.299562L80.8697 1.427ZM82.5352 1.02539C83.4549 1.02539 83.9587 1.21579 84.2135 1.43999L85.2045 0.313918C84.5478 -0.263967 83.6024 -0.474609 82.5352 -0.474609V1.02539ZM84.2135 1.43999C84.4632 1.65969 84.6426 2.01902 84.6426 2.6543H86.1426C86.1426 1.72186 85.8662 0.896296 85.2045 0.313918L84.2135 1.43999ZM84.6426 2.6543C84.6426 3.27984 84.4596 3.62656 84.2016 3.83886C83.9157 4.07419 83.4037 4.25586 82.5352 4.25586V5.75586C83.5716 5.75586 84.4883 5.5456 85.1548 4.99708C85.8493 4.42552 86.1426 3.59646 86.1426 2.6543H84.6426ZM82.5352 4.25586C81.6771 4.25586 81.1731 4.07474 80.8919 3.84112C80.6374 3.6296 80.4551 3.28223 80.4551 2.6543H78.9551C78.9551 3.59407 79.2445 4.42248 79.9333 4.99482C80.5955 5.54505 81.5065 5.75586 82.5352 5.75586V4.25586ZM92.9805 22L92.2797 22.2672L92.4638 22.75H92.9805V22ZM87.0742 6.50977V5.75977H85.9856L86.3734 6.77697L87.0742 6.50977ZM92.6523 6.50977L93.3733 6.30316L93.2176 5.75977H92.6523V6.50977ZM95.2773 15.6699L96.0128 15.5228L96.0068 15.4928L95.9983 15.4633L95.2773 15.6699ZM95.4141 16.2988L94.6754 16.4292L94.6769 16.437L95.4141 16.2988ZM95.4824 16.7773L94.7365 16.8559L94.7389 16.8783L94.7426 16.9006L95.4824 16.7773ZM95.5234 17.2422H94.7734V17.9922H95.5234V17.2422ZM95.6191 17.2422V17.9922H96.3691V17.2422H95.6191ZM95.8652 15.6973L95.1467 15.4823L95.1459 15.485L95.8652 15.6973ZM98.6133 6.50977V5.75977H98.0548L97.8947 6.29484L98.6133 6.50977ZM104.178 6.50977L104.879 6.77697L105.266 5.75977H104.178V6.50977ZM98.2715 22V22.75H98.7882L98.9723 22.2672L98.2715 22ZM93.6813 21.7328L87.775 6.24256L86.3734 6.77697L92.2797 22.2672L93.6813 21.7328ZM87.0742 7.25977H92.6523V5.75977H87.0742V7.25977ZM91.9314 6.71638L94.5564 15.8765L95.9983 15.4633L93.3733 6.30316L91.9314 6.71638ZM94.5419 15.817C94.5549 15.8819 94.5771 15.9749 94.6044 16.0842L96.0596 15.7204C96.0323 15.611 96.018 15.549 96.0128 15.5228L94.5419 15.817ZM94.6044 16.0842C94.6262 16.1714 94.6501 16.2853 94.6755 16.4292L96.1526 16.1685C96.1233 16.0024 96.0925 15.852 96.0596 15.7204L94.6044 16.0842ZM94.6769 16.437C94.7 16.5601 94.7201 16.6994 94.7365 16.8559L96.2283 16.6988C96.2083 16.509 96.1828 16.3293 96.1512 16.1606L94.6769 16.437ZM94.7426 16.9006C94.7641 17.0295 94.7734 17.1429 94.7734 17.2422H96.2734C96.2734 17.0498 96.2554 16.8533 96.2222 16.654L94.7426 16.9006ZM95.5234 17.9922H95.6191V16.4922H95.5234V17.9922ZM96.3691 17.2422C96.3691 16.854 96.4365 16.4114 96.5846 15.9095L95.1459 15.485C94.9659 16.0952 94.8691 16.6825 94.8691 17.2422H96.3691ZM96.5838 15.9122L99.3318 6.72469L97.8947 6.29484L95.1467 15.4823L96.5838 15.9122ZM98.6133 7.25977H104.178V5.75977H98.6133V7.25977ZM103.477 6.24256L97.5707 21.7328L98.9723 22.2672L104.879 6.77697L103.477 6.24256ZM98.2715 21.25H92.9805V22.75H98.2715V21.25ZM107.5 20.2227L106.978 20.7616L106.982 20.7649L107.5 20.2227ZM107.35 8.3418L107.894 8.85771L107.896 8.85593L107.35 8.3418ZM118.41 8.06836L117.89 8.60833L117.894 8.61211L118.41 8.06836ZM120.324 15.6973V16.4473H121.074V15.6973H120.324ZM110.768 15.6973V14.9473H109.985L110.018 15.7288L110.768 15.6973ZM111.711 17.7344L111.232 18.3113L111.236 18.3148L111.711 17.7344ZM116.742 18.2129L116.904 18.9453L116.91 18.9438L116.742 18.2129ZM119.312 17.2969H120.062V16.1206L118.996 16.6169L119.312 17.2969ZM119.312 21.1387L119.654 21.8066L120.062 21.5977V21.1387H119.312ZM111.615 10.4746L112.127 11.0225L112.128 11.0221L111.615 10.4746ZM110.877 12.334L110.13 12.2697L110.06 13.084H110.877V12.334ZM115.471 12.334V13.084H116.239L116.22 12.3157L115.471 12.334ZM114.828 10.543L114.27 11.0441L114.276 11.0503L114.828 10.543ZM113.516 21.5234C111.069 21.5234 109.271 20.8776 108.018 19.6804L106.982 20.7649C108.591 22.3021 110.804 23.0234 113.516 23.0234V21.5234ZM108.022 19.6838C106.784 18.4856 106.117 16.7481 106.117 14.3574H104.617C104.617 17.0344 105.372 19.2071 106.978 20.7616L108.022 19.6838ZM106.117 14.3574C106.117 11.8629 106.746 10.069 107.894 8.8577L106.805 7.82589C105.31 9.40369 104.617 11.6202 104.617 14.3574H106.117ZM107.896 8.85593C109.039 7.64128 110.705 6.98633 113.01 6.98633V5.48633C110.411 5.48633 108.303 6.23502 106.804 7.82766L107.896 8.85593ZM113.01 6.98633C115.214 6.98633 116.803 7.561 117.89 8.60831L118.931 7.52841C117.483 6.13301 115.472 5.48633 113.01 5.48633V6.98633ZM117.894 8.61211C118.979 9.6436 119.574 11.1714 119.574 13.3184H121.074C121.074 10.8898 120.393 8.9176 118.927 7.52461L117.894 8.61211ZM119.574 13.3184V15.6973H121.074V13.3184H119.574ZM120.324 14.9473H110.768V16.4473H120.324V14.9473ZM110.018 15.7288C110.062 16.7771 110.455 17.6659 111.232 18.3113L112.19 17.1575C111.782 16.8185 111.546 16.3492 111.517 15.6657L110.018 15.7288ZM111.236 18.3148C112.01 18.9478 113.012 19.2227 114.158 19.2227V17.7227C113.245 17.7227 112.615 17.5053 112.186 17.1539L111.236 18.3148ZM114.158 19.2227C115.143 19.2227 116.059 19.1319 116.904 18.9452L116.58 17.4806C115.858 17.6402 115.052 17.7227 114.158 17.7227V19.2227ZM116.91 18.9438C117.765 18.7473 118.672 18.4222 119.629 17.9769L118.996 16.6169C118.112 17.0283 117.305 17.3139 116.574 17.482L116.91 18.9438ZM118.562 17.2969V21.1387H120.062V17.2969H118.562ZM118.971 20.4708C118.195 20.8673 117.398 21.1392 116.579 21.2897L116.85 22.765C117.818 22.5873 118.753 22.2668 119.654 21.8066L118.971 20.4708ZM116.579 21.2897C115.744 21.4432 114.725 21.5234 113.516 21.5234V23.0234C114.785 23.0234 115.9 22.9396 116.85 22.765L116.579 21.2897ZM113.201 9.12305C112.397 9.12305 111.681 9.38608 111.103 9.92709L112.128 11.0221C112.407 10.7611 112.748 10.623 113.201 10.623V9.12305ZM111.103 9.92671C110.496 10.4944 110.211 11.3245 110.13 12.2697L111.624 12.3983C111.689 11.6482 111.896 11.2387 112.127 11.0225L111.103 9.92671ZM110.877 13.084H115.471V11.584H110.877V13.084ZM116.22 12.3157C116.199 11.4308 115.94 10.6452 115.381 10.0357L114.276 11.0503C114.536 11.334 114.706 11.7424 114.721 12.3523L116.22 12.3157ZM115.386 10.0419C114.822 9.41403 114.065 9.12305 113.201 9.12305V10.623C113.705 10.623 114.032 10.7787 114.27 11.0441L115.386 10.0419ZM145.139 19.293L144.614 18.7574L144.612 18.7587L145.139 19.293ZM130.934 22H130.184V22.75H130.934V22ZM130.934 2.01172V1.26172H130.184V2.01172H130.934ZM145.275 4.47266L144.761 5.01847L144.762 5.01981L145.275 4.47266ZM141.201 7.69922L140.62 8.17285L140.623 8.17642L141.201 7.69922ZM136.334 6.37305V5.62305H135.584V6.37305H136.334ZM136.334 17.5703H135.584V18.3203H136.334V17.5703ZM141.146 16.1484L141.73 16.6197L141.732 16.617L141.146 16.1484ZM147.15 11.582C147.15 14.7785 146.272 17.1319 144.614 18.7574L145.664 19.8286C147.688 17.8446 148.65 15.0574 148.65 11.582H147.15ZM144.612 18.7587C142.958 20.3879 140.59 21.25 137.4 21.25V22.75C140.864 22.75 143.655 21.8074 145.665 19.8273L144.612 18.7587ZM137.4 21.25H130.934V22.75H137.4V21.25ZM131.684 22V2.01172H130.184V22H131.684ZM130.934 2.76172H137.852V1.26172H130.934V2.76172ZM137.852 2.76172C140.935 2.76172 143.201 3.54851 144.761 5.01847L145.79 3.92684C143.868 2.11556 141.184 1.26172 137.852 1.26172V2.76172ZM144.762 5.01981C146.32 6.4802 147.15 8.62652 147.15 11.582H148.65C148.65 8.33963 147.731 5.74636 145.788 3.9255L144.762 5.01981ZM143.045 11.7734C143.045 9.86495 142.669 8.3003 141.78 7.22202L140.623 8.17642C141.192 8.86637 141.545 10.0179 141.545 11.7734H143.045ZM141.783 7.2256C140.88 6.11762 139.537 5.62305 137.906 5.62305V7.12305C139.229 7.12305 140.082 7.51259 140.62 8.17284L141.783 7.2256ZM137.906 5.62305H136.334V7.12305H137.906V5.62305ZM135.584 6.37305V17.5703H137.084V6.37305H135.584ZM136.334 18.3203H137.537V16.8203H136.334V18.3203ZM137.537 18.3203C139.321 18.3203 140.777 17.8001 141.73 16.6197L140.563 15.6772C139.985 16.3926 139.035 16.8203 137.537 16.8203V18.3203ZM141.732 16.617C142.651 15.4679 143.045 13.8082 143.045 11.7734H141.545C141.545 13.658 141.173 14.9149 140.561 15.6799L141.732 16.617ZM152.645 20.2227L152.123 20.7616L152.126 20.7649L152.645 20.2227ZM152.494 8.3418L153.039 8.85771L153.04 8.85593L152.494 8.3418ZM163.555 8.06836L163.034 8.60833L163.038 8.61211L163.555 8.06836ZM165.469 15.6973V16.4473H166.219V15.6973H165.469ZM155.912 15.6973V14.9473H155.13L155.163 15.7288L155.912 15.6973ZM156.855 17.7344L156.376 18.3113L156.381 18.3148L156.855 17.7344ZM161.887 18.2129L162.049 18.9453L162.055 18.9438L161.887 18.2129ZM164.457 17.2969H165.207V16.1206L164.141 16.6169L164.457 17.2969ZM164.457 21.1387L164.798 21.8066L165.207 21.5977V21.1387H164.457ZM156.76 10.4746L157.272 11.0225L157.272 11.0221L156.76 10.4746ZM156.021 12.334L155.274 12.2697L155.204 13.084H156.021V12.334ZM160.615 12.334V13.084H161.384L161.365 12.3157L160.615 12.334ZM159.973 10.543L159.415 11.0441L159.42 11.0503L159.973 10.543ZM158.66 21.5234C156.213 21.5234 154.416 20.8776 153.163 19.6804L152.126 20.7649C153.735 22.3021 155.948 23.0234 158.66 23.0234V21.5234ZM153.166 19.6838C151.928 18.4856 151.262 16.7481 151.262 14.3574H149.762C149.762 17.0344 150.517 19.2071 152.123 20.7616L153.166 19.6838ZM151.262 14.3574C151.262 11.8629 151.891 10.069 153.039 8.8577L151.95 7.82589C150.454 9.40369 149.762 11.6202 149.762 14.3574H151.262ZM153.04 8.85593C154.184 7.64128 155.85 6.98633 158.154 6.98633V5.48633C155.555 5.48633 153.448 6.23502 151.948 7.82766L153.04 8.85593ZM158.154 6.98633C160.359 6.98633 161.948 7.561 163.034 8.60831L164.075 7.52841C162.628 6.13301 160.617 5.48633 158.154 5.48633V6.98633ZM163.038 8.61211C164.124 9.6436 164.719 11.1714 164.719 13.3184H166.219C166.219 10.8898 165.538 8.9176 164.071 7.52461L163.038 8.61211ZM164.719 13.3184V15.6973H166.219V13.3184H164.719ZM165.469 14.9473H155.912V16.4473H165.469V14.9473ZM155.163 15.7288C155.207 16.7771 155.599 17.6659 156.376 18.3113L157.335 17.1575C156.927 16.8185 156.69 16.3492 156.661 15.6657L155.163 15.7288ZM156.381 18.3148C157.154 18.9478 158.156 19.2227 159.303 19.2227V17.7227C158.389 17.7227 157.76 17.5053 157.33 17.1539L156.381 18.3148ZM159.303 19.2227C160.287 19.2227 161.203 19.1319 162.049 18.9452L161.725 17.4806C161.002 17.6402 160.196 17.7227 159.303 17.7227V19.2227ZM162.055 18.9438C162.91 18.7473 163.816 18.4222 164.773 17.9769L164.141 16.6169C163.256 17.0283 162.45 17.3139 161.719 17.482L162.055 18.9438ZM163.707 17.2969V21.1387H165.207V17.2969H163.707ZM164.116 20.4708C163.34 20.8673 162.543 21.1392 161.724 21.2897L161.995 22.765C162.962 22.5873 163.897 22.2668 164.798 21.8066L164.116 20.4708ZM161.724 21.2897C160.888 21.4432 159.869 21.5234 158.66 21.5234V23.0234C159.93 23.0234 161.044 22.9396 161.995 22.765L161.724 21.2897ZM158.346 9.12305C157.541 9.12305 156.825 9.38608 156.247 9.92709L157.272 11.0221C157.551 10.7611 157.892 10.623 158.346 10.623V9.12305ZM156.248 9.92671C155.64 10.4944 155.356 11.3245 155.274 12.2697L156.769 12.3983C156.833 11.6482 157.041 11.2387 157.272 11.0225L156.248 9.92671ZM156.021 13.084H160.615V11.584H156.021V13.084ZM161.365 12.3157C161.343 11.4308 161.085 10.6452 160.525 10.0357L159.42 11.0503C159.681 11.334 159.851 11.7424 159.865 12.3523L161.365 12.3157ZM160.531 10.0419C159.967 9.41403 159.209 9.12305 158.346 9.12305V10.623C158.849 10.623 159.176 10.7787 159.415 11.0441L160.531 10.0419ZM170.896 22.082L171.008 21.3403L171 21.3393L170.896 22.082ZM168.299 21.4121H167.549V21.9337L168.038 22.1152L168.299 21.4121ZM168.299 17.1328L168.601 16.4462L167.549 15.9839V17.1328H168.299ZM171.02 18.0352L170.844 18.7643L170.846 18.7647L171.02 18.0352ZM174.916 16.873L174.492 17.4916L174.502 17.4985L174.512 17.5051L174.916 16.873ZM172.1 15.6152L171.815 16.3092L171.822 16.3122L172.1 15.6152ZM169.119 13.6328L168.521 14.0852L168.524 14.0887L169.119 13.6328ZM169.939 7.43945L170.378 8.04773L169.939 7.43945ZM177.527 6.57812L177.342 7.3049L177.351 7.30701L177.527 6.57812ZM180.33 7.54883L181.021 7.83963L181.307 7.16143L180.634 6.8632L180.33 7.54883ZM178.881 10.9941L178.574 11.6784L179.274 11.9928L179.572 11.2849L178.881 10.9941ZM176.625 10.1875L176.418 10.9084L176.426 10.9105L176.625 10.1875ZM173.822 11.1719L173.42 11.8046L173.431 11.8117L173.442 11.8183L173.822 11.1719ZM176.475 12.3066L176.76 11.613L176.749 11.6088L176.475 12.3066ZM178.895 13.6191L178.422 14.2019L178.427 14.2058L178.895 13.6191ZM180.07 15.1367L179.379 15.4282L179.382 15.4348L179.385 15.4413L180.07 15.1367ZM179.703 17.2422C179.703 18.7115 179.215 19.7217 178.308 20.402L179.208 21.602C180.561 20.5869 181.203 19.0906 181.203 17.2422H179.703ZM178.308 20.402C177.358 21.1145 175.92 21.5234 173.891 21.5234V23.0234C176.091 23.0234 177.898 22.5847 179.208 21.602L178.308 20.402ZM173.891 21.5234C172.768 21.5234 171.809 21.4609 171.008 21.3404L170.785 22.8237C171.679 22.9583 172.717 23.0234 173.891 23.0234V21.5234ZM171 21.3393C170.211 21.229 169.398 21.0201 168.56 20.709L168.038 22.1152C168.968 22.4603 169.886 22.6981 170.793 22.8248L171 21.3393ZM169.049 21.4121V17.1328H167.549V21.4121H169.049ZM167.997 17.8194C168.872 18.2038 169.821 18.5181 170.844 18.7643L171.195 17.306C170.249 17.0782 169.385 16.7909 168.601 16.4462L167.997 17.8194ZM170.846 18.7647C171.879 19.0112 172.823 19.1406 173.672 19.1406V17.6406C172.971 17.6406 172.147 17.533 171.194 17.3056L170.846 18.7647ZM173.672 19.1406C174.284 19.1406 174.848 19.0744 175.286 18.8746C175.514 18.7705 175.738 18.6162 175.905 18.3867C176.079 18.1492 176.158 17.8758 176.158 17.5977H174.658C174.658 17.5838 174.665 17.5418 174.694 17.5024C174.717 17.4712 174.724 17.4821 174.663 17.5102C174.521 17.5747 174.217 17.6406 173.672 17.6406V19.1406ZM176.158 17.5977C176.158 16.969 175.764 16.5248 175.32 16.241L174.512 17.5051C174.618 17.5724 174.656 17.6193 174.665 17.6328C174.668 17.6383 174.666 17.6359 174.663 17.6262C174.66 17.6161 174.658 17.6056 174.658 17.5977H176.158ZM175.34 16.2545C175.117 16.1015 174.743 15.9172 174.278 15.7097C173.796 15.4941 173.161 15.23 172.377 14.9183L171.822 16.3122C172.597 16.6203 173.211 16.8757 173.667 17.0793C174.141 17.2912 174.396 17.4259 174.492 17.4916L175.34 16.2545ZM172.384 14.9214C171.014 14.3591 170.162 13.7619 169.715 13.177L168.524 14.0887C169.206 14.9803 170.342 15.7047 171.815 16.3091L172.384 14.9214ZM169.717 13.1805C169.271 12.5895 169.021 11.8149 169.021 10.8027H167.521C167.521 12.0692 167.838 13.1814 168.521 14.0851L169.717 13.1805ZM169.021 10.8027C169.021 9.58933 169.473 8.70068 170.378 8.04773L169.501 6.83118C168.182 7.7824 167.521 9.13593 167.521 10.8027H169.021ZM170.378 8.04773C171.314 7.37256 172.709 6.98633 174.656 6.98633V5.48633C172.538 5.48633 170.789 5.90218 169.501 6.83118L170.378 8.04773ZM174.656 6.98633C175.621 6.98633 176.515 7.09399 177.342 7.30485L177.713 5.8514C176.753 5.60653 175.733 5.48633 174.656 5.48633V6.98633ZM177.351 7.30701C178.204 7.51385 179.095 7.82183 180.026 8.23445L180.634 6.8632C179.632 6.41906 178.656 6.0799 177.704 5.84924L177.351 7.30701ZM179.639 7.25803L178.19 10.7033L179.572 11.2849L181.021 7.83963L179.639 7.25803ZM179.188 10.3099C178.44 9.9744 177.652 9.69285 176.824 9.46451L176.426 10.9105C177.184 11.1197 177.9 11.3759 178.574 11.6784L179.188 10.3099ZM176.832 9.46667C176.009 9.23021 175.285 9.0957 174.684 9.0957V10.5957C175.084 10.5957 175.655 10.6891 176.418 10.9083L176.832 9.46667ZM174.684 9.0957C174.209 9.0957 173.743 9.1499 173.369 9.33274C173.172 9.42924 172.977 9.57313 172.833 9.78506C172.685 10.0025 172.621 10.2467 172.621 10.4883H174.121C174.121 10.5157 174.112 10.5725 174.073 10.6292C174.038 10.6805 174.007 10.6906 174.029 10.68C174.053 10.6681 174.114 10.645 174.23 10.6261C174.344 10.6075 174.493 10.5957 174.684 10.5957V9.0957ZM172.621 10.4883C172.621 11.0948 172.986 11.529 173.42 11.8046L174.225 10.5391C174.138 10.4835 174.112 10.4476 174.11 10.4443C174.109 10.4436 174.113 10.4493 174.117 10.4605C174.12 10.472 174.121 10.4821 174.121 10.4883H172.621ZM173.442 11.8183C173.815 12.0376 174.765 12.4396 176.2 13.0045L176.749 11.6088C175.267 11.0252 174.449 10.6707 174.203 10.5254L173.442 11.8183ZM176.189 13.0001C177.248 13.436 177.977 13.8407 178.422 14.2018L179.367 13.0364C178.755 12.5408 177.871 12.0705 176.76 11.6131L176.189 13.0001ZM178.427 14.2058C178.876 14.5629 179.186 14.9702 179.379 15.4282L180.761 14.8452C180.462 14.1366 179.989 13.5321 179.362 13.0325L178.427 14.2058ZM179.385 15.4413C179.586 15.8942 179.703 16.4857 179.703 17.2422H181.203C181.203 16.3398 181.065 15.5277 180.756 14.8321L179.385 15.4413ZM188.793 22V22.75H189.543V22H188.793ZM183.447 22H182.697V22.75H183.447V22ZM183.447 6.50977V5.75977H182.697V6.50977H183.447ZM188.793 6.50977H189.543V5.75977H188.793V6.50977ZM188.314 0.876953L187.819 1.43999L188.314 0.876953ZM188.793 21.25H183.447V22.75H188.793V21.25ZM184.197 22V6.50977H182.697V22H184.197ZM183.447 7.25977H188.793V5.75977H183.447V7.25977ZM188.043 6.50977V22H189.543V6.50977H188.043ZM184.061 2.6543C184.061 1.98876 184.242 1.63143 184.475 1.427L183.486 0.299562C182.826 0.878983 182.561 1.71567 182.561 2.6543H184.061ZM184.475 1.427C184.719 1.21326 185.216 1.02539 186.141 1.02539V-0.474609C185.078 -0.474609 184.135 -0.270549 183.486 0.299562L184.475 1.427ZM186.141 1.02539C187.06 1.02539 187.564 1.21579 187.819 1.43999L188.81 0.313918C188.153 -0.263967 187.208 -0.474609 186.141 -0.474609V1.02539ZM187.819 1.43999C188.069 1.65969 188.248 2.01902 188.248 2.6543H189.748C189.748 1.72186 189.472 0.896296 188.81 0.313918L187.819 1.43999ZM188.248 2.6543C188.248 3.27984 188.065 3.62656 187.807 3.83886C187.521 4.07419 187.009 4.25586 186.141 4.25586V5.75586C187.177 5.75586 188.094 5.5456 188.76 4.99708C189.455 4.42552 189.748 3.59646 189.748 2.6543H188.248ZM186.141 4.25586C185.283 4.25586 184.779 4.07474 184.497 3.84112C184.243 3.6296 184.061 3.28223 184.061 2.6543H182.561C182.561 3.59407 182.85 4.42248 183.539 4.99482C184.201 5.54505 185.112 5.75586 186.141 5.75586V4.25586ZM207.141 6.50977H207.891V5.75977H207.141V6.50977ZM207.141 9.09375L207.399 9.79766L207.891 9.61705V9.09375H207.141ZM205.021 9.87305L204.763 9.16913L203.943 9.47059L204.365 10.2354L205.021 9.87305ZM203.695 15.6016L203.233 15.011L203.231 15.0128L203.695 15.6016ZM197.092 16.873L197.25 16.14L196.699 16.0208L196.431 16.5175L197.092 16.873ZM197.543 18.1582L197.301 18.8682L197.308 18.8705L197.315 18.8727L197.543 18.1582ZM204.584 27.1543L204.175 26.5254L204.174 26.5264L204.584 27.1543ZM192.73 27.6191L193.125 26.9812L193.124 26.9804L192.73 27.6191ZM194.398 20.8789L194.569 21.6092L196.81 21.0847L194.691 20.1882L194.398 20.8789ZM193.154 19.9082L192.562 20.3679L192.567 20.3753L193.154 19.9082ZM193.031 17.3105L193.639 17.7508L193.644 17.7436L193.031 17.3105ZM194.686 15.9844L195.076 16.625L196.3 15.8796L194.989 15.2987L194.686 15.9844ZM192.785 14.3164L192.143 14.7034L192.146 14.709L192.785 14.3164ZM201.74 6.50977L201.617 7.24956L201.678 7.25977H201.74V6.50977ZM196.176 24.9805L196.551 24.3308L196.541 24.3254L196.176 24.9805ZM201.18 24.8984L200.897 24.2037L200.887 24.2078L201.18 24.8984ZM201.645 22.7793L201.902 22.0747L201.89 22.0706L201.645 22.7793ZM196.053 22.9297L195.64 22.3035L195.632 22.3089L195.624 22.3146L196.053 22.9297ZM199.977 13.373L199.368 12.9344L199.361 12.9439L199.977 13.373ZM206.391 6.50977V9.09375H207.891V6.50977H206.391ZM206.882 8.38984L204.763 9.16913L205.28 10.577L207.399 9.79766L206.882 8.38984ZM204.365 10.2354C204.586 10.6362 204.709 11.1229 204.709 11.7188H206.209C206.209 10.9109 206.04 10.1672 205.678 9.51074L204.365 10.2354ZM204.709 11.7188C204.709 13.1869 204.204 14.2506 203.233 15.011L204.158 16.1921C205.538 15.1114 206.209 13.5866 206.209 11.7188H204.709ZM203.231 15.0128C202.253 15.7845 200.704 16.2324 198.459 16.2324V17.7324C200.862 17.7324 202.805 17.2598 204.16 16.1903L203.231 15.0128ZM198.459 16.2324C197.908 16.2324 197.513 16.1967 197.25 16.14L196.933 17.6061C197.346 17.6952 197.862 17.7324 198.459 17.7324V16.2324ZM196.431 16.5175C196.261 16.8335 196.15 17.1789 196.15 17.543H197.65C197.65 17.4877 197.667 17.3865 197.752 17.2286L196.431 16.5175ZM196.15 17.543C196.15 18.326 196.812 18.7016 197.301 18.8682L197.785 17.4482C197.709 17.4225 197.656 17.3986 197.621 17.3795C197.586 17.3602 197.576 17.3497 197.58 17.3533C197.585 17.358 197.605 17.379 197.623 17.4188C197.642 17.4603 197.65 17.5043 197.65 17.543H196.15ZM197.315 18.8727C197.846 19.042 198.492 19.1133 199.225 19.1133V17.6133C198.572 17.6133 198.097 17.5478 197.771 17.4437L197.315 18.8727ZM199.225 19.1133H201.795V17.6133H199.225V19.1133ZM201.795 19.1133C203.444 19.1133 204.541 19.4633 205.218 20.034C205.871 20.584 206.254 21.4416 206.254 22.752H207.754C207.754 21.1365 207.268 19.7998 206.185 18.8869C205.126 17.9947 203.618 17.6133 201.795 17.6133V19.1133ZM206.254 22.752C206.254 24.3788 205.581 25.6122 204.175 26.5254L204.993 27.7832C206.814 26.6 207.754 24.8986 207.754 22.752H206.254ZM204.174 26.5264C202.739 27.4636 200.649 27.9766 197.816 27.9766V29.4766C200.799 29.4766 203.22 28.9413 204.994 27.7822L204.174 26.5264ZM197.816 27.9766C195.687 27.9766 194.151 27.6158 193.125 26.9812L192.336 28.257C193.698 29.099 195.553 29.4766 197.816 29.4766V27.9766ZM193.124 26.9804C192.158 26.3859 191.703 25.5733 191.703 24.4609H190.203C190.203 26.1011 190.934 27.394 192.337 28.2579L193.124 26.9804ZM191.703 24.4609C191.703 23.705 191.931 23.1381 192.355 22.6976C192.795 22.2404 193.505 21.8584 194.569 21.6092L194.227 20.1487C192.995 20.4372 191.983 20.9211 191.274 21.6578C190.549 22.4113 190.203 23.3666 190.203 24.4609H191.703ZM194.691 20.1882C194.344 20.0416 194.027 19.8007 193.741 19.4411L192.567 20.3753C192.992 20.909 193.505 21.3152 194.106 21.5696L194.691 20.1882ZM193.747 19.4486C193.473 19.0948 193.385 18.81 193.385 18.582H191.885C191.885 19.229 192.143 19.8284 192.562 20.3678L193.747 19.4486ZM193.385 18.582C193.385 18.2449 193.474 17.9778 193.638 17.7508L192.424 16.8703C192.06 17.3724 191.885 17.953 191.885 18.582H193.385ZM193.644 17.7436C193.812 17.5049 194.247 17.1293 195.076 16.625L194.296 15.3437C193.447 15.8602 192.779 16.3688 192.419 16.8774L193.644 17.7436ZM194.989 15.2987C194.328 15.0055 193.811 14.5526 193.424 13.9238L192.146 14.709C192.689 15.5932 193.439 16.2523 194.382 16.6701L194.989 15.2987ZM193.428 13.9294C193.057 13.3137 192.852 12.534 192.852 11.5547H191.352C191.352 12.7447 191.602 13.8061 192.143 14.7034L193.428 13.9294ZM192.852 11.5547C192.852 10.0588 193.35 8.97988 194.296 8.21379L193.352 7.04793C192.002 8.14121 191.352 9.67816 191.352 11.5547H192.852ZM194.296 8.21379C195.263 7.43111 196.711 6.98633 198.746 6.98633V5.48633C196.516 5.48633 194.682 5.97123 193.352 7.04793L194.296 8.21379ZM198.746 6.98633C198.99 6.98633 199.447 7.01502 200.14 7.07887L200.278 5.58519C199.586 5.52144 199.067 5.48633 198.746 5.48633V6.98633ZM200.14 7.07887C200.83 7.14239 201.317 7.19964 201.617 7.24956L201.864 5.76997C201.507 5.71052 200.974 5.64928 200.278 5.58519L200.14 7.07887ZM201.74 7.25977H207.141V5.75977H201.74V7.25977ZM194.715 23.9277C194.715 24.7062 195.166 25.2761 195.81 25.6355L196.541 24.3254C196.238 24.1561 196.215 24.0243 196.215 23.9277H194.715ZM195.801 25.6301C196.429 25.9923 197.207 26.1406 198.076 26.1406V24.6406C197.359 24.6406 196.871 24.5155 196.551 24.3308L195.801 25.6301ZM198.076 26.1406C199.422 26.1406 200.569 25.9717 201.472 25.5891L200.887 24.2078C200.241 24.4815 199.318 24.6406 198.076 24.6406V26.1406ZM201.462 25.5931C202.323 25.2429 203.105 24.6434 203.105 23.6543H201.605C201.605 23.6948 201.598 23.7471 201.516 23.833C201.421 23.9341 201.233 24.0668 200.897 24.2038L201.462 25.5931ZM203.105 23.6543C203.105 23.2938 202.997 22.947 202.76 22.655C202.532 22.374 202.224 22.1925 201.902 22.0748L201.387 23.4837C201.539 23.5393 201.587 23.5902 201.596 23.6009C201.599 23.6054 201.6 23.6071 201.6 23.6088C201.601 23.6114 201.605 23.6246 201.605 23.6543H203.105ZM201.89 22.0706C201.299 21.8659 200.522 21.7832 199.607 21.7832V23.2832C200.462 23.2832 201.042 23.3646 201.399 23.488L201.89 22.0706ZM199.607 21.7832H197.516V23.2832H199.607V21.7832ZM197.516 21.7832C196.824 21.7832 196.186 21.9437 195.64 22.3035L196.465 23.5559C196.722 23.387 197.059 23.2832 197.516 23.2832V21.7832ZM195.624 22.3146C195.081 22.6934 194.715 23.2355 194.715 23.9277H196.215C196.215 23.8362 196.241 23.7128 196.482 23.5448L195.624 22.3146ZM196.396 11.582C196.396 12.4388 196.541 13.2148 196.944 13.7944C197.382 14.4235 198.044 14.7109 198.801 14.7109V13.2109C198.455 13.2109 198.29 13.1019 198.176 12.938C198.027 12.7246 197.896 12.3112 197.896 11.582H196.396ZM198.801 14.7109C199.537 14.7109 200.167 14.4108 200.592 13.8022L199.361 12.9439C199.239 13.1192 199.086 13.2109 198.801 13.2109V14.7109ZM200.585 13.8116C201.001 13.2346 201.15 12.4609 201.15 11.6094H199.65C199.65 12.3256 199.517 12.7276 199.368 12.9344L200.585 13.8116ZM201.15 11.6094C201.15 10.7479 201.012 9.97082 200.625 9.38948C200.203 8.75421 199.553 8.45312 198.801 8.45312V9.95312C199.115 9.95312 199.265 10.0531 199.376 10.2199C199.523 10.4406 199.65 10.8667 199.65 11.6094H201.15ZM198.801 8.45312C198.044 8.45312 197.382 8.74059 196.944 9.36966C196.541 9.94926 196.396 10.7252 196.396 11.582H197.896C197.896 10.8529 198.027 10.4394 198.176 10.226C198.29 10.0621 198.455 9.95312 198.801 9.95312V8.45312ZM219.281 22H218.531V22.75H219.281V22ZM218.83 11.2266L218.173 11.5889L218.177 11.5956L218.181 11.6023L218.83 11.2266ZM215.453 11.5137L214.798 11.1487L215.453 11.5137ZM214.852 22V22.75H215.602V22H214.852ZM209.506 22H208.756V22.75H209.506V22ZM209.506 6.50977V5.75977H208.756V6.50977H209.506ZM213.539 6.50977L214.247 6.262L214.071 5.75977H213.539V6.50977ZM214.209 8.42383L213.501 8.67159L213.677 9.17383H214.209V8.42383ZM214.523 8.42383V9.17383H214.939L215.159 8.82133L214.523 8.42383ZM216.41 6.7832L216.103 6.09911L216.1 6.10043L216.41 6.7832ZM223.191 7.72656L222.649 8.24431L222.651 8.24689L223.191 7.72656ZM224.627 22V22.75H225.377V22H224.627ZM220.031 22V13.5508H218.531V22H220.031ZM220.031 13.5508C220.031 12.4716 219.878 11.5395 219.479 10.8508L218.181 11.6023C218.384 11.9527 218.531 12.5701 218.531 13.5508H220.031ZM219.487 10.8643C219.05 10.072 218.308 9.68359 217.408 9.68359V11.1836C217.82 11.1836 218.027 11.3239 218.173 11.5889L219.487 10.8643ZM217.408 9.68359C216.265 9.68359 215.346 10.1646 214.798 11.1487L216.108 11.8786C216.362 11.4226 216.746 11.1836 217.408 11.1836V9.68359ZM214.798 11.1487C214.296 12.0493 214.102 13.4543 214.102 15.2188H215.602C215.602 13.4832 215.808 12.4182 216.108 11.8786L214.798 11.1487ZM214.102 15.2188V22H215.602V15.2188H214.102ZM214.852 21.25H209.506V22.75H214.852V21.25ZM210.256 22V6.50977H208.756V22H210.256ZM209.506 7.25977H213.539V5.75977H209.506V7.25977ZM212.831 6.75753L213.501 8.67159L214.917 8.17607L214.247 6.262L212.831 6.75753ZM214.209 9.17383H214.523V7.67383H214.209V9.17383ZM215.159 8.82133C215.535 8.22042 216.049 7.77114 216.721 7.46598L216.1 6.10043C215.167 6.52443 214.423 7.1689 213.887 8.02633L215.159 8.82133ZM216.718 7.46729C217.416 7.15322 218.238 6.98633 219.199 6.98633V5.48633C218.064 5.48633 217.026 5.68402 216.103 6.09912L216.718 7.46729ZM219.199 6.98633C220.762 6.98633 221.876 7.4342 222.649 8.2443L223.734 7.20882C222.611 6.03194 221.064 5.48633 219.199 5.48633V6.98633ZM222.651 8.24689C223.436 9.06164 223.877 10.2513 223.877 11.9238H225.377C225.377 9.98694 224.861 8.37846 223.732 7.20624L222.651 8.24689ZM223.877 11.9238V22H225.377V11.9238H223.877ZM224.627 21.25H219.281V22.75H224.627V21.25Z" fill="#7B838D"/>
</svg>
