<svg width="205" height="29" viewBox="0 0 205 29" fill="none" xmlns="http://www.w3.org/2000/svg">
<path d="M14.3652 19.293L13.8402 18.7574L13.8389 18.7587L14.3652 19.293ZM0.160156 22H-0.589844V22.75H0.160156V22ZM0.160156 2.01172V1.26172H-0.589844V2.01172H0.160156ZM14.502 4.47266L13.9876 5.01847L13.989 5.01981L14.502 4.47266ZM10.4277 7.69922L9.84619 8.17285L9.84913 8.17642L10.4277 7.69922ZM5.56055 6.37305V5.62305H4.81055V6.37305H5.56055ZM5.56055 17.5703H4.81055V18.3203H5.56055V17.5703ZM10.373 16.1484L10.9565 16.6197L10.9587 16.617L10.373 16.1484ZM16.377 11.582C16.377 14.7785 15.4985 17.1319 13.8402 18.7574L14.8902 19.8286C16.9143 17.8446 17.877 15.0574 17.877 11.582H16.377ZM13.8389 18.7587C12.185 20.3879 9.81707 21.25 6.62695 21.25V22.75C10.0905 22.75 12.8815 21.8074 14.8916 19.8273L13.8389 18.7587ZM6.62695 21.25H0.160156V22.75H6.62695V21.25ZM0.910156 22V2.01172H-0.589844V22H0.910156ZM0.160156 2.76172H7.07812V1.26172H0.160156V2.76172ZM7.07812 2.76172C10.1619 2.76172 12.4278 3.54851 13.9876 5.01847L15.0163 3.92684C13.0944 2.11556 10.411 1.26172 7.07812 1.26172V2.76172ZM13.989 5.01981C15.5467 6.4802 16.377 8.62652 16.377 11.582H17.877C17.877 8.33963 16.9572 5.74636 15.0149 3.9255L13.989 5.01981ZM12.2715 11.7734C12.2715 9.86495 11.8956 8.3003 11.0063 7.22202L9.84913 8.17642C10.4182 8.86637 10.7715 10.0179 10.7715 11.7734H12.2715ZM11.0093 7.2256C10.1069 6.11762 8.76308 5.62305 7.13281 5.62305V7.12305C8.45567 7.12305 9.30847 7.51259 9.8462 8.17284L11.0093 7.2256ZM7.13281 5.62305H5.56055V7.12305H7.13281V5.62305ZM4.81055 6.37305V17.5703H6.31055V6.37305H4.81055ZM5.56055 18.3203H6.76367V16.8203H5.56055V18.3203ZM6.76367 18.3203C8.54718 18.3203 10.0031 17.8001 10.9565 16.6197L9.78959 15.6772C9.21174 16.3926 8.26142 16.8203 6.76367 16.8203V18.3203ZM10.9587 16.617C11.8779 15.4679 12.2715 13.8082 12.2715 11.7734H10.7715C10.7715 13.658 10.3994 14.9149 9.7874 15.6799L10.9587 16.617ZM21.8711 20.2227L21.3495 20.7616L21.353 20.7649L21.8711 20.2227ZM21.7207 8.3418L22.2651 8.85771L22.2667 8.85593L21.7207 8.3418ZM32.7812 8.06836L32.2607 8.60833L32.2647 8.61211L32.7812 8.06836ZM34.6953 15.6973V16.4473H35.4453V15.6973H34.6953ZM25.1387 15.6973V14.9473H24.3564L24.3893 15.7288L25.1387 15.6973ZM26.082 17.7344L25.6028 18.3113L25.6071 18.3148L26.082 17.7344ZM31.1133 18.2129L31.2751 18.9453L31.2813 18.9438L31.1133 18.2129ZM33.6836 17.2969H34.4336V16.1206L33.3672 16.6169L33.6836 17.2969ZM33.6836 21.1387L34.0248 21.8066L34.4336 21.5977V21.1387H33.6836ZM25.9863 10.4746L26.4985 11.0225L26.4989 11.0221L25.9863 10.4746ZM25.248 12.334L24.5008 12.2697L24.4308 13.084H25.248V12.334ZM29.8418 12.334V13.084H30.6103L30.5916 12.3157L29.8418 12.334ZM29.1992 10.543L28.6411 11.0441L28.6468 11.0503L29.1992 10.543ZM27.8867 21.5234C25.4397 21.5234 23.6423 20.8776 22.3892 19.6804L21.353 20.7649C22.9619 22.3021 25.1748 23.0234 27.8867 23.0234V21.5234ZM22.3927 19.6838C21.1549 18.4856 20.4883 16.7481 20.4883 14.3574H18.9883C18.9883 17.0344 19.7435 19.2071 21.3495 20.7616L22.3927 19.6838ZM20.4883 14.3574C20.4883 11.8629 21.1171 10.069 22.2651 8.8577L21.1763 7.82589C19.681 9.40369 18.9883 11.6202 18.9883 14.3574H20.4883ZM22.2667 8.85593C23.4104 7.64128 25.0762 6.98633 27.3809 6.98633V5.48633C24.7819 5.48633 22.6742 6.23502 21.1747 7.82766L22.2667 8.85593ZM27.3809 6.98633C29.5852 6.98633 31.1743 7.561 32.2607 8.60831L33.3018 7.52841C31.8543 6.13301 29.8432 5.48633 27.3809 5.48633V6.98633ZM32.2647 8.61211C33.3505 9.6436 33.9453 11.1714 33.9453 13.3184H35.4453C35.4453 10.8898 34.7641 8.9176 33.2978 7.52461L32.2647 8.61211ZM33.9453 13.3184V15.6973H35.4453V13.3184H33.9453ZM34.6953 14.9473H25.1387V16.4473H34.6953V14.9473ZM24.3893 15.7288C24.4335 16.7771 24.8259 17.6659 25.6028 18.3113L26.5613 17.1575C26.1532 16.8185 25.9168 16.3492 25.888 15.6657L24.3893 15.7288ZM25.6071 18.3148C26.3808 18.9478 27.3828 19.2227 28.5293 19.2227V17.7227C27.6159 17.7227 26.9864 17.5053 26.557 17.1539L25.6071 18.3148ZM28.5293 19.2227C29.5136 19.2227 30.43 19.1319 31.2751 18.9452L30.9515 17.4806C30.2288 17.6402 29.4226 17.7227 28.5293 17.7227V19.2227ZM31.2813 18.9438C32.1361 18.7473 33.0431 18.4222 34 17.9769L33.3672 16.6169C32.483 17.0283 31.6764 17.3139 30.9453 17.482L31.2813 18.9438ZM32.9336 17.2969V21.1387H34.4336V17.2969H32.9336ZM33.3424 20.4708C32.5663 20.8673 31.7695 21.1392 30.9504 21.2897L31.2214 22.765C32.1889 22.5873 33.1238 22.2668 34.0248 21.8066L33.3424 20.4708ZM30.9504 21.2897C30.1147 21.4432 29.0961 21.5234 27.8867 21.5234V23.0234C29.1565 23.0234 30.2707 22.9396 31.2214 22.765L30.9504 21.2897ZM27.5723 9.12305C26.768 9.12305 26.0517 9.38608 25.4738 9.92709L26.4989 11.0221C26.7778 10.7611 27.1188 10.623 27.5723 10.623V9.12305ZM25.4742 9.92671C24.8669 10.4944 24.5821 11.3245 24.5008 12.2697L25.9953 12.3983C26.0598 11.6482 26.2672 11.2387 26.4985 11.0225L25.4742 9.92671ZM25.248 13.084H29.8418V11.584H25.248V13.084ZM30.5916 12.3157C30.57 11.4308 30.3114 10.6452 29.7516 10.0357L28.6468 11.0503C28.9073 11.334 29.0771 11.7424 29.092 12.3523L30.5916 12.3157ZM29.7573 10.0419C29.1935 9.41403 28.436 9.12305 27.5723 9.12305V10.623C28.0757 10.623 28.4029 10.7787 28.6412 11.0441L29.7573 10.0419ZM40.123 22.082L40.2347 21.3403L40.2269 21.3393L40.123 22.082ZM37.5254 21.4121H36.7754V21.9337L37.2644 22.1152L37.5254 21.4121ZM37.5254 17.1328L37.8272 16.4462L36.7754 15.9839V17.1328H37.5254ZM40.2461 18.0352L40.0706 18.7643L40.0721 18.7647L40.2461 18.0352ZM44.1426 16.873L43.7184 17.4916L43.7285 17.4985L43.7388 17.5051L44.1426 16.873ZM41.3262 15.6152L41.0415 16.3092L41.049 16.3122L41.3262 15.6152ZM38.3457 13.6328L37.7474 14.0852L37.7501 14.0887L38.3457 13.6328ZM39.166 7.43945L39.6048 8.04773L39.166 7.43945ZM46.7539 6.57812L46.5685 7.3049L46.5772 7.30701L46.7539 6.57812ZM49.5566 7.54883L50.248 7.83963L50.5332 7.16143L49.8606 6.8632L49.5566 7.54883ZM48.1074 10.9941L47.8004 11.6784L48.501 11.9928L48.7988 11.2849L48.1074 10.9941ZM45.8516 10.1875L45.6444 10.9084L45.6521 10.9105L45.8516 10.1875ZM43.0488 11.1719L42.6462 11.8046L42.6572 11.8117L42.6686 11.8183L43.0488 11.1719ZM45.7012 12.3066L45.9868 11.613L45.976 11.6088L45.7012 12.3066ZM48.1211 13.6191L47.6489 14.2019L47.6538 14.2058L48.1211 13.6191ZM49.2969 15.1367L48.6059 15.4282L48.6086 15.4348L48.6115 15.4413L49.2969 15.1367ZM48.9297 17.2422C48.9297 18.7115 48.4414 19.7217 47.5344 20.402L48.4344 21.602C49.7878 20.5869 50.4297 19.0906 50.4297 17.2422H48.9297ZM47.5344 20.402C46.5842 21.1145 45.1462 21.5234 43.1172 21.5234V23.0234C45.3174 23.0234 47.1241 22.5847 48.4344 21.602L47.5344 20.402ZM43.1172 21.5234C41.9944 21.5234 41.0354 21.4609 40.2347 21.3404L40.0114 22.8237C40.906 22.9583 41.9431 23.0234 43.1172 23.0234V21.5234ZM40.2269 21.3393C39.438 21.229 38.6248 21.0201 37.7864 20.709L37.2644 22.1152C38.1943 22.4603 39.1128 22.6981 40.0192 22.8248L40.2269 21.3393ZM38.2754 21.4121V17.1328H36.7754V21.4121H38.2754ZM37.2236 17.8194C38.0982 18.2038 39.0479 18.5181 40.0706 18.7643L40.4216 17.306C39.4756 17.0782 38.6115 16.7909 37.8272 16.4462L37.2236 17.8194ZM40.0721 18.7647C41.1057 19.0112 42.0499 19.1406 42.8984 19.1406V17.6406C42.1974 17.6406 41.3735 17.533 40.4201 17.3056L40.0721 18.7647ZM42.8984 19.1406C43.5108 19.1406 44.0749 19.0744 44.5122 18.8746C44.7402 18.7705 44.9646 18.6162 45.132 18.3867C45.3055 18.1492 45.3848 17.8758 45.3848 17.5977H43.8848C43.8848 17.5838 43.8917 17.5418 43.9204 17.5024C43.9432 17.4712 43.9505 17.4821 43.8891 17.5102C43.7477 17.5747 43.4436 17.6406 42.8984 17.6406V19.1406ZM45.3848 17.5977C45.3848 16.969 44.9905 16.5248 44.5464 16.241L43.7388 17.5051C43.8442 17.5724 43.8821 17.6193 43.8913 17.6328C43.895 17.6383 43.8925 17.6359 43.8894 17.6262C43.8862 17.6161 43.8848 17.6056 43.8848 17.5977H45.3848ZM44.5667 16.2545C44.3435 16.1015 43.9696 15.9172 43.5051 15.7097C43.0222 15.4941 42.3871 15.23 41.6033 14.9183L41.049 16.3122C41.8239 16.6203 42.4375 16.8757 42.8934 17.0793C43.3677 17.2912 43.6226 17.4259 43.7184 17.4916L44.5667 16.2545ZM41.6108 14.9214C40.2404 14.3591 39.389 13.7619 38.9413 13.177L37.7501 14.0887C38.4327 14.9803 39.5682 15.7047 41.0415 16.3091L41.6108 14.9214ZM38.9439 13.1805C38.4971 12.5895 38.248 11.8149 38.248 10.8027H36.748C36.748 12.0692 37.0641 13.1814 37.7475 14.0851L38.9439 13.1805ZM38.248 10.8027C38.248 9.58933 38.6995 8.70068 39.6048 8.04773L38.7273 6.83118C37.4085 7.7824 36.748 9.13593 36.748 10.8027H38.248ZM39.6048 8.04773C40.5408 7.37256 41.9355 6.98633 43.8828 6.98633V5.48633C41.765 5.48633 40.0152 5.90218 38.7273 6.83118L39.6048 8.04773ZM43.8828 6.98633C44.8477 6.98633 45.742 7.09399 46.5685 7.30485L46.9393 5.8514C45.9794 5.60653 44.9596 5.48633 43.8828 5.48633V6.98633ZM46.5772 7.30701C47.4304 7.51385 48.322 7.82183 49.2526 8.23445L49.8606 6.8632C48.859 6.41906 47.8821 6.0799 46.9306 5.84924L46.5772 7.30701ZM48.8653 7.25803L47.4161 10.7033L48.7988 11.2849L50.248 7.83963L48.8653 7.25803ZM48.4145 10.3099C47.6668 9.9744 46.8787 9.69285 46.051 9.46451L45.6521 10.9105C46.4103 11.1197 47.1261 11.3759 47.8004 11.6784L48.4145 10.3099ZM46.0587 9.46667C45.2358 9.23021 44.512 9.0957 43.9102 9.0957V10.5957C44.3109 10.5957 44.8814 10.6891 45.6444 10.9083L46.0587 9.46667ZM43.9102 9.0957C43.4355 9.0957 42.9695 9.1499 42.596 9.33274C42.3989 9.42924 42.204 9.57313 42.0597 9.78506C41.9117 10.0025 41.8477 10.2467 41.8477 10.4883H43.3477C43.3477 10.5157 43.3383 10.5725 43.2996 10.6292C43.2647 10.6805 43.2339 10.6906 43.2556 10.68C43.2798 10.6681 43.3407 10.645 43.4567 10.6261C43.5707 10.6075 43.72 10.5957 43.9102 10.5957V9.0957ZM41.8477 10.4883C41.8477 11.0948 42.213 11.529 42.6462 11.8046L43.4515 10.5391C43.3641 10.4835 43.3386 10.4476 43.3364 10.4443C43.336 10.4436 43.3397 10.4493 43.3431 10.4605C43.3466 10.472 43.3477 10.4821 43.3477 10.4883H41.8477ZM42.6686 11.8183C43.0414 12.0376 43.9918 12.4396 45.4264 13.0045L45.976 11.6088C44.4939 11.0252 43.6761 10.6707 43.4291 10.5254L42.6686 11.8183ZM45.4156 13.0001C46.4741 13.436 47.2032 13.8407 47.6489 14.2018L48.5933 13.0364C47.9817 12.5408 47.0975 12.0705 45.9867 11.6131L45.4156 13.0001ZM47.6538 14.2058C48.1021 14.5629 48.4126 14.9702 48.6059 15.4282L49.9879 14.8452C49.6889 14.1366 49.2156 13.5321 48.5884 13.0325L47.6538 14.2058ZM48.6115 15.4413C48.8128 15.8942 48.9297 16.4857 48.9297 17.2422H50.4297C50.4297 16.3398 50.2914 15.5277 49.9822 14.8321L48.6115 15.4413ZM58.0195 22V22.75H58.7695V22H58.0195ZM52.6738 22H51.9238V22.75H52.6738V22ZM52.6738 6.50977V5.75977H51.9238V6.50977H52.6738ZM58.0195 6.50977H58.7695V5.75977H58.0195V6.50977ZM57.541 0.876953L57.0455 1.43999L57.541 0.876953ZM58.0195 21.25H52.6738V22.75H58.0195V21.25ZM53.4238 22V6.50977H51.9238V22H53.4238ZM52.6738 7.25977H58.0195V5.75977H52.6738V7.25977ZM57.2695 6.50977V22H58.7695V6.50977H57.2695ZM53.2871 2.6543C53.2871 1.98876 53.4688 1.63143 53.7017 1.427L52.7123 0.299562C52.0521 0.878983 51.7871 1.71567 51.7871 2.6543H53.2871ZM53.7017 1.427C53.9453 1.21326 54.4424 1.02539 55.3672 1.02539V-0.474609C54.305 -0.474609 53.362 -0.270549 52.7123 0.299562L53.7017 1.427ZM55.3672 1.02539C56.2869 1.02539 56.7908 1.21579 57.0455 1.43999L58.0365 0.313918C57.3798 -0.263967 56.4344 -0.474609 55.3672 -0.474609V1.02539ZM57.0455 1.43999C57.2952 1.65969 57.4746 2.01902 57.4746 2.6543H58.9746C58.9746 1.72186 58.6983 0.896296 58.0365 0.313918L57.0455 1.43999ZM57.4746 2.6543C57.4746 3.27984 57.2916 3.62656 57.0337 3.83886C56.7477 4.07419 56.2357 4.25586 55.3672 4.25586V5.75586C56.4036 5.75586 57.3203 5.5456 57.9868 4.99708C58.6813 4.42552 58.9746 3.59646 58.9746 2.6543H57.4746ZM55.3672 4.25586C54.5091 4.25586 54.0051 4.07474 53.7239 3.84112C53.4694 3.6296 53.2871 3.28223 53.2871 2.6543H51.7871C51.7871 3.59407 52.0765 4.42248 52.7653 4.99482C53.4275 5.54505 54.3386 5.75586 55.3672 5.75586V4.25586ZM76.3672 6.50977H77.1172V5.75977H76.3672V6.50977ZM76.3672 9.09375L76.626 9.79766L77.1172 9.61705V9.09375H76.3672ZM74.248 9.87305L73.9892 9.16913L73.1694 9.47059L73.5914 10.2354L74.248 9.87305ZM72.9219 15.6016L72.4595 15.011L72.4573 15.0128L72.9219 15.6016ZM66.3184 16.873L66.4769 16.14L65.9255 16.0208L65.658 16.5175L66.3184 16.873ZM66.7695 18.1582L66.5278 18.8682L66.5346 18.8705L66.5415 18.8727L66.7695 18.1582ZM73.8105 27.1543L73.4019 26.5254L73.4003 26.5264L73.8105 27.1543ZM61.957 27.6191L62.3515 26.9812L62.3501 26.9804L61.957 27.6191ZM63.625 20.8789L63.796 21.6092L66.0362 21.0847L63.9172 20.1882L63.625 20.8789ZM62.3809 19.9082L61.7881 20.3679L61.794 20.3753L62.3809 19.9082ZM62.2578 17.3105L62.8651 17.7508L62.8701 17.7436L62.2578 17.3105ZM63.9121 15.9844L64.3021 16.625L65.5267 15.8796L64.216 15.2987L63.9121 15.9844ZM62.0117 14.3164L61.3693 14.7034L61.3727 14.709L62.0117 14.3164ZM70.9668 6.50977L70.8435 7.24956L70.9047 7.25977H70.9668V6.50977ZM65.4023 24.9805L65.7772 24.3308L65.7676 24.3254L65.4023 24.9805ZM70.4062 24.8984L70.1235 24.2037L70.1138 24.2078L70.4062 24.8984ZM70.8711 22.7793L71.1285 22.0747L71.1164 22.0706L70.8711 22.7793ZM65.2793 22.9297L64.8666 22.3035L64.8583 22.3089L64.8502 22.3146L65.2793 22.9297ZM69.2031 13.373L68.5947 12.9344L68.588 12.9439L69.2031 13.373ZM75.6172 6.50977V9.09375H77.1172V6.50977H75.6172ZM76.1083 8.38984L73.9892 9.16913L74.5069 10.577L76.626 9.79766L76.1083 8.38984ZM73.5914 10.2354C73.8125 10.6362 73.9355 11.1229 73.9355 11.7188H75.4355C75.4355 10.9109 75.2669 10.1672 74.9047 9.51074L73.5914 10.2354ZM73.9355 11.7188C73.9355 13.1869 73.4308 14.2506 72.4595 15.011L73.3842 16.1921C74.7645 15.1114 75.4355 13.5866 75.4355 11.7188H73.9355ZM72.4573 15.0128C71.4793 15.7845 69.9306 16.2324 67.6855 16.2324V17.7324C70.0889 17.7324 72.0312 17.2598 73.3865 16.1903L72.4573 15.0128ZM67.6855 16.2324C67.1345 16.2324 66.7391 16.1967 66.4769 16.14L66.1599 17.6061C66.5721 17.6952 67.0882 17.7324 67.6855 17.7324V16.2324ZM65.658 16.5175C65.4878 16.8335 65.377 17.1789 65.377 17.543H66.877C66.877 17.4877 66.8937 17.3865 66.9787 17.2286L65.658 16.5175ZM65.377 17.543C65.377 18.326 66.0386 18.7016 66.5278 18.8682L67.0112 17.4482C66.9357 17.4225 66.8829 17.3986 66.8479 17.3795C66.8125 17.3602 66.8025 17.3497 66.8063 17.3533C66.8112 17.358 66.8313 17.379 66.8494 17.4188C66.8684 17.4603 66.877 17.5043 66.877 17.543H65.377ZM66.5415 18.8727C67.0721 19.042 67.7181 19.1133 68.4512 19.1133V17.6133C67.7988 17.6133 67.3237 17.5478 66.9976 17.4437L66.5415 18.8727ZM68.4512 19.1133H71.0215V17.6133H68.4512V19.1133ZM71.0215 19.1133C72.6706 19.1133 73.7676 19.4633 74.445 20.034C75.0977 20.584 75.4805 21.4416 75.4805 22.752H76.9805C76.9805 21.1365 76.495 19.7998 75.4115 18.8869C74.3525 17.9947 72.845 17.6133 71.0215 17.6133V19.1133ZM75.4805 22.752C75.4805 24.3788 74.8074 25.6122 73.4019 26.5254L74.2192 27.7832C76.0403 26.6 76.9805 24.8986 76.9805 22.752H75.4805ZM73.4003 26.5264C71.966 27.4636 69.8751 27.9766 67.043 27.9766V29.4766C70.026 29.4766 72.4468 28.9413 74.2208 27.7822L73.4003 26.5264ZM67.043 27.9766C64.9136 27.9766 63.3778 27.6158 62.3515 26.9812L61.5626 28.257C62.9243 29.099 64.7791 29.4766 67.043 29.4766V27.9766ZM62.3501 26.9804C61.3841 26.3859 60.9297 25.5733 60.9297 24.4609H59.4297C59.4297 26.1011 60.1602 27.394 61.564 28.2579L62.3501 26.9804ZM60.9297 24.4609C60.9297 23.705 61.1579 23.1381 61.5816 22.6976C62.0214 22.2404 62.7314 21.8584 63.796 21.6092L63.454 20.1487C62.2217 20.4372 61.2091 20.9211 60.5005 21.6578C59.7757 22.4113 59.4297 23.3666 59.4297 24.4609H60.9297ZM63.9172 20.1882C63.5708 20.0416 63.2538 19.8007 62.9677 19.4411L61.794 20.3753C62.2188 20.909 62.7313 21.3152 63.3328 21.5696L63.9172 20.1882ZM62.9735 19.4486C62.6992 19.0948 62.6113 18.81 62.6113 18.582H61.1113C61.1113 19.229 61.3699 19.8284 61.7882 20.3678L62.9735 19.4486ZM62.6113 18.582C62.6113 18.2449 62.7004 17.9778 62.865 17.7508L61.6506 16.8703C61.2866 17.3724 61.1113 17.953 61.1113 18.582H62.6113ZM62.8701 17.7436C63.039 17.5049 63.4736 17.1293 64.3021 16.625L63.5221 15.3437C62.6736 15.8602 62.0053 16.3688 61.6455 16.8774L62.8701 17.7436ZM64.216 15.2987C63.5545 15.0055 63.0371 14.5526 62.6507 13.9238L61.3727 14.709C61.916 15.5932 62.6656 16.2523 63.6082 16.6701L64.216 15.2987ZM62.6542 13.9294C62.2833 13.3137 62.0781 12.534 62.0781 11.5547H60.5781C60.5781 12.7447 60.8287 13.8061 61.3693 14.7034L62.6542 13.9294ZM62.0781 11.5547C62.0781 10.0588 62.5763 8.97988 63.5227 8.21379L62.5789 7.04793C61.2284 8.14121 60.5781 9.67816 60.5781 11.5547H62.0781ZM63.5227 8.21379C64.4895 7.43111 65.9374 6.98633 67.9727 6.98633V5.48633C65.7422 5.48633 63.9089 5.97123 62.5789 7.04793L63.5227 8.21379ZM67.9727 6.98633C68.2169 6.98633 68.6735 7.01502 69.3668 7.07887L69.5043 5.58519C68.8122 5.52144 68.2935 5.48633 67.9727 5.48633V6.98633ZM69.3668 7.07887C70.0564 7.14239 70.544 7.19964 70.8435 7.24956L71.0901 5.76997C70.7334 5.71052 70.2001 5.64928 69.5043 5.58519L69.3668 7.07887ZM70.9668 7.25977H76.3672V5.75977H70.9668V7.25977ZM63.9414 23.9277C63.9414 24.7062 64.3927 25.2761 65.037 25.6355L65.7676 24.3254C65.4641 24.1561 65.4414 24.0243 65.4414 23.9277H63.9414ZM65.0275 25.6301C65.6554 25.9923 66.4336 26.1406 67.3027 26.1406V24.6406C66.5859 24.6406 66.0972 24.5155 65.7771 24.3308L65.0275 25.6301ZM67.3027 26.1406C68.6489 26.1406 69.7953 25.9717 70.6987 25.5891L70.1138 24.2078C69.4677 24.4815 68.5451 24.6406 67.3027 24.6406V26.1406ZM70.689 25.5931C71.5494 25.2429 72.332 24.6434 72.332 23.6543H70.832C70.832 23.6948 70.8242 23.7471 70.743 23.833C70.6474 23.9341 70.46 24.0668 70.1235 24.2038L70.689 25.5931ZM72.332 23.6543C72.332 23.2938 72.2236 22.947 71.9864 22.655C71.7581 22.374 71.4505 22.1925 71.1285 22.0748L70.6137 23.4837C70.7657 23.5393 70.8135 23.5902 70.8222 23.6009C70.8259 23.6054 70.8264 23.6071 70.827 23.6088C70.8279 23.6114 70.832 23.6246 70.832 23.6543H72.332ZM71.1164 22.0706C70.5252 21.8659 69.7481 21.7832 68.834 21.7832V23.2832C69.6881 23.2832 70.269 23.3646 70.6258 23.488L71.1164 22.0706ZM68.834 21.7832H66.7422V23.2832H68.834V21.7832ZM66.7422 21.7832C66.0504 21.7832 65.4123 21.9437 64.8666 22.3035L65.692 23.5559C65.9483 23.387 66.2856 23.2832 66.7422 23.2832V21.7832ZM64.8502 22.3146C64.3072 22.6934 63.9414 23.2355 63.9414 23.9277H65.4414C65.4414 23.8362 65.4676 23.7128 65.7084 23.5448L64.8502 22.3146ZM65.623 11.582C65.623 12.4388 65.7678 13.2148 66.1709 13.7944C66.6083 14.4235 67.2707 14.7109 68.0273 14.7109V13.2109C67.6811 13.2109 67.5163 13.1019 67.4024 12.938C67.254 12.7246 67.123 12.3112 67.123 11.582H65.623ZM68.0273 14.7109C68.7632 14.7109 69.3936 14.4108 69.8182 13.8022L68.588 12.9439C68.4658 13.1192 68.3123 13.2109 68.0273 13.2109V14.7109ZM69.8115 13.8116C70.2275 13.2346 70.377 12.4609 70.377 11.6094H68.877C68.877 12.3256 68.7438 12.7276 68.5947 12.9344L69.8115 13.8116ZM70.377 11.6094C70.377 10.7479 70.2381 9.97082 69.8516 9.38948C69.4293 8.75421 68.7799 8.45312 68.0273 8.45312V9.95312C68.3412 9.95312 68.4916 10.0531 68.6025 10.2199C68.7492 10.4406 68.877 10.8667 68.877 11.6094H70.377ZM68.0273 8.45312C67.2707 8.45312 66.6083 8.74059 66.1709 9.36966C65.7678 9.94926 65.623 10.7252 65.623 11.582H67.123C67.123 10.8529 67.254 10.4394 67.4024 10.226C67.5163 10.0621 67.6811 9.95312 68.0273 9.95312V8.45312ZM88.5078 22H87.7578V22.75H88.5078V22ZM88.0566 11.2266L87.4 11.5889L87.4037 11.5956L87.4076 11.6023L88.0566 11.2266ZM84.6797 11.5137L84.0245 11.1487L84.6797 11.5137ZM84.0781 22V22.75H84.8281V22H84.0781ZM78.7324 22H77.9824V22.75H78.7324V22ZM78.7324 6.50977V5.75977H77.9824V6.50977H78.7324ZM82.7656 6.50977L83.4735 6.262L83.2977 5.75977H82.7656V6.50977ZM83.4355 8.42383L82.7277 8.67159L82.9034 9.17383H83.4355V8.42383ZM83.75 8.42383V9.17383H84.1657L84.386 8.82133L83.75 8.42383ZM85.6367 6.7832L85.3293 6.09911L85.3264 6.10043L85.6367 6.7832ZM92.418 7.72656L91.8753 8.24431L91.8778 8.24689L92.418 7.72656ZM93.8535 22V22.75H94.6035V22H93.8535ZM89.2578 22V13.5508H87.7578V22H89.2578ZM89.2578 13.5508C89.2578 12.4716 89.1044 11.5395 88.7057 10.8508L87.4076 11.6023C87.6104 11.9527 87.7578 12.5701 87.7578 13.5508H89.2578ZM88.7133 10.8643C88.2762 10.072 87.535 9.68359 86.6348 9.68359V11.1836C87.047 11.1836 87.2538 11.3239 87.4 11.5889L88.7133 10.8643ZM86.6348 9.68359C85.4919 9.68359 84.5726 10.1646 84.0245 11.1487L85.3349 11.8786C85.5889 11.4226 85.973 11.1836 86.6348 11.1836V9.68359ZM84.0245 11.1487C83.5229 12.0493 83.3281 13.4543 83.3281 15.2188H84.8281C84.8281 13.4832 85.0344 12.4182 85.3349 11.8786L84.0245 11.1487ZM83.3281 15.2188V22H84.8281V15.2188H83.3281ZM84.0781 21.25H78.7324V22.75H84.0781V21.25ZM79.4824 22V6.50977H77.9824V22H79.4824ZM78.7324 7.25977H82.7656V5.75977H78.7324V7.25977ZM82.0577 6.75753L82.7277 8.67159L84.1434 8.17607L83.4735 6.262L82.0577 6.75753ZM83.4355 9.17383H83.75V7.67383H83.4355V9.17383ZM84.386 8.82133C84.7616 8.22042 85.2757 7.77114 85.9471 7.46598L85.3264 6.10043C84.3936 6.52443 83.6499 7.1689 83.114 8.02633L84.386 8.82133ZM85.9442 7.46729C86.643 7.15322 87.4649 6.98633 88.4258 6.98633V5.48633C87.2903 5.48633 86.2529 5.68402 85.3293 6.09912L85.9442 7.46729ZM88.4258 6.98633C89.9884 6.98633 91.1024 7.4342 91.8753 8.2443L92.9606 7.20882C91.8377 6.03194 90.2902 5.48633 88.4258 5.48633V6.98633ZM91.8778 8.24689C92.6627 9.06164 93.1035 10.2513 93.1035 11.9238H94.6035C94.6035 9.98694 94.0873 8.37846 92.9581 7.20624L91.8778 8.24689ZM93.1035 11.9238V22H94.6035V11.9238H93.1035ZM93.8535 21.25H88.5078V22.75H93.8535V21.25ZM117.205 19.2383L117.832 19.6502L117.834 19.6474L117.205 19.2383ZM114.484 21.4805L114.79 22.1654L114.794 22.1634L114.484 21.4805ZM106.965 22L106.809 22.7337L106.816 22.7351L106.965 22ZM104.148 21.0156H103.398V21.489L103.826 21.6927L104.148 21.0156ZM104.148 16.2031L104.491 15.5359L103.398 14.9751V16.2031H104.148ZM107.361 17.4473L107.165 18.1713L107.171 18.1727L107.361 17.4473ZM112.188 17.4746L112.63 18.08L112.64 18.0729L112.188 17.4746ZM112.516 15.6836L111.9 16.1119L111.911 16.1273L111.922 16.1422L112.516 15.6836ZM111.791 15.0547L111.387 15.6868L111.395 15.6917L111.791 15.0547ZM109.139 13.7695L108.828 14.4523L108.831 14.4536L109.139 13.7695ZM106.199 12.0469L105.71 12.6158L105.714 12.6191L106.199 12.0469ZM104.75 10.1328L104.061 10.4293L104.064 10.4366L104.75 10.1328ZM118.148 3.16016L118.846 3.43673L119.111 2.76756L118.453 2.47492L118.148 3.16016ZM116.494 7.33008L116.182 8.01182L116.9 8.34121L117.191 7.60665L116.494 7.33008ZM110.123 6.41406L109.665 5.82023L110.123 6.41406ZM110.246 8.38281L109.787 8.97631L109.794 8.98121L110.246 8.38281ZM113.555 10.0781L113.243 10.7603L113.247 10.7621L113.555 10.0781ZM117.137 12.5801L116.535 13.0281L116.54 13.035L117.137 12.5801ZM117.398 15.9297C117.398 17.0354 117.12 17.994 116.577 18.8291L117.834 19.6474C118.548 18.5503 118.898 17.3031 118.898 15.9297H117.398ZM116.578 18.8264C116.037 19.6494 115.248 20.3102 114.174 20.7975L114.794 22.1634C116.09 21.5753 117.115 20.7412 117.832 19.6502L116.578 18.8264ZM114.179 20.7955C113.109 21.2726 111.828 21.5234 110.314 21.5234V23.0234C111.991 23.0234 113.489 22.7456 114.79 22.1654L114.179 20.7955ZM110.314 21.5234C109.014 21.5234 107.951 21.434 107.113 21.2649L106.816 22.7351C107.784 22.9306 108.954 23.0234 110.314 23.0234V21.5234ZM107.12 21.2663C106.285 21.089 105.402 20.7823 104.471 20.3386L103.826 21.6927C104.845 22.1787 105.84 22.5282 106.809 22.7337L107.12 21.2663ZM104.898 21.0156V16.2031H103.398V21.0156H104.898ZM103.806 16.8704C104.882 17.4229 106.003 17.8567 107.165 18.1712L107.557 16.7233C106.496 16.4363 105.474 16.0407 104.491 15.5359L103.806 16.8704ZM107.171 18.1727C108.331 18.477 109.417 18.6348 110.424 18.6348V17.1348C109.571 17.1348 108.615 17.0009 107.552 16.7218L107.171 18.1727ZM110.424 18.6348C111.281 18.6348 112.064 18.4943 112.63 18.0799L111.745 16.8693C111.564 17.0018 111.171 17.1348 110.424 17.1348V18.6348ZM112.64 18.0729C113.186 17.6602 113.498 17.0858 113.498 16.3945H111.998C111.998 16.5783 111.937 16.7239 111.735 16.8764L112.64 18.0729ZM113.498 16.3945C113.498 15.9691 113.374 15.5675 113.109 15.225L111.922 16.1422C111.967 16.2007 111.998 16.2731 111.998 16.3945H113.498ZM113.131 15.2553C112.904 14.9284 112.568 14.6545 112.187 14.4177L111.395 15.6917C111.689 15.8742 111.836 16.0195 111.9 16.1119L113.131 15.2553ZM112.195 14.4227C111.81 14.1767 110.867 13.7239 109.446 13.0854L108.831 14.4536C110.291 15.1094 111.116 15.5134 111.387 15.6867L112.195 14.4227ZM109.449 13.0868C108.173 12.5067 107.264 11.9661 106.684 11.4746L105.714 12.6191C106.447 13.2396 107.498 13.8475 108.828 14.4523L109.449 13.0868ZM106.688 11.478C106.118 10.9885 105.706 10.4389 105.436 9.82901L104.064 10.4366C104.432 11.2668 104.986 11.9933 105.71 12.6158L106.688 11.478ZM105.439 9.83632C105.178 9.23058 105.035 8.48379 105.035 7.57617H103.535C103.535 8.63731 103.702 9.59494 104.061 10.4293L105.439 9.83632ZM105.035 7.57617C105.035 5.94396 105.615 4.73811 106.752 3.86415L105.838 2.67491C104.295 3.86084 103.535 5.5261 103.535 7.57617H105.035ZM106.752 3.86415C107.919 2.96745 109.579 2.47461 111.818 2.47461V0.974609C109.373 0.974609 107.351 1.51171 105.838 2.67491L106.752 3.86415ZM111.818 2.47461C113.769 2.47461 115.775 2.92518 117.844 3.8454L118.453 2.47492C116.22 1.48107 114.006 0.974609 111.818 0.974609V2.47461ZM117.451 2.88358L115.797 7.05351L117.191 7.60665L118.846 3.43673L117.451 2.88358ZM116.807 6.64833C114.886 5.76754 113.161 5.29492 111.654 5.29492V6.79492C112.864 6.79492 114.365 7.17907 116.182 8.01182L116.807 6.64833ZM111.654 5.29492C110.897 5.29492 110.182 5.42161 109.665 5.82023L110.581 7.0079C110.702 6.91432 111.008 6.79492 111.654 6.79492V5.29492ZM109.665 5.82023C109.184 6.19121 108.895 6.70635 108.895 7.33008H110.395C110.395 7.22464 110.424 7.1291 110.581 7.0079L109.665 5.82023ZM108.895 7.33008C108.895 8.01962 109.261 8.56976 109.788 8.97628L110.705 7.78935C110.429 7.57607 110.395 7.42439 110.395 7.33008H108.895ZM109.794 8.98121C110.057 9.17959 110.488 9.42405 111.039 9.70654C111.604 9.9963 112.34 10.3479 113.243 10.7603L113.866 9.39594C112.974 8.98808 112.26 8.64693 111.723 8.37158C111.171 8.08897 110.846 7.89593 110.698 7.78441L109.794 8.98121ZM113.247 10.7621C114.924 11.5165 115.982 12.2855 116.535 13.0281L117.738 12.132C116.961 11.0882 115.63 10.1892 113.862 9.39412L113.247 10.7621ZM116.54 13.035C117.095 13.7624 117.398 14.7091 117.398 15.9297H118.898C118.898 14.4523 118.527 13.166 117.733 12.1252L116.54 13.035ZM128.115 21.8906L127.821 22.5806L127.83 22.5841L128.115 21.8906ZM126.27 20.4824L126.826 19.979L126.602 19.7324H126.27V20.4824ZM126.023 20.4824V19.7324H125.151L125.282 20.5946L126.023 20.4824ZM126.27 28.7266V29.4766H127.02V28.7266H126.27ZM120.924 28.7266H120.174V29.4766H120.924V28.7266ZM120.924 6.50977V5.75977H120.174V6.50977H120.924ZM125.271 6.50977L125.972 6.24216L125.788 5.75977H125.271V6.50977ZM126.023 8.47852L125.323 8.74612L125.507 9.22852H126.023V8.47852ZM126.27 8.47852V9.22852H126.672L126.894 8.89366L126.27 8.47852ZM134.418 8.36914L135.036 7.94492L134.418 8.36914ZM134.35 20.127L133.738 19.6932L133.737 19.694L134.35 20.127ZM126.775 11.2812L126.122 10.9125L126.12 10.9161L126.775 11.2812ZM126.27 13.7695L125.52 13.7509L125.52 13.7602V13.7695H126.27ZM129.975 17.0918L130.637 17.4437L130.639 17.4394L129.975 17.0918ZM129.975 11.3086L129.312 11.6605L129.315 11.6648L129.975 11.3086ZM130.221 21.5234C129.518 21.5234 128.916 21.4093 128.401 21.1971L127.83 22.5841C128.554 22.8824 129.355 23.0234 130.221 23.0234V21.5234ZM128.409 21.2007C127.918 20.9911 127.388 20.5998 126.826 19.979L125.714 20.9858C126.373 21.714 127.073 22.2615 127.821 22.5805L128.409 21.2007ZM126.27 19.7324H126.023V21.2324H126.27V19.7324ZM125.282 20.5946C125.449 21.7016 125.52 22.3111 125.52 22.5059H127.02C127.02 22.172 126.926 21.4325 126.765 20.3703L125.282 20.5946ZM125.52 22.5059V28.7266H127.02V22.5059H125.52ZM126.27 27.9766H120.924V29.4766H126.27V27.9766ZM121.674 28.7266V6.50977H120.174V28.7266H121.674ZM120.924 7.25977H125.271V5.75977H120.924V7.25977ZM124.571 6.77737L125.323 8.74612L126.724 8.21091L125.972 6.24216L124.571 6.77737ZM126.023 9.22852H126.27V7.72852H126.023V9.22852ZM126.894 8.89366C127.753 7.60158 128.894 6.98633 130.385 6.98633V5.48633C128.376 5.48633 126.773 6.36587 125.645 8.06337L126.894 8.89366ZM130.385 6.98633C131.849 6.98633 132.963 7.57387 133.799 8.79336L135.036 7.94492C133.922 6.32066 132.347 5.48633 130.385 5.48633V6.98633ZM133.799 8.79336C134.659 10.0467 135.131 11.8296 135.131 14.2207H136.631C136.631 11.6535 136.127 9.53537 135.036 7.94492L133.799 8.79336ZM135.131 14.2207C135.131 16.625 134.638 18.4226 133.738 19.6932L134.961 20.5607C136.102 18.951 136.631 16.8112 136.631 14.2207H135.131ZM133.737 19.694C132.865 20.9277 131.716 21.5234 130.221 21.5234V23.0234C132.207 23.0234 133.811 22.1881 134.962 20.5599L133.737 19.694ZM128.43 9.68359C127.442 9.68359 126.604 10.0591 126.122 10.9126L127.429 11.6499C127.585 11.3732 127.85 11.1836 128.43 11.1836V9.68359ZM126.12 10.9161C125.723 11.6297 125.548 12.6037 125.52 13.7509L127.019 13.7881C127.046 12.7296 127.208 12.0448 127.43 11.6464L126.12 10.9161ZM125.52 13.7695V14.1934H127.02V13.7695H125.52ZM125.52 14.1934C125.52 15.5551 125.695 16.6896 126.16 17.464L127.446 16.6923C127.2 16.2818 127.02 15.4931 127.02 14.1934H125.52ZM126.16 17.464C126.667 18.3102 127.49 18.7168 128.484 18.7168V17.2168C127.948 17.2168 127.649 17.0309 127.446 16.6923L126.16 17.464ZM128.484 18.7168C128.935 18.7168 129.366 18.6199 129.749 18.3948C130.134 18.1689 130.427 17.8395 130.637 17.4437L129.312 16.7399C129.213 16.9274 129.102 17.0355 128.99 17.1013C128.876 17.1679 128.718 17.2168 128.484 17.2168V18.7168ZM130.639 17.4394C131.038 16.6766 131.189 15.5448 131.189 14.166H129.689C129.689 15.5034 129.531 16.3221 129.31 16.7442L130.639 17.4394ZM131.189 14.166C131.189 12.8149 131.039 11.7008 130.635 10.9524L129.315 11.6648C129.53 12.0648 129.689 12.8557 129.689 14.166H131.189ZM130.637 10.9567C130.423 10.5541 130.121 10.2239 129.726 9.99974C129.333 9.77759 128.891 9.68359 128.43 9.68359V11.1836C128.688 11.1836 128.864 11.2354 128.986 11.3049C129.106 11.3724 129.216 11.4797 129.312 11.6605L130.637 10.9567ZM149.621 6.3457L149.755 5.60778L149.75 5.60679L149.621 6.3457ZM149.922 6.40039L150.669 6.47121L150.734 5.78567L150.056 5.66249L149.922 6.40039ZM149.443 11.4453L149.261 12.1729L150.108 12.3845L150.19 11.5161L149.443 11.4453ZM145.082 12.0879L145.612 12.6182L145.617 12.6137L145.082 12.0879ZM144.289 22V22.75H145.039V22H144.289ZM138.943 22H138.193V22.75H138.943V22ZM138.943 6.50977V5.75977H138.193V6.50977H138.943ZM142.922 6.50977L143.633 6.27024L143.461 5.75977H142.922V6.50977ZM143.756 8.98438L143.045 9.2239L143.217 9.73438H143.756V8.98438ZM144.016 8.98438V9.73438H144.461L144.674 9.343L144.016 8.98438ZM145.875 7.00195L146.276 7.6359L146.278 7.6347L145.875 7.00195ZM148.295 6.98633C148.721 6.98633 149.119 7.01972 149.493 7.08461L149.75 5.60679C149.284 5.52586 148.799 5.48633 148.295 5.48633V6.98633ZM149.487 7.0836L149.788 7.13829L150.056 5.66249L149.755 5.6078L149.487 7.0836ZM149.175 6.32957L148.697 11.3745L150.19 11.5161L150.669 6.47121L149.175 6.32957ZM149.625 10.7177C149.101 10.5866 148.424 10.5312 147.625 10.5312V12.0312C148.375 12.0312 148.911 12.0853 149.261 12.1729L149.625 10.7177ZM147.625 10.5312C146.365 10.5312 145.278 10.819 144.547 11.5621L145.617 12.6137C145.944 12.2813 146.552 12.0312 147.625 12.0312V10.5312ZM144.552 11.5576C143.84 12.2696 143.539 13.2532 143.539 14.3848H145.039C145.039 13.5111 145.267 12.9635 145.612 12.6182L144.552 11.5576ZM143.539 14.3848V22H145.039V14.3848H143.539ZM144.289 21.25H138.943V22.75H144.289V21.25ZM139.693 22V6.50977H138.193V22H139.693ZM138.943 7.25977H142.922V5.75977H138.943V7.25977ZM142.211 6.74929L143.045 9.2239L144.467 8.74485L143.633 6.27024L142.211 6.74929ZM143.756 9.73438H144.016V8.23438H143.756V9.73438ZM144.674 9.343C145.06 8.63546 145.59 8.06922 146.276 7.6359L145.474 6.36801C144.574 6.93729 143.865 7.69267 143.357 8.62575L144.674 9.343ZM146.278 7.6347C146.98 7.18746 147.649 6.98633 148.295 6.98633V5.48633C147.318 5.48633 146.374 5.79561 145.472 6.36921L146.278 7.6347ZM157.469 22V22.75H158.219V22H157.469ZM152.123 22H151.373V22.75H152.123V22ZM152.123 6.50977V5.75977H151.373V6.50977H152.123ZM157.469 6.50977H158.219V5.75977H157.469V6.50977ZM156.99 0.876953L156.495 1.43999L156.99 0.876953ZM157.469 21.25H152.123V22.75H157.469V21.25ZM152.873 22V6.50977H151.373V22H152.873ZM152.123 7.25977H157.469V5.75977H152.123V7.25977ZM156.719 6.50977V22H158.219V6.50977H156.719ZM152.736 2.6543C152.736 1.98876 152.918 1.63143 153.151 1.427L152.162 0.299562C151.501 0.878983 151.236 1.71567 151.236 2.6543H152.736ZM153.151 1.427C153.395 1.21326 153.892 1.02539 154.816 1.02539V-0.474609C153.754 -0.474609 152.811 -0.270549 152.162 0.299562L153.151 1.427ZM154.816 1.02539C155.736 1.02539 156.24 1.21579 156.495 1.43999L157.486 0.313918C156.829 -0.263967 155.884 -0.474609 154.816 -0.474609V1.02539ZM156.495 1.43999C156.744 1.65969 156.924 2.01902 156.924 2.6543H158.424C158.424 1.72186 158.147 0.896296 157.486 0.313918L156.495 1.43999ZM156.924 2.6543C156.924 3.27984 156.741 3.62656 156.483 3.83886C156.197 4.07419 155.685 4.25586 154.816 4.25586V5.75586C155.853 5.75586 156.77 5.5456 157.436 4.99708C158.131 4.42552 158.424 3.59646 158.424 2.6543H156.924ZM154.816 4.25586C153.958 4.25586 153.454 4.07474 153.173 3.84112C152.919 3.6296 152.736 3.28223 152.736 2.6543H151.236C151.236 3.59407 151.526 4.42248 152.215 4.99482C152.877 5.54505 153.788 5.75586 154.816 5.75586V4.25586ZM170.977 22H170.227V22.75H170.977V22ZM170.525 11.2266L169.869 11.5889L169.872 11.5956L169.876 11.6023L170.525 11.2266ZM167.148 11.5137L166.493 11.1487L167.148 11.5137ZM166.547 22V22.75H167.297V22H166.547ZM161.201 22H160.451V22.75H161.201V22ZM161.201 6.50977V5.75977H160.451V6.50977H161.201ZM165.234 6.50977L165.942 6.262L165.766 5.75977H165.234V6.50977ZM165.904 8.42383L165.196 8.67159L165.372 9.17383H165.904V8.42383ZM166.219 8.42383V9.17383H166.634L166.855 8.82133L166.219 8.42383ZM168.105 6.7832L167.798 6.09911L167.795 6.10043L168.105 6.7832ZM174.887 7.72656L174.344 8.24431L174.347 8.24689L174.887 7.72656ZM176.322 22V22.75H177.072V22H176.322ZM171.727 22V13.5508H170.227V22H171.727ZM171.727 13.5508C171.727 12.4716 171.573 11.5395 171.174 10.8508L169.876 11.6023C170.079 11.9527 170.227 12.5701 170.227 13.5508H171.727ZM171.182 10.8643C170.745 10.072 170.004 9.68359 169.104 9.68359V11.1836C169.516 11.1836 169.723 11.3239 169.869 11.5889L171.182 10.8643ZM169.104 9.68359C167.961 9.68359 167.041 10.1646 166.493 11.1487L167.804 11.8786C168.058 11.4226 168.442 11.1836 169.104 11.1836V9.68359ZM166.493 11.1487C165.992 12.0493 165.797 13.4543 165.797 15.2188H167.297C167.297 13.4832 167.503 12.4182 167.804 11.8786L166.493 11.1487ZM165.797 15.2188V22H167.297V15.2188H165.797ZM166.547 21.25H161.201V22.75H166.547V21.25ZM161.951 22V6.50977H160.451V22H161.951ZM161.201 7.25977H165.234V5.75977H161.201V7.25977ZM164.526 6.75753L165.196 8.67159L166.612 8.17607L165.942 6.262L164.526 6.75753ZM165.904 9.17383H166.219V7.67383H165.904V9.17383ZM166.855 8.82133C167.23 8.22042 167.744 7.77114 168.416 7.46598L167.795 6.10043C166.862 6.52443 166.119 7.1689 165.583 8.02633L166.855 8.82133ZM168.413 7.46729C169.112 7.15322 169.934 6.98633 170.895 6.98633V5.48633C169.759 5.48633 168.722 5.68402 167.798 6.09912L168.413 7.46729ZM170.895 6.98633C172.457 6.98633 173.571 7.4342 174.344 8.2443L175.429 7.20882C174.306 6.03194 172.759 5.48633 170.895 5.48633V6.98633ZM174.347 8.24689C175.131 9.06164 175.572 10.2513 175.572 11.9238H177.072C177.072 9.98694 176.556 8.37846 175.427 7.20624L174.347 8.24689ZM175.572 11.9238V22H177.072V11.9238H175.572ZM176.322 21.25H170.977V22.75H176.322V21.25ZM190.131 17.5156H190.881V16.454L189.88 16.8087L190.131 17.5156ZM190.131 21.4121L190.427 22.101L190.881 21.9058V21.4121H190.131ZM188.066 22.0684L187.923 21.3321L187.911 21.3346L188.066 22.0684ZM181.9 20.9609L181.342 21.4617L181.345 21.4646L181.9 20.9609ZM180.711 10.5156H181.461V9.76562H180.711V10.5156ZM178.838 10.5156H178.088V11.2656H178.838V10.5156ZM178.838 8.3418L178.405 7.72936L178.088 7.9535V8.3418H178.838ZM181.217 6.66016L181.65 7.27259L181.824 7.14948L181.907 6.95314L181.217 6.66016ZM182.598 3.40625V2.65625H182.101L181.907 3.11326L182.598 3.40625ZM186.098 3.40625H186.848V2.65625H186.098V3.40625ZM186.098 6.50977H185.348V7.25977H186.098V6.50977ZM189.898 6.50977H190.648V5.75977H189.898V6.50977ZM189.898 10.5156V11.2656H190.648V10.5156H189.898ZM186.098 10.5156V9.76562H185.348V10.5156H186.098ZM187.547 18.7988C188.383 18.7988 189.333 18.5942 190.381 18.2225L189.88 16.8087C188.923 17.148 188.151 17.2988 187.547 17.2988V18.7988ZM189.381 17.5156V21.4121H190.881V17.5156H189.381ZM189.834 20.7232C189.155 21.0154 188.519 21.2164 187.923 21.3321L188.21 22.8046C188.927 22.6652 189.666 22.4286 190.427 22.101L189.834 20.7232ZM187.911 21.3346C187.329 21.4577 186.622 21.5234 185.783 21.5234V23.0234C186.695 23.0234 187.51 22.9525 188.221 22.8022L187.911 21.3346ZM185.783 21.5234C184.089 21.5234 183.047 21.1091 182.456 20.4573L181.345 21.4646C182.34 22.5627 183.886 23.0234 185.783 23.0234V21.5234ZM182.459 20.4602C181.841 19.7711 181.461 18.6338 181.461 16.9004H179.961C179.961 18.8129 180.374 20.3826 181.342 21.4617L182.459 20.4602ZM181.461 16.9004V10.5156H179.961V16.9004H181.461ZM180.711 9.76562H178.838V11.2656H180.711V9.76562ZM179.588 10.5156V8.3418H178.088V10.5156H179.588ZM179.271 8.95423L181.65 7.27259L180.784 6.04772L178.405 7.72936L179.271 8.95423ZM181.907 6.95314L183.288 3.69924L181.907 3.11326L180.526 6.36717L181.907 6.95314ZM182.598 4.15625H186.098V2.65625H182.598V4.15625ZM185.348 3.40625V6.50977H186.848V3.40625H185.348ZM186.098 7.25977H189.898V5.75977H186.098V7.25977ZM189.148 6.50977V10.5156H190.648V6.50977H189.148ZM189.898 9.76562H186.098V11.2656H189.898V9.76562ZM185.348 10.5156V16.5449H186.848V10.5156H185.348ZM185.348 16.5449C185.348 17.155 185.494 17.7516 185.92 18.1933C186.351 18.6401 186.941 18.7988 187.547 18.7988V17.2988C187.187 17.2988 187.052 17.2069 187 17.1524C186.943 17.0928 186.848 16.9374 186.848 16.5449H185.348ZM195.244 22.082L195.356 21.3403L195.348 21.3393L195.244 22.082ZM192.646 21.4121H191.896V21.9337L192.386 22.1152L192.646 21.4121ZM192.646 17.1328L192.948 16.4462L191.896 15.9839V17.1328H192.646ZM195.367 18.0352L195.192 18.7643L195.193 18.7647L195.367 18.0352ZM199.264 16.873L198.84 17.4916L198.85 17.4985L198.86 17.5051L199.264 16.873ZM196.447 15.6152L196.163 16.3092L196.17 16.3122L196.447 15.6152ZM193.467 13.6328L192.869 14.0852L192.871 14.0887L193.467 13.6328ZM194.287 7.43945L194.726 8.04773L194.287 7.43945ZM201.875 6.57812L201.69 7.3049L201.698 7.30701L201.875 6.57812ZM204.678 7.54883L205.369 7.83963L205.654 7.16143L204.982 6.8632L204.678 7.54883ZM203.229 10.9941L202.921 11.6784L203.622 11.9928L203.92 11.2849L203.229 10.9941ZM200.973 10.1875L200.766 10.9084L200.773 10.9105L200.973 10.1875ZM198.17 11.1719L197.767 11.8046L197.778 11.8117L197.79 11.8183L198.17 11.1719ZM200.822 12.3066L201.108 11.613L201.097 11.6088L200.822 12.3066ZM203.242 13.6191L202.77 14.2019L202.775 14.2058L203.242 13.6191ZM204.418 15.1367L203.727 15.4282L203.73 15.4348L203.733 15.4413L204.418 15.1367ZM204.051 17.2422C204.051 18.7115 203.562 19.7217 202.655 20.402L203.555 21.602C204.909 20.5869 205.551 19.0906 205.551 17.2422H204.051ZM202.655 20.402C201.705 21.1145 200.267 21.5234 198.238 21.5234V23.0234C200.438 23.0234 202.245 22.5847 203.555 21.602L202.655 20.402ZM198.238 21.5234C197.116 21.5234 196.156 21.4609 195.356 21.3404L195.132 22.8237C196.027 22.9583 197.064 23.0234 198.238 23.0234V21.5234ZM195.348 21.3393C194.559 21.229 193.746 21.0201 192.907 20.709L192.386 22.1152C193.315 22.4603 194.234 22.6981 195.14 22.8248L195.348 21.3393ZM193.396 21.4121V17.1328H191.896V21.4121H193.396ZM192.345 17.8194C193.219 18.2038 194.169 18.5181 195.192 18.7643L195.543 17.306C194.597 17.0782 193.733 16.7909 192.948 16.4462L192.345 17.8194ZM195.193 18.7647C196.227 19.0112 197.171 19.1406 198.02 19.1406V17.6406C197.319 17.6406 196.495 17.533 195.541 17.3056L195.193 18.7647ZM198.02 19.1406C198.632 19.1406 199.196 19.0744 199.633 18.8746C199.861 18.7705 200.086 18.6162 200.253 18.3867C200.427 18.1492 200.506 17.8758 200.506 17.5977H199.006C199.006 17.5838 199.013 17.5418 199.042 17.5024C199.064 17.4712 199.072 17.4821 199.01 17.5102C198.869 17.5747 198.565 17.6406 198.02 17.6406V19.1406ZM200.506 17.5977C200.506 16.969 200.112 16.5248 199.667 16.241L198.86 17.5051C198.965 17.5724 199.003 17.6193 199.012 17.6328C199.016 17.6383 199.014 17.6359 199.01 17.6262C199.007 17.6161 199.006 17.6056 199.006 17.5977H200.506ZM199.688 16.2545C199.465 16.1015 199.091 15.9172 198.626 15.7097C198.143 15.4941 197.508 15.23 196.724 14.9183L196.17 16.3122C196.945 16.6203 197.559 16.8757 198.014 17.0793C198.489 17.2912 198.744 17.4259 198.84 17.4916L199.688 16.2545ZM196.732 14.9214C195.361 14.3591 194.51 13.7619 194.062 13.177L192.871 14.0887C193.554 14.9803 194.689 15.7047 196.163 16.3091L196.732 14.9214ZM194.065 13.1805C193.618 12.5895 193.369 11.8149 193.369 10.8027H191.869C191.869 12.0692 192.185 13.1814 192.869 14.0851L194.065 13.1805ZM193.369 10.8027C193.369 9.58933 193.821 8.70068 194.726 8.04773L193.848 6.83118C192.53 7.7824 191.869 9.13593 191.869 10.8027H193.369ZM194.726 8.04773C195.662 7.37256 197.057 6.98633 199.004 6.98633V5.48633C196.886 5.48633 195.136 5.90218 193.848 6.83118L194.726 8.04773ZM199.004 6.98633C199.969 6.98633 200.863 7.09399 201.69 7.30485L202.06 5.8514C201.1 5.60653 200.081 5.48633 199.004 5.48633V6.98633ZM201.698 7.30701C202.551 7.51385 203.443 7.82183 204.374 8.23445L204.982 6.8632C203.98 6.41906 203.003 6.0799 202.052 5.84924L201.698 7.30701ZM203.986 7.25803L202.537 10.7033L203.92 11.2849L205.369 7.83963L203.986 7.25803ZM203.536 10.3099C202.788 9.9744 202 9.69285 201.172 9.46451L200.773 10.9105C201.531 11.1197 202.247 11.3759 202.921 11.6784L203.536 10.3099ZM201.18 9.46667C200.357 9.23021 199.633 9.0957 199.031 9.0957V10.5957C199.432 10.5957 200.002 10.6891 200.766 10.9083L201.18 9.46667ZM199.031 9.0957C198.557 9.0957 198.091 9.1499 197.717 9.33274C197.52 9.42924 197.325 9.57313 197.181 9.78506C197.033 10.0025 196.969 10.2467 196.969 10.4883H198.469C198.469 10.5157 198.459 10.5725 198.421 10.6292C198.386 10.6805 198.355 10.6906 198.377 10.68C198.401 10.6681 198.462 10.645 198.578 10.6261C198.692 10.6075 198.841 10.5957 199.031 10.5957V9.0957ZM196.969 10.4883C196.969 11.0948 197.334 11.529 197.767 11.8046L198.573 10.5391C198.485 10.4835 198.46 10.4476 198.458 10.4443C198.457 10.4436 198.461 10.4493 198.464 10.4605C198.468 10.472 198.469 10.4821 198.469 10.4883H196.969ZM197.79 11.8183C198.162 12.0376 199.113 12.4396 200.547 13.0045L201.097 11.6088C199.615 11.0252 198.797 10.6707 198.55 10.5254L197.79 11.8183ZM200.537 13.0001C201.595 13.436 202.324 13.8407 202.77 14.2018L203.714 13.0364C203.103 12.5408 202.219 12.0705 201.108 11.6131L200.537 13.0001ZM202.775 14.2058C203.223 14.5629 203.534 14.9702 203.727 15.4282L205.109 14.8452C204.81 14.1366 204.337 13.5321 203.709 13.0325L202.775 14.2058ZM203.733 15.4413C203.934 15.8942 204.051 16.4857 204.051 17.2422H205.551C205.551 16.3398 205.412 15.5277 205.103 14.8321L203.733 15.4413Z" fill="#7B838D"/>
</svg>
