<svg width="229" height="29" viewBox="0 0 229 29" fill="none" xmlns="http://www.w3.org/2000/svg">
<path d="M14.3652 19.293L13.8402 18.7574L13.8389 18.7587L14.3652 19.293ZM0.160156 22H-0.589844V22.75H0.160156V22ZM0.160156 2.01172V1.26172H-0.589844V2.01172H0.160156ZM14.502 4.47266L13.9876 5.01847L13.989 5.01981L14.502 4.47266ZM10.4277 7.69922L9.84619 8.17285L9.84913 8.17642L10.4277 7.69922ZM5.56055 6.37305V5.62305H4.81055V6.37305H5.56055ZM5.56055 17.5703H4.81055V18.3203H5.56055V17.5703ZM10.373 16.1484L10.9565 16.6197L10.9587 16.617L10.373 16.1484ZM16.377 11.582C16.377 14.7785 15.4985 17.1319 13.8402 18.7574L14.8902 19.8286C16.9143 17.8446 17.877 15.0574 17.877 11.582H16.377ZM13.8389 18.7587C12.185 20.3879 9.81707 21.25 6.62695 21.25V22.75C10.0905 22.75 12.8815 21.8074 14.8916 19.8273L13.8389 18.7587ZM6.62695 21.25H0.160156V22.75H6.62695V21.25ZM0.910156 22V2.01172H-0.589844V22H0.910156ZM0.160156 2.76172H7.07812V1.26172H0.160156V2.76172ZM7.07812 2.76172C10.1619 2.76172 12.4278 3.54851 13.9876 5.01847L15.0163 3.92684C13.0944 2.11556 10.411 1.26172 7.07812 1.26172V2.76172ZM13.989 5.01981C15.5467 6.4802 16.377 8.62652 16.377 11.582H17.877C17.877 8.33963 16.9572 5.74636 15.0149 3.9255L13.989 5.01981ZM12.2715 11.7734C12.2715 9.86495 11.8956 8.3003 11.0063 7.22202L9.84913 8.17642C10.4182 8.86637 10.7715 10.0179 10.7715 11.7734H12.2715ZM11.0093 7.2256C10.1069 6.11762 8.76308 5.62305 7.13281 5.62305V7.12305C8.45567 7.12305 9.30847 7.51259 9.8462 8.17284L11.0093 7.2256ZM7.13281 5.62305H5.56055V7.12305H7.13281V5.62305ZM4.81055 6.37305V17.5703H6.31055V6.37305H4.81055ZM5.56055 18.3203H6.76367V16.8203H5.56055V18.3203ZM6.76367 18.3203C8.54718 18.3203 10.0031 17.8001 10.9565 16.6197L9.78959 15.6772C9.21174 16.3926 8.26142 16.8203 6.76367 16.8203V18.3203ZM10.9587 16.617C11.8779 15.4679 12.2715 13.8082 12.2715 11.7734H10.7715C10.7715 13.658 10.3994 14.9149 9.7874 15.6799L10.9587 16.617ZM21.8711 20.2227L21.3495 20.7616L21.353 20.7649L21.8711 20.2227ZM21.7207 8.3418L22.2651 8.85771L22.2667 8.85593L21.7207 8.3418ZM32.7812 8.06836L32.2607 8.60833L32.2647 8.61211L32.7812 8.06836ZM34.6953 15.6973V16.4473H35.4453V15.6973H34.6953ZM25.1387 15.6973V14.9473H24.3564L24.3893 15.7288L25.1387 15.6973ZM26.082 17.7344L25.6028 18.3113L25.6071 18.3148L26.082 17.7344ZM31.1133 18.2129L31.2751 18.9453L31.2813 18.9438L31.1133 18.2129ZM33.6836 17.2969H34.4336V16.1206L33.3672 16.6169L33.6836 17.2969ZM33.6836 21.1387L34.0248 21.8066L34.4336 21.5977V21.1387H33.6836ZM25.9863 10.4746L26.4985 11.0225L26.4989 11.0221L25.9863 10.4746ZM25.248 12.334L24.5008 12.2697L24.4308 13.084H25.248V12.334ZM29.8418 12.334V13.084H30.6103L30.5916 12.3157L29.8418 12.334ZM29.1992 10.543L28.6411 11.0441L28.6468 11.0503L29.1992 10.543ZM27.8867 21.5234C25.4397 21.5234 23.6423 20.8776 22.3892 19.6804L21.353 20.7649C22.9619 22.3021 25.1748 23.0234 27.8867 23.0234V21.5234ZM22.3927 19.6838C21.1549 18.4856 20.4883 16.7481 20.4883 14.3574H18.9883C18.9883 17.0344 19.7435 19.2071 21.3495 20.7616L22.3927 19.6838ZM20.4883 14.3574C20.4883 11.8629 21.1171 10.069 22.2651 8.8577L21.1763 7.82589C19.681 9.40369 18.9883 11.6202 18.9883 14.3574H20.4883ZM22.2667 8.85593C23.4104 7.64128 25.0762 6.98633 27.3809 6.98633V5.48633C24.7819 5.48633 22.6742 6.23502 21.1747 7.82766L22.2667 8.85593ZM27.3809 6.98633C29.5852 6.98633 31.1743 7.561 32.2607 8.60831L33.3018 7.52841C31.8543 6.13301 29.8432 5.48633 27.3809 5.48633V6.98633ZM32.2647 8.61211C33.3505 9.6436 33.9453 11.1714 33.9453 13.3184H35.4453C35.4453 10.8898 34.7641 8.9176 33.2978 7.52461L32.2647 8.61211ZM33.9453 13.3184V15.6973H35.4453V13.3184H33.9453ZM34.6953 14.9473H25.1387V16.4473H34.6953V14.9473ZM24.3893 15.7288C24.4335 16.7771 24.8259 17.6659 25.6028 18.3113L26.5613 17.1575C26.1532 16.8185 25.9168 16.3492 25.888 15.6657L24.3893 15.7288ZM25.6071 18.3148C26.3808 18.9478 27.3828 19.2227 28.5293 19.2227V17.7227C27.6159 17.7227 26.9864 17.5053 26.557 17.1539L25.6071 18.3148ZM28.5293 19.2227C29.5136 19.2227 30.43 19.1319 31.2751 18.9452L30.9515 17.4806C30.2288 17.6402 29.4226 17.7227 28.5293 17.7227V19.2227ZM31.2813 18.9438C32.1361 18.7473 33.0431 18.4222 34 17.9769L33.3672 16.6169C32.483 17.0283 31.6764 17.3139 30.9453 17.482L31.2813 18.9438ZM32.9336 17.2969V21.1387H34.4336V17.2969H32.9336ZM33.3424 20.4708C32.5663 20.8673 31.7695 21.1392 30.9504 21.2897L31.2214 22.765C32.1889 22.5873 33.1238 22.2668 34.0248 21.8066L33.3424 20.4708ZM30.9504 21.2897C30.1147 21.4432 29.0961 21.5234 27.8867 21.5234V23.0234C29.1565 23.0234 30.2707 22.9396 31.2214 22.765L30.9504 21.2897ZM27.5723 9.12305C26.768 9.12305 26.0517 9.38608 25.4738 9.92709L26.4989 11.0221C26.7778 10.7611 27.1188 10.623 27.5723 10.623V9.12305ZM25.4742 9.92671C24.8669 10.4944 24.5821 11.3245 24.5008 12.2697L25.9953 12.3983C26.0598 11.6482 26.2672 11.2387 26.4985 11.0225L25.4742 9.92671ZM25.248 13.084H29.8418V11.584H25.248V13.084ZM30.5916 12.3157C30.57 11.4308 30.3114 10.6452 29.7516 10.0357L28.6468 11.0503C28.9073 11.334 29.0771 11.7424 29.092 12.3523L30.5916 12.3157ZM29.7573 10.0419C29.1935 9.41403 28.436 9.12305 27.5723 9.12305V10.623C28.0757 10.623 28.4029 10.7787 28.6412 11.0441L29.7573 10.0419ZM40.123 22.082L40.2347 21.3403L40.2269 21.3393L40.123 22.082ZM37.5254 21.4121H36.7754V21.9337L37.2644 22.1152L37.5254 21.4121ZM37.5254 17.1328L37.8272 16.4462L36.7754 15.9839V17.1328H37.5254ZM40.2461 18.0352L40.0706 18.7643L40.0721 18.7647L40.2461 18.0352ZM44.1426 16.873L43.7184 17.4916L43.7285 17.4985L43.7388 17.5051L44.1426 16.873ZM41.3262 15.6152L41.0415 16.3092L41.049 16.3122L41.3262 15.6152ZM38.3457 13.6328L37.7474 14.0852L37.7501 14.0887L38.3457 13.6328ZM39.166 7.43945L39.6048 8.04773L39.166 7.43945ZM46.7539 6.57812L46.5685 7.3049L46.5772 7.30701L46.7539 6.57812ZM49.5566 7.54883L50.248 7.83963L50.5332 7.16143L49.8606 6.8632L49.5566 7.54883ZM48.1074 10.9941L47.8004 11.6784L48.501 11.9928L48.7988 11.2849L48.1074 10.9941ZM45.8516 10.1875L45.6444 10.9084L45.6521 10.9105L45.8516 10.1875ZM43.0488 11.1719L42.6462 11.8046L42.6572 11.8117L42.6686 11.8183L43.0488 11.1719ZM45.7012 12.3066L45.9868 11.613L45.976 11.6088L45.7012 12.3066ZM48.1211 13.6191L47.6489 14.2019L47.6538 14.2058L48.1211 13.6191ZM49.2969 15.1367L48.6059 15.4282L48.6086 15.4348L48.6115 15.4413L49.2969 15.1367ZM48.9297 17.2422C48.9297 18.7115 48.4414 19.7217 47.5344 20.402L48.4344 21.602C49.7878 20.5869 50.4297 19.0906 50.4297 17.2422H48.9297ZM47.5344 20.402C46.5842 21.1145 45.1462 21.5234 43.1172 21.5234V23.0234C45.3174 23.0234 47.1241 22.5847 48.4344 21.602L47.5344 20.402ZM43.1172 21.5234C41.9944 21.5234 41.0354 21.4609 40.2347 21.3404L40.0114 22.8237C40.906 22.9583 41.9431 23.0234 43.1172 23.0234V21.5234ZM40.2269 21.3393C39.438 21.229 38.6248 21.0201 37.7864 20.709L37.2644 22.1152C38.1943 22.4603 39.1128 22.6981 40.0192 22.8248L40.2269 21.3393ZM38.2754 21.4121V17.1328H36.7754V21.4121H38.2754ZM37.2236 17.8194C38.0982 18.2038 39.0479 18.5181 40.0706 18.7643L40.4216 17.306C39.4756 17.0782 38.6115 16.7909 37.8272 16.4462L37.2236 17.8194ZM40.0721 18.7647C41.1057 19.0112 42.0499 19.1406 42.8984 19.1406V17.6406C42.1974 17.6406 41.3735 17.533 40.4201 17.3056L40.0721 18.7647ZM42.8984 19.1406C43.5108 19.1406 44.0749 19.0744 44.5122 18.8746C44.7402 18.7705 44.9646 18.6162 45.132 18.3867C45.3055 18.1492 45.3848 17.8758 45.3848 17.5977H43.8848C43.8848 17.5838 43.8917 17.5418 43.9204 17.5024C43.9432 17.4712 43.9505 17.4821 43.8891 17.5102C43.7477 17.5747 43.4436 17.6406 42.8984 17.6406V19.1406ZM45.3848 17.5977C45.3848 16.969 44.9905 16.5248 44.5464 16.241L43.7388 17.5051C43.8442 17.5724 43.8821 17.6193 43.8913 17.6328C43.895 17.6383 43.8925 17.6359 43.8894 17.6262C43.8862 17.6161 43.8848 17.6056 43.8848 17.5977H45.3848ZM44.5667 16.2545C44.3435 16.1015 43.9696 15.9172 43.5051 15.7097C43.0222 15.4941 42.3871 15.23 41.6033 14.9183L41.049 16.3122C41.8239 16.6203 42.4375 16.8757 42.8934 17.0793C43.3677 17.2912 43.6226 17.4259 43.7184 17.4916L44.5667 16.2545ZM41.6108 14.9214C40.2404 14.3591 39.389 13.7619 38.9413 13.177L37.7501 14.0887C38.4327 14.9803 39.5682 15.7047 41.0415 16.3091L41.6108 14.9214ZM38.9439 13.1805C38.4971 12.5895 38.248 11.8149 38.248 10.8027H36.748C36.748 12.0692 37.0641 13.1814 37.7475 14.0851L38.9439 13.1805ZM38.248 10.8027C38.248 9.58933 38.6995 8.70068 39.6048 8.04773L38.7273 6.83118C37.4085 7.7824 36.748 9.13593 36.748 10.8027H38.248ZM39.6048 8.04773C40.5408 7.37256 41.9355 6.98633 43.8828 6.98633V5.48633C41.765 5.48633 40.0152 5.90218 38.7273 6.83118L39.6048 8.04773ZM43.8828 6.98633C44.8477 6.98633 45.742 7.09399 46.5685 7.30485L46.9393 5.8514C45.9794 5.60653 44.9596 5.48633 43.8828 5.48633V6.98633ZM46.5772 7.30701C47.4304 7.51385 48.322 7.82183 49.2526 8.23445L49.8606 6.8632C48.859 6.41906 47.8821 6.0799 46.9306 5.84924L46.5772 7.30701ZM48.8653 7.25803L47.4161 10.7033L48.7988 11.2849L50.248 7.83963L48.8653 7.25803ZM48.4145 10.3099C47.6668 9.9744 46.8787 9.69285 46.051 9.46451L45.6521 10.9105C46.4103 11.1197 47.1261 11.3759 47.8004 11.6784L48.4145 10.3099ZM46.0587 9.46667C45.2358 9.23021 44.512 9.0957 43.9102 9.0957V10.5957C44.3109 10.5957 44.8814 10.6891 45.6444 10.9083L46.0587 9.46667ZM43.9102 9.0957C43.4355 9.0957 42.9695 9.1499 42.596 9.33274C42.3989 9.42924 42.204 9.57313 42.0597 9.78506C41.9117 10.0025 41.8477 10.2467 41.8477 10.4883H43.3477C43.3477 10.5157 43.3383 10.5725 43.2996 10.6292C43.2647 10.6805 43.2339 10.6906 43.2556 10.68C43.2798 10.6681 43.3407 10.645 43.4567 10.6261C43.5707 10.6075 43.72 10.5957 43.9102 10.5957V9.0957ZM41.8477 10.4883C41.8477 11.0948 42.213 11.529 42.6462 11.8046L43.4515 10.5391C43.3641 10.4835 43.3386 10.4476 43.3364 10.4443C43.336 10.4436 43.3397 10.4493 43.3431 10.4605C43.3466 10.472 43.3477 10.4821 43.3477 10.4883H41.8477ZM42.6686 11.8183C43.0414 12.0376 43.9918 12.4396 45.4264 13.0045L45.976 11.6088C44.4939 11.0252 43.6761 10.6707 43.4291 10.5254L42.6686 11.8183ZM45.4156 13.0001C46.4741 13.436 47.2032 13.8407 47.6489 14.2018L48.5933 13.0364C47.9817 12.5408 47.0975 12.0705 45.9867 11.6131L45.4156 13.0001ZM47.6538 14.2058C48.1021 14.5629 48.4126 14.9702 48.6059 15.4282L49.9879 14.8452C49.6889 14.1366 49.2156 13.5321 48.5884 13.0325L47.6538 14.2058ZM48.6115 15.4413C48.8128 15.8942 48.9297 16.4857 48.9297 17.2422H50.4297C50.4297 16.3398 50.2914 15.5277 49.9822 14.8321L48.6115 15.4413ZM58.0195 22V22.75H58.7695V22H58.0195ZM52.6738 22H51.9238V22.75H52.6738V22ZM52.6738 6.50977V5.75977H51.9238V6.50977H52.6738ZM58.0195 6.50977H58.7695V5.75977H58.0195V6.50977ZM57.541 0.876953L57.0455 1.43999L57.541 0.876953ZM58.0195 21.25H52.6738V22.75H58.0195V21.25ZM53.4238 22V6.50977H51.9238V22H53.4238ZM52.6738 7.25977H58.0195V5.75977H52.6738V7.25977ZM57.2695 6.50977V22H58.7695V6.50977H57.2695ZM53.2871 2.6543C53.2871 1.98876 53.4688 1.63143 53.7017 1.427L52.7123 0.299562C52.0521 0.878983 51.7871 1.71567 51.7871 2.6543H53.2871ZM53.7017 1.427C53.9453 1.21326 54.4424 1.02539 55.3672 1.02539V-0.474609C54.305 -0.474609 53.362 -0.270549 52.7123 0.299562L53.7017 1.427ZM55.3672 1.02539C56.2869 1.02539 56.7908 1.21579 57.0455 1.43999L58.0365 0.313918C57.3798 -0.263967 56.4344 -0.474609 55.3672 -0.474609V1.02539ZM57.0455 1.43999C57.2952 1.65969 57.4746 2.01902 57.4746 2.6543H58.9746C58.9746 1.72186 58.6983 0.896296 58.0365 0.313918L57.0455 1.43999ZM57.4746 2.6543C57.4746 3.27984 57.2916 3.62656 57.0337 3.83886C56.7477 4.07419 56.2357 4.25586 55.3672 4.25586V5.75586C56.4036 5.75586 57.3203 5.5456 57.9868 4.99708C58.6813 4.42552 58.9746 3.59646 58.9746 2.6543H57.4746ZM55.3672 4.25586C54.5091 4.25586 54.0051 4.07474 53.7239 3.84112C53.4694 3.6296 53.2871 3.28223 53.2871 2.6543H51.7871C51.7871 3.59407 52.0765 4.42248 52.7653 4.99482C53.4275 5.54505 54.3386 5.75586 55.3672 5.75586V4.25586ZM76.3672 6.50977H77.1172V5.75977H76.3672V6.50977ZM76.3672 9.09375L76.626 9.79766L77.1172 9.61705V9.09375H76.3672ZM74.248 9.87305L73.9892 9.16913L73.1694 9.47059L73.5914 10.2354L74.248 9.87305ZM72.9219 15.6016L72.4595 15.011L72.4573 15.0128L72.9219 15.6016ZM66.3184 16.873L66.4769 16.14L65.9255 16.0208L65.658 16.5175L66.3184 16.873ZM66.7695 18.1582L66.5278 18.8682L66.5346 18.8705L66.5415 18.8727L66.7695 18.1582ZM73.8105 27.1543L73.4019 26.5254L73.4003 26.5264L73.8105 27.1543ZM61.957 27.6191L62.3515 26.9812L62.3501 26.9804L61.957 27.6191ZM63.625 20.8789L63.796 21.6092L66.0362 21.0847L63.9172 20.1882L63.625 20.8789ZM62.3809 19.9082L61.7881 20.3679L61.794 20.3753L62.3809 19.9082ZM62.2578 17.3105L62.8651 17.7508L62.8701 17.7436L62.2578 17.3105ZM63.9121 15.9844L64.3021 16.625L65.5267 15.8796L64.216 15.2987L63.9121 15.9844ZM62.0117 14.3164L61.3693 14.7034L61.3727 14.709L62.0117 14.3164ZM70.9668 6.50977L70.8435 7.24956L70.9047 7.25977H70.9668V6.50977ZM65.4023 24.9805L65.7772 24.3308L65.7676 24.3254L65.4023 24.9805ZM70.4062 24.8984L70.1235 24.2037L70.1138 24.2078L70.4062 24.8984ZM70.8711 22.7793L71.1285 22.0747L71.1164 22.0706L70.8711 22.7793ZM65.2793 22.9297L64.8666 22.3035L64.8583 22.3089L64.8502 22.3146L65.2793 22.9297ZM69.2031 13.373L68.5947 12.9344L68.588 12.9439L69.2031 13.373ZM75.6172 6.50977V9.09375H77.1172V6.50977H75.6172ZM76.1083 8.38984L73.9892 9.16913L74.5069 10.577L76.626 9.79766L76.1083 8.38984ZM73.5914 10.2354C73.8125 10.6362 73.9355 11.1229 73.9355 11.7188H75.4355C75.4355 10.9109 75.2669 10.1672 74.9047 9.51074L73.5914 10.2354ZM73.9355 11.7188C73.9355 13.1869 73.4308 14.2506 72.4595 15.011L73.3842 16.1921C74.7645 15.1114 75.4355 13.5866 75.4355 11.7188H73.9355ZM72.4573 15.0128C71.4793 15.7845 69.9306 16.2324 67.6855 16.2324V17.7324C70.0889 17.7324 72.0312 17.2598 73.3865 16.1903L72.4573 15.0128ZM67.6855 16.2324C67.1345 16.2324 66.7391 16.1967 66.4769 16.14L66.1599 17.6061C66.5721 17.6952 67.0882 17.7324 67.6855 17.7324V16.2324ZM65.658 16.5175C65.4878 16.8335 65.377 17.1789 65.377 17.543H66.877C66.877 17.4877 66.8937 17.3865 66.9787 17.2286L65.658 16.5175ZM65.377 17.543C65.377 18.326 66.0386 18.7016 66.5278 18.8682L67.0112 17.4482C66.9357 17.4225 66.8829 17.3986 66.8479 17.3795C66.8125 17.3602 66.8025 17.3497 66.8063 17.3533C66.8112 17.358 66.8313 17.379 66.8494 17.4188C66.8684 17.4603 66.877 17.5043 66.877 17.543H65.377ZM66.5415 18.8727C67.0721 19.042 67.7181 19.1133 68.4512 19.1133V17.6133C67.7988 17.6133 67.3237 17.5478 66.9976 17.4437L66.5415 18.8727ZM68.4512 19.1133H71.0215V17.6133H68.4512V19.1133ZM71.0215 19.1133C72.6706 19.1133 73.7676 19.4633 74.445 20.034C75.0977 20.584 75.4805 21.4416 75.4805 22.752H76.9805C76.9805 21.1365 76.495 19.7998 75.4115 18.8869C74.3525 17.9947 72.845 17.6133 71.0215 17.6133V19.1133ZM75.4805 22.752C75.4805 24.3788 74.8074 25.6122 73.4019 26.5254L74.2192 27.7832C76.0403 26.6 76.9805 24.8986 76.9805 22.752H75.4805ZM73.4003 26.5264C71.966 27.4636 69.8751 27.9766 67.043 27.9766V29.4766C70.026 29.4766 72.4468 28.9413 74.2208 27.7822L73.4003 26.5264ZM67.043 27.9766C64.9136 27.9766 63.3778 27.6158 62.3515 26.9812L61.5626 28.257C62.9243 29.099 64.7791 29.4766 67.043 29.4766V27.9766ZM62.3501 26.9804C61.3841 26.3859 60.9297 25.5733 60.9297 24.4609H59.4297C59.4297 26.1011 60.1602 27.394 61.564 28.2579L62.3501 26.9804ZM60.9297 24.4609C60.9297 23.705 61.1579 23.1381 61.5816 22.6976C62.0214 22.2404 62.7314 21.8584 63.796 21.6092L63.454 20.1487C62.2217 20.4372 61.2091 20.9211 60.5005 21.6578C59.7757 22.4113 59.4297 23.3666 59.4297 24.4609H60.9297ZM63.9172 20.1882C63.5708 20.0416 63.2538 19.8007 62.9677 19.4411L61.794 20.3753C62.2188 20.909 62.7313 21.3152 63.3328 21.5696L63.9172 20.1882ZM62.9735 19.4486C62.6992 19.0948 62.6113 18.81 62.6113 18.582H61.1113C61.1113 19.229 61.3699 19.8284 61.7882 20.3678L62.9735 19.4486ZM62.6113 18.582C62.6113 18.2449 62.7004 17.9778 62.865 17.7508L61.6506 16.8703C61.2866 17.3724 61.1113 17.953 61.1113 18.582H62.6113ZM62.8701 17.7436C63.039 17.5049 63.4736 17.1293 64.3021 16.625L63.5221 15.3437C62.6736 15.8602 62.0053 16.3688 61.6455 16.8774L62.8701 17.7436ZM64.216 15.2987C63.5545 15.0055 63.0371 14.5526 62.6507 13.9238L61.3727 14.709C61.916 15.5932 62.6656 16.2523 63.6082 16.6701L64.216 15.2987ZM62.6542 13.9294C62.2833 13.3137 62.0781 12.534 62.0781 11.5547H60.5781C60.5781 12.7447 60.8287 13.8061 61.3693 14.7034L62.6542 13.9294ZM62.0781 11.5547C62.0781 10.0588 62.5763 8.97988 63.5227 8.21379L62.5789 7.04793C61.2284 8.14121 60.5781 9.67816 60.5781 11.5547H62.0781ZM63.5227 8.21379C64.4895 7.43111 65.9374 6.98633 67.9727 6.98633V5.48633C65.7422 5.48633 63.9089 5.97123 62.5789 7.04793L63.5227 8.21379ZM67.9727 6.98633C68.2169 6.98633 68.6735 7.01502 69.3668 7.07887L69.5043 5.58519C68.8122 5.52144 68.2935 5.48633 67.9727 5.48633V6.98633ZM69.3668 7.07887C70.0564 7.14239 70.544 7.19964 70.8435 7.24956L71.0901 5.76997C70.7334 5.71052 70.2001 5.64928 69.5043 5.58519L69.3668 7.07887ZM70.9668 7.25977H76.3672V5.75977H70.9668V7.25977ZM63.9414 23.9277C63.9414 24.7062 64.3927 25.2761 65.037 25.6355L65.7676 24.3254C65.4641 24.1561 65.4414 24.0243 65.4414 23.9277H63.9414ZM65.0275 25.6301C65.6554 25.9923 66.4336 26.1406 67.3027 26.1406V24.6406C66.5859 24.6406 66.0972 24.5155 65.7771 24.3308L65.0275 25.6301ZM67.3027 26.1406C68.6489 26.1406 69.7953 25.9717 70.6987 25.5891L70.1138 24.2078C69.4677 24.4815 68.5451 24.6406 67.3027 24.6406V26.1406ZM70.689 25.5931C71.5494 25.2429 72.332 24.6434 72.332 23.6543H70.832C70.832 23.6948 70.8242 23.7471 70.743 23.833C70.6474 23.9341 70.46 24.0668 70.1235 24.2038L70.689 25.5931ZM72.332 23.6543C72.332 23.2938 72.2236 22.947 71.9864 22.655C71.7581 22.374 71.4505 22.1925 71.1285 22.0748L70.6137 23.4837C70.7657 23.5393 70.8135 23.5902 70.8222 23.6009C70.8259 23.6054 70.8264 23.6071 70.827 23.6088C70.8279 23.6114 70.832 23.6246 70.832 23.6543H72.332ZM71.1164 22.0706C70.5252 21.8659 69.7481 21.7832 68.834 21.7832V23.2832C69.6881 23.2832 70.269 23.3646 70.6258 23.488L71.1164 22.0706ZM68.834 21.7832H66.7422V23.2832H68.834V21.7832ZM66.7422 21.7832C66.0504 21.7832 65.4123 21.9437 64.8666 22.3035L65.692 23.5559C65.9483 23.387 66.2856 23.2832 66.7422 23.2832V21.7832ZM64.8502 22.3146C64.3072 22.6934 63.9414 23.2355 63.9414 23.9277H65.4414C65.4414 23.8362 65.4676 23.7128 65.7084 23.5448L64.8502 22.3146ZM65.623 11.582C65.623 12.4388 65.7678 13.2148 66.1709 13.7944C66.6083 14.4235 67.2707 14.7109 68.0273 14.7109V13.2109C67.6811 13.2109 67.5163 13.1019 67.4024 12.938C67.254 12.7246 67.123 12.3112 67.123 11.582H65.623ZM68.0273 14.7109C68.7632 14.7109 69.3936 14.4108 69.8182 13.8022L68.588 12.9439C68.4658 13.1192 68.3123 13.2109 68.0273 13.2109V14.7109ZM69.8115 13.8116C70.2275 13.2346 70.377 12.4609 70.377 11.6094H68.877C68.877 12.3256 68.7438 12.7276 68.5947 12.9344L69.8115 13.8116ZM70.377 11.6094C70.377 10.7479 70.2381 9.97082 69.8516 9.38948C69.4293 8.75421 68.7799 8.45312 68.0273 8.45312V9.95312C68.3412 9.95312 68.4916 10.0531 68.6025 10.2199C68.7492 10.4406 68.877 10.8667 68.877 11.6094H70.377ZM68.0273 8.45312C67.2707 8.45312 66.6083 8.74059 66.1709 9.36966C65.7678 9.94926 65.623 10.7252 65.623 11.582H67.123C67.123 10.8529 67.254 10.4394 67.4024 10.226C67.5163 10.0621 67.6811 9.95312 68.0273 9.95312V8.45312ZM88.5078 22H87.7578V22.75H88.5078V22ZM88.0566 11.2266L87.4 11.5889L87.4037 11.5956L87.4076 11.6023L88.0566 11.2266ZM84.6797 11.5137L84.0245 11.1487L84.6797 11.5137ZM84.0781 22V22.75H84.8281V22H84.0781ZM78.7324 22H77.9824V22.75H78.7324V22ZM78.7324 6.50977V5.75977H77.9824V6.50977H78.7324ZM82.7656 6.50977L83.4735 6.262L83.2977 5.75977H82.7656V6.50977ZM83.4355 8.42383L82.7277 8.67159L82.9034 9.17383H83.4355V8.42383ZM83.75 8.42383V9.17383H84.1657L84.386 8.82133L83.75 8.42383ZM85.6367 6.7832L85.3293 6.09911L85.3264 6.10043L85.6367 6.7832ZM92.418 7.72656L91.8753 8.24431L91.8778 8.24689L92.418 7.72656ZM93.8535 22V22.75H94.6035V22H93.8535ZM89.2578 22V13.5508H87.7578V22H89.2578ZM89.2578 13.5508C89.2578 12.4716 89.1044 11.5395 88.7057 10.8508L87.4076 11.6023C87.6104 11.9527 87.7578 12.5701 87.7578 13.5508H89.2578ZM88.7133 10.8643C88.2762 10.072 87.535 9.68359 86.6348 9.68359V11.1836C87.047 11.1836 87.2538 11.3239 87.4 11.5889L88.7133 10.8643ZM86.6348 9.68359C85.4919 9.68359 84.5726 10.1646 84.0245 11.1487L85.3349 11.8786C85.5889 11.4226 85.973 11.1836 86.6348 11.1836V9.68359ZM84.0245 11.1487C83.5229 12.0493 83.3281 13.4543 83.3281 15.2188H84.8281C84.8281 13.4832 85.0344 12.4182 85.3349 11.8786L84.0245 11.1487ZM83.3281 15.2188V22H84.8281V15.2188H83.3281ZM84.0781 21.25H78.7324V22.75H84.0781V21.25ZM79.4824 22V6.50977H77.9824V22H79.4824ZM78.7324 7.25977H82.7656V5.75977H78.7324V7.25977ZM82.0577 6.75753L82.7277 8.67159L84.1434 8.17607L83.4735 6.262L82.0577 6.75753ZM83.4355 9.17383H83.75V7.67383H83.4355V9.17383ZM84.386 8.82133C84.7616 8.22042 85.2757 7.77114 85.9471 7.46598L85.3264 6.10043C84.3936 6.52443 83.6499 7.1689 83.114 8.02633L84.386 8.82133ZM85.9442 7.46729C86.643 7.15322 87.4649 6.98633 88.4258 6.98633V5.48633C87.2903 5.48633 86.2529 5.68402 85.3293 6.09912L85.9442 7.46729ZM88.4258 6.98633C89.9884 6.98633 91.1024 7.4342 91.8753 8.2443L92.9606 7.20882C91.8377 6.03194 90.2902 5.48633 88.4258 5.48633V6.98633ZM91.8778 8.24689C92.6627 9.06164 93.1035 10.2513 93.1035 11.9238H94.6035C94.6035 9.98694 94.0873 8.37846 92.9581 7.20624L91.8778 8.24689ZM93.1035 11.9238V22H94.6035V11.9238H93.1035ZM93.8535 21.25H88.5078V22.75H93.8535V21.25ZM113.896 22V22.75H114.646V22H113.896ZM108.496 22H107.746V22.75H108.496V22ZM108.496 6.42773H109.246V5.67773H108.496V6.42773ZM103.615 6.42773H102.865V7.17773H103.615V6.42773ZM103.615 2.01172V1.26172H102.865V2.01172H103.615ZM118.764 2.01172H119.514V1.26172H118.764V2.01172ZM118.764 6.42773V7.17773H119.514V6.42773H118.764ZM113.896 6.42773V5.67773H113.146V6.42773H113.896ZM113.896 21.25H108.496V22.75H113.896V21.25ZM109.246 22V6.42773H107.746V22H109.246ZM108.496 5.67773H103.615V7.17773H108.496V5.67773ZM104.365 6.42773V2.01172H102.865V6.42773H104.365ZM103.615 2.76172H118.764V1.26172H103.615V2.76172ZM118.014 2.01172V6.42773H119.514V2.01172H118.014ZM118.764 5.67773H113.896V7.17773H118.764V5.67773ZM113.146 6.42773V22H114.646V6.42773H113.146ZM131.055 22H130.305V22.75H131.055V22ZM127.268 11.541L126.615 11.1706L126.614 11.1733L127.268 11.541ZM126.652 22V22.75H127.402V22H126.652ZM121.307 22H120.557V22.75H121.307V22ZM121.307 0.726562V-0.0234375H120.557V0.726562H121.307ZM126.652 0.726562H127.402V-0.0234375H126.652V0.726562ZM126.434 8.42383L125.686 8.36154L125.618 9.17383H126.434V8.42383ZM126.68 8.42383V9.17383H127.091L127.312 8.82648L126.68 8.42383ZM134.979 7.74023L134.436 8.25811L134.441 8.26311L134.979 7.74023ZM136.428 22V22.75H137.178V22H136.428ZM131.805 22V13.5508H130.305V22H131.805ZM131.805 13.5508C131.805 12.4622 131.648 11.522 131.239 10.8308C130.793 10.0779 130.083 9.68359 129.209 9.68359V11.1836C129.565 11.1836 129.778 11.3088 129.948 11.595C130.154 11.9428 130.305 12.5612 130.305 13.5508H131.805ZM129.209 9.68359C128.074 9.68359 127.173 10.189 126.615 11.1706L127.92 11.9114C128.201 11.4165 128.594 11.1836 129.209 11.1836V9.68359ZM126.614 11.1733C126.103 12.0813 125.902 13.466 125.902 15.1914H127.402C127.402 13.508 127.612 12.459 127.921 11.9087L126.614 11.1733ZM125.902 15.1914V22H127.402V15.1914H125.902ZM126.652 21.25H121.307V22.75H126.652V21.25ZM122.057 22V0.726562H120.557V22H122.057ZM121.307 1.47656H126.652V-0.0234375H121.307V1.47656ZM125.902 0.726562V3.74805H127.402V0.726562H125.902ZM125.902 3.74805C125.902 5.08959 125.831 6.62677 125.686 8.36154L127.181 8.48611C127.328 6.72088 127.402 5.14088 127.402 3.74805H125.902ZM126.434 9.17383H126.68V7.67383H126.434V9.17383ZM127.312 8.82648C127.764 8.11732 128.27 7.66321 128.816 7.40793L128.18 6.0491C127.323 6.45007 126.616 7.12617 126.047 8.02117L127.312 8.82648ZM128.816 7.40793C129.4 7.13466 130.104 6.98633 130.945 6.98633V5.48633C129.927 5.48633 129 5.66612 128.18 6.0491L128.816 7.40793ZM130.945 6.98633C132.527 6.98633 133.654 7.43897 134.436 8.25809L135.521 7.22238C134.389 6.03629 132.828 5.48633 130.945 5.48633V6.98633ZM134.441 8.26311C135.234 9.07879 135.678 10.2635 135.678 11.9238H137.178C137.178 9.99297 136.655 8.38866 135.516 7.21736L134.441 8.26311ZM135.678 11.9238V22H137.178V11.9238H135.678ZM136.428 21.25H131.055V22.75H136.428V21.25ZM145.438 22V22.75H146.188V22H145.438ZM140.092 22H139.342V22.75H140.092V22ZM140.092 6.50977V5.75977H139.342V6.50977H140.092ZM145.438 6.50977H146.188V5.75977H145.438V6.50977ZM144.959 0.876953L144.464 1.43999L144.959 0.876953ZM145.438 21.25H140.092V22.75H145.438V21.25ZM140.842 22V6.50977H139.342V22H140.842ZM140.092 7.25977H145.438V5.75977H140.092V7.25977ZM144.688 6.50977V22H146.188V6.50977H144.688ZM140.705 2.6543C140.705 1.98876 140.887 1.63143 141.12 1.427L140.13 0.299562C139.47 0.878983 139.205 1.71567 139.205 2.6543H140.705ZM141.12 1.427C141.363 1.21326 141.86 1.02539 142.785 1.02539V-0.474609C141.723 -0.474609 140.78 -0.270549 140.13 0.299562L141.12 1.427ZM142.785 1.02539C143.705 1.02539 144.209 1.21579 144.464 1.43999L145.454 0.313918C144.798 -0.263967 143.852 -0.474609 142.785 -0.474609V1.02539ZM144.464 1.43999C144.713 1.65969 144.893 2.01902 144.893 2.6543H146.393C146.393 1.72186 146.116 0.896296 145.454 0.313918L144.464 1.43999ZM144.893 2.6543C144.893 3.27984 144.71 3.62656 144.452 3.83886C144.166 4.07419 143.654 4.25586 142.785 4.25586V5.75586C143.822 5.75586 144.738 5.5456 145.405 4.99708C146.099 4.42552 146.393 3.59646 146.393 2.6543H144.893ZM142.785 4.25586C141.927 4.25586 141.423 4.07474 141.142 3.84112C140.887 3.6296 140.705 3.28223 140.705 2.6543H139.205C139.205 3.59407 139.494 4.42248 140.183 4.99482C140.845 5.54505 141.757 5.75586 142.785 5.75586V4.25586ZM158.945 22H158.195V22.75H158.945V22ZM158.494 11.2266L157.837 11.5889L157.841 11.5956L157.845 11.6023L158.494 11.2266ZM155.117 11.5137L154.462 11.1487L155.117 11.5137ZM154.516 22V22.75H155.266V22H154.516ZM149.17 22H148.42V22.75H149.17V22ZM149.17 6.50977V5.75977H148.42V6.50977H149.17ZM153.203 6.50977L153.911 6.262L153.735 5.75977H153.203V6.50977ZM153.873 8.42383L153.165 8.67159L153.341 9.17383H153.873V8.42383ZM154.188 8.42383V9.17383H154.603L154.824 8.82133L154.188 8.42383ZM156.074 6.7832L155.767 6.09911L155.764 6.10043L156.074 6.7832ZM162.855 7.72656L162.313 8.24431L162.315 8.24689L162.855 7.72656ZM164.291 22V22.75H165.041V22H164.291ZM159.695 22V13.5508H158.195V22H159.695ZM159.695 13.5508C159.695 12.4716 159.542 11.5395 159.143 10.8508L157.845 11.6023C158.048 11.9527 158.195 12.5701 158.195 13.5508H159.695ZM159.151 10.8643C158.714 10.072 157.973 9.68359 157.072 9.68359V11.1836C157.484 11.1836 157.691 11.3239 157.837 11.5889L159.151 10.8643ZM157.072 9.68359C155.929 9.68359 155.01 10.1646 154.462 11.1487L155.772 11.8786C156.026 11.4226 156.41 11.1836 157.072 11.1836V9.68359ZM154.462 11.1487C153.96 12.0493 153.766 13.4543 153.766 15.2188H155.266C155.266 13.4832 155.472 12.4182 155.772 11.8786L154.462 11.1487ZM153.766 15.2188V22H155.266V15.2188H153.766ZM154.516 21.25H149.17V22.75H154.516V21.25ZM149.92 22V6.50977H148.42V22H149.92ZM149.17 7.25977H153.203V5.75977H149.17V7.25977ZM152.495 6.75753L153.165 8.67159L154.581 8.17607L153.911 6.262L152.495 6.75753ZM153.873 9.17383H154.188V7.67383H153.873V9.17383ZM154.824 8.82133C155.199 8.22042 155.713 7.77114 156.385 7.46598L155.764 6.10043C154.831 6.52443 154.087 7.1689 153.551 8.02633L154.824 8.82133ZM156.382 7.46729C157.08 7.15322 157.902 6.98633 158.863 6.98633V5.48633C157.728 5.48633 156.69 5.68402 155.767 6.09912L156.382 7.46729ZM158.863 6.98633C160.426 6.98633 161.54 7.4342 162.313 8.2443L163.398 7.20882C162.275 6.03194 160.728 5.48633 158.863 5.48633V6.98633ZM162.315 8.24689C163.1 9.06164 163.541 10.2513 163.541 11.9238H165.041C165.041 9.98694 164.525 8.37846 163.396 7.20624L162.315 8.24689ZM163.541 11.9238V22H165.041V11.9238H163.541ZM164.291 21.25H158.945V22.75H164.291V21.25ZM173.109 13.291V14.041H173.524L173.744 13.69L173.109 13.291ZM174.764 10.8848L174.176 10.4185L174.176 10.4185L174.764 10.8848ZM178.236 6.50977V5.75977H177.874L177.649 6.04349L178.236 6.50977ZM184.197 6.50977L184.779 6.98371L185.776 5.75977H184.197V6.50977ZM178.824 13.0996L178.243 12.6257L177.899 13.0472L178.193 13.5048L178.824 13.0996ZM184.539 22V22.75H185.912L185.17 21.5948L184.539 22ZM178.428 22L177.788 22.391L178.007 22.75H178.428V22ZM175.037 16.4492L175.677 16.0583L175.243 15.348L174.582 15.8532L175.037 16.4492ZM173.301 17.7754L172.846 17.1794L172.551 17.4045V17.7754H173.301ZM173.301 22V22.75H174.051V22H173.301ZM167.928 22H167.178V22.75H167.928V22ZM167.928 0.726562V-0.0234375H167.178V0.726562H167.928ZM173.301 0.726562H174.051V-0.0234375H173.301V0.726562ZM173 13.291L172.258 13.1822L172.132 14.041H173V13.291ZM173.744 13.69C174.385 12.6704 174.92 11.8943 175.351 11.351L174.176 10.4185C173.696 11.0236 173.128 11.8518 172.474 12.892L173.744 13.69ZM175.351 11.351L178.824 6.97604L177.649 6.04349L174.176 10.4185L175.351 11.351ZM178.236 7.25977H184.197V5.75977H178.236V7.25977ZM183.616 6.03582L178.243 12.6257L179.405 13.5736L184.779 6.98371L183.616 6.03582ZM178.193 13.5048L183.908 22.4052L185.17 21.5948L179.455 12.6944L178.193 13.5048ZM184.539 21.25H178.428V22.75H184.539V21.25ZM179.068 21.609L175.677 16.0583L174.397 16.8402L177.788 22.391L179.068 21.609ZM174.582 15.8532L172.846 17.1794L173.756 18.3714L175.492 17.0453L174.582 15.8532ZM172.551 17.7754V22H174.051V17.7754H172.551ZM173.301 21.25H167.928V22.75H173.301V21.25ZM168.678 22V0.726562H167.178V22H168.678ZM167.928 1.47656H173.301V-0.0234375H167.928V1.47656ZM172.551 0.726562V9.09375H174.051V0.726562H172.551ZM172.551 9.09375C172.551 10.4896 172.453 11.8523 172.258 13.1822L173.742 13.3999C173.948 11.9954 174.051 10.5599 174.051 9.09375H172.551ZM173 14.041H173.109V12.541H173V14.041ZM191.758 22V22.75H192.508V22H191.758ZM186.412 22H185.662V22.75H186.412V22ZM186.412 6.50977V5.75977H185.662V6.50977H186.412ZM191.758 6.50977H192.508V5.75977H191.758V6.50977ZM191.279 0.876953L190.784 1.43999L191.279 0.876953ZM191.758 21.25H186.412V22.75H191.758V21.25ZM187.162 22V6.50977H185.662V22H187.162ZM186.412 7.25977H191.758V5.75977H186.412V7.25977ZM191.008 6.50977V22H192.508V6.50977H191.008ZM187.025 2.6543C187.025 1.98876 187.207 1.63143 187.44 1.427L186.451 0.299562C185.79 0.878983 185.525 1.71567 185.525 2.6543H187.025ZM187.44 1.427C187.684 1.21326 188.181 1.02539 189.105 1.02539V-0.474609C188.043 -0.474609 187.1 -0.270549 186.451 0.299562L187.44 1.427ZM189.105 1.02539C190.025 1.02539 190.529 1.21579 190.784 1.43999L191.775 0.313918C191.118 -0.263967 190.173 -0.474609 189.105 -0.474609V1.02539ZM190.784 1.43999C191.033 1.65969 191.213 2.01902 191.213 2.6543H192.713C192.713 1.72186 192.437 0.896296 191.775 0.313918L190.784 1.43999ZM191.213 2.6543C191.213 3.27984 191.03 3.62656 190.772 3.83886C190.486 4.07419 189.974 4.25586 189.105 4.25586V5.75586C190.142 5.75586 191.059 5.5456 191.725 4.99708C192.42 4.42552 192.713 3.59646 192.713 2.6543H191.213ZM189.105 4.25586C188.247 4.25586 187.743 4.07474 187.462 3.84112C187.208 3.6296 187.025 3.28223 187.025 2.6543H185.525C185.525 3.59407 185.815 4.42248 186.504 4.99482C187.166 5.54505 188.077 5.75586 189.105 5.75586V4.25586ZM205.266 22H204.516V22.75H205.266V22ZM204.814 11.2266L204.158 11.5889L204.162 11.5956L204.165 11.6023L204.814 11.2266ZM201.438 11.5137L200.782 11.1487L201.438 11.5137ZM200.836 22V22.75H201.586V22H200.836ZM195.49 22H194.74V22.75H195.49V22ZM195.49 6.50977V5.75977H194.74V6.50977H195.49ZM199.523 6.50977L200.231 6.262L200.056 5.75977H199.523V6.50977ZM200.193 8.42383L199.485 8.67159L199.661 9.17383H200.193V8.42383ZM200.508 8.42383V9.17383H200.923L201.144 8.82133L200.508 8.42383ZM202.395 6.7832L202.087 6.09911L202.084 6.10043L202.395 6.7832ZM209.176 7.72656L208.633 8.24431L208.636 8.24689L209.176 7.72656ZM210.611 22V22.75H211.361V22H210.611ZM206.016 22V13.5508H204.516V22H206.016ZM206.016 13.5508C206.016 12.4716 205.862 11.5395 205.464 10.8508L204.165 11.6023C204.368 11.9527 204.516 12.5701 204.516 13.5508H206.016ZM205.471 10.8643C205.034 10.072 204.293 9.68359 203.393 9.68359V11.1836C203.805 11.1836 204.012 11.3239 204.158 11.5889L205.471 10.8643ZM203.393 9.68359C202.25 9.68359 201.33 10.1646 200.782 11.1487L202.093 11.8786C202.347 11.4226 202.731 11.1836 203.393 11.1836V9.68359ZM200.782 11.1487C200.281 12.0493 200.086 13.4543 200.086 15.2188H201.586C201.586 13.4832 201.792 12.4182 202.093 11.8786L200.782 11.1487ZM200.086 15.2188V22H201.586V15.2188H200.086ZM200.836 21.25H195.49V22.75H200.836V21.25ZM196.24 22V6.50977H194.74V22H196.24ZM195.49 7.25977H199.523V5.75977H195.49V7.25977ZM198.816 6.75753L199.485 8.67159L200.901 8.17607L200.231 6.262L198.816 6.75753ZM200.193 9.17383H200.508V7.67383H200.193V9.17383ZM201.144 8.82133C201.519 8.22042 202.034 7.77114 202.705 7.46598L202.084 6.10043C201.151 6.52443 200.408 7.1689 199.872 8.02633L201.144 8.82133ZM202.702 7.46729C203.401 7.15322 204.223 6.98633 205.184 6.98633V5.48633C204.048 5.48633 203.011 5.68402 202.087 6.09912L202.702 7.46729ZM205.184 6.98633C206.746 6.98633 207.86 7.4342 208.633 8.2443L209.718 7.20882C208.596 6.03194 207.048 5.48633 205.184 5.48633V6.98633ZM208.636 8.24689C209.42 9.06164 209.861 10.2513 209.861 11.9238H211.361C211.361 9.98694 210.845 8.37846 209.716 7.20624L208.636 8.24689ZM209.861 11.9238V22H211.361V11.9238H209.861ZM210.611 21.25H205.266V22.75H210.611V21.25ZM228.863 6.50977H229.613V5.75977H228.863V6.50977ZM228.863 9.09375L229.122 9.79766L229.613 9.61705V9.09375H228.863ZM226.744 9.87305L226.485 9.16913L225.666 9.47059L226.087 10.2354L226.744 9.87305ZM225.418 15.6016L224.956 15.011L224.953 15.0128L225.418 15.6016ZM218.814 16.873L218.973 16.14L218.422 16.0208L218.154 16.5175L218.814 16.873ZM219.266 18.1582L219.024 18.8682L219.031 18.8705L219.038 18.8727L219.266 18.1582ZM226.307 27.1543L225.898 26.5254L225.896 26.5264L226.307 27.1543ZM214.453 27.6191L214.848 26.9812L214.846 26.9804L214.453 27.6191ZM216.121 20.8789L216.292 21.6092L218.532 21.0847L216.413 20.1882L216.121 20.8789ZM214.877 19.9082L214.284 20.3679L214.29 20.3753L214.877 19.9082ZM214.754 17.3105L215.361 17.7508L215.366 17.7436L214.754 17.3105ZM216.408 15.9844L216.798 16.625L218.023 15.8796L216.712 15.2987L216.408 15.9844ZM214.508 14.3164L213.865 14.7034L213.869 14.709L214.508 14.3164ZM223.463 6.50977L223.34 7.24956L223.401 7.25977H223.463V6.50977ZM217.898 24.9805L218.273 24.3308L218.264 24.3254L217.898 24.9805ZM222.902 24.8984L222.62 24.2037L222.61 24.2078L222.902 24.8984ZM223.367 22.7793L223.625 22.0747L223.613 22.0706L223.367 22.7793ZM217.775 22.9297L217.363 22.3035L217.354 22.3089L217.346 22.3146L217.775 22.9297ZM221.699 13.373L221.091 12.9344L221.084 12.9439L221.699 13.373ZM228.113 6.50977V9.09375H229.613V6.50977H228.113ZM228.604 8.38984L226.485 9.16913L227.003 10.577L229.122 9.79766L228.604 8.38984ZM226.087 10.2354C226.309 10.6362 226.432 11.1229 226.432 11.7188H227.932C227.932 10.9109 227.763 10.1672 227.401 9.51074L226.087 10.2354ZM226.432 11.7188C226.432 13.1869 225.927 14.2506 224.956 15.011L225.88 16.1921C227.261 15.1114 227.932 13.5866 227.932 11.7188H226.432ZM224.953 15.0128C223.975 15.7845 222.427 16.2324 220.182 16.2324V17.7324C222.585 17.7324 224.527 17.2598 225.883 16.1903L224.953 15.0128ZM220.182 16.2324C219.631 16.2324 219.235 16.1967 218.973 16.14L218.656 17.6061C219.068 17.6952 219.584 17.7324 220.182 17.7324V16.2324ZM218.154 16.5175C217.984 16.8335 217.873 17.1789 217.873 17.543H219.373C219.373 17.4877 219.39 17.3865 219.475 17.2286L218.154 16.5175ZM217.873 17.543C217.873 18.326 218.535 18.7016 219.024 18.8682L219.507 17.4482C219.432 17.4225 219.379 17.3986 219.344 17.3795C219.309 17.3602 219.299 17.3497 219.302 17.3533C219.307 17.358 219.327 17.379 219.346 17.4188C219.364 17.4603 219.373 17.5043 219.373 17.543H217.873ZM219.038 18.8727C219.568 19.042 220.214 19.1133 220.947 19.1133V17.6133C220.295 17.6133 219.82 17.5478 219.494 17.4437L219.038 18.8727ZM220.947 19.1133H223.518V17.6133H220.947V19.1133ZM223.518 19.1133C225.167 19.1133 226.264 19.4633 226.941 20.034C227.594 20.584 227.977 21.4416 227.977 22.752H229.477C229.477 21.1365 228.991 19.7998 227.908 18.8869C226.849 17.9947 225.341 17.6133 223.518 17.6133V19.1133ZM227.977 22.752C227.977 24.3788 227.303 25.6122 225.898 26.5254L226.715 27.7832C228.536 26.6 229.477 24.8986 229.477 22.752H227.977ZM225.896 26.5264C224.462 27.4636 222.371 27.9766 219.539 27.9766V29.4766C222.522 29.4766 224.943 28.9413 226.717 27.7822L225.896 26.5264ZM219.539 27.9766C217.41 27.9766 215.874 27.6158 214.848 26.9812L214.059 28.257C215.42 29.099 217.275 29.4766 219.539 29.4766V27.9766ZM214.846 26.9804C213.88 26.3859 213.426 25.5733 213.426 24.4609H211.926C211.926 26.1011 212.656 27.394 214.06 28.2579L214.846 26.9804ZM213.426 24.4609C213.426 23.705 213.654 23.1381 214.078 22.6976C214.517 22.2404 215.228 21.8584 216.292 21.6092L215.95 20.1487C214.718 20.4372 213.705 20.9211 212.997 21.6578C212.272 22.4113 211.926 23.3666 211.926 24.4609H213.426ZM216.413 20.1882C216.067 20.0416 215.75 19.8007 215.464 19.4411L214.29 20.3753C214.715 20.909 215.227 21.3152 215.829 21.5696L216.413 20.1882ZM215.47 19.4486C215.195 19.0948 215.107 18.81 215.107 18.582H213.607C213.607 19.229 213.866 19.8284 214.284 20.3678L215.47 19.4486ZM215.107 18.582C215.107 18.2449 215.197 17.9778 215.361 17.7508L214.147 16.8703C213.783 17.3724 213.607 17.953 213.607 18.582H215.107ZM215.366 17.7436C215.535 17.5049 215.97 17.1293 216.798 16.625L216.018 15.3437C215.17 15.8602 214.501 16.3688 214.142 16.8774L215.366 17.7436ZM216.712 15.2987C216.051 15.0055 215.533 14.5526 215.147 13.9238L213.869 14.709C214.412 15.5932 215.162 16.2523 216.104 16.6701L216.712 15.2987ZM215.15 13.9294C214.779 13.3137 214.574 12.534 214.574 11.5547H213.074C213.074 12.7447 213.325 13.8061 213.865 14.7034L215.15 13.9294ZM214.574 11.5547C214.574 10.0588 215.072 8.97988 216.019 8.21379L215.075 7.04793C213.724 8.14121 213.074 9.67816 213.074 11.5547H214.574ZM216.019 8.21379C216.986 7.43111 218.434 6.98633 220.469 6.98633V5.48633C218.238 5.48633 216.405 5.97123 215.075 7.04793L216.019 8.21379ZM220.469 6.98633C220.713 6.98633 221.17 7.01502 221.863 7.07887L222 5.58519C221.308 5.52144 220.79 5.48633 220.469 5.48633V6.98633ZM221.863 7.07887C222.552 7.14239 223.04 7.19964 223.34 7.24956L223.586 5.76997C223.229 5.71052 222.696 5.64928 222 5.58519L221.863 7.07887ZM223.463 7.25977H228.863V5.75977H223.463V7.25977ZM216.438 23.9277C216.438 24.7062 216.889 25.2761 217.533 25.6355L218.264 24.3254C217.96 24.1561 217.938 24.0243 217.938 23.9277H216.438ZM217.524 25.6301C218.152 25.9923 218.93 26.1406 219.799 26.1406V24.6406C219.082 24.6406 218.593 24.5155 218.273 24.3308L217.524 25.6301ZM219.799 26.1406C221.145 26.1406 222.291 25.9717 223.195 25.5891L222.61 24.2078C221.964 24.4815 221.041 24.6406 219.799 24.6406V26.1406ZM223.185 25.5931C224.046 25.2429 224.828 24.6434 224.828 23.6543H223.328C223.328 23.6948 223.32 23.7471 223.239 23.833C223.143 23.9341 222.956 24.0668 222.62 24.2038L223.185 25.5931ZM224.828 23.6543C224.828 23.2938 224.72 22.947 224.482 22.655C224.254 22.374 223.947 22.1925 223.625 22.0748L223.11 23.4837C223.262 23.5393 223.31 23.5902 223.318 23.6009C223.322 23.6054 223.323 23.6071 223.323 23.6088C223.324 23.6114 223.328 23.6246 223.328 23.6543H224.828ZM223.613 22.0706C223.021 21.8659 222.244 21.7832 221.33 21.7832V23.2832C222.184 23.2832 222.765 23.3646 223.122 23.488L223.613 22.0706ZM221.33 21.7832H219.238V23.2832H221.33V21.7832ZM219.238 21.7832C218.546 21.7832 217.908 21.9437 217.363 22.3035L218.188 23.5559C218.444 23.387 218.782 23.2832 219.238 23.2832V21.7832ZM217.346 22.3146C216.803 22.6934 216.438 23.2355 216.438 23.9277H217.938C217.938 23.8362 217.964 23.7128 218.205 23.5448L217.346 22.3146ZM218.119 11.582C218.119 12.4388 218.264 13.2148 218.667 13.7944C219.104 14.4235 219.767 14.7109 220.523 14.7109V13.2109C220.177 13.2109 220.012 13.1019 219.898 12.938C219.75 12.7246 219.619 12.3112 219.619 11.582H218.119ZM220.523 14.7109C221.259 14.7109 221.89 14.4108 222.314 13.8022L221.084 12.9439C220.962 13.1192 220.808 13.2109 220.523 13.2109V14.7109ZM222.308 13.8116C222.724 13.2346 222.873 12.4609 222.873 11.6094H221.373C221.373 12.3256 221.24 12.7276 221.091 12.9344L222.308 13.8116ZM222.873 11.6094C222.873 10.7479 222.734 9.97082 222.348 9.38948C221.925 8.75421 221.276 8.45312 220.523 8.45312V9.95312C220.837 9.95312 220.988 10.0531 221.099 10.2199C221.245 10.4406 221.373 10.8667 221.373 11.6094H222.873ZM220.523 8.45312C219.767 8.45312 219.104 8.74059 218.667 9.36966C218.264 9.94926 218.119 10.7252 218.119 11.582H219.619C219.619 10.8529 219.75 10.4394 219.898 10.226C220.012 10.0621 220.177 9.95312 220.523 9.95312V8.45312Z" fill="#7B838D"/>
</svg>
