<svg width="248" height="29" viewBox="0 0 248 29" fill="none" xmlns="http://www.w3.org/2000/svg">
<path d="M0.0585938 27.9883H-0.691406V28.5933L-0.100101 28.7213L0.0585938 27.9883ZM0.0585938 23.791L0.19681 23.0539L-0.691406 22.8873V23.791H0.0585938ZM0.988281 23.9688L1.15098 23.2366L1.14123 23.2344L1.13143 23.2325L0.988281 23.9688ZM4.54297 2.01172V1.26172H3.79297V2.01172H4.54297ZM9.9707 2.01172H10.7207V1.26172H9.9707V2.01172ZM8.19336 26.1836L7.62338 25.6961L7.62181 25.698L8.19336 26.1836ZM2.86133 27.5254C1.92566 27.5254 1.04491 27.4344 0.217288 27.2553L-0.100101 28.7213C0.840506 28.9249 1.82824 29.0254 2.86133 29.0254V27.5254ZM0.808594 27.9883V23.791H-0.691406V27.9883H0.808594ZM-0.0796227 24.5282C0.210208 24.5825 0.518447 24.6414 0.845129 24.705L1.13143 23.2325C0.801866 23.1685 0.490313 23.1089 0.19681 23.0539L-0.0796227 24.5282ZM0.825583 24.7009C1.2139 24.7872 1.62456 24.8281 2.05469 24.8281V23.3281C1.71919 23.3281 1.41891 23.2962 1.15098 23.2366L0.825583 24.7009ZM2.05469 24.8281C3.09724 24.8281 4.00965 24.5073 4.57975 23.7064L3.35775 22.8365C3.16222 23.1112 2.79859 23.3281 2.05469 23.3281V24.8281ZM4.57975 23.7064C5.10602 22.9671 5.29297 21.8419 5.29297 20.5098H3.79297C3.79297 21.7844 3.59711 22.5003 3.35775 22.8365L4.57975 23.7064ZM5.29297 20.5098V2.01172H3.79297V20.5098H5.29297ZM4.54297 2.76172H9.9707V1.26172H4.54297V2.76172ZM9.2207 2.01172V20.0449H10.7207V2.01172H9.2207ZM9.2207 20.0449C9.2207 22.6573 8.64715 24.4991 7.62339 25.6961L8.76333 26.6711C10.1094 25.0972 10.7207 22.8466 10.7207 20.0449H9.2207ZM7.62181 25.698C6.61904 26.8782 5.08064 27.5254 2.86133 27.5254V29.0254C5.3816 29.0254 7.39789 28.2781 8.76491 26.6692L7.62181 25.698ZM26.7324 20.1543L26.1918 19.6345L26.1917 19.6345L26.7324 20.1543ZM15.3984 20.0996L14.8563 20.6179L14.858 20.6196L15.3984 20.0996ZM15.3574 8.3418L14.8202 7.81849L14.8201 7.81854L15.3574 8.3418ZM25.1328 7.20703L25.4966 6.55117L25.1328 7.20703ZM27.8262 9.99609L27.1604 10.3415L27.1636 10.3475L27.8262 9.99609ZM19.2812 17.2695L18.6122 17.6084L18.614 17.6119L19.2812 17.2695ZM22.8223 17.2695L22.1497 16.9376L22.1479 16.9412L22.8223 17.2695ZM19.2812 11.2266L19.9428 11.58L19.9447 11.5762L19.2812 11.2266ZM28.0332 14.2207C28.0332 16.6181 27.3895 18.3888 26.1918 19.6345L27.273 20.6741C28.8097 19.076 29.5332 16.891 29.5332 14.2207H28.0332ZM26.1917 19.6345C25.0088 20.8651 23.3198 21.5234 21.0176 21.5234V23.0234C23.619 23.0234 25.7399 22.269 27.2731 20.6741L26.1917 19.6345ZM21.0176 21.5234C18.8325 21.5234 17.168 20.8569 15.9389 19.5796L14.858 20.6196C16.418 22.2408 18.4996 23.0234 21.0176 23.0234V21.5234ZM15.9406 19.5813C14.718 18.3024 14.0703 16.5449 14.0703 14.2207H12.5703C12.5703 16.8366 13.3081 18.9983 14.8563 20.6179L15.9406 19.5813ZM14.0703 14.2207C14.0703 11.8311 14.71 10.0816 15.8947 8.86506L14.8201 7.81854C13.2887 9.39108 12.5703 11.5608 12.5703 14.2207H14.0703ZM15.8947 8.8651C17.0865 7.64147 18.7862 6.98633 21.0996 6.98633V5.48633C18.4912 5.48633 16.3627 6.23483 14.8202 7.81849L15.8947 8.8651ZM21.0996 6.98633C22.5126 6.98633 23.7285 7.28575 24.769 7.86289L25.4966 6.55117C24.2038 5.83404 22.7309 5.48633 21.0996 5.48633V6.98633ZM24.769 7.86289C25.8035 8.4367 26.5977 9.25689 27.1604 10.3415L28.4919 9.65071C27.7968 8.31082 26.7955 7.27163 25.4966 6.55117L24.769 7.86289ZM27.1636 10.3475C27.7345 11.424 28.0332 12.7074 28.0332 14.2207H29.5332C29.5332 12.5075 29.1939 10.9744 28.4888 9.64472L27.1636 10.3475ZM17.998 14.2207C17.998 15.5981 18.1787 16.7526 18.6122 17.6084L19.9503 16.9307C19.6729 16.3828 19.498 15.5047 19.498 14.2207H17.998ZM18.614 17.6119C18.8487 18.0693 19.181 18.4433 19.6192 18.6976C20.0543 18.95 20.5491 19.0586 21.0723 19.0586V17.5586C20.7568 17.5586 20.5339 17.494 20.372 17.4001C20.2132 17.308 20.0693 17.1625 19.9485 16.9271L18.614 17.6119ZM21.0723 19.0586C21.5918 19.0586 22.0839 18.9495 22.5147 18.6937C22.9489 18.4359 23.2728 18.0575 23.4966 17.5978L22.1479 16.9412C22.0345 17.1743 21.8981 17.3154 21.7489 17.4039C21.5964 17.4945 21.3821 17.5586 21.0723 17.5586V19.0586ZM23.4948 17.6014C23.916 16.748 24.0918 15.5965 24.0918 14.2207H22.5918C22.5918 15.5064 22.4212 16.3874 22.1497 16.9376L23.4948 17.6014ZM24.0918 14.2207C24.0918 12.8563 23.9168 11.7162 23.4894 10.884L22.1551 11.5692C22.4205 12.0859 22.5918 12.9419 22.5918 14.2207H24.0918ZM23.4894 10.884C23.2574 10.4321 22.926 10.0646 22.4892 9.81598C22.0566 9.56975 21.5646 9.46484 21.0449 9.46484V10.9648C21.3638 10.9648 21.5873 11.0286 21.7471 11.1196C21.9027 11.2081 22.0408 11.3465 22.1551 11.5692L23.4894 10.884ZM21.0449 9.46484C20.5313 9.46484 20.0448 9.571 19.6156 9.81721C19.1833 10.0652 18.8533 10.43 18.6178 10.8769L19.9447 11.5762C20.0647 11.3486 20.2063 11.2076 20.362 11.1183C20.5206 11.0273 20.7382 10.9648 21.0449 10.9648V9.46484ZM18.6197 10.8732C18.1773 11.7014 17.998 12.8477 17.998 14.2207H19.498C19.498 12.9323 19.6743 12.0825 19.9428 11.58L18.6197 10.8732ZM42.8789 22L42.1705 22.2462L42.3455 22.75H42.8789V22ZM42.209 20.0723L42.9174 19.8261L42.7423 19.3223H42.209V20.0723ZM41.8945 20.0723V19.3223H41.48L41.2594 19.6733L41.8945 20.0723ZM40.0215 21.7129L40.3412 22.3913L40.3445 22.3898L40.0215 21.7129ZM33.2402 20.7969L32.6976 21.3146L32.7 21.3171L33.2402 20.7969ZM31.8184 6.50977V5.75977H31.0684V6.50977H31.8184ZM37.1641 6.50977H37.9141V5.75977H37.1641V6.50977ZM37.5879 17.2695L36.929 17.6279L36.9339 17.6367L37.5879 17.2695ZM40.9785 16.9688L41.6373 17.3273L41.6391 17.3238L40.9785 16.9688ZM41.5664 6.50977V5.75977H40.8164V6.50977H41.5664ZM46.9121 6.50977H47.6621V5.75977H46.9121V6.50977ZM46.9121 22V22.75H47.6621V22H46.9121ZM43.5873 21.7538L42.9174 19.8261L41.5005 20.3185L42.1705 22.2462L43.5873 21.7538ZM42.209 19.3223H41.8945V20.8223H42.209V19.3223ZM41.2594 19.6733C40.8929 20.2567 40.3801 20.7107 39.6984 21.036L40.3445 22.3898C41.267 21.9495 42.0029 21.3097 42.5296 20.4712L41.2594 19.6733ZM39.7018 21.0345C39.0289 21.3516 38.2083 21.5234 37.2188 21.5234V23.0234C38.3803 23.0234 39.4282 22.8216 40.3412 22.3913L39.7018 21.0345ZM37.2188 21.5234C35.6646 21.5234 34.5537 21.0796 33.7805 20.2766L32.7 21.3171C33.8226 22.4829 35.3641 23.0234 37.2188 23.0234V21.5234ZM33.7829 20.2791C33.0057 19.4646 32.5684 18.2739 32.5684 16.5996H31.0684C31.0684 18.5346 31.5789 20.1422 32.6976 21.3146L33.7829 20.2791ZM32.5684 16.5996V6.50977H31.0684V16.5996H32.5684ZM31.8184 7.25977H37.1641V5.75977H31.8184V7.25977ZM36.4141 6.50977V14.9727H37.9141V6.50977H36.4141ZM36.4141 14.9727C36.4141 16.0319 36.5582 16.9459 36.929 17.6279L38.2468 16.9112C38.0525 16.5541 37.9141 15.9368 37.9141 14.9727H36.4141ZM36.9339 17.6367C37.374 18.4205 38.1159 18.7988 39.0098 18.7988V17.2988C38.5912 17.2988 38.3852 17.1576 38.2419 16.9024L36.9339 17.6367ZM39.0098 18.7988C40.1639 18.7988 41.0954 18.3227 41.6373 17.3273L40.3198 16.6102C40.0777 17.0549 39.6968 17.2988 39.0098 17.2988V18.7988ZM41.6391 17.3238C42.1252 16.4196 42.3164 15.031 42.3164 13.291H40.8164C40.8164 14.9963 40.6157 16.0596 40.3179 16.6137L41.6391 17.3238ZM42.3164 13.291V6.50977H40.8164V13.291H42.3164ZM41.5664 7.25977H46.9121V5.75977H41.5664V7.25977ZM46.1621 6.50977V22H47.6621V6.50977H46.1621ZM46.9121 21.25H42.8789V22.75H46.9121V21.25ZM61.2812 6.3457L61.4154 5.60778L61.4098 5.60679L61.2812 6.3457ZM61.582 6.40039L62.3287 6.47121L62.3937 5.78567L61.7162 5.66249L61.582 6.40039ZM61.1035 11.4453L60.9216 12.1729L61.7678 12.3845L61.8502 11.5161L61.1035 11.4453ZM56.7422 12.0879L57.2725 12.6182L57.277 12.6137L56.7422 12.0879ZM55.9492 22V22.75H56.6992V22H55.9492ZM50.6035 22H49.8535V22.75H50.6035V22ZM50.6035 6.50977V5.75977H49.8535V6.50977H50.6035ZM54.582 6.50977L55.2928 6.27024L55.1207 5.75977H54.582V6.50977ZM55.416 8.98438L54.7053 9.2239L54.8773 9.73438H55.416V8.98438ZM55.6758 8.98438V9.73438H56.1214L56.3345 9.343L55.6758 8.98438ZM57.5352 7.00195L57.9359 7.6359L57.9378 7.6347L57.5352 7.00195ZM59.9551 6.98633C60.3808 6.98633 60.7796 7.01972 61.1527 7.08461L61.4098 5.60679C60.9444 5.52586 60.4591 5.48633 59.9551 5.48633V6.98633ZM61.1471 7.0836L61.4479 7.13829L61.7162 5.66249L61.4154 5.6078L61.1471 7.0836ZM60.8354 6.32957L60.3569 11.3745L61.8502 11.5161L62.3287 6.47121L60.8354 6.32957ZM61.2854 10.7177C60.7608 10.5866 60.0841 10.5312 59.2852 10.5312V12.0312C60.0356 12.0312 60.5712 12.0853 60.9216 12.1729L61.2854 10.7177ZM59.2852 10.5312C58.025 10.5312 56.9379 10.819 56.2073 11.5621L57.277 12.6137C57.6038 12.2813 58.212 12.0312 59.2852 12.0312V10.5312ZM56.2119 11.5576C55.4998 12.2696 55.1992 13.2532 55.1992 14.3848H56.6992C56.6992 13.5111 56.9273 12.9635 57.2725 12.6182L56.2119 11.5576ZM55.1992 14.3848V22H56.6992V14.3848H55.1992ZM55.9492 21.25H50.6035V22.75H55.9492V21.25ZM51.3535 22V6.50977H49.8535V22H51.3535ZM50.6035 7.25977H54.582V5.75977H50.6035V7.25977ZM53.8713 6.74929L54.7053 9.2239L56.1267 8.74485L55.2928 6.27024L53.8713 6.74929ZM55.416 9.73438H55.6758V8.23438H55.416V9.73438ZM56.3345 9.343C56.7197 8.63546 57.2505 8.06922 57.9359 7.6359L57.1344 6.36801C56.2339 6.93729 55.5251 7.69267 55.0171 8.62575L56.3345 9.343ZM57.9378 7.6347C58.6406 7.18746 59.3096 6.98633 59.9551 6.98633V5.48633C58.9782 5.48633 58.0339 5.79561 57.1325 6.36921L57.9378 7.6347ZM73.5312 22H72.7812V22.75H73.5312V22ZM73.0801 11.2266L72.4234 11.5889L72.4271 11.5956L72.431 11.6023L73.0801 11.2266ZM69.7031 11.5137L69.0479 11.1487L69.7031 11.5137ZM69.1016 22V22.75H69.8516V22H69.1016ZM63.7559 22H63.0059V22.75H63.7559V22ZM63.7559 6.50977V5.75977H63.0059V6.50977H63.7559ZM67.7891 6.50977L68.497 6.262L68.3212 5.75977H67.7891V6.50977ZM68.459 8.42383L67.7511 8.67159L67.9269 9.17383H68.459V8.42383ZM68.7734 8.42383V9.17383H69.1891L69.4094 8.82133L68.7734 8.42383ZM70.6602 6.7832L70.3527 6.09911L70.3498 6.10043L70.6602 6.7832ZM77.4414 7.72656L76.8988 8.24431L76.9013 8.24689L77.4414 7.72656ZM78.877 22V22.75H79.627V22H78.877ZM74.2812 22V13.5508H72.7812V22H74.2812ZM74.2812 13.5508C74.2812 12.4716 74.1279 11.5395 73.7291 10.8508L72.431 11.6023C72.6339 11.9527 72.7812 12.5701 72.7812 13.5508H74.2812ZM73.7368 10.8643C73.2996 10.072 72.5585 9.68359 71.6582 9.68359V11.1836C72.0704 11.1836 72.2772 11.3239 72.4234 11.5889L73.7368 10.8643ZM71.6582 9.68359C70.5153 9.68359 69.596 10.1646 69.0479 11.1487L70.3584 11.8786C70.6123 11.4226 70.9964 11.1836 71.6582 11.1836V9.68359ZM69.0479 11.1487C68.5463 12.0493 68.3516 13.4543 68.3516 15.2188H69.8516C69.8516 13.4832 70.0578 12.4182 70.3584 11.8786L69.0479 11.1487ZM68.3516 15.2188V22H69.8516V15.2188H68.3516ZM69.1016 21.25H63.7559V22.75H69.1016V21.25ZM64.5059 22V6.50977H63.0059V22H64.5059ZM63.7559 7.25977H67.7891V5.75977H63.7559V7.25977ZM67.0812 6.75753L67.7511 8.67159L69.1669 8.17607L68.497 6.262L67.0812 6.75753ZM68.459 9.17383H68.7734V7.67383H68.459V9.17383ZM69.4094 8.82133C69.785 8.22042 70.2991 7.77114 70.9705 7.46598L70.3498 6.10043C69.417 6.52443 68.6733 7.1689 68.1374 8.02633L69.4094 8.82133ZM70.9676 7.46729C71.6664 7.15322 72.4883 6.98633 73.4492 6.98633V5.48633C72.3138 5.48633 71.2763 5.68402 70.3527 6.09912L70.9676 7.46729ZM73.4492 6.98633C75.0119 6.98633 76.1258 7.4342 76.8988 8.2443L77.984 7.20882C76.8611 6.03194 75.3137 5.48633 73.4492 5.48633V6.98633ZM76.9013 8.24689C77.6861 9.06164 78.127 10.2513 78.127 11.9238H79.627C79.627 9.98694 79.1108 8.37846 77.9816 7.20624L76.9013 8.24689ZM78.127 11.9238V22H79.627V11.9238H78.127ZM78.877 21.25H73.5312V22.75H78.877V21.25ZM83.9766 20.2227L83.4549 20.7616L83.4585 20.7649L83.9766 20.2227ZM83.8262 8.3418L84.3705 8.85771L84.3722 8.85593L83.8262 8.3418ZM94.8867 8.06836L94.3662 8.60833L94.3702 8.61211L94.8867 8.06836ZM96.8008 15.6973V16.4473H97.5508V15.6973H96.8008ZM87.2441 15.6973V14.9473H86.4619L86.4948 15.7288L87.2441 15.6973ZM88.1875 17.7344L87.7082 18.3113L87.7126 18.3148L88.1875 17.7344ZM93.2188 18.2129L93.3806 18.9453L93.3868 18.9438L93.2188 18.2129ZM95.7891 17.2969H96.5391V16.1206L95.4726 16.6169L95.7891 17.2969ZM95.7891 21.1387L96.1303 21.8066L96.5391 21.5977V21.1387H95.7891ZM88.0918 10.4746L88.604 11.0225L88.6044 11.0221L88.0918 10.4746ZM87.3535 12.334L86.6063 12.2697L86.5362 13.084H87.3535V12.334ZM91.9473 12.334V13.084H92.7158L92.697 12.3157L91.9473 12.334ZM91.3047 10.543L90.7466 11.0441L90.7523 11.0503L91.3047 10.543ZM89.9922 21.5234C87.5452 21.5234 85.7477 20.8776 84.4947 19.6804L83.4585 20.7649C85.0674 22.3021 87.2803 23.0234 89.9922 23.0234V21.5234ZM84.4982 19.6838C83.2604 18.4856 82.5938 16.7481 82.5938 14.3574H81.0938C81.0938 17.0344 81.849 19.2071 83.4549 20.7616L84.4982 19.6838ZM82.5938 14.3574C82.5938 11.8629 83.2226 10.069 84.3705 8.8577L83.2818 7.82589C81.7865 9.40369 81.0938 11.6202 81.0938 14.3574H82.5938ZM84.3722 8.85593C85.5159 7.64128 87.1817 6.98633 89.4863 6.98633V5.48633C86.8873 5.48633 84.7797 6.23502 83.2801 7.82766L84.3722 8.85593ZM89.4863 6.98633C91.6906 6.98633 93.2798 7.561 94.3662 8.60831L95.4072 7.52841C93.9598 6.13301 91.9487 5.48633 89.4863 5.48633V6.98633ZM94.3702 8.61211C95.4559 9.6436 96.0508 11.1714 96.0508 13.3184H97.5508C97.5508 10.8898 96.8696 8.9176 95.4033 7.52461L94.3702 8.61211ZM96.0508 13.3184V15.6973H97.5508V13.3184H96.0508ZM96.8008 14.9473H87.2441V16.4473H96.8008V14.9473ZM86.4948 15.7288C86.5389 16.7771 86.9314 17.6659 87.7082 18.3113L88.6668 17.1575C88.2587 16.8185 88.0223 16.3492 87.9935 15.6657L86.4948 15.7288ZM87.7126 18.3148C88.4862 18.9478 89.4883 19.2227 90.6348 19.2227V17.7227C89.7213 17.7227 89.0919 17.5053 88.6624 17.1539L87.7126 18.3148ZM90.6348 19.2227C91.6191 19.2227 92.5355 19.1319 93.3805 18.9452L93.057 17.4806C92.3343 17.6402 91.5281 17.7227 90.6348 17.7227V19.2227ZM93.3868 18.9438C94.2416 18.7473 95.1485 18.4222 96.1055 17.9769L95.4726 16.6169C94.5885 17.0283 93.7818 17.3139 93.0507 17.482L93.3868 18.9438ZM95.0391 17.2969V21.1387H96.5391V17.2969H95.0391ZM95.4479 20.4708C94.6717 20.8673 93.8749 21.1392 93.0559 21.2897L93.3269 22.765C94.2943 22.5873 95.2293 22.2668 96.1303 21.8066L95.4479 20.4708ZM93.0559 21.2897C92.2202 21.4432 91.2015 21.5234 89.9922 21.5234V23.0234C91.262 23.0234 92.3762 22.9396 93.3269 22.765L93.0559 21.2897ZM89.6777 9.12305C88.8734 9.12305 88.1571 9.38608 87.5792 9.92709L88.6044 11.0221C88.8832 10.7611 89.2242 10.623 89.6777 10.623V9.12305ZM87.5796 9.92671C86.9723 10.4944 86.6876 11.3245 86.6063 12.2697L88.1008 12.3983C88.1653 11.6482 88.3727 11.2387 88.604 11.0225L87.5796 9.92671ZM87.3535 13.084H91.9473V11.584H87.3535V13.084ZM92.697 12.3157C92.6755 11.4308 92.4169 10.6452 91.8571 10.0357L90.7523 11.0503C91.0128 11.334 91.1826 11.7424 91.1975 12.3523L92.697 12.3157ZM91.8627 10.0419C91.2989 9.41403 90.5415 9.12305 89.6777 9.12305V10.623C90.1811 10.623 90.5083 10.7787 90.7467 11.0441L91.8627 10.0419ZM97.9492 6.50977V5.75977H96.8422L97.2527 6.78788L97.9492 6.50977ZM103.582 6.50977L104.301 6.2973L104.143 5.75977H103.582V6.50977ZM106.207 15.3965L106.93 15.1979L106.928 15.191L106.926 15.184L106.207 15.3965ZM106.467 17.0781L105.719 17.1301L105.767 17.8281H106.467V17.0781ZM106.576 17.0781V17.8281H107.244L107.321 17.1645L106.576 17.0781ZM106.904 15.4238L107.621 15.6444L107.622 15.6408L106.904 15.4238ZM109.598 6.50977V5.75977H109.041L108.88 6.29284L109.598 6.50977ZM115.053 6.50977L115.756 6.77112L116.132 5.75977H115.053V6.50977ZM108.928 22.9844L109.63 23.247L109.631 23.2457L108.928 22.9844ZM106.029 27.4277L105.578 26.8289L105.575 26.8306L106.029 27.4277ZM99.3711 28.4941H98.6211V29.1046L99.2188 29.2285L99.3711 28.4941ZM99.3711 24.2969L99.5367 23.5654L98.6211 23.3581V24.2969H99.3711ZM103.199 23.4082L102.615 22.9377L102.609 22.9455L103.199 23.4082ZM104.047 21.7812L104.744 22.0583L104.854 21.7807L104.743 21.5031L104.047 21.7812ZM97.9492 7.25977H103.582V5.75977H97.9492V7.25977ZM102.863 6.72223L105.488 15.6089L106.926 15.184L104.301 6.2973L102.863 6.72223ZM105.484 15.595C105.594 15.9982 105.675 16.5068 105.719 17.1301L107.215 17.0262C107.167 16.3369 107.075 15.7244 106.93 15.1979L105.484 15.595ZM106.467 17.8281H106.576V16.3281H106.467V17.8281ZM107.321 17.1645C107.39 16.5693 107.492 16.0645 107.621 15.6444L106.187 15.2033C106.025 15.7311 105.908 16.3292 105.831 16.9917L107.321 17.1645ZM107.622 15.6408L110.316 6.72669L108.88 6.29284L106.186 15.2069L107.622 15.6408ZM109.598 7.25977H115.053V5.75977H109.598V7.25977ZM114.35 6.24841L108.225 22.723L109.631 23.2457L115.756 6.77112L114.35 6.24841ZM108.225 22.7217C107.466 24.7528 106.565 26.0842 105.578 26.8289L106.481 28.0266C107.79 27.0395 108.822 25.4086 109.63 23.247L108.225 22.7217ZM105.575 26.8306C104.6 27.5721 103.283 27.9766 101.559 27.9766V29.4766C103.516 29.4766 105.18 29.0152 106.483 28.0249L105.575 26.8306ZM101.559 27.9766C100.902 27.9766 100.224 27.9051 99.5233 27.7598L99.2188 29.2285C100.013 29.3931 100.793 29.4766 101.559 29.4766V27.9766ZM100.121 28.4941V24.2969H98.6211V28.4941H100.121ZM99.2055 25.0284C99.7545 25.1527 100.363 25.2109 101.025 25.2109V23.7109C100.448 23.7109 99.9539 23.6598 99.5367 23.5654L99.2055 25.0284ZM101.025 25.2109C101.596 25.2109 102.132 25.1007 102.612 24.8549L101.927 23.5201C101.696 23.6389 101.402 23.7109 101.025 23.7109V25.2109ZM102.612 24.8549C103.071 24.6195 103.463 24.2872 103.79 23.8709L102.609 22.9455C102.407 23.2037 102.179 23.3909 101.927 23.5201L102.612 24.8549ZM103.783 23.8787C104.12 23.4604 104.436 22.8324 104.744 22.0583L103.35 21.5042C103.056 22.2431 102.807 22.6998 102.615 22.9377L103.783 23.8787ZM104.743 21.5031L98.6458 6.23165L97.2527 6.78788L103.35 22.0594L104.743 21.5031ZM133.209 22L132.488 22.2049L132.642 22.75H133.209V22ZM129.121 7.60352L129.843 7.39865L129.688 6.85352H129.121V7.60352ZM128.998 7.60352V6.85352H128.187L128.25 7.66189L128.998 7.60352ZM129.285 22V22.75H130.035V22H129.285ZM124.5 22H123.75V22.75H124.5V22ZM124.5 2.01172V1.26172H123.75V2.01172H124.5ZM131.691 2.01172L132.411 1.80028L132.253 1.26172H131.691V2.01172ZM135.861 16.2031L135.142 16.4146L135.3 16.9531H135.861V16.2031ZM135.971 16.2031V16.9531H136.535L136.691 16.4107L135.971 16.2031ZM140.059 2.01172V1.26172H139.494L139.338 1.80412L140.059 2.01172ZM147.264 2.01172H148.014V1.26172H147.264V2.01172ZM147.264 22V22.75H148.014V22H147.264ZM142.301 22H141.551V22.75H142.301V22ZM142.314 11.7188L141.565 11.6942L141.565 11.7065L142.314 11.7188ZM142.506 7.63086L143.255 7.66863L143.295 6.88086H142.506V7.63086ZM142.383 7.63086V6.88086H141.814L141.661 7.42818L142.383 7.63086ZM138.35 22V22.75H138.918L139.072 22.2027L138.35 22ZM133.93 21.7951L129.843 7.39865L128.4 7.80838L132.488 22.2049L133.93 21.7951ZM129.121 6.85352H128.998V8.35352H129.121V6.85352ZM128.25 7.66189C128.441 10.1071 128.535 11.9894 128.535 13.3184H130.035C130.035 11.9312 129.938 10.0036 129.746 7.54514L128.25 7.66189ZM128.535 13.3184V22H130.035V13.3184H128.535ZM129.285 21.25H124.5V22.75H129.285V21.25ZM125.25 22V2.01172H123.75V22H125.25ZM124.5 2.76172H131.691V1.26172H124.5V2.76172ZM130.972 2.22316L135.142 16.4146L136.581 15.9917L132.411 1.80028L130.972 2.22316ZM135.861 16.9531H135.971V15.4531H135.861V16.9531ZM136.691 16.4107L140.779 2.21932L139.338 1.80412L135.25 15.9955L136.691 16.4107ZM140.059 2.76172H147.264V1.26172H140.059V2.76172ZM146.514 2.01172V22H148.014V2.01172H146.514ZM147.264 21.25H142.301V22.75H147.264V21.25ZM143.051 22V13.2363H141.551V22H143.051ZM143.051 13.2363C143.051 12.7855 143.055 12.2838 143.064 11.731L141.565 11.7065C141.555 12.2657 141.551 12.7757 141.551 13.2363H143.051ZM143.064 11.7433C143.082 11.1954 143.145 9.84025 143.255 7.66863L141.757 7.59309C141.648 9.76001 141.583 11.1301 141.565 11.6942L143.064 11.7433ZM142.506 6.88086H142.383V8.38086H142.506V6.88086ZM141.661 7.42818L137.628 21.7973L139.072 22.2027L143.105 7.83354L141.661 7.42818ZM138.35 21.25H133.209V22.75H138.35V21.25ZM161.359 22L160.689 22.3354L160.896 22.75H161.359V22ZM160.334 19.9492L161.005 19.6138L160.798 19.1992H160.334V19.9492ZM160.225 19.9492V19.1992H159.866L159.641 19.4785L160.225 19.9492ZM151.68 20.9609L151.138 21.4799L151.68 20.9609ZM152.145 13.5918L152.574 14.2067L152.577 14.2044L152.145 13.5918ZM157.135 12.2246L157.111 11.4749L157.1 11.4754L157.135 12.2246ZM159.719 12.1426L159.743 12.8922L160.469 12.8691V12.1426H159.719ZM153.525 11.1582L152.838 11.4591L153.14 12.1471L153.827 11.8447L153.525 11.1582ZM151.98 7.63086L151.637 6.96413L151.011 7.28665L151.293 7.93175L151.98 7.63086ZM163.424 7.71289L162.92 8.26827L162.922 8.27036L163.424 7.71289ZM165.064 22V22.75H165.814V22H165.064ZM159.049 17.8848L158.553 17.3224L158.547 17.3273L159.049 17.8848ZM159.746 15.082H160.496V14.298L159.713 14.3328L159.746 15.082ZM158.516 15.1367L158.543 15.8863L158.549 15.886L158.516 15.1367ZM162.03 21.6646L161.005 19.6138L159.663 20.2846L160.689 22.3354L162.03 21.6646ZM160.334 19.1992H160.225V20.6992H160.334V19.1992ZM159.641 19.4785C158.967 20.3139 158.324 20.8303 157.722 21.0945L158.325 22.468C159.218 22.0759 160.042 21.371 160.809 20.4199L159.641 19.4785ZM157.722 21.0945C157.102 21.3665 156.249 21.5234 155.125 21.5234V23.0234C156.371 23.0234 157.45 22.8522 158.325 22.468L157.722 21.0945ZM155.125 21.5234C153.826 21.5234 152.89 21.1399 152.221 20.442L151.138 21.4799C152.146 22.5319 153.507 23.0234 155.125 23.0234V21.5234ZM152.221 20.442C151.554 19.7456 151.172 18.7237 151.172 17.2695H149.672C149.672 18.9872 150.129 20.4263 151.138 21.4799L152.221 20.442ZM151.172 17.2695C151.172 15.8149 151.664 14.8421 152.574 14.2067L151.715 12.9769C150.328 13.9456 149.672 15.4247 149.672 17.2695H151.172ZM152.577 14.2044C153.561 13.5096 155.061 13.0708 157.169 12.9738L157.1 11.4754C154.852 11.5789 153.025 12.0516 151.712 12.9792L152.577 14.2044ZM157.159 12.9742L159.743 12.8922L159.695 11.393L157.111 11.475L157.159 12.9742ZM160.469 12.1426V11.9238H158.969V12.1426H160.469ZM160.469 11.9238C160.469 11.1729 160.284 10.4714 159.781 9.96178C159.277 9.45017 158.579 9.25977 157.832 9.25977V10.7598C158.343 10.7598 158.588 10.8884 158.713 11.0148C158.84 11.1432 158.969 11.3987 158.969 11.9238H160.469ZM157.832 9.25977C156.55 9.25977 155.003 9.68896 153.223 10.4717L153.827 11.8447C155.529 11.0962 156.853 10.7598 157.832 10.7598V9.25977ZM154.212 10.8573L152.667 7.32997L151.293 7.93175L152.838 11.4591L154.212 10.8573ZM152.324 8.29759C153.991 7.43857 156.143 6.98633 158.816 6.98633V5.48633C155.985 5.48633 153.579 5.96378 151.637 6.96413L152.324 8.29759ZM158.816 6.98633C160.684 6.98633 162.016 7.44798 162.92 8.26827L163.928 7.15751C162.662 6.00906 160.923 5.48633 158.816 5.48633V6.98633ZM162.922 8.27036C163.826 9.08402 164.314 10.2395 164.314 11.8418H165.814C165.814 9.90761 165.209 8.31051 163.926 7.15542L162.922 8.27036ZM164.314 11.8418V22H165.814V11.8418H164.314ZM165.064 21.25H161.359V22.75H165.064V21.25ZM157.395 19.25C158.216 19.25 158.949 18.9837 159.551 18.4422L158.547 17.3273C158.237 17.6062 157.868 17.75 157.395 17.75V19.25ZM159.545 18.4471C160.182 17.8854 160.496 17.1423 160.496 16.2852H158.996C158.996 16.7405 158.846 17.0638 158.553 17.3224L159.545 18.4471ZM160.496 16.2852V15.082H158.996V16.2852H160.496ZM159.713 14.3328L158.482 14.3875L158.549 15.886L159.779 15.8313L159.713 14.3328ZM158.488 14.3872C157.542 14.4215 156.707 14.6135 156.092 15.0658C155.434 15.5501 155.127 16.2592 155.127 17.0781H156.627C156.627 16.6666 156.76 16.4368 156.981 16.274C157.246 16.0792 157.73 15.9157 158.543 15.8862L158.488 14.3872ZM155.127 17.0781C155.127 17.6806 155.29 18.2669 155.744 18.6918C156.188 19.1081 156.785 19.25 157.395 19.25V17.75C156.993 17.75 156.831 17.6549 156.769 17.5972C156.717 17.5482 156.627 17.4235 156.627 17.0781H155.127ZM175.893 21.8906L175.598 22.5806L175.607 22.5841L175.893 21.8906ZM174.047 20.4824L174.603 19.979L174.38 19.7324H174.047V20.4824ZM173.801 20.4824V19.7324H172.929L173.059 20.5946L173.801 20.4824ZM174.047 28.7266V29.4766H174.797V28.7266H174.047ZM168.701 28.7266H167.951V29.4766H168.701V28.7266ZM168.701 6.50977V5.75977H167.951V6.50977H168.701ZM173.049 6.50977L173.749 6.24216L173.565 5.75977H173.049V6.50977ZM173.801 8.47852L173.1 8.74612L173.284 9.22852H173.801V8.47852ZM174.047 8.47852V9.22852H174.449L174.671 8.89366L174.047 8.47852ZM182.195 8.36914L182.814 7.94492L182.195 8.36914ZM182.127 20.127L181.515 19.6932L181.515 19.694L182.127 20.127ZM174.553 11.2812L173.9 10.9125L173.898 10.9161L174.553 11.2812ZM174.047 13.7695L173.297 13.7509L173.297 13.7602V13.7695H174.047ZM177.752 17.0918L178.414 17.4437L178.417 17.4394L177.752 17.0918ZM177.752 11.3086L177.09 11.6605L177.092 11.6648L177.752 11.3086ZM177.998 21.5234C177.296 21.5234 176.693 21.4093 176.178 21.1971L175.607 22.5841C176.331 22.8824 177.133 23.0234 177.998 23.0234V21.5234ZM176.187 21.2007C175.695 20.9911 175.165 20.5998 174.603 19.979L173.491 20.9858C174.15 21.714 174.85 22.2615 175.598 22.5805L176.187 21.2007ZM174.047 19.7324H173.801V21.2324H174.047V19.7324ZM173.059 20.5946C173.227 21.7016 173.297 22.3111 173.297 22.5059H174.797C174.797 22.172 174.703 21.4325 174.542 20.3703L173.059 20.5946ZM173.297 22.5059V28.7266H174.797V22.5059H173.297ZM174.047 27.9766H168.701V29.4766H174.047V27.9766ZM169.451 28.7266V6.50977H167.951V28.7266H169.451ZM168.701 7.25977H173.049V5.75977H168.701V7.25977ZM172.348 6.77737L173.1 8.74612L174.501 8.21091L173.749 6.24216L172.348 6.77737ZM173.801 9.22852H174.047V7.72852H173.801V9.22852ZM174.671 8.89366C175.53 7.60158 176.671 6.98633 178.162 6.98633V5.48633C176.153 5.48633 174.55 6.36587 173.422 8.06337L174.671 8.89366ZM178.162 6.98633C179.627 6.98633 180.74 7.57387 181.577 8.79336L182.814 7.94492C181.7 6.32066 180.125 5.48633 178.162 5.48633V6.98633ZM181.577 8.79336C182.436 10.0467 182.908 11.8296 182.908 14.2207H184.408C184.408 11.6535 183.905 9.53537 182.814 7.94492L181.577 8.79336ZM182.908 14.2207C182.908 16.625 182.416 18.4226 181.515 19.6932L182.739 20.5607C183.88 18.951 184.408 16.8112 184.408 14.2207H182.908ZM181.515 19.694C180.642 20.9277 179.493 21.5234 177.998 21.5234V23.0234C179.984 23.0234 181.588 22.1881 182.739 20.5599L181.515 19.694ZM176.207 9.68359C175.219 9.68359 174.381 10.0591 173.9 10.9126L175.206 11.6499C175.362 11.3732 175.627 11.1836 176.207 11.1836V9.68359ZM173.898 10.9161C173.5 11.6297 173.326 12.6037 173.297 13.7509L174.797 13.7881C174.823 12.7296 174.986 12.0448 175.208 11.6464L173.898 10.9161ZM173.297 13.7695V14.1934H174.797V13.7695H173.297ZM173.297 14.1934C173.297 15.5551 173.472 16.6896 173.937 17.464L175.223 16.6923C174.977 16.2818 174.797 15.4931 174.797 14.1934H173.297ZM173.937 17.464C174.445 18.3102 175.267 18.7168 176.262 18.7168V17.2168C175.725 17.2168 175.426 17.0309 175.223 16.6923L173.937 17.464ZM176.262 18.7168C176.712 18.7168 177.143 18.6199 177.527 18.3948C177.911 18.1689 178.204 17.8395 178.414 17.4437L177.09 16.7399C176.99 16.9274 176.879 17.0355 176.767 17.1013C176.654 17.1679 176.495 17.2168 176.262 17.2168V18.7168ZM178.417 17.4394C178.816 16.6766 178.967 15.5448 178.967 14.166H177.467C177.467 15.5034 177.308 16.3221 177.087 16.7442L178.417 17.4394ZM178.967 14.166C178.967 12.8149 178.816 11.7008 178.412 10.9524L177.092 11.6648C177.308 12.0648 177.467 12.8557 177.467 14.166H178.967ZM178.414 10.9567C178.2 10.5541 177.899 10.2239 177.503 9.99974C177.111 9.77759 176.669 9.68359 176.207 9.68359V11.1836C176.465 11.1836 176.641 11.2354 176.764 11.3049C176.883 11.3724 176.994 11.4797 177.09 11.6605L178.414 10.9567ZM193.912 21.8906L193.618 22.5806L193.627 22.5841L193.912 21.8906ZM192.066 20.4824L192.622 19.979L192.399 19.7324H192.066V20.4824ZM191.82 20.4824V19.7324H190.948L191.079 20.5946L191.82 20.4824ZM192.066 28.7266V29.4766H192.816V28.7266H192.066ZM186.721 28.7266H185.971V29.4766H186.721V28.7266ZM186.721 6.50977V5.75977H185.971V6.50977H186.721ZM191.068 6.50977L191.769 6.24216L191.585 5.75977H191.068V6.50977ZM191.82 8.47852L191.12 8.74612L191.304 9.22852H191.82V8.47852ZM192.066 8.47852V9.22852H192.468L192.691 8.89366L192.066 8.47852ZM200.215 8.36914L200.833 7.94492L200.215 8.36914ZM200.146 20.127L199.535 19.6932L199.534 19.694L200.146 20.127ZM192.572 11.2812L191.919 10.9125L191.917 10.9161L192.572 11.2812ZM192.066 13.7695L191.317 13.7509L191.316 13.7602V13.7695H192.066ZM195.771 17.0918L196.434 17.4437L196.436 17.4394L195.771 17.0918ZM195.771 11.3086L195.109 11.6605L195.111 11.6648L195.771 11.3086ZM196.018 21.5234C195.315 21.5234 194.713 21.4093 194.198 21.1971L193.627 22.5841C194.351 22.8824 195.152 23.0234 196.018 23.0234V21.5234ZM194.206 21.2007C193.715 20.9911 193.184 20.5998 192.622 19.979L191.51 20.9858C192.17 21.714 192.87 22.2615 193.618 22.5805L194.206 21.2007ZM192.066 19.7324H191.82V21.2324H192.066V19.7324ZM191.079 20.5946C191.246 21.7016 191.316 22.3111 191.316 22.5059H192.816C192.816 22.172 192.723 21.4325 192.562 20.3703L191.079 20.5946ZM191.316 22.5059V28.7266H192.816V22.5059H191.316ZM192.066 27.9766H186.721V29.4766H192.066V27.9766ZM187.471 28.7266V6.50977H185.971V28.7266H187.471ZM186.721 7.25977H191.068V5.75977H186.721V7.25977ZM190.368 6.77737L191.12 8.74612L192.521 8.21091L191.769 6.24216L190.368 6.77737ZM191.82 9.22852H192.066V7.72852H191.82V9.22852ZM192.691 8.89366C193.55 7.60158 194.69 6.98633 196.182 6.98633V5.48633C194.173 5.48633 192.57 6.36587 191.442 8.06337L192.691 8.89366ZM196.182 6.98633C197.646 6.98633 198.76 7.57387 199.596 8.79336L200.833 7.94492C199.719 6.32066 198.144 5.48633 196.182 5.48633V6.98633ZM199.596 8.79336C200.456 10.0467 200.928 11.8296 200.928 14.2207H202.428C202.428 11.6535 201.924 9.53537 200.833 7.94492L199.596 8.79336ZM200.928 14.2207C200.928 16.625 200.435 18.4226 199.535 19.6932L200.758 20.5607C201.899 18.951 202.428 16.8112 202.428 14.2207H200.928ZM199.534 19.694C198.662 20.9277 197.513 21.5234 196.018 21.5234V23.0234C198.004 23.0234 199.608 22.1881 200.759 20.5599L199.534 19.694ZM194.227 9.68359C193.239 9.68359 192.401 10.0591 191.919 10.9126L193.225 11.6499C193.382 11.3732 193.647 11.1836 194.227 11.1836V9.68359ZM191.917 10.9161C191.519 11.6297 191.345 12.6037 191.317 13.7509L192.816 13.7881C192.842 12.7296 193.005 12.0448 193.227 11.6464L191.917 10.9161ZM191.316 13.7695V14.1934H192.816V13.7695H191.316ZM191.316 14.1934C191.316 15.5551 191.492 16.6896 191.956 17.464L193.243 16.6923C192.996 16.2818 192.816 15.4931 192.816 14.1934H191.316ZM191.956 17.464C192.464 18.3102 193.286 18.7168 194.281 18.7168V17.2168C193.745 17.2168 193.446 17.0309 193.243 16.6923L191.956 17.464ZM194.281 18.7168C194.731 18.7168 195.163 18.6199 195.546 18.3948C195.931 18.1689 196.224 17.8395 196.434 17.4437L195.109 16.7399C195.01 16.9274 194.899 17.0355 194.787 17.1013C194.673 17.1679 194.515 17.2168 194.281 17.2168V18.7168ZM196.436 17.4394C196.835 16.6766 196.986 15.5448 196.986 14.166H195.486C195.486 15.5034 195.328 16.3221 195.107 16.7442L196.436 17.4394ZM196.986 14.166C196.986 12.8149 196.835 11.7008 196.432 10.9524L195.111 11.6648C195.327 12.0648 195.486 12.8557 195.486 14.166H196.986ZM196.434 10.9567C196.22 10.5541 195.918 10.2239 195.522 9.99974C195.13 9.77759 194.688 9.68359 194.227 9.68359V11.1836C194.485 11.1836 194.66 11.2354 194.783 11.3049C194.902 11.3724 195.013 11.4797 195.109 11.6605L196.434 10.9567ZM210.113 22V22.75H210.863V22H210.113ZM204.768 22H204.018V22.75H204.768V22ZM204.768 6.50977V5.75977H204.018V6.50977H204.768ZM210.113 6.50977H210.863V5.75977H210.113V6.50977ZM209.635 0.876953L209.139 1.43999L209.635 0.876953ZM210.113 21.25H204.768V22.75H210.113V21.25ZM205.518 22V6.50977H204.018V22H205.518ZM204.768 7.25977H210.113V5.75977H204.768V7.25977ZM209.363 6.50977V22H210.863V6.50977H209.363ZM205.381 2.6543C205.381 1.98876 205.563 1.63143 205.795 1.427L204.806 0.299562C204.146 0.878983 203.881 1.71567 203.881 2.6543H205.381ZM205.795 1.427C206.039 1.21326 206.536 1.02539 207.461 1.02539V-0.474609C206.399 -0.474609 205.456 -0.270549 204.806 0.299562L205.795 1.427ZM207.461 1.02539C208.381 1.02539 208.885 1.21579 209.139 1.43999L210.13 0.313918C209.474 -0.263967 208.528 -0.474609 207.461 -0.474609V1.02539ZM209.139 1.43999C209.389 1.65969 209.568 2.01902 209.568 2.6543H211.068C211.068 1.72186 210.792 0.896296 210.13 0.313918L209.139 1.43999ZM209.568 2.6543C209.568 3.27984 209.385 3.62656 209.127 3.83886C208.841 4.07419 208.329 4.25586 207.461 4.25586V5.75586C208.497 5.75586 209.414 5.5456 210.081 4.99708C210.775 4.42552 211.068 3.59646 211.068 2.6543H209.568ZM207.461 4.25586C206.603 4.25586 206.099 4.07474 205.818 3.84112C205.563 3.6296 205.381 3.28223 205.381 2.6543H203.881C203.881 3.59407 204.17 4.42248 204.859 4.99482C205.521 5.54505 206.432 5.75586 207.461 5.75586V4.25586ZM223.621 22H222.871V22.75H223.621V22ZM223.17 11.2266L222.513 11.5889L222.517 11.5956L222.521 11.6023L223.17 11.2266ZM219.793 11.5137L219.138 11.1487L219.793 11.5137ZM219.191 22V22.75H219.941V22H219.191ZM213.846 22H213.096V22.75H213.846V22ZM213.846 6.50977V5.75977H213.096V6.50977H213.846ZM217.879 6.50977L218.587 6.262L218.411 5.75977H217.879V6.50977ZM218.549 8.42383L217.841 8.67159L218.017 9.17383H218.549V8.42383ZM218.863 8.42383V9.17383H219.279L219.499 8.82133L218.863 8.42383ZM220.75 6.7832L220.443 6.09911L220.44 6.10043L220.75 6.7832ZM227.531 7.72656L226.989 8.24431L226.991 8.24689L227.531 7.72656ZM228.967 22V22.75H229.717V22H228.967ZM224.371 22V13.5508H222.871V22H224.371ZM224.371 13.5508C224.371 12.4716 224.218 11.5395 223.819 10.8508L222.521 11.6023C222.724 11.9527 222.871 12.5701 222.871 13.5508H224.371ZM223.827 10.8643C223.389 10.072 222.648 9.68359 221.748 9.68359V11.1836C222.16 11.1836 222.367 11.3239 222.513 11.5889L223.827 10.8643ZM221.748 9.68359C220.605 9.68359 219.686 10.1646 219.138 11.1487L220.448 11.8786C220.702 11.4226 221.086 11.1836 221.748 11.1836V9.68359ZM219.138 11.1487C218.636 12.0493 218.441 13.4543 218.441 15.2188H219.941C219.941 13.4832 220.148 12.4182 220.448 11.8786L219.138 11.1487ZM218.441 15.2188V22H219.941V15.2188H218.441ZM219.191 21.25H213.846V22.75H219.191V21.25ZM214.596 22V6.50977H213.096V22H214.596ZM213.846 7.25977H217.879V5.75977H213.846V7.25977ZM217.171 6.75753L217.841 8.67159L219.257 8.17607L218.587 6.262L217.171 6.75753ZM218.549 9.17383H218.863V7.67383H218.549V9.17383ZM219.499 8.82133C219.875 8.22042 220.389 7.77114 221.06 7.46598L220.44 6.10043C219.507 6.52443 218.763 7.1689 218.227 8.02633L219.499 8.82133ZM221.057 7.46729C221.756 7.15322 222.578 6.98633 223.539 6.98633V5.48633C222.404 5.48633 221.366 5.68402 220.443 6.09912L221.057 7.46729ZM223.539 6.98633C225.102 6.98633 226.216 7.4342 226.989 8.2443L228.074 7.20882C226.951 6.03194 225.404 5.48633 223.539 5.48633V6.98633ZM226.991 8.24689C227.776 9.06164 228.217 10.2513 228.217 11.9238H229.717C229.717 9.98694 229.201 8.37846 228.071 7.20624L226.991 8.24689ZM228.217 11.9238V22H229.717V11.9238H228.217ZM228.967 21.25H223.621V22.75H228.967V21.25ZM247.219 6.50977H247.969V5.75977H247.219V6.50977ZM247.219 9.09375L247.478 9.79766L247.969 9.61705V9.09375H247.219ZM245.1 9.87305L244.841 9.16913L244.021 9.47059L244.443 10.2354L245.1 9.87305ZM243.773 15.6016L243.311 15.011L243.309 15.0128L243.773 15.6016ZM237.17 16.873L237.328 16.14L236.777 16.0208L236.51 16.5175L237.17 16.873ZM237.621 18.1582L237.379 18.8682L237.386 18.8705L237.393 18.8727L237.621 18.1582ZM244.662 27.1543L244.253 26.5254L244.252 26.5264L244.662 27.1543ZM232.809 27.6191L233.203 26.9812L233.202 26.9804L232.809 27.6191ZM234.477 20.8789L234.648 21.6092L236.888 21.0847L234.769 20.1882L234.477 20.8789ZM233.232 19.9082L232.64 20.3679L232.646 20.3753L233.232 19.9082ZM233.109 17.3105L233.717 17.7508L233.722 17.7436L233.109 17.3105ZM234.764 15.9844L235.154 16.625L236.378 15.8796L235.068 15.2987L234.764 15.9844ZM232.863 14.3164L232.221 14.7034L232.224 14.709L232.863 14.3164ZM241.818 6.50977L241.695 7.24956L241.756 7.25977H241.818V6.50977ZM236.254 24.9805L236.629 24.3308L236.619 24.3254L236.254 24.9805ZM241.258 24.8984L240.975 24.2037L240.965 24.2078L241.258 24.8984ZM241.723 22.7793L241.98 22.0747L241.968 22.0706L241.723 22.7793ZM236.131 22.9297L235.718 22.3035L235.71 22.3089L235.702 22.3146L236.131 22.9297ZM240.055 13.373L239.446 12.9344L239.44 12.9439L240.055 13.373ZM246.469 6.50977V9.09375H247.969V6.50977H246.469ZM246.96 8.38984L244.841 9.16913L245.358 10.577L247.478 9.79766L246.96 8.38984ZM244.443 10.2354C244.664 10.6362 244.787 11.1229 244.787 11.7188H246.287C246.287 10.9109 246.118 10.1672 245.756 9.51074L244.443 10.2354ZM244.787 11.7188C244.787 13.1869 244.282 14.2506 243.311 15.011L244.236 16.1921C245.616 15.1114 246.287 13.5866 246.287 11.7188H244.787ZM243.309 15.0128C242.331 15.7845 240.782 16.2324 238.537 16.2324V17.7324C240.941 17.7324 242.883 17.2598 244.238 16.1903L243.309 15.0128ZM238.537 16.2324C237.986 16.2324 237.591 16.1967 237.328 16.14L237.011 17.6061C237.424 17.6952 237.94 17.7324 238.537 17.7324V16.2324ZM236.51 16.5175C236.339 16.8335 236.229 17.1789 236.229 17.543H237.729C237.729 17.4877 237.745 17.3865 237.83 17.2286L236.51 16.5175ZM236.229 17.543C236.229 18.326 236.89 18.7016 237.379 18.8682L237.863 17.4482C237.787 17.4225 237.734 17.3986 237.699 17.3795C237.664 17.3602 237.654 17.3497 237.658 17.3533C237.663 17.358 237.683 17.379 237.701 17.4188C237.72 17.4603 237.729 17.5043 237.729 17.543H236.229ZM237.393 18.8727C237.924 19.042 238.57 19.1133 239.303 19.1133V17.6133C238.65 17.6133 238.175 17.5478 237.849 17.4437L237.393 18.8727ZM239.303 19.1133H241.873V17.6133H239.303V19.1133ZM241.873 19.1133C243.522 19.1133 244.619 19.4633 245.297 20.034C245.949 20.584 246.332 21.4416 246.332 22.752H247.832C247.832 21.1365 247.347 19.7998 246.263 18.8869C245.204 17.9947 243.697 17.6133 241.873 17.6133V19.1133ZM246.332 22.752C246.332 24.3788 245.659 25.6122 244.253 26.5254L245.071 27.7832C246.892 26.6 247.832 24.8986 247.832 22.752H246.332ZM244.252 26.5264C242.818 27.4636 240.727 27.9766 237.895 27.9766V29.4766C240.878 29.4766 243.298 28.9413 245.072 27.7822L244.252 26.5264ZM237.895 27.9766C235.765 27.9766 234.229 27.6158 233.203 26.9812L232.414 28.257C233.776 29.099 235.631 29.4766 237.895 29.4766V27.9766ZM233.202 26.9804C232.236 26.3859 231.781 25.5733 231.781 24.4609H230.281C230.281 26.1011 231.012 27.394 232.416 28.2579L233.202 26.9804ZM231.781 24.4609C231.781 23.705 232.009 23.1381 232.433 22.6976C232.873 22.2404 233.583 21.8584 234.648 21.6092L234.306 20.1487C233.073 20.4372 232.061 20.9211 231.352 21.6578C230.627 22.4113 230.281 23.3666 230.281 24.4609H231.781ZM234.769 20.1882C234.422 20.0416 234.105 19.8007 233.819 19.4411L232.646 20.3753C233.07 20.909 233.583 21.3152 234.184 21.5696L234.769 20.1882ZM233.825 19.4486C233.551 19.0948 233.463 18.81 233.463 18.582H231.963C231.963 19.229 232.221 19.8284 232.64 20.3678L233.825 19.4486ZM233.463 18.582C233.463 18.2449 233.552 17.9778 233.717 17.7508L232.502 16.8703C232.138 17.3724 231.963 17.953 231.963 18.582H233.463ZM233.722 17.7436C233.891 17.5049 234.325 17.1293 235.154 16.625L234.374 15.3437C233.525 15.8602 232.857 16.3688 232.497 16.8774L233.722 17.7436ZM235.068 15.2987C234.406 15.0055 233.889 14.5526 233.502 13.9238L232.224 14.709C232.768 15.5932 233.517 16.2523 234.46 16.6701L235.068 15.2987ZM233.506 13.9294C233.135 13.3137 232.93 12.534 232.93 11.5547H231.43C231.43 12.7447 231.68 13.8061 232.221 14.7034L233.506 13.9294ZM232.93 11.5547C232.93 10.0588 233.428 8.97988 234.374 8.21379L233.43 7.04793C232.08 8.14121 231.43 9.67816 231.43 11.5547H232.93ZM234.374 8.21379C235.341 7.43111 236.789 6.98633 238.824 6.98633V5.48633C236.594 5.48633 234.76 5.97123 233.43 7.04793L234.374 8.21379ZM238.824 6.98633C239.068 6.98633 239.525 7.01502 240.218 7.07887L240.356 5.58519C239.664 5.52144 239.145 5.48633 238.824 5.48633V6.98633ZM240.218 7.07887C240.908 7.14239 241.396 7.19964 241.695 7.24956L241.942 5.76997C241.585 5.71052 241.052 5.64928 240.356 5.58519L240.218 7.07887ZM241.818 7.25977H247.219V5.75977H241.818V7.25977ZM234.793 23.9277C234.793 24.7062 235.244 25.2761 235.889 25.6355L236.619 24.3254C236.316 24.1561 236.293 24.0243 236.293 23.9277H234.793ZM235.879 25.6301C236.507 25.9923 237.285 26.1406 238.154 26.1406V24.6406C237.437 24.6406 236.949 24.5155 236.629 24.3308L235.879 25.6301ZM238.154 26.1406C239.501 26.1406 240.647 25.9717 241.55 25.5891L240.965 24.2078C240.319 24.4815 239.397 24.6406 238.154 24.6406V26.1406ZM241.541 25.5931C242.401 25.2429 243.184 24.6434 243.184 23.6543H241.684C241.684 23.6948 241.676 23.7471 241.595 23.833C241.499 23.9341 241.312 24.0668 240.975 24.2038L241.541 25.5931ZM243.184 23.6543C243.184 23.2938 243.075 22.947 242.838 22.655C242.61 22.374 242.302 22.1925 241.98 22.0748L241.465 23.4837C241.617 23.5393 241.665 23.5902 241.674 23.6009C241.677 23.6054 241.678 23.6071 241.679 23.6088C241.679 23.6114 241.684 23.6246 241.684 23.6543H243.184ZM241.968 22.0706C241.377 21.8659 240.6 21.7832 239.686 21.7832V23.2832C240.54 23.2832 241.121 23.3646 241.477 23.488L241.968 22.0706ZM239.686 21.7832H237.594V23.2832H239.686V21.7832ZM237.594 21.7832C236.902 21.7832 236.264 21.9437 235.718 22.3035L236.544 23.5559C236.8 23.387 237.137 23.2832 237.594 23.2832V21.7832ZM235.702 22.3146C235.159 22.6934 234.793 23.2355 234.793 23.9277H236.293C236.293 23.8362 236.319 23.7128 236.56 23.5448L235.702 22.3146ZM236.475 11.582C236.475 12.4388 236.619 13.2148 237.022 13.7944C237.46 14.4235 238.122 14.7109 238.879 14.7109V13.2109C238.533 13.2109 238.368 13.1019 238.254 12.938C238.106 12.7246 237.975 12.3112 237.975 11.582H236.475ZM238.879 14.7109C239.615 14.7109 240.245 14.4108 240.67 13.8022L239.44 12.9439C239.317 13.1192 239.164 13.2109 238.879 13.2109V14.7109ZM240.663 13.8116C241.079 13.2346 241.229 12.4609 241.229 11.6094H239.729C239.729 12.3256 239.595 12.7276 239.446 12.9344L240.663 13.8116ZM241.229 11.6094C241.229 10.7479 241.09 9.97082 240.703 9.38948C240.281 8.75421 239.632 8.45312 238.879 8.45312V9.95312C239.193 9.95312 239.343 10.0531 239.454 10.2199C239.601 10.4406 239.729 10.8667 239.729 11.6094H241.229ZM238.879 8.45312C238.122 8.45312 237.46 8.74059 237.022 9.36966C236.619 9.94926 236.475 10.7252 236.475 11.582H237.975C237.975 10.8529 238.106 10.4394 238.254 10.226C238.368 10.0621 238.533 9.95312 238.879 9.95312V8.45312Z" fill="#7B838D"/>
</svg>
