<svg width="267" height="29" viewBox="0 0 267 29" fill="none" xmlns="http://www.w3.org/2000/svg">
<path d="M0.433594 22H-0.316406V22.75H0.433594V22ZM0.433594 2.01172V1.26172H-0.316406V2.01172H0.433594ZM5.83398 2.01172H6.58398V1.26172H5.83398V2.01172ZM5.83398 17.6387H5.08398V18.3887H5.83398V17.6387ZM13.5312 17.6387H14.2812V16.8887H13.5312V17.6387ZM13.5312 22V22.75H14.2812V22H13.5312ZM1.18359 22V2.01172H-0.316406V22H1.18359ZM0.433594 2.76172H5.83398V1.26172H0.433594V2.76172ZM5.08398 2.01172V17.6387H6.58398V2.01172H5.08398ZM5.83398 18.3887H13.5312V16.8887H5.83398V18.3887ZM12.7812 17.6387V22H14.2812V17.6387H12.7812ZM13.5312 21.25H0.433594V22.75H13.5312V21.25ZM17.8789 20.2227L17.3573 20.7616L17.3608 20.7649L17.8789 20.2227ZM17.7285 8.3418L18.2729 8.85771L18.2746 8.85593L17.7285 8.3418ZM28.7891 8.06836L28.2685 8.60833L28.2725 8.61211L28.7891 8.06836ZM30.7031 15.6973V16.4473H31.4531V15.6973H30.7031ZM21.1465 15.6973V14.9473H20.3642L20.3971 15.7288L21.1465 15.6973ZM22.0898 17.7344L21.6106 18.3113L21.6149 18.3148L22.0898 17.7344ZM27.1211 18.2129L27.2829 18.9453L27.2891 18.9438L27.1211 18.2129ZM29.6914 17.2969H30.4414V16.1206L29.375 16.6169L29.6914 17.2969ZM29.6914 21.1387L30.0326 21.8066L30.4414 21.5977V21.1387H29.6914ZM21.9941 10.4746L22.5063 11.0225L22.5067 11.0221L21.9941 10.4746ZM21.2559 12.334L20.5086 12.2697L20.4386 13.084H21.2559V12.334ZM25.8496 12.334V13.084H26.6181L26.5994 12.3157L25.8496 12.334ZM25.207 10.543L24.649 11.0441L24.6546 11.0503L25.207 10.543ZM23.8945 21.5234C21.4476 21.5234 19.6501 20.8776 18.397 19.6804L17.3608 20.7649C18.9697 22.3021 21.1826 23.0234 23.8945 23.0234V21.5234ZM18.4005 19.6838C17.1627 18.4856 16.4961 16.7481 16.4961 14.3574H14.9961C14.9961 17.0344 15.7513 19.2071 17.3573 20.7616L18.4005 19.6838ZM16.4961 14.3574C16.4961 11.8629 17.125 10.069 18.2729 8.8577L17.1841 7.82589C15.6888 9.40369 14.9961 11.6202 14.9961 14.3574H16.4961ZM18.2746 8.85593C19.4182 7.64128 21.084 6.98633 23.3887 6.98633V5.48633C20.7897 5.48633 18.682 6.23502 17.1825 7.82766L18.2746 8.85593ZM23.3887 6.98633C25.593 6.98633 27.1821 7.561 28.2685 8.60831L29.3096 7.52841C27.8621 6.13301 25.851 5.48633 23.3887 5.48633V6.98633ZM28.2725 8.61211C29.3583 9.6436 29.9531 11.1714 29.9531 13.3184H31.4531C31.4531 10.8898 30.7719 8.9176 29.3056 7.52461L28.2725 8.61211ZM29.9531 13.3184V15.6973H31.4531V13.3184H29.9531ZM30.7031 14.9473H21.1465V16.4473H30.7031V14.9473ZM20.3971 15.7288C20.4413 16.7771 20.8337 17.6659 21.6106 18.3113L22.5691 17.1575C22.1611 16.8185 21.9246 16.3492 21.8958 15.6657L20.3971 15.7288ZM21.6149 18.3148C22.3886 18.9478 23.3907 19.2227 24.5371 19.2227V17.7227C23.6237 17.7227 22.9942 17.5053 22.5648 17.1539L21.6149 18.3148ZM24.5371 19.2227C25.5214 19.2227 26.4379 19.1319 27.2829 18.9452L26.9593 17.4806C26.2366 17.6402 25.4304 17.7227 24.5371 17.7227V19.2227ZM27.2891 18.9438C28.1439 18.7473 29.0509 18.4222 30.0078 17.9769L29.375 16.6169C28.4908 17.0283 27.6842 17.3139 26.9531 17.482L27.2891 18.9438ZM28.9414 17.2969V21.1387H30.4414V17.2969H28.9414ZM29.3502 20.4708C28.5741 20.8673 27.7773 21.1392 26.9583 21.2897L27.2292 22.765C28.1967 22.5873 29.1317 22.2668 30.0326 21.8066L29.3502 20.4708ZM26.9583 21.2897C26.1225 21.4432 25.1039 21.5234 23.8945 21.5234V23.0234C25.1644 23.0234 26.2785 22.9396 27.2292 22.765L26.9583 21.2897ZM23.5801 9.12305C22.7758 9.12305 22.0595 9.38608 21.4816 9.92709L22.5067 11.0221C22.7856 10.7611 23.1266 10.623 23.5801 10.623V9.12305ZM21.482 9.92671C20.8747 10.4944 20.5899 11.3245 20.5086 12.2697L22.0031 12.3983C22.0676 11.6482 22.2751 11.2387 22.5063 11.0225L21.482 9.92671ZM21.2559 13.084H25.8496V11.584H21.2559V13.084ZM26.5994 12.3157C26.5778 11.4308 26.3192 10.6452 25.7594 10.0357L24.6546 11.0503C24.9152 11.334 25.085 11.7424 25.0998 12.3523L26.5994 12.3157ZM25.7651 10.0419C25.2013 9.41403 24.4439 9.12305 23.5801 9.12305V10.623C24.0835 10.623 24.4107 10.7787 24.649 11.0441L25.7651 10.0419ZM43.8281 22L43.1573 22.3354L43.3646 22.75H43.8281V22ZM42.8027 19.9492L43.4736 19.6138L43.2663 19.1992H42.8027V19.9492ZM42.6934 19.9492V19.1992H42.3346L42.1095 19.4785L42.6934 19.9492ZM34.1484 20.9609L33.6069 21.4799L34.1484 20.9609ZM34.6133 13.5918L35.0427 14.2067L35.046 14.2044L34.6133 13.5918ZM39.6035 12.2246L39.5797 11.4749L39.569 11.4754L39.6035 12.2246ZM42.1875 12.1426L42.2113 12.8922L42.9375 12.8691V12.1426H42.1875ZM35.9941 11.1582L35.3071 11.4591L35.6085 12.1471L36.2961 11.8447L35.9941 11.1582ZM34.4492 7.63086L34.1058 6.96413L33.4797 7.28665L33.7622 7.93175L34.4492 7.63086ZM45.8926 7.71289L45.3885 8.26827L45.3909 8.27036L45.8926 7.71289ZM47.5332 22V22.75H48.2832V22H47.5332ZM41.5176 17.8848L41.0213 17.3224L41.0159 17.3273L41.5176 17.8848ZM42.2148 15.082H42.9648V14.298L42.1815 14.3328L42.2148 15.082ZM40.9844 15.1367L41.0116 15.8863L41.0177 15.886L40.9844 15.1367ZM44.4989 21.6646L43.4736 19.6138L42.1319 20.2846L43.1573 22.3354L44.4989 21.6646ZM42.8027 19.1992H42.6934V20.6992H42.8027V19.1992ZM42.1095 19.4785C41.4361 20.3139 40.7925 20.8303 40.1907 21.0945L40.7937 22.468C41.6866 22.0759 42.5105 21.371 43.2773 20.4199L42.1095 19.4785ZM40.1907 21.0945C39.5711 21.3665 38.718 21.5234 37.5938 21.5234V23.0234C38.8393 23.0234 39.9184 22.8522 40.7937 22.468L40.1907 21.0945ZM37.5938 21.5234C36.2951 21.5234 35.3588 21.1399 34.6899 20.442L33.6069 21.4799C34.6152 22.5319 35.9757 23.0234 37.5938 23.0234V21.5234ZM34.6899 20.442C34.0225 19.7456 33.6406 18.7237 33.6406 17.2695H32.1406C32.1406 18.9872 32.5973 20.4263 33.6069 21.4799L34.6899 20.442ZM33.6406 17.2695C33.6406 15.8149 34.1329 14.8421 35.0427 14.2067L34.1838 12.9769C32.7968 13.9456 32.1406 15.4247 32.1406 17.2695H33.6406ZM35.046 14.2044C36.0296 13.5096 37.53 13.0708 39.638 12.9738L39.569 11.4754C37.3203 11.5789 35.4938 12.0516 34.1806 12.9792L35.046 14.2044ZM39.6273 12.9742L42.2113 12.8922L42.1637 11.393L39.5797 11.475L39.6273 12.9742ZM42.9375 12.1426V11.9238H41.4375V12.1426H42.9375ZM42.9375 11.9238C42.9375 11.1729 42.7523 10.4714 42.25 9.96178C41.7456 9.45017 41.048 9.25977 40.3008 9.25977V10.7598C40.8113 10.7598 41.0571 10.8884 41.1817 11.0148C41.3083 11.1432 41.4375 11.3987 41.4375 11.9238H42.9375ZM40.3008 9.25977C39.019 9.25977 37.4719 9.68896 35.6922 10.4717L36.2961 11.8447C37.9981 11.0962 39.3222 10.7598 40.3008 10.7598V9.25977ZM36.6811 10.8573L35.1362 7.32997L33.7622 7.93175L35.3071 11.4591L36.6811 10.8573ZM34.7927 8.29759C36.4602 7.43857 38.6115 6.98633 41.2852 6.98633V5.48633C38.4536 5.48633 36.0476 5.96378 34.1058 6.96413L34.7927 8.29759ZM41.2852 6.98633C43.153 6.98633 44.4847 7.44798 45.3885 8.26827L46.3966 7.15751C45.1312 6.00906 43.3913 5.48633 41.2852 5.48633V6.98633ZM45.3909 8.27036C46.2949 9.08402 46.7832 10.2395 46.7832 11.8418H48.2832C48.2832 9.90761 47.6777 8.31051 46.3943 7.15542L45.3909 8.27036ZM46.7832 11.8418V22H48.2832V11.8418H46.7832ZM47.5332 21.25H43.8281V22.75H47.5332V21.25ZM39.8633 19.25C40.6845 19.25 41.4177 18.9837 42.0193 18.4422L41.0159 17.3273C40.706 17.6062 40.3364 17.75 39.8633 17.75V19.25ZM42.0138 18.4471C42.6504 17.8854 42.9648 17.1423 42.9648 16.2852H41.4648C41.4648 16.7405 41.3144 17.0638 41.0214 17.3224L42.0138 18.4471ZM42.9648 16.2852V15.082H41.4648V16.2852H42.9648ZM42.1815 14.3328L40.9511 14.3875L41.0177 15.886L42.2481 15.8313L42.1815 14.3328ZM40.9572 14.3872C40.0112 14.4215 39.1756 14.6135 38.5609 15.0658C37.9026 15.5501 37.5957 16.2592 37.5957 17.0781H39.0957C39.0957 16.6666 39.2286 16.4368 39.4498 16.274C39.7147 16.0792 40.1984 15.9157 41.0116 15.8862L40.9572 14.3872ZM37.5957 17.0781C37.5957 17.6806 37.7588 18.2669 38.2123 18.6918C38.6566 19.1081 39.2535 19.25 39.8633 19.25V17.75C39.4613 17.75 39.2994 17.6549 39.2379 17.5972C39.1855 17.5482 39.0957 17.4235 39.0957 17.0781H37.5957ZM60.9453 22H60.1953V22.75H60.9453V22ZM60.4941 11.2266L59.8375 11.5889L59.8412 11.5956L59.8451 11.6023L60.4941 11.2266ZM57.1172 11.5137L56.462 11.1487L57.1172 11.5137ZM56.5156 22V22.75H57.2656V22H56.5156ZM51.1699 22H50.4199V22.75H51.1699V22ZM51.1699 6.50977V5.75977H50.4199V6.50977H51.1699ZM55.2031 6.50977L55.911 6.262L55.7352 5.75977H55.2031V6.50977ZM55.873 8.42383L55.1652 8.67159L55.3409 9.17383H55.873V8.42383ZM56.1875 8.42383V9.17383H56.6032L56.8235 8.82133L56.1875 8.42383ZM58.0742 6.7832L57.7668 6.09911L57.7639 6.10043L58.0742 6.7832ZM64.8555 7.72656L64.3128 8.24431L64.3153 8.24689L64.8555 7.72656ZM66.291 22V22.75H67.041V22H66.291ZM61.6953 22V13.5508H60.1953V22H61.6953ZM61.6953 13.5508C61.6953 12.4716 61.5419 11.5395 61.1432 10.8508L59.8451 11.6023C60.0479 11.9527 60.1953 12.5701 60.1953 13.5508H61.6953ZM61.1508 10.8643C60.7137 10.072 59.9725 9.68359 59.0723 9.68359V11.1836C59.4845 11.1836 59.6913 11.3239 59.8375 11.5889L61.1508 10.8643ZM59.0723 9.68359C57.9294 9.68359 57.0101 10.1646 56.462 11.1487L57.7724 11.8786C58.0264 11.4226 58.4105 11.1836 59.0723 11.1836V9.68359ZM56.462 11.1487C55.9604 12.0493 55.7656 13.4543 55.7656 15.2188H57.2656C57.2656 13.4832 57.4719 12.4182 57.7724 11.8786L56.462 11.1487ZM55.7656 15.2188V22H57.2656V15.2188H55.7656ZM56.5156 21.25H51.1699V22.75H56.5156V21.25ZM51.9199 22V6.50977H50.4199V22H51.9199ZM51.1699 7.25977H55.2031V5.75977H51.1699V7.25977ZM54.4952 6.75753L55.1652 8.67159L56.5809 8.17607L55.911 6.262L54.4952 6.75753ZM55.873 9.17383H56.1875V7.67383H55.873V9.17383ZM56.8235 8.82133C57.1991 8.22042 57.7132 7.77114 58.3846 7.46598L57.7639 6.10043C56.8311 6.52443 56.0874 7.1689 55.5515 8.02633L56.8235 8.82133ZM58.3817 7.46729C59.0805 7.15322 59.9024 6.98633 60.8633 6.98633V5.48633C59.7278 5.48633 58.6904 5.68402 57.7668 6.09912L58.3817 7.46729ZM60.8633 6.98633C62.4259 6.98633 63.5399 7.4342 64.3128 8.2443L65.3981 7.20882C64.2752 6.03194 62.7277 5.48633 60.8633 5.48633V6.98633ZM64.3153 8.24689C65.1002 9.06164 65.541 10.2513 65.541 11.9238H67.041C67.041 9.98694 66.5248 8.37846 65.3956 7.20624L64.3153 8.24689ZM65.541 11.9238V22H67.041V11.9238H65.541ZM66.291 21.25H60.9453V22.75H66.291V21.25ZM86.2246 22L85.5031 22.2049L85.6579 22.75H86.2246V22ZM82.1367 7.60352L82.8582 7.39865L82.7034 6.85352H82.1367V7.60352ZM82.0137 7.60352V6.85352H81.2028L81.2659 7.66189L82.0137 7.60352ZM82.3008 22V22.75H83.0508V22H82.3008ZM77.5156 22H76.7656V22.75H77.5156V22ZM77.5156 2.01172V1.26172H76.7656V2.01172H77.5156ZM84.707 2.01172L85.4266 1.80028L85.2684 1.26172H84.707V2.01172ZM88.877 16.2031L88.1574 16.4146L88.3156 16.9531H88.877V16.2031ZM88.9863 16.2031V16.9531H89.5508L89.707 16.4107L88.9863 16.2031ZM93.0742 2.01172V1.26172H92.5098L92.3535 1.80412L93.0742 2.01172ZM100.279 2.01172H101.029V1.26172H100.279V2.01172ZM100.279 22V22.75H101.029V22H100.279ZM95.3164 22H94.5664V22.75H95.3164V22ZM95.3301 11.7188L94.5804 11.6942L94.5802 11.7065L95.3301 11.7188ZM95.5215 7.63086L96.2705 7.66863L96.3102 6.88086H95.5215V7.63086ZM95.3984 7.63086V6.88086H94.83L94.6763 7.42818L95.3984 7.63086ZM91.3652 22V22.75H91.9337L92.0873 22.2027L91.3652 22ZM86.9461 21.7951L82.8582 7.39865L81.4152 7.80838L85.5031 22.2049L86.9461 21.7951ZM82.1367 6.85352H82.0137V8.35352H82.1367V6.85352ZM81.2659 7.66189C81.4568 10.1071 81.5508 11.9894 81.5508 13.3184H83.0508C83.0508 11.9312 82.9533 10.0036 82.7614 7.54514L81.2659 7.66189ZM81.5508 13.3184V22H83.0508V13.3184H81.5508ZM82.3008 21.25H77.5156V22.75H82.3008V21.25ZM78.2656 22V2.01172H76.7656V22H78.2656ZM77.5156 2.76172H84.707V1.26172H77.5156V2.76172ZM83.9874 2.22316L88.1574 16.4146L89.5965 15.9917L85.4266 1.80028L83.9874 2.22316ZM88.877 16.9531H88.9863V15.4531H88.877V16.9531ZM89.707 16.4107L93.7949 2.21932L92.3535 1.80412L88.2656 15.9955L89.707 16.4107ZM93.0742 2.76172H100.279V1.26172H93.0742V2.76172ZM99.5293 2.01172V22H101.029V2.01172H99.5293ZM100.279 21.25H95.3164V22.75H100.279V21.25ZM96.0664 22V13.2363H94.5664V22H96.0664ZM96.0664 13.2363C96.0664 12.7855 96.0709 12.2838 96.08 11.731L94.5802 11.7065C94.571 12.2657 94.5664 12.7757 94.5664 13.2363H96.0664ZM96.0797 11.7433C96.0976 11.1954 96.161 9.84025 96.2705 7.66863L94.7724 7.59309C94.6632 9.76001 94.599 11.1301 94.5805 11.6942L96.0797 11.7433ZM95.5215 6.88086H95.3984V8.38086H95.5215V6.88086ZM94.6763 7.42818L90.6431 21.7973L92.0873 22.2027L96.1205 7.83354L94.6763 7.42818ZM91.3652 21.25H86.2246V22.75H91.3652V21.25ZM105.734 20.2227L105.213 20.7616L105.216 20.7649L105.734 20.2227ZM105.584 8.3418L106.128 8.85771L106.13 8.85593L105.584 8.3418ZM116.645 8.06836L116.124 8.60833L116.128 8.61211L116.645 8.06836ZM118.559 15.6973V16.4473H119.309V15.6973H118.559ZM109.002 15.6973V14.9473H108.22L108.253 15.7288L109.002 15.6973ZM109.945 17.7344L109.466 18.3113L109.47 18.3148L109.945 17.7344ZM114.977 18.2129L115.138 18.9453L115.145 18.9438L114.977 18.2129ZM117.547 17.2969H118.297V16.1206L117.23 16.6169L117.547 17.2969ZM117.547 21.1387L117.888 21.8066L118.297 21.5977V21.1387H117.547ZM109.85 10.4746L110.362 11.0225L110.362 11.0221L109.85 10.4746ZM109.111 12.334L108.364 12.2697L108.294 13.084H109.111V12.334ZM113.705 12.334V13.084H114.474L114.455 12.3157L113.705 12.334ZM113.062 10.543L112.504 11.0441L112.51 11.0503L113.062 10.543ZM111.75 21.5234C109.303 21.5234 107.506 20.8776 106.252 19.6804L105.216 20.7649C106.825 22.3021 109.038 23.0234 111.75 23.0234V21.5234ZM106.256 19.6838C105.018 18.4856 104.352 16.7481 104.352 14.3574H102.852C102.852 17.0344 103.607 19.2071 105.213 20.7616L106.256 19.6838ZM104.352 14.3574C104.352 11.8629 104.98 10.069 106.128 8.8577L105.04 7.82589C103.544 9.40369 102.852 11.6202 102.852 14.3574H104.352ZM106.13 8.85593C107.274 7.64128 108.939 6.98633 111.244 6.98633V5.48633C108.645 5.48633 106.538 6.23502 105.038 7.82766L106.13 8.85593ZM111.244 6.98633C113.448 6.98633 115.038 7.561 116.124 8.60831L117.165 7.52841C115.718 6.13301 113.706 5.48633 111.244 5.48633V6.98633ZM116.128 8.61211C117.214 9.6436 117.809 11.1714 117.809 13.3184H119.309C119.309 10.8898 118.627 8.9176 117.161 7.52461L116.128 8.61211ZM117.809 13.3184V15.6973H119.309V13.3184H117.809ZM118.559 14.9473H109.002V16.4473H118.559V14.9473ZM108.253 15.7288C108.297 16.7771 108.689 17.6659 109.466 18.3113L110.425 17.1575C110.017 16.8185 109.78 16.3492 109.751 15.6657L108.253 15.7288ZM109.47 18.3148C110.244 18.9478 111.246 19.2227 112.393 19.2227V17.7227C111.479 17.7227 110.85 17.5053 110.42 17.1539L109.47 18.3148ZM112.393 19.2227C113.377 19.2227 114.293 19.1319 115.138 18.9452L114.815 17.4806C114.092 17.6402 113.286 17.7227 112.393 17.7227V19.2227ZM115.145 18.9438C115.999 18.7473 116.906 18.4222 117.863 17.9769L117.23 16.6169C116.346 17.0283 115.54 17.3139 114.809 17.482L115.145 18.9438ZM116.797 17.2969V21.1387H118.297V17.2969H116.797ZM117.206 20.4708C116.43 20.8673 115.633 21.1392 114.814 21.2897L115.085 22.765C116.052 22.5873 116.987 22.2668 117.888 21.8066L117.206 20.4708ZM114.814 21.2897C113.978 21.4432 112.959 21.5234 111.75 21.5234V23.0234C113.02 23.0234 114.134 22.9396 115.085 22.765L114.814 21.2897ZM111.436 9.12305C110.631 9.12305 109.915 9.38608 109.337 9.92709L110.362 11.0221C110.641 10.7611 110.982 10.623 111.436 10.623V9.12305ZM109.337 9.92671C108.73 10.4944 108.445 11.3245 108.364 12.2697L109.859 12.3983C109.923 11.6482 110.131 11.2387 110.362 11.0225L109.337 9.92671ZM109.111 13.084H113.705V11.584H109.111V13.084ZM114.455 12.3157C114.433 11.4308 114.175 10.6452 113.615 10.0357L112.51 11.0503C112.771 11.334 112.94 11.7424 112.955 12.3523L114.455 12.3157ZM113.621 10.0419C113.057 9.41403 112.299 9.12305 111.436 9.12305V10.623C111.939 10.623 112.266 10.7787 112.504 11.0441L113.621 10.0419ZM131.752 17.5156H132.502V16.454L131.501 16.8087L131.752 17.5156ZM131.752 21.4121L132.048 22.101L132.502 21.9058V21.4121H131.752ZM129.688 22.0684L129.544 21.3321L129.532 21.3346L129.688 22.0684ZM123.521 20.9609L122.963 21.4617L122.966 21.4646L123.521 20.9609ZM122.332 10.5156H123.082V9.76562H122.332V10.5156ZM120.459 10.5156H119.709V11.2656H120.459V10.5156ZM120.459 8.3418L120.026 7.72936L119.709 7.9535V8.3418H120.459ZM122.838 6.66016L123.271 7.27259L123.445 7.14948L123.528 6.95314L122.838 6.66016ZM124.219 3.40625V2.65625H123.722L123.528 3.11326L124.219 3.40625ZM127.719 3.40625H128.469V2.65625H127.719V3.40625ZM127.719 6.50977H126.969V7.25977H127.719V6.50977ZM131.52 6.50977H132.27V5.75977H131.52V6.50977ZM131.52 10.5156V11.2656H132.27V10.5156H131.52ZM127.719 10.5156V9.76562H126.969V10.5156H127.719ZM129.168 18.7988C130.004 18.7988 130.954 18.5942 132.003 18.2225L131.501 16.8087C130.544 17.148 129.772 17.2988 129.168 17.2988V18.7988ZM131.002 17.5156V21.4121H132.502V17.5156H131.002ZM131.455 20.7232C130.776 21.0154 130.14 21.2164 129.544 21.3321L129.831 22.8046C130.548 22.6652 131.287 22.4286 132.048 22.101L131.455 20.7232ZM129.532 21.3346C128.95 21.4577 128.243 21.5234 127.404 21.5234V23.0234C128.316 23.0234 129.131 22.9525 129.843 22.8022L129.532 21.3346ZM127.404 21.5234C125.71 21.5234 124.668 21.1091 124.077 20.4573L122.966 21.4646C123.961 22.5627 125.507 23.0234 127.404 23.0234V21.5234ZM124.08 20.4602C123.462 19.7711 123.082 18.6338 123.082 16.9004H121.582C121.582 18.8129 121.995 20.3826 122.963 21.4617L124.08 20.4602ZM123.082 16.9004V10.5156H121.582V16.9004H123.082ZM122.332 9.76562H120.459V11.2656H122.332V9.76562ZM121.209 10.5156V8.3418H119.709V10.5156H121.209ZM120.892 8.95423L123.271 7.27259L122.405 6.04772L120.026 7.72936L120.892 8.95423ZM123.528 6.95314L124.909 3.69924L123.528 3.11326L122.147 6.36717L123.528 6.95314ZM124.219 4.15625H127.719V2.65625H124.219V4.15625ZM126.969 3.40625V6.50977H128.469V3.40625H126.969ZM127.719 7.25977H131.52V5.75977H127.719V7.25977ZM130.77 6.50977V10.5156H132.27V6.50977H130.77ZM131.52 9.76562H127.719V11.2656H131.52V9.76562ZM126.969 10.5156V16.5449H128.469V10.5156H126.969ZM126.969 16.5449C126.969 17.155 127.115 17.7516 127.541 18.1933C127.972 18.6401 128.562 18.7988 129.168 18.7988V17.2988C128.808 17.2988 128.674 17.2069 128.621 17.1524C128.564 17.0928 128.469 16.9374 128.469 16.5449H126.969ZM144.207 22H143.457V22.75H144.207V22ZM140.42 11.541L139.768 11.1706L139.766 11.1733L140.42 11.541ZM139.805 22V22.75H140.555V22H139.805ZM134.459 22H133.709V22.75H134.459V22ZM134.459 0.726562V-0.0234375H133.709V0.726562H134.459ZM139.805 0.726562H140.555V-0.0234375H139.805V0.726562ZM139.586 8.42383L138.839 8.36154L138.771 9.17383H139.586V8.42383ZM139.832 8.42383V9.17383H140.244L140.465 8.82648L139.832 8.42383ZM148.131 7.74023L147.588 8.25811L147.593 8.26311L148.131 7.74023ZM149.58 22V22.75H150.33V22H149.58ZM144.957 22V13.5508H143.457V22H144.957ZM144.957 13.5508C144.957 12.4622 144.8 11.522 144.391 10.8308C143.945 10.0779 143.235 9.68359 142.361 9.68359V11.1836C142.718 11.1836 142.931 11.3088 143.1 11.595C143.306 11.9428 143.457 12.5612 143.457 13.5508H144.957ZM142.361 9.68359C141.227 9.68359 140.325 10.189 139.768 11.1706L141.072 11.9114C141.353 11.4165 141.746 11.1836 142.361 11.1836V9.68359ZM139.766 11.1733C139.255 12.0813 139.055 13.466 139.055 15.1914H140.555C140.555 13.508 140.764 12.459 141.074 11.9087L139.766 11.1733ZM139.055 15.1914V22H140.555V15.1914H139.055ZM139.805 21.25H134.459V22.75H139.805V21.25ZM135.209 22V0.726562H133.709V22H135.209ZM134.459 1.47656H139.805V-0.0234375H134.459V1.47656ZM139.055 0.726562V3.74805H140.555V0.726562H139.055ZM139.055 3.74805C139.055 5.08959 138.983 6.62677 138.839 8.36154L140.333 8.48611C140.48 6.72088 140.555 5.14088 140.555 3.74805H139.055ZM139.586 9.17383H139.832V7.67383H139.586V9.17383ZM140.465 8.82648C140.916 8.11732 141.422 7.66321 141.968 7.40793L141.333 6.0491C140.475 6.45007 139.769 7.12617 139.199 8.02117L140.465 8.82648ZM141.968 7.40793C142.553 7.13466 143.256 6.98633 144.098 6.98633V5.48633C143.08 5.48633 142.152 5.66612 141.333 6.0491L141.968 7.40793ZM144.098 6.98633C145.679 6.98633 146.806 7.43897 147.588 8.25809L148.673 7.22238C147.541 6.03629 145.98 5.48633 144.098 5.48633V6.98633ZM147.593 8.26311C148.386 9.07879 148.83 10.2635 148.83 11.9238H150.33C150.33 9.99297 149.808 8.38866 148.669 7.21736L147.593 8.26311ZM148.83 11.9238V22H150.33V11.9238H148.83ZM149.58 21.25H144.207V22.75H149.58V21.25ZM165.959 20.1543L165.418 19.6345L165.418 19.6345L165.959 20.1543ZM154.625 20.0996L154.083 20.6179L154.085 20.6196L154.625 20.0996ZM154.584 8.3418L154.047 7.81849L154.047 7.81854L154.584 8.3418ZM164.359 7.20703L164.723 6.55117L164.359 7.20703ZM167.053 9.99609L166.387 10.3415L166.39 10.3475L167.053 9.99609ZM158.508 17.2695L157.839 17.6084L157.841 17.6119L158.508 17.2695ZM162.049 17.2695L161.376 16.9376L161.374 16.9412L162.049 17.2695ZM158.508 11.2266L159.169 11.58L159.171 11.5762L158.508 11.2266ZM167.26 14.2207C167.26 16.6181 166.616 18.3888 165.418 19.6345L166.5 20.6741C168.036 19.076 168.76 16.891 168.76 14.2207H167.26ZM165.418 19.6345C164.235 20.8651 162.546 21.5234 160.244 21.5234V23.0234C162.846 23.0234 164.966 22.269 166.5 20.6741L165.418 19.6345ZM160.244 21.5234C158.059 21.5234 156.395 20.8569 155.165 19.5796L154.085 20.6196C155.645 22.2408 157.726 23.0234 160.244 23.0234V21.5234ZM155.167 19.5813C153.945 18.3024 153.297 16.5449 153.297 14.2207H151.797C151.797 16.8366 152.535 18.9983 154.083 20.6179L155.167 19.5813ZM153.297 14.2207C153.297 11.8311 153.937 10.0816 155.121 8.86506L154.047 7.81854C152.515 9.39108 151.797 11.5608 151.797 14.2207H153.297ZM155.121 8.8651C156.313 7.64147 158.013 6.98633 160.326 6.98633V5.48633C157.718 5.48633 155.589 6.23483 154.047 7.81849L155.121 8.8651ZM160.326 6.98633C161.739 6.98633 162.955 7.28575 163.996 7.86289L164.723 6.55117C163.43 5.83404 161.957 5.48633 160.326 5.48633V6.98633ZM163.996 7.86289C165.03 8.4367 165.824 9.25689 166.387 10.3415L167.718 9.65071C167.023 8.31082 166.022 7.27163 164.723 6.55117L163.996 7.86289ZM166.39 10.3475C166.961 11.424 167.26 12.7074 167.26 14.2207H168.76C168.76 12.5075 168.42 10.9744 167.715 9.64472L166.39 10.3475ZM157.225 14.2207C157.225 15.5981 157.405 16.7526 157.839 17.6084L159.177 16.9307C158.899 16.3828 158.725 15.5047 158.725 14.2207H157.225ZM157.841 17.6119C158.075 18.0693 158.408 18.4433 158.846 18.6976C159.281 18.95 159.776 19.0586 160.299 19.0586V17.5586C159.983 17.5586 159.76 17.494 159.599 17.4001C159.44 17.308 159.296 17.1625 159.175 16.9271L157.841 17.6119ZM160.299 19.0586C160.818 19.0586 161.31 18.9495 161.741 18.6937C162.175 18.4359 162.499 18.0575 162.723 17.5978L161.374 16.9412C161.261 17.1743 161.125 17.3154 160.975 17.4039C160.823 17.4945 160.609 17.5586 160.299 17.5586V19.0586ZM162.721 17.6014C163.143 16.748 163.318 15.5965 163.318 14.2207H161.818C161.818 15.5064 161.648 16.3874 161.376 16.9376L162.721 17.6014ZM163.318 14.2207C163.318 12.8563 163.143 11.7162 162.716 10.884L161.382 11.5692C161.647 12.0859 161.818 12.9419 161.818 14.2207H163.318ZM162.716 10.884C162.484 10.4321 162.153 10.0646 161.716 9.81598C161.283 9.56975 160.791 9.46484 160.271 9.46484V10.9648C160.59 10.9648 160.814 11.0286 160.974 11.1196C161.129 11.2081 161.267 11.3465 161.382 11.5692L162.716 10.884ZM160.271 9.46484C159.758 9.46484 159.271 9.571 158.842 9.81721C158.41 10.0652 158.08 10.43 157.844 10.8769L159.171 11.5762C159.291 11.3486 159.433 11.2076 159.589 11.1183C159.747 11.0273 159.965 10.9648 160.271 10.9648V9.46484ZM157.846 10.8732C157.404 11.7014 157.225 12.8477 157.225 14.2207H158.725C158.725 12.9323 158.901 12.0825 159.169 11.58L157.846 10.8732ZM172.986 21.3301L172.53 21.9253L172.533 21.9277L172.986 21.3301ZM171.072 18.5547L170.368 18.8123L170.37 18.8169L171.072 18.5547ZM178.359 6.75586L178.005 7.41712L178.009 7.41915L178.359 6.75586ZM180.15 8.50586L179.523 8.91705L179.745 9.25586H180.15V8.50586ZM180.26 8.50586V9.25586H181.125L181.002 8.39979L180.26 8.50586ZM180 0.726562V-0.0234375H179.25V0.726562H180ZM185.387 0.726562H186.137V-0.0234375H185.387V0.726562ZM185.387 22V22.75H186.137V22H185.387ZM181.354 22L180.707 22.3799L180.924 22.75H181.354V22ZM180.205 20.0449L180.852 19.6651L180.634 19.2949H180.205V20.0449ZM180 20.0449V19.2949H179.582L179.362 19.6499L180 20.0449ZM179.877 17.2422L179.251 16.8286L179.246 16.8361L179.877 17.2422ZM180.451 14.7539L181.201 14.7722L181.201 14.7631V14.7539H180.451ZM179.863 11.418L179.241 11.8362L179.244 11.8408L179.863 11.418ZM176.377 11.541L175.731 11.1604L175.729 11.1631L176.377 11.541ZM176.391 17.1055L177.027 16.7088L176.391 17.1055ZM175.885 21.5234C174.935 21.5234 174.13 21.2564 173.439 20.7325L172.533 21.9277C173.501 22.6616 174.629 23.0234 175.885 23.0234V21.5234ZM173.443 20.7349C172.76 20.2114 172.194 19.4161 171.775 18.2925L170.37 18.8169C170.862 20.136 171.572 21.1909 172.53 21.9253L173.443 20.7349ZM171.777 18.2971C171.367 17.1763 171.152 15.8405 171.152 14.2754H169.652C169.652 15.9733 169.885 17.4904 170.368 18.8123L171.777 18.2971ZM171.152 14.2754C171.152 11.8496 171.642 10.054 172.531 8.80396L171.309 7.93432C170.175 9.52806 169.652 11.6699 169.652 14.2754H171.152ZM172.531 8.80396C173.4 7.58293 174.56 6.98633 176.09 6.98633V5.48633C174.083 5.48633 172.463 6.3116 171.309 7.93432L172.531 8.80396ZM176.09 6.98633C176.854 6.98633 177.485 7.13866 178.005 7.41711L178.713 6.09461C177.939 5.68035 177.057 5.48633 176.09 5.48633V6.98633ZM178.009 7.41915C178.523 7.69024 179.033 8.16986 179.523 8.91705L180.778 8.09467C180.192 7.20123 179.508 6.51419 178.709 6.09257L178.009 7.41915ZM180.15 9.25586H180.26V7.75586H180.15V9.25586ZM181.002 8.39979C180.834 7.22233 180.75 6.04553 180.75 4.86914H179.25C179.25 6.11723 179.339 7.36491 179.517 8.61193L181.002 8.39979ZM180.75 4.86914V0.726562H179.25V4.86914H180.75ZM180 1.47656H185.387V-0.0234375H180V1.47656ZM184.637 0.726562V22H186.137V0.726562H184.637ZM185.387 21.25H181.354V22.75H185.387V21.25ZM182 21.6201L180.852 19.6651L179.558 20.4248L180.707 22.3799L182 21.6201ZM180.205 19.2949H180V20.7949H180.205V19.2949ZM179.362 19.6499C178.586 20.9036 177.462 21.5234 175.885 21.5234V23.0234C177.954 23.0234 179.573 22.1576 180.638 20.44L179.362 19.6499ZM178.072 18.7988C179.088 18.7988 179.978 18.4705 180.507 17.6483L179.246 16.8361C179.083 17.0894 178.77 17.2988 178.072 17.2988V18.7988ZM180.503 17.6558C180.974 16.9424 181.172 15.9428 181.201 14.7722L179.701 14.7356C179.675 15.8072 179.491 16.4664 179.251 16.8286L180.503 17.6558ZM181.201 14.7539V14.3301H179.701V14.7539H181.201ZM181.201 14.3301C181.201 12.9338 181.009 11.7664 180.483 10.9952L179.244 11.8408C179.501 12.2179 179.701 12.992 179.701 14.3301H181.201ZM180.486 10.9997C179.926 10.1669 179.05 9.79297 178.018 9.79297V11.293C178.662 11.293 179.016 11.5024 179.241 11.8362L180.486 10.9997ZM178.018 9.79297C177.019 9.79297 176.241 10.2939 175.731 11.1604L177.023 11.9217C177.297 11.4574 177.612 11.293 178.018 11.293V9.79297ZM175.729 11.1631C175.25 11.9838 175.053 13.076 175.053 14.3574H176.553C176.553 13.1962 176.738 12.4108 177.025 11.9189L175.729 11.1631ZM175.053 14.3574C175.053 15.6218 175.255 16.7014 175.754 17.5021L177.027 16.7088C176.742 16.2517 176.553 15.4993 176.553 14.3574H175.053ZM175.754 17.5021C176.28 18.3464 177.079 18.7988 178.072 18.7988V17.2988C177.607 17.2988 177.285 17.1223 177.027 16.7088L175.754 17.5021ZM201.834 20.1543L201.293 19.6345L201.293 19.6345L201.834 20.1543ZM190.5 20.0996L189.958 20.6179L189.96 20.6196L190.5 20.0996ZM190.459 8.3418L189.922 7.81849L189.922 7.81854L190.459 8.3418ZM200.234 7.20703L200.598 6.55117L200.234 7.20703ZM202.928 9.99609L202.262 10.3415L202.265 10.3475L202.928 9.99609ZM194.383 17.2695L193.714 17.6084L193.716 17.6119L194.383 17.2695ZM197.924 17.2695L197.251 16.9376L197.249 16.9412L197.924 17.2695ZM194.383 11.2266L195.044 11.58L195.046 11.5762L194.383 11.2266ZM203.135 14.2207C203.135 16.6181 202.491 18.3888 201.293 19.6345L202.375 20.6741C203.911 19.076 204.635 16.891 204.635 14.2207H203.135ZM201.293 19.6345C200.11 20.8651 198.421 21.5234 196.119 21.5234V23.0234C198.721 23.0234 200.841 22.269 202.375 20.6741L201.293 19.6345ZM196.119 21.5234C193.934 21.5234 192.27 20.8569 191.04 19.5796L189.96 20.6196C191.52 22.2408 193.601 23.0234 196.119 23.0234V21.5234ZM191.042 19.5813C189.82 18.3024 189.172 16.5449 189.172 14.2207H187.672C187.672 16.8366 188.41 18.9983 189.958 20.6179L191.042 19.5813ZM189.172 14.2207C189.172 11.8311 189.812 10.0816 190.996 8.86506L189.922 7.81854C188.39 9.39108 187.672 11.5608 187.672 14.2207H189.172ZM190.996 8.8651C192.188 7.64147 193.888 6.98633 196.201 6.98633V5.48633C193.593 5.48633 191.464 6.23483 189.922 7.81849L190.996 8.8651ZM196.201 6.98633C197.614 6.98633 198.83 7.28575 199.871 7.86289L200.598 6.55117C199.305 5.83404 197.832 5.48633 196.201 5.48633V6.98633ZM199.871 7.86289C200.905 8.4367 201.699 9.25689 202.262 10.3415L203.593 9.65071C202.898 8.31082 201.897 7.27163 200.598 6.55117L199.871 7.86289ZM202.265 10.3475C202.836 11.424 203.135 12.7074 203.135 14.2207H204.635C204.635 12.5075 204.295 10.9744 203.59 9.64472L202.265 10.3475ZM193.1 14.2207C193.1 15.5981 193.28 16.7526 193.714 17.6084L195.052 16.9307C194.774 16.3828 194.6 15.5047 194.6 14.2207H193.1ZM193.716 17.6119C193.95 18.0693 194.283 18.4433 194.721 18.6976C195.156 18.95 195.651 19.0586 196.174 19.0586V17.5586C195.858 17.5586 195.635 17.494 195.474 17.4001C195.315 17.308 195.171 17.1625 195.05 16.9271L193.716 17.6119ZM196.174 19.0586C196.693 19.0586 197.185 18.9495 197.616 18.6937C198.05 18.4359 198.374 18.0575 198.598 17.5978L197.249 16.9412C197.136 17.1743 197 17.3154 196.85 17.4039C196.698 17.4945 196.484 17.5586 196.174 17.5586V19.0586ZM198.596 17.6014C199.018 16.748 199.193 15.5965 199.193 14.2207H197.693C197.693 15.5064 197.523 16.3874 197.251 16.9376L198.596 17.6014ZM199.193 14.2207C199.193 12.8563 199.018 11.7162 198.591 10.884L197.257 11.5692C197.522 12.0859 197.693 12.9419 197.693 14.2207H199.193ZM198.591 10.884C198.359 10.4321 198.028 10.0646 197.591 9.81598C197.158 9.56975 196.666 9.46484 196.146 9.46484V10.9648C196.465 10.9648 196.689 11.0286 196.849 11.1196C197.004 11.2081 197.142 11.3465 197.257 11.5692L198.591 10.884ZM196.146 9.46484C195.633 9.46484 195.146 9.571 194.717 9.81721C194.285 10.0652 193.955 10.43 193.719 10.8769L195.046 11.5762C195.166 11.3486 195.308 11.2076 195.464 11.1183C195.622 11.0273 195.84 10.9648 196.146 10.9648V9.46484ZM193.721 10.8732C193.279 11.7014 193.1 12.8477 193.1 14.2207H194.6C194.6 12.9323 194.776 12.0825 195.044 11.58L193.721 10.8732ZM212.293 22V22.75H213.043V22H212.293ZM206.947 22H206.197V22.75H206.947V22ZM206.947 0.726562V-0.0234375H206.197V0.726562H206.947ZM212.293 0.726562H213.043V-0.0234375H212.293V0.726562ZM212.293 21.25H206.947V22.75H212.293V21.25ZM207.697 22V0.726562H206.197V22H207.697ZM206.947 1.47656H212.293V-0.0234375H206.947V1.47656ZM211.543 0.726562V22H213.043V0.726562H211.543ZM228.74 20.1543L228.2 19.6345L228.2 19.6345L228.74 20.1543ZM217.406 20.0996L216.864 20.6179L216.866 20.6196L217.406 20.0996ZM217.365 8.3418L216.828 7.81849L216.828 7.81854L217.365 8.3418ZM227.141 7.20703L227.504 6.55117L227.141 7.20703ZM229.834 9.99609L229.168 10.3415L229.171 10.3475L229.834 9.99609ZM221.289 17.2695L220.62 17.6084L220.622 17.6119L221.289 17.2695ZM224.83 17.2695L224.158 16.9376L224.156 16.9412L224.83 17.2695ZM221.289 11.2266L221.951 11.58L221.953 11.5762L221.289 11.2266ZM230.041 14.2207C230.041 16.6181 229.397 18.3888 228.2 19.6345L229.281 20.6741C230.817 19.076 231.541 16.891 231.541 14.2207H230.041ZM228.2 19.6345C227.017 20.8651 225.328 21.5234 223.025 21.5234V23.0234C225.627 23.0234 227.748 22.269 229.281 20.6741L228.2 19.6345ZM223.025 21.5234C220.84 21.5234 219.176 20.8569 217.947 19.5796L216.866 20.6196C218.426 22.2408 220.507 23.0234 223.025 23.0234V21.5234ZM217.948 19.5813C216.726 18.3024 216.078 16.5449 216.078 14.2207H214.578C214.578 16.8366 215.316 18.9983 216.864 20.6179L217.948 19.5813ZM216.078 14.2207C216.078 11.8311 216.718 10.0816 217.903 8.86506L216.828 7.81854C215.296 9.39108 214.578 11.5608 214.578 14.2207H216.078ZM217.902 8.8651C219.094 7.64147 220.794 6.98633 223.107 6.98633V5.48633C220.499 5.48633 218.37 6.23483 216.828 7.81849L217.902 8.8651ZM223.107 6.98633C224.52 6.98633 225.736 7.28575 226.777 7.86289L227.504 6.55117C226.212 5.83404 224.739 5.48633 223.107 5.48633V6.98633ZM226.777 7.86289C227.811 8.4367 228.606 9.25689 229.168 10.3415L230.5 9.65071C229.805 8.31082 228.803 7.27163 227.504 6.55117L226.777 7.86289ZM229.171 10.3475C229.742 11.424 230.041 12.7074 230.041 14.2207H231.541C231.541 12.5075 231.202 10.9744 230.497 9.64472L229.171 10.3475ZM220.006 14.2207C220.006 15.5981 220.187 16.7526 220.62 17.6084L221.958 16.9307C221.681 16.3828 221.506 15.5047 221.506 14.2207H220.006ZM220.622 17.6119C220.856 18.0693 221.189 18.4433 221.627 18.6976C222.062 18.95 222.557 19.0586 223.08 19.0586V17.5586C222.765 17.5586 222.542 17.494 222.38 17.4001C222.221 17.308 222.077 17.1625 221.956 16.9271L220.622 17.6119ZM223.08 19.0586C223.6 19.0586 224.092 18.9495 224.523 18.6937C224.957 18.4359 225.281 18.0575 225.504 17.5978L224.156 16.9412C224.042 17.1743 223.906 17.3154 223.757 17.4039C223.604 17.4945 223.39 17.5586 223.08 17.5586V19.0586ZM225.503 17.6014C225.924 16.748 226.1 15.5965 226.1 14.2207H224.6C224.6 15.5064 224.429 16.3874 224.158 16.9376L225.503 17.6014ZM226.1 14.2207C226.1 12.8563 225.925 11.7162 225.497 10.884L224.163 11.5692C224.428 12.0859 224.6 12.9419 224.6 14.2207H226.1ZM225.497 10.884C225.265 10.4321 224.934 10.0646 224.497 9.81598C224.064 9.56975 223.572 9.46484 223.053 9.46484V10.9648C223.372 10.9648 223.595 11.0286 223.755 11.1196C223.911 11.2081 224.049 11.3465 224.163 11.5692L225.497 10.884ZM223.053 9.46484C222.539 9.46484 222.053 9.571 221.623 9.81721C221.191 10.0652 220.861 10.43 220.626 10.8769L221.953 11.5762C222.073 11.3486 222.214 11.2076 222.37 11.1183C222.528 11.0273 222.746 10.9648 223.053 10.9648V9.46484ZM220.628 10.8732C220.185 11.7014 220.006 12.8477 220.006 14.2207H221.506C221.506 12.9323 221.682 12.0825 221.951 11.58L220.628 10.8732ZM248.469 6.50977H249.219V5.75977H248.469V6.50977ZM248.469 9.09375L248.728 9.79766L249.219 9.61705V9.09375H248.469ZM246.35 9.87305L246.091 9.16913L245.271 9.47059L245.693 10.2354L246.35 9.87305ZM245.023 15.6016L244.561 15.011L244.559 15.0128L245.023 15.6016ZM238.42 16.873L238.578 16.14L238.027 16.0208L237.76 16.5175L238.42 16.873ZM238.871 18.1582L238.629 18.8682L238.636 18.8705L238.643 18.8727L238.871 18.1582ZM245.912 27.1543L245.503 26.5254L245.502 26.5264L245.912 27.1543ZM234.059 27.6191L234.453 26.9812L234.452 26.9804L234.059 27.6191ZM235.727 20.8789L235.898 21.6092L238.138 21.0847L236.019 20.1882L235.727 20.8789ZM234.482 19.9082L233.89 20.3679L233.896 20.3753L234.482 19.9082ZM234.359 17.3105L234.967 17.7508L234.972 17.7436L234.359 17.3105ZM236.014 15.9844L236.404 16.625L237.628 15.8796L236.318 15.2987L236.014 15.9844ZM234.113 14.3164L233.471 14.7034L233.474 14.709L234.113 14.3164ZM243.068 6.50977L242.945 7.24956L243.006 7.25977H243.068V6.50977ZM237.504 24.9805L237.879 24.3308L237.869 24.3254L237.504 24.9805ZM242.508 24.8984L242.225 24.2037L242.215 24.2078L242.508 24.8984ZM242.973 22.7793L243.23 22.0747L243.218 22.0706L242.973 22.7793ZM237.381 22.9297L236.968 22.3035L236.96 22.3089L236.952 22.3146L237.381 22.9297ZM241.305 13.373L240.696 12.9344L240.69 12.9439L241.305 13.373ZM247.719 6.50977V9.09375H249.219V6.50977H247.719ZM248.21 8.38984L246.091 9.16913L246.608 10.577L248.728 9.79766L248.21 8.38984ZM245.693 10.2354C245.914 10.6362 246.037 11.1229 246.037 11.7188H247.537C247.537 10.9109 247.368 10.1672 247.006 9.51074L245.693 10.2354ZM246.037 11.7188C246.037 13.1869 245.532 14.2506 244.561 15.011L245.486 16.1921C246.866 15.1114 247.537 13.5866 247.537 11.7188H246.037ZM244.559 15.0128C243.581 15.7845 242.032 16.2324 239.787 16.2324V17.7324C242.191 17.7324 244.133 17.2598 245.488 16.1903L244.559 15.0128ZM239.787 16.2324C239.236 16.2324 238.841 16.1967 238.578 16.14L238.261 17.6061C238.674 17.6952 239.19 17.7324 239.787 17.7324V16.2324ZM237.76 16.5175C237.589 16.8335 237.479 17.1789 237.479 17.543H238.979C238.979 17.4877 238.995 17.3865 239.08 17.2286L237.76 16.5175ZM237.479 17.543C237.479 18.326 238.14 18.7016 238.629 18.8682L239.113 17.4482C239.037 17.4225 238.984 17.3986 238.949 17.3795C238.914 17.3602 238.904 17.3497 238.908 17.3533C238.913 17.358 238.933 17.379 238.951 17.4188C238.97 17.4603 238.979 17.5043 238.979 17.543H237.479ZM238.643 18.8727C239.174 19.042 239.82 19.1133 240.553 19.1133V17.6133C239.9 17.6133 239.425 17.5478 239.099 17.4437L238.643 18.8727ZM240.553 19.1133H243.123V17.6133H240.553V19.1133ZM243.123 19.1133C244.772 19.1133 245.869 19.4633 246.547 20.034C247.199 20.584 247.582 21.4416 247.582 22.752H249.082C249.082 21.1365 248.597 19.7998 247.513 18.8869C246.454 17.9947 244.947 17.6133 243.123 17.6133V19.1133ZM247.582 22.752C247.582 24.3788 246.909 25.6122 245.503 26.5254L246.321 27.7832C248.142 26.6 249.082 24.8986 249.082 22.752H247.582ZM245.502 26.5264C244.068 27.4636 241.977 27.9766 239.145 27.9766V29.4766C242.128 29.4766 244.548 28.9413 246.322 27.7822L245.502 26.5264ZM239.145 27.9766C237.015 27.9766 235.479 27.6158 234.453 26.9812L233.664 28.257C235.026 29.099 236.881 29.4766 239.145 29.4766V27.9766ZM234.452 26.9804C233.486 26.3859 233.031 25.5733 233.031 24.4609H231.531C231.531 26.1011 232.262 27.394 233.666 28.2579L234.452 26.9804ZM233.031 24.4609C233.031 23.705 233.259 23.1381 233.683 22.6976C234.123 22.2404 234.833 21.8584 235.898 21.6092L235.556 20.1487C234.323 20.4372 233.311 20.9211 232.602 21.6578C231.877 22.4113 231.531 23.3666 231.531 24.4609H233.031ZM236.019 20.1882C235.672 20.0416 235.355 19.8007 235.069 19.4411L233.896 20.3753C234.32 20.909 234.833 21.3152 235.434 21.5696L236.019 20.1882ZM235.075 19.4486C234.801 19.0948 234.713 18.81 234.713 18.582H233.213C233.213 19.229 233.471 19.8284 233.89 20.3678L235.075 19.4486ZM234.713 18.582C234.713 18.2449 234.802 17.9778 234.967 17.7508L233.752 16.8703C233.388 17.3724 233.213 17.953 233.213 18.582H234.713ZM234.972 17.7436C235.141 17.5049 235.575 17.1293 236.404 16.625L235.624 15.3437C234.775 15.8602 234.107 16.3688 233.747 16.8774L234.972 17.7436ZM236.318 15.2987C235.656 15.0055 235.139 14.5526 234.752 13.9238L233.474 14.709C234.018 15.5932 234.767 16.2523 235.71 16.6701L236.318 15.2987ZM234.756 13.9294C234.385 13.3137 234.18 12.534 234.18 11.5547H232.68C232.68 12.7447 232.93 13.8061 233.471 14.7034L234.756 13.9294ZM234.18 11.5547C234.18 10.0588 234.678 8.97988 235.624 8.21379L234.68 7.04793C233.33 8.14121 232.68 9.67816 232.68 11.5547H234.18ZM235.624 8.21379C236.591 7.43111 238.039 6.98633 240.074 6.98633V5.48633C237.844 5.48633 236.01 5.97123 234.68 7.04793L235.624 8.21379ZM240.074 6.98633C240.318 6.98633 240.775 7.01502 241.468 7.07887L241.606 5.58519C240.914 5.52144 240.395 5.48633 240.074 5.48633V6.98633ZM241.468 7.07887C242.158 7.14239 242.646 7.19964 242.945 7.24956L243.192 5.76997C242.835 5.71052 242.302 5.64928 241.606 5.58519L241.468 7.07887ZM243.068 7.25977H248.469V5.75977H243.068V7.25977ZM236.043 23.9277C236.043 24.7062 236.494 25.2761 237.139 25.6355L237.869 24.3254C237.566 24.1561 237.543 24.0243 237.543 23.9277H236.043ZM237.129 25.6301C237.757 25.9923 238.535 26.1406 239.404 26.1406V24.6406C238.687 24.6406 238.199 24.5155 237.879 24.3308L237.129 25.6301ZM239.404 26.1406C240.751 26.1406 241.897 25.9717 242.8 25.5891L242.215 24.2078C241.569 24.4815 240.647 24.6406 239.404 24.6406V26.1406ZM242.791 25.5931C243.651 25.2429 244.434 24.6434 244.434 23.6543H242.934C242.934 23.6948 242.926 23.7471 242.845 23.833C242.749 23.9341 242.562 24.0668 242.225 24.2038L242.791 25.5931ZM244.434 23.6543C244.434 23.2938 244.325 22.947 244.088 22.655C243.86 22.374 243.552 22.1925 243.23 22.0748L242.715 23.4837C242.867 23.5393 242.915 23.5902 242.924 23.6009C242.927 23.6054 242.928 23.6071 242.929 23.6088C242.929 23.6114 242.934 23.6246 242.934 23.6543H244.434ZM243.218 22.0706C242.627 21.8659 241.85 21.7832 240.936 21.7832V23.2832C241.79 23.2832 242.371 23.3646 242.727 23.488L243.218 22.0706ZM240.936 21.7832H238.844V23.2832H240.936V21.7832ZM238.844 21.7832C238.152 21.7832 237.514 21.9437 236.968 22.3035L237.794 23.5559C238.05 23.387 238.387 23.2832 238.844 23.2832V21.7832ZM236.952 22.3146C236.409 22.6934 236.043 23.2355 236.043 23.9277H237.543C237.543 23.8362 237.569 23.7128 237.81 23.5448L236.952 22.3146ZM237.725 11.582C237.725 12.4388 237.869 13.2148 238.272 13.7944C238.71 14.4235 239.372 14.7109 240.129 14.7109V13.2109C239.783 13.2109 239.618 13.1019 239.504 12.938C239.356 12.7246 239.225 12.3112 239.225 11.582H237.725ZM240.129 14.7109C240.865 14.7109 241.495 14.4108 241.92 13.8022L240.69 12.9439C240.567 13.1192 240.414 13.2109 240.129 13.2109V14.7109ZM241.913 13.8116C242.329 13.2346 242.479 12.4609 242.479 11.6094H240.979C240.979 12.3256 240.845 12.7276 240.696 12.9344L241.913 13.8116ZM242.479 11.6094C242.479 10.7479 242.34 9.97082 241.953 9.38948C241.531 8.75421 240.882 8.45312 240.129 8.45312V9.95312C240.443 9.95312 240.593 10.0531 240.704 10.2199C240.851 10.4406 240.979 10.8667 240.979 11.6094H242.479ZM240.129 8.45312C239.372 8.45312 238.71 8.74059 238.272 9.36966C237.869 9.94926 237.725 10.7252 237.725 11.582H239.225C239.225 10.8529 239.356 10.4394 239.504 10.226C239.618 10.0621 239.783 9.95312 240.129 9.95312V8.45312ZM248.961 6.50977V5.75977H247.854L248.264 6.78788L248.961 6.50977ZM254.594 6.50977L255.313 6.2973L255.154 5.75977H254.594V6.50977ZM257.219 15.3965L257.942 15.1979L257.94 15.191L257.938 15.184L257.219 15.3965ZM257.479 17.0781L256.73 17.1301L256.779 17.8281H257.479V17.0781ZM257.588 17.0781V17.8281H258.256L258.333 17.1645L257.588 17.0781ZM257.916 15.4238L258.633 15.6444L258.634 15.6408L257.916 15.4238ZM260.609 6.50977V5.75977H260.052L259.891 6.29284L260.609 6.50977ZM266.064 6.50977L266.767 6.77112L267.143 5.75977H266.064V6.50977ZM259.939 22.9844L260.642 23.247L260.642 23.2457L259.939 22.9844ZM257.041 27.4277L256.59 26.8289L256.587 26.8306L257.041 27.4277ZM250.383 28.4941H249.633V29.1046L250.231 29.2285L250.383 28.4941ZM250.383 24.2969L250.548 23.5654L249.633 23.3581V24.2969H250.383ZM254.211 23.4082L253.627 22.9377L253.621 22.9455L254.211 23.4082ZM255.059 21.7812L255.756 22.0583L255.866 21.7807L255.755 21.5031L255.059 21.7812ZM248.961 7.25977H254.594V5.75977H248.961V7.25977ZM253.874 6.72223L256.499 15.6089L257.938 15.184L255.313 6.2973L253.874 6.72223ZM256.496 15.595C256.606 15.9982 256.687 16.5068 256.73 17.1301L258.227 17.0262C258.179 16.3369 258.087 15.7244 257.942 15.1979L256.496 15.595ZM257.479 17.8281H257.588V16.3281H257.479V17.8281ZM258.333 17.1645C258.402 16.5693 258.504 16.0645 258.633 15.6444L257.199 15.2033C257.037 15.7311 256.92 16.3292 256.843 16.9917L258.333 17.1645ZM258.634 15.6408L261.327 6.72669L259.891 6.29284L257.198 15.2069L258.634 15.6408ZM260.609 7.25977H266.064V5.75977H260.609V7.25977ZM265.361 6.24841L259.236 22.723L260.642 23.2457L266.767 6.77112L265.361 6.24841ZM259.237 22.7217C258.478 24.7528 257.577 26.0842 256.59 26.8289L257.493 28.0266C258.802 27.0395 259.834 25.4086 260.642 23.247L259.237 22.7217ZM256.587 26.8306C255.612 27.5721 254.295 27.9766 252.57 27.9766V29.4766C254.528 29.4766 256.192 29.0152 257.495 28.0249L256.587 26.8306ZM252.57 27.9766C251.914 27.9766 251.236 27.9051 250.535 27.7598L250.231 29.2285C251.024 29.3931 251.805 29.4766 252.57 29.4766V27.9766ZM251.133 28.4941V24.2969H249.633V28.4941H251.133ZM250.217 25.0284C250.766 25.1527 251.375 25.2109 252.037 25.2109V23.7109C251.46 23.7109 250.966 23.6598 250.548 23.5654L250.217 25.0284ZM252.037 25.2109C252.608 25.2109 253.144 25.1007 253.623 24.8549L252.939 23.5201C252.707 23.6389 252.414 23.7109 252.037 23.7109V25.2109ZM253.623 24.8549C254.082 24.6195 254.475 24.2872 254.801 23.8709L253.621 22.9455C253.418 23.2037 253.191 23.3909 252.939 23.5201L253.623 24.8549ZM254.795 23.8787C255.132 23.4604 255.448 22.8324 255.756 22.0583L254.362 21.5042C254.068 22.2431 253.819 22.6998 253.627 22.9377L254.795 23.8787ZM255.755 21.5031L249.657 6.23165L248.264 6.78788L254.362 22.0594L255.755 21.5031Z" fill="#7B838D"/>
</svg>
