<svg width="233" height="29" viewBox="0 0 233 29" fill="none" xmlns="http://www.w3.org/2000/svg">
<path d="M8.86914 22L8.14766 22.2049L8.30245 22.75H8.86914V22ZM4.78125 7.60352L5.50273 7.39865L5.34794 6.85352H4.78125V7.60352ZM4.6582 7.60352V6.85352H3.84737L3.91048 7.66189L4.6582 7.60352ZM4.94531 22V22.75H5.69531V22H4.94531ZM0.160156 22H-0.589844V22.75H0.160156V22ZM0.160156 2.01172V1.26172H-0.589844V2.01172H0.160156ZM7.35156 2.01172L8.07114 1.80028L7.91289 1.26172H7.35156V2.01172ZM11.5215 16.2031L10.8019 16.4146L10.9602 16.9531H11.5215V16.2031ZM11.6309 16.2031V16.9531H12.1953L12.3516 16.4107L11.6309 16.2031ZM15.7188 2.01172V1.26172H15.1543L14.9981 1.80412L15.7188 2.01172ZM22.9238 2.01172H23.6738V1.26172H22.9238V2.01172ZM22.9238 22V22.75H23.6738V22H22.9238ZM17.9609 22H17.2109V22.75H17.9609V22ZM17.9746 11.7188L17.2249 11.6942L17.2247 11.7065L17.9746 11.7188ZM18.166 7.63086L18.9151 7.66863L18.9548 6.88086H18.166V7.63086ZM18.043 7.63086V6.88086H17.4745L17.3209 7.42818L18.043 7.63086ZM14.0098 22V22.75H14.5782L14.7319 22.2027L14.0098 22ZM9.59062 21.7951L5.50273 7.39865L4.05977 7.80838L8.14766 22.2049L9.59062 21.7951ZM4.78125 6.85352H4.6582V8.35352H4.78125V6.85352ZM3.91048 7.66189C4.10137 10.1071 4.19531 11.9894 4.19531 13.3184H5.69531C5.69531 11.9312 5.59785 10.0036 5.40593 7.54514L3.91048 7.66189ZM4.19531 13.3184V22H5.69531V13.3184H4.19531ZM4.94531 21.25H0.160156V22.75H4.94531V21.25ZM0.910156 22V2.01172H-0.589844V22H0.910156ZM0.160156 2.76172H7.35156V1.26172H0.160156V2.76172ZM6.63198 2.22316L10.8019 16.4146L12.2411 15.9917L8.07114 1.80028L6.63198 2.22316ZM11.5215 16.9531H11.6309V15.4531H11.5215V16.9531ZM12.3516 16.4107L16.4394 2.21932L14.9981 1.80412L10.9102 15.9955L12.3516 16.4107ZM15.7188 2.76172H22.9238V1.26172H15.7188V2.76172ZM22.1738 2.01172V22H23.6738V2.01172H22.1738ZM22.9238 21.25H17.9609V22.75H22.9238V21.25ZM18.7109 22V13.2363H17.2109V22H18.7109ZM18.7109 13.2363C18.7109 12.7855 18.7154 12.2838 18.7245 11.731L17.2247 11.7065C17.2155 12.2657 17.2109 12.7757 17.2109 13.2363H18.7109ZM18.7242 11.7433C18.7422 11.1954 18.8056 9.84025 18.9151 7.66863L17.417 7.59309C17.3077 9.76001 17.2435 11.1301 17.225 11.6942L18.7242 11.7433ZM18.166 6.88086H18.043V8.38086H18.166V6.88086ZM17.3209 7.42818L13.2877 21.7973L14.7319 22.2027L18.7651 7.83354L17.3209 7.42818ZM14.0098 21.25H8.86914V22.75H14.0098V21.25ZM37.0195 22L36.3487 22.3354L36.556 22.75H37.0195V22ZM35.9941 19.9492L36.665 19.6138L36.4577 19.1992H35.9941V19.9492ZM35.8848 19.9492V19.1992H35.526L35.3009 19.4785L35.8848 19.9492ZM27.3398 20.9609L26.7984 21.4799L27.3398 20.9609ZM27.8047 13.5918L28.2341 14.2067L28.2374 14.2044L27.8047 13.5918ZM32.7949 12.2246L32.7711 11.4749L32.7604 11.4754L32.7949 12.2246ZM35.3789 12.1426L35.4027 12.8922L36.1289 12.8691V12.1426H35.3789ZM29.1855 11.1582L28.4986 11.4591L28.7999 12.1471L29.4875 11.8447L29.1855 11.1582ZM27.6406 7.63086L27.2972 6.96413L26.6711 7.28665L26.9536 7.93175L27.6406 7.63086ZM39.084 7.71289L38.5799 8.26827L38.5823 8.27036L39.084 7.71289ZM40.7246 22V22.75H41.4746V22H40.7246ZM34.709 17.8848L34.2127 17.3224L34.2073 17.3273L34.709 17.8848ZM35.4062 15.082H36.1562V14.298L35.3729 14.3328L35.4062 15.082ZM34.1758 15.1367L34.203 15.8863L34.2091 15.886L34.1758 15.1367ZM37.6904 21.6646L36.665 19.6138L35.3233 20.2846L36.3487 22.3354L37.6904 21.6646ZM35.9941 19.1992H35.8848V20.6992H35.9941V19.1992ZM35.3009 19.4785C34.6275 20.3139 33.9839 20.8303 33.3821 21.0945L33.9851 22.468C34.8781 22.0759 35.702 21.371 36.4687 20.4199L35.3009 19.4785ZM33.3821 21.0945C32.7626 21.3665 31.9094 21.5234 30.7852 21.5234V23.0234C32.0307 23.0234 33.1098 22.8522 33.9851 22.468L33.3821 21.0945ZM30.7852 21.5234C29.4865 21.5234 28.5502 21.1399 27.8813 20.442L26.7984 21.4799C27.8066 22.5319 29.1671 23.0234 30.7852 23.0234V21.5234ZM27.8813 20.442C27.2139 19.7456 26.832 18.7237 26.832 17.2695H25.332C25.332 18.9872 25.7887 20.4263 26.7984 21.4799L27.8813 20.442ZM26.832 17.2695C26.832 15.8149 27.3243 14.8421 28.2341 14.2067L27.3752 12.9769C25.9882 13.9456 25.332 15.4247 25.332 17.2695H26.832ZM28.2374 14.2044C29.221 13.5096 30.7214 13.0708 32.8294 12.9738L32.7604 11.4754C30.5117 11.5789 28.6852 12.0516 27.372 12.9792L28.2374 14.2044ZM32.8187 12.9742L35.4027 12.8922L35.3551 11.393L32.7711 11.475L32.8187 12.9742ZM36.1289 12.1426V11.9238H34.6289V12.1426H36.1289ZM36.1289 11.9238C36.1289 11.1729 35.9437 10.4714 35.4414 9.96178C34.9371 9.45017 34.2395 9.25977 33.4922 9.25977V10.7598C34.0027 10.7598 34.2485 10.8884 34.3731 11.0148C34.4997 11.1432 34.6289 11.3987 34.6289 11.9238H36.1289ZM33.4922 9.25977C32.2104 9.25977 30.6633 9.68896 28.8836 10.4717L29.4875 11.8447C31.1895 11.0962 32.5136 10.7598 33.4922 10.7598V9.25977ZM29.8725 10.8573L28.3276 7.32997L26.9536 7.93175L28.4986 11.4591L29.8725 10.8573ZM27.9841 8.29759C29.6516 7.43857 31.8029 6.98633 34.4766 6.98633V5.48633C31.645 5.48633 29.239 5.96378 27.2972 6.96413L27.9841 8.29759ZM34.4766 6.98633C36.3444 6.98633 37.6761 7.44798 38.5799 8.26827L39.588 7.15751C38.3226 6.00906 36.5827 5.48633 34.4766 5.48633V6.98633ZM38.5823 8.27036C39.4863 9.08402 39.9746 10.2395 39.9746 11.8418H41.4746C41.4746 9.90761 40.8691 8.31051 39.5857 7.15542L38.5823 8.27036ZM39.9746 11.8418V22H41.4746V11.8418H39.9746ZM40.7246 21.25H37.0195V22.75H40.7246V21.25ZM33.0547 19.25C33.8759 19.25 34.6091 18.9837 35.2107 18.4422L34.2073 17.3273C33.8974 17.6062 33.5278 17.75 33.0547 17.75V19.25ZM35.2052 18.4471C35.8418 17.8854 36.1562 17.1423 36.1562 16.2852H34.6562C34.6562 16.7405 34.5058 17.0638 34.2128 17.3224L35.2052 18.4471ZM36.1562 16.2852V15.082H34.6562V16.2852H36.1562ZM35.3729 14.3328L34.1425 14.3875L34.2091 15.886L35.4396 15.8313L35.3729 14.3328ZM34.1486 14.3872C33.2027 14.4215 32.367 14.6135 31.7523 15.0658C31.094 15.5501 30.7871 16.2592 30.7871 17.0781H32.2871C32.2871 16.6666 32.42 16.4368 32.6413 16.274C32.9061 16.0792 33.3898 15.9157 34.203 15.8862L34.1486 14.3872ZM30.7871 17.0781C30.7871 17.6806 30.9502 18.2669 31.4037 18.6918C31.848 19.1081 32.4449 19.25 33.0547 19.25V17.75C32.6527 17.75 32.4908 17.6549 32.4293 17.5972C32.3769 17.5482 32.2871 17.4235 32.2871 17.0781H30.7871ZM55.0391 6.3457L55.1732 5.60778L55.1676 5.60679L55.0391 6.3457ZM55.3398 6.40039L56.0865 6.47121L56.1515 5.78567L55.474 5.66249L55.3398 6.40039ZM54.8613 11.4453L54.6794 12.1729L55.5256 12.3845L55.608 11.5161L54.8613 11.4453ZM50.5 12.0879L51.0303 12.6182L51.0348 12.6137L50.5 12.0879ZM49.707 22V22.75H50.457V22H49.707ZM44.3613 22H43.6113V22.75H44.3613V22ZM44.3613 6.50977V5.75977H43.6113V6.50977H44.3613ZM48.3398 6.50977L49.0506 6.27024L48.8785 5.75977H48.3398V6.50977ZM49.1738 8.98438L48.4631 9.2239L48.6351 9.73438H49.1738V8.98438ZM49.4336 8.98438V9.73438H49.8792L50.0923 9.343L49.4336 8.98438ZM51.293 7.00195L51.6937 7.6359L51.6956 7.6347L51.293 7.00195ZM53.7129 6.98633C54.1386 6.98633 54.5374 7.01972 54.9106 7.08461L55.1676 5.60679C54.7022 5.52586 54.2169 5.48633 53.7129 5.48633V6.98633ZM54.9049 7.0836L55.2057 7.13829L55.474 5.66249L55.1732 5.6078L54.9049 7.0836ZM54.5932 6.32957L54.1147 11.3745L55.608 11.5161L56.0865 6.47121L54.5932 6.32957ZM55.0432 10.7177C54.5187 10.5866 53.842 10.5312 53.043 10.5312V12.0312C53.7935 12.0312 54.329 12.0853 54.6794 12.1729L55.0432 10.7177ZM53.043 10.5312C51.7828 10.5312 50.6957 10.819 49.9652 11.5621L51.0348 12.6137C51.3616 12.2813 51.9698 12.0312 53.043 12.0312V10.5312ZM49.9697 11.5576C49.2576 12.2696 48.957 13.2532 48.957 14.3848H50.457C50.457 13.5111 50.6851 12.9635 51.0303 12.6182L49.9697 11.5576ZM48.957 14.3848V22H50.457V14.3848H48.957ZM49.707 21.25H44.3613V22.75H49.707V21.25ZM45.1113 22V6.50977H43.6113V22H45.1113ZM44.3613 7.25977H48.3398V5.75977H44.3613V7.25977ZM47.6291 6.74929L48.4631 9.2239L49.8846 8.74485L49.0506 6.27024L47.6291 6.74929ZM49.1738 9.73438H49.4336V8.23438H49.1738V9.73438ZM50.0923 9.343C50.4775 8.63546 51.0083 8.06922 51.6937 7.6359L50.8922 6.36801C49.9917 6.93729 49.2829 7.69267 48.7749 8.62575L50.0923 9.343ZM51.6956 7.6347C52.3984 7.18746 53.0674 6.98633 53.7129 6.98633V5.48633C52.736 5.48633 51.7917 5.79561 50.8903 6.36921L51.6956 7.6347ZM62.6953 13.291V14.041H63.1098L63.3304 13.69L62.6953 13.291ZM64.3496 10.8848L63.7622 10.4185L63.7621 10.4185L64.3496 10.8848ZM67.8223 6.50977V5.75977H67.46L67.2348 6.04349L67.8223 6.50977ZM73.7832 6.50977L74.3645 6.98371L75.3624 5.75977H73.7832V6.50977ZM68.4102 13.0996L67.8289 12.6257L67.4852 13.0472L67.7791 13.5048L68.4102 13.0996ZM74.125 22V22.75H75.4979L74.7561 21.5948L74.125 22ZM68.0137 22L67.3736 22.391L67.5929 22.75H68.0137V22ZM64.623 16.4492L65.2631 16.0583L64.8292 15.348L64.1678 15.8532L64.623 16.4492ZM62.8867 17.7754L62.4315 17.1794L62.1367 17.4045V17.7754H62.8867ZM62.8867 22V22.75H63.6367V22H62.8867ZM57.5137 22H56.7637V22.75H57.5137V22ZM57.5137 0.726562V-0.0234375H56.7637V0.726562H57.5137ZM62.8867 0.726562H63.6367V-0.0234375H62.8867V0.726562ZM62.5859 13.291L61.8439 13.1822L61.7179 14.041H62.5859V13.291ZM63.3304 13.69C63.971 12.6704 64.5059 11.8943 64.9371 11.351L63.7621 10.4185C63.2819 11.0236 62.7139 11.8518 62.0603 12.892L63.3304 13.69ZM64.937 11.351L68.4097 6.97604L67.2348 6.04349L63.7622 10.4185L64.937 11.351ZM67.8223 7.25977H73.7832V5.75977H67.8223V7.25977ZM73.2019 6.03582L67.8289 12.6257L68.9914 13.5736L74.3645 6.98371L73.2019 6.03582ZM67.7791 13.5048L73.4939 22.4052L74.7561 21.5948L69.0413 12.6944L67.7791 13.5048ZM74.125 21.25H68.0137V22.75H74.125V21.25ZM68.6537 21.609L65.2631 16.0583L63.983 16.8402L67.3736 22.391L68.6537 21.609ZM64.1678 15.8532L62.4315 17.1794L63.342 18.3714L65.0783 17.0453L64.1678 15.8532ZM62.1367 17.7754V22H63.6367V17.7754H62.1367ZM62.8867 21.25H57.5137V22.75H62.8867V21.25ZM58.2637 22V0.726562H56.7637V22H58.2637ZM57.5137 1.47656H62.8867V-0.0234375H57.5137V1.47656ZM62.1367 0.726562V9.09375H63.6367V0.726562H62.1367ZM62.1367 9.09375C62.1367 10.4896 62.0389 11.8523 61.8439 13.1822L63.328 13.3999C63.534 11.9954 63.6367 10.5599 63.6367 9.09375H62.1367ZM62.5859 14.041H62.6953V12.541H62.5859V14.041ZM77.4336 20.2227L76.912 20.7616L76.9155 20.7649L77.4336 20.2227ZM77.2832 8.3418L77.8276 8.85771L77.8292 8.85593L77.2832 8.3418ZM88.3438 8.06836L87.8232 8.60833L87.8272 8.61211L88.3438 8.06836ZM90.2578 15.6973V16.4473H91.0078V15.6973H90.2578ZM80.7012 15.6973V14.9473H79.9189L79.9518 15.7288L80.7012 15.6973ZM81.6445 17.7344L81.1653 18.3113L81.1696 18.3148L81.6445 17.7344ZM86.6758 18.2129L86.8376 18.9453L86.8438 18.9438L86.6758 18.2129ZM89.2461 17.2969H89.9961V16.1206L88.9297 16.6169L89.2461 17.2969ZM89.2461 21.1387L89.5873 21.8066L89.9961 21.5977V21.1387H89.2461ZM81.5488 10.4746L82.061 11.0225L82.0614 11.0221L81.5488 10.4746ZM80.8105 12.334L80.0633 12.2697L79.9933 13.084H80.8105V12.334ZM85.4043 12.334V13.084H86.1728L86.1541 12.3157L85.4043 12.334ZM84.7617 10.543L84.2036 11.0441L84.2093 11.0503L84.7617 10.543ZM83.4492 21.5234C81.0022 21.5234 79.2048 20.8776 77.9517 19.6804L76.9155 20.7649C78.5244 22.3021 80.7373 23.0234 83.4492 23.0234V21.5234ZM77.9552 19.6838C76.7174 18.4856 76.0508 16.7481 76.0508 14.3574H74.5508C74.5508 17.0344 75.306 19.2071 76.912 20.7616L77.9552 19.6838ZM76.0508 14.3574C76.0508 11.8629 76.6796 10.069 77.8276 8.8577L76.7388 7.82589C75.2435 9.40369 74.5508 11.6202 74.5508 14.3574H76.0508ZM77.8292 8.85593C78.9729 7.64128 80.6387 6.98633 82.9434 6.98633V5.48633C80.3444 5.48633 78.2367 6.23502 76.7372 7.82766L77.8292 8.85593ZM82.9434 6.98633C85.1477 6.98633 86.7368 7.561 87.8232 8.60831L88.8643 7.52841C87.4168 6.13301 85.4057 5.48633 82.9434 5.48633V6.98633ZM87.8272 8.61211C88.913 9.6436 89.5078 11.1714 89.5078 13.3184H91.0078C91.0078 10.8898 90.3266 8.9176 88.8603 7.52461L87.8272 8.61211ZM89.5078 13.3184V15.6973H91.0078V13.3184H89.5078ZM90.2578 14.9473H80.7012V16.4473H90.2578V14.9473ZM79.9518 15.7288C79.996 16.7771 80.3884 17.6659 81.1653 18.3113L82.1238 17.1575C81.7157 16.8185 81.4793 16.3492 81.4505 15.6657L79.9518 15.7288ZM81.1696 18.3148C81.9433 18.9478 82.9453 19.2227 84.0918 19.2227V17.7227C83.1784 17.7227 82.5489 17.5053 82.1195 17.1539L81.1696 18.3148ZM84.0918 19.2227C85.0761 19.2227 85.9925 19.1319 86.8376 18.9452L86.514 17.4806C85.7913 17.6402 84.9851 17.7227 84.0918 17.7227V19.2227ZM86.8438 18.9438C87.6986 18.7473 88.6056 18.4222 89.5625 17.9769L88.9297 16.6169C88.0455 17.0283 87.2389 17.3139 86.5078 17.482L86.8438 18.9438ZM88.4961 17.2969V21.1387H89.9961V17.2969H88.4961ZM88.9049 20.4708C88.1288 20.8673 87.332 21.1392 86.5129 21.2897L86.7839 22.765C87.7514 22.5873 88.6863 22.2668 89.5873 21.8066L88.9049 20.4708ZM86.5129 21.2897C85.6772 21.4432 84.6586 21.5234 83.4492 21.5234V23.0234C84.719 23.0234 85.8332 22.9396 86.7839 22.765L86.5129 21.2897ZM83.1348 9.12305C82.3305 9.12305 81.6142 9.38608 81.0363 9.92709L82.0614 11.0221C82.3403 10.7611 82.6813 10.623 83.1348 10.623V9.12305ZM81.0367 9.92671C80.4294 10.4944 80.1446 11.3245 80.0633 12.2697L81.5578 12.3983C81.6223 11.6482 81.8297 11.2387 82.061 11.0225L81.0367 9.92671ZM80.8105 13.084H85.4043V11.584H80.8105V13.084ZM86.1541 12.3157C86.1325 11.4308 85.8739 10.6452 85.3141 10.0357L84.2093 11.0503C84.4698 11.334 84.6396 11.7424 84.6545 12.3523L86.1541 12.3157ZM85.3198 10.0419C84.756 9.41403 83.9986 9.12305 83.1348 9.12305V10.623C83.6382 10.623 83.9654 10.7787 84.2037 11.0441L85.3198 10.0419ZM103.451 17.5156H104.201V16.454L103.201 16.8087L103.451 17.5156ZM103.451 21.4121L103.748 22.101L104.201 21.9058V21.4121H103.451ZM101.387 22.0684L101.244 21.3321L101.232 21.3346L101.387 22.0684ZM95.2207 20.9609L94.6624 21.4617L94.665 21.4646L95.2207 20.9609ZM94.0312 10.5156H94.7812V9.76562H94.0312V10.5156ZM92.1582 10.5156H91.4082V11.2656H92.1582V10.5156ZM92.1582 8.3418L91.7253 7.72936L91.4082 7.9535V8.3418H92.1582ZM94.5371 6.66016L94.97 7.27259L95.1442 7.14948L95.2275 6.95314L94.5371 6.66016ZM95.918 3.40625V2.65625H95.4215L95.2276 3.11326L95.918 3.40625ZM99.418 3.40625H100.168V2.65625H99.418V3.40625ZM99.418 6.50977H98.668V7.25977H99.418V6.50977ZM103.219 6.50977H103.969V5.75977H103.219V6.50977ZM103.219 10.5156V11.2656H103.969V10.5156H103.219ZM99.418 10.5156V9.76562H98.668V10.5156H99.418ZM100.867 18.7988C101.703 18.7988 102.653 18.5942 103.702 18.2225L103.201 16.8087C102.244 17.148 101.471 17.2988 100.867 17.2988V18.7988ZM102.701 17.5156V21.4121H104.201V17.5156H102.701ZM103.155 20.7232C102.476 21.0154 101.839 21.2164 101.244 21.3321L101.53 22.8046C102.247 22.6652 102.987 22.4286 103.748 22.101L103.155 20.7232ZM101.232 21.3346C100.649 21.4577 99.942 21.5234 99.1035 21.5234V23.0234C100.015 23.0234 100.83 22.9525 101.542 22.8022L101.232 21.3346ZM99.1035 21.5234C97.4097 21.5234 96.3672 21.1091 95.7764 20.4573L94.665 21.4646C95.6602 22.5627 97.2062 23.0234 99.1035 23.0234V21.5234ZM95.779 20.4602C95.161 19.7711 94.7812 18.6338 94.7812 16.9004H93.2812C93.2812 18.8129 93.6945 20.3826 94.6624 21.4617L95.779 20.4602ZM94.7812 16.9004V10.5156H93.2812V16.9004H94.7812ZM94.0312 9.76562H92.1582V11.2656H94.0312V9.76562ZM92.9082 10.5156V8.3418H91.4082V10.5156H92.9082ZM92.5911 8.95423L94.97 7.27259L94.1042 6.04772L91.7253 7.72936L92.5911 8.95423ZM95.2275 6.95314L96.6084 3.69924L95.2276 3.11326L93.8467 6.36717L95.2275 6.95314ZM95.918 4.15625H99.418V2.65625H95.918V4.15625ZM98.668 3.40625V6.50977H100.168V3.40625H98.668ZM99.418 7.25977H103.219V5.75977H99.418V7.25977ZM102.469 6.50977V10.5156H103.969V6.50977H102.469ZM103.219 9.76562H99.418V11.2656H103.219V9.76562ZM98.668 10.5156V16.5449H100.168V10.5156H98.668ZM98.668 16.5449C98.668 17.155 98.8146 17.7516 99.2402 18.1933C99.6708 18.6401 100.261 18.7988 100.867 18.7988V17.2988C100.507 17.2988 100.373 17.2069 100.32 17.1524C100.263 17.0928 100.168 16.9374 100.168 16.5449H98.668ZM126.01 22L125.284 22.1906L125.431 22.75H126.01V22ZM125.025 18.2539L125.751 18.0633L125.604 17.5039H125.025V18.2539ZM118.531 18.2539V17.5039H117.957L117.807 18.0584L118.531 18.2539ZM117.52 22V22.75H118.094L118.244 22.1955L117.52 22ZM111.586 22L110.873 21.7682L110.554 22.75H111.586V22ZM118.107 1.92969V1.17969H117.563L117.394 1.69792L118.107 1.92969ZM125.312 1.92969L126.025 1.69528L125.855 1.17969H125.312V1.92969ZM131.916 22V22.75H132.952L132.628 21.7656L131.916 22ZM123.904 13.8242V14.5742H124.877L124.63 13.6338L123.904 13.8242ZM123.043 10.543L123.768 10.3525L123.766 10.3441L123.043 10.543ZM122.305 7.71289L121.576 7.89075L121.577 7.89614L122.305 7.71289ZM121.744 5.22461L122.482 5.09045L121.006 5.09427L121.744 5.22461ZM121.252 7.52148L120.521 7.35283L120.52 7.35879L121.252 7.52148ZM119.652 13.8242L118.927 13.6324L118.678 14.5742H119.652V13.8242ZM126.735 21.8094L125.751 18.0633L124.3 18.4445L125.284 22.1906L126.735 21.8094ZM125.025 17.5039H118.531V19.0039H125.025V17.5039ZM117.807 18.0584L116.795 21.8045L118.244 22.1955L119.255 18.4495L117.807 18.0584ZM117.52 21.25H111.586V22.75H117.52V21.25ZM112.299 22.2318L118.821 2.16146L117.394 1.69792L110.873 21.7682L112.299 22.2318ZM118.107 2.67969H125.312V1.17969H118.107V2.67969ZM124.6 2.16409L131.204 22.2344L132.628 21.7656L126.025 1.69528L124.6 2.16409ZM131.916 21.25H126.01V22.75H131.916V21.25ZM124.63 13.6338L123.768 10.3525L122.318 10.7334L123.179 14.0146L124.63 13.6338ZM123.766 10.3441C123.568 9.62219 123.323 8.68458 123.032 7.52964L121.577 7.89614C121.87 9.05631 122.117 10.0054 122.32 10.7418L123.766 10.3441ZM123.033 7.53504C122.751 6.37802 122.569 5.5677 122.482 5.09045L121.006 5.35877C121.102 5.88412 121.293 6.73266 121.576 7.89074L123.033 7.53504ZM121.006 5.09427C120.927 5.5381 120.767 6.28703 120.521 7.35284L121.983 7.69013C122.229 6.62313 122.397 5.8408 122.483 5.35495L121.006 5.09427ZM120.52 7.35879C120.287 8.40817 119.757 10.4947 118.927 13.6324L120.377 14.016C121.206 10.8829 121.743 8.76761 121.984 7.68418L120.52 7.35879ZM119.652 14.5742H123.904V13.0742H119.652V14.5742ZM143.551 22H142.801V22.75H143.551V22ZM143.1 11.2266L142.443 11.5889L142.447 11.5956L142.451 11.6023L143.1 11.2266ZM139.723 11.5137L139.067 11.1487L139.723 11.5137ZM139.121 22V22.75H139.871V22H139.121ZM133.775 22H133.025V22.75H133.775V22ZM133.775 6.50977V5.75977H133.025V6.50977H133.775ZM137.809 6.50977L138.516 6.262L138.341 5.75977H137.809V6.50977ZM138.479 8.42383L137.771 8.67159L137.946 9.17383H138.479V8.42383ZM138.793 8.42383V9.17383H139.209L139.429 8.82133L138.793 8.42383ZM140.68 6.7832L140.372 6.09911L140.369 6.10043L140.68 6.7832ZM147.461 7.72656L146.918 8.24431L146.921 8.24689L147.461 7.72656ZM148.896 22V22.75H149.646V22H148.896ZM144.301 22V13.5508H142.801V22H144.301ZM144.301 13.5508C144.301 12.4716 144.147 11.5395 143.749 10.8508L142.451 11.6023C142.653 11.9527 142.801 12.5701 142.801 13.5508H144.301ZM143.756 10.8643C143.319 10.072 142.578 9.68359 141.678 9.68359V11.1836C142.09 11.1836 142.297 11.3239 142.443 11.5889L143.756 10.8643ZM141.678 9.68359C140.535 9.68359 139.616 10.1646 139.067 11.1487L140.378 11.8786C140.632 11.4226 141.016 11.1836 141.678 11.1836V9.68359ZM139.067 11.1487C138.566 12.0493 138.371 13.4543 138.371 15.2188H139.871C139.871 13.4832 140.077 12.4182 140.378 11.8786L139.067 11.1487ZM138.371 15.2188V22H139.871V15.2188H138.371ZM139.121 21.25H133.775V22.75H139.121V21.25ZM134.525 22V6.50977H133.025V22H134.525ZM133.775 7.25977H137.809V5.75977H133.775V7.25977ZM137.101 6.75753L137.771 8.67159L139.186 8.17607L138.516 6.262L137.101 6.75753ZM138.479 9.17383H138.793V7.67383H138.479V9.17383ZM139.429 8.82133C139.805 8.22042 140.319 7.77114 140.99 7.46598L140.369 6.10043C139.437 6.52443 138.693 7.1689 138.157 8.02633L139.429 8.82133ZM140.987 7.46729C141.686 7.15322 142.508 6.98633 143.469 6.98633V5.48633C142.333 5.48633 141.296 5.68402 140.372 6.09912L140.987 7.46729ZM143.469 6.98633C145.031 6.98633 146.145 7.4342 146.918 8.2443L148.004 7.20882C146.881 6.03194 145.333 5.48633 143.469 5.48633V6.98633ZM146.921 8.24689C147.706 9.06164 148.146 10.2513 148.146 11.9238H149.646C149.646 9.98694 149.13 8.37846 148.001 7.20624L146.921 8.24689ZM148.146 11.9238V22H149.646V11.9238H148.146ZM148.896 21.25H143.551V22.75H148.896V21.25ZM162.637 22L161.966 22.3354L162.173 22.75H162.637V22ZM161.611 19.9492L162.282 19.6138L162.075 19.1992H161.611V19.9492ZM161.502 19.9492V19.1992H161.143L160.918 19.4785L161.502 19.9492ZM152.957 20.9609L152.416 21.4799L152.957 20.9609ZM153.422 13.5918L153.851 14.2067L153.855 14.2044L153.422 13.5918ZM158.412 12.2246L158.388 11.4749L158.378 11.4754L158.412 12.2246ZM160.996 12.1426L161.02 12.8922L161.746 12.8691V12.1426H160.996ZM154.803 11.1582L154.116 11.4591L154.417 12.1471L155.105 11.8447L154.803 11.1582ZM153.258 7.63086L152.914 6.96413L152.288 7.28665L152.571 7.93175L153.258 7.63086ZM164.701 7.71289L164.197 8.26827L164.199 8.27036L164.701 7.71289ZM166.342 22V22.75H167.092V22H166.342ZM160.326 17.8848L159.83 17.3224L159.824 17.3273L160.326 17.8848ZM161.023 15.082H161.773V14.298L160.99 14.3328L161.023 15.082ZM159.793 15.1367L159.82 15.8863L159.826 15.886L159.793 15.1367ZM163.308 21.6646L162.282 19.6138L160.941 20.2846L161.966 22.3354L163.308 21.6646ZM161.611 19.1992H161.502V20.6992H161.611V19.1992ZM160.918 19.4785C160.245 20.3139 159.601 20.8303 158.999 21.0945L159.602 22.468C160.495 22.0759 161.319 21.371 162.086 20.4199L160.918 19.4785ZM158.999 21.0945C158.38 21.3665 157.527 21.5234 156.402 21.5234V23.0234C157.648 23.0234 158.727 22.8522 159.602 22.468L158.999 21.0945ZM156.402 21.5234C155.104 21.5234 154.167 21.1399 153.499 20.442L152.416 21.4799C153.424 22.5319 154.784 23.0234 156.402 23.0234V21.5234ZM153.499 20.442C152.831 19.7456 152.449 18.7237 152.449 17.2695H150.949C150.949 18.9872 151.406 20.4263 152.416 21.4799L153.499 20.442ZM152.449 17.2695C152.449 15.8149 152.941 14.8421 153.851 14.2067L152.992 12.9769C151.605 13.9456 150.949 15.4247 150.949 17.2695H152.449ZM153.855 14.2044C154.838 13.5096 156.339 13.0708 158.447 12.9738L158.378 11.4754C156.129 11.5789 154.302 12.0516 152.989 12.9792L153.855 14.2044ZM158.436 12.9742L161.02 12.8922L160.972 11.393L158.388 11.475L158.436 12.9742ZM161.746 12.1426V11.9238H160.246V12.1426H161.746ZM161.746 11.9238C161.746 11.1729 161.561 10.4714 161.059 9.96178C160.554 9.45017 159.857 9.25977 159.109 9.25977V10.7598C159.62 10.7598 159.866 10.8884 159.99 11.0148C160.117 11.1432 160.246 11.3987 160.246 11.9238H161.746ZM159.109 9.25977C157.828 9.25977 156.281 9.68896 154.501 10.4717L155.105 11.8447C156.807 11.0962 158.131 10.7598 159.109 10.7598V9.25977ZM155.49 10.8573L153.945 7.32997L152.571 7.93175L154.116 11.4591L155.49 10.8573ZM153.601 8.29759C155.269 7.43857 157.42 6.98633 160.094 6.98633V5.48633C157.262 5.48633 154.856 5.96378 152.914 6.96413L153.601 8.29759ZM160.094 6.98633C161.962 6.98633 163.293 7.44798 164.197 8.26827L165.205 7.15751C163.94 6.00906 162.2 5.48633 160.094 5.48633V6.98633ZM164.199 8.27036C165.104 9.08402 165.592 10.2395 165.592 11.8418H167.092C167.092 9.90761 166.486 8.31051 165.203 7.15542L164.199 8.27036ZM165.592 11.8418V22H167.092V11.8418H165.592ZM166.342 21.25H162.637V22.75H166.342V21.25ZM158.672 19.25C159.493 19.25 160.226 18.9837 160.828 18.4422L159.824 17.3273C159.515 17.6062 159.145 17.75 158.672 17.75V19.25ZM160.822 18.4471C161.459 17.8854 161.773 17.1423 161.773 16.2852H160.273C160.273 16.7405 160.123 17.0638 159.83 17.3224L160.822 18.4471ZM161.773 16.2852V15.082H160.273V16.2852H161.773ZM160.99 14.3328L159.76 14.3875L159.826 15.886L161.057 15.8313L160.99 14.3328ZM159.766 14.3872C158.82 14.4215 157.984 14.6135 157.369 15.0658C156.711 15.5501 156.404 16.2592 156.404 17.0781H157.904C157.904 16.6666 158.037 16.4368 158.258 16.274C158.523 16.0792 159.007 15.9157 159.82 15.8862L159.766 14.3872ZM156.404 17.0781C156.404 17.6806 156.567 18.2669 157.021 18.6918C157.465 19.1081 158.062 19.25 158.672 19.25V17.75C158.27 17.75 158.108 17.6549 158.046 17.5972C157.994 17.5482 157.904 17.4235 157.904 17.0781H156.404ZM175.324 22V22.75H176.074V22H175.324ZM169.979 22H169.229V22.75H169.979V22ZM169.979 0.726562V-0.0234375H169.229V0.726562H169.979ZM175.324 0.726562H176.074V-0.0234375H175.324V0.726562ZM175.324 21.25H169.979V22.75H175.324V21.25ZM170.729 22V0.726562H169.229V22H170.729ZM169.979 1.47656H175.324V-0.0234375H169.979V1.47656ZM174.574 0.726562V22H176.074V0.726562H174.574ZM177.156 6.50977V5.75977H176.049L176.46 6.78788L177.156 6.50977ZM182.789 6.50977L183.508 6.2973L183.35 5.75977H182.789V6.50977ZM185.414 15.3965L186.137 15.1979L186.135 15.191L186.133 15.184L185.414 15.3965ZM185.674 17.0781L184.926 17.1301L184.974 17.8281H185.674V17.0781ZM185.783 17.0781V17.8281H186.451L186.528 17.1645L185.783 17.0781ZM186.111 15.4238L186.828 15.6444L186.829 15.6408L186.111 15.4238ZM188.805 6.50977V5.75977H188.248L188.087 6.29284L188.805 6.50977ZM194.26 6.50977L194.963 6.77112L195.339 5.75977H194.26V6.50977ZM188.135 22.9844L188.837 23.247L188.838 23.2457L188.135 22.9844ZM185.236 27.4277L184.785 26.8289L184.783 26.8306L185.236 27.4277ZM178.578 28.4941H177.828V29.1046L178.426 29.2285L178.578 28.4941ZM178.578 24.2969L178.744 23.5654L177.828 23.3581V24.2969H178.578ZM182.406 23.4082L181.822 22.9377L181.816 22.9455L182.406 23.4082ZM183.254 21.7812L183.951 22.0583L184.061 21.7807L183.95 21.5031L183.254 21.7812ZM177.156 7.25977H182.789V5.75977H177.156V7.25977ZM182.07 6.72223L184.695 15.6089L186.133 15.184L183.508 6.2973L182.07 6.72223ZM184.691 15.595C184.801 15.9982 184.882 16.5068 184.926 17.1301L186.422 17.0262C186.374 16.3369 186.282 15.7244 186.137 15.1979L184.691 15.595ZM185.674 17.8281H185.783V16.3281H185.674V17.8281ZM186.528 17.1645C186.597 16.5693 186.699 16.0645 186.828 15.6444L185.395 15.2033C185.232 15.7311 185.115 16.3292 185.038 16.9917L186.528 17.1645ZM186.829 15.6408L189.523 6.72669L188.087 6.29284L185.393 15.2069L186.829 15.6408ZM188.805 7.25977H194.26V5.75977H188.805V7.25977ZM193.557 6.24841L187.432 22.723L188.838 23.2457L194.963 6.77112L193.557 6.24841ZM187.432 22.7217C186.673 24.7528 185.772 26.0842 184.785 26.8289L185.688 28.0266C186.997 27.0395 188.029 25.4086 188.837 23.247L187.432 22.7217ZM184.783 26.8306C183.807 27.5721 182.49 27.9766 180.766 27.9766V29.4766C182.723 29.4766 184.387 29.0152 185.69 28.0249L184.783 26.8306ZM180.766 27.9766C180.109 27.9766 179.431 27.9051 178.73 27.7598L178.426 29.2285C179.22 29.3931 180 29.4766 180.766 29.4766V27.9766ZM179.328 28.4941V24.2969H177.828V28.4941H179.328ZM178.413 25.0284C178.961 25.1527 179.57 25.2109 180.232 25.2109V23.7109C179.655 23.7109 179.161 23.6598 178.744 23.5654L178.413 25.0284ZM180.232 25.2109C180.803 25.2109 181.339 25.1007 181.819 24.8549L181.134 23.5201C180.903 23.6389 180.609 23.7109 180.232 23.7109V25.2109ZM181.819 24.8549C182.278 24.6195 182.67 24.2872 182.997 23.8709L181.816 22.9455C181.614 23.2037 181.386 23.3909 181.134 23.5201L181.819 24.8549ZM182.99 23.8787C183.327 23.4604 183.643 22.8324 183.951 22.0583L182.557 21.5042C182.263 22.2431 182.014 22.6998 181.822 22.9377L182.99 23.8787ZM183.95 21.5031L177.853 6.23165L176.46 6.78788L182.557 22.0594L183.95 21.5031ZM198.525 22.082L198.637 21.3403L198.629 21.3393L198.525 22.082ZM195.928 21.4121H195.178V21.9337L195.667 22.1152L195.928 21.4121ZM195.928 17.1328L196.23 16.4462L195.178 15.9839V17.1328H195.928ZM198.648 18.0352L198.473 18.7643L198.474 18.7647L198.648 18.0352ZM202.545 16.873L202.121 17.4916L202.131 17.4985L202.141 17.5051L202.545 16.873ZM199.729 15.6152L199.444 16.3092L199.451 16.3122L199.729 15.6152ZM196.748 13.6328L196.15 14.0852L196.152 14.0887L196.748 13.6328ZM197.568 7.43945L198.007 8.04773L197.568 7.43945ZM205.156 6.57812L204.971 7.3049L204.98 7.30701L205.156 6.57812ZM207.959 7.54883L208.65 7.83963L208.936 7.16143L208.263 6.8632L207.959 7.54883ZM206.51 10.9941L206.203 11.6784L206.903 11.9928L207.201 11.2849L206.51 10.9941ZM204.254 10.1875L204.047 10.9084L204.054 10.9105L204.254 10.1875ZM201.451 11.1719L201.049 11.8046L201.06 11.8117L201.071 11.8183L201.451 11.1719ZM204.104 12.3066L204.389 11.613L204.378 11.6088L204.104 12.3066ZM206.523 13.6191L206.051 14.2019L206.056 14.2058L206.523 13.6191ZM207.699 15.1367L207.008 15.4282L207.011 15.4348L207.014 15.4413L207.699 15.1367ZM207.332 17.2422C207.332 18.7115 206.844 19.7217 205.937 20.402L206.837 21.602C208.19 20.5869 208.832 19.0906 208.832 17.2422H207.332ZM205.937 20.402C204.987 21.1145 203.549 21.5234 201.52 21.5234V23.0234C203.72 23.0234 205.526 22.5847 206.837 21.602L205.937 20.402ZM201.52 21.5234C200.397 21.5234 199.438 21.4609 198.637 21.3404L198.414 22.8237C199.308 22.9583 200.345 23.0234 201.52 23.0234V21.5234ZM198.629 21.3393C197.84 21.229 197.027 21.0201 196.189 20.709L195.667 22.1152C196.597 22.4603 197.515 22.6981 198.422 22.8248L198.629 21.3393ZM196.678 21.4121V17.1328H195.178V21.4121H196.678ZM195.626 17.8194C196.501 18.2038 197.45 18.5181 198.473 18.7643L198.824 17.306C197.878 17.0782 197.014 16.7909 196.23 16.4462L195.626 17.8194ZM198.474 18.7647C199.508 19.0112 200.452 19.1406 201.301 19.1406V17.6406C200.6 17.6406 199.776 17.533 198.822 17.3056L198.474 18.7647ZM201.301 19.1406C201.913 19.1406 202.477 19.0744 202.915 18.8746C203.143 18.7705 203.367 18.6162 203.534 18.3867C203.708 18.1492 203.787 17.8758 203.787 17.5977H202.287C202.287 17.5838 202.294 17.5418 202.323 17.5024C202.346 17.4712 202.353 17.4821 202.291 17.5102C202.15 17.5747 201.846 17.6406 201.301 17.6406V19.1406ZM203.787 17.5977C203.787 16.969 203.393 16.5248 202.949 16.241L202.141 17.5051C202.247 17.5724 202.284 17.6193 202.294 17.6328C202.297 17.6383 202.295 17.6359 202.292 17.6262C202.289 17.6161 202.287 17.6056 202.287 17.5977H203.787ZM202.969 16.2545C202.746 16.1015 202.372 15.9172 201.907 15.7097C201.425 15.4941 200.789 15.23 200.006 14.9183L199.451 16.3122C200.226 16.6203 200.84 16.8757 201.296 17.0793C201.77 17.2912 202.025 17.4259 202.121 17.4916L202.969 16.2545ZM200.013 14.9214C198.643 14.3591 197.791 13.7619 197.344 13.177L196.152 14.0887C196.835 14.9803 197.971 15.7047 199.444 16.3091L200.013 14.9214ZM197.346 13.1805C196.899 12.5895 196.65 11.8149 196.65 10.8027H195.15C195.15 12.0692 195.466 13.1814 196.15 14.0851L197.346 13.1805ZM196.65 10.8027C196.65 9.58933 197.102 8.70068 198.007 8.04773L197.13 6.83118C195.811 7.7824 195.15 9.13593 195.15 10.8027H196.65ZM198.007 8.04773C198.943 7.37256 200.338 6.98633 202.285 6.98633V5.48633C200.167 5.48633 198.418 5.90218 197.13 6.83118L198.007 8.04773ZM202.285 6.98633C203.25 6.98633 204.144 7.09399 204.971 7.30485L205.342 5.8514C204.382 5.60653 203.362 5.48633 202.285 5.48633V6.98633ZM204.98 7.30701C205.833 7.51385 206.724 7.82183 207.655 8.23445L208.263 6.8632C207.261 6.41906 206.284 6.0799 205.333 5.84924L204.98 7.30701ZM207.268 7.25803L205.818 10.7033L207.201 11.2849L208.65 7.83963L207.268 7.25803ZM206.817 10.3099C206.069 9.9744 205.281 9.69285 204.453 9.46451L204.054 10.9105C204.813 11.1197 205.528 11.3759 206.203 11.6784L206.817 10.3099ZM204.461 9.46667C203.638 9.23021 202.914 9.0957 202.312 9.0957V10.5957C202.713 10.5957 203.284 10.6891 204.047 10.9083L204.461 9.46667ZM202.312 9.0957C201.838 9.0957 201.372 9.1499 200.998 9.33274C200.801 9.42924 200.606 9.57313 200.462 9.78506C200.314 10.0025 200.25 10.2467 200.25 10.4883H201.75C201.75 10.5157 201.741 10.5725 201.702 10.6292C201.667 10.6805 201.636 10.6906 201.658 10.68C201.682 10.6681 201.743 10.645 201.859 10.6261C201.973 10.6075 202.122 10.5957 202.312 10.5957V9.0957ZM200.25 10.4883C200.25 11.0948 200.615 11.529 201.049 11.8046L201.854 10.5391C201.766 10.4835 201.741 10.4476 201.739 10.4443C201.738 10.4436 201.742 10.4493 201.745 10.4605C201.749 10.472 201.75 10.4821 201.75 10.4883H200.25ZM201.071 11.8183C201.444 12.0376 202.394 12.4396 203.829 13.0045L204.378 11.6088C202.896 11.0252 202.078 10.6707 201.831 10.5254L201.071 11.8183ZM203.818 13.0001C204.876 13.436 205.606 13.8407 206.051 14.2018L206.996 13.0364C206.384 12.5408 205.5 12.0705 204.389 11.6131L203.818 13.0001ZM206.056 14.2058C206.504 14.5629 206.815 14.9702 207.008 15.4282L208.39 14.8452C208.091 14.1366 207.618 13.5321 206.991 13.0325L206.056 14.2058ZM207.014 15.4413C207.215 15.8942 207.332 16.4857 207.332 17.2422H208.832C208.832 16.3398 208.694 15.5277 208.385 14.8321L207.014 15.4413ZM216.422 22V22.75H217.172V22H216.422ZM211.076 22H210.326V22.75H211.076V22ZM211.076 6.50977V5.75977H210.326V6.50977H211.076ZM216.422 6.50977H217.172V5.75977H216.422V6.50977ZM215.943 0.876953L215.448 1.43999L215.943 0.876953ZM216.422 21.25H211.076V22.75H216.422V21.25ZM211.826 22V6.50977H210.326V22H211.826ZM211.076 7.25977H216.422V5.75977H211.076V7.25977ZM215.672 6.50977V22H217.172V6.50977H215.672ZM211.689 2.6543C211.689 1.98876 211.871 1.63143 212.104 1.427L211.115 0.299562C210.454 0.878983 210.189 1.71567 210.189 2.6543H211.689ZM212.104 1.427C212.348 1.21326 212.845 1.02539 213.77 1.02539V-0.474609C212.707 -0.474609 211.764 -0.270549 211.115 0.299562L212.104 1.427ZM213.77 1.02539C214.689 1.02539 215.193 1.21579 215.448 1.43999L216.439 0.313918C215.782 -0.263967 214.837 -0.474609 213.77 -0.474609V1.02539ZM215.448 1.43999C215.698 1.65969 215.877 2.01902 215.877 2.6543H217.377C217.377 1.72186 217.101 0.896296 216.439 0.313918L215.448 1.43999ZM215.877 2.6543C215.877 3.27984 215.694 3.62656 215.436 3.83886C215.15 4.07419 214.638 4.25586 213.77 4.25586V5.75586C214.806 5.75586 215.723 5.5456 216.389 4.99708C217.084 4.42552 217.377 3.59646 217.377 2.6543H215.877ZM213.77 4.25586C212.911 4.25586 212.407 4.07474 212.126 3.84112C211.872 3.6296 211.689 3.28223 211.689 2.6543H210.189C210.189 3.59407 210.479 4.42248 211.168 4.99482C211.83 5.54505 212.741 5.75586 213.77 5.75586V4.25586ZM222.561 22.082L222.672 21.3403L222.664 21.3393L222.561 22.082ZM219.963 21.4121H219.213V21.9337L219.702 22.1152L219.963 21.4121ZM219.963 17.1328L220.265 16.4462L219.213 15.9839V17.1328H219.963ZM222.684 18.0352L222.508 18.7643L222.51 18.7647L222.684 18.0352ZM226.58 16.873L226.156 17.4916L226.166 17.4985L226.176 17.5051L226.58 16.873ZM223.764 15.6152L223.479 16.3092L223.487 16.3122L223.764 15.6152ZM220.783 13.6328L220.185 14.0852L220.188 14.0887L220.783 13.6328ZM221.604 7.43945L222.042 8.04773L221.604 7.43945ZM229.191 6.57812L229.006 7.3049L229.015 7.30701L229.191 6.57812ZM231.994 7.54883L232.685 7.83963L232.971 7.16143L232.298 6.8632L231.994 7.54883ZM230.545 10.9941L230.238 11.6784L230.939 11.9928L231.236 11.2849L230.545 10.9941ZM228.289 10.1875L228.082 10.9084L228.09 10.9105L228.289 10.1875ZM225.486 11.1719L225.084 11.8046L225.095 11.8117L225.106 11.8183L225.486 11.1719ZM228.139 12.3066L228.424 11.613L228.413 11.6088L228.139 12.3066ZM230.559 13.6191L230.086 14.2019L230.091 14.2058L230.559 13.6191ZM231.734 15.1367L231.043 15.4282L231.046 15.4348L231.049 15.4413L231.734 15.1367ZM231.367 17.2422C231.367 18.7115 230.879 19.7217 229.972 20.402L230.872 21.602C232.225 20.5869 232.867 19.0906 232.867 17.2422H231.367ZM229.972 20.402C229.022 21.1145 227.584 21.5234 225.555 21.5234V23.0234C227.755 23.0234 229.562 22.5847 230.872 21.602L229.972 20.402ZM225.555 21.5234C224.432 21.5234 223.473 21.4609 222.672 21.3404L222.449 22.8237C223.344 22.9583 224.381 23.0234 225.555 23.0234V21.5234ZM222.664 21.3393C221.875 21.229 221.062 21.0201 220.224 20.709L219.702 22.1152C220.632 22.4603 221.55 22.6981 222.457 22.8248L222.664 21.3393ZM220.713 21.4121V17.1328H219.213V21.4121H220.713ZM219.661 17.8194C220.536 18.2038 221.485 18.5181 222.508 18.7643L222.859 17.306C221.913 17.0782 221.049 16.7909 220.265 16.4462L219.661 17.8194ZM222.51 18.7647C223.543 19.0112 224.487 19.1406 225.336 19.1406V17.6406C224.635 17.6406 223.811 17.533 222.858 17.3056L222.51 18.7647ZM225.336 19.1406C225.948 19.1406 226.512 19.0744 226.95 18.8746C227.178 18.7705 227.402 18.6162 227.57 18.3867C227.743 18.1492 227.822 17.8758 227.822 17.5977H226.322C226.322 17.5838 226.329 17.5418 226.358 17.5024C226.381 17.4712 226.388 17.4821 226.327 17.5102C226.185 17.5747 225.881 17.6406 225.336 17.6406V19.1406ZM227.822 17.5977C227.822 16.969 227.428 16.5248 226.984 16.241L226.176 17.5051C226.282 17.5724 226.32 17.6193 226.329 17.6328C226.333 17.6383 226.33 17.6359 226.327 17.6262C226.324 17.6161 226.322 17.6056 226.322 17.5977H227.822ZM227.004 16.2545C226.781 16.1015 226.407 15.9172 225.943 15.7097C225.46 15.4941 224.825 15.23 224.041 14.9183L223.487 16.3122C224.261 16.6203 224.875 16.8757 225.331 17.0793C225.805 17.2912 226.06 17.4259 226.156 17.4916L227.004 16.2545ZM224.048 14.9214C222.678 14.3591 221.826 13.7619 221.379 13.177L220.188 14.0887C220.87 14.9803 222.006 15.7047 223.479 16.3091L224.048 14.9214ZM221.381 13.1805C220.935 12.5895 220.686 11.8149 220.686 10.8027H219.186C219.186 12.0692 219.502 13.1814 220.185 14.0851L221.381 13.1805ZM220.686 10.8027C220.686 9.58933 221.137 8.70068 222.042 8.04773L221.165 6.83118C219.846 7.7824 219.186 9.13593 219.186 10.8027H220.686ZM222.042 8.04773C222.978 7.37256 224.373 6.98633 226.32 6.98633V5.48633C224.202 5.48633 222.453 5.90218 221.165 6.83118L222.042 8.04773ZM226.32 6.98633C227.285 6.98633 228.179 7.09399 229.006 7.30485L229.377 5.8514C228.417 5.60653 227.397 5.48633 226.32 5.48633V6.98633ZM229.015 7.30701C229.868 7.51385 230.76 7.82183 231.69 8.23445L232.298 6.8632C231.296 6.41906 230.32 6.0799 229.368 5.84924L229.015 7.30701ZM231.303 7.25803L229.854 10.7033L231.236 11.2849L232.685 7.83963L231.303 7.25803ZM230.852 10.3099C230.104 9.9744 229.316 9.69285 228.489 9.46451L228.09 10.9105C228.848 11.1197 229.564 11.3759 230.238 11.6784L230.852 10.3099ZM228.496 9.46667C227.673 9.23021 226.949 9.0957 226.348 9.0957V10.5957C226.748 10.5957 227.319 10.6891 228.082 10.9083L228.496 9.46667ZM226.348 9.0957C225.873 9.0957 225.407 9.1499 225.033 9.33274C224.836 9.42924 224.642 9.57313 224.497 9.78506C224.349 10.0025 224.285 10.2467 224.285 10.4883H225.785C225.785 10.5157 225.776 10.5725 225.737 10.6292C225.702 10.6805 225.671 10.6906 225.693 10.68C225.717 10.6681 225.778 10.645 225.894 10.6261C226.008 10.6075 226.158 10.5957 226.348 10.5957V9.0957ZM224.285 10.4883C224.285 11.0948 224.651 11.529 225.084 11.8046L225.889 10.5391C225.802 10.4835 225.776 10.4476 225.774 10.4443C225.773 10.4436 225.777 10.4493 225.781 10.4605C225.784 10.472 225.785 10.4821 225.785 10.4883H224.285ZM225.106 11.8183C225.479 12.0376 226.429 12.4396 227.864 13.0045L228.413 11.6088C226.931 11.0252 226.114 10.6707 225.867 10.5254L225.106 11.8183ZM227.853 13.0001C228.912 13.436 229.641 13.8407 230.086 14.2018L231.031 13.0364C230.419 12.5408 229.535 12.0705 228.424 11.6131L227.853 13.0001ZM230.091 14.2058C230.54 14.5629 230.85 14.9702 231.043 15.4282L232.425 14.8452C232.126 14.1366 231.653 13.5321 231.026 13.0325L230.091 14.2058ZM231.049 15.4413C231.25 15.8942 231.367 16.4857 231.367 17.2422H232.867C232.867 16.3398 232.729 15.5277 232.42 14.8321L231.049 15.4413Z" fill="#7B838D"/>
</svg>
