<svg width="170" height="29" viewBox="0 0 170 29" fill="none" xmlns="http://www.w3.org/2000/svg">
<path d="M12.6836 13.5508L13.1925 14.1017L13.1926 14.1016L12.6836 13.5508ZM5.56055 15.3691V14.6191H4.81055V15.3691H5.56055ZM5.56055 22V22.75H6.31055V22H5.56055ZM0.160156 22H-0.589844V22.75H0.160156V22ZM0.160156 2.01172V1.26172H-0.589844V2.01172H0.160156ZM12.7656 3.66602L12.2732 4.23171L12.7656 3.66602ZM5.56055 10.9668H4.81055V11.7168H5.56055V10.9668ZM8.47266 10.2832L7.95797 9.73763L7.95282 9.74258L8.47266 10.2832ZM5.56055 6.37305V5.62305H4.81055V6.37305H5.56055ZM13.916 8.36914C13.916 10.4471 13.3069 11.9535 12.1746 13L13.1926 14.1016C14.7035 12.7053 15.416 10.7574 15.416 8.36914H13.916ZM12.1747 12.9998C11.0439 14.0443 9.38229 14.6191 7.07812 14.6191V16.1191C9.62291 16.1191 11.6983 15.4818 13.1925 14.1017L12.1747 12.9998ZM7.07812 14.6191H5.56055V16.1191H7.07812V14.6191ZM4.81055 15.3691V22H6.31055V15.3691H4.81055ZM5.56055 21.25H0.160156V22.75H5.56055V21.25ZM0.910156 22V2.01172H-0.589844V22H0.910156ZM0.160156 2.76172H7.07812V1.26172H0.160156V2.76172ZM7.07812 2.76172C9.50999 2.76172 11.1971 3.295 12.2732 4.23171L13.2581 3.10032C11.8003 1.8313 9.69574 1.26172 7.07812 1.26172V2.76172ZM12.2732 4.23171C13.3424 5.16242 13.916 6.50377 13.916 8.36914H15.416C15.416 6.16941 14.7227 4.37534 13.2581 3.10032L12.2732 4.23171ZM5.56055 11.7168H6.54492V10.2168H5.56055V11.7168ZM6.54492 11.7168C7.50217 11.7168 8.34781 11.4437 8.99249 10.8238L7.95282 9.74258C7.64959 10.0341 7.21007 10.2168 6.54492 10.2168V11.7168ZM8.98732 10.8287C9.65121 10.2024 9.94727 9.35881 9.94727 8.39648H8.44727C8.44727 9.03833 8.26024 9.45251 7.95799 9.73766L8.98732 10.8287ZM9.94727 8.39648C9.94727 7.58539 9.71903 6.84538 9.13919 6.32211C8.57398 5.81204 7.80015 5.62305 6.95508 5.62305V7.12305C7.6048 7.12305 7.95206 7.27129 8.13424 7.4357C8.3018 7.58691 8.44727 7.85862 8.44727 8.39648H9.94727ZM6.95508 5.62305H5.56055V7.12305H6.95508V5.62305ZM4.81055 6.37305V10.9668H6.31055V6.37305H4.81055ZM28.2148 6.3457L28.349 5.60778L28.3433 5.60679L28.2148 6.3457ZM28.5156 6.40039L29.2623 6.47121L29.3273 5.78567L28.6498 5.66249L28.5156 6.40039ZM28.0371 11.4453L27.8552 12.1729L28.7014 12.3845L28.7838 11.5161L28.0371 11.4453ZM23.6758 12.0879L24.2061 12.6182L24.2106 12.6137L23.6758 12.0879ZM22.8828 22V22.75H23.6328V22H22.8828ZM17.5371 22H16.7871V22.75H17.5371V22ZM17.5371 6.50977V5.75977H16.7871V6.50977H17.5371ZM21.5156 6.50977L22.2263 6.27024L22.0543 5.75977H21.5156V6.50977ZM22.3496 8.98438L21.6389 9.2239L21.8109 9.73438H22.3496V8.98438ZM22.6094 8.98438V9.73438H23.055L23.2681 9.343L22.6094 8.98438ZM24.4688 7.00195L24.8695 7.6359L24.8714 7.6347L24.4688 7.00195ZM26.8887 6.98633C27.3143 6.98633 27.7132 7.01972 28.0863 7.08461L28.3433 5.60679C27.878 5.52586 27.3927 5.48633 26.8887 5.48633V6.98633ZM28.0807 7.0836L28.3815 7.13829L28.6498 5.66249L28.349 5.6078L28.0807 7.0836ZM27.769 6.32957L27.2905 11.3745L28.7838 11.5161L29.2623 6.47121L27.769 6.32957ZM28.219 10.7177C27.6944 10.5866 27.0177 10.5312 26.2188 10.5312V12.0312C26.9692 12.0312 27.5048 12.0853 27.8552 12.1729L28.219 10.7177ZM26.2188 10.5312C24.9586 10.5312 23.8715 10.819 23.1409 11.5621L24.2106 12.6137C24.5374 12.2813 25.1455 12.0312 26.2188 12.0312V10.5312ZM23.1455 11.5576C22.4334 12.2696 22.1328 13.2532 22.1328 14.3848H23.6328C23.6328 13.5111 23.8609 12.9635 24.2061 12.6182L23.1455 11.5576ZM22.1328 14.3848V22H23.6328V14.3848H22.1328ZM22.8828 21.25H17.5371V22.75H22.8828V21.25ZM18.2871 22V6.50977H16.7871V22H18.2871ZM17.5371 7.25977H21.5156V5.75977H17.5371V7.25977ZM20.8049 6.74929L21.6389 9.2239L23.0603 8.74485L22.2263 6.27024L20.8049 6.74929ZM22.3496 9.73438H22.6094V8.23438H22.3496V9.73438ZM23.2681 9.343C23.6533 8.63546 24.1841 8.06922 24.8695 7.6359L24.068 6.36801C23.1675 6.93729 22.4587 7.69267 21.9507 8.62575L23.2681 9.343ZM24.8714 7.6347C25.5742 7.18746 26.2432 6.98633 26.8887 6.98633V5.48633C25.9118 5.48633 24.9675 5.79561 24.0661 6.36921L24.8714 7.6347ZM43.4316 20.1543L42.891 19.6345L42.8909 19.6345L43.4316 20.1543ZM32.0977 20.0996L31.5555 20.6179L31.5572 20.6196L32.0977 20.0996ZM32.0566 8.3418L31.5194 7.81849L31.5193 7.81854L32.0566 8.3418ZM41.832 7.20703L42.1958 6.55117L41.832 7.20703ZM44.5254 9.99609L43.8596 10.3415L43.8628 10.3475L44.5254 9.99609ZM35.9805 17.2695L35.3114 17.6084L35.3132 17.6119L35.9805 17.2695ZM39.5215 17.2695L38.8489 16.9376L38.8472 16.9412L39.5215 17.2695ZM35.9805 11.2266L36.642 11.58L36.644 11.5762L35.9805 11.2266ZM44.7324 14.2207C44.7324 16.6181 44.0888 18.3888 42.891 19.6345L43.9723 20.6741C45.5089 19.076 46.2324 16.891 46.2324 14.2207H44.7324ZM42.8909 19.6345C41.708 20.8651 40.019 21.5234 37.7168 21.5234V23.0234C40.3182 23.0234 42.4391 22.269 43.9723 20.6741L42.8909 19.6345ZM37.7168 21.5234C35.5317 21.5234 33.8672 20.8569 32.6381 19.5796L31.5572 20.6196C33.1172 22.2408 35.1988 23.0234 37.7168 23.0234V21.5234ZM32.6398 19.5813C31.4172 18.3024 30.7695 16.5449 30.7695 14.2207H29.2695C29.2695 16.8366 30.0073 18.9983 31.5555 20.6179L32.6398 19.5813ZM30.7695 14.2207C30.7695 11.8311 31.4092 10.0816 32.5939 8.86506L31.5193 7.81854C29.9879 9.39108 29.2695 11.5608 29.2695 14.2207H30.7695ZM32.5939 8.8651C33.7858 7.64147 35.4854 6.98633 37.7988 6.98633V5.48633C35.1904 5.48633 33.0619 6.23483 31.5194 7.81849L32.5939 8.8651ZM37.7988 6.98633C39.2118 6.98633 40.4278 7.28575 41.4682 7.86289L42.1958 6.55117C40.903 5.83404 39.4301 5.48633 37.7988 5.48633V6.98633ZM41.4682 7.86289C42.5027 8.4367 43.297 9.25689 43.8596 10.3415L45.1911 9.65071C44.496 8.31082 43.4947 7.27163 42.1958 6.55117L41.4682 7.86289ZM43.8628 10.3475C44.4337 11.424 44.7324 12.7074 44.7324 14.2207H46.2324C46.2324 12.5075 45.8931 10.9744 45.188 9.64472L43.8628 10.3475ZM34.6973 14.2207C34.6973 15.5981 34.8779 16.7526 35.3114 17.6084L36.6495 16.9307C36.3721 16.3828 36.1973 15.5047 36.1973 14.2207H34.6973ZM35.3132 17.6119C35.5479 18.0693 35.8802 18.4433 36.3185 18.6976C36.7535 18.95 37.2484 19.0586 37.7715 19.0586V17.5586C37.4561 17.5586 37.2331 17.494 37.0712 17.4001C36.9124 17.308 36.7685 17.1625 36.6477 16.9271L35.3132 17.6119ZM37.7715 19.0586C38.291 19.0586 38.7831 18.9495 39.214 18.6937C39.6481 18.4359 39.972 18.0575 40.1958 17.5978L38.8472 16.9412C38.7337 17.1743 38.5973 17.3154 38.4482 17.4039C38.2956 17.4945 38.0814 17.5586 37.7715 17.5586V19.0586ZM40.194 17.6014C40.6152 16.748 40.791 15.5965 40.791 14.2207H39.291C39.291 15.5064 39.1204 16.3874 38.8489 16.9376L40.194 17.6014ZM40.791 14.2207C40.791 12.8563 40.616 11.7162 40.1887 10.884L38.8543 11.5692C39.1197 12.0859 39.291 12.9419 39.291 14.2207H40.791ZM40.1887 10.884C39.9566 10.4321 39.6253 10.0646 39.1884 9.81598C38.7558 9.56975 38.2638 9.46484 37.7441 9.46484V10.9648C38.063 10.9648 38.2865 11.0286 38.4464 11.1196C38.602 11.2081 38.74 11.3465 38.8543 11.5692L40.1887 10.884ZM37.7441 9.46484C37.2305 9.46484 36.744 9.571 36.3148 9.81721C35.8826 10.0652 35.5525 10.43 35.317 10.8769L36.644 11.5762C36.7639 11.3486 36.9055 11.2076 37.0612 11.1183C37.2199 11.0273 37.4374 10.9648 37.7441 10.9648V9.46484ZM35.319 10.8732C34.8765 11.7014 34.6973 12.8477 34.6973 14.2207H36.1973C36.1973 12.9323 36.3735 12.0825 36.642 11.58L35.319 10.8732ZM58.7168 17.5156H59.4668V16.454L58.4662 16.8087L58.7168 17.5156ZM58.7168 21.4121L59.0133 22.101L59.4668 21.9058V21.4121H58.7168ZM56.6523 22.0684L56.5092 21.3321L56.4973 21.3346L56.6523 22.0684ZM50.4863 20.9609L49.928 21.4617L49.9306 21.4646L50.4863 20.9609ZM49.2969 10.5156H50.0469V9.76562H49.2969V10.5156ZM47.4238 10.5156H46.6738V11.2656H47.4238V10.5156ZM47.4238 8.3418L46.9909 7.72936L46.6738 7.9535V8.3418H47.4238ZM49.8027 6.66016L50.2357 7.27259L50.4098 7.14948L50.4931 6.95314L49.8027 6.66016ZM51.1836 3.40625V2.65625H50.6871L50.4932 3.11326L51.1836 3.40625ZM54.6836 3.40625H55.4336V2.65625H54.6836V3.40625ZM54.6836 6.50977H53.9336V7.25977H54.6836V6.50977ZM58.4844 6.50977H59.2344V5.75977H58.4844V6.50977ZM58.4844 10.5156V11.2656H59.2344V10.5156H58.4844ZM54.6836 10.5156V9.76562H53.9336V10.5156H54.6836ZM56.1328 18.7988C56.9686 18.7988 57.9191 18.5942 58.9674 18.2225L58.4662 16.8087C57.5093 17.148 56.7371 17.2988 56.1328 17.2988V18.7988ZM57.9668 17.5156V21.4121H59.4668V17.5156H57.9668ZM58.4203 20.7232C57.7413 21.0154 57.1047 21.2164 56.5092 21.3321L56.7955 22.8046C57.5125 22.6652 58.2522 22.4286 59.0133 22.101L58.4203 20.7232ZM56.4973 21.3346C55.9144 21.4577 55.2077 21.5234 54.3691 21.5234V23.0234C55.2806 23.0234 56.096 22.9525 56.8074 22.8022L56.4973 21.3346ZM54.3691 21.5234C52.6753 21.5234 51.6328 21.1091 51.0421 20.4573L49.9306 21.4646C50.9258 22.5627 52.4719 23.0234 54.3691 23.0234V21.5234ZM51.0447 20.4602C50.4266 19.7711 50.0469 18.6338 50.0469 16.9004H48.5469C48.5469 18.8129 48.9601 20.3826 49.928 21.4617L51.0447 20.4602ZM50.0469 16.9004V10.5156H48.5469V16.9004H50.0469ZM49.2969 9.76562H47.4238V11.2656H49.2969V9.76562ZM48.1738 10.5156V8.3418H46.6738V10.5156H48.1738ZM47.8568 8.95423L50.2357 7.27259L49.3698 6.04772L46.9909 7.72936L47.8568 8.95423ZM50.4931 6.95314L51.874 3.69924L50.4932 3.11326L49.1123 6.36717L50.4931 6.95314ZM51.1836 4.15625H54.6836V2.65625H51.1836V4.15625ZM53.9336 3.40625V6.50977H55.4336V3.40625H53.9336ZM54.6836 7.25977H58.4844V5.75977H54.6836V7.25977ZM57.7344 6.50977V10.5156H59.2344V6.50977H57.7344ZM58.4844 9.76562H54.6836V11.2656H58.4844V9.76562ZM53.9336 10.5156V16.5449H55.4336V10.5156H53.9336ZM53.9336 16.5449C53.9336 17.155 54.0802 17.7516 54.5058 18.1933C54.9365 18.6401 55.5269 18.7988 56.1328 18.7988V17.2988C55.7726 17.2988 55.6384 17.2069 55.586 17.1524C55.5285 17.0928 55.4336 16.9374 55.4336 16.5449H53.9336ZM74.166 20.1543L73.6254 19.6345L73.6253 19.6345L74.166 20.1543ZM62.832 20.0996L62.2899 20.6179L62.2916 20.6196L62.832 20.0996ZM62.791 8.3418L62.2538 7.81849L62.2537 7.81854L62.791 8.3418ZM72.5664 7.20703L72.9302 6.55117L72.5664 7.20703ZM75.2598 9.99609L74.594 10.3415L74.5972 10.3475L75.2598 9.99609ZM66.7148 17.2695L66.0458 17.6084L66.0476 17.6119L66.7148 17.2695ZM70.2559 17.2695L69.5833 16.9376L69.5815 16.9412L70.2559 17.2695ZM66.7148 11.2266L67.3764 11.58L67.3783 11.5762L66.7148 11.2266ZM75.4668 14.2207C75.4668 16.6181 74.8231 18.3888 73.6254 19.6345L74.7066 20.6741C76.2433 19.076 76.9668 16.891 76.9668 14.2207H75.4668ZM73.6253 19.6345C72.4424 20.8651 70.7534 21.5234 68.4512 21.5234V23.0234C71.0526 23.0234 73.1735 22.269 74.7067 20.6741L73.6253 19.6345ZM68.4512 21.5234C66.2661 21.5234 64.6016 20.8569 63.3725 19.5796L62.2916 20.6196C63.8515 22.2408 65.9332 23.0234 68.4512 23.0234V21.5234ZM63.3742 19.5813C62.1516 18.3024 61.5039 16.5449 61.5039 14.2207H60.0039C60.0039 16.8366 60.7417 18.9983 62.2899 20.6179L63.3742 19.5813ZM61.5039 14.2207C61.5039 11.8311 62.1436 10.0816 63.3283 8.86506L62.2537 7.81854C60.7223 9.39108 60.0039 11.5608 60.0039 14.2207H61.5039ZM63.3283 8.8651C64.5201 7.64147 66.2198 6.98633 68.5332 6.98633V5.48633C65.9248 5.48633 63.7963 6.23483 62.2538 7.81849L63.3283 8.8651ZM68.5332 6.98633C69.9462 6.98633 71.1621 7.28575 72.2026 7.86289L72.9302 6.55117C71.6373 5.83404 70.1645 5.48633 68.5332 5.48633V6.98633ZM72.2026 7.86289C73.2371 8.4367 74.0313 9.25689 74.594 10.3415L75.9255 9.65071C75.2304 8.31082 74.2291 7.27163 72.9302 6.55117L72.2026 7.86289ZM74.5972 10.3475C75.1681 11.424 75.4668 12.7074 75.4668 14.2207H76.9668C76.9668 12.5075 76.6275 10.9744 75.9224 9.64472L74.5972 10.3475ZM65.4316 14.2207C65.4316 15.5981 65.6123 16.7526 66.0458 17.6084L67.3839 16.9307C67.1064 16.3828 66.9316 15.5047 66.9316 14.2207H65.4316ZM66.0476 17.6119C66.2823 18.0693 66.6146 18.4433 67.0528 18.6976C67.4879 18.95 67.9827 19.0586 68.5059 19.0586V17.5586C68.1904 17.5586 67.9675 17.494 67.8056 17.4001C67.6468 17.308 67.5029 17.1625 67.3821 16.9271L66.0476 17.6119ZM68.5059 19.0586C69.0254 19.0586 69.5175 18.9495 69.9483 18.6937C70.3825 18.4359 70.7064 18.0575 70.9302 17.5978L69.5815 16.9412C69.4681 17.1743 69.3317 17.3154 69.1825 17.4039C69.03 17.4945 68.8157 17.5586 68.5059 17.5586V19.0586ZM70.9284 17.6014C71.3496 16.748 71.5254 15.5965 71.5254 14.2207H70.0254C70.0254 15.5064 69.8548 16.3874 69.5833 16.9376L70.9284 17.6014ZM71.5254 14.2207C71.5254 12.8563 71.3504 11.7162 70.923 10.884L69.5887 11.5692C69.854 12.0859 70.0254 12.9419 70.0254 14.2207H71.5254ZM70.923 10.884C70.691 10.4321 70.3596 10.0646 69.9228 9.81598C69.4902 9.56975 68.9982 9.46484 68.4785 9.46484V10.9648C68.7974 10.9648 69.0208 11.0286 69.1807 11.1196C69.3363 11.2081 69.4743 11.3465 69.5887 11.5692L70.923 10.884ZM68.4785 9.46484C67.9649 9.46484 67.4784 9.571 67.0492 9.81721C66.6169 10.0652 66.2868 10.43 66.0514 10.8769L67.3783 11.5762C67.4983 11.3486 67.6399 11.2076 67.7956 11.1183C67.9542 11.0273 68.1718 10.9648 68.4785 10.9648V9.46484ZM66.0533 10.8732C65.6109 11.7014 65.4316 12.8477 65.4316 14.2207H66.9316C66.9316 12.9323 67.1079 12.0825 67.3764 11.58L66.0533 10.8732ZM89.4512 17.5156H90.2012V16.454L89.2005 16.8087L89.4512 17.5156ZM89.4512 21.4121L89.7477 22.101L90.2012 21.9058V21.4121H89.4512ZM87.3867 22.0684L87.2435 21.3321L87.2317 21.3346L87.3867 22.0684ZM81.2207 20.9609L80.6624 21.4617L80.665 21.4646L81.2207 20.9609ZM80.0312 10.5156H80.7812V9.76562H80.0312V10.5156ZM78.1582 10.5156H77.4082V11.2656H78.1582V10.5156ZM78.1582 8.3418L77.7253 7.72936L77.4082 7.9535V8.3418H78.1582ZM80.5371 6.66016L80.97 7.27259L81.1442 7.14948L81.2275 6.95314L80.5371 6.66016ZM81.918 3.40625V2.65625H81.4215L81.2276 3.11326L81.918 3.40625ZM85.418 3.40625H86.168V2.65625H85.418V3.40625ZM85.418 6.50977H84.668V7.25977H85.418V6.50977ZM89.2188 6.50977H89.9688V5.75977H89.2188V6.50977ZM89.2188 10.5156V11.2656H89.9688V10.5156H89.2188ZM85.418 10.5156V9.76562H84.668V10.5156H85.418ZM86.8672 18.7988C87.703 18.7988 88.6535 18.5942 89.7018 18.2225L89.2005 16.8087C88.2437 17.148 87.4715 17.2988 86.8672 17.2988V18.7988ZM88.7012 17.5156V21.4121H90.2012V17.5156H88.7012ZM89.1547 20.7232C88.4757 21.0154 87.8391 21.2164 87.2436 21.3321L87.5299 22.8046C88.2469 22.6652 88.9865 22.4286 89.7477 22.101L89.1547 20.7232ZM87.2317 21.3346C86.6488 21.4577 85.942 21.5234 85.1035 21.5234V23.0234C86.015 23.0234 86.8303 22.9525 87.5417 22.8022L87.2317 21.3346ZM85.1035 21.5234C83.4097 21.5234 82.3672 21.1091 81.7764 20.4573L80.665 21.4646C81.6602 22.5627 83.2062 23.0234 85.1035 23.0234V21.5234ZM81.779 20.4602C81.161 19.7711 80.7812 18.6338 80.7812 16.9004H79.2812C79.2812 18.8129 79.6945 20.3826 80.6624 21.4617L81.779 20.4602ZM80.7812 16.9004V10.5156H79.2812V16.9004H80.7812ZM80.0312 9.76562H78.1582V11.2656H80.0312V9.76562ZM78.9082 10.5156V8.3418H77.4082V10.5156H78.9082ZM78.5911 8.95423L80.97 7.27259L80.1042 6.04772L77.7253 7.72936L78.5911 8.95423ZM81.2275 6.95314L82.6084 3.69924L81.2276 3.11326L79.8467 6.36717L81.2275 6.95314ZM81.918 4.15625H85.418V2.65625H81.918V4.15625ZM84.668 3.40625V6.50977H86.168V3.40625H84.668ZM85.418 7.25977H89.2188V5.75977H85.418V7.25977ZM88.4688 6.50977V10.5156H89.9688V6.50977H88.4688ZM89.2188 9.76562H85.418V11.2656H89.2188V9.76562ZM84.668 10.5156V16.5449H86.168V10.5156H84.668ZM84.668 16.5449C84.668 17.155 84.8146 17.7516 85.2402 18.1933C85.6708 18.6401 86.2613 18.7988 86.8672 18.7988V17.2988C86.5069 17.2988 86.3728 17.2069 86.3203 17.1524C86.2629 17.0928 86.168 16.9374 86.168 16.5449H84.668ZM90.2852 6.50977V5.75977H89.1781L89.5886 6.78788L90.2852 6.50977ZM95.918 6.50977L96.6372 6.2973L96.4785 5.75977H95.918V6.50977ZM98.543 15.3965L99.2662 15.1979L99.2643 15.191L99.2622 15.184L98.543 15.3965ZM98.8027 17.0781L98.0545 17.1301L98.103 17.8281H98.8027V17.0781ZM98.9121 17.0781V17.8281H99.5802L99.6571 17.1645L98.9121 17.0781ZM99.2402 15.4238L99.9571 15.6444L99.9582 15.6408L99.2402 15.4238ZM101.934 6.50977V5.75977H101.377L101.216 6.29284L101.934 6.50977ZM107.389 6.50977L108.092 6.77112L108.468 5.75977H107.389V6.50977ZM101.264 22.9844L101.966 23.247L101.967 23.2457L101.264 22.9844ZM98.3652 27.4277L97.9137 26.8289L97.9114 26.8306L98.3652 27.4277ZM91.707 28.4941H90.957V29.1046L91.5548 29.2285L91.707 28.4941ZM91.707 24.2969L91.8727 23.5654L90.957 23.3581V24.2969H91.707ZM95.5352 23.4082L94.951 22.9377L94.9449 22.9455L95.5352 23.4082ZM96.3828 21.7812L97.0798 22.0583L97.1902 21.7807L97.0793 21.5031L96.3828 21.7812ZM90.2852 7.25977H95.918V5.75977H90.2852V7.25977ZM95.1987 6.72223L97.8237 15.6089L99.2622 15.184L96.6372 6.2973L95.1987 6.72223ZM97.8197 15.595C97.9304 15.9982 98.0113 16.5068 98.0545 17.1301L99.5509 17.0262C99.5031 16.3369 99.4107 15.7244 99.2662 15.1979L97.8197 15.595ZM98.8027 17.8281H98.9121V16.3281H98.8027V17.8281ZM99.6571 17.1645C99.7261 16.5693 99.8278 16.0645 99.9571 15.6444L98.5234 15.2033C98.361 15.7311 98.2439 16.3292 98.1671 16.9917L99.6571 17.1645ZM99.9582 15.6408L102.652 6.72669L101.216 6.29284L98.5223 15.2069L99.9582 15.6408ZM101.934 7.25977H107.389V5.75977H101.934V7.25977ZM106.686 6.24841L100.561 22.723L101.967 23.2457L108.092 6.77112L106.686 6.24841ZM100.561 22.7217C99.8017 24.7528 98.9013 26.0842 97.9137 26.8289L98.8168 28.0266C100.126 27.0395 101.158 25.4086 101.966 23.247L100.561 22.7217ZM97.9114 26.8306C96.9358 27.5721 95.6191 27.9766 93.8945 27.9766V29.4766C95.8523 29.4766 97.516 29.0152 98.819 28.0249L97.9114 26.8306ZM93.8945 27.9766C93.2383 27.9766 92.5602 27.9051 91.8593 27.7598L91.5548 29.2285C92.3486 29.3931 93.1288 29.4766 93.8945 29.4766V27.9766ZM92.457 28.4941V24.2969H90.957V28.4941H92.457ZM91.5414 25.0284C92.0904 25.1527 92.6991 25.2109 93.3613 25.2109V23.7109C92.784 23.7109 92.2898 23.6598 91.8727 23.5654L91.5414 25.0284ZM93.3613 25.2109C93.9322 25.2109 94.4683 25.1007 94.9477 24.8549L94.2632 23.5201C94.0317 23.6389 93.7383 23.7109 93.3613 23.7109V25.2109ZM94.9477 24.8549C95.4066 24.6195 95.7992 24.2872 96.1255 23.8709L94.9449 22.9455C94.7425 23.2037 94.5153 23.3909 94.2632 23.5201L94.9477 24.8549ZM96.1192 23.8787C96.4562 23.4604 96.772 22.8324 97.0798 22.0583L95.6859 21.5042C95.3921 22.2431 95.1427 22.6998 94.9511 22.9377L96.1192 23.8787ZM97.0793 21.5031L90.9817 6.23165L89.5886 6.78788L95.6863 22.0594L97.0793 21.5031ZM116.439 21.8906L116.145 22.5806L116.154 22.5841L116.439 21.8906ZM114.594 20.4824L115.15 19.979L114.926 19.7324H114.594V20.4824ZM114.348 20.4824V19.7324H113.476L113.606 20.5946L114.348 20.4824ZM114.594 28.7266V29.4766H115.344V28.7266H114.594ZM109.248 28.7266H108.498V29.4766H109.248V28.7266ZM109.248 6.50977V5.75977H108.498V6.50977H109.248ZM113.596 6.50977L114.296 6.24216L114.112 5.75977H113.596V6.50977ZM114.348 8.47852L113.647 8.74612L113.831 9.22852H114.348V8.47852ZM114.594 8.47852V9.22852H114.996L115.218 8.89366L114.594 8.47852ZM122.742 8.36914L123.361 7.94492L122.742 8.36914ZM122.674 20.127L122.062 19.6932L122.061 19.694L122.674 20.127ZM115.1 11.2812L114.446 10.9125L114.444 10.9161L115.1 11.2812ZM114.594 13.7695L113.844 13.7509L113.844 13.7602V13.7695H114.594ZM118.299 17.0918L118.961 17.4437L118.963 17.4394L118.299 17.0918ZM118.299 11.3086L117.636 11.6605L117.639 11.6648L118.299 11.3086ZM118.545 21.5234C117.843 21.5234 117.24 21.4093 116.725 21.1971L116.154 22.5841C116.878 22.8824 117.679 23.0234 118.545 23.0234V21.5234ZM116.734 21.2007C116.242 20.9911 115.712 20.5998 115.15 19.979L114.038 20.9858C114.697 21.714 115.397 22.2615 116.145 22.5805L116.734 21.2007ZM114.594 19.7324H114.348V21.2324H114.594V19.7324ZM113.606 20.5946C113.774 21.7016 113.844 22.3111 113.844 22.5059H115.344C115.344 22.172 115.25 21.4325 115.089 20.3703L113.606 20.5946ZM113.844 22.5059V28.7266H115.344V22.5059H113.844ZM114.594 27.9766H109.248V29.4766H114.594V27.9766ZM109.998 28.7266V6.50977H108.498V28.7266H109.998ZM109.248 7.25977H113.596V5.75977H109.248V7.25977ZM112.895 6.77737L113.647 8.74612L115.048 8.21091L114.296 6.24216L112.895 6.77737ZM114.348 9.22852H114.594V7.72852H114.348V9.22852ZM115.218 8.89366C116.077 7.60158 117.218 6.98633 118.709 6.98633V5.48633C116.7 5.48633 115.097 6.36587 113.969 8.06337L115.218 8.89366ZM118.709 6.98633C120.173 6.98633 121.287 7.57387 122.124 8.79336L123.361 7.94492C122.247 6.32066 120.672 5.48633 118.709 5.48633V6.98633ZM122.124 8.79336C122.983 10.0467 123.455 11.8296 123.455 14.2207H124.955C124.955 11.6535 124.452 9.53537 123.361 7.94492L122.124 8.79336ZM123.455 14.2207C123.455 16.625 122.963 18.4226 122.062 19.6932L123.286 20.5607C124.427 18.951 124.955 16.8112 124.955 14.2207H123.455ZM122.061 19.694C121.189 20.9277 120.04 21.5234 118.545 21.5234V23.0234C120.531 23.0234 122.135 22.1881 123.286 20.5599L122.061 19.694ZM116.754 9.68359C115.766 9.68359 114.928 10.0591 114.446 10.9126L115.753 11.6499C115.909 11.3732 116.174 11.1836 116.754 11.1836V9.68359ZM114.444 10.9161C114.047 11.6297 113.872 12.6037 113.844 13.7509L115.344 13.7881C115.37 12.7296 115.533 12.0448 115.755 11.6464L114.444 10.9161ZM113.844 13.7695V14.1934H115.344V13.7695H113.844ZM113.844 14.1934C113.844 15.5551 114.019 16.6896 114.484 17.464L115.77 16.6923C115.524 16.2818 115.344 15.4931 115.344 14.1934H113.844ZM114.484 17.464C114.992 18.3102 115.814 18.7168 116.809 18.7168V17.2168C116.272 17.2168 115.973 17.0309 115.77 16.6923L114.484 17.464ZM116.809 18.7168C117.259 18.7168 117.69 18.6199 118.074 18.3948C118.458 18.1689 118.751 17.8395 118.961 17.4437L117.636 16.7399C117.537 16.9274 117.426 17.0355 117.314 17.1013C117.201 17.1679 117.042 17.2168 116.809 17.2168V18.7168ZM118.963 17.4394C119.362 16.6766 119.514 15.5448 119.514 14.166H118.014C118.014 15.5034 117.855 16.3221 117.634 16.7442L118.963 17.4394ZM119.514 14.166C119.514 12.8149 119.363 11.7008 118.959 10.9524L117.639 11.6648C117.855 12.0648 118.014 12.8557 118.014 14.166H119.514ZM118.961 10.9567C118.747 10.5541 118.446 10.2239 118.05 9.99974C117.658 9.77759 117.216 9.68359 116.754 9.68359V11.1836C117.012 11.1836 117.188 11.2354 117.311 11.3049C117.43 11.3724 117.54 11.4797 117.636 11.6605L118.961 10.9567ZM132.641 22V22.75H133.391V22H132.641ZM127.295 22H126.545V22.75H127.295V22ZM127.295 6.50977V5.75977H126.545V6.50977H127.295ZM132.641 6.50977H133.391V5.75977H132.641V6.50977ZM132.162 0.876953L131.667 1.43999L132.162 0.876953ZM132.641 21.25H127.295V22.75H132.641V21.25ZM128.045 22V6.50977H126.545V22H128.045ZM127.295 7.25977H132.641V5.75977H127.295V7.25977ZM131.891 6.50977V22H133.391V6.50977H131.891ZM127.908 2.6543C127.908 1.98876 128.09 1.63143 128.323 1.427L127.333 0.299562C126.673 0.878983 126.408 1.71567 126.408 2.6543H127.908ZM128.323 1.427C128.566 1.21326 129.063 1.02539 129.988 1.02539V-0.474609C128.926 -0.474609 127.983 -0.270549 127.333 0.299562L128.323 1.427ZM129.988 1.02539C130.908 1.02539 131.412 1.21579 131.667 1.43999L132.658 0.313918C132.001 -0.263967 131.056 -0.474609 129.988 -0.474609V1.02539ZM131.667 1.43999C131.916 1.65969 132.096 2.01902 132.096 2.6543H133.596C133.596 1.72186 133.319 0.896296 132.658 0.313918L131.667 1.43999ZM132.096 2.6543C132.096 3.27984 131.913 3.62656 131.655 3.83886C131.369 4.07419 130.857 4.25586 129.988 4.25586V5.75586C131.025 5.75586 131.941 5.5456 132.608 4.99708C133.302 4.42552 133.596 3.59646 133.596 2.6543H132.096ZM129.988 4.25586C129.13 4.25586 128.626 4.07474 128.345 3.84112C128.09 3.6296 127.908 3.28223 127.908 2.6543H126.408C126.408 3.59407 126.698 4.42248 127.386 4.99482C128.049 5.54505 128.96 5.75586 129.988 5.75586V4.25586ZM146.148 22H145.398V22.75H146.148V22ZM145.697 11.2266L145.041 11.5889L145.044 11.5956L145.048 11.6023L145.697 11.2266ZM142.32 11.5137L141.665 11.1487L142.32 11.5137ZM141.719 22V22.75H142.469V22H141.719ZM136.373 22H135.623V22.75H136.373V22ZM136.373 6.50977V5.75977H135.623V6.50977H136.373ZM140.406 6.50977L141.114 6.262L140.938 5.75977H140.406V6.50977ZM141.076 8.42383L140.368 8.67159L140.544 9.17383H141.076V8.42383ZM141.391 8.42383V9.17383H141.806L142.027 8.82133L141.391 8.42383ZM143.277 6.7832L142.97 6.09911L142.967 6.10043L143.277 6.7832ZM150.059 7.72656L149.516 8.24431L149.518 8.24689L150.059 7.72656ZM151.494 22V22.75H152.244V22H151.494ZM146.898 22V13.5508H145.398V22H146.898ZM146.898 13.5508C146.898 12.4716 146.745 11.5395 146.346 10.8508L145.048 11.6023C145.251 11.9527 145.398 12.5701 145.398 13.5508H146.898ZM146.354 10.8643C145.917 10.072 145.176 9.68359 144.275 9.68359V11.1836C144.688 11.1836 144.894 11.3239 145.041 11.5889L146.354 10.8643ZM144.275 9.68359C143.132 9.68359 142.213 10.1646 141.665 11.1487L142.976 11.8786C143.23 11.4226 143.614 11.1836 144.275 11.1836V9.68359ZM141.665 11.1487C141.164 12.0493 140.969 13.4543 140.969 15.2188H142.469C142.469 13.4832 142.675 12.4182 142.976 11.8786L141.665 11.1487ZM140.969 15.2188V22H142.469V15.2188H140.969ZM141.719 21.25H136.373V22.75H141.719V21.25ZM137.123 22V6.50977H135.623V22H137.123ZM136.373 7.25977H140.406V5.75977H136.373V7.25977ZM139.698 6.75753L140.368 8.67159L141.784 8.17607L141.114 6.262L139.698 6.75753ZM141.076 9.17383H141.391V7.67383H141.076V9.17383ZM142.027 8.82133C142.402 8.22042 142.916 7.77114 143.588 7.46598L142.967 6.10043C142.034 6.52443 141.291 7.1689 140.755 8.02633L142.027 8.82133ZM143.585 7.46729C144.284 7.15322 145.106 6.98633 146.066 6.98633V5.48633C144.931 5.48633 143.893 5.68402 142.97 6.09912L143.585 7.46729ZM146.066 6.98633C147.629 6.98633 148.743 7.4342 149.516 8.2443L150.601 7.20882C149.478 6.03194 147.931 5.48633 146.066 5.48633V6.98633ZM149.518 8.24689C150.303 9.06164 150.744 10.2513 150.744 11.9238H152.244C152.244 9.98694 151.728 8.37846 150.599 7.20624L149.518 8.24689ZM150.744 11.9238V22H152.244V11.9238H150.744ZM151.494 21.25H146.148V22.75H151.494V21.25ZM169.746 6.50977H170.496V5.75977H169.746V6.50977ZM169.746 9.09375L170.005 9.79766L170.496 9.61705V9.09375H169.746ZM167.627 9.87305L167.368 9.16913L166.548 9.47059L166.97 10.2354L167.627 9.87305ZM166.301 15.6016L165.838 15.011L165.836 15.0128L166.301 15.6016ZM159.697 16.873L159.856 16.14L159.304 16.0208L159.037 16.5175L159.697 16.873ZM160.148 18.1582L159.907 18.8682L159.914 18.8705L159.92 18.8727L160.148 18.1582ZM167.189 27.1543L166.781 26.5254L166.779 26.5264L167.189 27.1543ZM155.336 27.6191L155.73 26.9812L155.729 26.9804L155.336 27.6191ZM157.004 20.8789L157.175 21.6092L159.415 21.0847L157.296 20.1882L157.004 20.8789ZM155.76 19.9082L155.167 20.3679L155.173 20.3753L155.76 19.9082ZM155.637 17.3105L156.244 17.7508L156.249 17.7436L155.637 17.3105ZM157.291 15.9844L157.681 16.625L158.906 15.8796L157.595 15.2987L157.291 15.9844ZM155.391 14.3164L154.748 14.7034L154.752 14.709L155.391 14.3164ZM164.346 6.50977L164.222 7.24956L164.284 7.25977H164.346V6.50977ZM158.781 24.9805L159.156 24.3308L159.147 24.3254L158.781 24.9805ZM163.785 24.8984L163.502 24.2037L163.493 24.2078L163.785 24.8984ZM164.25 22.7793L164.507 22.0747L164.495 22.0706L164.25 22.7793ZM158.658 22.9297L158.245 22.3035L158.237 22.3089L158.229 22.3146L158.658 22.9297ZM162.582 13.373L161.974 12.9344L161.967 12.9439L162.582 13.373ZM168.996 6.50977V9.09375H170.496V6.50977H168.996ZM169.487 8.38984L167.368 9.16913L167.886 10.577L170.005 9.79766L169.487 8.38984ZM166.97 10.2354C167.191 10.6362 167.314 11.1229 167.314 11.7188H168.814C168.814 10.9109 168.646 10.1672 168.284 9.51074L166.97 10.2354ZM167.314 11.7188C167.314 13.1869 166.81 14.2506 165.838 15.011L166.763 16.1921C168.143 15.1114 168.814 13.5866 168.814 11.7188H167.314ZM165.836 15.0128C164.858 15.7845 163.309 16.2324 161.064 16.2324V17.7324C163.468 17.7324 165.41 17.2598 166.765 16.1903L165.836 15.0128ZM161.064 16.2324C160.513 16.2324 160.118 16.1967 159.856 16.14L159.539 17.6061C159.951 17.6952 160.467 17.7324 161.064 17.7324V16.2324ZM159.037 16.5175C158.867 16.8335 158.756 17.1789 158.756 17.543H160.256C160.256 17.4877 160.273 17.3865 160.358 17.2286L159.037 16.5175ZM158.756 17.543C158.756 18.326 159.417 18.7016 159.907 18.8682L160.39 17.4482C160.315 17.4225 160.262 17.3986 160.227 17.3795C160.191 17.3602 160.181 17.3497 160.185 17.3533C160.19 17.358 160.21 17.379 160.228 17.4188C160.247 17.4603 160.256 17.5043 160.256 17.543H158.756ZM159.92 18.8727C160.451 19.042 161.097 19.1133 161.83 19.1133V17.6133C161.178 17.6133 160.703 17.5478 160.376 17.4437L159.92 18.8727ZM161.83 19.1133H164.4V17.6133H161.83V19.1133ZM164.4 19.1133C166.049 19.1133 167.147 19.4633 167.824 20.034C168.477 20.584 168.859 21.4416 168.859 22.752H170.359C170.359 21.1365 169.874 19.7998 168.79 18.8869C167.731 17.9947 166.224 17.6133 164.4 17.6133V19.1133ZM168.859 22.752C168.859 24.3788 168.186 25.6122 166.781 26.5254L167.598 27.7832C169.419 26.6 170.359 24.8986 170.359 22.752H168.859ZM166.779 26.5264C165.345 27.4636 163.254 27.9766 160.422 27.9766V29.4766C163.405 29.4766 165.826 28.9413 167.6 27.7822L166.779 26.5264ZM160.422 27.9766C158.293 27.9766 156.757 27.6158 155.73 26.9812L154.942 28.257C156.303 29.099 158.158 29.4766 160.422 29.4766V27.9766ZM155.729 26.9804C154.763 26.3859 154.309 25.5733 154.309 24.4609H152.809C152.809 26.1011 153.539 27.394 154.943 28.2579L155.729 26.9804ZM154.309 24.4609C154.309 23.705 154.537 23.1381 154.96 22.6976C155.4 22.2404 156.11 21.8584 157.175 21.6092L156.833 20.1487C155.601 20.4372 154.588 20.9211 153.879 21.6578C153.155 22.4113 152.809 23.3666 152.809 24.4609H154.309ZM157.296 20.1882C156.95 20.0416 156.633 19.8007 156.347 19.4411L155.173 20.3753C155.598 20.909 156.11 21.3152 156.712 21.5696L157.296 20.1882ZM156.352 19.4486C156.078 19.0948 155.99 18.81 155.99 18.582H154.49C154.49 19.229 154.749 19.8284 155.167 20.3678L156.352 19.4486ZM155.99 18.582C155.99 18.2449 156.079 17.9778 156.244 17.7508L155.03 16.8703C154.665 17.3724 154.49 17.953 154.49 18.582H155.99ZM156.249 17.7436C156.418 17.5049 156.852 17.1293 157.681 16.625L156.901 15.3437C156.052 15.8602 155.384 16.3688 155.024 16.8774L156.249 17.7436ZM157.595 15.2987C156.933 15.0055 156.416 14.5526 156.03 13.9238L154.752 14.709C155.295 15.5932 156.044 16.2523 156.987 16.6701L157.595 15.2987ZM156.033 13.9294C155.662 13.3137 155.457 12.534 155.457 11.5547H153.957C153.957 12.7447 154.208 13.8061 154.748 14.7034L156.033 13.9294ZM155.457 11.5547C155.457 10.0588 155.955 8.97988 156.902 8.21379L155.958 7.04793C154.607 8.14121 153.957 9.67816 153.957 11.5547H155.457ZM156.902 8.21379C157.868 7.43111 159.316 6.98633 161.352 6.98633V5.48633C159.121 5.48633 157.288 5.97123 155.958 7.04793L156.902 8.21379ZM161.352 6.98633C161.596 6.98633 162.052 7.01502 162.746 7.07887L162.883 5.58519C162.191 5.52144 161.672 5.48633 161.352 5.48633V6.98633ZM162.746 7.07887C163.435 7.14239 163.923 7.19964 164.222 7.24956L164.469 5.76997C164.112 5.71052 163.579 5.64928 162.883 5.58519L162.746 7.07887ZM164.346 7.25977H169.746V5.75977H164.346V7.25977ZM157.32 23.9277C157.32 24.7062 157.772 25.2761 158.416 25.6355L159.147 24.3254C158.843 24.1561 158.82 24.0243 158.82 23.9277H157.32ZM158.406 25.6301C159.034 25.9923 159.813 26.1406 160.682 26.1406V24.6406C159.965 24.6406 159.476 24.5155 159.156 24.3308L158.406 25.6301ZM160.682 26.1406C162.028 26.1406 163.174 25.9717 164.078 25.5891L163.493 24.2078C162.847 24.4815 161.924 24.6406 160.682 24.6406V26.1406ZM164.068 25.5931C164.928 25.2429 165.711 24.6434 165.711 23.6543H164.211C164.211 23.6948 164.203 23.7471 164.122 23.833C164.026 23.9341 163.839 24.0668 163.502 24.2038L164.068 25.5931ZM165.711 23.6543C165.711 23.2938 165.603 22.947 165.365 22.655C165.137 22.374 164.829 22.1925 164.507 22.0748L163.993 23.4837C164.145 23.5393 164.192 23.5902 164.201 23.6009C164.205 23.6054 164.205 23.6071 164.206 23.6088C164.207 23.6114 164.211 23.6246 164.211 23.6543H165.711ZM164.495 22.0706C163.904 21.8659 163.127 21.7832 162.213 21.7832V23.2832C163.067 23.2832 163.648 23.3646 164.005 23.488L164.495 22.0706ZM162.213 21.7832H160.121V23.2832H162.213V21.7832ZM160.121 21.7832C159.429 21.7832 158.791 21.9437 158.245 22.3035L159.071 23.5559C159.327 23.387 159.664 23.2832 160.121 23.2832V21.7832ZM158.229 22.3146C157.686 22.6934 157.32 23.2355 157.32 23.9277H158.82C158.82 23.8362 158.846 23.7128 159.087 23.5448L158.229 22.3146ZM159.002 11.582C159.002 12.4388 159.147 13.2148 159.55 13.7944C159.987 14.4235 160.65 14.7109 161.406 14.7109V13.2109C161.06 13.2109 160.895 13.1019 160.781 12.938C160.633 12.7246 160.502 12.3112 160.502 11.582H159.002ZM161.406 14.7109C162.142 14.7109 162.773 14.4108 163.197 13.8022L161.967 12.9439C161.845 13.1192 161.691 13.2109 161.406 13.2109V14.7109ZM163.19 13.8116C163.606 13.2346 163.756 12.4609 163.756 11.6094H162.256C162.256 12.3256 162.123 12.7276 161.974 12.9344L163.19 13.8116ZM163.756 11.6094C163.756 10.7479 163.617 9.97082 163.231 9.38948C162.808 8.75421 162.159 8.45312 161.406 8.45312V9.95312C161.72 9.95312 161.87 10.0531 161.981 10.2199C162.128 10.4406 162.256 10.8667 162.256 11.6094H163.756ZM161.406 8.45312C160.65 8.45312 159.987 8.74059 159.55 9.36966C159.147 9.94926 159.002 10.7252 159.002 11.582H160.502C160.502 10.8529 160.633 10.4394 160.781 10.226C160.895 10.0621 161.06 9.95312 161.406 9.95312V8.45312Z" fill="#7B838D"/>
</svg>
