<svg width="187" height="29" viewBox="0 0 187 29" fill="none" xmlns="http://www.w3.org/2000/svg">
<path d="M17.1543 2.01172H17.9043V1.26172H17.1543V2.01172ZM14.9258 20.127L15.4477 20.6655L15.4478 20.6655L14.9258 20.127ZM2.23828 20.1816L1.71994 20.7237L1.72163 20.7253L2.23828 20.1816ZM0.0507812 2.01172V1.26172H-0.699219V2.01172H0.0507812ZM5.47852 2.01172H6.22852V1.26172H5.47852V2.01172ZM6.27148 16.8184L6.849 16.3398L6.27148 16.8184ZM11.002 16.832L10.4122 16.3687L10.4113 16.3698L11.002 16.832ZM11.7539 2.01172V1.26172H11.0039V2.01172H11.7539ZM16.4043 2.01172V14.043H17.9043V2.01172H16.4043ZM16.4043 14.043C16.4043 16.5126 15.7075 18.3247 14.4038 19.5884L15.4478 20.6655C17.1154 19.049 17.9043 16.8051 17.9043 14.043H16.4043ZM14.4038 19.5884C13.111 20.8413 11.1925 21.5234 8.52734 21.5234V23.0234C11.4403 23.0234 13.7875 22.2746 15.4477 20.6655L14.4038 19.5884ZM8.52734 21.5234C5.92636 21.5234 4.04045 20.8596 2.75493 19.638L1.72163 20.7253C3.37101 22.2927 5.6778 23.0234 8.52734 23.0234V21.5234ZM2.75662 19.6396C1.48675 18.4253 0.800781 16.6409 0.800781 14.166H-0.699219C-0.699219 16.9229 0.0731411 19.1489 1.71994 20.7237L2.75662 19.6396ZM0.800781 14.166V2.01172H-0.699219V14.166H0.800781ZM0.0507812 2.76172H5.47852V1.26172H0.0507812V2.76172ZM4.72852 2.01172V13.7422H6.22852V2.01172H4.72852ZM4.72852 13.7422C4.72852 15.2173 4.99865 16.4577 5.69397 17.2969L6.849 16.3398C6.48702 15.903 6.22852 15.0926 6.22852 13.7422H4.72852ZM5.69397 17.2969C6.39902 18.1478 7.41536 18.5254 8.60938 18.5254V17.0254C7.7435 17.0254 7.20124 16.765 6.849 16.3398L5.69397 17.2969ZM8.60938 18.5254C9.84952 18.5254 10.9092 18.1675 11.5926 17.2943L10.4113 16.3698C10.1103 16.7544 9.57495 17.0254 8.60938 17.0254V18.5254ZM11.5917 17.2954C12.2509 16.4564 12.5039 15.2071 12.5039 13.7148H11.0039C11.0039 15.1028 10.7556 15.9316 10.4122 16.3687L11.5917 17.2954ZM12.5039 13.7148V2.01172H11.0039V13.7148H12.5039ZM11.7539 2.76172H17.1543V1.26172H11.7539V2.76172ZM23.4434 22.082L23.555 21.3403L23.5472 21.3393L23.4434 22.082ZM20.8457 21.4121H20.0957V21.9337L20.5847 22.1152L20.8457 21.4121ZM20.8457 17.1328L21.1475 16.4462L20.0957 15.9839V17.1328H20.8457ZM23.5664 18.0352L23.3909 18.7643L23.3924 18.7647L23.5664 18.0352ZM27.4629 16.873L27.0387 17.4916L27.0488 17.4985L27.0591 17.5051L27.4629 16.873ZM24.6465 15.6152L24.3618 16.3092L24.3693 16.3122L24.6465 15.6152ZM21.666 13.6328L21.0678 14.0852L21.0705 14.0887L21.666 13.6328ZM22.4863 7.43945L22.9251 8.04773L22.4863 7.43945ZM30.0742 6.57812L29.8888 7.3049L29.8975 7.30701L30.0742 6.57812ZM32.877 7.54883L33.5683 7.83963L33.8536 7.16143L33.181 6.8632L32.877 7.54883ZM31.4277 10.9941L31.1207 11.6784L31.8213 11.9928L32.1191 11.2849L31.4277 10.9941ZM29.1719 10.1875L28.9647 10.9084L28.9724 10.9105L29.1719 10.1875ZM26.3691 11.1719L25.9665 11.8046L25.9776 11.8117L25.9889 11.8183L26.3691 11.1719ZM29.0215 12.3066L29.3071 11.613L29.2963 11.6088L29.0215 12.3066ZM31.4414 13.6191L30.9692 14.2019L30.9741 14.2058L31.4414 13.6191ZM32.6172 15.1367L31.9262 15.4282L31.9289 15.4348L31.9318 15.4413L32.6172 15.1367ZM32.25 17.2422C32.25 18.7115 31.7617 19.7217 30.8547 20.402L31.7547 21.602C33.1081 20.5869 33.75 19.0906 33.75 17.2422H32.25ZM30.8547 20.402C29.9046 21.1145 28.4665 21.5234 26.4375 21.5234V23.0234C28.6377 23.0234 30.4444 22.5847 31.7547 21.602L30.8547 20.402ZM26.4375 21.5234C25.3147 21.5234 24.3557 21.4609 23.555 21.3404L23.3317 22.8237C24.2263 22.9583 25.2634 23.0234 26.4375 23.0234V21.5234ZM23.5472 21.3393C22.7583 21.229 21.9451 21.0201 21.1067 20.709L20.5847 22.1152C21.5146 22.4603 22.4331 22.6981 23.3395 22.8248L23.5472 21.3393ZM21.5957 21.4121V17.1328H20.0957V21.4121H21.5957ZM20.5439 17.8194C21.4185 18.2038 22.3682 18.5181 23.3909 18.7643L23.7419 17.306C22.7959 17.0782 21.9318 16.7909 21.1475 16.4462L20.5439 17.8194ZM23.3924 18.7647C24.426 19.0112 25.3703 19.1406 26.2188 19.1406V17.6406C25.5178 17.6406 24.6938 17.533 23.7404 17.3056L23.3924 18.7647ZM26.2188 19.1406C26.8311 19.1406 27.3952 19.0744 27.8326 18.8746C28.0605 18.7705 28.2849 18.6162 28.4524 18.3867C28.6258 18.1492 28.7051 17.8758 28.7051 17.5977H27.2051C27.2051 17.5838 27.212 17.5418 27.2408 17.5024C27.2635 17.4712 27.2708 17.4821 27.2094 17.5102C27.068 17.5747 26.764 17.6406 26.2188 17.6406V19.1406ZM28.7051 17.5977C28.7051 16.969 28.3109 16.5248 27.8667 16.241L27.0591 17.5051C27.1645 17.5724 27.2024 17.6193 27.2116 17.6328C27.2153 17.6383 27.2128 17.6359 27.2097 17.6262C27.2065 17.6161 27.2051 17.6056 27.2051 17.5977H28.7051ZM27.887 16.2545C27.6638 16.1015 27.2899 15.9172 26.8254 15.7097C26.3425 15.4941 25.7074 15.23 24.9236 14.9183L24.3693 16.3122C25.1442 16.6203 25.7578 16.8757 26.2137 17.0793C26.688 17.2912 26.9429 17.4259 27.0387 17.4916L27.887 16.2545ZM24.9312 14.9214C23.5607 14.3591 22.7093 13.7619 22.2616 13.177L21.0705 14.0887C21.753 14.9803 22.8885 15.7047 24.3618 16.3091L24.9312 14.9214ZM22.2643 13.1805C21.8174 12.5895 21.5684 11.8149 21.5684 10.8027H20.0684C20.0684 12.0692 20.3844 13.1814 21.0678 14.0851L22.2643 13.1805ZM21.5684 10.8027C21.5684 9.58933 22.0199 8.70068 22.9251 8.04773L22.0476 6.83118C20.7288 7.7824 20.0684 9.13593 20.0684 10.8027H21.5684ZM22.9251 8.04773C23.8611 7.37256 25.2558 6.98633 27.2031 6.98633V5.48633C25.0853 5.48633 23.3355 5.90218 22.0476 6.83118L22.9251 8.04773ZM27.2031 6.98633C28.168 6.98633 29.0623 7.09399 29.8888 7.30485L30.2596 5.8514C29.2997 5.60653 28.2799 5.48633 27.2031 5.48633V6.98633ZM29.8975 7.30701C30.7507 7.51385 31.6423 7.82183 32.5729 8.23445L33.181 6.8632C32.1793 6.41906 31.2024 6.0799 30.2509 5.84924L29.8975 7.30701ZM32.1856 7.25803L30.7364 10.7033L32.1191 11.2849L33.5683 7.83963L32.1856 7.25803ZM31.7348 10.3099C30.9871 9.9744 30.1991 9.69285 29.3713 9.46451L28.9724 10.9105C29.7306 11.1197 30.4464 11.3759 31.1207 11.6784L31.7348 10.3099ZM29.379 9.46667C28.5561 9.23021 27.8323 9.0957 27.2305 9.0957V10.5957C27.6312 10.5957 28.2017 10.6891 28.9647 10.9083L29.379 9.46667ZM27.2305 9.0957C26.7558 9.0957 26.2898 9.1499 25.9163 9.33274C25.7192 9.42924 25.5243 9.57313 25.3801 9.78506C25.232 10.0025 25.168 10.2467 25.168 10.4883H26.668C26.668 10.5157 26.6586 10.5725 26.6199 10.6292C26.585 10.6805 26.5542 10.6906 26.5759 10.68C26.6001 10.6681 26.661 10.645 26.777 10.6261C26.891 10.6075 27.0403 10.5957 27.2305 10.5957V9.0957ZM25.168 10.4883C25.168 11.0948 25.5334 11.529 25.9665 11.8046L26.7718 10.5391C26.6844 10.4835 26.6589 10.4476 26.6567 10.4443C26.6563 10.4436 26.66 10.4493 26.6634 10.4605C26.6669 10.472 26.668 10.4821 26.668 10.4883H25.168ZM25.9889 11.8183C26.3617 12.0376 27.3121 12.4396 28.7467 13.0045L29.2963 11.6088C27.8142 11.0252 26.9964 10.6707 26.7494 10.5254L25.9889 11.8183ZM28.7359 13.0001C29.7944 13.436 30.5235 13.8407 30.9692 14.2018L31.9136 13.0364C31.302 12.5408 30.4178 12.0705 29.307 11.6131L28.7359 13.0001ZM30.9741 14.2058C31.4224 14.5629 31.7329 14.9702 31.9262 15.4282L33.3082 14.8452C33.0093 14.1366 32.5359 13.5321 31.9087 13.0325L30.9741 14.2058ZM31.9318 15.4413C32.1331 15.8942 32.25 16.4857 32.25 17.2422H33.75C33.75 16.3398 33.6117 15.5277 33.3025 14.8321L31.9318 15.4413ZM37.4297 20.2227L36.9081 20.7616L36.9116 20.7649L37.4297 20.2227ZM37.2793 8.3418L37.8237 8.85771L37.8253 8.85593L37.2793 8.3418ZM48.3398 8.06836L47.8193 8.60833L47.8233 8.61211L48.3398 8.06836ZM50.2539 15.6973V16.4473H51.0039V15.6973H50.2539ZM40.6973 15.6973V14.9473H39.915L39.9479 15.7288L40.6973 15.6973ZM41.6406 17.7344L41.1613 18.3113L41.1657 18.3148L41.6406 17.7344ZM46.6719 18.2129L46.8337 18.9453L46.8399 18.9438L46.6719 18.2129ZM49.2422 17.2969H49.9922V16.1206L48.9258 16.6169L49.2422 17.2969ZM49.2422 21.1387L49.5834 21.8066L49.9922 21.5977V21.1387H49.2422ZM41.5449 10.4746L42.0571 11.0225L42.0575 11.0221L41.5449 10.4746ZM40.8066 12.334L40.0594 12.2697L39.9894 13.084H40.8066V12.334ZM45.4004 12.334V13.084H46.1689L46.1502 12.3157L45.4004 12.334ZM44.7578 10.543L44.1997 11.0441L44.2054 11.0503L44.7578 10.543ZM43.4453 21.5234C40.9983 21.5234 39.2009 20.8776 37.9478 19.6804L36.9116 20.7649C38.5205 22.3021 40.7334 23.0234 43.4453 23.0234V21.5234ZM37.9513 19.6838C36.7135 18.4856 36.0469 16.7481 36.0469 14.3574H34.5469C34.5469 17.0344 35.3021 19.2071 36.9081 20.7616L37.9513 19.6838ZM36.0469 14.3574C36.0469 11.8629 36.6757 10.069 37.8237 8.8577L36.7349 7.82589C35.2396 9.40369 34.5469 11.6202 34.5469 14.3574H36.0469ZM37.8253 8.85593C38.969 7.64128 40.6348 6.98633 42.9395 6.98633V5.48633C40.3405 5.48633 38.2328 6.23502 36.7332 7.82766L37.8253 8.85593ZM42.9395 6.98633C45.1438 6.98633 46.7329 7.561 47.8193 8.60831L48.8604 7.52841C47.4129 6.13301 45.4018 5.48633 42.9395 5.48633V6.98633ZM47.8233 8.61211C48.9091 9.6436 49.5039 11.1714 49.5039 13.3184H51.0039C51.0039 10.8898 50.3227 8.9176 48.8564 7.52461L47.8233 8.61211ZM49.5039 13.3184V15.6973H51.0039V13.3184H49.5039ZM50.2539 14.9473H40.6973V16.4473H50.2539V14.9473ZM39.9479 15.7288C39.9921 16.7771 40.3845 17.6659 41.1614 18.3113L42.1199 17.1575C41.7118 16.8185 41.4754 16.3492 41.4466 15.6657L39.9479 15.7288ZM41.1657 18.3148C41.9394 18.9478 42.9414 19.2227 44.0879 19.2227V17.7227C43.1744 17.7227 42.545 17.5053 42.1156 17.1539L41.1657 18.3148ZM44.0879 19.2227C45.0722 19.2227 45.9886 19.1319 46.8337 18.9452L46.5101 17.4806C45.7874 17.6402 44.9812 17.7227 44.0879 17.7227V19.2227ZM46.8399 18.9438C47.6947 18.7473 48.6017 18.4222 49.5586 17.9769L48.9258 16.6169C48.0416 17.0283 47.235 17.3139 46.5038 17.482L46.8399 18.9438ZM48.4922 17.2969V21.1387H49.9922V17.2969H48.4922ZM48.901 20.4708C48.1249 20.8673 47.3281 21.1392 46.509 21.2897L46.78 22.765C47.7475 22.5873 48.6824 22.2668 49.5834 21.8066L48.901 20.4708ZM46.509 21.2897C45.6733 21.4432 44.6547 21.5234 43.4453 21.5234V23.0234C44.7151 23.0234 45.8293 22.9396 46.78 22.765L46.509 21.2897ZM43.1309 9.12305C42.3266 9.12305 41.6103 9.38608 41.0324 9.92709L42.0575 11.0221C42.3364 10.7611 42.6774 10.623 43.1309 10.623V9.12305ZM41.0328 9.92671C40.4255 10.4944 40.1407 11.3245 40.0594 12.2697L41.5539 12.3983C41.6184 11.6482 41.8258 11.2387 42.0571 11.0225L41.0328 9.92671ZM40.8066 13.084H45.4004V11.584H40.8066V13.084ZM46.1502 12.3157C46.1286 11.4308 45.87 10.6452 45.3102 10.0357L44.2054 11.0503C44.4659 11.334 44.6357 11.7424 44.6506 12.3523L46.1502 12.3157ZM45.3158 10.0419C44.7521 9.41403 43.9946 9.12305 43.1309 9.12305V10.623C43.6343 10.623 43.9615 10.7787 44.1998 11.0441L45.3158 10.0419ZM63.9531 6.3457L64.0873 5.60778L64.0816 5.60679L63.9531 6.3457ZM64.2539 6.40039L65.0006 6.47121L65.0656 5.78567L64.3881 5.66249L64.2539 6.40039ZM63.7754 11.4453L63.5935 12.1729L64.4397 12.3845L64.522 11.5161L63.7754 11.4453ZM59.4141 12.0879L59.9444 12.6182L59.9489 12.6137L59.4141 12.0879ZM58.6211 22V22.75H59.3711V22H58.6211ZM53.2754 22H52.5254V22.75H53.2754V22ZM53.2754 6.50977V5.75977H52.5254V6.50977H53.2754ZM57.2539 6.50977L57.9646 6.27024L57.7926 5.75977H57.2539V6.50977ZM58.0879 8.98438L57.3772 9.2239L57.5492 9.73438H58.0879V8.98438ZM58.3477 8.98438V9.73438H58.7933L59.0064 9.343L58.3477 8.98438ZM60.207 7.00195L60.6078 7.6359L60.6097 7.6347L60.207 7.00195ZM62.627 6.98633C63.0526 6.98633 63.4515 7.01972 63.8246 7.08461L64.0816 5.60679C63.6162 5.52586 63.131 5.48633 62.627 5.48633V6.98633ZM63.819 7.0836L64.1197 7.13829L64.3881 5.66249L64.0873 5.6078L63.819 7.0836ZM63.5073 6.32957L63.0287 11.3745L64.522 11.5161L65.0006 6.47121L63.5073 6.32957ZM63.9573 10.7177C63.4327 10.5866 62.756 10.5312 61.957 10.5312V12.0312C62.7075 12.0312 63.2431 12.0853 63.5935 12.1729L63.9573 10.7177ZM61.957 10.5312C60.6969 10.5312 59.6097 10.819 58.8792 11.5621L59.9489 12.6137C60.2757 12.2813 60.8838 12.0312 61.957 12.0312V10.5312ZM58.8837 11.5576C58.1717 12.2696 57.8711 13.2532 57.8711 14.3848H59.3711C59.3711 13.5111 59.5991 12.9635 59.9444 12.6182L58.8837 11.5576ZM57.8711 14.3848V22H59.3711V14.3848H57.8711ZM58.6211 21.25H53.2754V22.75H58.6211V21.25ZM54.0254 22V6.50977H52.5254V22H54.0254ZM53.2754 7.25977H57.2539V5.75977H53.2754V7.25977ZM56.5432 6.74929L57.3772 9.2239L58.7986 8.74485L57.9646 6.27024L56.5432 6.74929ZM58.0879 9.73438H58.3477V8.23438H58.0879V9.73438ZM59.0064 9.343C59.3916 8.63546 59.9224 8.06922 60.6078 7.6359L59.8063 6.36801C58.9058 6.93729 58.197 7.69267 57.689 8.62575L59.0064 9.343ZM60.6097 7.6347C61.3125 7.18746 61.9815 6.98633 62.627 6.98633V5.48633C61.6501 5.48633 60.7057 5.79561 59.8044 6.36921L60.6097 7.6347ZM74.0156 22H73.2656V22.75H74.0156V22ZM74.0156 2.01172V1.26172H73.2656V2.01172H74.0156ZM79.4434 2.01172H80.1934V1.26172H79.4434V2.01172ZM79.4434 22V22.75H80.1934V22H79.4434ZM74.7656 22V2.01172H73.2656V22H74.7656ZM74.0156 2.76172H79.4434V1.26172H74.0156V2.76172ZM78.6934 2.01172V22H80.1934V2.01172H78.6934ZM79.4434 21.25H74.0156V22.75H79.4434V21.25ZM93.2383 22H92.4883V22.75H93.2383V22ZM92.7871 11.2266L92.1304 11.5889L92.1342 11.5956L92.138 11.6023L92.7871 11.2266ZM89.4102 11.5137L88.7549 11.1487L89.4102 11.5137ZM88.8086 22V22.75H89.5586V22H88.8086ZM83.4629 22H82.7129V22.75H83.4629V22ZM83.4629 6.50977V5.75977H82.7129V6.50977H83.4629ZM87.4961 6.50977L88.204 6.262L88.0282 5.75977H87.4961V6.50977ZM88.166 8.42383L87.4581 8.67159L87.6339 9.17383H88.166V8.42383ZM88.4805 8.42383V9.17383H88.8962L89.1165 8.82133L88.4805 8.42383ZM90.3672 6.7832L90.0597 6.09911L90.0568 6.10043L90.3672 6.7832ZM97.1484 7.72656L96.6058 8.24431L96.6083 8.24689L97.1484 7.72656ZM98.584 22V22.75H99.334V22H98.584ZM93.9883 22V13.5508H92.4883V22H93.9883ZM93.9883 13.5508C93.9883 12.4716 93.8349 11.5395 93.4362 10.8508L92.138 11.6023C92.3409 11.9527 92.4883 12.5701 92.4883 13.5508H93.9883ZM93.4438 10.8643C93.0067 10.072 92.2655 9.68359 91.3652 9.68359V11.1836C91.7775 11.1836 91.9842 11.3239 92.1304 11.5889L93.4438 10.8643ZM91.3652 9.68359C90.2223 9.68359 89.303 10.1646 88.7549 11.1487L90.0654 11.8786C90.3194 11.4226 90.7034 11.1836 91.3652 11.1836V9.68359ZM88.7549 11.1487C88.2534 12.0493 88.0586 13.4543 88.0586 15.2188H89.5586C89.5586 13.4832 89.7649 12.4182 90.0654 11.8786L88.7549 11.1487ZM88.0586 15.2188V22H89.5586V15.2188H88.0586ZM88.8086 21.25H83.4629V22.75H88.8086V21.25ZM84.2129 22V6.50977H82.7129V22H84.2129ZM83.4629 7.25977H87.4961V5.75977H83.4629V7.25977ZM86.7882 6.75753L87.4581 8.67159L88.8739 8.17607L88.204 6.262L86.7882 6.75753ZM88.166 9.17383H88.4805V7.67383H88.166V9.17383ZM89.1165 8.82133C89.492 8.22042 90.0062 7.77114 90.6775 7.46598L90.0568 6.10043C89.124 6.52443 88.3804 7.1689 87.8445 8.02633L89.1165 8.82133ZM90.6746 7.46729C91.3734 7.15322 92.1954 6.98633 93.1562 6.98633V5.48633C92.0208 5.48633 90.9833 5.68402 90.0597 6.09912L90.6746 7.46729ZM93.1562 6.98633C94.7189 6.98633 95.8329 7.4342 96.6058 8.2443L97.6911 7.20882C96.5682 6.03194 95.0207 5.48633 93.1562 5.48633V6.98633ZM96.6083 8.24689C97.3931 9.06164 97.834 10.2513 97.834 11.9238H99.334C99.334 9.98694 98.8178 8.37846 97.6886 7.20624L96.6083 8.24689ZM97.834 11.9238V22H99.334V11.9238H97.834ZM98.584 21.25H93.2383V22.75H98.584V21.25ZM104.627 22.082L104.739 21.3403L104.731 21.3393L104.627 22.082ZM102.029 21.4121H101.279V21.9337L101.768 22.1152L102.029 21.4121ZM102.029 17.1328L102.331 16.4462L101.279 15.9839V17.1328H102.029ZM104.75 18.0352L104.574 18.7643L104.576 18.7647L104.75 18.0352ZM108.646 16.873L108.222 17.4916L108.232 17.4985L108.243 17.5051L108.646 16.873ZM105.83 15.6152L105.545 16.3092L105.553 16.3122L105.83 15.6152ZM102.85 13.6328L102.251 14.0852L102.254 14.0887L102.85 13.6328ZM103.67 7.43945L104.109 8.04773L103.67 7.43945ZM111.258 6.57812L111.072 7.3049L111.081 7.30701L111.258 6.57812ZM114.061 7.54883L114.752 7.83963L115.037 7.16143L114.365 6.8632L114.061 7.54883ZM112.611 10.9941L112.304 11.6784L113.005 11.9928L113.303 11.2849L112.611 10.9941ZM110.355 10.1875L110.148 10.9084L110.156 10.9105L110.355 10.1875ZM107.553 11.1719L107.15 11.8046L107.161 11.8117L107.172 11.8183L107.553 11.1719ZM110.205 12.3066L110.491 11.613L110.48 11.6088L110.205 12.3066ZM112.625 13.6191L112.153 14.2019L112.158 14.2058L112.625 13.6191ZM113.801 15.1367L113.11 15.4282L113.113 15.4348L113.115 15.4413L113.801 15.1367ZM113.434 17.2422C113.434 18.7115 112.945 19.7217 112.038 20.402L112.938 21.602C114.292 20.5869 114.934 19.0906 114.934 17.2422H113.434ZM112.038 20.402C111.088 21.1145 109.65 21.5234 107.621 21.5234V23.0234C109.821 23.0234 111.628 22.5847 112.938 21.602L112.038 20.402ZM107.621 21.5234C106.498 21.5234 105.539 21.4609 104.739 21.3404L104.515 22.8237C105.41 22.9583 106.447 23.0234 107.621 23.0234V21.5234ZM104.731 21.3393C103.942 21.229 103.129 21.0201 102.29 20.709L101.768 22.1152C102.698 22.4603 103.617 22.6981 104.523 22.8248L104.731 21.3393ZM102.779 21.4121V17.1328H101.279V21.4121H102.779ZM101.727 17.8194C102.602 18.2038 103.552 18.5181 104.574 18.7643L104.926 17.306C103.979 17.0782 103.115 16.7909 102.331 16.4462L101.727 17.8194ZM104.576 18.7647C105.61 19.0112 106.554 19.1406 107.402 19.1406V17.6406C106.701 17.6406 105.877 17.533 104.924 17.3056L104.576 18.7647ZM107.402 19.1406C108.015 19.1406 108.579 19.0744 109.016 18.8746C109.244 18.7705 109.469 18.6162 109.636 18.3867C109.809 18.1492 109.889 17.8758 109.889 17.5977H108.389C108.389 17.5838 108.396 17.5418 108.424 17.5024C108.447 17.4712 108.454 17.4821 108.393 17.5102C108.252 17.5747 107.948 17.6406 107.402 17.6406V19.1406ZM109.889 17.5977C109.889 16.969 109.494 16.5248 109.05 16.241L108.243 17.5051C108.348 17.5724 108.386 17.6193 108.395 17.6328C108.399 17.6383 108.396 17.6359 108.393 17.6262C108.39 17.6161 108.389 17.6056 108.389 17.5977H109.889ZM109.071 16.2545C108.847 16.1015 108.473 15.9172 108.009 15.7097C107.526 15.4941 106.891 15.23 106.107 14.9183L105.553 16.3122C106.328 16.6203 106.941 16.8757 107.397 17.0793C107.872 17.2912 108.127 17.4259 108.222 17.4916L109.071 16.2545ZM106.115 14.9214C104.744 14.3591 103.893 13.7619 103.445 13.177L102.254 14.0887C102.937 14.9803 104.072 15.7047 105.545 16.3091L106.115 14.9214ZM103.448 13.1805C103.001 12.5895 102.752 11.8149 102.752 10.8027H101.252C101.252 12.0692 101.568 13.1814 102.251 14.0851L103.448 13.1805ZM102.752 10.8027C102.752 9.58933 103.203 8.70068 104.109 8.04773L103.231 6.83118C101.912 7.7824 101.252 9.13593 101.252 10.8027H102.752ZM104.109 8.04773C105.045 7.37256 106.439 6.98633 108.387 6.98633V5.48633C106.269 5.48633 104.519 5.90218 103.231 6.83118L104.109 8.04773ZM108.387 6.98633C109.352 6.98633 110.246 7.09399 111.072 7.30485L111.443 5.8514C110.483 5.60653 109.463 5.48633 108.387 5.48633V6.98633ZM111.081 7.30701C111.934 7.51385 112.826 7.82183 113.757 8.23445L114.365 6.8632C113.363 6.41906 112.386 6.0799 111.435 5.84924L111.081 7.30701ZM113.369 7.25803L111.92 10.7033L113.303 11.2849L114.752 7.83963L113.369 7.25803ZM112.918 10.3099C112.171 9.9744 111.383 9.69285 110.555 9.46451L110.156 10.9105C110.914 11.1197 111.63 11.3759 112.304 11.6784L112.918 10.3099ZM110.563 9.46667C109.74 9.23021 109.016 9.0957 108.414 9.0957V10.5957C108.815 10.5957 109.385 10.6891 110.148 10.9083L110.563 9.46667ZM108.414 9.0957C107.939 9.0957 107.473 9.1499 107.1 9.33274C106.903 9.42924 106.708 9.57313 106.564 9.78506C106.416 10.0025 106.352 10.2467 106.352 10.4883H107.852C107.852 10.5157 107.842 10.5725 107.804 10.6292C107.769 10.6805 107.738 10.6906 107.759 10.68C107.784 10.6681 107.845 10.645 107.961 10.6261C108.075 10.6075 108.224 10.5957 108.414 10.5957V9.0957ZM106.352 10.4883C106.352 11.0948 106.717 11.529 107.15 11.8046L107.955 10.5391C107.868 10.4835 107.842 10.4476 107.84 10.4443C107.84 10.4436 107.844 10.4493 107.847 10.4605C107.851 10.472 107.852 10.4821 107.852 10.4883H106.352ZM107.172 11.8183C107.545 12.0376 108.496 12.4396 109.93 13.0045L110.48 11.6088C108.998 11.0252 108.18 10.6707 107.933 10.5254L107.172 11.8183ZM109.92 13.0001C110.978 13.436 111.707 13.8407 112.153 14.2018L113.097 13.0364C112.486 12.5408 111.601 12.0705 110.491 11.6131L109.92 13.0001ZM112.158 14.2058C112.606 14.5629 112.917 14.9702 113.11 15.4282L114.492 14.8452C114.193 14.1366 113.719 13.5321 113.092 13.0325L112.158 14.2058ZM113.115 15.4413C113.317 15.8942 113.434 16.4857 113.434 17.2422H114.934C114.934 16.3398 114.795 15.5277 114.486 14.8321L113.115 15.4413ZM122.523 22V22.75H123.273V22H122.523ZM117.178 22H116.428V22.75H117.178V22ZM117.178 6.50977V5.75977H116.428V6.50977H117.178ZM122.523 6.50977H123.273V5.75977H122.523V6.50977ZM122.045 0.876953L121.549 1.43999L122.045 0.876953ZM122.523 21.25H117.178V22.75H122.523V21.25ZM117.928 22V6.50977H116.428V22H117.928ZM117.178 7.25977H122.523V5.75977H117.178V7.25977ZM121.773 6.50977V22H123.273V6.50977H121.773ZM117.791 2.6543C117.791 1.98876 117.973 1.63143 118.206 1.427L117.216 0.299562C116.556 0.878983 116.291 1.71567 116.291 2.6543H117.791ZM118.206 1.427C118.449 1.21326 118.946 1.02539 119.871 1.02539V-0.474609C118.809 -0.474609 117.866 -0.270549 117.216 0.299562L118.206 1.427ZM119.871 1.02539C120.791 1.02539 121.295 1.21579 121.549 1.43999L122.54 0.313918C121.884 -0.263967 120.938 -0.474609 119.871 -0.474609V1.02539ZM121.549 1.43999C121.799 1.65969 121.979 2.01902 121.979 2.6543H123.479C123.479 1.72186 123.202 0.896296 122.54 0.313918L121.549 1.43999ZM121.979 2.6543C121.979 3.27984 121.796 3.62656 121.538 3.83886C121.252 4.07419 120.74 4.25586 119.871 4.25586V5.75586C120.908 5.75586 121.824 5.5456 122.491 4.99708C123.185 4.42552 123.479 3.59646 123.479 2.6543H121.979ZM119.871 4.25586C119.013 4.25586 118.509 4.07474 118.228 3.84112C117.973 3.6296 117.791 3.28223 117.791 2.6543H116.291C116.291 3.59407 116.58 4.42248 117.269 4.99482C117.931 5.54505 118.842 5.75586 119.871 5.75586V4.25586ZM140.871 6.50977H141.621V5.75977H140.871V6.50977ZM140.871 9.09375L141.13 9.79766L141.621 9.61705V9.09375H140.871ZM138.752 9.87305L138.493 9.16913L137.673 9.47059L138.095 10.2354L138.752 9.87305ZM137.426 15.6016L136.963 15.011L136.961 15.0128L137.426 15.6016ZM130.822 16.873L130.981 16.14L130.429 16.0208L130.162 16.5175L130.822 16.873ZM131.273 18.1582L131.032 18.8682L131.039 18.8705L131.045 18.8727L131.273 18.1582ZM138.314 27.1543L137.906 26.5254L137.904 26.5264L138.314 27.1543ZM126.461 27.6191L126.855 26.9812L126.854 26.9804L126.461 27.6191ZM128.129 20.8789L128.3 21.6092L130.54 21.0847L128.421 20.1882L128.129 20.8789ZM126.885 19.9082L126.292 20.3679L126.298 20.3753L126.885 19.9082ZM126.762 17.3105L127.369 17.7508L127.374 17.7436L126.762 17.3105ZM128.416 15.9844L128.806 16.625L130.031 15.8796L128.72 15.2987L128.416 15.9844ZM126.516 14.3164L125.873 14.7034L125.877 14.709L126.516 14.3164ZM135.471 6.50977L135.347 7.24956L135.409 7.25977H135.471V6.50977ZM129.906 24.9805L130.281 24.3308L130.272 24.3254L129.906 24.9805ZM134.91 24.8984L134.627 24.2037L134.618 24.2078L134.91 24.8984ZM135.375 22.7793L135.632 22.0747L135.62 22.0706L135.375 22.7793ZM129.783 22.9297L129.37 22.3035L129.362 22.3089L129.354 22.3146L129.783 22.9297ZM133.707 13.373L133.099 12.9344L133.092 12.9439L133.707 13.373ZM140.121 6.50977V9.09375H141.621V6.50977H140.121ZM140.612 8.38984L138.493 9.16913L139.011 10.577L141.13 9.79766L140.612 8.38984ZM138.095 10.2354C138.316 10.6362 138.439 11.1229 138.439 11.7188H139.939C139.939 10.9109 139.771 10.1672 139.409 9.51074L138.095 10.2354ZM138.439 11.7188C138.439 13.1869 137.935 14.2506 136.963 15.011L137.888 16.1921C139.268 15.1114 139.939 13.5866 139.939 11.7188H138.439ZM136.961 15.0128C135.983 15.7845 134.434 16.2324 132.189 16.2324V17.7324C134.593 17.7324 136.535 17.2598 137.89 16.1903L136.961 15.0128ZM132.189 16.2324C131.638 16.2324 131.243 16.1967 130.981 16.14L130.664 17.6061C131.076 17.6952 131.592 17.7324 132.189 17.7324V16.2324ZM130.162 16.5175C129.992 16.8335 129.881 17.1789 129.881 17.543H131.381C131.381 17.4877 131.398 17.3865 131.483 17.2286L130.162 16.5175ZM129.881 17.543C129.881 18.326 130.542 18.7016 131.032 18.8682L131.515 17.4482C131.44 17.4225 131.387 17.3986 131.352 17.3795C131.316 17.3602 131.306 17.3497 131.31 17.3533C131.315 17.358 131.335 17.379 131.353 17.4188C131.372 17.4603 131.381 17.5043 131.381 17.543H129.881ZM131.045 18.8727C131.576 19.042 132.222 19.1133 132.955 19.1133V17.6133C132.303 17.6133 131.828 17.5478 131.501 17.4437L131.045 18.8727ZM132.955 19.1133H135.525V17.6133H132.955V19.1133ZM135.525 19.1133C137.174 19.1133 138.272 19.4633 138.949 20.034C139.602 20.584 139.984 21.4416 139.984 22.752H141.484C141.484 21.1365 140.999 19.7998 139.915 18.8869C138.856 17.9947 137.349 17.6133 135.525 17.6133V19.1133ZM139.984 22.752C139.984 24.3788 139.311 25.6122 137.906 26.5254L138.723 27.7832C140.544 26.6 141.484 24.8986 141.484 22.752H139.984ZM137.904 26.5264C136.47 27.4636 134.379 27.9766 131.547 27.9766V29.4766C134.53 29.4766 136.951 28.9413 138.725 27.7822L137.904 26.5264ZM131.547 27.9766C129.418 27.9766 127.882 27.6158 126.855 26.9812L126.067 28.257C127.428 29.099 129.283 29.4766 131.547 29.4766V27.9766ZM126.854 26.9804C125.888 26.3859 125.434 25.5733 125.434 24.4609H123.934C123.934 26.1011 124.664 27.394 126.068 28.2579L126.854 26.9804ZM125.434 24.4609C125.434 23.705 125.662 23.1381 126.085 22.6976C126.525 22.2404 127.235 21.8584 128.3 21.6092L127.958 20.1487C126.726 20.4372 125.713 20.9211 125.004 21.6578C124.28 22.4113 123.934 23.3666 123.934 24.4609H125.434ZM128.421 20.1882C128.075 20.0416 127.758 19.8007 127.472 19.4411L126.298 20.3753C126.723 20.909 127.235 21.3152 127.837 21.5696L128.421 20.1882ZM127.477 19.4486C127.203 19.0948 127.115 18.81 127.115 18.582H125.615C125.615 19.229 125.874 19.8284 126.292 20.3678L127.477 19.4486ZM127.115 18.582C127.115 18.2449 127.204 17.9778 127.369 17.7508L126.155 16.8703C125.79 17.3724 125.615 17.953 125.615 18.582H127.115ZM127.374 17.7436C127.543 17.5049 127.977 17.1293 128.806 16.625L128.026 15.3437C127.177 15.8602 126.509 16.3688 126.149 16.8774L127.374 17.7436ZM128.72 15.2987C128.058 15.0055 127.541 14.5526 127.155 13.9238L125.877 14.709C126.42 15.5932 127.169 16.2523 128.112 16.6701L128.72 15.2987ZM127.158 13.9294C126.787 13.3137 126.582 12.534 126.582 11.5547H125.082C125.082 12.7447 125.333 13.8061 125.873 14.7034L127.158 13.9294ZM126.582 11.5547C126.582 10.0588 127.08 8.97988 128.027 8.21379L127.083 7.04793C125.732 8.14121 125.082 9.67816 125.082 11.5547H126.582ZM128.027 8.21379C128.993 7.43111 130.441 6.98633 132.477 6.98633V5.48633C130.246 5.48633 128.413 5.97123 127.083 7.04793L128.027 8.21379ZM132.477 6.98633C132.721 6.98633 133.177 7.01502 133.871 7.07887L134.008 5.58519C133.316 5.52144 132.797 5.48633 132.477 5.48633V6.98633ZM133.871 7.07887C134.56 7.14239 135.048 7.19964 135.347 7.24956L135.594 5.76997C135.237 5.71052 134.704 5.64928 134.008 5.58519L133.871 7.07887ZM135.471 7.25977H140.871V5.75977H135.471V7.25977ZM128.445 23.9277C128.445 24.7062 128.897 25.2761 129.541 25.6355L130.272 24.3254C129.968 24.1561 129.945 24.0243 129.945 23.9277H128.445ZM129.531 25.6301C130.159 25.9923 130.938 26.1406 131.807 26.1406V24.6406C131.09 24.6406 130.601 24.5155 130.281 24.3308L129.531 25.6301ZM131.807 26.1406C133.153 26.1406 134.299 25.9717 135.203 25.5891L134.618 24.2078C133.972 24.4815 133.049 24.6406 131.807 24.6406V26.1406ZM135.193 25.5931C136.053 25.2429 136.836 24.6434 136.836 23.6543H135.336C135.336 23.6948 135.328 23.7471 135.247 23.833C135.151 23.9341 134.964 24.0668 134.627 24.2038L135.193 25.5931ZM136.836 23.6543C136.836 23.2938 136.728 22.947 136.49 22.655C136.262 22.374 135.954 22.1925 135.632 22.0748L135.118 23.4837C135.27 23.5393 135.317 23.5902 135.326 23.6009C135.33 23.6054 135.33 23.6071 135.331 23.6088C135.332 23.6114 135.336 23.6246 135.336 23.6543H136.836ZM135.62 22.0706C135.029 21.8659 134.252 21.7832 133.338 21.7832V23.2832C134.192 23.2832 134.773 23.3646 135.13 23.488L135.62 22.0706ZM133.338 21.7832H131.246V23.2832H133.338V21.7832ZM131.246 21.7832C130.554 21.7832 129.916 21.9437 129.37 22.3035L130.196 23.5559C130.452 23.387 130.789 23.2832 131.246 23.2832V21.7832ZM129.354 22.3146C128.811 22.6934 128.445 23.2355 128.445 23.9277H129.945C129.945 23.8362 129.971 23.7128 130.212 23.5448L129.354 22.3146ZM130.127 11.582C130.127 12.4388 130.272 13.2148 130.675 13.7944C131.112 14.4235 131.775 14.7109 132.531 14.7109V13.2109C132.185 13.2109 132.02 13.1019 131.906 12.938C131.758 12.7246 131.627 12.3112 131.627 11.582H130.127ZM132.531 14.7109C133.267 14.7109 133.898 14.4108 134.322 13.8022L133.092 12.9439C132.97 13.1192 132.816 13.2109 132.531 13.2109V14.7109ZM134.315 13.8116C134.731 13.2346 134.881 12.4609 134.881 11.6094H133.381C133.381 12.3256 133.248 12.7276 133.099 12.9344L134.315 13.8116ZM134.881 11.6094C134.881 10.7479 134.742 9.97082 134.356 9.38948C133.933 8.75421 133.284 8.45312 132.531 8.45312V9.95312C132.845 9.95312 132.995 10.0531 133.106 10.2199C133.253 10.4406 133.381 10.8667 133.381 11.6094H134.881ZM132.531 8.45312C131.775 8.45312 131.112 8.74059 130.675 9.36966C130.272 9.94926 130.127 10.7252 130.127 11.582H131.627C131.627 10.8529 131.758 10.4394 131.906 10.226C132.02 10.0621 132.185 9.95312 132.531 9.95312V8.45312ZM152.984 22H152.234V22.75H152.984V22ZM149.197 11.541L148.545 11.1706L148.544 11.1733L149.197 11.541ZM148.582 22V22.75H149.332V22H148.582ZM143.236 22H142.486V22.75H143.236V22ZM143.236 0.726562V-0.0234375H142.486V0.726562H143.236ZM148.582 0.726562H149.332V-0.0234375H148.582V0.726562ZM148.363 8.42383L147.616 8.36154L147.548 9.17383H148.363V8.42383ZM148.609 8.42383V9.17383H149.021L149.242 8.82648L148.609 8.42383ZM156.908 7.74023L156.366 8.25811L156.371 8.26311L156.908 7.74023ZM158.357 22V22.75H159.107V22H158.357ZM153.734 22V13.5508H152.234V22H153.734ZM153.734 13.5508C153.734 12.4622 153.578 11.522 153.168 10.8308C152.723 10.0779 152.013 9.68359 151.139 9.68359V11.1836C151.495 11.1836 151.708 11.3088 151.878 11.595C152.084 11.9428 152.234 12.5612 152.234 13.5508H153.734ZM151.139 9.68359C150.004 9.68359 149.103 10.189 148.545 11.1706L149.849 11.9114C150.13 11.4165 150.523 11.1836 151.139 11.1836V9.68359ZM148.544 11.1733C148.033 12.0813 147.832 13.466 147.832 15.1914H149.332C149.332 13.508 149.541 12.459 149.851 11.9087L148.544 11.1733ZM147.832 15.1914V22H149.332V15.1914H147.832ZM148.582 21.25H143.236V22.75H148.582V21.25ZM143.986 22V0.726562H142.486V22H143.986ZM143.236 1.47656H148.582V-0.0234375H143.236V1.47656ZM147.832 0.726562V3.74805H149.332V0.726562H147.832ZM147.832 3.74805C147.832 5.08959 147.76 6.62677 147.616 8.36154L149.111 8.48611C149.258 6.72088 149.332 5.14088 149.332 3.74805H147.832ZM148.363 9.17383H148.609V7.67383H148.363V9.17383ZM149.242 8.82648C149.693 8.11732 150.199 7.66321 150.745 7.40793L150.11 6.0491C149.252 6.45007 148.546 7.12617 147.977 8.02117L149.242 8.82648ZM150.745 7.40793C151.33 7.13466 152.033 6.98633 152.875 6.98633V5.48633C151.857 5.48633 150.929 5.66612 150.11 6.0491L150.745 7.40793ZM152.875 6.98633C154.456 6.98633 155.584 7.43897 156.366 8.25809L157.451 7.22238C156.319 6.03629 154.757 5.48633 152.875 5.48633V6.98633ZM156.371 8.26311C157.164 9.07879 157.607 10.2635 157.607 11.9238H159.107C159.107 9.99297 158.585 8.38866 157.446 7.21736L156.371 8.26311ZM157.607 11.9238V22H159.107V11.9238H157.607ZM158.357 21.25H152.984V22.75H158.357V21.25ZM172.166 17.5156H172.916V16.454L171.915 16.8087L172.166 17.5156ZM172.166 21.4121L172.463 22.101L172.916 21.9058V21.4121H172.166ZM170.102 22.0684L169.958 21.3321L169.947 21.3346L170.102 22.0684ZM163.936 20.9609L163.377 21.4617L163.38 21.4646L163.936 20.9609ZM162.746 10.5156H163.496V9.76562H162.746V10.5156ZM160.873 10.5156H160.123V11.2656H160.873V10.5156ZM160.873 8.3418L160.44 7.72936L160.123 7.9535V8.3418H160.873ZM163.252 6.66016L163.685 7.27259L163.859 7.14948L163.942 6.95314L163.252 6.66016ZM164.633 3.40625V2.65625H164.136L163.942 3.11326L164.633 3.40625ZM168.133 3.40625H168.883V2.65625H168.133V3.40625ZM168.133 6.50977H167.383V7.25977H168.133V6.50977ZM171.934 6.50977H172.684V5.75977H171.934V6.50977ZM171.934 10.5156V11.2656H172.684V10.5156H171.934ZM168.133 10.5156V9.76562H167.383V10.5156H168.133ZM169.582 18.7988C170.418 18.7988 171.368 18.5942 172.417 18.2225L171.915 16.8087C170.959 17.148 170.186 17.2988 169.582 17.2988V18.7988ZM171.416 17.5156V21.4121H172.916V17.5156H171.416ZM171.87 20.7232C171.191 21.0154 170.554 21.2164 169.958 21.3321L170.245 22.8046C170.962 22.6652 171.701 22.4286 172.463 22.101L171.87 20.7232ZM169.947 21.3346C169.364 21.4577 168.657 21.5234 167.818 21.5234V23.0234C168.73 23.0234 169.545 22.9525 170.257 22.8022L169.947 21.3346ZM167.818 21.5234C166.124 21.5234 165.082 21.1091 164.491 20.4573L163.38 21.4646C164.375 22.5627 165.921 23.0234 167.818 23.0234V21.5234ZM164.494 20.4602C163.876 19.7711 163.496 18.6338 163.496 16.9004H161.996C161.996 18.8129 162.409 20.3826 163.377 21.4617L164.494 20.4602ZM163.496 16.9004V10.5156H161.996V16.9004H163.496ZM162.746 9.76562H160.873V11.2656H162.746V9.76562ZM161.623 10.5156V8.3418H160.123V10.5156H161.623ZM161.306 8.95423L163.685 7.27259L162.819 6.04772L160.44 7.72936L161.306 8.95423ZM163.942 6.95314L165.323 3.69924L163.942 3.11326L162.562 6.36717L163.942 6.95314ZM164.633 4.15625H168.133V2.65625H164.633V4.15625ZM167.383 3.40625V6.50977H168.883V3.40625H167.383ZM168.133 7.25977H171.934V5.75977H168.133V7.25977ZM171.184 6.50977V10.5156H172.684V6.50977H171.184ZM171.934 9.76562H168.133V11.2656H171.934V9.76562ZM167.383 10.5156V16.5449H168.883V10.5156H167.383ZM167.383 16.5449C167.383 17.155 167.529 17.7516 167.955 18.1933C168.386 18.6401 168.976 18.7988 169.582 18.7988V17.2988C169.222 17.2988 169.088 17.2069 169.035 17.1524C168.978 17.0928 168.883 16.9374 168.883 16.5449H167.383ZM177.279 22.082L177.391 21.3403L177.383 21.3393L177.279 22.082ZM174.682 21.4121H173.932V21.9337L174.421 22.1152L174.682 21.4121ZM174.682 17.1328L174.983 16.4462L173.932 15.9839V17.1328H174.682ZM177.402 18.0352L177.227 18.7643L177.228 18.7647L177.402 18.0352ZM181.299 16.873L180.875 17.4916L180.885 17.4985L180.895 17.5051L181.299 16.873ZM178.482 15.6152L178.198 16.3092L178.205 16.3122L178.482 15.6152ZM175.502 13.6328L174.904 14.0852L174.906 14.0887L175.502 13.6328ZM176.322 7.43945L176.761 8.04773L176.322 7.43945ZM183.91 6.57812L183.725 7.3049L183.733 7.30701L183.91 6.57812ZM186.713 7.54883L187.404 7.83963L187.689 7.16143L187.017 6.8632L186.713 7.54883ZM185.264 10.9941L184.957 11.6784L185.657 11.9928L185.955 11.2849L185.264 10.9941ZM183.008 10.1875L182.801 10.9084L182.808 10.9105L183.008 10.1875ZM180.205 11.1719L179.802 11.8046L179.813 11.8117L179.825 11.8183L180.205 11.1719ZM182.857 12.3066L183.143 11.613L183.132 11.6088L182.857 12.3066ZM185.277 13.6191L184.805 14.2019L184.81 14.2058L185.277 13.6191ZM186.453 15.1367L185.762 15.4282L185.765 15.4348L185.768 15.4413L186.453 15.1367ZM186.086 17.2422C186.086 18.7115 185.598 19.7217 184.691 20.402L185.591 21.602C186.944 20.5869 187.586 19.0906 187.586 17.2422H186.086ZM184.691 20.402C183.74 21.1145 182.302 21.5234 180.273 21.5234V23.0234C182.474 23.0234 184.28 22.5847 185.591 21.602L184.691 20.402ZM180.273 21.5234C179.151 21.5234 178.192 21.4609 177.391 21.3404L177.168 22.8237C178.062 22.9583 179.099 23.0234 180.273 23.0234V21.5234ZM177.383 21.3393C176.594 21.229 175.781 21.0201 174.943 20.709L174.421 22.1152C175.351 22.4603 176.269 22.6981 177.175 22.8248L177.383 21.3393ZM175.432 21.4121V17.1328H173.932V21.4121H175.432ZM174.38 17.8194C175.254 18.2038 176.204 18.5181 177.227 18.7643L177.578 17.306C176.632 17.0782 175.768 16.7909 174.983 16.4462L174.38 17.8194ZM177.228 18.7647C178.262 19.0112 179.206 19.1406 180.055 19.1406V17.6406C179.354 17.6406 178.53 17.533 177.576 17.3056L177.228 18.7647ZM180.055 19.1406C180.667 19.1406 181.231 19.0744 181.669 18.8746C181.896 18.7705 182.121 18.6162 182.288 18.3867C182.462 18.1492 182.541 17.8758 182.541 17.5977H181.041C181.041 17.5838 181.048 17.5418 181.077 17.5024C181.099 17.4712 181.107 17.4821 181.045 17.5102C180.904 17.5747 180.6 17.6406 180.055 17.6406V19.1406ZM182.541 17.5977C182.541 16.969 182.147 16.5248 181.703 16.241L180.895 17.5051C181 17.5724 181.038 17.6193 181.048 17.6328C181.051 17.6383 181.049 17.6359 181.046 17.6262C181.042 17.6161 181.041 17.6056 181.041 17.5977H182.541ZM181.723 16.2545C181.5 16.1015 181.126 15.9172 180.661 15.7097C180.178 15.4941 179.543 15.23 178.76 14.9183L178.205 16.3122C178.98 16.6203 179.594 16.8757 180.05 17.0793C180.524 17.2912 180.779 17.4259 180.875 17.4916L181.723 16.2545ZM178.767 14.9214C177.397 14.3591 176.545 13.7619 176.098 13.177L174.906 14.0887C175.589 14.9803 176.724 15.7047 178.198 16.3091L178.767 14.9214ZM176.1 13.1805C175.653 12.5895 175.404 11.8149 175.404 10.8027H173.904C173.904 12.0692 174.22 13.1814 174.904 14.0851L176.1 13.1805ZM175.404 10.8027C175.404 9.58933 175.856 8.70068 176.761 8.04773L175.884 6.83118C174.565 7.7824 173.904 9.13593 173.904 10.8027H175.404ZM176.761 8.04773C177.697 7.37256 179.092 6.98633 181.039 6.98633V5.48633C178.921 5.48633 177.171 5.90218 175.884 6.83118L176.761 8.04773ZM181.039 6.98633C182.004 6.98633 182.898 7.09399 183.725 7.30485L184.096 5.8514C183.136 5.60653 182.116 5.48633 181.039 5.48633V6.98633ZM183.733 7.30701C184.587 7.51385 185.478 7.82183 186.409 8.23445L187.017 6.8632C186.015 6.41906 185.038 6.0799 184.087 5.84924L183.733 7.30701ZM186.022 7.25803L184.572 10.7033L185.955 11.2849L187.404 7.83963L186.022 7.25803ZM185.571 10.3099C184.823 9.9744 184.035 9.69285 183.207 9.46451L182.808 10.9105C183.567 11.1197 184.282 11.3759 184.957 11.6784L185.571 10.3099ZM183.215 9.46667C182.392 9.23021 181.668 9.0957 181.066 9.0957V10.5957C181.467 10.5957 182.038 10.6891 182.801 10.9083L183.215 9.46667ZM181.066 9.0957C180.592 9.0957 180.126 9.1499 179.752 9.33274C179.555 9.42924 179.36 9.57313 179.216 9.78506C179.068 10.0025 179.004 10.2467 179.004 10.4883H180.504C180.504 10.5157 180.495 10.5725 180.456 10.6292C180.421 10.6805 180.39 10.6906 180.412 10.68C180.436 10.6681 180.497 10.645 180.613 10.6261C180.727 10.6075 180.876 10.5957 181.066 10.5957V9.0957ZM179.004 10.4883C179.004 11.0948 179.369 11.529 179.802 11.8046L180.608 10.5391C180.52 10.4835 180.495 10.4476 180.493 10.4443C180.492 10.4436 180.496 10.4493 180.499 10.4605C180.503 10.472 180.504 10.4821 180.504 10.4883H179.004ZM179.825 11.8183C180.198 12.0376 181.148 12.4396 182.583 13.0045L183.132 11.6088C181.65 11.0252 180.832 10.6707 180.585 10.5254L179.825 11.8183ZM182.572 13.0001C183.63 13.436 184.359 13.8407 184.805 14.2018L185.75 13.0364C185.138 12.5408 184.254 12.0705 183.143 11.6131L182.572 13.0001ZM184.81 14.2058C185.258 14.5629 185.569 14.9702 185.762 15.4282L187.144 14.8452C186.845 14.1366 186.372 13.5321 185.745 13.0325L184.81 14.2058ZM185.768 15.4413C185.969 15.8942 186.086 16.4857 186.086 17.2422H187.586C187.586 16.3398 187.448 15.5277 187.138 14.8321L185.768 15.4413Z" fill="#7B838D"/>
</svg>
