<svg width="345" height="23" viewBox="0 0 345 23" fill="none" xmlns="http://www.w3.org/2000/svg">
<path d="M17.1543 2.01172H17.9043V1.26172H17.1543V2.01172ZM14.9258 20.127L15.4477 20.6655L15.4478 20.6655L14.9258 20.127ZM2.23828 20.1816L1.71994 20.7237L1.72163 20.7253L2.23828 20.1816ZM0.0507812 2.01172V1.26172H-0.699219V2.01172H0.0507812ZM5.47852 2.01172H6.22852V1.26172H5.47852V2.01172ZM6.27148 16.8184L6.849 16.3398L6.27148 16.8184ZM11.002 16.832L10.4122 16.3687L10.4113 16.3698L11.002 16.832ZM11.7539 2.01172V1.26172H11.0039V2.01172H11.7539ZM16.4043 2.01172V14.043H17.9043V2.01172H16.4043ZM16.4043 14.043C16.4043 16.5126 15.7075 18.3247 14.4038 19.5884L15.4478 20.6655C17.1154 19.049 17.9043 16.8051 17.9043 14.043H16.4043ZM14.4038 19.5884C13.111 20.8413 11.1925 21.5234 8.52734 21.5234V23.0234C11.4403 23.0234 13.7875 22.2746 15.4477 20.6655L14.4038 19.5884ZM8.52734 21.5234C5.92636 21.5234 4.04045 20.8596 2.75493 19.638L1.72163 20.7253C3.37101 22.2927 5.6778 23.0234 8.52734 23.0234V21.5234ZM2.75662 19.6396C1.48675 18.4253 0.800781 16.6409 0.800781 14.166H-0.699219C-0.699219 16.9229 0.0731411 19.1489 1.71994 20.7237L2.75662 19.6396ZM0.800781 14.166V2.01172H-0.699219V14.166H0.800781ZM0.0507812 2.76172H5.47852V1.26172H0.0507812V2.76172ZM4.72852 2.01172V13.7422H6.22852V2.01172H4.72852ZM4.72852 13.7422C4.72852 15.2173 4.99865 16.4577 5.69397 17.2969L6.849 16.3398C6.48702 15.903 6.22852 15.0926 6.22852 13.7422H4.72852ZM5.69397 17.2969C6.39902 18.1478 7.41536 18.5254 8.60938 18.5254V17.0254C7.7435 17.0254 7.20124 16.765 6.849 16.3398L5.69397 17.2969ZM8.60938 18.5254C9.84952 18.5254 10.9092 18.1675 11.5926 17.2943L10.4113 16.3698C10.1103 16.7544 9.57495 17.0254 8.60938 17.0254V18.5254ZM11.5917 17.2954C12.2509 16.4564 12.5039 15.2071 12.5039 13.7148H11.0039C11.0039 15.1028 10.7556 15.9316 10.4122 16.3687L11.5917 17.2954ZM12.5039 13.7148V2.01172H11.0039V13.7148H12.5039ZM11.7539 2.76172H17.1543V1.26172H11.7539V2.76172ZM23.4434 22.082L23.555 21.3403L23.5472 21.3393L23.4434 22.082ZM20.8457 21.4121H20.0957V21.9337L20.5847 22.1152L20.8457 21.4121ZM20.8457 17.1328L21.1475 16.4462L20.0957 15.9839V17.1328H20.8457ZM23.5664 18.0352L23.3909 18.7643L23.3924 18.7647L23.5664 18.0352ZM27.4629 16.873L27.0387 17.4916L27.0488 17.4985L27.0591 17.5051L27.4629 16.873ZM24.6465 15.6152L24.3618 16.3092L24.3693 16.3122L24.6465 15.6152ZM21.666 13.6328L21.0678 14.0852L21.0705 14.0887L21.666 13.6328ZM22.4863 7.43945L22.9251 8.04773L22.4863 7.43945ZM30.0742 6.57812L29.8888 7.3049L29.8975 7.30701L30.0742 6.57812ZM32.877 7.54883L33.5683 7.83963L33.8536 7.16143L33.181 6.8632L32.877 7.54883ZM31.4277 10.9941L31.1207 11.6784L31.8213 11.9928L32.1191 11.2849L31.4277 10.9941ZM29.1719 10.1875L28.9647 10.9084L28.9724 10.9105L29.1719 10.1875ZM26.3691 11.1719L25.9665 11.8046L25.9776 11.8117L25.9889 11.8183L26.3691 11.1719ZM29.0215 12.3066L29.3071 11.613L29.2963 11.6088L29.0215 12.3066ZM31.4414 13.6191L30.9692 14.2019L30.9741 14.2058L31.4414 13.6191ZM32.6172 15.1367L31.9262 15.4282L31.9289 15.4348L31.9318 15.4413L32.6172 15.1367ZM32.25 17.2422C32.25 18.7115 31.7617 19.7217 30.8547 20.402L31.7547 21.602C33.1081 20.5869 33.75 19.0906 33.75 17.2422H32.25ZM30.8547 20.402C29.9046 21.1145 28.4665 21.5234 26.4375 21.5234V23.0234C28.6377 23.0234 30.4444 22.5847 31.7547 21.602L30.8547 20.402ZM26.4375 21.5234C25.3147 21.5234 24.3557 21.4609 23.555 21.3404L23.3317 22.8237C24.2263 22.9583 25.2634 23.0234 26.4375 23.0234V21.5234ZM23.5472 21.3393C22.7583 21.229 21.9451 21.0201 21.1067 20.709L20.5847 22.1152C21.5146 22.4603 22.4331 22.6981 23.3395 22.8248L23.5472 21.3393ZM21.5957 21.4121V17.1328H20.0957V21.4121H21.5957ZM20.5439 17.8194C21.4185 18.2038 22.3682 18.5181 23.3909 18.7643L23.7419 17.306C22.7959 17.0782 21.9318 16.7909 21.1475 16.4462L20.5439 17.8194ZM23.3924 18.7647C24.426 19.0112 25.3703 19.1406 26.2188 19.1406V17.6406C25.5178 17.6406 24.6938 17.533 23.7404 17.3056L23.3924 18.7647ZM26.2188 19.1406C26.8311 19.1406 27.3952 19.0744 27.8326 18.8746C28.0605 18.7705 28.2849 18.6162 28.4524 18.3867C28.6258 18.1492 28.7051 17.8758 28.7051 17.5977H27.2051C27.2051 17.5838 27.212 17.5418 27.2408 17.5024C27.2635 17.4712 27.2708 17.4821 27.2094 17.5102C27.068 17.5747 26.764 17.6406 26.2188 17.6406V19.1406ZM28.7051 17.5977C28.7051 16.969 28.3109 16.5248 27.8667 16.241L27.0591 17.5051C27.1645 17.5724 27.2024 17.6193 27.2116 17.6328C27.2153 17.6383 27.2128 17.6359 27.2097 17.6262C27.2065 17.6161 27.2051 17.6056 27.2051 17.5977H28.7051ZM27.887 16.2545C27.6638 16.1015 27.2899 15.9172 26.8254 15.7097C26.3425 15.4941 25.7074 15.23 24.9236 14.9183L24.3693 16.3122C25.1442 16.6203 25.7578 16.8757 26.2137 17.0793C26.688 17.2912 26.9429 17.4259 27.0387 17.4916L27.887 16.2545ZM24.9312 14.9214C23.5607 14.3591 22.7093 13.7619 22.2616 13.177L21.0705 14.0887C21.753 14.9803 22.8885 15.7047 24.3618 16.3091L24.9312 14.9214ZM22.2643 13.1805C21.8174 12.5895 21.5684 11.8149 21.5684 10.8027H20.0684C20.0684 12.0692 20.3844 13.1814 21.0678 14.0851L22.2643 13.1805ZM21.5684 10.8027C21.5684 9.58933 22.0199 8.70068 22.9251 8.04773L22.0476 6.83118C20.7288 7.7824 20.0684 9.13593 20.0684 10.8027H21.5684ZM22.9251 8.04773C23.8611 7.37256 25.2558 6.98633 27.2031 6.98633V5.48633C25.0853 5.48633 23.3355 5.90218 22.0476 6.83118L22.9251 8.04773ZM27.2031 6.98633C28.168 6.98633 29.0623 7.09399 29.8888 7.30485L30.2596 5.8514C29.2997 5.60653 28.2799 5.48633 27.2031 5.48633V6.98633ZM29.8975 7.30701C30.7507 7.51385 31.6423 7.82183 32.5729 8.23445L33.181 6.8632C32.1793 6.41906 31.2024 6.0799 30.2509 5.84924L29.8975 7.30701ZM32.1856 7.25803L30.7364 10.7033L32.1191 11.2849L33.5683 7.83963L32.1856 7.25803ZM31.7348 10.3099C30.9871 9.9744 30.1991 9.69285 29.3713 9.46451L28.9724 10.9105C29.7306 11.1197 30.4464 11.3759 31.1207 11.6784L31.7348 10.3099ZM29.379 9.46667C28.5561 9.23021 27.8323 9.0957 27.2305 9.0957V10.5957C27.6312 10.5957 28.2017 10.6891 28.9647 10.9083L29.379 9.46667ZM27.2305 9.0957C26.7558 9.0957 26.2898 9.1499 25.9163 9.33274C25.7192 9.42924 25.5243 9.57313 25.3801 9.78506C25.232 10.0025 25.168 10.2467 25.168 10.4883H26.668C26.668 10.5157 26.6586 10.5725 26.6199 10.6292C26.585 10.6805 26.5542 10.6906 26.5759 10.68C26.6001 10.6681 26.661 10.645 26.777 10.6261C26.891 10.6075 27.0403 10.5957 27.2305 10.5957V9.0957ZM25.168 10.4883C25.168 11.0948 25.5334 11.529 25.9665 11.8046L26.7718 10.5391C26.6844 10.4835 26.6589 10.4476 26.6567 10.4443C26.6563 10.4436 26.66 10.4493 26.6634 10.4605C26.6669 10.472 26.668 10.4821 26.668 10.4883H25.168ZM25.9889 11.8183C26.3617 12.0376 27.3121 12.4396 28.7467 13.0045L29.2963 11.6088C27.8142 11.0252 26.9964 10.6707 26.7494 10.5254L25.9889 11.8183ZM28.7359 13.0001C29.7944 13.436 30.5235 13.8407 30.9692 14.2018L31.9136 13.0364C31.302 12.5408 30.4178 12.0705 29.307 11.6131L28.7359 13.0001ZM30.9741 14.2058C31.4224 14.5629 31.7329 14.9702 31.9262 15.4282L33.3082 14.8452C33.0093 14.1366 32.5359 13.5321 31.9087 13.0325L30.9741 14.2058ZM31.9318 15.4413C32.1331 15.8942 32.25 16.4857 32.25 17.2422H33.75C33.75 16.3398 33.6117 15.5277 33.3025 14.8321L31.9318 15.4413ZM37.4297 20.2227L36.9081 20.7616L36.9116 20.7649L37.4297 20.2227ZM37.2793 8.3418L37.8237 8.85771L37.8253 8.85593L37.2793 8.3418ZM48.3398 8.06836L47.8193 8.60833L47.8233 8.61211L48.3398 8.06836ZM50.2539 15.6973V16.4473H51.0039V15.6973H50.2539ZM40.6973 15.6973V14.9473H39.915L39.9479 15.7288L40.6973 15.6973ZM41.6406 17.7344L41.1613 18.3113L41.1657 18.3148L41.6406 17.7344ZM46.6719 18.2129L46.8337 18.9453L46.8399 18.9438L46.6719 18.2129ZM49.2422 17.2969H49.9922V16.1206L48.9258 16.6169L49.2422 17.2969ZM49.2422 21.1387L49.5834 21.8066L49.9922 21.5977V21.1387H49.2422ZM41.5449 10.4746L42.0571 11.0225L42.0575 11.0221L41.5449 10.4746ZM40.8066 12.334L40.0594 12.2697L39.9894 13.084H40.8066V12.334ZM45.4004 12.334V13.084H46.1689L46.1502 12.3157L45.4004 12.334ZM44.7578 10.543L44.1997 11.0441L44.2054 11.0503L44.7578 10.543ZM43.4453 21.5234C40.9983 21.5234 39.2009 20.8776 37.9478 19.6804L36.9116 20.7649C38.5205 22.3021 40.7334 23.0234 43.4453 23.0234V21.5234ZM37.9513 19.6838C36.7135 18.4856 36.0469 16.7481 36.0469 14.3574H34.5469C34.5469 17.0344 35.3021 19.2071 36.9081 20.7616L37.9513 19.6838ZM36.0469 14.3574C36.0469 11.8629 36.6757 10.069 37.8237 8.8577L36.7349 7.82589C35.2396 9.40369 34.5469 11.6202 34.5469 14.3574H36.0469ZM37.8253 8.85593C38.969 7.64128 40.6348 6.98633 42.9395 6.98633V5.48633C40.3405 5.48633 38.2328 6.23502 36.7332 7.82766L37.8253 8.85593ZM42.9395 6.98633C45.1438 6.98633 46.7329 7.561 47.8193 8.60831L48.8604 7.52841C47.4129 6.13301 45.4018 5.48633 42.9395 5.48633V6.98633ZM47.8233 8.61211C48.9091 9.6436 49.5039 11.1714 49.5039 13.3184H51.0039C51.0039 10.8898 50.3227 8.9176 48.8564 7.52461L47.8233 8.61211ZM49.5039 13.3184V15.6973H51.0039V13.3184H49.5039ZM50.2539 14.9473H40.6973V16.4473H50.2539V14.9473ZM39.9479 15.7288C39.9921 16.7771 40.3845 17.6659 41.1614 18.3113L42.1199 17.1575C41.7118 16.8185 41.4754 16.3492 41.4466 15.6657L39.9479 15.7288ZM41.1657 18.3148C41.9394 18.9478 42.9414 19.2227 44.0879 19.2227V17.7227C43.1744 17.7227 42.545 17.5053 42.1156 17.1539L41.1657 18.3148ZM44.0879 19.2227C45.0722 19.2227 45.9886 19.1319 46.8337 18.9452L46.5101 17.4806C45.7874 17.6402 44.9812 17.7227 44.0879 17.7227V19.2227ZM46.8399 18.9438C47.6947 18.7473 48.6017 18.4222 49.5586 17.9769L48.9258 16.6169C48.0416 17.0283 47.235 17.3139 46.5038 17.482L46.8399 18.9438ZM48.4922 17.2969V21.1387H49.9922V17.2969H48.4922ZM48.901 20.4708C48.1249 20.8673 47.3281 21.1392 46.509 21.2897L46.78 22.765C47.7475 22.5873 48.6824 22.2668 49.5834 21.8066L48.901 20.4708ZM46.509 21.2897C45.6733 21.4432 44.6547 21.5234 43.4453 21.5234V23.0234C44.7151 23.0234 45.8293 22.9396 46.78 22.765L46.509 21.2897ZM43.1309 9.12305C42.3266 9.12305 41.6103 9.38608 41.0324 9.92709L42.0575 11.0221C42.3364 10.7611 42.6774 10.623 43.1309 10.623V9.12305ZM41.0328 9.92671C40.4255 10.4944 40.1407 11.3245 40.0594 12.2697L41.5539 12.3983C41.6184 11.6482 41.8258 11.2387 42.0571 11.0225L41.0328 9.92671ZM40.8066 13.084H45.4004V11.584H40.8066V13.084ZM46.1502 12.3157C46.1286 11.4308 45.87 10.6452 45.3102 10.0357L44.2054 11.0503C44.4659 11.334 44.6357 11.7424 44.6506 12.3523L46.1502 12.3157ZM45.3158 10.0419C44.7521 9.41403 43.9946 9.12305 43.1309 9.12305V10.623C43.6343 10.623 43.9615 10.7787 44.1998 11.0441L45.3158 10.0419ZM63.9531 6.3457L64.0873 5.60778L64.0816 5.60679L63.9531 6.3457ZM64.2539 6.40039L65.0006 6.47121L65.0656 5.78567L64.3881 5.66249L64.2539 6.40039ZM63.7754 11.4453L63.5935 12.1729L64.4397 12.3845L64.522 11.5161L63.7754 11.4453ZM59.4141 12.0879L59.9444 12.6182L59.9489 12.6137L59.4141 12.0879ZM58.6211 22V22.75H59.3711V22H58.6211ZM53.2754 22H52.5254V22.75H53.2754V22ZM53.2754 6.50977V5.75977H52.5254V6.50977H53.2754ZM57.2539 6.50977L57.9646 6.27024L57.7926 5.75977H57.2539V6.50977ZM58.0879 8.98438L57.3772 9.2239L57.5492 9.73438H58.0879V8.98438ZM58.3477 8.98438V9.73438H58.7933L59.0064 9.343L58.3477 8.98438ZM60.207 7.00195L60.6078 7.6359L60.6097 7.6347L60.207 7.00195ZM62.627 6.98633C63.0526 6.98633 63.4515 7.01972 63.8246 7.08461L64.0816 5.60679C63.6162 5.52586 63.131 5.48633 62.627 5.48633V6.98633ZM63.819 7.0836L64.1197 7.13829L64.3881 5.66249L64.0873 5.6078L63.819 7.0836ZM63.5073 6.32957L63.0287 11.3745L64.522 11.5161L65.0006 6.47121L63.5073 6.32957ZM63.9573 10.7177C63.4327 10.5866 62.756 10.5312 61.957 10.5312V12.0312C62.7075 12.0312 63.2431 12.0853 63.5935 12.1729L63.9573 10.7177ZM61.957 10.5312C60.6969 10.5312 59.6097 10.819 58.8792 11.5621L59.9489 12.6137C60.2757 12.2813 60.8838 12.0312 61.957 12.0312V10.5312ZM58.8837 11.5576C58.1717 12.2696 57.8711 13.2532 57.8711 14.3848H59.3711C59.3711 13.5111 59.5991 12.9635 59.9444 12.6182L58.8837 11.5576ZM57.8711 14.3848V22H59.3711V14.3848H57.8711ZM58.6211 21.25H53.2754V22.75H58.6211V21.25ZM54.0254 22V6.50977H52.5254V22H54.0254ZM53.2754 7.25977H57.2539V5.75977H53.2754V7.25977ZM56.5432 6.74929L57.3772 9.2239L58.7986 8.74485L57.9646 6.27024L56.5432 6.74929ZM58.0879 9.73438H58.3477V8.23438H58.0879V9.73438ZM59.0064 9.343C59.3916 8.63546 59.9224 8.06922 60.6078 7.6359L59.8063 6.36801C58.9058 6.93729 58.197 7.69267 57.689 8.62575L59.0064 9.343ZM60.6097 7.6347C61.3125 7.18746 61.9815 6.98633 62.627 6.98633V5.48633C61.6501 5.48633 60.7057 5.79561 59.8044 6.36921L60.6097 7.6347ZM65.1699 16.627H64.4199V17.377H65.1699V16.627ZM65.1699 12.3613V11.6113H64.4199V12.3613H65.1699ZM72.8945 12.3613H73.6445V11.6113H72.8945V12.3613ZM72.8945 16.627V17.377H73.6445V16.627H72.8945ZM65.9199 16.627V12.3613H64.4199V16.627H65.9199ZM65.1699 13.1113H72.8945V11.6113H65.1699V13.1113ZM72.1445 12.3613V16.627H73.6445V12.3613H72.1445ZM72.8945 15.877H65.1699V17.377H72.8945V15.877ZM81.5488 7.74023L82.167 8.16491L82.1687 8.16241L81.5488 7.74023ZM87.4277 17.4883L87.2144 16.7693L87.4277 17.4883ZM89.9297 16.5996H90.6797V15.4784L89.6434 15.9064L89.9297 16.5996ZM89.9297 21.166L90.2332 21.8518L90.6797 21.6542V21.166H89.9297ZM77.3242 19.6484L76.7714 20.1552L76.7728 20.1568L77.3242 19.6484ZM76.0801 6.60547L75.4092 6.27005L75.4077 6.27319L76.0801 6.60547ZM79.4434 2.99609L79.8172 3.64627L79.8185 3.64553L79.4434 2.99609ZM90.8047 3.13281L91.5036 3.40476L91.7562 2.75564L91.1275 2.45584L90.8047 3.13281ZM89.1504 7.38477L88.8318 8.06376L89.5584 8.4046L89.8493 7.65671L89.1504 7.38477ZM84.5566 5.4043C83.0247 5.4043 81.7894 6.05453 80.9289 7.31806L82.1687 8.16241C82.7483 7.31136 83.5182 6.9043 84.5566 6.9043V5.4043ZM80.9306 7.31557C80.0938 8.5337 79.7188 10.1517 79.7188 12.0879H81.2188C81.2188 10.3236 81.5637 9.04313 82.167 8.1649L80.9306 7.31557ZM79.7188 12.0879C79.7188 14.0849 80.0948 15.7199 80.969 16.8691C81.8727 18.0571 83.2155 18.6074 84.8574 18.6074V17.1074C83.5736 17.1074 82.7221 16.6961 82.1628 15.961C81.5742 15.187 81.2188 13.9373 81.2188 12.0879H79.7188ZM84.8574 18.6074C85.8122 18.6074 86.7409 18.4744 87.6411 18.2073L87.2144 16.7693C86.4557 16.9944 85.6709 17.1074 84.8574 17.1074V18.6074ZM87.6411 18.2073C88.4964 17.9535 89.3548 17.6485 90.216 17.2928L89.6434 15.9064C88.8275 16.2434 88.0179 16.5309 87.2144 16.7693L87.6411 18.2073ZM89.1797 16.5996V21.166H90.6797V16.5996H89.1797ZM89.6261 20.4802C88.0674 21.1701 86.2865 21.5234 84.2695 21.5234V23.0234C86.4635 23.0234 88.456 22.6385 90.2332 21.8518L89.6261 20.4802ZM84.2695 21.5234C81.4024 21.5234 79.311 20.6971 77.8756 19.1401L76.7728 20.1568C78.564 22.0998 81.1028 23.0234 84.2695 23.0234V21.5234ZM77.8771 19.1416C76.4422 17.5763 75.668 15.2556 75.668 12.0605H74.168C74.168 15.4827 74.9979 18.2206 76.7714 20.1552L77.8771 19.1416ZM75.668 12.0605C75.668 10.0858 76.0373 8.38485 76.7525 6.93775L75.4077 6.27319C74.5734 7.96151 74.168 9.89725 74.168 12.0605H75.668ZM76.7509 6.94088C77.4718 5.49916 78.4922 4.40816 79.8172 3.64627L79.0695 2.34591C77.4779 3.26111 76.2561 4.57637 75.4093 6.27006L76.7509 6.94088ZM79.8185 3.64553C81.1541 2.87404 82.743 2.47461 84.6113 2.47461V0.974609C82.524 0.974609 80.6675 1.42283 79.0682 2.34666L79.8185 3.64553ZM84.6113 2.47461C86.6587 2.47461 88.6129 2.91858 90.4819 3.80978L91.1275 2.45584C89.0589 1.46944 86.8843 0.974609 84.6113 0.974609V2.47461ZM90.1057 2.86087L88.4514 7.11282L89.8493 7.65671L91.5036 3.40476L90.1057 2.86087ZM89.4689 6.70577C88.7031 6.34651 87.9351 6.04291 87.1648 5.79565L86.7063 7.22388C87.4126 7.45058 88.1211 7.73031 88.8318 8.06376L89.4689 6.70577ZM87.1648 5.79565C86.3458 5.53279 85.4749 5.4043 84.5566 5.4043V6.9043C85.3337 6.9043 86.0487 7.01279 86.7063 7.22388L87.1648 5.79565ZM94.9883 20.2227L94.4666 20.7616L94.4702 20.7649L94.9883 20.2227ZM94.8379 8.3418L95.3823 8.85771L95.3839 8.85593L94.8379 8.3418ZM105.898 8.06836L105.378 8.60833L105.382 8.61211L105.898 8.06836ZM107.812 15.6973V16.4473H108.562V15.6973H107.812ZM98.2559 15.6973V14.9473H97.4736L97.5065 15.7288L98.2559 15.6973ZM99.1992 17.7344L98.7199 18.3113L98.7243 18.3148L99.1992 17.7344ZM104.23 18.2129L104.392 18.9453L104.398 18.9438L104.23 18.2129ZM106.801 17.2969H107.551V16.1206L106.484 16.6169L106.801 17.2969ZM106.801 21.1387L107.142 21.8066L107.551 21.5977V21.1387H106.801ZM99.1035 10.4746L99.6157 11.0225L99.6161 11.0221L99.1035 10.4746ZM98.3652 12.334L97.618 12.2697L97.548 13.084H98.3652V12.334ZM102.959 12.334V13.084H103.728L103.709 12.3157L102.959 12.334ZM102.316 10.543L101.758 11.0441L101.764 11.0503L102.316 10.543ZM101.004 21.5234C98.5569 21.5234 96.7595 20.8776 95.5064 19.6804L94.4702 20.7649C96.0791 22.3021 98.292 23.0234 101.004 23.0234V21.5234ZM95.5099 19.6838C94.2721 18.4856 93.6055 16.7481 93.6055 14.3574H92.1055C92.1055 17.0344 92.8607 19.2071 94.4667 20.7616L95.5099 19.6838ZM93.6055 14.3574C93.6055 11.8629 94.2343 10.069 95.3823 8.8577L94.2935 7.82589C92.7982 9.40369 92.1055 11.6202 92.1055 14.3574H93.6055ZM95.3839 8.85593C96.5276 7.64128 98.1934 6.98633 100.498 6.98633V5.48633C97.899 5.48633 95.7914 6.23502 94.2918 7.82766L95.3839 8.85593ZM100.498 6.98633C102.702 6.98633 104.292 7.561 105.378 8.60831L106.419 7.52841C104.971 6.13301 102.96 5.48633 100.498 5.48633V6.98633ZM105.382 8.61211C106.468 9.6436 107.062 11.1714 107.062 13.3184H108.562C108.562 10.8898 107.881 8.9176 106.415 7.52461L105.382 8.61211ZM107.062 13.3184V15.6973H108.562V13.3184H107.062ZM107.812 14.9473H98.2559V16.4473H107.812V14.9473ZM97.5065 15.7288C97.5507 16.7771 97.9431 17.6659 98.72 18.3113L99.6785 17.1575C99.2704 16.8185 99.034 16.3492 99.0052 15.6657L97.5065 15.7288ZM98.7243 18.3148C99.498 18.9478 100.5 19.2227 101.646 19.2227V17.7227C100.733 17.7227 100.104 17.5053 99.6741 17.1539L98.7243 18.3148ZM101.646 19.2227C102.631 19.2227 103.547 19.1319 104.392 18.9452L104.069 17.4806C103.346 17.6402 102.54 17.7227 101.646 17.7227V19.2227ZM104.398 18.9438C105.253 18.7473 106.16 18.4222 107.117 17.9769L106.484 16.6169C105.6 17.0283 104.794 17.3139 104.062 17.482L104.398 18.9438ZM106.051 17.2969V21.1387H107.551V17.2969H106.051ZM106.46 20.4708C105.683 20.8673 104.887 21.1392 104.068 21.2897L104.339 22.765C105.306 22.5873 106.241 22.2668 107.142 21.8066L106.46 20.4708ZM104.068 21.2897C103.232 21.4432 102.213 21.5234 101.004 21.5234V23.0234C102.274 23.0234 103.388 22.9396 104.339 22.765L104.068 21.2897ZM100.689 9.12305C99.8851 9.12305 99.1689 9.38608 98.591 9.92709L99.6161 11.0221C99.895 10.7611 100.236 10.623 100.689 10.623V9.12305ZM98.5914 9.92671C97.9841 10.4944 97.6993 11.3245 97.618 12.2697L99.1125 12.3983C99.177 11.6482 99.3844 11.2387 99.6157 11.0225L98.5914 9.92671ZM98.3652 13.084H102.959V11.584H98.3652V13.084ZM103.709 12.3157C103.687 11.4308 103.429 10.6452 102.869 10.0357L101.764 11.0503C102.025 11.334 102.194 11.7424 102.209 12.3523L103.709 12.3157ZM102.874 10.0419C102.311 9.41403 101.553 9.12305 100.689 9.12305V10.623C101.193 10.623 101.52 10.7787 101.758 11.0441L102.874 10.0419ZM120.609 22H119.859V22.75H120.609V22ZM120.158 11.2266L119.502 11.5889L119.505 11.5956L119.509 11.6023L120.158 11.2266ZM116.781 11.5137L116.126 11.1487L116.781 11.5137ZM116.18 22V22.75H116.93V22H116.18ZM110.834 22H110.084V22.75H110.834V22ZM110.834 6.50977V5.75977H110.084V6.50977H110.834ZM114.867 6.50977L115.575 6.262L115.399 5.75977H114.867V6.50977ZM115.537 8.42383L114.829 8.67159L115.005 9.17383H115.537V8.42383ZM115.852 8.42383V9.17383H116.267L116.488 8.82133L115.852 8.42383ZM117.738 6.7832L117.431 6.09911L117.428 6.10043L117.738 6.7832ZM124.52 7.72656L123.977 8.24431L123.979 8.24689L124.52 7.72656ZM125.955 22V22.75H126.705V22H125.955ZM121.359 22V13.5508H119.859V22H121.359ZM121.359 13.5508C121.359 12.4716 121.206 11.5395 120.807 10.8508L119.509 11.6023C119.712 11.9527 119.859 12.5701 119.859 13.5508H121.359ZM120.815 10.8643C120.378 10.072 119.637 9.68359 118.736 9.68359V11.1836C119.149 11.1836 119.355 11.3239 119.502 11.5889L120.815 10.8643ZM118.736 9.68359C117.593 9.68359 116.674 10.1646 116.126 11.1487L117.436 11.8786C117.69 11.4226 118.075 11.1836 118.736 11.1836V9.68359ZM116.126 11.1487C115.624 12.0493 115.43 13.4543 115.43 15.2188H116.93C116.93 13.4832 117.136 12.4182 117.436 11.8786L116.126 11.1487ZM115.43 15.2188V22H116.93V15.2188H115.43ZM116.18 21.25H110.834V22.75H116.18V21.25ZM111.584 22V6.50977H110.084V22H111.584ZM110.834 7.25977H114.867V5.75977H110.834V7.25977ZM114.159 6.75753L114.829 8.67159L116.245 8.17607L115.575 6.262L114.159 6.75753ZM115.537 9.17383H115.852V7.67383H115.537V9.17383ZM116.488 8.82133C116.863 8.22042 117.377 7.77114 118.049 7.46598L117.428 6.10043C116.495 6.52443 115.751 7.1689 115.216 8.02633L116.488 8.82133ZM118.046 7.46729C118.745 7.15322 119.566 6.98633 120.527 6.98633V5.48633C119.392 5.48633 118.354 5.68402 117.431 6.09912L118.046 7.46729ZM120.527 6.98633C122.09 6.98633 123.204 7.4342 123.977 8.2443L125.062 7.20882C123.939 6.03194 122.392 5.48633 120.527 5.48633V6.98633ZM123.979 8.24689C124.764 9.06164 125.205 10.2513 125.205 11.9238H126.705C126.705 9.98694 126.189 8.37846 125.06 7.20624L123.979 8.24689ZM125.205 11.9238V22H126.705V11.9238H125.205ZM125.955 21.25H120.609V22.75H125.955V21.25ZM139.764 17.5156H140.514V16.454L139.513 16.8087L139.764 17.5156ZM139.764 21.4121L140.06 22.101L140.514 21.9058V21.4121H139.764ZM137.699 22.0684L137.556 21.3321L137.544 21.3346L137.699 22.0684ZM131.533 20.9609L130.975 21.4617L130.977 21.4646L131.533 20.9609ZM130.344 10.5156H131.094V9.76562H130.344V10.5156ZM128.471 10.5156H127.721V11.2656H128.471V10.5156ZM128.471 8.3418L128.038 7.72936L127.721 7.9535V8.3418H128.471ZM130.85 6.66016L131.283 7.27259L131.457 7.14948L131.54 6.95314L130.85 6.66016ZM132.23 3.40625V2.65625H131.734L131.54 3.11326L132.23 3.40625ZM135.73 3.40625H136.48V2.65625H135.73V3.40625ZM135.73 6.50977H134.98V7.25977H135.73V6.50977ZM139.531 6.50977H140.281V5.75977H139.531V6.50977ZM139.531 10.5156V11.2656H140.281V10.5156H139.531ZM135.73 10.5156V9.76562H134.98V10.5156H135.73ZM137.18 18.7988C138.016 18.7988 138.966 18.5942 140.014 18.2225L139.513 16.8087C138.556 17.148 137.784 17.2988 137.18 17.2988V18.7988ZM139.014 17.5156V21.4121H140.514V17.5156H139.014ZM139.467 20.7232C138.788 21.0154 138.152 21.2164 137.556 21.3321L137.842 22.8046C138.559 22.6652 139.299 22.4286 140.06 22.101L139.467 20.7232ZM137.544 21.3346C136.961 21.4577 136.255 21.5234 135.416 21.5234V23.0234C136.327 23.0234 137.143 22.9525 137.854 22.8022L137.544 21.3346ZM135.416 21.5234C133.722 21.5234 132.68 21.1091 132.089 20.4573L130.977 21.4646C131.973 22.5627 133.519 23.0234 135.416 23.0234V21.5234ZM132.092 20.4602C131.473 19.7711 131.094 18.6338 131.094 16.9004H129.594C129.594 18.8129 130.007 20.3826 130.975 21.4617L132.092 20.4602ZM131.094 16.9004V10.5156H129.594V16.9004H131.094ZM130.344 9.76562H128.471V11.2656H130.344V9.76562ZM129.221 10.5156V8.3418H127.721V10.5156H129.221ZM128.904 8.95423L131.283 7.27259L130.417 6.04772L128.038 7.72936L128.904 8.95423ZM131.54 6.95314L132.921 3.69924L131.54 3.11326L130.159 6.36717L131.54 6.95314ZM132.23 4.15625H135.73V2.65625H132.23V4.15625ZM134.98 3.40625V6.50977H136.48V3.40625H134.98ZM135.73 7.25977H139.531V5.75977H135.73V7.25977ZM138.781 6.50977V10.5156H140.281V6.50977H138.781ZM139.531 9.76562H135.73V11.2656H139.531V9.76562ZM134.98 10.5156V16.5449H136.48V10.5156H134.98ZM134.98 16.5449C134.98 17.155 135.127 17.7516 135.553 18.1933C135.983 18.6401 136.574 18.7988 137.18 18.7988V17.2988C136.819 17.2988 136.685 17.2069 136.633 17.1524C136.575 17.0928 136.48 16.9374 136.48 16.5449H134.98ZM143.934 20.2227L143.412 20.7616L143.415 20.7649L143.934 20.2227ZM143.783 8.3418L144.328 8.85771L144.329 8.85593L143.783 8.3418ZM154.844 8.06836L154.323 8.60833L154.327 8.61211L154.844 8.06836ZM156.758 15.6973V16.4473H157.508V15.6973H156.758ZM147.201 15.6973V14.9473H146.419L146.452 15.7288L147.201 15.6973ZM148.145 17.7344L147.665 18.3113L147.67 18.3148L148.145 17.7344ZM153.176 18.2129L153.338 18.9453L153.344 18.9438L153.176 18.2129ZM155.746 17.2969H156.496V16.1206L155.43 16.6169L155.746 17.2969ZM155.746 21.1387L156.087 21.8066L156.496 21.5977V21.1387H155.746ZM148.049 10.4746L148.561 11.0225L148.561 11.0221L148.049 10.4746ZM147.311 12.334L146.563 12.2697L146.493 13.084H147.311V12.334ZM151.904 12.334V13.084H152.673L152.654 12.3157L151.904 12.334ZM151.262 10.543L150.704 11.0441L150.709 11.0503L151.262 10.543ZM149.949 21.5234C147.502 21.5234 145.705 20.8776 144.452 19.6804L143.415 20.7649C145.024 22.3021 147.237 23.0234 149.949 23.0234V21.5234ZM144.455 19.6838C143.217 18.4856 142.551 16.7481 142.551 14.3574H141.051C141.051 17.0344 141.806 19.2071 143.412 20.7616L144.455 19.6838ZM142.551 14.3574C142.551 11.8629 143.18 10.069 144.328 8.8577L143.239 7.82589C141.744 9.40369 141.051 11.6202 141.051 14.3574H142.551ZM144.329 8.85593C145.473 7.64128 147.139 6.98633 149.443 6.98633V5.48633C146.844 5.48633 144.737 6.23502 143.237 7.82766L144.329 8.85593ZM149.443 6.98633C151.648 6.98633 153.237 7.561 154.323 8.60831L155.364 7.52841C153.917 6.13301 151.906 5.48633 149.443 5.48633V6.98633ZM154.327 8.61211C155.413 9.6436 156.008 11.1714 156.008 13.3184H157.508C157.508 10.8898 156.827 8.9176 155.36 7.52461L154.327 8.61211ZM156.008 13.3184V15.6973H157.508V13.3184H156.008ZM156.758 14.9473H147.201V16.4473H156.758V14.9473ZM146.452 15.7288C146.496 16.7771 146.888 17.6659 147.665 18.3113L148.624 17.1575C148.216 16.8185 147.979 16.3492 147.951 15.6657L146.452 15.7288ZM147.67 18.3148C148.443 18.9478 149.445 19.2227 150.592 19.2227V17.7227C149.678 17.7227 149.049 17.5053 148.619 17.1539L147.67 18.3148ZM150.592 19.2227C151.576 19.2227 152.493 19.1319 153.338 18.9452L153.014 17.4806C152.291 17.6402 151.485 17.7227 150.592 17.7227V19.2227ZM153.344 18.9438C154.199 18.7473 155.106 18.4222 156.063 17.9769L155.43 16.6169C154.545 17.0283 153.739 17.3139 153.008 17.482L153.344 18.9438ZM154.996 17.2969V21.1387H156.496V17.2969H154.996ZM155.405 20.4708C154.629 20.8673 153.832 21.1392 153.013 21.2897L153.284 22.765C154.251 22.5873 155.186 22.2668 156.087 21.8066L155.405 20.4708ZM153.013 21.2897C152.177 21.4432 151.159 21.5234 149.949 21.5234V23.0234C151.219 23.0234 152.333 22.9396 153.284 22.765L153.013 21.2897ZM149.635 9.12305C148.83 9.12305 148.114 9.38608 147.536 9.92709L148.561 11.0221C148.84 10.7611 149.181 10.623 149.635 10.623V9.12305ZM147.537 9.92671C146.929 10.4944 146.645 11.3245 146.563 12.2697L148.058 12.3983C148.122 11.6482 148.33 11.2387 148.561 11.0225L147.537 9.92671ZM147.311 13.084H151.904V11.584H147.311V13.084ZM152.654 12.3157C152.632 11.4308 152.374 10.6452 151.814 10.0357L150.709 11.0503C150.97 11.334 151.14 11.7424 151.155 12.3523L152.654 12.3157ZM151.82 10.0419C151.256 9.41403 150.499 9.12305 149.635 9.12305V10.623C150.138 10.623 150.465 10.7787 150.704 11.0441L151.82 10.0419ZM170.457 6.3457L170.591 5.60778L170.586 5.60679L170.457 6.3457ZM170.758 6.40039L171.504 6.47121L171.569 5.78567L170.892 5.66249L170.758 6.40039ZM170.279 11.4453L170.097 12.1729L170.944 12.3845L171.026 11.5161L170.279 11.4453ZM165.918 12.0879L166.448 12.6182L166.453 12.6137L165.918 12.0879ZM165.125 22V22.75H165.875V22H165.125ZM159.779 22H159.029V22.75H159.779V22ZM159.779 6.50977V5.75977H159.029V6.50977H159.779ZM163.758 6.50977L164.469 6.27024L164.296 5.75977H163.758V6.50977ZM164.592 8.98438L163.881 9.2239L164.053 9.73438H164.592V8.98438ZM164.852 8.98438V9.73438H165.297L165.51 9.343L164.852 8.98438ZM166.711 7.00195L167.112 7.6359L167.114 7.6347L166.711 7.00195ZM169.131 6.98633C169.557 6.98633 169.955 7.01972 170.329 7.08461L170.586 5.60679C170.12 5.52586 169.635 5.48633 169.131 5.48633V6.98633ZM170.323 7.0836L170.624 7.13829L170.892 5.66249L170.591 5.6078L170.323 7.0836ZM170.011 6.32957L169.533 11.3745L171.026 11.5161L171.504 6.47121L170.011 6.32957ZM170.461 10.7177C169.937 10.5866 169.26 10.5312 168.461 10.5312V12.0312C169.211 12.0312 169.747 12.0853 170.097 12.1729L170.461 10.7177ZM168.461 10.5312C167.201 10.5312 166.114 10.819 165.383 11.5621L166.453 12.6137C166.78 12.2813 167.388 12.0312 168.461 12.0312V10.5312ZM165.388 11.5576C164.676 12.2696 164.375 13.2532 164.375 14.3848H165.875C165.875 13.5111 166.103 12.9635 166.448 12.6182L165.388 11.5576ZM164.375 14.3848V22H165.875V14.3848H164.375ZM165.125 21.25H159.779V22.75H165.125V21.25ZM160.529 22V6.50977H159.029V22H160.529ZM159.779 7.25977H163.758V5.75977H159.779V7.25977ZM163.047 6.74929L163.881 9.2239L165.303 8.74485L164.469 6.27024L163.047 6.74929ZM164.592 9.73438H164.852V8.23438H164.592V9.73438ZM165.51 9.343C165.895 8.63546 166.426 8.06922 167.112 7.6359L166.31 6.36801C165.41 6.93729 164.701 7.69267 164.193 8.62575L165.51 9.343ZM167.114 7.6347C167.816 7.18746 168.485 6.98633 169.131 6.98633V5.48633C168.154 5.48633 167.21 5.79561 166.308 6.36921L167.114 7.6347ZM174.395 20.2227L173.873 20.7616L173.876 20.7649L174.395 20.2227ZM174.244 8.3418L174.789 8.85771L174.79 8.85593L174.244 8.3418ZM185.305 8.06836L184.784 8.60833L184.788 8.61211L185.305 8.06836ZM187.219 15.6973V16.4473H187.969V15.6973H187.219ZM177.662 15.6973V14.9473H176.88L176.913 15.7288L177.662 15.6973ZM178.605 17.7344L178.126 18.3113L178.131 18.3148L178.605 17.7344ZM183.637 18.2129L183.799 18.9453L183.805 18.9438L183.637 18.2129ZM186.207 17.2969H186.957V16.1206L185.891 16.6169L186.207 17.2969ZM186.207 21.1387L186.548 21.8066L186.957 21.5977V21.1387H186.207ZM178.51 10.4746L179.022 11.0225L179.022 11.0221L178.51 10.4746ZM177.771 12.334L177.024 12.2697L176.954 13.084H177.771V12.334ZM182.365 12.334V13.084H183.134L183.115 12.3157L182.365 12.334ZM181.723 10.543L181.165 11.0441L181.17 11.0503L181.723 10.543ZM180.41 21.5234C177.963 21.5234 176.166 20.8776 174.913 19.6804L173.876 20.7649C175.485 22.3021 177.698 23.0234 180.41 23.0234V21.5234ZM174.916 19.6838C173.678 18.4856 173.012 16.7481 173.012 14.3574H171.512C171.512 17.0344 172.267 19.2071 173.873 20.7616L174.916 19.6838ZM173.012 14.3574C173.012 11.8629 173.641 10.069 174.789 8.8577L173.7 7.82589C172.204 9.40369 171.512 11.6202 171.512 14.3574H173.012ZM174.79 8.85593C175.934 7.64128 177.6 6.98633 179.904 6.98633V5.48633C177.305 5.48633 175.198 6.23502 173.698 7.82766L174.79 8.85593ZM179.904 6.98633C182.109 6.98633 183.698 7.561 184.784 8.60831L185.825 7.52841C184.378 6.13301 182.367 5.48633 179.904 5.48633V6.98633ZM184.788 8.61211C185.874 9.6436 186.469 11.1714 186.469 13.3184H187.969C187.969 10.8898 187.288 8.9176 185.821 7.52461L184.788 8.61211ZM186.469 13.3184V15.6973H187.969V13.3184H186.469ZM187.219 14.9473H177.662V16.4473H187.219V14.9473ZM176.913 15.7288C176.957 16.7771 177.349 17.6659 178.126 18.3113L179.085 17.1575C178.677 16.8185 178.44 16.3492 178.411 15.6657L176.913 15.7288ZM178.131 18.3148C178.904 18.9478 179.906 19.2227 181.053 19.2227V17.7227C180.139 17.7227 179.51 17.5053 179.08 17.1539L178.131 18.3148ZM181.053 19.2227C182.037 19.2227 182.953 19.1319 183.799 18.9452L183.475 17.4806C182.752 17.6402 181.946 17.7227 181.053 17.7227V19.2227ZM183.805 18.9438C184.66 18.7473 185.566 18.4222 186.523 17.9769L185.891 16.6169C185.006 17.0283 184.2 17.3139 183.469 17.482L183.805 18.9438ZM185.457 17.2969V21.1387H186.957V17.2969H185.457ZM185.866 20.4708C185.09 20.8673 184.293 21.1392 183.474 21.2897L183.745 22.765C184.712 22.5873 185.647 22.2668 186.548 21.8066L185.866 20.4708ZM183.474 21.2897C182.638 21.4432 181.619 21.5234 180.41 21.5234V23.0234C181.68 23.0234 182.794 22.9396 183.745 22.765L183.474 21.2897ZM180.096 9.12305C179.291 9.12305 178.575 9.38608 177.997 9.92709L179.022 11.0221C179.301 10.7611 179.642 10.623 180.096 10.623V9.12305ZM177.998 9.92671C177.39 10.4944 177.106 11.3245 177.024 12.2697L178.519 12.3983C178.583 11.6482 178.791 11.2387 179.022 11.0225L177.998 9.92671ZM177.771 13.084H182.365V11.584H177.771V13.084ZM183.115 12.3157C183.093 11.4308 182.835 10.6452 182.275 10.0357L181.17 11.0503C181.431 11.334 181.601 11.7424 181.615 12.3523L183.115 12.3157ZM182.281 10.0419C181.717 9.41403 180.959 9.12305 180.096 9.12305V10.623C180.599 10.623 180.926 10.7787 181.165 11.0441L182.281 10.0419ZM192.154 21.3301L191.698 21.9253L191.701 21.9277L192.154 21.3301ZM190.24 18.5547L189.536 18.8123L189.538 18.8169L190.24 18.5547ZM197.527 6.75586L197.173 7.41712L197.177 7.41915L197.527 6.75586ZM199.318 8.50586L198.691 8.91705L198.913 9.25586H199.318V8.50586ZM199.428 8.50586V9.25586H200.292L200.17 8.39979L199.428 8.50586ZM199.168 0.726562V-0.0234375H198.418V0.726562H199.168ZM204.555 0.726562H205.305V-0.0234375H204.555V0.726562ZM204.555 22V22.75H205.305V22H204.555ZM200.521 22L199.875 22.3799L200.092 22.75H200.521V22ZM199.373 20.0449L200.02 19.6651L199.802 19.2949H199.373V20.0449ZM199.168 20.0449V19.2949H198.75L198.53 19.6499L199.168 20.0449ZM199.045 17.2422L198.419 16.8286L198.414 16.8361L199.045 17.2422ZM199.619 14.7539L200.369 14.7722L200.369 14.7631V14.7539H199.619ZM199.031 11.418L198.409 11.8362L198.412 11.8408L199.031 11.418ZM195.545 11.541L194.899 11.1604L194.897 11.1631L195.545 11.541ZM195.559 17.1055L196.195 16.7088L195.559 17.1055ZM195.053 21.5234C194.103 21.5234 193.298 21.2564 192.607 20.7325L191.701 21.9277C192.669 22.6616 193.797 23.0234 195.053 23.0234V21.5234ZM192.611 20.7349C191.928 20.2114 191.362 19.4161 190.943 18.2925L189.538 18.8169C190.03 20.136 190.74 21.1909 191.698 21.9253L192.611 20.7349ZM190.945 18.2971C190.535 17.1763 190.32 15.8405 190.32 14.2754H188.82C188.82 15.9733 189.052 17.4904 189.536 18.8123L190.945 18.2971ZM190.32 14.2754C190.32 11.8496 190.81 10.054 191.699 8.80396L190.477 7.93432C189.343 9.52806 188.82 11.6699 188.82 14.2754H190.32ZM191.699 8.80396C192.568 7.58293 193.728 6.98633 195.258 6.98633V5.48633C193.251 5.48633 191.631 6.3116 190.477 7.93432L191.699 8.80396ZM195.258 6.98633C196.022 6.98633 196.653 7.13866 197.173 7.41711L197.881 6.09461C197.107 5.68035 196.225 5.48633 195.258 5.48633V6.98633ZM197.177 7.41915C197.691 7.69024 198.201 8.16986 198.691 8.91705L199.946 8.09467C199.36 7.20123 198.676 6.51419 197.877 6.09257L197.177 7.41915ZM199.318 9.25586H199.428V7.75586H199.318V9.25586ZM200.17 8.39979C200.002 7.22233 199.918 6.04553 199.918 4.86914H198.418C198.418 6.11723 198.507 7.36491 198.685 8.61193L200.17 8.39979ZM199.918 4.86914V0.726562H198.418V4.86914H199.918ZM199.168 1.47656H204.555V-0.0234375H199.168V1.47656ZM203.805 0.726562V22H205.305V0.726562H203.805ZM204.555 21.25H200.521V22.75H204.555V21.25ZM201.168 21.6201L200.02 19.6651L198.726 20.4248L199.875 22.3799L201.168 21.6201ZM199.373 19.2949H199.168V20.7949H199.373V19.2949ZM198.53 19.6499C197.754 20.9036 196.63 21.5234 195.053 21.5234V23.0234C197.122 23.0234 198.741 22.1576 199.805 20.44L198.53 19.6499ZM197.24 18.7988C198.256 18.7988 199.146 18.4705 199.675 17.6483L198.414 16.8361C198.251 17.0894 197.938 17.2988 197.24 17.2988V18.7988ZM199.671 17.6558C200.142 16.9424 200.34 15.9428 200.369 14.7722L198.869 14.7356C198.843 15.8072 198.659 16.4664 198.419 16.8286L199.671 17.6558ZM200.369 14.7539V14.3301H198.869V14.7539H200.369ZM200.369 14.3301C200.369 12.9338 200.177 11.7664 199.651 10.9952L198.412 11.8408C198.669 12.2179 198.869 12.992 198.869 14.3301H200.369ZM199.654 10.9997C199.094 10.1669 198.218 9.79297 197.186 9.79297V11.293C197.83 11.293 198.184 11.5024 198.409 11.8362L199.654 10.9997ZM197.186 9.79297C196.187 9.79297 195.409 10.2939 194.899 11.1604L196.191 11.9217C196.465 11.4574 196.78 11.293 197.186 11.293V9.79297ZM194.897 11.1631C194.418 11.9838 194.221 13.076 194.221 14.3574H195.721C195.721 13.1962 195.906 12.4108 196.193 11.9189L194.897 11.1631ZM194.221 14.3574C194.221 15.6218 194.423 16.7014 194.922 17.5021L196.195 16.7088C195.91 16.2517 195.721 15.4993 195.721 14.3574H194.221ZM194.922 17.5021C195.448 18.3464 196.247 18.7988 197.24 18.7988V17.2988C196.775 17.2988 196.453 17.1223 196.195 16.7088L194.922 17.5021ZM221.248 14.7266V13.9766H220.498V14.7266H221.248ZM221.248 22V22.75H221.998V22H221.248ZM215.848 22H215.098V22.75H215.848V22ZM215.848 2.01172V1.26172H215.098V2.01172H215.848ZM227.154 13.291L226.788 12.6368L226.08 13.0335L226.531 13.7079L227.154 13.291ZM232.979 22V22.75H234.382L233.602 21.5831L232.979 22ZM226.854 22L226.206 22.3776L226.423 22.75H226.854V22ZM222.615 14.7266L223.263 14.349L223.046 13.9766H222.615V14.7266ZM221.248 10.666H220.498V11.416H221.248V10.666ZM221.248 6.09961V5.34961H220.498V6.09961H221.248ZM220.498 14.7266V22H221.998V14.7266H220.498ZM221.248 21.25H215.848V22.75H221.248V21.25ZM216.598 22V2.01172H215.098V22H216.598ZM215.848 2.76172H222.396V1.26172H215.848V2.76172ZM222.396 2.76172C225.044 2.76172 226.895 3.24555 228.068 4.09554C229.196 4.91306 229.795 6.14202 229.795 7.91797H231.295C231.295 5.75642 230.536 4.03225 228.948 2.88103C227.404 1.76226 225.181 1.26172 222.396 1.26172V2.76172ZM229.795 7.91797C229.795 9.92458 228.846 11.4833 226.788 12.6368L227.521 13.9453C229.984 12.5649 231.295 10.5416 231.295 7.91797H229.795ZM226.531 13.7079L232.355 22.4169L233.602 21.5831L227.778 12.8741L226.531 13.7079ZM232.979 21.25H226.854V22.75H232.979V21.25ZM227.502 21.6224L223.263 14.349L221.967 15.1042L226.206 22.3776L227.502 21.6224ZM222.615 13.9766H221.248V15.4766H222.615V13.9766ZM221.248 11.416H222.26V9.91602H221.248V11.416ZM222.26 11.416C223.298 11.416 224.216 11.1887 224.879 10.6024C225.56 10.0006 225.84 9.13927 225.84 8.16406H224.34C224.34 8.85683 224.148 9.24645 223.886 9.47862C223.605 9.72639 223.109 9.91602 222.26 9.91602V11.416ZM225.84 8.16406C225.84 7.29058 225.534 6.52783 224.844 6.01395C224.194 5.53102 223.311 5.34961 222.314 5.34961V6.84961C223.168 6.84961 223.672 7.01227 223.948 7.2175C224.183 7.39176 224.34 7.66124 224.34 8.16406H225.84ZM222.314 5.34961H221.248V6.84961H222.314V5.34961ZM220.498 6.09961V10.666H221.998V6.09961H220.498ZM235.945 20.2227L235.424 20.7616L235.427 20.7649L235.945 20.2227ZM235.795 8.3418L236.339 8.85771L236.341 8.85593L235.795 8.3418ZM246.855 8.06836L246.335 8.60833L246.339 8.61211L246.855 8.06836ZM248.77 15.6973V16.4473H249.52V15.6973H248.77ZM239.213 15.6973V14.9473H238.431L238.464 15.7288L239.213 15.6973ZM240.156 17.7344L239.677 18.3113L239.681 18.3148L240.156 17.7344ZM245.188 18.2129L245.349 18.9453L245.356 18.9438L245.188 18.2129ZM247.758 17.2969H248.508V16.1206L247.441 16.6169L247.758 17.2969ZM247.758 21.1387L248.099 21.8066L248.508 21.5977V21.1387H247.758ZM240.061 10.4746L240.573 11.0225L240.573 11.0221L240.061 10.4746ZM239.322 12.334L238.575 12.2697L238.505 13.084H239.322V12.334ZM243.916 12.334V13.084H244.685L244.666 12.3157L243.916 12.334ZM243.273 10.543L242.715 11.0441L242.721 11.0503L243.273 10.543ZM241.961 21.5234C239.514 21.5234 237.716 20.8776 236.463 19.6804L235.427 20.7649C237.036 22.3021 239.249 23.0234 241.961 23.0234V21.5234ZM236.467 19.6838C235.229 18.4856 234.562 16.7481 234.562 14.3574H233.062C233.062 17.0344 233.818 19.2071 235.424 20.7616L236.467 19.6838ZM234.562 14.3574C234.562 11.8629 235.191 10.069 236.339 8.8577L235.251 7.82589C233.755 9.40369 233.062 11.6202 233.062 14.3574H234.562ZM236.341 8.85593C237.485 7.64128 239.15 6.98633 241.455 6.98633V5.48633C238.856 5.48633 236.748 6.23502 235.249 7.82766L236.341 8.85593ZM241.455 6.98633C243.659 6.98633 245.249 7.561 246.335 8.60831L247.376 7.52841C245.929 6.13301 243.917 5.48633 241.455 5.48633V6.98633ZM246.339 8.61211C247.425 9.6436 248.02 11.1714 248.02 13.3184H249.52C249.52 10.8898 248.838 8.9176 247.372 7.52461L246.339 8.61211ZM248.02 13.3184V15.6973H249.52V13.3184H248.02ZM248.77 14.9473H239.213V16.4473H248.77V14.9473ZM238.464 15.7288C238.508 16.7771 238.9 17.6659 239.677 18.3113L240.636 17.1575C240.227 16.8185 239.991 16.3492 239.962 15.6657L238.464 15.7288ZM239.681 18.3148C240.455 18.9478 241.457 19.2227 242.604 19.2227V17.7227C241.69 17.7227 241.061 17.5053 240.631 17.1539L239.681 18.3148ZM242.604 19.2227C243.588 19.2227 244.504 19.1319 245.349 18.9452L245.026 17.4806C244.303 17.6402 243.497 17.7227 242.604 17.7227V19.2227ZM245.356 18.9438C246.21 18.7473 247.117 18.4222 248.074 17.9769L247.441 16.6169C246.557 17.0283 245.751 17.3139 245.019 17.482L245.356 18.9438ZM247.008 17.2969V21.1387H248.508V17.2969H247.008ZM247.417 20.4708C246.64 20.8673 245.844 21.1392 245.025 21.2897L245.296 22.765C246.263 22.5873 247.198 22.2668 248.099 21.8066L247.417 20.4708ZM245.025 21.2897C244.189 21.4432 243.17 21.5234 241.961 21.5234V23.0234C243.231 23.0234 244.345 22.9396 245.296 22.765L245.025 21.2897ZM241.646 9.12305C240.842 9.12305 240.126 9.38608 239.548 9.92709L240.573 11.0221C240.852 10.7611 241.193 10.623 241.646 10.623V9.12305ZM239.548 9.92671C238.941 10.4944 238.656 11.3245 238.575 12.2697L240.07 12.3983C240.134 11.6482 240.341 11.2387 240.573 11.0225L239.548 9.92671ZM239.322 13.084H243.916V11.584H239.322V13.084ZM244.666 12.3157C244.644 11.4308 244.386 10.6452 243.826 10.0357L242.721 11.0503C242.982 11.334 243.151 11.7424 243.166 12.3523L244.666 12.3157ZM243.831 10.0419C243.268 9.41403 242.51 9.12305 241.646 9.12305V10.623C242.15 10.623 242.477 10.7787 242.715 11.0441L243.831 10.0419ZM254.197 22.082L254.309 21.3403L254.301 21.3393L254.197 22.082ZM251.6 21.4121H250.85V21.9337L251.339 22.1152L251.6 21.4121ZM251.6 17.1328L251.901 16.4462L250.85 15.9839V17.1328H251.6ZM254.32 18.0352L254.145 18.7643L254.146 18.7647L254.32 18.0352ZM258.217 16.873L257.793 17.4916L257.803 17.4985L257.813 17.5051L258.217 16.873ZM255.4 15.6152L255.116 16.3092L255.123 16.3122L255.4 15.6152ZM252.42 13.6328L251.822 14.0852L251.824 14.0887L252.42 13.6328ZM253.24 7.43945L253.679 8.04773L253.24 7.43945ZM260.828 6.57812L260.643 7.3049L260.651 7.30701L260.828 6.57812ZM263.631 7.54883L264.322 7.83963L264.607 7.16143L263.935 6.8632L263.631 7.54883ZM262.182 10.9941L261.875 11.6784L262.575 11.9928L262.873 11.2849L262.182 10.9941ZM259.926 10.1875L259.719 10.9084L259.726 10.9105L259.926 10.1875ZM257.123 11.1719L256.72 11.8046L256.731 11.8117L256.743 11.8183L257.123 11.1719ZM259.775 12.3066L260.061 11.613L260.05 11.6088L259.775 12.3066ZM262.195 13.6191L261.723 14.2019L261.728 14.2058L262.195 13.6191ZM263.371 15.1367L262.68 15.4282L262.683 15.4348L262.686 15.4413L263.371 15.1367ZM263.004 17.2422C263.004 18.7115 262.516 19.7217 261.609 20.402L262.509 21.602C263.862 20.5869 264.504 19.0906 264.504 17.2422H263.004ZM261.609 20.402C260.658 21.1145 259.22 21.5234 257.191 21.5234V23.0234C259.392 23.0234 261.198 22.5847 262.509 21.602L261.609 20.402ZM257.191 21.5234C256.069 21.5234 255.11 21.4609 254.309 21.3404L254.086 22.8237C254.98 22.9583 256.017 23.0234 257.191 23.0234V21.5234ZM254.301 21.3393C253.512 21.229 252.699 21.0201 251.861 20.709L251.339 22.1152C252.268 22.4603 253.187 22.6981 254.093 22.8248L254.301 21.3393ZM252.35 21.4121V17.1328H250.85V21.4121H252.35ZM251.298 17.8194C252.172 18.2038 253.122 18.5181 254.145 18.7643L254.496 17.306C253.55 17.0782 252.686 16.7909 251.901 16.4462L251.298 17.8194ZM254.146 18.7647C255.18 19.0112 256.124 19.1406 256.973 19.1406V17.6406C256.272 17.6406 255.448 17.533 254.494 17.3056L254.146 18.7647ZM256.973 19.1406C257.585 19.1406 258.149 19.0744 258.586 18.8746C258.814 18.7705 259.039 18.6162 259.206 18.3867C259.38 18.1492 259.459 17.8758 259.459 17.5977H257.959C257.959 17.5838 257.966 17.5418 257.995 17.5024C258.017 17.4712 258.025 17.4821 257.963 17.5102C257.822 17.5747 257.518 17.6406 256.973 17.6406V19.1406ZM259.459 17.5977C259.459 16.969 259.065 16.5248 258.621 16.241L257.813 17.5051C257.918 17.5724 257.956 17.6193 257.966 17.6328C257.969 17.6383 257.967 17.6359 257.964 17.6262C257.96 17.6161 257.959 17.6056 257.959 17.5977H259.459ZM258.641 16.2545C258.418 16.1015 258.044 15.9172 257.579 15.7097C257.096 15.4941 256.461 15.23 255.678 14.9183L255.123 16.3122C255.898 16.6203 256.512 16.8757 256.968 17.0793C257.442 17.2912 257.697 17.4259 257.793 17.4916L258.641 16.2545ZM255.685 14.9214C254.315 14.3591 253.463 13.7619 253.015 13.177L251.824 14.0887C252.507 14.9803 253.642 15.7047 255.116 16.3091L255.685 14.9214ZM253.018 13.1805C252.571 12.5895 252.322 11.8149 252.322 10.8027H250.822C250.822 12.0692 251.138 13.1814 251.822 14.0851L253.018 13.1805ZM252.322 10.8027C252.322 9.58933 252.774 8.70068 253.679 8.04773L252.801 6.83118C251.483 7.7824 250.822 9.13593 250.822 10.8027H252.322ZM253.679 8.04773C254.615 7.37256 256.01 6.98633 257.957 6.98633V5.48633C255.839 5.48633 254.089 5.90218 252.801 6.83118L253.679 8.04773ZM257.957 6.98633C258.922 6.98633 259.816 7.09399 260.643 7.30485L261.014 5.8514C260.054 5.60653 259.034 5.48633 257.957 5.48633V6.98633ZM260.651 7.30701C261.505 7.51385 262.396 7.82183 263.327 8.23445L263.935 6.8632C262.933 6.41906 261.956 6.0799 261.005 5.84924L260.651 7.30701ZM262.94 7.25803L261.49 10.7033L262.873 11.2849L264.322 7.83963L262.94 7.25803ZM262.489 10.3099C261.741 9.9744 260.953 9.69285 260.125 9.46451L259.726 10.9105C260.485 11.1197 261.2 11.3759 261.875 11.6784L262.489 10.3099ZM260.133 9.46667C259.31 9.23021 258.586 9.0957 257.984 9.0957V10.5957C258.385 10.5957 258.956 10.6891 259.719 10.9083L260.133 9.46667ZM257.984 9.0957C257.51 9.0957 257.044 9.1499 256.67 9.33274C256.473 9.42924 256.278 9.57313 256.134 9.78506C255.986 10.0025 255.922 10.2467 255.922 10.4883H257.422C257.422 10.5157 257.413 10.5725 257.374 10.6292C257.339 10.6805 257.308 10.6906 257.33 10.68C257.354 10.6681 257.415 10.645 257.531 10.6261C257.645 10.6075 257.794 10.5957 257.984 10.5957V9.0957ZM255.922 10.4883C255.922 11.0948 256.287 11.529 256.72 11.8046L257.526 10.5391C257.438 10.4835 257.413 10.4476 257.411 10.4443C257.41 10.4436 257.414 10.4493 257.417 10.4605C257.421 10.472 257.422 10.4821 257.422 10.4883H255.922ZM256.743 11.8183C257.116 12.0376 258.066 12.4396 259.501 13.0045L260.05 11.6088C258.568 11.0252 257.75 10.6707 257.503 10.5254L256.743 11.8183ZM259.49 13.0001C260.548 13.436 261.277 13.8407 261.723 14.2018L262.668 13.0364C262.056 12.5408 261.172 12.0705 260.061 11.6131L259.49 13.0001ZM261.728 14.2058C262.176 14.5629 262.487 14.9702 262.68 15.4282L264.062 14.8452C263.763 14.1366 263.29 13.5321 262.663 13.0325L261.728 14.2058ZM262.686 15.4413C262.887 15.8942 263.004 16.4857 263.004 17.2422H264.504C264.504 16.3398 264.366 15.5277 264.056 14.8321L262.686 15.4413ZM268.184 20.2227L267.662 20.7616L267.665 20.7649L268.184 20.2227ZM268.033 8.3418L268.578 8.85771L268.579 8.85593L268.033 8.3418ZM279.094 8.06836L278.573 8.60833L278.577 8.61211L279.094 8.06836ZM281.008 15.6973V16.4473H281.758V15.6973H281.008ZM271.451 15.6973V14.9473H270.669L270.702 15.7288L271.451 15.6973ZM272.395 17.7344L271.915 18.3113L271.92 18.3148L272.395 17.7344ZM277.426 18.2129L277.588 18.9453L277.594 18.9438L277.426 18.2129ZM279.996 17.2969H280.746V16.1206L279.68 16.6169L279.996 17.2969ZM279.996 21.1387L280.337 21.8066L280.746 21.5977V21.1387H279.996ZM272.299 10.4746L272.811 11.0225L272.811 11.0221L272.299 10.4746ZM271.561 12.334L270.813 12.2697L270.743 13.084H271.561V12.334ZM276.154 12.334V13.084H276.923L276.904 12.3157L276.154 12.334ZM275.512 10.543L274.954 11.0441L274.959 11.0503L275.512 10.543ZM274.199 21.5234C271.752 21.5234 269.955 20.8776 268.702 19.6804L267.665 20.7649C269.274 22.3021 271.487 23.0234 274.199 23.0234V21.5234ZM268.705 19.6838C267.467 18.4856 266.801 16.7481 266.801 14.3574H265.301C265.301 17.0344 266.056 19.2071 267.662 20.7616L268.705 19.6838ZM266.801 14.3574C266.801 11.8629 267.43 10.069 268.578 8.8577L267.489 7.82589C265.994 9.40369 265.301 11.6202 265.301 14.3574H266.801ZM268.579 8.85593C269.723 7.64128 271.389 6.98633 273.693 6.98633V5.48633C271.094 5.48633 268.987 6.23502 267.487 7.82766L268.579 8.85593ZM273.693 6.98633C275.898 6.98633 277.487 7.561 278.573 8.60831L279.614 7.52841C278.167 6.13301 276.156 5.48633 273.693 5.48633V6.98633ZM278.577 8.61211C279.663 9.6436 280.258 11.1714 280.258 13.3184H281.758C281.758 10.8898 281.077 8.9176 279.61 7.52461L278.577 8.61211ZM280.258 13.3184V15.6973H281.758V13.3184H280.258ZM281.008 14.9473H271.451V16.4473H281.008V14.9473ZM270.702 15.7288C270.746 16.7771 271.138 17.6659 271.915 18.3113L272.874 17.1575C272.466 16.8185 272.229 16.3492 272.201 15.6657L270.702 15.7288ZM271.92 18.3148C272.693 18.9478 273.695 19.2227 274.842 19.2227V17.7227C273.928 17.7227 273.299 17.5053 272.869 17.1539L271.92 18.3148ZM274.842 19.2227C275.826 19.2227 276.743 19.1319 277.588 18.9452L277.264 17.4806C276.541 17.6402 275.735 17.7227 274.842 17.7227V19.2227ZM277.594 18.9438C278.449 18.7473 279.356 18.4222 280.313 17.9769L279.68 16.6169C278.795 17.0283 277.989 17.3139 277.258 17.482L277.594 18.9438ZM279.246 17.2969V21.1387H280.746V17.2969H279.246ZM279.655 20.4708C278.879 20.8673 278.082 21.1392 277.263 21.2897L277.534 22.765C278.501 22.5873 279.436 22.2668 280.337 21.8066L279.655 20.4708ZM277.263 21.2897C276.427 21.4432 275.409 21.5234 274.199 21.5234V23.0234C275.469 23.0234 276.583 22.9396 277.534 22.765L277.263 21.2897ZM273.885 9.12305C273.08 9.12305 272.364 9.38608 271.786 9.92709L272.811 11.0221C273.09 10.7611 273.431 10.623 273.885 10.623V9.12305ZM271.787 9.92671C271.179 10.4944 270.895 11.3245 270.813 12.2697L272.308 12.3983C272.372 11.6482 272.58 11.2387 272.811 11.0225L271.787 9.92671ZM271.561 13.084H276.154V11.584H271.561V13.084ZM276.904 12.3157C276.882 11.4308 276.624 10.6452 276.064 10.0357L274.959 11.0503C275.22 11.334 275.39 11.7424 275.405 12.3523L276.904 12.3157ZM276.07 10.0419C275.506 9.41403 274.749 9.12305 273.885 9.12305V10.623C274.388 10.623 274.715 10.7787 274.954 11.0441L276.07 10.0419ZM294.133 22L293.462 22.3354L293.669 22.75H294.133V22ZM293.107 19.9492L293.778 19.6138L293.571 19.1992H293.107V19.9492ZM292.998 19.9492V19.1992H292.639L292.414 19.4785L292.998 19.9492ZM284.453 20.9609L283.912 21.4799L284.453 20.9609ZM284.918 13.5918L285.347 14.2067L285.351 14.2044L284.918 13.5918ZM289.908 12.2246L289.884 11.4749L289.874 11.4754L289.908 12.2246ZM292.492 12.1426L292.516 12.8922L293.242 12.8691V12.1426H292.492ZM286.299 11.1582L285.612 11.4591L285.913 12.1471L286.601 11.8447L286.299 11.1582ZM284.754 7.63086L284.41 6.96413L283.784 7.28665L284.067 7.93175L284.754 7.63086ZM296.197 7.71289L295.693 8.26827L295.696 8.27036L296.197 7.71289ZM297.838 22V22.75H298.588V22H297.838ZM291.822 17.8848L291.326 17.3224L291.321 17.3273L291.822 17.8848ZM292.52 15.082H293.27V14.298L292.486 14.3328L292.52 15.082ZM291.289 15.1367L291.316 15.8863L291.322 15.886L291.289 15.1367ZM294.804 21.6646L293.778 19.6138L292.437 20.2846L293.462 22.3354L294.804 21.6646ZM293.107 19.1992H292.998V20.6992H293.107V19.1992ZM292.414 19.4785C291.741 20.3139 291.097 20.8303 290.495 21.0945L291.098 22.468C291.991 22.0759 292.815 21.371 293.582 20.4199L292.414 19.4785ZM290.495 21.0945C289.876 21.3665 289.023 21.5234 287.898 21.5234V23.0234C289.144 23.0234 290.223 22.8522 291.098 22.468L290.495 21.0945ZM287.898 21.5234C286.6 21.5234 285.663 21.1399 284.995 20.442L283.912 21.4799C284.92 22.5319 286.28 23.0234 287.898 23.0234V21.5234ZM284.995 20.442C284.327 19.7456 283.945 18.7237 283.945 17.2695H282.445C282.445 18.9872 282.902 20.4263 283.912 21.4799L284.995 20.442ZM283.945 17.2695C283.945 15.8149 284.438 14.8421 285.347 14.2067L284.489 12.9769C283.102 13.9456 282.445 15.4247 282.445 17.2695H283.945ZM285.351 14.2044C286.334 13.5096 287.835 13.0708 289.943 12.9738L289.874 11.4754C287.625 11.5789 285.799 12.0516 284.485 12.9792L285.351 14.2044ZM289.932 12.9742L292.516 12.8922L292.468 11.393L289.884 11.475L289.932 12.9742ZM293.242 12.1426V11.9238H291.742V12.1426H293.242ZM293.242 11.9238C293.242 11.1729 293.057 10.4714 292.555 9.96178C292.05 9.45017 291.353 9.25977 290.605 9.25977V10.7598C291.116 10.7598 291.362 10.8884 291.486 11.0148C291.613 11.1432 291.742 11.3987 291.742 11.9238H293.242ZM290.605 9.25977C289.324 9.25977 287.777 9.68896 285.997 10.4717L286.601 11.8447C288.303 11.0962 289.627 10.7598 290.605 10.7598V9.25977ZM286.986 10.8573L285.441 7.32997L284.067 7.93175L285.612 11.4591L286.986 10.8573ZM285.097 8.29759C286.765 7.43857 288.916 6.98633 291.59 6.98633V5.48633C288.758 5.48633 286.352 5.96378 284.41 6.96413L285.097 8.29759ZM291.59 6.98633C293.458 6.98633 294.789 7.44798 295.693 8.26827L296.701 7.15751C295.436 6.00906 293.696 5.48633 291.59 5.48633V6.98633ZM295.696 8.27036C296.6 9.08402 297.088 10.2395 297.088 11.8418H298.588C298.588 9.90761 297.982 8.31051 296.699 7.15542L295.696 8.27036ZM297.088 11.8418V22H298.588V11.8418H297.088ZM297.838 21.25H294.133V22.75H297.838V21.25ZM290.168 19.25C290.989 19.25 291.722 18.9837 292.324 18.4422L291.321 17.3273C291.011 17.6062 290.641 17.75 290.168 17.75V19.25ZM292.318 18.4471C292.955 17.8854 293.27 17.1423 293.27 16.2852H291.77C291.77 16.7405 291.619 17.0638 291.326 17.3224L292.318 18.4471ZM293.27 16.2852V15.082H291.77V16.2852H293.27ZM292.486 14.3328L291.256 14.3875L291.322 15.886L292.553 15.8313L292.486 14.3328ZM291.262 14.3872C290.316 14.4215 289.48 14.6135 288.866 15.0658C288.207 15.5501 287.9 16.2592 287.9 17.0781H289.4C289.4 16.6666 289.533 16.4368 289.755 16.274C290.019 16.0792 290.503 15.9157 291.316 15.8862L291.262 14.3872ZM287.9 17.0781C287.9 17.6806 288.063 18.2669 288.517 18.6918C288.961 19.1081 289.558 19.25 290.168 19.25V17.75C289.766 17.75 289.604 17.6549 289.543 17.5972C289.49 17.5482 289.4 17.4235 289.4 17.0781H287.9ZM312.152 6.3457L312.286 5.60778L312.281 5.60679L312.152 6.3457ZM312.453 6.40039L313.2 6.47121L313.265 5.78567L312.587 5.66249L312.453 6.40039ZM311.975 11.4453L311.793 12.1729L312.639 12.3845L312.721 11.5161L311.975 11.4453ZM307.613 12.0879L308.144 12.6182L308.148 12.6137L307.613 12.0879ZM306.82 22V22.75H307.57V22H306.82ZM301.475 22H300.725V22.75H301.475V22ZM301.475 6.50977V5.75977H300.725V6.50977H301.475ZM305.453 6.50977L306.164 6.27024L305.992 5.75977H305.453V6.50977ZM306.287 8.98438L305.576 9.2239L305.748 9.73438H306.287V8.98438ZM306.547 8.98438V9.73438H306.992L307.206 9.343L306.547 8.98438ZM308.406 7.00195L308.807 7.6359L308.809 7.6347L308.406 7.00195ZM310.826 6.98633C311.252 6.98633 311.651 7.01972 312.024 7.08461L312.281 5.60679C311.815 5.52586 311.33 5.48633 310.826 5.48633V6.98633ZM312.018 7.0836L312.319 7.13829L312.587 5.66249L312.286 5.6078L312.018 7.0836ZM311.706 6.32957L311.228 11.3745L312.721 11.5161L313.2 6.47121L311.706 6.32957ZM312.157 10.7177C311.632 10.5866 310.955 10.5312 310.156 10.5312V12.0312C310.907 12.0312 311.442 12.0853 311.793 12.1729L312.157 10.7177ZM310.156 10.5312C308.896 10.5312 307.809 10.819 307.078 11.5621L308.148 12.6137C308.475 12.2813 309.083 12.0312 310.156 12.0312V10.5312ZM307.083 11.5576C306.371 12.2696 306.07 13.2532 306.07 14.3848H307.57C307.57 13.5111 307.798 12.9635 308.144 12.6182L307.083 11.5576ZM306.07 14.3848V22H307.57V14.3848H306.07ZM306.82 21.25H301.475V22.75H306.82V21.25ZM302.225 22V6.50977H300.725V22H302.225ZM301.475 7.25977H305.453V5.75977H301.475V7.25977ZM304.742 6.74929L305.576 9.2239L306.998 8.74485L306.164 6.27024L304.742 6.74929ZM306.287 9.73438H306.547V8.23438H306.287V9.73438ZM307.206 9.343C307.591 8.63546 308.122 8.06922 308.807 7.6359L308.005 6.36801C307.105 6.93729 306.396 7.69267 305.888 8.62575L307.206 9.343ZM308.809 7.6347C309.512 7.18746 310.181 6.98633 310.826 6.98633V5.48633C309.849 5.48633 308.905 5.79561 308.004 6.36921L308.809 7.6347ZM315.912 20.2227L315.369 20.7402L315.371 20.7421L315.912 20.2227ZM316.076 8.35547L315.546 7.82514L316.076 8.35547ZM327.178 7.41211L327.875 7.68941L328.13 7.04639L327.51 6.73975L327.178 7.41211ZM325.605 11.3633L325.305 12.0506L326.016 12.3608L326.302 11.6406L325.605 11.3633ZM323.814 10.6934L323.588 11.4084L323.599 11.4117L323.814 10.6934ZM320.096 11.4453L320.709 11.8765L320.096 11.4453ZM326.645 16.6543H327.395V15.292L326.243 16.0206L326.645 16.6543ZM326.645 20.9062L327.059 21.5316L327.395 21.3091V20.9062H326.645ZM321.682 21.5234C319.281 21.5234 317.581 20.8785 316.453 19.7033L315.371 20.7421C316.868 22.3012 319.015 23.0234 321.682 23.0234V21.5234ZM316.455 19.7051C315.326 18.5209 314.707 16.7685 314.707 14.3301H313.207C313.207 17.0141 313.891 19.19 315.369 20.7402L316.455 19.7051ZM314.707 14.3301C314.707 11.8991 315.372 10.1207 316.607 8.8858L315.546 7.82514C313.955 9.41574 313.207 11.6205 313.207 14.3301H314.707ZM316.607 8.8858C317.84 7.65278 319.635 6.98633 322.105 6.98633V5.48633C319.363 5.48633 317.138 6.23264 315.546 7.82514L316.607 8.8858ZM322.105 6.98633C323.788 6.98633 325.364 7.35247 326.845 8.08447L327.51 6.73975C325.819 5.90404 324.015 5.48633 322.105 5.48633V6.98633ZM326.481 7.13481L324.909 11.086L326.302 11.6406L327.875 7.68941L326.481 7.13481ZM325.906 10.6759C325.237 10.384 324.611 10.1494 324.03 9.97499L323.599 11.4117C324.111 11.5654 324.68 11.7774 325.305 12.0506L325.906 10.6759ZM324.041 9.97835C323.418 9.78123 322.772 9.68359 322.105 9.68359V11.1836C322.624 11.1836 323.117 11.2591 323.588 11.4084L324.041 9.97835ZM322.105 9.68359C321.01 9.68359 320.105 10.1282 319.482 11.0141L320.709 11.8765C321.035 11.4135 321.469 11.1836 322.105 11.1836V9.68359ZM319.482 11.0141C318.885 11.8631 318.635 12.9898 318.635 14.3027H320.135C320.135 13.1547 320.358 12.3765 320.709 11.8765L319.482 11.0141ZM318.635 14.3027C318.635 15.6127 318.873 16.7314 319.469 17.5375C320.096 18.3861 321.03 18.7715 322.133 18.7715V17.2715C321.404 17.2715 320.964 17.0371 320.675 16.6461C320.355 16.2126 320.135 15.4719 320.135 14.3027H318.635ZM322.133 18.7715C323.855 18.7715 325.496 18.2686 327.046 17.288L326.243 16.0206C324.912 16.863 323.546 17.2715 322.133 17.2715V18.7715ZM325.895 16.6543V20.9062H327.395V16.6543H325.895ZM326.23 20.2809C324.997 21.098 323.492 21.5234 321.682 21.5234V23.0234C323.736 23.0234 325.54 22.5374 327.059 21.5316L326.23 20.2809ZM339.469 22H338.719V22.75H339.469V22ZM335.682 11.541L335.029 11.1706L335.028 11.1733L335.682 11.541ZM335.066 22V22.75H335.816V22H335.066ZM329.721 22H328.971V22.75H329.721V22ZM329.721 0.726562V-0.0234375H328.971V0.726562H329.721ZM335.066 0.726562H335.816V-0.0234375H335.066V0.726562ZM334.848 8.42383L334.1 8.36154L334.033 9.17383H334.848V8.42383ZM335.094 8.42383V9.17383H335.505L335.727 8.82648L335.094 8.42383ZM343.393 7.74023L342.85 8.25811L342.855 8.26311L343.393 7.74023ZM344.842 22V22.75H345.592V22H344.842ZM340.219 22V13.5508H338.719V22H340.219ZM340.219 13.5508C340.219 12.4622 340.062 11.522 339.653 10.8308C339.207 10.0779 338.497 9.68359 337.623 9.68359V11.1836C337.979 11.1836 338.193 11.3088 338.362 11.595C338.568 11.9428 338.719 12.5612 338.719 13.5508H340.219ZM337.623 9.68359C336.488 9.68359 335.587 10.189 335.029 11.1706L336.334 11.9114C336.615 11.4165 337.008 11.1836 337.623 11.1836V9.68359ZM335.028 11.1733C334.517 12.0813 334.316 13.466 334.316 15.1914H335.816C335.816 13.508 336.026 12.459 336.335 11.9087L335.028 11.1733ZM334.316 15.1914V22H335.816V15.1914H334.316ZM335.066 21.25H329.721V22.75H335.066V21.25ZM330.471 22V0.726562H328.971V22H330.471ZM329.721 1.47656H335.066V-0.0234375H329.721V1.47656ZM334.316 0.726562V3.74805H335.816V0.726562H334.316ZM334.316 3.74805C334.316 5.08959 334.245 6.62677 334.1 8.36154L335.595 8.48611C335.742 6.72088 335.816 5.14088 335.816 3.74805H334.316ZM334.848 9.17383H335.094V7.67383H334.848V9.17383ZM335.727 8.82648C336.178 8.11732 336.684 7.66321 337.23 7.40793L336.594 6.0491C335.737 6.45007 335.031 7.12617 334.461 8.02117L335.727 8.82648ZM337.23 7.40793C337.814 7.13466 338.518 6.98633 339.359 6.98633V5.48633C338.342 5.48633 337.414 5.66612 336.594 6.0491L337.23 7.40793ZM339.359 6.98633C340.941 6.98633 342.068 7.43897 342.85 8.25809L343.935 7.22238C342.803 6.03629 341.242 5.48633 339.359 5.48633V6.98633ZM342.855 8.26311C343.648 9.07879 344.092 10.2635 344.092 11.9238H345.592C345.592 9.99297 345.069 8.38866 343.93 7.21736L342.855 8.26311ZM344.092 11.9238V22H345.592V11.9238H344.092ZM344.842 21.25H339.469V22.75H344.842V21.25Z" fill="#7B838D"/>
</svg>
